<?xml version="1.0" encoding="UTF-8" standalone="no"?>
<!DOCTYPE svg PUBLIC "-//W3C//DTD SVG 1.1//EN"
 "http://www.w3.org/Graphics/SVG/1.1/DTD/svg11.dtd">
<!-- Generated by graphviz version 2.30.1 (20201013.1554)
 -->
<!-- Title: 20220712hs37d5vqsrworkflow Pages: 1 -->
<svg width="1030pt" height="1390pt"
 viewBox="0.00 0.00 1030.00 1390.00" xmlns="http://www.w3.org/2000/svg" xmlns:xlink="http://www.w3.org/1999/xlink">
<g id="graph0" class="graph" transform="scale(1 1) rotate(0) translate(4 1386)">
<title>20220712hs37d5vqsrworkflow</title>
<polygon fill="white" stroke="white" points="-4,5 -4,-1386 1027,-1386 1027,5 -4,5"/>
<!-- p0 -->
<g id="node1" class="node"><title>p0</title>
<ellipse fill="black" stroke="black" cx="593" cy="-1304" rx="3.6" ry="3.6"/>
<text text-anchor="middle" x="566.65" y="-1289.2" font-family="Times,serif" font-size="14.00">Channel.empty</text>
</g>
<!-- p5 -->
<g id="node2" class="node"><title>p5</title>
<ellipse fill="none" stroke="black" cx="560" cy="-1216" rx="3.25" ry="3.5"/>
<text text-anchor="middle" x="543" y="-1223.3" font-family="Times,serif" font-size="14.00">mix</text>
</g>
<!-- p0&#45;&gt;p5 -->
<g id="edge1" class="edge"><title>p0&#45;&gt;p5</title>
<path fill="none" stroke="black" d="M592.048,-1300.52C588.055,-1290.11 572.502,-1249.58 564.625,-1229.05"/>
<polygon fill="black" stroke="black" points="567.871,-1227.74 561.02,-1219.66 561.335,-1230.25 567.871,-1227.74"/>
<text text-anchor="middle" x="619" y="-1256.3" font-family="Times,serif" font-size="14.00">version_ch</text>
</g>
<!-- p8 -->
<g id="node9" class="node"><title>p8</title>
<ellipse fill="none" stroke="black" cx="560" cy="-1142" rx="3.25" ry="3.5"/>
<text text-anchor="middle" x="543" y="-1149.3" font-family="Times,serif" font-size="14.00">mix</text>
</g>
<!-- p5&#45;&gt;p8 -->
<g id="edge8" class="edge"><title>p5&#45;&gt;p8</title>
<path fill="none" stroke="black" d="M560,-1212.27C560,-1203.13 560,-1173.28 560,-1155.89"/>
<polygon fill="black" stroke="black" points="563.5,-1155.74 560,-1145.74 556.5,-1155.74 563.5,-1155.74"/>
<text text-anchor="middle" x="599" y="-1168.3" font-family="Times,serif" font-size="14.00">version_ch</text>
</g>
<!-- p1 -->
<g id="node3" class="node"><title>p1</title>
<ellipse fill="black" stroke="black" cx="422" cy="-1378" rx="3.6" ry="3.6"/>
</g>
<!-- p3 -->
<g id="node4" class="node"><title>p3</title>
<ellipse fill="none" stroke="black" cx="399" cy="-1304" rx="172.327" ry="18"/>
<text text-anchor="middle" x="399" y="-1300.3" font-family="Times,serif" font-size="14.00">VARIANT_VQSR_01:BCF_TO_VCF</text>
</g>
<!-- p1&#45;&gt;p3 -->
<g id="edge2" class="edge"><title>p1&#45;&gt;p3</title>
<path fill="none" stroke="black" d="M421.126,-1374.27C418.898,-1367.29 412.806,-1348.22 407.578,-1331.85"/>
<polygon fill="black" stroke="black" points="410.853,-1330.6 404.476,-1322.14 404.185,-1332.73 410.853,-1330.6"/>
<text text-anchor="middle" x="434.5" y="-1344.3" font-family="Times,serif" font-size="14.00">meta</text>
</g>
<!-- p13 -->
<g id="node6" class="node"><title>p13</title>
<ellipse fill="none" stroke="black" cx="205" cy="-1216" rx="205.073" ry="18"/>
<text text-anchor="middle" x="205" y="-1212.3" font-family="Times,serif" font-size="14.00">VARIANT_VQSR_01:RECALIBRATE_SNP</text>
</g>
<!-- p3&#45;&gt;p13 -->
<g id="edge4" class="edge"><title>p3&#45;&gt;p13</title>
<path fill="none" stroke="black" d="M361.595,-1286.42C330.395,-1272.59 285.766,-1252.8 252.128,-1237.89"/>
<polygon fill="black" stroke="black" points="253.513,-1234.68 242.952,-1233.82 250.676,-1241.08 253.513,-1234.68"/>
</g>
<!-- p4 -->
<g id="node7" class="node"><title>p4</title>
<ellipse fill="black" stroke="black" cx="455" cy="-1216" rx="1.8" ry="1.8"/>
</g>
<!-- p3&#45;&gt;p4 -->
<g id="edge5" class="edge"><title>p3&#45;&gt;p4</title>
<path fill="none" stroke="black" d="M415.749,-1285.95C420.67,-1280.47 425.843,-1274.2 430,-1268 438.741,-1254.95 446.281,-1238.4 450.732,-1227.76"/>
<polygon fill="black" stroke="black" points="454.038,-1228.92 454.502,-1218.33 447.539,-1226.32 454.038,-1228.92"/>
</g>
<!-- p9 -->
<g id="node8" class="node"><title>p9</title>
<ellipse fill="none" stroke="black" cx="432" cy="-1216" rx="3.25" ry="3.5"/>
<text text-anchor="middle" x="458" y="-1223.3" font-family="Times,serif" font-size="14.00">splitCsv</text>
</g>
<!-- p3&#45;&gt;p9 -->
<g id="edge6" class="edge"><title>p3&#45;&gt;p9</title>
<path fill="none" stroke="black" d="M405.52,-1286.01C411.977,-1269.18 421.7,-1243.84 427.393,-1229.01"/>
<polygon fill="black" stroke="black" points="430.752,-1230.02 431.067,-1219.43 424.216,-1227.51 430.752,-1230.02"/>
</g>
<!-- p3&#45;&gt;p5 -->
<g id="edge7" class="edge"><title>p3&#45;&gt;p5</title>
<path fill="none" stroke="black" d="M459.931,-1287.09C474.545,-1282.04 489.747,-1275.72 503,-1268 522.365,-1256.73 540.967,-1238.15 551.398,-1226.81"/>
<polygon fill="black" stroke="black" points="554.05,-1229.09 558.075,-1219.29 548.817,-1224.44 554.05,-1229.09"/>
</g>
<!-- p19 -->
<g id="node22" class="node"><title>p19</title>
<ellipse fill="none" stroke="black" cx="686" cy="-1068" rx="217.121" ry="18"/>
<text text-anchor="middle" x="686" y="-1064.3" font-family="Times,serif" font-size="14.00">VARIANT_VQSR_01:RECALIBRATE_INDEL</text>
</g>
<!-- p3&#45;&gt;p19 -->
<g id="edge25" class="edge"><title>p3&#45;&gt;p19</title>
<path fill="none" stroke="black" d="M428.358,-1286.23C435.737,-1281.06 443.198,-1274.89 449,-1268 498.434,-1209.31 446.212,-1155.61 503,-1104 511.706,-1096.09 530.237,-1089.85 552.309,-1084.96"/>
<polygon fill="black" stroke="black" points="553.24,-1088.35 562.319,-1082.89 551.817,-1081.49 553.24,-1088.35"/>
<text text-anchor="middle" x="485" y="-1168.3" font-family="Times,serif" font-size="14.00">vcf</text>
</g>
<!-- p2 -->
<g id="node5" class="node"><title>p2</title>
<ellipse fill="black" stroke="black" cx="377" cy="-1378" rx="3.6" ry="3.6"/>
</g>
<!-- p2&#45;&gt;p3 -->
<g id="edge3" class="edge"><title>p2&#45;&gt;p3</title>
<path fill="none" stroke="black" d="M376.606,-1374.23C375.816,-1367.98 374.402,-1352.34 378,-1340 378.884,-1336.97 380.096,-1333.93 381.496,-1330.98"/>
<polygon fill="black" stroke="black" points="384.693,-1332.43 386.434,-1321.98 378.556,-1329.07 384.693,-1332.43"/>
<text text-anchor="middle" x="389" y="-1344.3" font-family="Times,serif" font-size="14.00">vcf</text>
</g>
<!-- p16 -->
<g id="node17" class="node"><title>p16</title>
<ellipse fill="none" stroke="black" cx="182" cy="-1142" rx="3.25" ry="3.5"/>
<text text-anchor="middle" x="163" y="-1149.3" font-family="Times,serif" font-size="14.00">map</text>
</g>
<!-- p13&#45;&gt;p16 -->
<g id="edge17" class="edge"><title>p13&#45;&gt;p16</title>
<path fill="none" stroke="black" d="M199.549,-1197.94C195.369,-1184.85 189.698,-1167.1 185.948,-1155.36"/>
<polygon fill="black" stroke="black" points="189.255,-1154.21 182.878,-1145.75 182.587,-1156.34 189.255,-1154.21"/>
</g>
<!-- p15 -->
<g id="node12" class="node"><title>p15</title>
<ellipse fill="none" stroke="black" cx="447" cy="-1068" rx="3.25" ry="3.5"/>
<text text-anchor="middle" x="430" y="-1075.3" font-family="Times,serif" font-size="14.00">mix</text>
</g>
<!-- p13&#45;&gt;p15 -->
<g id="edge18" class="edge"><title>p13&#45;&gt;p15</title>
<path fill="none" stroke="black" d="M325.876,-1201.37C342.212,-1196.25 358.107,-1189.33 372,-1180 409.31,-1154.93 433.032,-1104.45 442.417,-1081.21"/>
<polygon fill="black" stroke="black" points="445.779,-1082.22 446.084,-1071.63 439.241,-1079.72 445.779,-1082.22"/>
</g>
<!-- p14 -->
<g id="node18" class="node"><title>p14</title>
<ellipse fill="black" stroke="black" cx="207" cy="-1142" rx="1.8" ry="1.8"/>
</g>
<!-- p13&#45;&gt;p14 -->
<g id="edge19" class="edge"><title>p13&#45;&gt;p14</title>
<path fill="none" stroke="black" d="M205.474,-1197.94C205.851,-1184.37 206.367,-1165.79 206.692,-1154.09"/>
<polygon fill="black" stroke="black" points="210.197,-1153.94 206.976,-1143.85 203.2,-1153.75 210.197,-1153.94"/>
</g>
<!-- p23 -->
<g id="node19" class="node"><title>p23</title>
<ellipse fill="none" stroke="black" cx="381" cy="-980" rx="169.928" ry="18"/>
<text text-anchor="middle" x="381" y="-976.3" font-family="Times,serif" font-size="14.00">VARIANT_VQSR_01:MERGE_PDF</text>
</g>
<!-- p13&#45;&gt;p23 -->
<g id="edge20" class="edge"><title>p13&#45;&gt;p23</title>
<path fill="none" stroke="black" d="M243.974,-1198.2C275.695,-1182.53 319.145,-1156.12 344,-1120 367.325,-1086.1 375.952,-1038.26 379.139,-1008.46"/>
<polygon fill="black" stroke="black" points="382.637,-1008.65 380.084,-998.363 375.668,-1007.99 382.637,-1008.65"/>
</g>
<!-- p10 -->
<g id="node13" class="node"><title>p10</title>
<ellipse fill="none" stroke="black" cx="296" cy="-1142" rx="3.25" ry="3.5"/>
<text text-anchor="middle" x="277" y="-1149.3" font-family="Times,serif" font-size="14.00">map</text>
</g>
<!-- p9&#45;&gt;p10 -->
<g id="edge13" class="edge"><title>p9&#45;&gt;p10</title>
<path fill="none" stroke="black" d="M430.766,-1212.73C428.732,-1209.17 424.362,-1202.24 419,-1198 383.854,-1170.2 332.431,-1153.21 308.773,-1146.42"/>
<polygon fill="black" stroke="black" points="309.532,-1142.99 298.963,-1143.74 307.689,-1149.75 309.532,-1142.99"/>
</g>
<!-- p8&#45;&gt;p15 -->
<g id="edge12" class="edge"><title>p8&#45;&gt;p15</title>
<path fill="none" stroke="black" d="M557.28,-1139.99C544.974,-1135.35 493.647,-1114.94 460,-1086 457.814,-1084.12 455.758,-1081.82 453.954,-1079.52"/>
<polygon fill="black" stroke="black" points="456.812,-1077.5 448.277,-1071.22 451.034,-1081.45 456.812,-1077.5"/>
<text text-anchor="middle" x="551" y="-1108.3" font-family="Times,serif" font-size="14.00">version_ch</text>
</g>
<!-- p6 -->
<g id="node10" class="node"><title>p6</title>
<ellipse fill="black" stroke="black" cx="818" cy="-1378" rx="3.6" ry="3.6"/>
</g>
<!-- p7 -->
<g id="node11" class="node"><title>p7</title>
<ellipse fill="none" stroke="black" cx="818" cy="-1304" rx="203.148" ry="18"/>
<text text-anchor="middle" x="818" y="-1300.3" font-family="Times,serif" font-size="14.00">VARIANT_VQSR_01:COMPILE_MINIKIT</text>
</g>
<!-- p6&#45;&gt;p7 -->
<g id="edge9" class="edge"><title>p6&#45;&gt;p7</title>
<path fill="none" stroke="black" d="M818,-1374.27C818,-1367.35 818,-1348.58 818,-1332.32"/>
<polygon fill="black" stroke="black" points="821.5,-1332.14 818,-1322.14 814.5,-1332.14 821.5,-1332.14"/>
<text text-anchor="middle" x="836.5" y="-1344.3" font-family="Times,serif" font-size="14.00">meta</text>
</g>
<!-- p7&#45;&gt;p13 -->
<g id="edge10" class="edge"><title>p7&#45;&gt;p13</title>
<path fill="none" stroke="black" d="M714.36,-1288.46C604.75,-1273.08 432.317,-1248.89 318.951,-1232.99"/>
<polygon fill="black" stroke="black" points="319.24,-1229.49 308.851,-1231.57 318.268,-1236.43 319.24,-1229.49"/>
</g>
<!-- p7&#45;&gt;p8 -->
<g id="edge11" class="edge"><title>p7&#45;&gt;p8</title>
<path fill="none" stroke="black" d="M801.229,-1285.66C771.77,-1256.21 707.604,-1196.47 642,-1164 619.33,-1152.78 590.075,-1147.15 573.339,-1144.67"/>
<polygon fill="black" stroke="black" points="573.669,-1141.19 563.297,-1143.35 572.752,-1148.13 573.669,-1141.19"/>
</g>
<!-- p7&#45;&gt;p19 -->
<g id="edge26" class="edge"><title>p7&#45;&gt;p19</title>
<path fill="none" stroke="black" d="M820.25,-1285.74C824.159,-1248.04 827.934,-1157.42 783,-1104 778.509,-1098.66 773.138,-1094.14 767.259,-1090.3"/>
<polygon fill="black" stroke="black" points="768.738,-1087.11 758.324,-1085.16 765.248,-1093.18 768.738,-1087.11"/>
<text text-anchor="middle" x="843" y="-1168.3" font-family="Times,serif" font-size="14.00">minikit</text>
</g>
<!-- p21 -->
<g id="node20" class="node"><title>p21</title>
<ellipse fill="none" stroke="black" cx="670" cy="-980" rx="3.25" ry="3.5"/>
<text text-anchor="middle" x="653" y="-987.3" font-family="Times,serif" font-size="14.00">mix</text>
</g>
<!-- p15&#45;&gt;p21 -->
<g id="edge21" class="edge"><title>p15&#45;&gt;p21</title>
<path fill="none" stroke="black" d="M448.184,-1064.66C450.149,-1061.01 454.427,-1053.96 460,-1050 493.383,-1026.28 617.05,-994.156 657.271,-984.124"/>
<polygon fill="black" stroke="black" points="658.16,-987.51 667.031,-981.717 656.484,-980.713 658.16,-987.51"/>
<text text-anchor="middle" x="579" y="-1020.3" font-family="Times,serif" font-size="14.00">version_ch</text>
</g>
<!-- p26 -->
<g id="node14" class="node"><title>p26</title>
<ellipse fill="none" stroke="black" cx="189" cy="-1068" rx="3.25" ry="3.5"/>
<text text-anchor="middle" x="155" y="-1075.3" font-family="Times,serif" font-size="14.00">combine</text>
</g>
<!-- p10&#45;&gt;p26 -->
<g id="edge14" class="edge"><title>p10&#45;&gt;p26</title>
<path fill="none" stroke="black" d="M293.717,-1139.4C284.229,-1132.75 248.167,-1107.48 243,-1104 228.262,-1094.08 211,-1082.98 200.035,-1076"/>
<polygon fill="black" stroke="black" points="201.814,-1072.98 191.496,-1070.57 198.062,-1078.89 201.814,-1072.98"/>
<text text-anchor="middle" x="305" y="-1108.3" font-family="Times,serif" font-size="14.00">contigs_ch</text>
</g>
<!-- p27 -->
<g id="node31" class="node"><title>p27</title>
<ellipse fill="none" stroke="black" cx="189" cy="-980" rx="3.25" ry="3.5"/>
<text text-anchor="middle" x="170" y="-987.3" font-family="Times,serif" font-size="14.00">map</text>
</g>
<!-- p26&#45;&gt;p27 -->
<g id="edge37" class="edge"><title>p26&#45;&gt;p27</title>
<path fill="none" stroke="black" d="M189,-1064.14C189,-1053.28 189,-1014.21 189,-993.727"/>
<polygon fill="black" stroke="black" points="192.5,-993.615 189,-983.615 185.5,-993.615 192.5,-993.615"/>
</g>
<!-- p11 -->
<g id="node15" class="node"><title>p11</title>
<ellipse fill="black" stroke="black" cx="145" cy="-1304" rx="3.6" ry="3.6"/>
</g>
<!-- p11&#45;&gt;p13 -->
<g id="edge15" class="edge"><title>p11&#45;&gt;p13</title>
<path fill="none" stroke="black" d="M145.565,-1299.99C147.233,-1291.71 152.735,-1268.1 164,-1252 166.739,-1248.08 170.017,-1244.34 173.509,-1240.85"/>
<polygon fill="black" stroke="black" points="175.881,-1243.42 180.876,-1234.08 171.144,-1238.27 175.881,-1243.42"/>
<text text-anchor="middle" x="182.5" y="-1256.3" font-family="Times,serif" font-size="14.00">meta</text>
</g>
<!-- p12 -->
<g id="node16" class="node"><title>p12</title>
<ellipse fill="black" stroke="black" cx="205" cy="-1304" rx="3.6" ry="3.6"/>
</g>
<!-- p12&#45;&gt;p13 -->
<g id="edge16" class="edge"><title>p12&#45;&gt;p13</title>
<path fill="none" stroke="black" d="M205,-1300.14C205,-1291.5 205,-1265.01 205,-1244.23"/>
<polygon fill="black" stroke="black" points="208.5,-1244 205,-1234 201.5,-1244 208.5,-1244"/>
<text text-anchor="middle" x="240" y="-1256.3" font-family="Times,serif" font-size="14.00">reference</text>
</g>
<!-- p16&#45;&gt;p26 -->
<g id="edge22" class="edge"><title>p16&#45;&gt;p26</title>
<path fill="none" stroke="black" d="M181.941,-1138.3C181.837,-1132.18 181.737,-1116.79 183,-1104 183.748,-1096.43 185.169,-1088.02 186.441,-1081.34"/>
<polygon fill="black" stroke="black" points="189.874,-1082.03 188.438,-1071.53 183.014,-1080.63 189.874,-1082.03"/>
<text text-anchor="middle" x="213" y="-1108.3" font-family="Times,serif" font-size="14.00">snp2_ch</text>
</g>
<!-- p55 -->
<g id="node28" class="node"><title>p55</title>
<ellipse fill="none" stroke="black" cx="540" cy="-60" rx="56.3173" ry="18"/>
<text text-anchor="middle" x="540" y="-56.3" font-family="Times,serif" font-size="14.00">PUBLISH</text>
</g>
<!-- p23&#45;&gt;p55 -->
<g id="edge33" class="edge"><title>p23&#45;&gt;p55</title>
<path fill="none" stroke="black" d="M320.628,-963.103C294.593,-952.253 270,-934.679 270,-907 270,-907 270,-907 270,-133 270,-90.6638 395.502,-72.5883 475.377,-65.3714"/>
<polygon fill="black" stroke="black" points="475.702,-68.8564 485.361,-64.5039 475.096,-61.8826 475.702,-68.8564"/>
<text text-anchor="middle" x="282" y="-558.3" font-family="Times,serif" font-size="14.00">pdf</text>
</g>
<!-- p24 -->
<g id="node26" class="node"><title>p24</title>
<ellipse fill="none" stroke="black" cx="670" cy="-906" rx="3.25" ry="3.5"/>
<text text-anchor="middle" x="653" y="-913.3" font-family="Times,serif" font-size="14.00">mix</text>
</g>
<!-- p23&#45;&gt;p24 -->
<g id="edge34" class="edge"><title>p23&#45;&gt;p24</title>
<path fill="none" stroke="black" d="M431.561,-962.788C466.319,-952.009 513.661,-938.042 556,-928 592.169,-919.422 635.493,-912.29 656.817,-908.983"/>
<polygon fill="black" stroke="black" points="657.44,-912.428 666.802,-907.467 656.39,-905.508 657.44,-912.428"/>
</g>
<!-- p21&#45;&gt;p24 -->
<g id="edge31" class="edge"><title>p21&#45;&gt;p24</title>
<path fill="none" stroke="black" d="M670,-976.265C670,-967.133 670,-937.282 670,-919.892"/>
<polygon fill="black" stroke="black" points="673.5,-919.737 670,-909.737 666.5,-919.737 673.5,-919.737"/>
<text text-anchor="middle" x="709" y="-932.3" font-family="Times,serif" font-size="14.00">version_ch</text>
</g>
<!-- p17 -->
<g id="node21" class="node"><title>p17</title>
<ellipse fill="black" stroke="black" cx="753" cy="-1142" rx="3.6" ry="3.6"/>
</g>
<!-- p17&#45;&gt;p19 -->
<g id="edge23" class="edge"><title>p17&#45;&gt;p19</title>
<path fill="none" stroke="black" d="M751.894,-1138.46C749.069,-1132.14 741.088,-1115.43 731,-1104 727.488,-1100.02 723.473,-1096.17 719.319,-1092.58"/>
<polygon fill="black" stroke="black" points="721.219,-1089.61 711.257,-1086 716.794,-1095.03 721.219,-1089.61"/>
<text text-anchor="middle" x="760.5" y="-1108.3" font-family="Times,serif" font-size="14.00">meta</text>
</g>
<!-- p25 -->
<g id="node24" class="node"><title>p25</title>
<ellipse fill="none" stroke="black" cx="573" cy="-980" rx="3.25" ry="3.5"/>
<text text-anchor="middle" x="585" y="-987.3" font-family="Times,serif" font-size="14.00">map</text>
</g>
<!-- p19&#45;&gt;p25 -->
<g id="edge27" class="edge"><title>p19&#45;&gt;p25</title>
<path fill="none" stroke="black" d="M597.292,-1051.46C588.272,-1046.57 580.175,-1040.23 574,-1032 565.813,-1021.09 567.116,-1004.85 569.453,-993.635"/>
<polygon fill="black" stroke="black" points="572.915,-994.233 572.08,-983.671 566.146,-992.448 572.915,-994.233"/>
</g>
<!-- p19&#45;&gt;p21 -->
<g id="edge28" class="edge"><title>p19&#45;&gt;p21</title>
<path fill="none" stroke="black" d="M682.762,-1049.6C679.683,-1033.05 675.124,-1008.54 672.37,-993.737"/>
<polygon fill="black" stroke="black" points="675.767,-992.862 670.497,-983.671 668.885,-994.143 675.767,-992.862"/>
</g>
<!-- p20 -->
<g id="node25" class="node"><title>p20</title>
<ellipse fill="black" stroke="black" cx="711" cy="-980" rx="1.8" ry="1.8"/>
</g>
<!-- p19&#45;&gt;p20 -->
<g id="edge29" class="edge"><title>p19&#45;&gt;p20</title>
<path fill="none" stroke="black" d="M691.059,-1049.6C696.076,-1032.34 703.607,-1006.43 707.833,-991.895"/>
<polygon fill="black" stroke="black" points="711.251,-992.675 710.682,-982.095 704.529,-990.721 711.251,-992.675"/>
</g>
<!-- p19&#45;&gt;p23 -->
<g id="edge30" class="edge"><title>p19&#45;&gt;p23</title>
<path fill="none" stroke="black" d="M627.914,-1050.62C576.497,-1036.12 501.474,-1014.97 447.634,-999.788"/>
<polygon fill="black" stroke="black" points="448.412,-996.372 437.837,-997.026 446.512,-1003.11 448.412,-996.372"/>
</g>
<!-- p18 -->
<g id="node23" class="node"><title>p18</title>
<ellipse fill="black" stroke="black" cx="660" cy="-1142" rx="3.6" ry="3.6"/>
</g>
<!-- p18&#45;&gt;p19 -->
<g id="edge24" class="edge"><title>p18&#45;&gt;p19</title>
<path fill="none" stroke="black" d="M659.536,-1138.21C658.602,-1131.91 656.913,-1116.18 661,-1104 662.069,-1100.81 663.534,-1097.67 665.224,-1094.64"/>
<polygon fill="black" stroke="black" points="668.304,-1096.33 670.793,-1086.03 662.425,-1092.53 668.304,-1096.33"/>
<text text-anchor="middle" x="696" y="-1108.3" font-family="Times,serif" font-size="14.00">reference</text>
</g>
<!-- p28 -->
<g id="node30" class="node"><title>p28</title>
<ellipse fill="none" stroke="black" cx="554" cy="-906" rx="3.25" ry="3.5"/>
<text text-anchor="middle" x="520" y="-913.3" font-family="Times,serif" font-size="14.00">combine</text>
</g>
<!-- p25&#45;&gt;p28 -->
<g id="edge36" class="edge"><title>p25&#45;&gt;p28</title>
<path fill="none" stroke="black" d="M572.278,-976.265C569.835,-967.005 561.771,-936.446 557.212,-919.172"/>
<polygon fill="black" stroke="black" points="560.579,-918.213 554.643,-909.437 553.811,-919.999 560.579,-918.213"/>
<text text-anchor="middle" x="599" y="-932.3" font-family="Times,serif" font-size="14.00">indel2_ch</text>
</g>
<!-- p34 -->
<g id="node29" class="node"><title>p34</title>
<ellipse fill="none" stroke="black" cx="837" cy="-726" rx="3.25" ry="3.5"/>
<text text-anchor="middle" x="820" y="-733.3" font-family="Times,serif" font-size="14.00">mix</text>
</g>
<!-- p24&#45;&gt;p34 -->
<g id="edge35" class="edge"><title>p24&#45;&gt;p34</title>
<path fill="none" stroke="black" d="M672.976,-903.891C690.039,-897.371 776.117,-862.314 817,-804 830.764,-784.368 835.058,-755.955 836.396,-739.697"/>
<polygon fill="black" stroke="black" points="839.893,-739.845 836.96,-729.664 832.904,-739.452 839.893,-739.845"/>
<text text-anchor="middle" x="841" y="-826.3" font-family="Times,serif" font-size="14.00">version_ch</text>
</g>
<!-- p22 -->
<g id="node27" class="node"><title>p22</title>
<ellipse fill="black" stroke="black" cx="391" cy="-1068" rx="3.6" ry="3.6"/>
</g>
<!-- p22&#45;&gt;p23 -->
<g id="edge32" class="edge"><title>p22&#45;&gt;p23</title>
<path fill="none" stroke="black" d="M390.667,-1064.14C389.658,-1055.46 386.554,-1028.77 384.133,-1007.94"/>
<polygon fill="black" stroke="black" points="387.609,-1007.53 382.977,-998.004 380.656,-1008.34 387.609,-1007.53"/>
<text text-anchor="middle" x="405.5" y="-1020.3" font-family="Times,serif" font-size="14.00">meta</text>
</g>
<!-- p60 -->
<g id="node57" class="node"><title>p60</title>
<ellipse fill="black" stroke="black" cx="490" cy="-2" rx="1.8" ry="1.8"/>
</g>
<!-- p55&#45;&gt;p60 -->
<g id="edge72" class="edge"><title>p55&#45;&gt;p60</title>
<path fill="none" stroke="black" d="M525.269,-42.501C516.195,-32.3382 504.936,-19.7288 497.616,-11.5299"/>
<polygon fill="black" stroke="black" points="500.182,-9.14812 490.911,-4.01979 494.96,-13.8103 500.182,-9.14812"/>
</g>
<!-- p59 -->
<g id="node58" class="node"><title>p59</title>
<ellipse fill="black" stroke="black" cx="515" cy="-2" rx="1.8" ry="1.8"/>
</g>
<!-- p55&#45;&gt;p59 -->
<g id="edge73" class="edge"><title>p55&#45;&gt;p59</title>
<path fill="none" stroke="black" d="M532.363,-41.8939C528.192,-32.5499 523.164,-21.2883 519.595,-13.2932"/>
<polygon fill="black" stroke="black" points="522.717,-11.7003 515.445,-3.99575 516.325,-14.5539 522.717,-11.7003"/>
</g>
<!-- p58 -->
<g id="node59" class="node"><title>p58</title>
<ellipse fill="black" stroke="black" cx="540" cy="-2" rx="1.8" ry="1.8"/>
</g>
<!-- p55&#45;&gt;p58 -->
<g id="edge74" class="edge"><title>p55&#45;&gt;p58</title>
<path fill="none" stroke="black" d="M540,-41.8939C540,-32.8876 540,-22.0999 540,-14.1727"/>
<polygon fill="black" stroke="black" points="543.5,-13.9957 540,-3.99575 536.5,-13.9958 543.5,-13.9957"/>
</g>
<!-- p57 -->
<g id="node60" class="node"><title>p57</title>
<ellipse fill="black" stroke="black" cx="565" cy="-2" rx="1.8" ry="1.8"/>
</g>
<!-- p55&#45;&gt;p57 -->
<g id="edge75" class="edge"><title>p55&#45;&gt;p57</title>
<path fill="none" stroke="black" d="M547.637,-41.8939C551.808,-32.5499 556.836,-21.2883 560.405,-13.2932"/>
<polygon fill="black" stroke="black" points="563.675,-14.5539 564.555,-3.99575 557.283,-11.7003 563.675,-14.5539"/>
</g>
<!-- p56 -->
<g id="node61" class="node"><title>p56</title>
<ellipse fill="black" stroke="black" cx="590" cy="-2" rx="1.8" ry="1.8"/>
</g>
<!-- p55&#45;&gt;p56 -->
<g id="edge76" class="edge"><title>p55&#45;&gt;p56</title>
<path fill="none" stroke="black" d="M554.731,-42.501C563.805,-32.3382 575.064,-19.7288 582.384,-11.5299"/>
<polygon fill="black" stroke="black" points="585.04,-13.8103 589.089,-4.01979 579.818,-9.14812 585.04,-13.8103"/>
</g>
<!-- p40 -->
<g id="node38" class="node"><title>p40</title>
<ellipse fill="none" stroke="black" cx="826" cy="-592" rx="3.25" ry="3.5"/>
<text text-anchor="middle" x="809" y="-599.3" font-family="Times,serif" font-size="14.00">mix</text>
</g>
<!-- p34&#45;&gt;p40 -->
<g id="edge46" class="edge"><title>p34&#45;&gt;p40</title>
<path fill="none" stroke="black" d="M837.38,-722.445C838.921,-711.642 844.365,-668.669 839,-634 837.453,-624.003 833.903,-613.105 830.903,-605.06"/>
<polygon fill="black" stroke="black" points="834.056,-603.518 827.103,-595.524 827.554,-606.11 834.056,-603.518"/>
<text text-anchor="middle" x="881" y="-648.3" font-family="Times,serif" font-size="14.00">version_ch</text>
</g>
<!-- p29 -->
<g id="node32" class="node"><title>p29</title>
<ellipse fill="none" stroke="black" cx="554" cy="-860" rx="3.25" ry="3.5"/>
<text text-anchor="middle" x="535" y="-867.3" font-family="Times,serif" font-size="14.00">map</text>
</g>
<!-- p28&#45;&gt;p29 -->
<g id="edge39" class="edge"><title>p28&#45;&gt;p29</title>
<path fill="none" stroke="black" d="M554,-902.379C554,-896.864 554,-883.742 554,-873.742"/>
<polygon fill="black" stroke="black" points="557.5,-873.552 554,-863.552 550.5,-873.552 557.5,-873.552"/>
</g>
<!-- p27&#45;&gt;p28 -->
<g id="edge38" class="edge"><title>p27&#45;&gt;p28</title>
<path fill="none" stroke="black" d="M190.112,-976.551C191.979,-972.748 196.124,-965.494 202,-962 261.186,-926.805 483.694,-911.226 540.653,-907.765"/>
<polygon fill="black" stroke="black" points="541.015,-911.25 550.794,-907.173 540.608,-904.262 541.015,-911.25"/>
</g>
<!-- p32 -->
<g id="node33" class="node"><title>p32</title>
<ellipse fill="none" stroke="black" cx="554" cy="-786" rx="254.167" ry="18"/>
<text text-anchor="middle" x="554" y="-782.3" font-family="Times,serif" font-size="14.00">VARIANT_VQSR_01:APPLY_RECALIBRATION_SNP</text>
</g>
<!-- p29&#45;&gt;p32 -->
<g id="edge40" class="edge"><title>p29&#45;&gt;p32</title>
<path fill="none" stroke="black" d="M554,-856.265C554,-849.354 554,-830.578 554,-814.316"/>
<polygon fill="black" stroke="black" points="557.5,-814.143 554,-804.143 550.5,-814.143 557.5,-814.143"/>
<text text-anchor="middle" x="580" y="-826.3" font-family="Times,serif" font-size="14.00">ch1_ch</text>
</g>
<!-- p35 -->
<g id="node36" class="node"><title>p35</title>
<ellipse fill="none" stroke="black" cx="559" cy="-726" rx="3.25" ry="3.5"/>
<text text-anchor="middle" x="540" y="-733.3" font-family="Times,serif" font-size="14.00">map</text>
</g>
<!-- p32&#45;&gt;p35 -->
<g id="edge43" class="edge"><title>p32&#45;&gt;p35</title>
<path fill="none" stroke="black" d="M555.473,-767.912C556.244,-758.965 557.174,-748.187 557.884,-739.94"/>
<polygon fill="black" stroke="black" points="561.396,-739.954 558.768,-729.691 554.422,-739.353 561.396,-739.954"/>
</g>
<!-- p32&#45;&gt;p34 -->
<g id="edge44" class="edge"><title>p32&#45;&gt;p34</title>
<path fill="none" stroke="black" d="M632.831,-768.844C699.825,-755.114 790.306,-736.57 823.811,-729.703"/>
<polygon fill="black" stroke="black" points="824.86,-733.061 833.954,-727.624 823.455,-726.203 824.86,-733.061"/>
</g>
<!-- p33 -->
<g id="node37" class="node"><title>p33</title>
<ellipse fill="black" stroke="black" cx="481" cy="-726" rx="1.8" ry="1.8"/>
</g>
<!-- p32&#45;&gt;p33 -->
<g id="edge45" class="edge"><title>p32&#45;&gt;p33</title>
<path fill="none" stroke="black" d="M532.492,-767.912C518.508,-756.801 500.971,-742.867 490.393,-734.463"/>
<polygon fill="black" stroke="black" points="492.336,-731.537 482.329,-728.056 487.982,-737.017 492.336,-731.537"/>
</g>
<!-- p30 -->
<g id="node34" class="node"><title>p30</title>
<ellipse fill="black" stroke="black" cx="494" cy="-860" rx="3.6" ry="3.6"/>
</g>
<!-- p30&#45;&gt;p32 -->
<g id="edge41" class="edge"><title>p30&#45;&gt;p32</title>
<path fill="none" stroke="black" d="M494.902,-856.47C497.222,-850.189 503.86,-833.553 513,-822 516.034,-818.165 519.537,-814.437 523.192,-810.933"/>
<polygon fill="black" stroke="black" points="525.707,-813.379 530.805,-804.091 521.028,-808.172 525.707,-813.379"/>
<text text-anchor="middle" x="531.5" y="-826.3" font-family="Times,serif" font-size="14.00">meta</text>
</g>
<!-- p31 -->
<g id="node35" class="node"><title>p31</title>
<ellipse fill="black" stroke="black" cx="629" cy="-860" rx="3.6" ry="3.6"/>
</g>
<!-- p31&#45;&gt;p32 -->
<g id="edge42" class="edge"><title>p31&#45;&gt;p32</title>
<path fill="none" stroke="black" d="M627.948,-856.406C625.245,-849.977 617.523,-833.032 607,-822 602.856,-817.655 598.076,-813.575 593.12,-809.844"/>
<polygon fill="black" stroke="black" points="594.883,-806.805 584.692,-803.909 590.852,-812.528 594.883,-806.805"/>
<text text-anchor="middle" x="654" y="-826.3" font-family="Times,serif" font-size="14.00">reference</text>
</g>
<!-- p38 -->
<g id="node39" class="node"><title>p38</title>
<ellipse fill="none" stroke="black" cx="564" cy="-652" rx="266.215" ry="18"/>
<text text-anchor="middle" x="564" y="-648.3" font-family="Times,serif" font-size="14.00">VARIANT_VQSR_01:APPLY_RECALIBRATION_INDEL</text>
</g>
<!-- p35&#45;&gt;p38 -->
<g id="edge47" class="edge"><title>p35&#45;&gt;p38</title>
<path fill="none" stroke="black" d="M559.19,-722.265C559.67,-715.354 560.974,-696.578 562.103,-680.316"/>
<polygon fill="black" stroke="black" points="565.608,-680.361 562.81,-670.143 558.625,-679.876 565.608,-680.361"/>
<text text-anchor="middle" x="588" y="-692.3" font-family="Times,serif" font-size="14.00">ch2_ch</text>
</g>
<!-- p44 -->
<g id="node44" class="node"><title>p44</title>
<ellipse fill="none" stroke="black" cx="803" cy="-430" rx="3.25" ry="3.5"/>
<text text-anchor="middle" x="813" y="-437.3" font-family="Times,serif" font-size="14.00">mix</text>
</g>
<!-- p40&#45;&gt;p44 -->
<g id="edge53" class="edge"><title>p40&#45;&gt;p44</title>
<path fill="none" stroke="black" d="M825.639,-588.487C823.267,-571.988 809.868,-478.776 804.875,-444.043"/>
<polygon fill="black" stroke="black" points="808.301,-443.277 803.414,-433.877 801.372,-444.273 808.301,-443.277"/>
<text text-anchor="middle" x="857" y="-514.3" font-family="Times,serif" font-size="14.00">version_ch</text>
</g>
<!-- p41 -->
<g id="node42" class="node"><title>p41</title>
<ellipse fill="none" stroke="black" cx="557" cy="-592" rx="3.25" ry="3.5"/>
<text text-anchor="middle" x="529" y="-599.3" font-family="Times,serif" font-size="14.00">collect</text>
</g>
<!-- p38&#45;&gt;p41 -->
<g id="edge50" class="edge"><title>p38&#45;&gt;p41</title>
<path fill="none" stroke="black" d="M561.938,-633.912C560.845,-624.858 559.526,-613.93 558.526,-605.647"/>
<polygon fill="black" stroke="black" points="561.998,-605.199 557.325,-595.691 555.048,-606.038 561.998,-605.199"/>
</g>
<!-- p39 -->
<g id="node43" class="node"><title>p39</title>
<ellipse fill="black" stroke="black" cx="610" cy="-592" rx="1.8" ry="1.8"/>
</g>
<!-- p38&#45;&gt;p39 -->
<g id="edge51" class="edge"><title>p38&#45;&gt;p39</title>
<path fill="none" stroke="black" d="M577.553,-633.912C585.808,-623.503 596.029,-610.616 602.767,-602.119"/>
<polygon fill="black" stroke="black" points="605.691,-604.066 609.162,-594.056 600.206,-599.716 605.691,-604.066"/>
</g>
<!-- p38&#45;&gt;p40 -->
<g id="edge52" class="edge"><title>p38&#45;&gt;p40</title>
<path fill="none" stroke="black" d="M637.679,-634.689C699.137,-621.084 781.561,-602.838 813.041,-595.869"/>
<polygon fill="black" stroke="black" points="813.956,-599.251 822.963,-593.672 812.443,-592.416 813.956,-599.251"/>
</g>
<!-- p36 -->
<g id="node40" class="node"><title>p36</title>
<ellipse fill="black" stroke="black" cx="504" cy="-726" rx="3.6" ry="3.6"/>
</g>
<!-- p36&#45;&gt;p38 -->
<g id="edge48" class="edge"><title>p36&#45;&gt;p38</title>
<path fill="none" stroke="black" d="M504.638,-722.443C506.314,-716.1 511.32,-699.335 520,-688 523.11,-683.939 526.79,-680.073 530.678,-676.494"/>
<polygon fill="black" stroke="black" points="532.972,-679.138 538.312,-669.987 528.431,-673.81 532.972,-679.138"/>
<text text-anchor="middle" x="538.5" y="-692.3" font-family="Times,serif" font-size="14.00">meta</text>
</g>
<!-- p37 -->
<g id="node41" class="node"><title>p37</title>
<ellipse fill="black" stroke="black" cx="639" cy="-726" rx="3.6" ry="3.6"/>
</g>
<!-- p37&#45;&gt;p38 -->
<g id="edge49" class="edge"><title>p37&#45;&gt;p38</title>
<path fill="none" stroke="black" d="M637.948,-722.406C635.245,-715.977 627.523,-699.032 617,-688 612.856,-683.655 608.076,-679.575 603.12,-675.844"/>
<polygon fill="black" stroke="black" points="604.883,-672.805 594.692,-669.909 600.852,-678.528 604.883,-672.805"/>
<text text-anchor="middle" x="664" y="-692.3" font-family="Times,serif" font-size="14.00">reference</text>
</g>
<!-- p43 -->
<g id="node45" class="node"><title>p43</title>
<ellipse fill="none" stroke="black" cx="570" cy="-518" rx="219.996" ry="18"/>
<text text-anchor="middle" x="570" y="-514.3" font-family="Times,serif" font-size="14.00">VARIANT_VQSR_01:COLLECT_TO_FILE_01</text>
</g>
<!-- p41&#45;&gt;p43 -->
<g id="edge54" class="edge"><title>p41&#45;&gt;p43</title>
<path fill="none" stroke="black" d="M557.494,-588.265C558.742,-581.354 562.132,-562.578 565.068,-546.316"/>
<polygon fill="black" stroke="black" points="568.572,-546.606 566.905,-536.143 561.684,-545.362 568.572,-546.606"/>
</g>
<!-- p47 -->
<g id="node48" class="node"><title>p47</title>
<ellipse fill="none" stroke="black" cx="748" cy="-356" rx="3.25" ry="3.5"/>
<text text-anchor="middle" x="731" y="-363.3" font-family="Times,serif" font-size="14.00">mix</text>
</g>
<!-- p44&#45;&gt;p47 -->
<g id="edge58" class="edge"><title>p44&#45;&gt;p47</title>
<path fill="none" stroke="black" d="M801.413,-426.923C794.821,-418.292 769.319,-384.909 756.08,-367.578"/>
<polygon fill="black" stroke="black" points="758.552,-365.048 749.701,-359.226 752.99,-369.298 758.552,-365.048"/>
<text text-anchor="middle" x="815" y="-382.3" font-family="Times,serif" font-size="14.00">version_ch</text>
</g>
<!-- p46 -->
<g id="node47" class="node"><title>p46</title>
<ellipse fill="none" stroke="black" cx="540" cy="-430" rx="241.168" ry="18"/>
<text text-anchor="middle" x="540" y="-426.3" font-family="Times,serif" font-size="14.00">VARIANT_VQSR_01:PICARD_GATHER_VCFS_01</text>
</g>
<!-- p43&#45;&gt;p46 -->
<g id="edge56" class="edge"><title>p43&#45;&gt;p46</title>
<path fill="none" stroke="black" d="M563.929,-499.597C559.754,-487.629 554.128,-471.501 549.38,-457.891"/>
<polygon fill="black" stroke="black" points="552.558,-456.373 545.96,-448.084 545.949,-458.679 552.558,-456.373"/>
</g>
<!-- p43&#45;&gt;p44 -->
<g id="edge57" class="edge"><title>p43&#45;&gt;p44</title>
<path fill="none" stroke="black" d="M661.298,-501.561C703.229,-491.3 751.966,-474.636 790,-448 792.362,-446.346 794.487,-444.131 796.302,-441.849"/>
<polygon fill="black" stroke="black" points="799.312,-443.64 801.822,-433.347 793.441,-439.828 799.312,-443.64"/>
</g>
<!-- p42 -->
<g id="node46" class="node"><title>p42</title>
<ellipse fill="black" stroke="black" cx="587" cy="-592" rx="3.6" ry="3.6"/>
</g>
<!-- p42&#45;&gt;p43 -->
<g id="edge55" class="edge"><title>p42&#45;&gt;p43</title>
<path fill="none" stroke="black" d="M586.354,-588.265C584.722,-581.354 580.289,-562.578 576.45,-546.316"/>
<polygon fill="black" stroke="black" points="579.752,-545.071 574.048,-536.143 572.939,-546.68 579.752,-545.071"/>
<text text-anchor="middle" x="600.5" y="-558.3" font-family="Times,serif" font-size="14.00">meta</text>
</g>
<!-- p46&#45;&gt;p55 -->
<g id="edge60" class="edge"><title>p46&#45;&gt;p55</title>
<path fill="none" stroke="black" d="M521.697,-411.903C509.238,-398.354 495,-378.226 495,-357 495,-357 495,-357 495,-133 495,-115.056 505.176,-97.8963 515.849,-84.8331"/>
<polygon fill="black" stroke="black" points="518.525,-87.0901 522.473,-77.2583 513.256,-82.4822 518.525,-87.0901"/>
<text text-anchor="middle" x="506" y="-262.3" font-family="Times,serif" font-size="14.00">vcf</text>
</g>
<!-- p46&#45;&gt;p47 -->
<g id="edge61" class="edge"><title>p46&#45;&gt;p47</title>
<path fill="none" stroke="black" d="M588.242,-412.301C636.331,-395.655 707,-371.192 735.452,-361.344"/>
<polygon fill="black" stroke="black" points="736.794,-364.583 745.099,-358.004 734.505,-357.968 736.794,-364.583"/>
</g>
<!-- p46&#45;&gt;p55 -->
<g id="edge62" class="edge"><title>p46&#45;&gt;p55</title>
<path fill="none" stroke="black" d="M540,-411.834C540,-397.247 540,-375.75 540,-357 540,-357 540,-357 540,-133 540,-118.205 540,-101.7 540,-88.2288"/>
<polygon fill="black" stroke="black" points="543.5,-88.1662 540,-78.1662 536.5,-88.1662 543.5,-88.1662"/>
<text text-anchor="middle" x="560" y="-262.3" font-family="Times,serif" font-size="14.00">index</text>
</g>
<!-- p48 -->
<g id="node50" class="node"><title>p48</title>
<ellipse fill="none" stroke="black" cx="748" cy="-296" rx="3.25" ry="3.5"/>
<text text-anchor="middle" x="720" y="-303.3" font-family="Times,serif" font-size="14.00">collect</text>
</g>
<!-- p47&#45;&gt;p48 -->
<g id="edge63" class="edge"><title>p47&#45;&gt;p48</title>
<path fill="none" stroke="black" d="M748,-352.203C748,-344.649 748,-323.48 748,-309.66"/>
<polygon fill="black" stroke="black" points="751.5,-309.636 748,-299.636 744.5,-309.636 751.5,-309.636"/>
<text text-anchor="middle" x="787" y="-322.3" font-family="Times,serif" font-size="14.00">version_ch</text>
</g>
<!-- p45 -->
<g id="node49" class="node"><title>p45</title>
<ellipse fill="black" stroke="black" cx="328" cy="-518" rx="3.6" ry="3.6"/>
</g>
<!-- p45&#45;&gt;p46 -->
<g id="edge59" class="edge"><title>p45&#45;&gt;p46</title>
<path fill="none" stroke="black" d="M329.462,-514.179C331.543,-510.429 335.7,-503.831 341,-500 373.51,-476.503 414.698,-460.473 451.158,-449.826"/>
<polygon fill="black" stroke="black" points="452.138,-453.186 460.809,-447.099 450.234,-446.45 452.138,-453.186"/>
<text text-anchor="middle" x="420.5" y="-470.3" font-family="Times,serif" font-size="14.00">meta</text>
</g>
<!-- p52 -->
<g id="node51" class="node"><title>p52</title>
<ellipse fill="none" stroke="black" cx="765" cy="-222" rx="196.399" ry="18"/>
<text text-anchor="middle" x="765" y="-218.3" font-family="Times,serif" font-size="14.00">VARIANT_VQSR_01:MERGE_VERSION</text>
</g>
<!-- p48&#45;&gt;p52 -->
<g id="edge64" class="edge"><title>p48&#45;&gt;p52</title>
<path fill="none" stroke="black" d="M748.646,-292.265C750.278,-285.354 754.711,-266.578 758.55,-250.316"/>
<polygon fill="black" stroke="black" points="762.061,-250.68 760.952,-240.143 755.248,-249.071 762.061,-250.68"/>
</g>
<!-- p54 -->
<g id="node55" class="node"><title>p54</title>
<ellipse fill="none" stroke="black" cx="769" cy="-134" rx="111.186" ry="18"/>
<text text-anchor="middle" x="769" y="-130.3" font-family="Times,serif" font-size="14.00">VERSION_TO_HTML</text>
</g>
<!-- p52&#45;&gt;p54 -->
<g id="edge68" class="edge"><title>p52&#45;&gt;p54</title>
<path fill="none" stroke="black" d="M765.809,-203.597C766.361,-191.746 767.102,-175.817 767.731,-162.292"/>
<polygon fill="black" stroke="black" points="771.237,-162.236 768.205,-152.084 764.244,-161.911 771.237,-162.236"/>
</g>
<!-- p52&#45;&gt;p55 -->
<g id="edge71" class="edge"><title>p52&#45;&gt;p55</title>
<path fill="none" stroke="black" d="M698.741,-204.94C664.885,-194.214 624.683,-177.326 595,-152 574.484,-134.495 559.472,-107.333 550.363,-87.2374"/>
<polygon fill="black" stroke="black" points="553.554,-85.7981 546.368,-78.013 547.131,-88.5803 553.554,-85.7981"/>
<text text-anchor="middle" x="621.5" y="-130.3" font-family="Times,serif" font-size="14.00">version</text>
</g>
<!-- p49 -->
<g id="node52" class="node"><title>p49</title>
<ellipse fill="black" stroke="black" cx="696" cy="-296" rx="3.6" ry="3.6"/>
</g>
<!-- p49&#45;&gt;p52 -->
<g id="edge65" class="edge"><title>p49&#45;&gt;p52</title>
<path fill="none" stroke="black" d="M696.663,-292.4C698.41,-285.959 703.66,-268.988 713,-258 716.656,-253.699 720.966,-249.704 725.514,-246.067"/>
<polygon fill="black" stroke="black" points="727.888,-248.666 733.869,-239.92 723.74,-243.027 727.888,-248.666"/>
<text text-anchor="middle" x="731.5" y="-262.3" font-family="Times,serif" font-size="14.00">meta</text>
</g>
<!-- p50 -->
<g id="node53" class="node"><title>p50</title>
<ellipse fill="black" stroke="black" cx="781" cy="-296" rx="3.6" ry="3.6"/>
</g>
<!-- p50&#45;&gt;p52 -->
<g id="edge66" class="edge"><title>p50&#45;&gt;p52</title>
<path fill="none" stroke="black" d="M780.392,-292.265C778.856,-285.354 774.684,-266.578 771.07,-250.316"/>
<polygon fill="black" stroke="black" points="774.396,-249.145 768.81,-240.143 767.562,-250.664 774.396,-249.145"/>
<text text-anchor="middle" x="797" y="-262.3" font-family="Times,serif" font-size="14.00">name</text>
</g>
<!-- p51 -->
<g id="node54" class="node"><title>p51</title>
<ellipse fill="black" stroke="black" cx="844" cy="-296" rx="3.6" ry="3.6"/>
</g>
<!-- p51&#45;&gt;p52 -->
<g id="edge67" class="edge"><title>p51&#45;&gt;p52</title>
<path fill="none" stroke="black" d="M842.887,-292.392C840.032,-285.933 831.897,-268.924 821,-258 816.537,-253.526 811.399,-249.355 806.084,-245.566"/>
<polygon fill="black" stroke="black" points="807.917,-242.581 797.658,-239.935 804.027,-248.401 807.917,-242.581"/>
<text text-anchor="middle" x="874" y="-262.3" font-family="Times,serif" font-size="14.00">description</text>
</g>
<!-- p54&#45;&gt;p55 -->
<g id="edge70" class="edge"><title>p54&#45;&gt;p55</title>
<path fill="none" stroke="black" d="M720.435,-117.731C681.627,-105.529 627.49,-88.5079 588.658,-76.2986"/>
<polygon fill="black" stroke="black" points="589.226,-72.8082 578.636,-73.1477 587.126,-79.4859 589.226,-72.8082"/>
</g>
<!-- p53 -->
<g id="node56" class="node"><title>p53</title>
<ellipse fill="black" stroke="black" cx="984" cy="-222" rx="3.6" ry="3.6"/>
</g>
<!-- p53&#45;&gt;p54 -->
<g id="edge69" class="edge"><title>p53&#45;&gt;p54</title>
<path fill="none" stroke="black" d="M982.373,-218.18C980.073,-214.432 975.53,-207.834 970,-204 933.105,-178.418 885.87,-161.565 846.461,-150.924"/>
<polygon fill="black" stroke="black" points="847.181,-147.495 836.621,-148.351 845.41,-154.267 847.181,-147.495"/>
<text text-anchor="middle" x="954.5" y="-174.3" font-family="Times,serif" font-size="14.00">meta</text>
</g>
</g>
</svg>
