<?xml version="1.0" encoding="UTF-8" standalone="no"?>
<!DOCTYPE svg PUBLIC "-//W3C//DTD SVG 1.1//EN"
 "http://www.w3.org/Graphics/SVG/1.1/DTD/svg11.dtd">
<!-- Generated by graphviz version 2.30.1 (20201013.1554)
 -->
<!-- Title: 202206indexcovworkflow Pages: 1 -->
<svg width="833pt" height="752pt"
 viewBox="0.00 0.00 833.00 752.00" xmlns="http://www.w3.org/2000/svg" xmlns:xlink="http://www.w3.org/1999/xlink">
<g id="graph0" class="graph" transform="scale(1 1) rotate(0) translate(4 748)">
<title>202206indexcovworkflow</title>
<polygon fill="white" stroke="white" points="-4,5 -4,-748 830,-748 830,5 -4,5"/>
<!-- p0 -->
<g id="node1" class="node"><title>p0</title>
<ellipse fill="black" stroke="black" cx="411" cy="-666" rx="3.6" ry="3.6"/>
<text text-anchor="middle" x="461.9" y="-673.4" font-family="Times,serif" font-size="14.00">Channel.empty</text>
</g>
<!-- p5 -->
<g id="node2" class="node"><title>p5</title>
<ellipse fill="none" stroke="black" cx="411" cy="-592" rx="3.25" ry="3.5"/>
<text text-anchor="middle" x="394" y="-599.3" font-family="Times,serif" font-size="14.00">mix</text>
</g>
<!-- p0&#45;&gt;p5 -->
<g id="edge1" class="edge"><title>p0&#45;&gt;p5</title>
<path fill="none" stroke="black" d="M411,-662.265C411,-653.133 411,-623.282 411,-605.892"/>
<polygon fill="black" stroke="black" points="414.5,-605.737 411,-595.737 407.5,-605.737 414.5,-605.737"/>
<text text-anchor="middle" x="450" y="-618.3" font-family="Times,serif" font-size="14.00">ch_version</text>
</g>
<!-- p12 -->
<g id="node8" class="node"><title>p12</title>
<ellipse fill="none" stroke="black" cx="443" cy="-370" rx="3.25" ry="3.5"/>
<text text-anchor="middle" x="444.75" y="-355.3" font-family="Times,serif" font-size="14.00">mix</text>
</g>
<!-- p5&#45;&gt;p12 -->
<g id="edge7" class="edge"><title>p5&#45;&gt;p12</title>
<path fill="none" stroke="black" d="M411.836,-588.512C414.39,-580.809 422.151,-556.626 426,-536 436.44,-480.046 440.893,-412.134 442.38,-384.085"/>
<polygon fill="black" stroke="black" points="445.893,-383.904 442.885,-373.745 438.902,-383.563 445.893,-383.904"/>
<text text-anchor="middle" x="475" y="-470.3" font-family="Times,serif" font-size="14.00">ch_version</text>
</g>
<!-- p1 -->
<g id="node3" class="node"><title>p1</title>
<ellipse fill="black" stroke="black" cx="129" cy="-740" rx="3.6" ry="3.6"/>
</g>
<!-- p4 -->
<g id="node4" class="node"><title>p4</title>
<ellipse fill="none" stroke="black" cx="189" cy="-666" rx="189.175" ry="18"/>
<text text-anchor="middle" x="189" y="-662.3" font-family="Times,serif" font-size="14.00">INDEXCOV:SAMTOOLS_SAMPLES01</text>
</g>
<!-- p1&#45;&gt;p4 -->
<g id="edge2" class="edge"><title>p1&#45;&gt;p4</title>
<path fill="none" stroke="black" d="M129.902,-736.47C132.222,-730.189 138.86,-713.553 148,-702 151.034,-698.165 154.537,-694.437 158.192,-690.933"/>
<polygon fill="black" stroke="black" points="160.707,-693.379 165.805,-684.091 156.028,-688.172 160.707,-693.379"/>
<text text-anchor="middle" x="166.5" y="-706.3" font-family="Times,serif" font-size="14.00">meta</text>
</g>
<!-- p6 -->
<g id="node7" class="node"><title>p6</title>
<ellipse fill="none" stroke="black" cx="123" cy="-592" rx="3.25" ry="3.5"/>
<text text-anchor="middle" x="90" y="-599.3" font-family="Times,serif" font-size="14.00">splitCsv</text>
</g>
<!-- p4&#45;&gt;p6 -->
<g id="edge5" class="edge"><title>p4&#45;&gt;p6</title>
<path fill="none" stroke="black" d="M173.359,-647.937C160.494,-633.902 142.708,-614.499 132.078,-602.904"/>
<polygon fill="black" stroke="black" points="134.435,-600.295 125.098,-595.289 129.275,-605.025 134.435,-600.295"/>
</g>
<!-- p4&#45;&gt;p5 -->
<g id="edge6" class="edge"><title>p4&#45;&gt;p5</title>
<path fill="none" stroke="black" d="M239.653,-648.572C291.391,-631.792 368.261,-606.861 398.312,-597.115"/>
<polygon fill="black" stroke="black" points="399.446,-600.427 407.878,-594.012 397.286,-593.768 399.446,-600.427"/>
</g>
<!-- p2 -->
<g id="node5" class="node"><title>p2</title>
<ellipse fill="black" stroke="black" cx="189" cy="-740" rx="3.6" ry="3.6"/>
</g>
<!-- p2&#45;&gt;p4 -->
<g id="edge3" class="edge"><title>p2&#45;&gt;p4</title>
<path fill="none" stroke="black" d="M189,-736.265C189,-729.354 189,-710.578 189,-694.316"/>
<polygon fill="black" stroke="black" points="192.5,-694.143 189,-684.143 185.5,-694.143 192.5,-694.143"/>
<text text-anchor="middle" x="224" y="-706.3" font-family="Times,serif" font-size="14.00">reference</text>
</g>
<!-- p3 -->
<g id="node6" class="node"><title>p3</title>
<ellipse fill="black" stroke="black" cx="282" cy="-740" rx="3.6" ry="3.6"/>
</g>
<!-- p3&#45;&gt;p4 -->
<g id="edge4" class="edge"><title>p3&#45;&gt;p4</title>
<path fill="none" stroke="black" d="M281.031,-736.321C278.518,-729.7 271.195,-712.349 260,-702 254.589,-696.997 248.329,-692.555 241.814,-688.657"/>
<polygon fill="black" stroke="black" points="243.27,-685.463 232.827,-683.678 239.878,-691.586 243.27,-685.463"/>
<text text-anchor="middle" x="292.5" y="-706.3" font-family="Times,serif" font-size="14.00">bams</text>
</g>
<!-- p9 -->
<g id="node9" class="node"><title>p9</title>
<ellipse fill="none" stroke="black" cx="282" cy="-518" rx="135.258" ry="18"/>
<text text-anchor="middle" x="282" y="-514.3" font-family="Times,serif" font-size="14.00">INDEXCOV:REBUILD_BAI</text>
</g>
<!-- p6&#45;&gt;p9 -->
<g id="edge8" class="edge"><title>p6&#45;&gt;p9</title>
<path fill="none" stroke="black" d="M122.254,-588.269C120.591,-581.527 117.376,-563.923 126,-554 133.767,-545.064 153.682,-538.196 176.786,-533.012"/>
<polygon fill="black" stroke="black" points="177.792,-536.377 186.857,-530.891 176.35,-529.527 177.792,-536.377"/>
<text text-anchor="middle" x="204.5" y="-558.3" font-family="Times,serif" font-size="14.00">sample_bam_fasta_ch</text>
</g>
<!-- p18 -->
<g id="node15" class="node"><title>p18</title>
<ellipse fill="none" stroke="black" cx="536" cy="-296" rx="3.25" ry="3.5"/>
<text text-anchor="middle" x="519" y="-303.3" font-family="Times,serif" font-size="14.00">mix</text>
</g>
<!-- p12&#45;&gt;p18 -->
<g id="edge15" class="edge"><title>p12&#45;&gt;p18</title>
<path fill="none" stroke="black" d="M444.544,-366.448C446.685,-363.002 450.77,-356.747 455,-352 470.075,-335.079 474.195,-330.648 493,-318 502.778,-311.423 514.922,-305.687 523.808,-301.88"/>
<polygon fill="black" stroke="black" points="525.2,-305.092 533.139,-298.077 522.558,-298.61 525.2,-305.092"/>
<text text-anchor="middle" x="532" y="-322.3" font-family="Times,serif" font-size="14.00">ch_version</text>
</g>
<!-- p13 -->
<g id="node12" class="node"><title>p13</title>
<ellipse fill="none" stroke="black" cx="286" cy="-444" rx="3.25" ry="3.5"/>
<text text-anchor="middle" x="258" y="-451.3" font-family="Times,serif" font-size="14.00">collect</text>
</g>
<!-- p9&#45;&gt;p13 -->
<g id="edge11" class="edge"><title>p9&#45;&gt;p13</title>
<path fill="none" stroke="black" d="M282.948,-499.937C283.66,-487.126 284.62,-469.843 285.272,-458.107"/>
<polygon fill="black" stroke="black" points="288.787,-457.927 285.847,-447.748 281.798,-457.539 288.787,-457.927"/>
</g>
<!-- p10 -->
<g id="node13" class="node"><title>p10</title>
<ellipse fill="black" stroke="black" cx="261" cy="-444" rx="1.8" ry="1.8"/>
</g>
<!-- p9&#45;&gt;p10 -->
<g id="edge12" class="edge"><title>p9&#45;&gt;p10</title>
<path fill="none" stroke="black" d="M277.023,-499.937C273.022,-486.219 267.526,-467.373 264.121,-455.701"/>
<polygon fill="black" stroke="black" points="267.408,-454.469 261.248,-445.849 260.688,-456.429 267.408,-454.469"/>
</g>
<!-- p11 -->
<g id="node14" class="node"><title>p11</title>
<ellipse fill="none" stroke="black" cx="389" cy="-444" rx="3.25" ry="3.5"/>
<text text-anchor="middle" x="370" y="-451.3" font-family="Times,serif" font-size="14.00">first</text>
</g>
<!-- p9&#45;&gt;p11 -->
<g id="edge13" class="edge"><title>p9&#45;&gt;p11</title>
<path fill="none" stroke="black" d="M306.817,-500.301C329.302,-485.17 361.385,-463.582 378.032,-452.38"/>
<polygon fill="black" stroke="black" points="380.144,-455.178 386.487,-446.691 376.236,-449.37 380.144,-455.178"/>
</g>
<!-- p7 -->
<g id="node10" class="node"><title>p7</title>
<ellipse fill="black" stroke="black" cx="292" cy="-592" rx="3.6" ry="3.6"/>
</g>
<!-- p7&#45;&gt;p9 -->
<g id="edge9" class="edge"><title>p7&#45;&gt;p9</title>
<path fill="none" stroke="black" d="M291.62,-588.265C290.66,-581.354 288.053,-562.578 285.794,-546.316"/>
<polygon fill="black" stroke="black" points="289.223,-545.566 284.381,-536.143 282.29,-546.529 289.223,-545.566"/>
<text text-anchor="middle" x="308.5" y="-558.3" font-family="Times,serif" font-size="14.00">meta</text>
</g>
<!-- p8 -->
<g id="node11" class="node"><title>p8</title>
<ellipse fill="black" stroke="black" cx="352" cy="-592" rx="3.6" ry="3.6"/>
</g>
<!-- p8&#45;&gt;p9 -->
<g id="edge10" class="edge"><title>p8&#45;&gt;p9</title>
<path fill="none" stroke="black" d="M350.916,-588.436C348.14,-582.075 340.264,-565.273 330,-554 326.181,-549.806 321.787,-545.798 317.242,-542.091"/>
<polygon fill="black" stroke="black" points="319.056,-539.071 308.989,-535.766 314.798,-544.627 319.056,-539.071"/>
<text text-anchor="middle" x="377" y="-558.3" font-family="Times,serif" font-size="14.00">reference</text>
</g>
<!-- p15 -->
<g id="node16" class="node"><title>p15</title>
<ellipse fill="none" stroke="black" cx="241" cy="-370" rx="180.051" ry="18"/>
<text text-anchor="middle" x="241" y="-366.3" font-family="Times,serif" font-size="14.00">INDEXCOV:COLLECT_TO_FILE_01</text>
</g>
<!-- p13&#45;&gt;p15 -->
<g id="edge16" class="edge"><title>p13&#45;&gt;p15</title>
<path fill="none" stroke="black" d="M285.398,-440.525C283.833,-434.368 279.243,-417.993 272,-406 269.935,-402.58 267.518,-399.182 264.96,-395.922"/>
<polygon fill="black" stroke="black" points="267.555,-393.57 258.436,-388.176 262.201,-398.079 267.555,-393.57"/>
</g>
<!-- p11&#45;&gt;p12 -->
<g id="edge14" class="edge"><title>p11&#45;&gt;p12</title>
<path fill="none" stroke="black" d="M390.558,-440.923C397.031,-432.292 422.068,-398.909 435.067,-381.578"/>
<polygon fill="black" stroke="black" points="438.13,-383.326 441.33,-373.226 432.53,-379.126 438.13,-383.326"/>
</g>
<!-- p19 -->
<g id="node21" class="node"><title>p19</title>
<ellipse fill="none" stroke="black" cx="567" cy="-236" rx="3.25" ry="3.5"/>
<text text-anchor="middle" x="539" y="-243.3" font-family="Times,serif" font-size="14.00">collect</text>
</g>
<!-- p18&#45;&gt;p19 -->
<g id="edge22" class="edge"><title>p18&#45;&gt;p19</title>
<path fill="none" stroke="black" d="M535.338,-292.469C533.842,-286.185 530.79,-269.545 537,-258 540.859,-250.826 548.37,-245.573 554.911,-242.115"/>
<polygon fill="black" stroke="black" points="556.486,-245.245 564.186,-237.968 553.628,-238.854 556.486,-245.245"/>
<text text-anchor="middle" x="576" y="-262.3" font-family="Times,serif" font-size="14.00">ch_version</text>
</g>
<!-- p22 -->
<g id="node18" class="node"><title>p22</title>
<ellipse fill="none" stroke="black" cx="629" cy="-162" rx="195.924" ry="18"/>
<text text-anchor="middle" x="629" y="-158.3" font-family="Times,serif" font-size="14.00">INDEXCOV:RUN_GOLEFT_INDEXCOV</text>
</g>
<!-- p15&#45;&gt;p22 -->
<g id="edge18" class="edge"><title>p15&#45;&gt;p22</title>
<path fill="none" stroke="black" d="M272.752,-352.142C342.841,-314.93 510.708,-225.804 588.346,-184.584"/>
<polygon fill="black" stroke="black" points="590.163,-187.583 597.354,-179.802 586.88,-181.4 590.163,-187.583"/>
<text text-anchor="middle" x="485.5" y="-262.3" font-family="Times,serif" font-size="14.00">bams2_ch</text>
</g>
<!-- p14 -->
<g id="node17" class="node"><title>p14</title>
<ellipse fill="black" stroke="black" cx="234" cy="-444" rx="3.6" ry="3.6"/>
</g>
<!-- p14&#45;&gt;p15 -->
<g id="edge17" class="edge"><title>p14&#45;&gt;p15</title>
<path fill="none" stroke="black" d="M233.941,-440.299C233.837,-434.179 233.737,-418.79 235,-406 235.254,-403.423 235.587,-400.75 235.965,-398.081"/>
<polygon fill="black" stroke="black" points="239.45,-398.452 237.58,-388.024 232.538,-397.342 239.45,-398.452"/>
<text text-anchor="middle" x="253.5" y="-410.3" font-family="Times,serif" font-size="14.00">meta</text>
</g>
<!-- p25 -->
<g id="node24" class="node"><title>p25</title>
<ellipse fill="none" stroke="black" cx="553" cy="-74" rx="56.3173" ry="18"/>
<text text-anchor="middle" x="553" y="-70.3" font-family="Times,serif" font-size="14.00">PUBLISH</text>
</g>
<!-- p22&#45;&gt;p25 -->
<g id="edge26" class="edge"><title>p22&#45;&gt;p25</title>
<path fill="none" stroke="black" d="M613.985,-144.009C602.67,-131.205 587,-113.473 574.377,-99.1901"/>
<polygon fill="black" stroke="black" points="576.97,-96.8385 567.725,-91.6629 571.725,-101.474 576.97,-96.8385"/>
<text text-anchor="middle" x="609" y="-114.3" font-family="Times,serif" font-size="14.00">zip</text>
</g>
<!-- p24 -->
<g id="node25" class="node"><title>p24</title>
<ellipse fill="black" stroke="black" cx="629" cy="-74" rx="1.8" ry="1.8"/>
</g>
<!-- p22&#45;&gt;p24 -->
<g id="edge27" class="edge"><title>p22&#45;&gt;p24</title>
<path fill="none" stroke="black" d="M629,-143.597C629,-126.516 629,-100.965 629,-86.348"/>
<polygon fill="black" stroke="black" points="632.5,-86.0951 629,-76.0952 625.5,-86.0952 632.5,-86.0951"/>
<text text-anchor="middle" x="644.5" y="-114.3" font-family="Times,serif" font-size="14.00">files</text>
</g>
<!-- p23 -->
<g id="node26" class="node"><title>p23</title>
<ellipse fill="black" stroke="black" cx="683" cy="-74" rx="1.8" ry="1.8"/>
</g>
<!-- p22&#45;&gt;p23 -->
<g id="edge28" class="edge"><title>p22&#45;&gt;p23</title>
<path fill="none" stroke="black" d="M646.841,-143.785C651.827,-138.396 656.977,-132.223 661,-126 669.246,-113.246 675.673,-96.8813 679.398,-86.1762"/>
<polygon fill="black" stroke="black" points="682.832,-86.9335 682.604,-76.3411 676.177,-84.7636 682.832,-86.9335"/>
<text text-anchor="middle" x="696.5" y="-114.3" font-family="Times,serif" font-size="14.00">version</text>
</g>
<!-- p16 -->
<g id="node19" class="node"><title>p16</title>
<ellipse fill="black" stroke="black" cx="639" cy="-444" rx="3.6" ry="3.6"/>
</g>
<!-- p17 -->
<g id="node20" class="node"><title>p17</title>
<ellipse fill="none" stroke="black" cx="639" cy="-370" rx="174.252" ry="18"/>
<text text-anchor="middle" x="639" y="-366.3" font-family="Times,serif" font-size="14.00">INDEXCOV:DOWNLOAD_GOLEFT</text>
</g>
<!-- p16&#45;&gt;p17 -->
<g id="edge19" class="edge"><title>p16&#45;&gt;p17</title>
<path fill="none" stroke="black" d="M639,-440.265C639,-433.354 639,-414.578 639,-398.316"/>
<polygon fill="black" stroke="black" points="642.5,-398.143 639,-388.143 635.5,-398.143 642.5,-398.143"/>
<text text-anchor="middle" x="657.5" y="-410.3" font-family="Times,serif" font-size="14.00">meta</text>
</g>
<!-- p17&#45;&gt;p22 -->
<g id="edge20" class="edge"><title>p17&#45;&gt;p22</title>
<path fill="none" stroke="black" d="M638.165,-351.791C636.425,-315.955 632.402,-233.087 630.313,-190.047"/>
<polygon fill="black" stroke="black" points="633.807,-189.834 629.826,-180.015 626.815,-190.173 633.807,-189.834"/>
</g>
<!-- p17&#45;&gt;p18 -->
<g id="edge21" class="edge"><title>p17&#45;&gt;p18</title>
<path fill="none" stroke="black" d="M617.669,-352.112C604.473,-341.889 587.042,-328.787 571,-318 563.282,-312.81 554.278,-307.422 547.335,-303.403"/>
<polygon fill="black" stroke="black" points="549.027,-300.339 538.603,-298.44 545.567,-306.424 549.027,-300.339"/>
</g>
<!-- p19&#45;&gt;p22 -->
<g id="edge23" class="edge"><title>p19&#45;&gt;p22</title>
<path fill="none" stroke="black" d="M568.789,-232.923C574.505,-226.285 592.831,-205.002 607.779,-187.644"/>
<polygon fill="black" stroke="black" points="610.478,-189.873 614.351,-180.012 605.174,-185.306 610.478,-189.873"/>
</g>
<!-- p20 -->
<g id="node22" class="node"><title>p20</title>
<ellipse fill="black" stroke="black" cx="662" cy="-236" rx="3.6" ry="3.6"/>
</g>
<!-- p20&#45;&gt;p22 -->
<g id="edge24" class="edge"><title>p20&#45;&gt;p22</title>
<path fill="none" stroke="black" d="M660.747,-232.265C657.519,-225.222 648.644,-205.859 641.095,-189.39"/>
<polygon fill="black" stroke="black" points="644.205,-187.775 636.857,-180.143 637.842,-190.692 644.205,-187.775"/>
<text text-anchor="middle" x="671.5" y="-202.3" font-family="Times,serif" font-size="14.00">meta</text>
</g>
<!-- p21 -->
<g id="node23" class="node"><title>p21</title>
<ellipse fill="black" stroke="black" cx="722" cy="-236" rx="3.6" ry="3.6"/>
</g>
<!-- p21&#45;&gt;p22 -->
<g id="edge25" class="edge"><title>p21&#45;&gt;p22</title>
<path fill="none" stroke="black" d="M720.548,-232.364C716.85,-225.839 706.479,-208.693 694,-198 688.379,-193.184 681.987,-188.76 675.457,-184.796"/>
<polygon fill="black" stroke="black" points="676.944,-181.614 666.526,-179.681 673.465,-187.688 676.944,-181.614"/>
<text text-anchor="middle" x="727" y="-202.3" font-family="Times,serif" font-size="14.00">fasta</text>
</g>
<!-- p26 -->
<g id="node27" class="node"><title>p26</title>
<ellipse fill="black" stroke="black" cx="553" cy="-2" rx="1.8" ry="1.8"/>
</g>
<!-- p25&#45;&gt;p26 -->
<g id="edge29" class="edge"><title>p25&#45;&gt;p26</title>
<path fill="none" stroke="black" d="M553,-55.6966C553,-42.6347 553,-25.1104 553,-13.9338"/>
<polygon fill="black" stroke="black" points="556.5,-13.8073 553,-3.8073 549.5,-13.8073 556.5,-13.8073"/>
<text text-anchor="middle" x="564" y="-26.3" font-family="Times,serif" font-size="14.00">zip</text>
</g>
</g>
</svg>
