<?xml version="1.0" encoding="UTF-8" standalone="no"?>
<!DOCTYPE svg PUBLIC "-//W3C//DTD SVG 1.1//EN"
 "http://www.w3.org/Graphics/SVG/1.1/DTD/svg11.dtd">
<!-- Generated by graphviz version 2.30.1 (20201013.1554)
 -->
<!-- Title: workflow Pages: 1 -->
<svg width="812pt" height="1228pt"
 viewBox="0.00 0.00 811.60 1228.00" xmlns="http://www.w3.org/2000/svg" xmlns:xlink="http://www.w3.org/1999/xlink">
<g id="graph0" class="graph" transform="scale(1 1) rotate(0) translate(4 1224)">
<title>workflow</title>
<polygon fill="white" stroke="white" points="-4,5 -4,-1224 808.6,-1224 808.6,5 -4,5"/>
<!-- p0 -->
<g id="node1" class="node"><title>p0</title>
<ellipse fill="black" stroke="black" cx="88.6" cy="-1142" rx="3.6" ry="3.6"/>
<text text-anchor="middle" x="42.5" y="-1149.4" font-family="Times,serif" font-size="14.00">Channel.empty</text>
</g>
<!-- p5 -->
<g id="node2" class="node"><title>p5</title>
<ellipse fill="none" stroke="black" cx="124.6" cy="-1068" rx="3.25" ry="3.5"/>
<text text-anchor="middle" x="110.1" y="-1075.3" font-family="Times,serif" font-size="14.00">mix</text>
</g>
<!-- p0&#45;&gt;p5 -->
<g id="edge1" class="edge"><title>p0&#45;&gt;p5</title>
<path fill="none" stroke="black" d="M89.7978,-1138.6C94.2387,-1129.72 109.955,-1098.29 118.67,-1080.86"/>
<polygon fill="black" stroke="black" points="122.019,-1081.99 123.361,-1071.48 115.758,-1078.86 122.019,-1081.99"/>
<text text-anchor="middle" x="145.1" y="-1094.3" font-family="Times,serif" font-size="14.00">ch_version</text>
</g>
<!-- p12 -->
<g id="node8" class="node"><title>p12</title>
<ellipse fill="none" stroke="black" cx="124.6" cy="-846" rx="3.25" ry="3.5"/>
<text text-anchor="middle" x="110.1" y="-853.3" font-family="Times,serif" font-size="14.00">mix</text>
</g>
<!-- p5&#45;&gt;p12 -->
<g id="edge7" class="edge"><title>p5&#45;&gt;p12</title>
<path fill="none" stroke="black" d="M124.6,-1064.22C124.6,-1042.76 124.6,-903.267 124.6,-859.867"/>
<polygon fill="black" stroke="black" points="128.1,-859.719 124.6,-849.72 121.1,-859.72 128.1,-859.719"/>
<text text-anchor="middle" x="155.1" y="-946.3" font-family="Times,serif" font-size="14.00">ch_version</text>
</g>
<!-- p1 -->
<g id="node3" class="node"><title>p1</title>
<ellipse fill="black" stroke="black" cx="227.6" cy="-1216" rx="3.6" ry="3.6"/>
</g>
<!-- p4 -->
<g id="node4" class="node"><title>p4</title>
<ellipse fill="none" stroke="black" cx="278.6" cy="-1142" rx="168.003" ry="18"/>
<text text-anchor="middle" x="278.6" y="-1138.3" font-family="Times,serif" font-size="14.00">INDEXCOV:SAMTOOLS_SAMPLES01</text>
</g>
<!-- p1&#45;&gt;p4 -->
<g id="edge2" class="edge"><title>p1&#45;&gt;p4</title>
<path fill="none" stroke="black" d="M228.592,-1212.54C231.119,-1206.41 238.191,-1190.1 246.6,-1178 249.032,-1174.5 251.789,-1170.99 254.639,-1167.61"/>
<polygon fill="black" stroke="black" points="257.339,-1169.84 261.352,-1160.03 252.1,-1165.19 257.339,-1169.84"/>
<text text-anchor="middle" x="260.6" y="-1182.3" font-family="Times,serif" font-size="14.00">meta</text>
</g>
<!-- p6 -->
<g id="node7" class="node"><title>p6</title>
<ellipse fill="none" stroke="black" cx="278.6" cy="-1068" rx="3.25" ry="3.5"/>
<text text-anchor="middle" x="252.1" y="-1075.3" font-family="Times,serif" font-size="14.00">splitCsv</text>
</g>
<!-- p4&#45;&gt;p6 -->
<g id="edge5" class="edge"><title>p4&#45;&gt;p6</title>
<path fill="none" stroke="black" d="M278.6,-1123.94C278.6,-1111.13 278.6,-1093.84 278.6,-1082.11"/>
<polygon fill="black" stroke="black" points="282.1,-1081.75 278.6,-1071.75 275.1,-1081.75 282.1,-1081.75"/>
</g>
<!-- p4&#45;&gt;p5 -->
<g id="edge6" class="edge"><title>p4&#45;&gt;p5</title>
<path fill="none" stroke="black" d="M248.258,-1124.26C228.881,-1113.85 203.077,-1100.49 179.6,-1090 165.346,-1083.63 148.52,-1077.39 137.267,-1073.38"/>
<polygon fill="black" stroke="black" points="138.223,-1070.01 127.629,-1070.02 135.918,-1076.62 138.223,-1070.01"/>
</g>
<!-- p2 -->
<g id="node5" class="node"><title>p2</title>
<ellipse fill="black" stroke="black" cx="278.6" cy="-1216" rx="3.6" ry="3.6"/>
</g>
<!-- p2&#45;&gt;p4 -->
<g id="edge3" class="edge"><title>p2&#45;&gt;p4</title>
<path fill="none" stroke="black" d="M278.6,-1212.27C278.6,-1205.35 278.6,-1186.58 278.6,-1170.32"/>
<polygon fill="black" stroke="black" points="282.1,-1170.14 278.6,-1160.14 275.1,-1170.14 282.1,-1170.14"/>
<text text-anchor="middle" x="304.6" y="-1182.3" font-family="Times,serif" font-size="14.00">reference</text>
</g>
<!-- p3 -->
<g id="node6" class="node"><title>p3</title>
<ellipse fill="black" stroke="black" cx="353.6" cy="-1216" rx="3.6" ry="3.6"/>
</g>
<!-- p3&#45;&gt;p4 -->
<g id="edge4" class="edge"><title>p3&#45;&gt;p4</title>
<path fill="none" stroke="black" d="M352.548,-1212.41C349.845,-1205.98 342.123,-1189.03 331.6,-1178 327.407,-1173.6 322.564,-1169.48 317.545,-1165.71"/>
<polygon fill="black" stroke="black" points="319.212,-1162.61 309.016,-1159.73 315.19,-1168.34 319.212,-1162.61"/>
<text text-anchor="middle" x="358.1" y="-1182.3" font-family="Times,serif" font-size="14.00">bams</text>
</g>
<!-- p9 -->
<g id="node9" class="node"><title>p9</title>
<ellipse fill="none" stroke="black" cx="278.6" cy="-994" rx="122.284" ry="18"/>
<text text-anchor="middle" x="278.6" y="-990.3" font-family="Times,serif" font-size="14.00">INDEXCOV:REBUILD_BAI</text>
</g>
<!-- p6&#45;&gt;p9 -->
<g id="edge8" class="edge"><title>p6&#45;&gt;p9</title>
<path fill="none" stroke="black" d="M278.6,-1064.27C278.6,-1057.35 278.6,-1038.58 278.6,-1022.32"/>
<polygon fill="black" stroke="black" points="282.1,-1022.14 278.6,-1012.14 275.1,-1022.14 282.1,-1022.14"/>
<text text-anchor="middle" x="341.6" y="-1034.3" font-family="Times,serif" font-size="14.00">sample_bam_fasta_ch</text>
</g>
<!-- p19 -->
<g id="node15" class="node"><title>p19</title>
<ellipse fill="none" stroke="black" cx="147.6" cy="-772" rx="3.25" ry="3.5"/>
<text text-anchor="middle" x="133.1" y="-779.3" font-family="Times,serif" font-size="14.00">mix</text>
</g>
<!-- p12&#45;&gt;p19 -->
<g id="edge15" class="edge"><title>p12&#45;&gt;p19</title>
<path fill="none" stroke="black" d="M125.474,-842.265C128.432,-833.005 138.194,-802.446 143.712,-785.172"/>
<polygon fill="black" stroke="black" points="147.113,-786.028 146.822,-775.437 140.445,-783.898 147.113,-786.028"/>
<text text-anchor="middle" x="172.1" y="-798.3" font-family="Times,serif" font-size="14.00">ch_version</text>
</g>
<!-- p13 -->
<g id="node12" class="node"><title>p13</title>
<ellipse fill="none" stroke="black" cx="633.6" cy="-920" rx="3.25" ry="3.5"/>
<text text-anchor="middle" x="611.6" y="-927.3" font-family="Times,serif" font-size="14.00">collect</text>
</g>
<!-- p9&#45;&gt;p13 -->
<g id="edge11" class="edge"><title>p9&#45;&gt;p13</title>
<path fill="none" stroke="black" d="M347.468,-979.032C434.269,-961.428 577.384,-932.402 620.753,-923.606"/>
<polygon fill="black" stroke="black" points="621.58,-927.009 630.685,-921.591 620.189,-920.149 621.58,-927.009"/>
</g>
<!-- p10 -->
<g id="node13" class="node"><title>p10</title>
<ellipse fill="black" stroke="black" cx="278.6" cy="-920" rx="1.8" ry="1.8"/>
</g>
<!-- p9&#45;&gt;p10 -->
<g id="edge12" class="edge"><title>p9&#45;&gt;p10</title>
<path fill="none" stroke="black" d="M278.6,-975.937C278.6,-962.37 278.6,-943.787 278.6,-932.089"/>
<polygon fill="black" stroke="black" points="282.1,-931.849 278.6,-921.849 275.1,-931.849 282.1,-931.849"/>
</g>
<!-- p11 -->
<g id="node14" class="node"><title>p11</title>
<ellipse fill="none" stroke="black" cx="200.6" cy="-920" rx="3.25" ry="3.5"/>
<text text-anchor="middle" x="186.1" y="-927.3" font-family="Times,serif" font-size="14.00">first</text>
</g>
<!-- p9&#45;&gt;p11 -->
<g id="edge13" class="edge"><title>p9&#45;&gt;p11</title>
<path fill="none" stroke="black" d="M260.115,-975.937C244.474,-961.499 222.679,-941.381 210.268,-929.925"/>
<polygon fill="black" stroke="black" points="212.346,-927.079 202.624,-922.868 207.598,-932.223 212.346,-927.079"/>
</g>
<!-- p7 -->
<g id="node10" class="node"><title>p7</title>
<ellipse fill="black" stroke="black" cx="427.6" cy="-1068" rx="3.6" ry="3.6"/>
</g>
<!-- p7&#45;&gt;p9 -->
<g id="edge9" class="edge"><title>p7&#45;&gt;p9</title>
<path fill="none" stroke="black" d="M426.746,-1064.18C424.495,-1057.25 417.722,-1039.25 405.6,-1030 394.845,-1021.8 382.281,-1015.51 369.317,-1010.71"/>
<polygon fill="black" stroke="black" points="370.422,-1007.38 359.827,-1007.46 368.155,-1014.01 370.422,-1007.38"/>
<text text-anchor="middle" x="431.6" y="-1034.3" font-family="Times,serif" font-size="14.00">meta</text>
</g>
<!-- p8 -->
<g id="node11" class="node"><title>p8</title>
<ellipse fill="black" stroke="black" cx="203.6" cy="-1068" rx="3.6" ry="3.6"/>
</g>
<!-- p8&#45;&gt;p9 -->
<g id="edge10" class="edge"><title>p8&#45;&gt;p9</title>
<path fill="none" stroke="black" d="M204.399,-1064.38C206.485,-1057.9 212.631,-1040.85 222.6,-1030 226.928,-1025.29 232.028,-1020.97 237.359,-1017.1"/>
<polygon fill="black" stroke="black" points="239.508,-1019.87 245.849,-1011.38 235.599,-1014.06 239.508,-1019.87"/>
<text text-anchor="middle" x="248.6" y="-1034.3" font-family="Times,serif" font-size="14.00">reference</text>
</g>
<!-- p15 -->
<g id="node16" class="node"><title>p15</title>
<ellipse fill="none" stroke="black" cx="642.6" cy="-846" rx="161.279" ry="18"/>
<text text-anchor="middle" x="642.6" y="-842.3" font-family="Times,serif" font-size="14.00">INDEXCOV:COLLECT_TO_FILE_01</text>
</g>
<!-- p13&#45;&gt;p15 -->
<g id="edge16" class="edge"><title>p13&#45;&gt;p15</title>
<path fill="none" stroke="black" d="M633.942,-916.265C634.806,-909.354 637.153,-890.578 639.185,-874.316"/>
<polygon fill="black" stroke="black" points="642.69,-874.5 640.457,-864.143 635.744,-873.632 642.69,-874.5"/>
</g>
<!-- p11&#45;&gt;p12 -->
<g id="edge14" class="edge"><title>p11&#45;&gt;p12</title>
<path fill="none" stroke="black" d="M197.96,-917.106C188.814,-910.473 157.886,-887.416 136.6,-864 134.996,-862.236 133.422,-860.251 131.968,-858.277"/>
<polygon fill="black" stroke="black" points="134.604,-855.924 126.13,-849.564 128.789,-859.82 134.604,-855.924"/>
</g>
<!-- p20 -->
<g id="node22" class="node"><title>p20</title>
<ellipse fill="none" stroke="black" cx="184.6" cy="-712" rx="3.25" ry="3.5"/>
<text text-anchor="middle" x="162.6" y="-719.3" font-family="Times,serif" font-size="14.00">collect</text>
</g>
<!-- p19&#45;&gt;p20 -->
<g id="edge23" class="edge"><title>p19&#45;&gt;p20</title>
<path fill="none" stroke="black" d="M149.19,-768.508C154.036,-760.911 168.83,-737.721 177.688,-723.834"/>
<polygon fill="black" stroke="black" points="180.79,-725.481 183.217,-715.168 174.888,-721.716 180.79,-725.481"/>
<text text-anchor="middle" x="201.1" y="-738.3" font-family="Times,serif" font-size="14.00">ch_version</text>
</g>
<!-- p25 -->
<g id="node27" class="node"><title>p25</title>
<ellipse fill="none" stroke="black" cx="232.6" cy="-564" rx="3.25" ry="3.5"/>
<text text-anchor="middle" x="218.1" y="-571.3" font-family="Times,serif" font-size="14.00">mix</text>
</g>
<!-- p19&#45;&gt;p25 -->
<g id="edge30" class="edge"><title>p19&#45;&gt;p25</title>
<path fill="none" stroke="black" d="M146.675,-768.28C141.526,-752.629 117.644,-672.889 146.6,-620 162.247,-591.421 199.773,-575.524 219.684,-568.834"/>
<polygon fill="black" stroke="black" points="220.924,-572.114 229.452,-565.827 218.865,-565.424 220.924,-572.114"/>
<text text-anchor="middle" x="164.1" y="-678.3" font-family="Times,serif" font-size="14.00">ch_version</text>
</g>
<!-- p23 -->
<g id="node18" class="node"><title>p23</title>
<ellipse fill="none" stroke="black" cx="331.6" cy="-638" rx="176.202" ry="18"/>
<text text-anchor="middle" x="331.6" y="-634.3" font-family="Times,serif" font-size="14.00">INDEXCOV:RUN_GOLEFT_INDEXCOV</text>
</g>
<!-- p15&#45;&gt;p23 -->
<g id="edge18" class="edge"><title>p15&#45;&gt;p23</title>
<path fill="none" stroke="black" d="M617.15,-828.142C561.451,-791.249 428.715,-703.327 365.801,-661.654"/>
<polygon fill="black" stroke="black" points="367.672,-658.695 357.402,-656.091 363.806,-664.531 367.672,-658.695"/>
<text text-anchor="middle" x="526.6" y="-738.3" font-family="Times,serif" font-size="14.00">bams2_ch</text>
</g>
<!-- p16 -->
<g id="node19" class="node"><title>p16</title>
<ellipse fill="black" stroke="black" cx="642.6" cy="-772" rx="1.8" ry="1.8"/>
</g>
<!-- p15&#45;&gt;p16 -->
<g id="edge19" class="edge"><title>p15&#45;&gt;p16</title>
<path fill="none" stroke="black" d="M642.6,-827.937C642.6,-814.37 642.6,-795.787 642.6,-784.089"/>
<polygon fill="black" stroke="black" points="646.1,-783.849 642.6,-773.849 639.1,-783.849 646.1,-783.849"/>
</g>
<!-- p14 -->
<g id="node17" class="node"><title>p14</title>
<ellipse fill="black" stroke="black" cx="599.6" cy="-920" rx="3.6" ry="3.6"/>
</g>
<!-- p14&#45;&gt;p15 -->
<g id="edge17" class="edge"><title>p14&#45;&gt;p15</title>
<path fill="none" stroke="black" d="M599.245,-916.114C598.58,-909.614 597.707,-893.5 603.6,-882 605.56,-878.174 608.126,-874.569 611.006,-871.232"/>
<polygon fill="black" stroke="black" points="613.644,-873.541 618.161,-863.958 608.653,-868.633 613.644,-873.541"/>
<text text-anchor="middle" x="617.6" y="-886.3" font-family="Times,serif" font-size="14.00">meta</text>
</g>
<!-- p34 -->
<g id="node25" class="node"><title>p34</title>
<ellipse fill="none" stroke="black" cx="394.6" cy="-564" rx="3.25" ry="3.5"/>
<text text-anchor="middle" x="380.1" y="-571.3" font-family="Times,serif" font-size="14.00">mix</text>
</g>
<!-- p23&#45;&gt;p34 -->
<g id="edge27" class="edge"><title>p23&#45;&gt;p34</title>
<path fill="none" stroke="black" d="M346.53,-619.937C358.811,-605.902 375.788,-586.499 385.934,-574.904"/>
<polygon fill="black" stroke="black" points="388.646,-577.119 392.597,-567.289 383.378,-572.51 388.646,-577.119"/>
<text text-anchor="middle" x="384.6" y="-590.3" font-family="Times,serif" font-size="14.00">zip</text>
</g>
<!-- p24 -->
<g id="node26" class="node"><title>p24</title>
<ellipse fill="black" stroke="black" cx="331.6" cy="-564" rx="1.8" ry="1.8"/>
</g>
<!-- p23&#45;&gt;p24 -->
<g id="edge28" class="edge"><title>p23&#45;&gt;p24</title>
<path fill="none" stroke="black" d="M331.6,-619.937C331.6,-606.37 331.6,-587.787 331.6,-576.089"/>
<polygon fill="black" stroke="black" points="335.1,-575.849 331.6,-565.849 328.1,-575.849 335.1,-575.849"/>
<text text-anchor="middle" x="343.1" y="-590.3" font-family="Times,serif" font-size="14.00">files</text>
</g>
<!-- p23&#45;&gt;p25 -->
<g id="edge29" class="edge"><title>p23&#45;&gt;p25</title>
<path fill="none" stroke="black" d="M308.389,-620.119C287.772,-605.125 258.583,-583.896 243.136,-572.663"/>
<polygon fill="black" stroke="black" points="245.059,-569.733 234.913,-566.682 240.941,-575.394 245.059,-569.733"/>
</g>
<!-- p17 -->
<g id="node20" class="node"><title>p17</title>
<ellipse fill="black" stroke="black" cx="304.6" cy="-920" rx="3.6" ry="3.6"/>
</g>
<!-- p18 -->
<g id="node21" class="node"><title>p18</title>
<ellipse fill="none" stroke="black" cx="304.6" cy="-846" rx="158.379" ry="18"/>
<text text-anchor="middle" x="304.6" y="-842.3" font-family="Times,serif" font-size="14.00">INDEXCOV:DOWNLOAD_GOLEFT</text>
</g>
<!-- p17&#45;&gt;p18 -->
<g id="edge20" class="edge"><title>p17&#45;&gt;p18</title>
<path fill="none" stroke="black" d="M304.6,-916.265C304.6,-909.354 304.6,-890.578 304.6,-874.316"/>
<polygon fill="black" stroke="black" points="308.1,-874.143 304.6,-864.143 301.1,-874.143 308.1,-874.143"/>
<text text-anchor="middle" x="318.6" y="-886.3" font-family="Times,serif" font-size="14.00">meta</text>
</g>
<!-- p18&#45;&gt;p23 -->
<g id="edge21" class="edge"><title>p18&#45;&gt;p23</title>
<path fill="none" stroke="black" d="M308.313,-827.905C314.3,-799.458 325.892,-740.533 330.6,-690 331.323,-682.24 331.667,-673.789 331.807,-666.039"/>
<polygon fill="black" stroke="black" points="335.307,-666.063 331.889,-656.035 328.307,-666.006 335.307,-666.063"/>
</g>
<!-- p18&#45;&gt;p19 -->
<g id="edge22" class="edge"><title>p18&#45;&gt;p19</title>
<path fill="none" stroke="black" d="M275.096,-828.286C255.908,-817.758 230.162,-804.266 206.6,-794 191.051,-787.225 172.543,-780.909 160.457,-777.008"/>
<polygon fill="black" stroke="black" points="161.448,-773.651 150.858,-773.985 159.345,-780.328 161.448,-773.651"/>
</g>
<!-- p20&#45;&gt;p23 -->
<g id="edge24" class="edge"><title>p20&#45;&gt;p23</title>
<path fill="none" stroke="black" d="M187.284,-709.541C196.63,-704.472 228.644,-687.221 255.6,-674 265.088,-669.346 275.321,-664.511 285.11,-659.973"/>
<polygon fill="black" stroke="black" points="286.702,-663.093 294.319,-655.729 283.772,-656.736 286.702,-663.093"/>
</g>
<!-- p21 -->
<g id="node23" class="node"><title>p21</title>
<ellipse fill="black" stroke="black" cx="252.6" cy="-712" rx="3.6" ry="3.6"/>
</g>
<!-- p21&#45;&gt;p23 -->
<g id="edge25" class="edge"><title>p21&#45;&gt;p23</title>
<path fill="none" stroke="black" d="M253.211,-708.354C254.838,-701.807 259.836,-684.613 269.6,-674 273.939,-669.284 279.063,-665.043 284.477,-661.277"/>
<polygon fill="black" stroke="black" points="286.597,-664.077 293.151,-655.752 282.836,-658.173 286.597,-664.077"/>
<text text-anchor="middle" x="283.6" y="-678.3" font-family="Times,serif" font-size="14.00">meta</text>
</g>
<!-- p22 -->
<g id="node24" class="node"><title>p22</title>
<ellipse fill="black" stroke="black" cx="303.6" cy="-712" rx="3.6" ry="3.6"/>
</g>
<!-- p22&#45;&gt;p23 -->
<g id="edge26" class="edge"><title>p22&#45;&gt;p23</title>
<path fill="none" stroke="black" d="M303.104,-708.201C302.104,-701.88 300.289,-686.107 304.6,-674 305.733,-670.819 307.273,-667.697 309.049,-664.709"/>
<polygon fill="black" stroke="black" points="312.109,-666.436 314.904,-656.216 306.347,-662.462 312.109,-666.436"/>
<text text-anchor="middle" x="317.6" y="-678.3" font-family="Times,serif" font-size="14.00">fasta</text>
</g>
<!-- p35 -->
<g id="node37" class="node"><title>p35</title>
<ellipse fill="none" stroke="black" cx="286.6" cy="-342" rx="3.25" ry="3.5"/>
<text text-anchor="middle" x="294.1" y="-349.3" font-family="Times,serif" font-size="14.00">mix</text>
</g>
<!-- p34&#45;&gt;p35 -->
<g id="edge40" class="edge"><title>p34&#45;&gt;p35</title>
<path fill="none" stroke="black" d="M394.956,-560.278C396.869,-544.615 404.756,-464.82 374.6,-412 356.66,-380.577 318.2,-358.336 298.606,-348.562"/>
<polygon fill="black" stroke="black" points="299.907,-345.306 289.371,-344.195 296.914,-351.634 299.907,-345.306"/>
</g>
<!-- p26 -->
<g id="node28" class="node"><title>p26</title>
<ellipse fill="none" stroke="black" cx="232.6" cy="-504" rx="3.25" ry="3.5"/>
<text text-anchor="middle" x="210.6" y="-511.3" font-family="Times,serif" font-size="14.00">collect</text>
</g>
<!-- p25&#45;&gt;p26 -->
<g id="edge31" class="edge"><title>p25&#45;&gt;p26</title>
<path fill="none" stroke="black" d="M232.6,-560.203C232.6,-552.649 232.6,-531.48 232.6,-517.66"/>
<polygon fill="black" stroke="black" points="236.1,-517.636 232.6,-507.636 229.1,-517.636 236.1,-517.636"/>
<text text-anchor="middle" x="263.1" y="-530.3" font-family="Times,serif" font-size="14.00">ch_version</text>
</g>
<!-- p30 -->
<g id="node29" class="node"><title>p30</title>
<ellipse fill="none" stroke="black" cx="226.6" cy="-430" rx="139.606" ry="18"/>
<text text-anchor="middle" x="226.6" y="-426.3" font-family="Times,serif" font-size="14.00">INDEXCOV:MERGE_VERSION</text>
</g>
<!-- p26&#45;&gt;p30 -->
<g id="edge32" class="edge"><title>p26&#45;&gt;p30</title>
<path fill="none" stroke="black" d="M232.372,-500.265C231.796,-493.354 230.232,-474.578 228.876,-458.316"/>
<polygon fill="black" stroke="black" points="232.347,-457.818 228.029,-448.143 225.371,-458.399 232.347,-457.818"/>
</g>
<!-- p32 -->
<g id="node33" class="node"><title>p32</title>
<ellipse fill="none" stroke="black" cx="164.6" cy="-342" rx="100.137" ry="18"/>
<text text-anchor="middle" x="164.6" y="-338.3" font-family="Times,serif" font-size="14.00">VERSION_TO_HTML</text>
</g>
<!-- p30&#45;&gt;p32 -->
<g id="edge36" class="edge"><title>p30&#45;&gt;p32</title>
<path fill="none" stroke="black" d="M214.351,-412.009C205.35,-399.524 192.97,-382.352 182.812,-368.261"/>
<polygon fill="black" stroke="black" points="185.511,-366.02 176.824,-359.956 179.833,-370.114 185.511,-366.02"/>
</g>
<!-- p30&#45;&gt;p35 -->
<g id="edge41" class="edge"><title>p30&#45;&gt;p35</title>
<path fill="none" stroke="black" d="M238.454,-412.009C250.537,-394.69 268.912,-368.353 279.113,-353.732"/>
<polygon fill="black" stroke="black" points="282.229,-355.382 285.08,-345.178 276.488,-351.377 282.229,-355.382"/>
</g>
<!-- p27 -->
<g id="node30" class="node"><title>p27</title>
<ellipse fill="black" stroke="black" cx="265.6" cy="-504" rx="3.6" ry="3.6"/>
</g>
<!-- p27&#45;&gt;p30 -->
<g id="edge33" class="edge"><title>p27&#45;&gt;p30</title>
<path fill="none" stroke="black" d="M264.302,-500.604C260.622,-493.81 249.795,-473.821 240.682,-456.997"/>
<polygon fill="black" stroke="black" points="243.692,-455.206 235.852,-448.08 237.537,-458.54 243.692,-455.206"/>
<text text-anchor="middle" x="268.6" y="-470.3" font-family="Times,serif" font-size="14.00">meta</text>
</g>
<!-- p28 -->
<g id="node31" class="node"><title>p28</title>
<ellipse fill="black" stroke="black" cx="101.6" cy="-504" rx="3.6" ry="3.6"/>
</g>
<!-- p28&#45;&gt;p30 -->
<g id="edge34" class="edge"><title>p28&#45;&gt;p30</title>
<path fill="none" stroke="black" d="M102.408,-500.227C104.542,-493.39 110.975,-475.586 122.6,-466 130.564,-459.433 139.815,-454.077 149.453,-449.715"/>
<polygon fill="black" stroke="black" points="150.896,-452.906 158.782,-445.83 148.204,-446.444 150.896,-452.906"/>
<text text-anchor="middle" x="138.1" y="-470.3" font-family="Times,serif" font-size="14.00">name</text>
</g>
<!-- p29 -->
<g id="node32" class="node"><title>p29</title>
<ellipse fill="black" stroke="black" cx="155.6" cy="-504" rx="3.6" ry="3.6"/>
</g>
<!-- p29&#45;&gt;p30 -->
<g id="edge35" class="edge"><title>p29&#45;&gt;p30</title>
<path fill="none" stroke="black" d="M155.467,-500.373C155.275,-493.87 155.612,-476.767 163.6,-466 167.23,-461.108 171.758,-456.81 176.711,-453.058"/>
<polygon fill="black" stroke="black" points="179.011,-455.73 185.364,-447.251 175.11,-449.917 179.011,-455.73"/>
<text text-anchor="middle" x="194.6" y="-470.3" font-family="Times,serif" font-size="14.00">description</text>
</g>
<!-- p36 -->
<g id="node35" class="node"><title>p36</title>
<ellipse fill="none" stroke="black" cx="236.6" cy="-282" rx="3.25" ry="3.5"/>
<text text-anchor="middle" x="222.1" y="-289.3" font-family="Times,serif" font-size="14.00">mix</text>
</g>
<!-- p32&#45;&gt;p36 -->
<g id="edge38" class="edge"><title>p32&#45;&gt;p36</title>
<path fill="none" stroke="black" d="M185.425,-324.224C198.77,-313.474 215.52,-299.981 226.145,-291.422"/>
<polygon fill="black" stroke="black" points="228.553,-293.977 234.145,-284.978 224.162,-288.525 228.553,-293.977"/>
</g>
<!-- p31 -->
<g id="node34" class="node"><title>p31</title>
<ellipse fill="black" stroke="black" cx="65.6" cy="-430" rx="3.6" ry="3.6"/>
</g>
<!-- p31&#45;&gt;p32 -->
<g id="edge37" class="edge"><title>p31&#45;&gt;p32</title>
<path fill="none" stroke="black" d="M67.1033,-426.411C69.1977,-422.922 73.2314,-416.62 77.6,-412 93.9913,-394.667 114.865,-377.967 132.058,-365.34"/>
<polygon fill="black" stroke="black" points="134.109,-368.176 140.166,-359.483 130.01,-362.501 134.109,-368.176"/>
<text text-anchor="middle" x="128.6" y="-382.3" font-family="Times,serif" font-size="14.00">meta</text>
</g>
<!-- p37 -->
<g id="node38" class="node"><title>p37</title>
<ellipse fill="none" stroke="black" cx="236.6" cy="-222" rx="3.25" ry="3.5"/>
<text text-anchor="middle" x="214.6" y="-229.3" font-family="Times,serif" font-size="14.00">collect</text>
</g>
<!-- p36&#45;&gt;p37 -->
<g id="edge43" class="edge"><title>p36&#45;&gt;p37</title>
<path fill="none" stroke="black" d="M236.6,-278.203C236.6,-270.649 236.6,-249.48 236.6,-235.66"/>
<polygon fill="black" stroke="black" points="240.1,-235.636 236.6,-225.636 233.1,-235.636 240.1,-235.636"/>
<text text-anchor="middle" x="254.6" y="-248.3" font-family="Times,serif" font-size="14.00">to_zip</text>
</g>
<!-- p33 -->
<g id="node36" class="node"><title>p33</title>
<ellipse fill="black" stroke="black" cx="529.6" cy="-638" rx="3.6" ry="3.6"/>
<text text-anchor="middle" x="568.5" y="-645.4" font-family="Times,serif" font-size="14.00">Channel.empty</text>
</g>
<!-- p33&#45;&gt;p34 -->
<g id="edge39" class="edge"><title>p33&#45;&gt;p34</title>
<path fill="none" stroke="black" d="M528.086,-634.248C525.946,-630.575 521.723,-624.065 516.6,-620 481.734,-592.335 430.732,-575.275 407.268,-568.441"/>
<polygon fill="black" stroke="black" points="408.111,-565.042 397.539,-565.744 406.241,-571.788 408.111,-565.042"/>
</g>
<!-- p35&#45;&gt;p36 -->
<g id="edge42" class="edge"><title>p35&#45;&gt;p36</title>
<path fill="none" stroke="black" d="M284.809,-338.53C282.357,-335.178 277.78,-329.029 273.6,-324 264.437,-312.977 253.358,-300.846 245.725,-292.66"/>
<polygon fill="black" stroke="black" points="248.073,-290.048 238.67,-285.166 242.976,-294.846 248.073,-290.048"/>
</g>
<!-- p39 -->
<g id="node39" class="node"><title>p39</title>
<ellipse fill="none" stroke="black" cx="252.6" cy="-148" rx="77.0154" ry="18"/>
<text text-anchor="middle" x="252.6" y="-144.3" font-family="Times,serif" font-size="14.00">SIMPLE_ZIP_01</text>
</g>
<!-- p37&#45;&gt;p39 -->
<g id="edge44" class="edge"><title>p37&#45;&gt;p39</title>
<path fill="none" stroke="black" d="M237.208,-218.265C238.744,-211.354 242.916,-192.578 246.53,-176.316"/>
<polygon fill="black" stroke="black" points="250.038,-176.664 248.79,-166.143 243.204,-175.145 250.038,-176.664"/>
</g>
<!-- p41 -->
<g id="node41" class="node"><title>p41</title>
<ellipse fill="none" stroke="black" cx="201.6" cy="-74" rx="49.0941" ry="18"/>
<text text-anchor="middle" x="201.6" y="-70.3" font-family="Times,serif" font-size="14.00">PUBLISH</text>
</g>
<!-- p39&#45;&gt;p41 -->
<g id="edge46" class="edge"><title>p39&#45;&gt;p41</title>
<path fill="none" stroke="black" d="M240.514,-129.937C234.226,-121.06 226.417,-110.035 219.448,-100.197"/>
<polygon fill="black" stroke="black" points="222.236,-98.0777 213.6,-91.9405 216.524,-102.124 222.236,-98.0777"/>
</g>
<!-- p40 -->
<g id="node42" class="node"><title>p40</title>
<ellipse fill="black" stroke="black" cx="270.6" cy="-74" rx="1.8" ry="1.8"/>
</g>
<!-- p39&#45;&gt;p40 -->
<g id="edge47" class="edge"><title>p39&#45;&gt;p40</title>
<path fill="none" stroke="black" d="M256.866,-129.937C260.295,-116.219 265.007,-97.3732 267.925,-85.7013"/>
<polygon fill="black" stroke="black" points="271.358,-86.3996 270.388,-75.8492 264.567,-84.7018 271.358,-86.3996"/>
</g>
<!-- p38 -->
<g id="node40" class="node"><title>p38</title>
<ellipse fill="black" stroke="black" cx="269.6" cy="-222" rx="3.6" ry="3.6"/>
</g>
<!-- p38&#45;&gt;p39 -->
<g id="edge45" class="edge"><title>p38&#45;&gt;p39</title>
<path fill="none" stroke="black" d="M268.954,-218.265C267.322,-211.354 262.889,-192.578 259.05,-176.316"/>
<polygon fill="black" stroke="black" points="262.352,-175.071 256.648,-166.143 255.539,-176.68 262.352,-175.071"/>
<text text-anchor="middle" x="278.6" y="-188.3" font-family="Times,serif" font-size="14.00">meta</text>
</g>
<!-- p42 -->
<g id="node43" class="node"><title>p42</title>
<ellipse fill="black" stroke="black" cx="201.6" cy="-2" rx="1.8" ry="1.8"/>
</g>
<!-- p41&#45;&gt;p42 -->
<g id="edge48" class="edge"><title>p41&#45;&gt;p42</title>
<path fill="none" stroke="black" d="M201.6,-55.6966C201.6,-42.6347 201.6,-25.1104 201.6,-13.9338"/>
<polygon fill="black" stroke="black" points="205.1,-13.8073 201.6,-3.8073 198.1,-13.8073 205.1,-13.8073"/>
<text text-anchor="middle" x="210.6" y="-26.3" font-family="Times,serif" font-size="14.00">zip</text>
</g>
</g>
</svg>
