<?xml version="1.0" encoding="UTF-8" standalone="no"?>
<!DOCTYPE svg PUBLIC "-//W3C//DTD SVG 1.1//EN"
 "http://www.w3.org/Graphics/SVG/1.1/DTD/svg11.dtd">
<!-- Generated by graphviz version 2.30.1 (20201013.1554)
 -->
<!-- Title: helloworkflow Pages: 1 -->
<svg width="826pt" height="767pt"
 viewBox="0.00 0.00 826.00 766.60" xmlns="http://www.w3.org/2000/svg" xmlns:xlink="http://www.w3.org/1999/xlink">
<g id="graph0" class="graph" transform="scale(1 1) rotate(0) translate(4 762.6)">
<title>helloworkflow</title>
<polygon fill="white" stroke="white" points="-4,5 -4,-762.6 823,-762.6 823,5 -4,5"/>
<!-- p0 -->
<g id="node1" class="node"><title>p0</title>
<ellipse fill="black" stroke="black" cx="410" cy="-740" rx="3.6" ry="3.6"/>
<text text-anchor="middle" x="341.4" y="-747.4" font-family="Times,serif" font-size="14.00">Channel.fromPath</text>
</g>
<!-- p4 -->
<g id="node2" class="node"><title>p4</title>
<ellipse fill="none" stroke="black" cx="472" cy="-666" rx="189.175" ry="18"/>
<text text-anchor="middle" x="472" y="-662.3" font-family="Times,serif" font-size="14.00">INDEXCOV:SAMTOOLS_SAMPLES01</text>
</g>
<!-- p0&#45;&gt;p4 -->
<g id="edge1" class="edge"><title>p0&#45;&gt;p4</title>
<path fill="none" stroke="black" d="M410.885,-736.457C413.167,-730.145 419.726,-713.445 429,-702 432.25,-697.99 436.025,-694.124 439.962,-690.517"/>
<polygon fill="black" stroke="black" points="442.327,-693.1 447.64,-683.933 437.771,-687.786 442.327,-693.1"/>
<text text-anchor="middle" x="448.5" y="-706.3" font-family="Times,serif" font-size="14.00">bams</text>
</g>
<!-- p6 -->
<g id="node7" class="node"><title>p6</title>
<ellipse fill="none" stroke="black" cx="452" cy="-592" rx="3.25" ry="3.5"/>
<text text-anchor="middle" x="419" y="-599.3" font-family="Times,serif" font-size="14.00">splitCsv</text>
</g>
<!-- p4&#45;&gt;p6 -->
<g id="edge5" class="edge"><title>p4&#45;&gt;p6</title>
<path fill="none" stroke="black" d="M467.26,-647.937C463.663,-634.989 458.797,-617.471 455.536,-605.731"/>
<polygon fill="black" stroke="black" points="458.812,-604.447 452.763,-595.748 452.068,-606.32 458.812,-604.447"/>
</g>
<!-- p5 -->
<g id="node4" class="node"><title>p5</title>
<ellipse fill="none" stroke="black" cx="710" cy="-592" rx="3.25" ry="3.5"/>
<text text-anchor="middle" x="693" y="-599.3" font-family="Times,serif" font-size="14.00">mix</text>
</g>
<!-- p4&#45;&gt;p5 -->
<g id="edge6" class="edge"><title>p4&#45;&gt;p5</title>
<path fill="none" stroke="black" d="M526.006,-648.662C581.937,-631.742 665.499,-606.462 697.192,-596.875"/>
<polygon fill="black" stroke="black" points="698.572,-600.114 707.13,-593.868 696.545,-593.414 698.572,-600.114"/>
</g>
<!-- p1 -->
<g id="node3" class="node"><title>p1</title>
<ellipse fill="black" stroke="black" cx="710" cy="-666" rx="3.6" ry="3.6"/>
<text text-anchor="middle" x="760.9" y="-673.4" font-family="Times,serif" font-size="14.00">Channel.empty</text>
</g>
<!-- p1&#45;&gt;p5 -->
<g id="edge2" class="edge"><title>p1&#45;&gt;p5</title>
<path fill="none" stroke="black" d="M710,-662.265C710,-653.133 710,-623.282 710,-605.892"/>
<polygon fill="black" stroke="black" points="713.5,-605.737 710,-595.737 706.5,-605.737 713.5,-605.737"/>
<text text-anchor="middle" x="749" y="-618.3" font-family="Times,serif" font-size="14.00">ch_version</text>
</g>
<!-- p12 -->
<g id="node8" class="node"><title>p12</title>
<ellipse fill="none" stroke="black" cx="749" cy="-370" rx="3.25" ry="3.5"/>
<text text-anchor="middle" x="759" y="-377.3" font-family="Times,serif" font-size="14.00">mix</text>
</g>
<!-- p5&#45;&gt;p12 -->
<g id="edge7" class="edge"><title>p5&#45;&gt;p12</title>
<path fill="none" stroke="black" d="M711.149,-588.581C712.96,-584.711 716.528,-576.867 719,-570 724.334,-555.179 725.819,-551.427 729,-536 740.518,-480.14 746.172,-412.177 748.152,-384.1"/>
<polygon fill="black" stroke="black" points="751.669,-383.958 748.838,-373.749 744.684,-383.495 751.669,-383.958"/>
<text text-anchor="middle" x="779" y="-470.3" font-family="Times,serif" font-size="14.00">ch_version</text>
</g>
<!-- p2 -->
<g id="node5" class="node"><title>p2</title>
<ellipse fill="black" stroke="black" cx="472" cy="-740" rx="3.6" ry="3.6"/>
</g>
<!-- p2&#45;&gt;p4 -->
<g id="edge3" class="edge"><title>p2&#45;&gt;p4</title>
<path fill="none" stroke="black" d="M472,-736.265C472,-729.354 472,-710.578 472,-694.316"/>
<polygon fill="black" stroke="black" points="475.5,-694.143 472,-684.143 468.5,-694.143 475.5,-694.143"/>
<text text-anchor="middle" x="490.5" y="-706.3" font-family="Times,serif" font-size="14.00">meta</text>
</g>
<!-- p3 -->
<g id="node6" class="node"><title>p3</title>
<ellipse fill="black" stroke="black" cx="532" cy="-740" rx="3.6" ry="3.6"/>
</g>
<!-- p3&#45;&gt;p4 -->
<g id="edge4" class="edge"><title>p3&#45;&gt;p4</title>
<path fill="none" stroke="black" d="M530.834,-736.506C527.872,-730.306 519.604,-713.841 510,-702 506.981,-698.278 503.566,-694.584 500.053,-691.07"/>
<polygon fill="black" stroke="black" points="502.452,-688.521 492.798,-684.156 497.623,-693.588 502.452,-688.521"/>
<text text-anchor="middle" x="556" y="-706.3" font-family="Times,serif" font-size="14.00">reference</text>
</g>
<!-- p9 -->
<g id="node9" class="node"><title>p9</title>
<ellipse fill="none" stroke="black" cx="585" cy="-518" rx="135.258" ry="18"/>
<text text-anchor="middle" x="585" y="-514.3" font-family="Times,serif" font-size="14.00">INDEXCOV:REBUILD_BAI</text>
</g>
<!-- p6&#45;&gt;p9 -->
<g id="edge8" class="edge"><title>p6&#45;&gt;p9</title>
<path fill="none" stroke="black" d="M449.507,-589.678C444.487,-586.855 433.277,-579.697 429,-570 426.13,-563.494 424.556,-559.551 429,-554 436.323,-544.852 455.787,-537.93 478.586,-532.763"/>
<polygon fill="black" stroke="black" points="479.478,-536.151 488.535,-530.654 478.027,-529.303 479.478,-536.151"/>
<text text-anchor="middle" x="507.5" y="-558.3" font-family="Times,serif" font-size="14.00">sample_bam_fasta_ch</text>
</g>
<!-- p18 -->
<g id="node15" class="node"><title>p18</title>
<ellipse fill="none" stroke="black" cx="571" cy="-296" rx="3.25" ry="3.5"/>
<text text-anchor="middle" x="554" y="-303.3" font-family="Times,serif" font-size="14.00">mix</text>
</g>
<!-- p12&#45;&gt;p18 -->
<g id="edge15" class="edge"><title>p12&#45;&gt;p18</title>
<path fill="none" stroke="black" d="M747.814,-366.665C745.846,-363.016 741.565,-355.971 736,-352 686.758,-316.857 613.529,-303.034 584.02,-298.685"/>
<polygon fill="black" stroke="black" points="584.388,-295.203 574.011,-297.338 583.455,-302.141 584.388,-295.203"/>
<text text-anchor="middle" x="742" y="-322.3" font-family="Times,serif" font-size="14.00">ch_version</text>
</g>
<!-- p13 -->
<g id="node12" class="node"><title>p13</title>
<ellipse fill="none" stroke="black" cx="184" cy="-444" rx="3.25" ry="3.5"/>
<text text-anchor="middle" x="156" y="-451.3" font-family="Times,serif" font-size="14.00">collect</text>
</g>
<!-- p9&#45;&gt;p13 -->
<g id="edge11" class="edge"><title>p9&#45;&gt;p13</title>
<path fill="none" stroke="black" d="M507.172,-503.24C429.382,-489.443 306.366,-467.503 200,-448 199.166,-447.847 198.308,-447.689 197.442,-447.529"/>
<polygon fill="black" stroke="black" points="197.66,-444.008 187.186,-445.605 196.37,-450.888 197.66,-444.008"/>
</g>
<!-- p10 -->
<g id="node13" class="node"><title>p10</title>
<ellipse fill="black" stroke="black" cx="610" cy="-444" rx="1.8" ry="1.8"/>
</g>
<!-- p9&#45;&gt;p10 -->
<g id="edge12" class="edge"><title>p9&#45;&gt;p10</title>
<path fill="none" stroke="black" d="M590.925,-499.937C595.74,-486.069 602.376,-466.958 606.417,-455.319"/>
<polygon fill="black" stroke="black" points="609.731,-456.444 609.705,-445.849 603.119,-454.148 609.731,-456.444"/>
</g>
<!-- p11 -->
<g id="node14" class="node"><title>p11</title>
<ellipse fill="none" stroke="black" cx="586" cy="-444" rx="3.25" ry="3.5"/>
<text text-anchor="middle" x="567" y="-451.3" font-family="Times,serif" font-size="14.00">first</text>
</g>
<!-- p9&#45;&gt;p11 -->
<g id="edge13" class="edge"><title>p9&#45;&gt;p11</title>
<path fill="none" stroke="black" d="M585.237,-499.937C585.415,-487.126 585.655,-469.843 585.818,-458.107"/>
<polygon fill="black" stroke="black" points="589.323,-457.796 585.962,-447.748 582.323,-457.699 589.323,-457.796"/>
</g>
<!-- p7 -->
<g id="node10" class="node"><title>p7</title>
<ellipse fill="black" stroke="black" cx="595" cy="-592" rx="3.6" ry="3.6"/>
</g>
<!-- p7&#45;&gt;p9 -->
<g id="edge9" class="edge"><title>p7&#45;&gt;p9</title>
<path fill="none" stroke="black" d="M594.62,-588.265C593.66,-581.354 591.053,-562.578 588.794,-546.316"/>
<polygon fill="black" stroke="black" points="592.223,-545.566 587.381,-536.143 585.29,-546.529 592.223,-545.566"/>
<text text-anchor="middle" x="611.5" y="-558.3" font-family="Times,serif" font-size="14.00">meta</text>
</g>
<!-- p8 -->
<g id="node11" class="node"><title>p8</title>
<ellipse fill="black" stroke="black" cx="655" cy="-592" rx="3.6" ry="3.6"/>
</g>
<!-- p8&#45;&gt;p9 -->
<g id="edge10" class="edge"><title>p8&#45;&gt;p9</title>
<path fill="none" stroke="black" d="M653.916,-588.436C651.14,-582.075 643.264,-565.273 633,-554 629.181,-549.806 624.787,-545.798 620.242,-542.091"/>
<polygon fill="black" stroke="black" points="622.056,-539.071 611.989,-535.766 617.798,-544.627 622.056,-539.071"/>
<text text-anchor="middle" x="680" y="-558.3" font-family="Times,serif" font-size="14.00">reference</text>
</g>
<!-- p15 -->
<g id="node16" class="node"><title>p15</title>
<ellipse fill="none" stroke="black" cx="180" cy="-370" rx="180.051" ry="18"/>
<text text-anchor="middle" x="180" y="-366.3" font-family="Times,serif" font-size="14.00">INDEXCOV:COLLECT_TO_FILE_01</text>
</g>
<!-- p13&#45;&gt;p15 -->
<g id="edge16" class="edge"><title>p13&#45;&gt;p15</title>
<path fill="none" stroke="black" d="M183.848,-440.265C183.464,-433.354 182.421,-414.578 181.518,-398.316"/>
<polygon fill="black" stroke="black" points="185.002,-397.933 180.952,-388.143 178.013,-398.322 185.002,-397.933"/>
</g>
<!-- p11&#45;&gt;p12 -->
<g id="edge14" class="edge"><title>p11&#45;&gt;p12</title>
<path fill="none" stroke="black" d="M589.025,-442.143C607.949,-436.748 710.091,-407.078 736,-388 738.322,-386.29 740.432,-384.054 742.244,-381.768"/>
<polygon fill="black" stroke="black" points="745.231,-383.595 747.8,-373.316 739.382,-379.749 745.231,-383.595"/>
</g>
<!-- p19 -->
<g id="node21" class="node"><title>p19</title>
<ellipse fill="none" stroke="black" cx="571" cy="-236" rx="3.25" ry="3.5"/>
<text text-anchor="middle" x="543" y="-243.3" font-family="Times,serif" font-size="14.00">collect</text>
</g>
<!-- p18&#45;&gt;p19 -->
<g id="edge22" class="edge"><title>p18&#45;&gt;p19</title>
<path fill="none" stroke="black" d="M571,-292.203C571,-284.649 571,-263.48 571,-249.66"/>
<polygon fill="black" stroke="black" points="574.5,-249.636 571,-239.636 567.5,-249.636 574.5,-249.636"/>
<text text-anchor="middle" x="610" y="-262.3" font-family="Times,serif" font-size="14.00">ch_version</text>
</g>
<!-- p22 -->
<g id="node18" class="node"><title>p22</title>
<ellipse fill="none" stroke="black" cx="563" cy="-162" rx="195.924" ry="18"/>
<text text-anchor="middle" x="563" y="-158.3" font-family="Times,serif" font-size="14.00">INDEXCOV:RUN_GOLEFT_INDEXCOV</text>
</g>
<!-- p15&#45;&gt;p22 -->
<g id="edge18" class="edge"><title>p15&#45;&gt;p22</title>
<path fill="none" stroke="black" d="M211.342,-352.142C280.528,-314.93 446.233,-225.804 522.87,-184.584"/>
<polygon fill="black" stroke="black" points="524.613,-187.621 531.762,-179.802 521.297,-181.456 524.613,-187.621"/>
<text text-anchor="middle" x="421.5" y="-262.3" font-family="Times,serif" font-size="14.00">bams2_ch</text>
</g>
<!-- p14 -->
<g id="node17" class="node"><title>p14</title>
<ellipse fill="black" stroke="black" cx="213" cy="-444" rx="3.6" ry="3.6"/>
</g>
<!-- p14&#45;&gt;p15 -->
<g id="edge17" class="edge"><title>p14&#45;&gt;p15</title>
<path fill="none" stroke="black" d="M211.747,-440.265C208.519,-433.222 199.644,-413.859 192.095,-397.39"/>
<polygon fill="black" stroke="black" points="195.205,-395.775 187.857,-388.143 188.842,-398.692 195.205,-395.775"/>
<text text-anchor="middle" x="222.5" y="-410.3" font-family="Times,serif" font-size="14.00">meta</text>
</g>
<!-- p25 -->
<g id="node24" class="node"><title>p25</title>
<ellipse fill="none" stroke="black" cx="487" cy="-74" rx="56.3173" ry="18"/>
<text text-anchor="middle" x="487" y="-70.3" font-family="Times,serif" font-size="14.00">PUBLISH</text>
</g>
<!-- p22&#45;&gt;p25 -->
<g id="edge26" class="edge"><title>p22&#45;&gt;p25</title>
<path fill="none" stroke="black" d="M547.985,-144.009C536.67,-131.205 521,-113.473 508.377,-99.1901"/>
<polygon fill="black" stroke="black" points="510.97,-96.8385 501.725,-91.6629 505.725,-101.474 510.97,-96.8385"/>
<text text-anchor="middle" x="543" y="-114.3" font-family="Times,serif" font-size="14.00">zip</text>
</g>
<!-- p24 -->
<g id="node25" class="node"><title>p24</title>
<ellipse fill="black" stroke="black" cx="563" cy="-74" rx="1.8" ry="1.8"/>
</g>
<!-- p22&#45;&gt;p24 -->
<g id="edge27" class="edge"><title>p22&#45;&gt;p24</title>
<path fill="none" stroke="black" d="M563,-143.597C563,-126.516 563,-100.965 563,-86.348"/>
<polygon fill="black" stroke="black" points="566.5,-86.0951 563,-76.0952 559.5,-86.0952 566.5,-86.0951"/>
<text text-anchor="middle" x="578.5" y="-114.3" font-family="Times,serif" font-size="14.00">files</text>
</g>
<!-- p23 -->
<g id="node26" class="node"><title>p23</title>
<ellipse fill="black" stroke="black" cx="617" cy="-74" rx="1.8" ry="1.8"/>
</g>
<!-- p22&#45;&gt;p23 -->
<g id="edge28" class="edge"><title>p22&#45;&gt;p23</title>
<path fill="none" stroke="black" d="M580.841,-143.785C585.827,-138.396 590.977,-132.223 595,-126 603.246,-113.246 609.673,-96.8813 613.398,-86.1762"/>
<polygon fill="black" stroke="black" points="616.832,-86.9335 616.604,-76.3411 610.177,-84.7636 616.832,-86.9335"/>
<text text-anchor="middle" x="630.5" y="-114.3" font-family="Times,serif" font-size="14.00">version</text>
</g>
<!-- p16 -->
<g id="node19" class="node"><title>p16</title>
<ellipse fill="black" stroke="black" cx="553" cy="-444" rx="3.6" ry="3.6"/>
</g>
<!-- p17 -->
<g id="node20" class="node"><title>p17</title>
<ellipse fill="none" stroke="black" cx="553" cy="-370" rx="174.252" ry="18"/>
<text text-anchor="middle" x="553" y="-366.3" font-family="Times,serif" font-size="14.00">INDEXCOV:DOWNLOAD_GOLEFT</text>
</g>
<!-- p16&#45;&gt;p17 -->
<g id="edge19" class="edge"><title>p16&#45;&gt;p17</title>
<path fill="none" stroke="black" d="M553,-440.265C553,-433.354 553,-414.578 553,-398.316"/>
<polygon fill="black" stroke="black" points="556.5,-398.143 553,-388.143 549.5,-398.143 556.5,-398.143"/>
<text text-anchor="middle" x="571.5" y="-410.3" font-family="Times,serif" font-size="14.00">meta</text>
</g>
<!-- p17&#45;&gt;p22 -->
<g id="edge20" class="edge"><title>p17&#45;&gt;p22</title>
<path fill="none" stroke="black" d="M553.433,-351.69C554.128,-325.69 555.657,-275.015 558,-232 558.755,-218.133 559.848,-202.717 560.82,-189.979"/>
<polygon fill="black" stroke="black" points="564.31,-190.245 561.597,-180.003 557.331,-189.701 564.31,-190.245"/>
</g>
<!-- p17&#45;&gt;p18 -->
<g id="edge21" class="edge"><title>p17&#45;&gt;p18</title>
<path fill="none" stroke="black" d="M557.266,-351.937C560.503,-338.989 564.882,-321.471 567.817,-309.731"/>
<polygon fill="black" stroke="black" points="571.283,-310.299 570.313,-299.748 564.492,-308.601 571.283,-310.299"/>
</g>
<!-- p19&#45;&gt;p22 -->
<g id="edge23" class="edge"><title>p19&#45;&gt;p22</title>
<path fill="none" stroke="black" d="M570.696,-232.265C569.928,-225.354 567.842,-206.578 566.035,-190.316"/>
<polygon fill="black" stroke="black" points="569.488,-189.695 564.905,-180.143 562.531,-190.468 569.488,-189.695"/>
</g>
<!-- p20 -->
<g id="node22" class="node"><title>p20</title>
<ellipse fill="black" stroke="black" cx="596" cy="-236" rx="3.6" ry="3.6"/>
</g>
<!-- p20&#45;&gt;p22 -->
<g id="edge24" class="edge"><title>p20&#45;&gt;p22</title>
<path fill="none" stroke="black" d="M594.747,-232.265C591.519,-225.222 582.644,-205.859 575.095,-189.39"/>
<polygon fill="black" stroke="black" points="578.205,-187.775 570.857,-180.143 571.842,-190.692 578.205,-187.775"/>
<text text-anchor="middle" x="605.5" y="-202.3" font-family="Times,serif" font-size="14.00">meta</text>
</g>
<!-- p21 -->
<g id="node23" class="node"><title>p21</title>
<ellipse fill="black" stroke="black" cx="656" cy="-236" rx="3.6" ry="3.6"/>
</g>
<!-- p21&#45;&gt;p22 -->
<g id="edge25" class="edge"><title>p21&#45;&gt;p22</title>
<path fill="none" stroke="black" d="M654.548,-232.364C650.85,-225.839 640.479,-208.693 628,-198 622.379,-193.184 615.987,-188.76 609.457,-184.796"/>
<polygon fill="black" stroke="black" points="610.944,-181.614 600.526,-179.681 607.465,-187.688 610.944,-181.614"/>
<text text-anchor="middle" x="661" y="-202.3" font-family="Times,serif" font-size="14.00">fasta</text>
</g>
<!-- p26 -->
<g id="node27" class="node"><title>p26</title>
<ellipse fill="black" stroke="black" cx="487" cy="-2" rx="1.8" ry="1.8"/>
</g>
<!-- p25&#45;&gt;p26 -->
<g id="edge29" class="edge"><title>p25&#45;&gt;p26</title>
<path fill="none" stroke="black" d="M487,-55.6966C487,-42.6347 487,-25.1104 487,-13.9338"/>
<polygon fill="black" stroke="black" points="490.5,-13.8073 487,-3.8073 483.5,-13.8073 490.5,-13.8073"/>
<text text-anchor="middle" x="498" y="-26.3" font-family="Times,serif" font-size="14.00">zip</text>
</g>
</g>
</svg>
