<?xml version="1.0" encoding="UTF-8" standalone="no"?>
<!DOCTYPE svg PUBLIC "-//W3C//DTD SVG 1.1//EN"
 "http://www.w3.org/Graphics/SVG/1.1/DTD/svg11.dtd">
<!-- Generated by graphviz version 2.30.1 (20201013.1554)
 -->
<!-- Title: 20221205hs38mego4bedworkflow Pages: 1 -->
<svg width="1080pt" height="968pt"
 viewBox="0.00 0.00 1079.60 968.00" xmlns="http://www.w3.org/2000/svg" xmlns:xlink="http://www.w3.org/1999/xlink">
<g id="graph0" class="graph" transform="scale(1 1) rotate(0) translate(4 964)">
<title>20221205hs38mego4bedworkflow</title>
<polygon fill="white" stroke="white" points="-4,5 -4,-964 1076.6,-964 1076.6,5 -4,5"/>
<!-- p0 -->
<g id="node1" class="node"><title>p0</title>
<ellipse fill="black" stroke="black" cx="87.6" cy="-882" rx="3.6" ry="3.6"/>
<text text-anchor="middle" x="42" y="-889.4" font-family="Times,serif" font-size="14.00">Channel.empty</text>
</g>
<!-- p3 -->
<g id="node2" class="node"><title>p3</title>
<ellipse fill="none" stroke="black" cx="216.6" cy="-794" rx="3.25" ry="3.5"/>
<text text-anchor="middle" x="202.1" y="-801.3" font-family="Times,serif" font-size="14.00">mix</text>
</g>
<!-- p0&#45;&gt;p3 -->
<g id="edge1" class="edge"><title>p0&#45;&gt;p3</title>
<path fill="none" stroke="black" d="M89.1841,-878.331C91.4025,-874.752 95.7153,-868.348 100.6,-864 134.132,-834.156 182.437,-810.339 204.627,-800.241"/>
<polygon fill="black" stroke="black" points="206.096,-803.418 213.824,-796.17 203.263,-797.017 206.096,-803.418"/>
<text text-anchor="middle" x="175.1" y="-834.3" font-family="Times,serif" font-size="14.00">version_ch</text>
</g>
<!-- p7 -->
<g id="node6" class="node"><title>p7</title>
<ellipse fill="none" stroke="black" cx="477.6" cy="-706" rx="3.25" ry="3.5"/>
<text text-anchor="middle" x="463.1" y="-713.3" font-family="Times,serif" font-size="14.00">mix</text>
</g>
<!-- p3&#45;&gt;p7 -->
<g id="edge5" class="edge"><title>p3&#45;&gt;p7</title>
<path fill="none" stroke="black" d="M215.571,-790.24C212.619,-781.792 205.104,-756.012 217.6,-742 250.577,-705.024 415.282,-705.617 464.004,-706.629"/>
<polygon fill="black" stroke="black" points="464.025,-710.131 474.11,-706.884 464.201,-703.133 464.025,-710.131"/>
<text text-anchor="middle" x="247.1" y="-746.3" font-family="Times,serif" font-size="14.00">version_ch</text>
</g>
<!-- p1 -->
<g id="node3" class="node"><title>p1</title>
<ellipse fill="black" stroke="black" cx="290.6" cy="-956" rx="3.6" ry="3.6"/>
</g>
<!-- p2 -->
<g id="node4" class="node"><title>p2</title>
<ellipse fill="none" stroke="black" cx="290.6" cy="-882" rx="181.001" ry="18"/>
<text text-anchor="middle" x="290.6" y="-878.3" font-family="Times,serif" font-size="14.00">GO_TO_BED_01:GO_DOWNLOAD_OBO_01</text>
</g>
<!-- p1&#45;&gt;p2 -->
<g id="edge2" class="edge"><title>p1&#45;&gt;p2</title>
<path fill="none" stroke="black" d="M290.6,-952.265C290.6,-945.354 290.6,-926.578 290.6,-910.316"/>
<polygon fill="black" stroke="black" points="294.1,-910.143 290.6,-900.143 287.1,-910.143 294.1,-910.143"/>
<text text-anchor="middle" x="304.6" y="-922.3" font-family="Times,serif" font-size="14.00">meta</text>
</g>
<!-- p11 -->
<g id="node5" class="node"><title>p11</title>
<ellipse fill="none" stroke="black" cx="658.6" cy="-706" rx="148.256" ry="18"/>
<text text-anchor="middle" x="658.6" y="-702.3" font-family="Times,serif" font-size="14.00">GO_TO_BED_01:BED_FOR_GENES</text>
</g>
<!-- p2&#45;&gt;p11 -->
<g id="edge3" class="edge"><title>p2&#45;&gt;p11</title>
<path fill="none" stroke="black" d="M286.374,-863.657C281.877,-840.583 278.049,-799.926 299.6,-776 316.514,-757.222 451.355,-735.1 550.831,-721.064"/>
<polygon fill="black" stroke="black" points="551.531,-724.5 560.948,-719.647 550.56,-717.568 551.531,-724.5"/>
<text text-anchor="middle" x="310.1" y="-790.3" font-family="Times,serif" font-size="14.00">obo</text>
</g>
<!-- p2&#45;&gt;p3 -->
<g id="edge4" class="edge"><title>p2&#45;&gt;p3</title>
<path fill="none" stroke="black" d="M275.98,-864.009C260.785,-846.35 237.523,-819.316 225.106,-804.885"/>
<polygon fill="black" stroke="black" points="227.65,-802.476 218.474,-797.178 222.344,-807.041 227.65,-802.476"/>
</g>
<!-- p26 -->
<g id="node14" class="node"><title>p26</title>
<ellipse fill="none" stroke="black" cx="681.6" cy="-244" rx="3.25" ry="3.5"/>
<text text-anchor="middle" x="667.1" y="-251.3" font-family="Times,serif" font-size="14.00">mix</text>
</g>
<!-- p11&#45;&gt;p26 -->
<g id="edge14" class="edge"><title>p11&#45;&gt;p26</title>
<path fill="none" stroke="black" d="M658.6,-687.834C658.6,-673.247 658.6,-651.75 658.6,-633 658.6,-633 658.6,-633 658.6,-289 658.6,-276.114 666.444,-263.273 672.97,-254.819"/>
<polygon fill="black" stroke="black" points="675.663,-257.054 679.477,-247.17 670.332,-252.518 675.663,-257.054"/>
<text text-anchor="middle" x="668.6" y="-450.3" font-family="Times,serif" font-size="14.00">bed</text>
</g>
<!-- p27 -->
<g id="node15" class="node"><title>p27</title>
<ellipse fill="none" stroke="black" cx="681.6" cy="-198" rx="3.25" ry="3.5"/>
<text text-anchor="middle" x="667.1" y="-205.3" font-family="Times,serif" font-size="14.00">mix</text>
</g>
<!-- p11&#45;&gt;p27 -->
<g id="edge15" class="edge"><title>p11&#45;&gt;p27</title>
<path fill="none" stroke="black" d="M602.28,-689.325C576.502,-678.381 551.6,-660.652 551.6,-633 551.6,-633 551.6,-633 551.6,-243 551.6,-218.6 634.81,-205.079 668.086,-200.647"/>
<polygon fill="black" stroke="black" points="668.898,-204.073 678.386,-199.359 668.029,-197.127 668.898,-204.073"/>
<text text-anchor="middle" x="566.6" y="-406.3" font-family="Times,serif" font-size="14.00">index</text>
</g>
<!-- p14 -->
<g id="node16" class="node"><title>p14</title>
<ellipse fill="black" stroke="black" cx="628.6" cy="-632" rx="1.8" ry="1.8"/>
</g>
<!-- p11&#45;&gt;p14 -->
<g id="edge16" class="edge"><title>p11&#45;&gt;p14</title>
<path fill="none" stroke="black" d="M651.49,-687.937C645.712,-674.069 637.749,-654.958 632.9,-643.319"/>
<polygon fill="black" stroke="black" points="636.031,-641.734 628.954,-633.849 629.569,-644.426 636.031,-641.734"/>
</g>
<!-- p13 -->
<g id="node17" class="node"><title>p13</title>
<ellipse fill="black" stroke="black" cx="688.6" cy="-632" rx="1.8" ry="1.8"/>
</g>
<!-- p11&#45;&gt;p13 -->
<g id="edge17" class="edge"><title>p11&#45;&gt;p13</title>
<path fill="none" stroke="black" d="M665.71,-687.937C671.488,-674.069 679.451,-654.958 684.3,-643.319"/>
<polygon fill="black" stroke="black" points="687.631,-644.426 688.246,-633.849 681.169,-641.734 687.631,-644.426"/>
</g>
<!-- p12 -->
<g id="node18" class="node"><title>p12</title>
<ellipse fill="black" stroke="black" cx="712.6" cy="-632" rx="1.8" ry="1.8"/>
</g>
<!-- p11&#45;&gt;p12 -->
<g id="edge18" class="edge"><title>p11&#45;&gt;p12</title>
<path fill="none" stroke="black" d="M676.258,-687.921C681.49,-682.439 687.036,-676.181 691.6,-670 697.897,-661.474 703.733,-650.881 707.646,-643.216"/>
<polygon fill="black" stroke="black" points="710.92,-644.488 712.158,-633.966 704.628,-641.419 710.92,-644.488"/>
</g>
<!-- p28 -->
<g id="node19" class="node"><title>p28</title>
<ellipse fill="none" stroke="black" cx="944.6" cy="-152" rx="3.25" ry="3.5"/>
<text text-anchor="middle" x="930.1" y="-159.3" font-family="Times,serif" font-size="14.00">mix</text>
</g>
<!-- p11&#45;&gt;p28 -->
<g id="edge19" class="edge"><title>p11&#45;&gt;p28</title>
<path fill="none" stroke="black" d="M806.291,-703.984C913.786,-699.091 1040.6,-682.772 1040.6,-633 1040.6,-633 1040.6,-633 1040.6,-197 1040.6,-161.077 984.362,-154.368 957.974,-153.197"/>
<polygon fill="black" stroke="black" points="957.872,-149.694 947.794,-152.964 957.711,-156.692 957.872,-149.694"/>
<text text-anchor="middle" x="1056.1" y="-362.3" font-family="Times,serif" font-size="14.00">terms</text>
</g>
<!-- p15 -->
<g id="node10" class="node"><title>p15</title>
<ellipse fill="none" stroke="black" cx="584.6" cy="-632" rx="3.25" ry="3.5"/>
<text text-anchor="middle" x="570.1" y="-639.3" font-family="Times,serif" font-size="14.00">mix</text>
</g>
<!-- p11&#45;&gt;p15 -->
<g id="edge20" class="edge"><title>p11&#45;&gt;p15</title>
<path fill="none" stroke="black" d="M641.063,-687.937C626.224,-673.499 605.547,-653.381 593.773,-641.925"/>
<polygon fill="black" stroke="black" points="596.128,-639.333 586.52,-634.868 591.247,-644.35 596.128,-639.333"/>
</g>
<!-- p7&#45;&gt;p15 -->
<g id="edge10" class="edge"><title>p7&#45;&gt;p15</title>
<path fill="none" stroke="black" d="M479.996,-702.882C488.362,-695.546 517.193,-670.763 543.6,-654 552.962,-648.057 564.21,-642.391 572.555,-638.446"/>
<polygon fill="black" stroke="black" points="574.278,-641.507 581.917,-634.165 571.367,-635.14 574.278,-641.507"/>
<text text-anchor="middle" x="573.1" y="-658.3" font-family="Times,serif" font-size="14.00">version_ch</text>
</g>
<!-- p4 -->
<g id="node7" class="node"><title>p4</title>
<ellipse fill="black" stroke="black" cx="493.6" cy="-882" rx="3.6" ry="3.6"/>
</g>
<!-- p6 -->
<g id="node8" class="node"><title>p6</title>
<ellipse fill="none" stroke="black" cx="493.6" cy="-794" rx="164.153" ry="18"/>
<text text-anchor="middle" x="493.6" y="-790.3" font-family="Times,serif" font-size="14.00">GO_TO_BED_01:GOA_DOWNLOAD_01</text>
</g>
<!-- p4&#45;&gt;p6 -->
<g id="edge6" class="edge"><title>p4&#45;&gt;p6</title>
<path fill="none" stroke="black" d="M493.6,-878.139C493.6,-869.502 493.6,-843.011 493.6,-822.227"/>
<polygon fill="black" stroke="black" points="497.1,-822.004 493.6,-812.004 490.1,-822.004 497.1,-822.004"/>
<text text-anchor="middle" x="507.6" y="-834.3" font-family="Times,serif" font-size="14.00">meta</text>
</g>
<!-- p6&#45;&gt;p11 -->
<g id="edge8" class="edge"><title>p6&#45;&gt;p11</title>
<path fill="none" stroke="black" d="M525.805,-776.214C552.124,-762.496 589.486,-743.023 617.879,-728.224"/>
<polygon fill="black" stroke="black" points="619.507,-731.323 626.757,-723.597 616.271,-725.116 619.507,-731.323"/>
<text text-anchor="middle" x="601.1" y="-746.3" font-family="Times,serif" font-size="14.00">goa</text>
</g>
<!-- p6&#45;&gt;p7 -->
<g id="edge9" class="edge"><title>p6&#45;&gt;p7</title>
<path fill="none" stroke="black" d="M490.362,-775.597C487.283,-759.046 482.724,-734.54 479.97,-719.737"/>
<polygon fill="black" stroke="black" points="483.367,-718.862 478.097,-709.671 476.485,-720.143 483.367,-718.862"/>
</g>
<!-- p5 -->
<g id="node9" class="node"><title>p5</title>
<ellipse fill="black" stroke="black" cx="544.6" cy="-882" rx="3.6" ry="3.6"/>
</g>
<!-- p5&#45;&gt;p6 -->
<g id="edge7" class="edge"><title>p5&#45;&gt;p6</title>
<path fill="none" stroke="black" d="M543.675,-878.097C541.052,-870.082 533.077,-847.103 522.6,-830 520.526,-826.614 518.147,-823.208 515.664,-819.919"/>
<polygon fill="black" stroke="black" points="518.365,-817.692 509.387,-812.066 512.897,-822.063 518.365,-817.692"/>
<text text-anchor="middle" x="555.6" y="-834.3" font-family="Times,serif" font-size="14.00">reference</text>
</g>
<!-- p16 -->
<g id="node20" class="node"><title>p16</title>
<ellipse fill="none" stroke="black" cx="605.6" cy="-572" rx="3.25" ry="3.5"/>
<text text-anchor="middle" x="583.6" y="-579.3" font-family="Times,serif" font-size="14.00">collect</text>
</g>
<!-- p15&#45;&gt;p16 -->
<g id="edge21" class="edge"><title>p15&#45;&gt;p16</title>
<path fill="none" stroke="black" d="M584.084,-628.539C582.921,-622.413 580.567,-606.104 585.6,-594 587.687,-588.979 591.573,-584.457 595.368,-580.907"/>
<polygon fill="black" stroke="black" points="597.588,-583.613 603.171,-574.608 593.191,-578.166 597.588,-583.613"/>
<text text-anchor="middle" x="615.1" y="-598.3" font-family="Times,serif" font-size="14.00">version_ch</text>
</g>
<!-- p8 -->
<g id="node11" class="node"><title>p8</title>
<ellipse fill="black" stroke="black" cx="679.6" cy="-794" rx="3.6" ry="3.6"/>
</g>
<!-- p8&#45;&gt;p11 -->
<g id="edge11" class="edge"><title>p8&#45;&gt;p11</title>
<path fill="none" stroke="black" d="M677.682,-790.645C673.437,-785.265 663.325,-771.492 659.6,-758 657.526,-750.488 656.76,-742.114 656.647,-734.358"/>
<polygon fill="black" stroke="black" points="660.147,-734.369 656.837,-724.305 653.149,-734.237 660.147,-734.369"/>
<text text-anchor="middle" x="673.6" y="-746.3" font-family="Times,serif" font-size="14.00">meta</text>
</g>
<!-- p9 -->
<g id="node12" class="node"><title>p9</title>
<ellipse fill="black" stroke="black" cx="709.6" cy="-794" rx="3.6" ry="3.6"/>
</g>
<!-- p9&#45;&gt;p11 -->
<g id="edge12" class="edge"><title>p9&#45;&gt;p11</title>
<path fill="none" stroke="black" d="M708.675,-790.097C706.052,-782.082 698.077,-759.103 687.6,-742 685.526,-738.614 683.147,-735.208 680.664,-731.919"/>
<polygon fill="black" stroke="black" points="683.365,-729.692 674.387,-724.066 677.897,-734.063 683.365,-729.692"/>
<text text-anchor="middle" x="720.6" y="-746.3" font-family="Times,serif" font-size="14.00">reference</text>
</g>
<!-- p10 -->
<g id="node13" class="node"><title>p10</title>
<ellipse fill="black" stroke="black" cx="782.6" cy="-794" rx="3.6" ry="3.6"/>
</g>
<!-- p10&#45;&gt;p11 -->
<g id="edge13" class="edge"><title>p10&#45;&gt;p11</title>
<path fill="none" stroke="black" d="M781.549,-790.247C778.198,-781.819 766.959,-756.09 749.6,-742 742.284,-736.062 733.848,-731.051 725.124,-726.846"/>
<polygon fill="black" stroke="black" points="726.52,-723.637 715.963,-722.749 723.663,-730.027 726.52,-723.637"/>
<text text-anchor="middle" x="775.6" y="-746.3" font-family="Times,serif" font-size="14.00">gff3</text>
</g>
<!-- p26&#45;&gt;p27 -->
<g id="edge33" class="edge"><title>p26&#45;&gt;p27</title>
<path fill="none" stroke="black" d="M681.6,-240.379C681.6,-234.864 681.6,-221.742 681.6,-211.742"/>
<polygon fill="black" stroke="black" points="685.1,-211.552 681.6,-201.552 678.1,-211.552 685.1,-211.552"/>
</g>
<!-- p27&#45;&gt;p28 -->
<g id="edge34" class="edge"><title>p27&#45;&gt;p28</title>
<path fill="none" stroke="black" d="M684.554,-196.506C709.265,-192.372 881.915,-163.487 931.383,-155.211"/>
<polygon fill="black" stroke="black" points="932.037,-158.651 941.322,-153.548 930.882,-151.746 932.037,-158.651"/>
</g>
<!-- p29 -->
<g id="node30" class="node"><title>p29</title>
<ellipse fill="none" stroke="black" cx="944.6" cy="-92" rx="3.25" ry="3.5"/>
<text text-anchor="middle" x="922.6" y="-99.3" font-family="Times,serif" font-size="14.00">collect</text>
</g>
<!-- p28&#45;&gt;p29 -->
<g id="edge35" class="edge"><title>p28&#45;&gt;p29</title>
<path fill="none" stroke="black" d="M944.6,-148.203C944.6,-140.649 944.6,-119.48 944.6,-105.66"/>
<polygon fill="black" stroke="black" points="948.1,-105.636 944.6,-95.6357 941.1,-105.636 948.1,-105.636"/>
<text text-anchor="middle" x="964.6" y="-118.3" font-family="Times,serif" font-size="14.00">pub_ch</text>
</g>
<!-- p20 -->
<g id="node21" class="node"><title>p20</title>
<ellipse fill="none" stroke="black" cx="836.6" cy="-498" rx="150.205" ry="18"/>
<text text-anchor="middle" x="836.6" y="-494.3" font-family="Times,serif" font-size="14.00">GO_TO_BED_01:MERGE_VERSION</text>
</g>
<!-- p16&#45;&gt;p20 -->
<g id="edge22" class="edge"><title>p16&#45;&gt;p20</title>
<path fill="none" stroke="black" d="M608.521,-570.09C625.624,-564.759 714.156,-537.164 775.747,-517.967"/>
<polygon fill="black" stroke="black" points="776.88,-521.28 785.385,-514.963 774.797,-514.597 776.88,-521.28"/>
</g>
<!-- p22 -->
<g id="node25" class="node"><title>p22</title>
<ellipse fill="none" stroke="black" cx="897.6" cy="-410" rx="94.338" ry="18"/>
<text text-anchor="middle" x="897.6" y="-406.3" font-family="Times,serif" font-size="14.00">VERSION_TO_HTML</text>
</g>
<!-- p20&#45;&gt;p22 -->
<g id="edge26" class="edge"><title>p20&#45;&gt;p22</title>
<path fill="none" stroke="black" d="M848.652,-480.009C857.508,-467.524 869.688,-450.352 879.682,-436.261"/>
<polygon fill="black" stroke="black" points="882.643,-438.137 885.573,-427.956 876.933,-434.087 882.643,-438.137"/>
</g>
<!-- p25 -->
<g id="node29" class="node"><title>p25</title>
<ellipse fill="none" stroke="black" cx="749.6" cy="-290" rx="3.25" ry="3.5"/>
<text text-anchor="middle" x="735.1" y="-297.3" font-family="Times,serif" font-size="14.00">mix</text>
</g>
<!-- p20&#45;&gt;p25 -->
<g id="edge31" class="edge"><title>p20&#45;&gt;p25</title>
<path fill="none" stroke="black" d="M813.449,-480.076C798.095,-467.509 778.936,-448.969 768.6,-428 747.988,-386.182 747.712,-328.993 748.782,-303.801"/>
<polygon fill="black" stroke="black" points="752.277,-303.982 749.363,-293.796 745.289,-303.576 752.277,-303.982"/>
</g>
<!-- p17 -->
<g id="node22" class="node"><title>p17</title>
<ellipse fill="black" stroke="black" cx="836.6" cy="-572" rx="3.6" ry="3.6"/>
</g>
<!-- p17&#45;&gt;p20 -->
<g id="edge23" class="edge"><title>p17&#45;&gt;p20</title>
<path fill="none" stroke="black" d="M836.6,-568.265C836.6,-561.354 836.6,-542.578 836.6,-526.316"/>
<polygon fill="black" stroke="black" points="840.1,-526.143 836.6,-516.143 833.1,-526.143 840.1,-526.143"/>
<text text-anchor="middle" x="850.6" y="-538.3" font-family="Times,serif" font-size="14.00">meta</text>
</g>
<!-- p18 -->
<g id="node23" class="node"><title>p18</title>
<ellipse fill="black" stroke="black" cx="887.6" cy="-572" rx="3.6" ry="3.6"/>
</g>
<!-- p18&#45;&gt;p20 -->
<g id="edge24" class="edge"><title>p18&#45;&gt;p20</title>
<path fill="none" stroke="black" d="M886.333,-568.583C883.139,-562.557 874.386,-546.459 865.6,-534 863.262,-530.685 860.694,-527.29 858.082,-523.98"/>
<polygon fill="black" stroke="black" points="860.634,-521.571 851.606,-516.026 855.205,-525.991 860.634,-521.571"/>
<text text-anchor="middle" x="892.1" y="-538.3" font-family="Times,serif" font-size="14.00">name</text>
</g>
<!-- p19 -->
<g id="node24" class="node"><title>p19</title>
<ellipse fill="black" stroke="black" cx="752.6" cy="-572" rx="3.6" ry="3.6"/>
</g>
<!-- p19&#45;&gt;p20 -->
<g id="edge25" class="edge"><title>p19&#45;&gt;p20</title>
<path fill="none" stroke="black" d="M753.357,-568.342C755.345,-561.768 761.286,-544.518 771.6,-534 776.423,-529.081 782.087,-524.685 788.025,-520.809"/>
<polygon fill="black" stroke="black" points="790.087,-523.653 796.855,-515.502 786.481,-517.653 790.087,-523.653"/>
<text text-anchor="middle" x="802.1" y="-538.3" font-family="Times,serif" font-size="14.00">description</text>
</g>
<!-- p24 -->
<g id="node27" class="node"><title>p24</title>
<ellipse fill="none" stroke="black" cx="781.6" cy="-336" rx="3.25" ry="3.5"/>
<text text-anchor="middle" x="767.1" y="-343.3" font-family="Times,serif" font-size="14.00">mix</text>
</g>
<!-- p22&#45;&gt;p24 -->
<g id="edge28" class="edge"><title>p22&#45;&gt;p24</title>
<path fill="none" stroke="black" d="M871.278,-392.662C846.478,-377.269 810.533,-354.958 792.615,-343.837"/>
<polygon fill="black" stroke="black" points="794.392,-340.82 784.05,-338.52 790.7,-346.768 794.392,-340.82"/>
</g>
<!-- p21 -->
<g id="node26" class="node"><title>p21</title>
<ellipse fill="black" stroke="black" cx="1008.6" cy="-498" rx="3.6" ry="3.6"/>
</g>
<!-- p21&#45;&gt;p22 -->
<g id="edge27" class="edge"><title>p21&#45;&gt;p22</title>
<path fill="none" stroke="black" d="M1006.97,-494.385C1004.69,-490.868 1000.31,-484.532 995.6,-480 976.998,-462.117 953.423,-445.368 934.057,-432.852"/>
<polygon fill="black" stroke="black" points="935.806,-429.816 925.488,-427.409 932.053,-435.725 935.806,-429.816"/>
<text text-anchor="middle" x="987.6" y="-450.3" font-family="Times,serif" font-size="14.00">meta</text>
</g>
<!-- p24&#45;&gt;p25 -->
<g id="edge30" class="edge"><title>p24&#45;&gt;p25</title>
<path fill="none" stroke="black" d="M780.057,-332.878C776.012,-327.316 764.89,-312.023 757.267,-301.543"/>
<polygon fill="black" stroke="black" points="759.916,-299.233 751.203,-293.205 754.254,-303.351 759.916,-299.233"/>
</g>
<!-- p23 -->
<g id="node28" class="node"><title>p23</title>
<ellipse fill="black" stroke="black" cx="781.6" cy="-410" rx="3.6" ry="3.6"/>
<text text-anchor="middle" x="736" y="-417.4" font-family="Times,serif" font-size="14.00">Channel.empty</text>
</g>
<!-- p23&#45;&gt;p24 -->
<g id="edge29" class="edge"><title>p23&#45;&gt;p24</title>
<path fill="none" stroke="black" d="M781.6,-406.265C781.6,-397.133 781.6,-367.282 781.6,-349.892"/>
<polygon fill="black" stroke="black" points="785.1,-349.737 781.6,-339.737 778.1,-349.737 785.1,-349.737"/>
</g>
<!-- p25&#45;&gt;p26 -->
<g id="edge32" class="edge"><title>p25&#45;&gt;p26</title>
<path fill="none" stroke="black" d="M747.017,-287.329C738.187,-281.615 708.848,-262.631 692.625,-252.134"/>
<polygon fill="black" stroke="black" points="694.199,-248.983 683.901,-246.489 690.396,-254.86 694.199,-248.983"/>
</g>
<!-- p31 -->
<g id="node31" class="node"><title>p31</title>
<ellipse fill="none" stroke="black" cx="960.6" cy="-18" rx="96.2631" ry="18"/>
<text text-anchor="middle" x="960.6" y="-14.3" font-family="Times,serif" font-size="14.00">SIMPLE_PUBLISH_01</text>
</g>
<!-- p29&#45;&gt;p31 -->
<g id="edge36" class="edge"><title>p29&#45;&gt;p31</title>
<path fill="none" stroke="black" d="M945.208,-88.2654C946.744,-81.3541 950.916,-62.5781 954.53,-46.3163"/>
<polygon fill="black" stroke="black" points="958.038,-46.6641 956.79,-36.1429 951.204,-45.1455 958.038,-46.6641"/>
</g>
<!-- p30 -->
<g id="node32" class="node"><title>p30</title>
<ellipse fill="black" stroke="black" cx="977.6" cy="-92" rx="3.6" ry="3.6"/>
</g>
<!-- p30&#45;&gt;p31 -->
<g id="edge37" class="edge"><title>p30&#45;&gt;p31</title>
<path fill="none" stroke="black" d="M976.954,-88.2654C975.322,-81.3541 970.889,-62.5781 967.05,-46.3163"/>
<polygon fill="black" stroke="black" points="970.352,-45.071 964.648,-36.1429 963.539,-46.6796 970.352,-45.071"/>
<text text-anchor="middle" x="986.6" y="-58.3" font-family="Times,serif" font-size="14.00">meta</text>
</g>
</g>
</svg>
