<?xml version="1.0" encoding="UTF-8" standalone="no"?>
<!DOCTYPE svg PUBLIC "-//W3C//DTD SVG 1.1//EN"
 "http://www.w3.org/Graphics/SVG/1.1/DTD/svg11.dtd">
<!-- Generated by graphviz version 2.30.1 (20201013.1554)
 -->
<!-- Title: 20221205hs38mego4bedworkflow Pages: 1 -->
<svg width="1179pt" height="968pt"
 viewBox="0.00 0.00 1178.60 968.00" xmlns="http://www.w3.org/2000/svg" xmlns:xlink="http://www.w3.org/1999/xlink">
<g id="graph0" class="graph" transform="scale(1 1) rotate(0) translate(4 964)">
<title>20221205hs38mego4bedworkflow</title>
<polygon fill="white" stroke="white" points="-4,5 -4,-964 1175.6,-964 1175.6,5 -4,5"/>
<!-- p0 -->
<g id="node1" class="node"><title>p0</title>
<ellipse fill="black" stroke="black" cx="112.6" cy="-882" rx="3.6" ry="3.6"/>
<text text-anchor="middle" x="54.5" y="-889.4" font-family="Times,serif" font-size="14.00">Channel.empty</text>
</g>
<!-- p3 -->
<g id="node2" class="node"><title>p3</title>
<ellipse fill="none" stroke="black" cx="349.6" cy="-794" rx="3.25" ry="3.5"/>
<text text-anchor="middle" x="332.6" y="-801.3" font-family="Times,serif" font-size="14.00">mix</text>
</g>
<!-- p0&#45;&gt;p3 -->
<g id="edge1" class="edge"><title>p0&#45;&gt;p3</title>
<path fill="none" stroke="black" d="M113.875,-878.15C115.71,-874.366 119.451,-867.73 124.6,-864 193.568,-814.046 299.378,-799.696 336.322,-796.088"/>
<polygon fill="black" stroke="black" points="336.685,-799.569 346.345,-795.219 336.08,-792.596 336.685,-799.569"/>
<text text-anchor="middle" x="225.6" y="-834.3" font-family="Times,serif" font-size="14.00">version_ch</text>
</g>
<!-- p7 -->
<g id="node6" class="node"><title>p7</title>
<ellipse fill="none" stroke="black" cx="569.6" cy="-706" rx="3.25" ry="3.5"/>
<text text-anchor="middle" x="552.6" y="-713.3" font-family="Times,serif" font-size="14.00">mix</text>
</g>
<!-- p3&#45;&gt;p7 -->
<g id="edge5" class="edge"><title>p3&#45;&gt;p7</title>
<path fill="none" stroke="black" d="M351.743,-790.954C355.497,-787.465 363.622,-780.324 371.6,-776 437.151,-740.478 524.549,-717.629 556.88,-709.912"/>
<polygon fill="black" stroke="black" points="557.712,-713.312 566.663,-707.645 556.131,-706.493 557.712,-713.312"/>
<text text-anchor="middle" x="484.6" y="-746.3" font-family="Times,serif" font-size="14.00">version_ch</text>
</g>
<!-- p1 -->
<g id="node3" class="node"><title>p1</title>
<ellipse fill="black" stroke="black" cx="349.6" cy="-956" rx="3.6" ry="3.6"/>
</g>
<!-- p2 -->
<g id="node4" class="node"><title>p2</title>
<ellipse fill="none" stroke="black" cx="349.6" cy="-882" rx="215.172" ry="18"/>
<text text-anchor="middle" x="349.6" y="-878.3" font-family="Times,serif" font-size="14.00">GO_TO_BED_01:GO_DOWNLOAD_OBO_01</text>
</g>
<!-- p1&#45;&gt;p2 -->
<g id="edge2" class="edge"><title>p1&#45;&gt;p2</title>
<path fill="none" stroke="black" d="M349.6,-952.265C349.6,-945.354 349.6,-926.578 349.6,-910.316"/>
<polygon fill="black" stroke="black" points="353.1,-910.143 349.6,-900.143 346.1,-910.143 353.1,-910.143"/>
<text text-anchor="middle" x="368.1" y="-922.3" font-family="Times,serif" font-size="14.00">meta</text>
</g>
<!-- p13 -->
<g id="node5" class="node"><title>p13</title>
<ellipse fill="none" stroke="black" cx="834.6" cy="-706" rx="177.151" ry="18"/>
<text text-anchor="middle" x="834.6" y="-702.3" font-family="Times,serif" font-size="14.00">GO_TO_BED_01:BED_FOR_GENES</text>
</g>
<!-- p2&#45;&gt;p13 -->
<g id="edge3" class="edge"><title>p2&#45;&gt;p13</title>
<path fill="none" stroke="black" d="M497.259,-868.836C684.596,-853.003 989.597,-825.739 1040.6,-812 1096.68,-796.894 1128.14,-806.822 1159.6,-758 1178.85,-728.128 1102.59,-715.246 1019.13,-709.896"/>
<polygon fill="black" stroke="black" points="1019.11,-706.389 1008.92,-709.28 1018.69,-713.376 1019.11,-706.389"/>
<text text-anchor="middle" x="1157.6" y="-790.3" font-family="Times,serif" font-size="14.00">obo</text>
</g>
<!-- p2&#45;&gt;p3 -->
<g id="edge4" class="edge"><title>p2&#45;&gt;p3</title>
<path fill="none" stroke="black" d="M349.6,-863.597C349.6,-847.046 349.6,-822.54 349.6,-807.737"/>
<polygon fill="black" stroke="black" points="353.1,-807.671 349.6,-797.671 346.1,-807.671 353.1,-807.671"/>
</g>
<!-- p28 -->
<g id="node16" class="node"><title>p28</title>
<ellipse fill="none" stroke="black" cx="793.6" cy="-244" rx="3.25" ry="3.5"/>
<text text-anchor="middle" x="776.6" y="-251.3" font-family="Times,serif" font-size="14.00">mix</text>
</g>
<!-- p13&#45;&gt;p28 -->
<g id="edge16" class="edge"><title>p13&#45;&gt;p28</title>
<path fill="none" stroke="black" d="M818.16,-687.894C806.753,-674.186 793.6,-653.858 793.6,-633 793.6,-633 793.6,-633 793.6,-289 793.6,-278.53 793.6,-266.658 793.6,-257.888"/>
<polygon fill="black" stroke="black" points="797.1,-257.78 793.6,-247.78 790.1,-257.78 797.1,-257.78"/>
<text text-anchor="middle" x="807.1" y="-450.3" font-family="Times,serif" font-size="14.00">bed</text>
</g>
<!-- p29 -->
<g id="node17" class="node"><title>p29</title>
<ellipse fill="none" stroke="black" cx="875.6" cy="-198" rx="3.25" ry="3.5"/>
<text text-anchor="middle" x="858.6" y="-205.3" font-family="Times,serif" font-size="14.00">mix</text>
</g>
<!-- p13&#45;&gt;p29 -->
<g id="edge17" class="edge"><title>p13&#45;&gt;p29</title>
<path fill="none" stroke="black" d="M851.04,-687.894C862.447,-674.186 875.6,-653.858 875.6,-633 875.6,-633 875.6,-633 875.6,-243 875.6,-232.53 875.6,-220.658 875.6,-211.888"/>
<polygon fill="black" stroke="black" points="879.1,-211.78 875.6,-201.78 872.1,-211.78 879.1,-211.78"/>
<text text-anchor="middle" x="895.6" y="-406.3" font-family="Times,serif" font-size="14.00">index</text>
</g>
<!-- p16 -->
<g id="node18" class="node"><title>p16</title>
<ellipse fill="black" stroke="black" cx="763.6" cy="-632" rx="1.8" ry="1.8"/>
</g>
<!-- p13&#45;&gt;p16 -->
<g id="edge18" class="edge"><title>p13&#45;&gt;p16</title>
<path fill="none" stroke="black" d="M801.26,-688.26C793.429,-683.191 785.622,-677.062 779.6,-670 773.083,-662.358 768.845,-651.658 766.379,-643.729"/>
<polygon fill="black" stroke="black" points="769.754,-642.802 763.811,-634.031 762.987,-644.593 769.754,-642.802"/>
</g>
<!-- p15 -->
<g id="node19" class="node"><title>p15</title>
<ellipse fill="black" stroke="black" cx="823.6" cy="-632" rx="1.8" ry="1.8"/>
</g>
<!-- p13&#45;&gt;p15 -->
<g id="edge19" class="edge"><title>p13&#45;&gt;p15</title>
<path fill="none" stroke="black" d="M831.993,-687.937C829.92,-674.37 827.081,-655.787 825.294,-644.089"/>
<polygon fill="black" stroke="black" points="828.7,-643.206 823.73,-633.849 821.78,-644.263 828.7,-643.206"/>
</g>
<!-- p14 -->
<g id="node20" class="node"><title>p14</title>
<ellipse fill="black" stroke="black" cx="845.6" cy="-632" rx="1.8" ry="1.8"/>
</g>
<!-- p13&#45;&gt;p14 -->
<g id="edge20" class="edge"><title>p13&#45;&gt;p14</title>
<path fill="none" stroke="black" d="M837.207,-687.937C839.28,-674.37 842.119,-655.787 843.906,-644.089"/>
<polygon fill="black" stroke="black" points="847.42,-644.263 845.47,-633.849 840.5,-643.206 847.42,-644.263"/>
</g>
<!-- p30 -->
<g id="node21" class="node"><title>p30</title>
<ellipse fill="none" stroke="black" cx="920.6" cy="-152" rx="3.25" ry="3.5"/>
<text text-anchor="middle" x="903.6" y="-159.3" font-family="Times,serif" font-size="14.00">mix</text>
</g>
<!-- p13&#45;&gt;p30 -->
<g id="edge21" class="edge"><title>p13&#45;&gt;p30</title>
<path fill="none" stroke="black" d="M893.566,-688.944C919.249,-678.028 943.6,-660.442 943.6,-633 943.6,-633 943.6,-633 943.6,-197 943.6,-184.114 935.756,-171.273 929.23,-162.819"/>
<polygon fill="black" stroke="black" points="931.868,-160.518 922.723,-155.17 926.537,-165.054 931.868,-160.518"/>
<text text-anchor="middle" x="965.1" y="-362.3" font-family="Times,serif" font-size="14.00">terms</text>
</g>
<!-- p17 -->
<g id="node10" class="node"><title>p17</title>
<ellipse fill="none" stroke="black" cx="581.6" cy="-632" rx="3.25" ry="3.5"/>
<text text-anchor="middle" x="564.6" y="-639.3" font-family="Times,serif" font-size="14.00">mix</text>
</g>
<!-- p13&#45;&gt;p17 -->
<g id="edge22" class="edge"><title>p13&#45;&gt;p17</title>
<path fill="none" stroke="black" d="M780.621,-688.796C746.313,-678.592 700.923,-665.267 660.6,-654 637.305,-647.491 610.011,-640.341 594.369,-636.288"/>
<polygon fill="black" stroke="black" points="595.178,-632.882 584.621,-633.774 593.43,-639.661 595.178,-632.882"/>
</g>
<!-- p7&#45;&gt;p17 -->
<g id="edge10" class="edge"><title>p7&#45;&gt;p17</title>
<path fill="none" stroke="black" d="M570.056,-702.265C571.585,-693.088 576.602,-662.99 579.494,-645.638"/>
<polygon fill="black" stroke="black" points="582.952,-646.177 581.144,-635.737 576.047,-645.026 582.952,-646.177"/>
<text text-anchor="middle" x="617.6" y="-658.3" font-family="Times,serif" font-size="14.00">version_ch</text>
</g>
<!-- p4 -->
<g id="node7" class="node"><title>p4</title>
<ellipse fill="black" stroke="black" cx="586.6" cy="-882" rx="3.6" ry="3.6"/>
</g>
<!-- p6 -->
<g id="node8" class="node"><title>p6</title>
<ellipse fill="none" stroke="black" cx="575.6" cy="-794" rx="194.474" ry="18"/>
<text text-anchor="middle" x="575.6" y="-790.3" font-family="Times,serif" font-size="14.00">GO_TO_BED_01:GOA_DOWNLOAD_01</text>
</g>
<!-- p4&#45;&gt;p6 -->
<g id="edge6" class="edge"><title>p4&#45;&gt;p6</title>
<path fill="none" stroke="black" d="M586.161,-878.099C585.259,-872.108 583.154,-857.93 581.6,-846 580.587,-838.22 579.561,-829.763 578.651,-822.013"/>
<polygon fill="black" stroke="black" points="582.121,-821.545 577.495,-812.013 575.167,-822.349 582.121,-821.545"/>
<text text-anchor="middle" x="600.1" y="-834.3" font-family="Times,serif" font-size="14.00">meta</text>
</g>
<!-- p6&#45;&gt;p13 -->
<g id="edge8" class="edge"><title>p6&#45;&gt;p13</title>
<path fill="none" stroke="black" d="M590.572,-775.579C601.362,-764.191 616.913,-749.996 633.6,-742 653.129,-732.643 674.794,-725.758 696.461,-720.7"/>
<polygon fill="black" stroke="black" points="697.399,-724.077 706.409,-718.502 695.889,-717.242 697.399,-724.077"/>
<text text-anchor="middle" x="646.6" y="-746.3" font-family="Times,serif" font-size="14.00">goa</text>
</g>
<!-- p6&#45;&gt;p7 -->
<g id="edge9" class="edge"><title>p6&#45;&gt;p7</title>
<path fill="none" stroke="black" d="M574.386,-775.597C573.231,-759.046 571.521,-734.54 570.489,-719.737"/>
<polygon fill="black" stroke="black" points="573.974,-719.403 569.786,-709.671 566.991,-719.89 573.974,-719.403"/>
</g>
<!-- p5 -->
<g id="node9" class="node"><title>p5</title>
<ellipse fill="black" stroke="black" cx="640.6" cy="-882" rx="3.6" ry="3.6"/>
</g>
<!-- p5&#45;&gt;p6 -->
<g id="edge7" class="edge"><title>p5&#45;&gt;p6</title>
<path fill="none" stroke="black" d="M639.966,-878.443C637.926,-870.581 630.93,-846.306 618.6,-830 615.636,-826.08 612.143,-822.331 608.451,-818.841"/>
<polygon fill="black" stroke="black" points="610.531,-816.011 600.697,-812.069 605.927,-821.283 610.531,-816.011"/>
<text text-anchor="middle" x="663.6" y="-834.3" font-family="Times,serif" font-size="14.00">reference</text>
</g>
<!-- p18 -->
<g id="node22" class="node"><title>p18</title>
<ellipse fill="none" stroke="black" cx="581.6" cy="-572" rx="3.25" ry="3.5"/>
<text text-anchor="middle" x="553.6" y="-579.3" font-family="Times,serif" font-size="14.00">collect</text>
</g>
<!-- p17&#45;&gt;p18 -->
<g id="edge23" class="edge"><title>p17&#45;&gt;p18</title>
<path fill="none" stroke="black" d="M581.6,-628.203C581.6,-620.649 581.6,-599.48 581.6,-585.66"/>
<polygon fill="black" stroke="black" points="585.1,-585.636 581.6,-575.636 578.1,-585.636 585.1,-585.636"/>
<text text-anchor="middle" x="620.6" y="-598.3" font-family="Times,serif" font-size="14.00">version_ch</text>
</g>
<!-- p8 -->
<g id="node11" class="node"><title>p8</title>
<ellipse fill="black" stroke="black" cx="823.6" cy="-794" rx="3.6" ry="3.6"/>
</g>
<!-- p8&#45;&gt;p13 -->
<g id="edge11" class="edge"><title>p8&#45;&gt;p13</title>
<path fill="none" stroke="black" d="M823.404,-790.215C822.915,-782.499 821.866,-760.216 824.6,-742 824.986,-739.43 825.506,-736.782 826.106,-734.148"/>
<polygon fill="black" stroke="black" points="829.551,-734.813 828.714,-724.251 822.782,-733.03 829.551,-734.813"/>
<text text-anchor="middle" x="843.1" y="-746.3" font-family="Times,serif" font-size="14.00">meta</text>
</g>
<!-- p9 -->
<g id="node12" class="node"><title>p9</title>
<ellipse fill="black" stroke="black" cx="883.6" cy="-794" rx="3.6" ry="3.6"/>
</g>
<!-- p9&#45;&gt;p13 -->
<g id="edge12" class="edge"><title>p9&#45;&gt;p13</title>
<path fill="none" stroke="black" d="M882.643,-790.116C879.94,-782.149 871.777,-759.283 861.6,-742 859.697,-738.768 857.536,-735.494 855.286,-732.313"/>
<polygon fill="black" stroke="black" points="858.018,-730.122 849.234,-724.198 852.407,-734.306 858.018,-730.122"/>
<text text-anchor="middle" x="903.6" y="-746.3" font-family="Times,serif" font-size="14.00">reference</text>
</g>
<!-- p10 -->
<g id="node13" class="node"><title>p10</title>
<ellipse fill="black" stroke="black" cx="976.6" cy="-794" rx="3.6" ry="3.6"/>
</g>
<!-- p10&#45;&gt;p13 -->
<g id="edge13" class="edge"><title>p10&#45;&gt;p13</title>
<path fill="none" stroke="black" d="M975.526,-790.205C972.099,-781.657 960.585,-755.619 942.6,-742 934.324,-735.733 924.882,-730.564 915.104,-726.305"/>
<polygon fill="black" stroke="black" points="916.237,-722.988 905.654,-722.495 913.62,-729.481 916.237,-722.988"/>
<text text-anchor="middle" x="971.1" y="-746.3" font-family="Times,serif" font-size="14.00">gff3</text>
</g>
<!-- p11 -->
<g id="node14" class="node"><title>p11</title>
<ellipse fill="black" stroke="black" cx="1028.6" cy="-794" rx="3.6" ry="3.6"/>
</g>
<!-- p11&#45;&gt;p13 -->
<g id="edge14" class="edge"><title>p11&#45;&gt;p13</title>
<path fill="none" stroke="black" d="M1027.3,-790.128C1023.18,-781.359 1009.49,-754.752 989.6,-742 977.523,-734.259 963.957,-728.218 950.005,-723.507"/>
<polygon fill="black" stroke="black" points="950.887,-720.115 940.298,-720.453 948.786,-726.793 950.887,-720.115"/>
<text text-anchor="middle" x="1080.6" y="-746.3" font-family="Times,serif" font-size="14.00">whiteListedGeneList</text>
</g>
<!-- p12 -->
<g id="node15" class="node"><title>p12</title>
<ellipse fill="black" stroke="black" cx="792.6" cy="-794" rx="3.6" ry="3.6"/>
</g>
<!-- p12&#45;&gt;p13 -->
<g id="edge15" class="edge"><title>p12&#45;&gt;p13</title>
<path fill="none" stroke="black" d="M791.347,-790.556C789.261,-786.758 784.695,-779.512 778.6,-776 734.631,-750.663 637.656,-781.431 669.6,-742 676.363,-733.652 692.806,-727.214 712.823,-722.277"/>
<polygon fill="black" stroke="black" points="713.612,-725.687 722.578,-720.043 712.049,-718.864 713.612,-725.687"/>
<text text-anchor="middle" x="744.1" y="-746.3" font-family="Times,serif" font-size="14.00">blackListedGeneList</text>
</g>
<!-- p28&#45;&gt;p29 -->
<g id="edge35" class="edge"><title>p28&#45;&gt;p29</title>
<path fill="none" stroke="black" d="M796.328,-241.536C806.828,-235.902 845.003,-215.418 864.287,-205.07"/>
<polygon fill="black" stroke="black" points="865.95,-208.15 873.107,-200.338 862.64,-201.982 865.95,-208.15"/>
</g>
<!-- p29&#45;&gt;p30 -->
<g id="edge36" class="edge"><title>p29&#45;&gt;p30</title>
<path fill="none" stroke="black" d="M877.534,-195.109C883.211,-189.558 900.117,-173.028 910.981,-162.405"/>
<polygon fill="black" stroke="black" points="913.603,-164.736 918.307,-155.242 908.71,-159.731 913.603,-164.736"/>
</g>
<!-- p31 -->
<g id="node32" class="node"><title>p31</title>
<ellipse fill="none" stroke="black" cx="920.6" cy="-92" rx="3.25" ry="3.5"/>
<text text-anchor="middle" x="892.6" y="-99.3" font-family="Times,serif" font-size="14.00">collect</text>
</g>
<!-- p30&#45;&gt;p31 -->
<g id="edge37" class="edge"><title>p30&#45;&gt;p31</title>
<path fill="none" stroke="black" d="M920.6,-148.203C920.6,-140.649 920.6,-119.48 920.6,-105.66"/>
<polygon fill="black" stroke="black" points="924.1,-105.636 920.6,-95.6357 917.1,-105.636 924.1,-105.636"/>
<text text-anchor="middle" x="946.6" y="-118.3" font-family="Times,serif" font-size="14.00">pub_ch</text>
</g>
<!-- p22 -->
<g id="node23" class="node"><title>p22</title>
<ellipse fill="none" stroke="black" cx="586.6" cy="-498" rx="178.601" ry="18"/>
<text text-anchor="middle" x="586.6" y="-494.3" font-family="Times,serif" font-size="14.00">GO_TO_BED_01:MERGE_VERSION</text>
</g>
<!-- p18&#45;&gt;p22 -->
<g id="edge24" class="edge"><title>p18&#45;&gt;p22</title>
<path fill="none" stroke="black" d="M581.79,-568.265C582.27,-561.354 583.574,-542.578 584.703,-526.316"/>
<polygon fill="black" stroke="black" points="588.208,-526.361 585.41,-516.143 581.225,-525.876 588.208,-526.361"/>
</g>
<!-- p24 -->
<g id="node27" class="node"><title>p24</title>
<ellipse fill="none" stroke="black" cx="469.6" cy="-410" rx="111.186" ry="18"/>
<text text-anchor="middle" x="469.6" y="-406.3" font-family="Times,serif" font-size="14.00">VERSION_TO_HTML</text>
</g>
<!-- p22&#45;&gt;p24 -->
<g id="edge28" class="edge"><title>p22&#45;&gt;p24</title>
<path fill="none" stroke="black" d="M563.485,-480.009C545.42,-466.731 520.146,-448.153 500.371,-433.618"/>
<polygon fill="black" stroke="black" points="502.4,-430.765 492.269,-427.663 498.254,-436.406 502.4,-430.765"/>
</g>
<!-- p27 -->
<g id="node31" class="node"><title>p27</title>
<ellipse fill="none" stroke="black" cx="634.6" cy="-290" rx="3.25" ry="3.5"/>
<text text-anchor="middle" x="617.6" y="-297.3" font-family="Times,serif" font-size="14.00">mix</text>
</g>
<!-- p22&#45;&gt;p27 -->
<g id="edge33" class="edge"><title>p22&#45;&gt;p27</title>
<path fill="none" stroke="black" d="M594.926,-479.818C601.241,-466.096 609.652,-446.215 614.6,-428 626.721,-383.376 631.919,-328.455 633.754,-303.912"/>
<polygon fill="black" stroke="black" points="637.265,-303.874 634.45,-293.66 630.281,-303.4 637.265,-303.874"/>
</g>
<!-- p19 -->
<g id="node24" class="node"><title>p19</title>
<ellipse fill="black" stroke="black" cx="529.6" cy="-572" rx="3.6" ry="3.6"/>
</g>
<!-- p19&#45;&gt;p22 -->
<g id="edge25" class="edge"><title>p19&#45;&gt;p22</title>
<path fill="none" stroke="black" d="M530.061,-568.056C531.212,-561.437 534.706,-545.096 542.6,-534 545.422,-530.033 548.815,-526.284 552.448,-522.817"/>
<polygon fill="black" stroke="black" points="554.896,-525.327 560.14,-516.12 550.3,-520.047 554.896,-525.327"/>
<text text-anchor="middle" x="561.1" y="-538.3" font-family="Times,serif" font-size="14.00">meta</text>
</g>
<!-- p20 -->
<g id="node25" class="node"><title>p20</title>
<ellipse fill="black" stroke="black" cx="614.6" cy="-572" rx="3.6" ry="3.6"/>
</g>
<!-- p20&#45;&gt;p22 -->
<g id="edge26" class="edge"><title>p20&#45;&gt;p22</title>
<path fill="none" stroke="black" d="M613.537,-568.265C610.823,-561.288 603.408,-542.219 597.043,-525.852"/>
<polygon fill="black" stroke="black" points="600.153,-524.194 593.267,-516.143 593.629,-526.732 600.153,-524.194"/>
<text text-anchor="middle" x="626.6" y="-538.3" font-family="Times,serif" font-size="14.00">name</text>
</g>
<!-- p21 -->
<g id="node26" class="node"><title>p21</title>
<ellipse fill="black" stroke="black" cx="677.6" cy="-572" rx="3.6" ry="3.6"/>
</g>
<!-- p21&#45;&gt;p22 -->
<g id="edge27" class="edge"><title>p21&#45;&gt;p22</title>
<path fill="none" stroke="black" d="M676.22,-568.365C672.698,-561.843 662.791,-544.702 650.6,-534 645.104,-529.175 638.83,-524.746 632.41,-520.78"/>
<polygon fill="black" stroke="black" points="634.026,-517.671 623.623,-515.664 630.504,-523.72 634.026,-517.671"/>
<text text-anchor="middle" x="706.6" y="-538.3" font-family="Times,serif" font-size="14.00">description</text>
</g>
<!-- p26 -->
<g id="node29" class="node"><title>p26</title>
<ellipse fill="none" stroke="black" cx="602.6" cy="-336" rx="3.25" ry="3.5"/>
<text text-anchor="middle" x="585.6" y="-343.3" font-family="Times,serif" font-size="14.00">mix</text>
</g>
<!-- p24&#45;&gt;p26 -->
<g id="edge30" class="edge"><title>p24&#45;&gt;p26</title>
<path fill="none" stroke="black" d="M499.78,-392.662C528.738,-376.985 570.952,-354.133 591.086,-343.233"/>
<polygon fill="black" stroke="black" points="592.994,-346.18 600.122,-338.341 589.662,-340.024 592.994,-346.18"/>
</g>
<!-- p23 -->
<g id="node28" class="node"><title>p23</title>
<ellipse fill="black" stroke="black" cx="386.6" cy="-498" rx="3.6" ry="3.6"/>
</g>
<!-- p23&#45;&gt;p24 -->
<g id="edge29" class="edge"><title>p23&#45;&gt;p24</title>
<path fill="none" stroke="black" d="M388.173,-494.473C390.346,-491.056 394.469,-484.834 398.6,-480 412.136,-464.162 428.771,-447.853 442.536,-435.07"/>
<polygon fill="black" stroke="black" points="445.26,-437.32 450.263,-427.981 440.528,-432.162 445.26,-437.32"/>
<text text-anchor="middle" x="449.1" y="-450.3" font-family="Times,serif" font-size="14.00">meta</text>
</g>
<!-- p26&#45;&gt;p27 -->
<g id="edge32" class="edge"><title>p26&#45;&gt;p27</title>
<path fill="none" stroke="black" d="M604.143,-332.878C608.188,-327.316 619.31,-312.023 626.933,-301.543"/>
<polygon fill="black" stroke="black" points="629.946,-303.351 632.997,-293.205 624.284,-299.233 629.946,-303.351"/>
</g>
<!-- p25 -->
<g id="node30" class="node"><title>p25</title>
<ellipse fill="black" stroke="black" cx="602.6" cy="-410" rx="3.6" ry="3.6"/>
<text text-anchor="middle" x="653.5" y="-417.4" font-family="Times,serif" font-size="14.00">Channel.empty</text>
</g>
<!-- p25&#45;&gt;p26 -->
<g id="edge31" class="edge"><title>p25&#45;&gt;p26</title>
<path fill="none" stroke="black" d="M602.6,-406.265C602.6,-397.133 602.6,-367.282 602.6,-349.892"/>
<polygon fill="black" stroke="black" points="606.1,-349.737 602.6,-339.737 599.1,-349.737 606.1,-349.737"/>
</g>
<!-- p27&#45;&gt;p28 -->
<g id="edge34" class="edge"><title>p27&#45;&gt;p28</title>
<path fill="none" stroke="black" d="M637.634,-288.16C655.451,-283.23 746.846,-257.938 780.842,-248.531"/>
<polygon fill="black" stroke="black" points="782.083,-251.819 790.788,-245.778 780.216,-245.072 782.083,-251.819"/>
</g>
<!-- p33 -->
<g id="node33" class="node"><title>p33</title>
<ellipse fill="none" stroke="black" cx="936.6" cy="-18" rx="116.484" ry="18"/>
<text text-anchor="middle" x="936.6" y="-14.3" font-family="Times,serif" font-size="14.00">SIMPLE_PUBLISH_01</text>
</g>
<!-- p31&#45;&gt;p33 -->
<g id="edge38" class="edge"><title>p31&#45;&gt;p33</title>
<path fill="none" stroke="black" d="M921.208,-88.2654C922.744,-81.3541 926.916,-62.5781 930.53,-46.3163"/>
<polygon fill="black" stroke="black" points="934.038,-46.6641 932.79,-36.1429 927.204,-45.1455 934.038,-46.6641"/>
</g>
<!-- p32 -->
<g id="node34" class="node"><title>p32</title>
<ellipse fill="black" stroke="black" cx="953.6" cy="-92" rx="3.6" ry="3.6"/>
</g>
<!-- p32&#45;&gt;p33 -->
<g id="edge39" class="edge"><title>p32&#45;&gt;p33</title>
<path fill="none" stroke="black" d="M952.954,-88.2654C951.322,-81.3541 946.889,-62.5781 943.05,-46.3163"/>
<polygon fill="black" stroke="black" points="946.352,-45.071 940.648,-36.1429 939.539,-46.6796 946.352,-45.071"/>
<text text-anchor="middle" x="966.1" y="-58.3" font-family="Times,serif" font-size="14.00">meta</text>
</g>
</g>
</svg>
