<?xml version="1.0" encoding="UTF-8" standalone="no"?>
<!DOCTYPE svg PUBLIC "-//W3C//DTD SVG 1.1//EN"
 "http://www.w3.org/Graphics/SVG/1.1/DTD/svg11.dtd">
<!-- Generated by graphviz version 2.30.1 (20201013.1554)
 -->
<!-- Title: 20230523hs37d5svcarotidesworkflow Pages: 1 -->
<svg width="1489pt" height="1200pt"
 viewBox="0.00 0.00 1488.60 1200.00" xmlns="http://www.w3.org/2000/svg" xmlns:xlink="http://www.w3.org/1999/xlink">
<g id="graph0" class="graph" transform="scale(1 1) rotate(0) translate(4 1196)">
<title>20230523hs37d5svcarotidesworkflow</title>
<polygon fill="white" stroke="white" points="-4,5 -4,-1196 1485.6,-1196 1485.6,5 -4,5"/>
<!-- p0 -->
<g id="node1" class="node"><title>p0</title>
<ellipse fill="black" stroke="black" cx="268.6" cy="-578" rx="3.6" ry="3.6"/>
<text text-anchor="middle" x="210.5" y="-585.4" font-family="Times,serif" font-size="14.00">Channel.empty</text>
</g>
<!-- p22 -->
<g id="node2" class="node"><title>p22</title>
<ellipse fill="none" stroke="black" cx="626.6" cy="-490" rx="3.25" ry="3.5"/>
<text text-anchor="middle" x="609.6" y="-497.3" font-family="Times,serif" font-size="14.00">mix</text>
</g>
<!-- p0&#45;&gt;p22 -->
<g id="edge1" class="edge"><title>p0&#45;&gt;p22</title>
<path fill="none" stroke="black" d="M269.703,-574.332C271.43,-570.509 275.148,-563.545 280.6,-560 337.77,-522.83 557.23,-498.121 613.429,-492.315"/>
<polygon fill="black" stroke="black" points="613.838,-495.792 623.436,-491.305 613.136,-488.827 613.838,-495.792"/>
<text text-anchor="middle" x="423.6" y="-530.3" font-family="Times,serif" font-size="14.00">version_ch</text>
</g>
<!-- p27 -->
<g id="node25" class="node"><title>p27</title>
<ellipse fill="none" stroke="black" cx="990.6" cy="-416" rx="3.25" ry="3.5"/>
<text text-anchor="middle" x="973.6" y="-423.3" font-family="Times,serif" font-size="14.00">mix</text>
</g>
<!-- p22&#45;&gt;p27 -->
<g id="edge26" class="edge"><title>p22&#45;&gt;p27</title>
<path fill="none" stroke="black" d="M629.747,-488.378C661.015,-482.193 916.061,-431.744 977.38,-419.615"/>
<polygon fill="black" stroke="black" points="978.243,-423.012 987.373,-417.638 976.884,-416.145 978.243,-423.012"/>
<text text-anchor="middle" x="922.6" y="-442.3" font-family="Times,serif" font-size="14.00">version_ch</text>
</g>
<!-- p1 -->
<g id="node3" class="node"><title>p1</title>
<ellipse fill="black" stroke="black" cx="112.6" cy="-1114" rx="3.6" ry="3.6"/>
<text text-anchor="middle" x="54.5" y="-1121.4" font-family="Times,serif" font-size="14.00">Channel.empty</text>
</g>
<!-- p5 -->
<g id="node4" class="node"><title>p5</title>
<ellipse fill="none" stroke="black" cx="224.6" cy="-1040" rx="3.25" ry="3.5"/>
<text text-anchor="middle" x="207.6" y="-1047.3" font-family="Times,serif" font-size="14.00">mix</text>
</g>
<!-- p1&#45;&gt;p5 -->
<g id="edge2" class="edge"><title>p1&#45;&gt;p5</title>
<path fill="none" stroke="black" d="M113.994,-1110.3C115.966,-1106.68 119.86,-1100.24 124.6,-1096 152.001,-1071.5 192.198,-1053.63 212.259,-1045.64"/>
<polygon fill="black" stroke="black" points="213.762,-1048.82 221.854,-1041.98 211.264,-1042.28 213.762,-1048.82"/>
<text text-anchor="middle" x="215.6" y="-1066.3" font-family="Times,serif" font-size="14.00">version_ch</text>
</g>
<!-- p12 -->
<g id="node9" class="node"><title>p12</title>
<ellipse fill="none" stroke="black" cx="224.6" cy="-860" rx="3.25" ry="3.5"/>
<text text-anchor="middle" x="207.6" y="-867.3" font-family="Times,serif" font-size="14.00">mix</text>
</g>
<!-- p5&#45;&gt;p12 -->
<g id="edge7" class="edge"><title>p5&#45;&gt;p12</title>
<path fill="none" stroke="black" d="M224.6,-1036.48C224.6,-1018.72 224.6,-911.83 224.6,-874.142"/>
<polygon fill="black" stroke="black" points="228.1,-873.681 224.6,-863.681 221.1,-873.681 228.1,-873.681"/>
<text text-anchor="middle" x="263.6" y="-960.3" font-family="Times,serif" font-size="14.00">version_ch</text>
</g>
<!-- p2 -->
<g id="node5" class="node"><title>p2</title>
<ellipse fill="black" stroke="black" cx="407.6" cy="-1188" rx="3.6" ry="3.6"/>
</g>
<!-- p4 -->
<g id="node6" class="node"><title>p4</title>
<ellipse fill="none" stroke="black" cx="437.6" cy="-1114" rx="303.285" ry="18"/>
<text text-anchor="middle" x="437.6" y="-1110.3" font-family="Times,serif" font-size="14.00">PLOT_COVERAGE_01:SAMTOOLS_SAMPLES_01:SQRT_FILE</text>
</g>
<!-- p2&#45;&gt;p4 -->
<g id="edge3" class="edge"><title>p2&#45;&gt;p4</title>
<path fill="none" stroke="black" d="M407.074,-1184.19C406.012,-1177.85 404.079,-1162.03 408.6,-1150 409.86,-1146.65 411.584,-1143.39 413.568,-1140.28"/>
<polygon fill="black" stroke="black" points="416.538,-1142.16 419.681,-1132.04 410.914,-1137.99 416.538,-1142.16"/>
<text text-anchor="middle" x="427.1" y="-1154.3" font-family="Times,serif" font-size="14.00">meta</text>
</g>
<!-- p6 -->
<g id="node8" class="node"><title>p6</title>
<ellipse fill="none" stroke="black" cx="437.6" cy="-1040" rx="3.25" ry="3.5"/>
<text text-anchor="middle" x="402.1" y="-1047.3" font-family="Times,serif" font-size="14.00">splitText</text>
</g>
<!-- p4&#45;&gt;p6 -->
<g id="edge5" class="edge"><title>p4&#45;&gt;p6</title>
<path fill="none" stroke="black" d="M437.6,-1095.94C437.6,-1083.13 437.6,-1065.84 437.6,-1054.11"/>
<polygon fill="black" stroke="black" points="441.1,-1053.75 437.6,-1043.75 434.1,-1053.75 441.1,-1053.75"/>
</g>
<!-- p4&#45;&gt;p5 -->
<g id="edge6" class="edge"><title>p4&#45;&gt;p5</title>
<path fill="none" stroke="black" d="M387.93,-1096.21C338.672,-1079.56 266.475,-1055.16 237.415,-1045.33"/>
<polygon fill="black" stroke="black" points="238.156,-1041.89 227.562,-1042 235.915,-1048.52 238.156,-1041.89"/>
</g>
<!-- p3 -->
<g id="node7" class="node"><title>p3</title>
<ellipse fill="black" stroke="black" cx="467.6" cy="-1188" rx="3.6" ry="3.6"/>
</g>
<!-- p3&#45;&gt;p4 -->
<g id="edge4" class="edge"><title>p3&#45;&gt;p4</title>
<path fill="none" stroke="black" d="M466.461,-1184.27C463.526,-1177.22 455.458,-1157.86 448.596,-1141.39"/>
<polygon fill="black" stroke="black" points="451.82,-1140.03 444.743,-1132.14 445.358,-1142.72 451.82,-1140.03"/>
<text text-anchor="middle" x="478.1" y="-1154.3" font-family="Times,serif" font-size="14.00">filein</text>
</g>
<!-- p7 -->
<g id="node10" class="node"><title>p7</title>
<ellipse fill="none" stroke="black" cx="437.6" cy="-994" rx="3.25" ry="3.5"/>
<text text-anchor="middle" x="418.6" y="-1001.3" font-family="Times,serif" font-size="14.00">map</text>
</g>
<!-- p6&#45;&gt;p7 -->
<g id="edge8" class="edge"><title>p6&#45;&gt;p7</title>
<path fill="none" stroke="black" d="M437.6,-1036.38C437.6,-1030.86 437.6,-1017.74 437.6,-1007.74"/>
<polygon fill="black" stroke="black" points="441.1,-1007.55 437.6,-997.552 434.1,-1007.55 441.1,-1007.55"/>
</g>
<!-- p16 -->
<g id="node16" class="node"><title>p16</title>
<ellipse fill="none" stroke="black" cx="563.6" cy="-712" rx="3.25" ry="3.5"/>
<text text-anchor="middle" x="546.6" y="-719.3" font-family="Times,serif" font-size="14.00">mix</text>
</g>
<!-- p12&#45;&gt;p16 -->
<g id="edge15" class="edge"><title>p12&#45;&gt;p16</title>
<path fill="none" stroke="black" d="M223.741,-856.321C220.051,-844.24 206.778,-794.274 230.6,-768 274.416,-719.672 493.917,-713.805 550.354,-713.097"/>
<polygon fill="black" stroke="black" points="550.445,-716.596 560.414,-713.007 550.383,-709.596 550.445,-716.596"/>
<text text-anchor="middle" x="269.6" y="-782.3" font-family="Times,serif" font-size="14.00">version_ch</text>
</g>
<!-- p11 -->
<g id="node11" class="node"><title>p11</title>
<ellipse fill="none" stroke="black" cx="560.6" cy="-920" rx="307.134" ry="18"/>
<text text-anchor="middle" x="560.6" y="-916.3" font-family="Times,serif" font-size="14.00">PLOT_COVERAGE_01:SAMTOOLS_SAMPLES_01:ST_SAMPLE</text>
</g>
<!-- p7&#45;&gt;p11 -->
<g id="edge9" class="edge"><title>p7&#45;&gt;p11</title>
<path fill="none" stroke="black" d="M438.17,-990.23C439.719,-983.398 444.643,-965.608 455.6,-956 461.934,-950.446 469.179,-945.767 476.836,-941.828"/>
<polygon fill="black" stroke="black" points="478.419,-944.951 485.984,-937.534 475.445,-938.614 478.419,-944.951"/>
<text text-anchor="middle" x="490.6" y="-960.3" font-family="Times,serif" font-size="14.00">chunk_ch</text>
</g>
<!-- p13 -->
<g id="node15" class="node"><title>p13</title>
<ellipse fill="none" stroke="black" cx="562.6" cy="-860" rx="3.25" ry="3.5"/>
<text text-anchor="middle" x="534.6" y="-867.3" font-family="Times,serif" font-size="14.00">collect</text>
</g>
<!-- p11&#45;&gt;p13 -->
<g id="edge13" class="edge"><title>p11&#45;&gt;p13</title>
<path fill="none" stroke="black" d="M561.189,-901.912C561.498,-892.965 561.869,-882.187 562.154,-873.94"/>
<polygon fill="black" stroke="black" points="565.66,-873.805 562.507,-863.691 558.665,-873.564 565.66,-873.805"/>
</g>
<!-- p11&#45;&gt;p12 -->
<g id="edge14" class="edge"><title>p11&#45;&gt;p12</title>
<path fill="none" stroke="black" d="M467.005,-902.844C385.714,-888.811 275.296,-869.751 237.731,-863.267"/>
<polygon fill="black" stroke="black" points="238.099,-859.779 227.65,-861.526 236.908,-866.677 238.099,-859.779"/>
</g>
<!-- p8 -->
<g id="node12" class="node"><title>p8</title>
<ellipse fill="black" stroke="black" cx="530.6" cy="-994" rx="3.6" ry="3.6"/>
</g>
<!-- p8&#45;&gt;p11 -->
<g id="edge10" class="edge"><title>p8&#45;&gt;p11</title>
<path fill="none" stroke="black" d="M530.074,-990.19C529.012,-983.846 527.079,-968.03 531.6,-956 532.86,-952.648 534.584,-949.385 536.568,-946.284"/>
<polygon fill="black" stroke="black" points="539.538,-948.156 542.681,-938.038 533.914,-943.987 539.538,-948.156"/>
<text text-anchor="middle" x="550.1" y="-960.3" font-family="Times,serif" font-size="14.00">meta</text>
</g>
<!-- p9 -->
<g id="node13" class="node"><title>p9</title>
<ellipse fill="black" stroke="black" cx="590.6" cy="-994" rx="3.6" ry="3.6"/>
</g>
<!-- p9&#45;&gt;p11 -->
<g id="edge11" class="edge"><title>p9&#45;&gt;p11</title>
<path fill="none" stroke="black" d="M589.461,-990.265C586.526,-983.222 578.458,-963.859 571.596,-947.39"/>
<polygon fill="black" stroke="black" points="574.82,-946.027 567.743,-938.143 568.358,-948.72 574.82,-946.027"/>
<text text-anchor="middle" x="617.6" y="-960.3" font-family="Times,serif" font-size="14.00">reference</text>
</g>
<!-- p10 -->
<g id="node14" class="node"><title>p10</title>
<ellipse fill="black" stroke="black" cx="683.6" cy="-994" rx="3.6" ry="3.6"/>
</g>
<!-- p10&#45;&gt;p11 -->
<g id="edge12" class="edge"><title>p10&#45;&gt;p11</title>
<path fill="none" stroke="black" d="M682.315,-990.248C679.012,-983.457 669.563,-965.753 656.6,-956 649.261,-950.478 640.963,-945.758 632.396,-941.742"/>
<polygon fill="black" stroke="black" points="633.591,-938.445 623.026,-937.655 630.793,-944.861 633.591,-938.445"/>
<text text-anchor="middle" x="710.1" y="-960.3" font-family="Times,serif" font-size="14.00">references</text>
</g>
<!-- p15 -->
<g id="node17" class="node"><title>p15</title>
<ellipse fill="none" stroke="black" cx="603.6" cy="-786" rx="285.462" ry="18"/>
<text text-anchor="middle" x="603.6" y="-782.3" font-family="Times,serif" font-size="14.00">PLOT_COVERAGE_01:SAMTOOLS_SAMPLES_01:DIGEST</text>
</g>
<!-- p13&#45;&gt;p15 -->
<g id="edge16" class="edge"><title>p13&#45;&gt;p15</title>
<path fill="none" stroke="black" d="M563.964,-856.604C567.833,-849.81 579.216,-829.821 588.796,-812.997"/>
<polygon fill="black" stroke="black" points="591.967,-814.502 593.874,-804.08 585.884,-811.038 591.967,-814.502"/>
</g>
<!-- p17 -->
<g id="node20" class="node"><title>p17</title>
<ellipse fill="none" stroke="black" cx="563.6" cy="-652" rx="3.25" ry="3.5"/>
<text text-anchor="middle" x="535.6" y="-659.3" font-family="Times,serif" font-size="14.00">collect</text>
</g>
<!-- p16&#45;&gt;p17 -->
<g id="edge20" class="edge"><title>p16&#45;&gt;p17</title>
<path fill="none" stroke="black" d="M563.6,-708.203C563.6,-700.649 563.6,-679.48 563.6,-665.66"/>
<polygon fill="black" stroke="black" points="567.1,-665.636 563.6,-655.636 560.1,-665.636 567.1,-665.636"/>
<text text-anchor="middle" x="602.6" y="-678.3" font-family="Times,serif" font-size="14.00">version_ch</text>
</g>
<!-- p29 -->
<g id="node19" class="node"><title>p29</title>
<ellipse fill="none" stroke="black" cx="1025.6" cy="-712" rx="3.25" ry="3.5"/>
<text text-anchor="middle" x="992.6" y="-719.3" font-family="Times,serif" font-size="14.00">splitCsv</text>
</g>
<!-- p15&#45;&gt;p29 -->
<g id="edge18" class="edge"><title>p15&#45;&gt;p29</title>
<path fill="none" stroke="black" d="M697.518,-768.976C802.969,-750.984 965.511,-723.252 1012.48,-715.239"/>
<polygon fill="black" stroke="black" points="1013.08,-718.687 1022.35,-713.555 1011.9,-711.786 1013.08,-718.687"/>
<text text-anchor="middle" x="925.6" y="-738.3" font-family="Times,serif" font-size="14.00">output</text>
</g>
<!-- p15&#45;&gt;p16 -->
<g id="edge19" class="edge"><title>p15&#45;&gt;p16</title>
<path fill="none" stroke="black" d="M594.121,-767.937C586.635,-754.464 576.402,-736.043 569.895,-724.332"/>
<polygon fill="black" stroke="black" points="572.788,-722.331 564.872,-715.289 566.668,-725.73 572.788,-722.331"/>
</g>
<!-- p14 -->
<g id="node18" class="node"><title>p14</title>
<ellipse fill="black" stroke="black" cx="603.6" cy="-860" rx="3.6" ry="3.6"/>
</g>
<!-- p14&#45;&gt;p15 -->
<g id="edge17" class="edge"><title>p14&#45;&gt;p15</title>
<path fill="none" stroke="black" d="M603.6,-856.265C603.6,-849.354 603.6,-830.578 603.6,-814.316"/>
<polygon fill="black" stroke="black" points="607.1,-814.143 603.6,-804.143 600.1,-814.143 607.1,-814.143"/>
<text text-anchor="middle" x="622.1" y="-826.3" font-family="Times,serif" font-size="14.00">meta</text>
</g>
<!-- p30 -->
<g id="node32" class="node"><title>p30</title>
<ellipse fill="none" stroke="black" cx="1094.6" cy="-652" rx="3.25" ry="3.5"/>
<text text-anchor="middle" x="1060.6" y="-659.3" font-family="Times,serif" font-size="14.00">combine</text>
</g>
<!-- p29&#45;&gt;p30 -->
<g id="edge34" class="edge"><title>p29&#45;&gt;p30</title>
<path fill="none" stroke="black" d="M1026.54,-708.295C1029,-701.613 1036.21,-684.136 1047.6,-674 1057.48,-665.202 1071.66,-659.557 1081.85,-656.36"/>
<polygon fill="black" stroke="black" points="1082.79,-659.731 1091.5,-653.69 1080.92,-652.985 1082.79,-659.731"/>
<text text-anchor="middle" x="1069.1" y="-678.3" font-family="Times,serif" font-size="14.00">c2_ch</text>
</g>
<!-- p21 -->
<g id="node21" class="node"><title>p21</title>
<ellipse fill="none" stroke="black" cx="626.6" cy="-578" rx="336.505" ry="18"/>
<text text-anchor="middle" x="626.6" y="-574.3" font-family="Times,serif" font-size="14.00">PLOT_COVERAGE_01:SAMTOOLS_SAMPLES_01:MERGE_VERSION</text>
</g>
<!-- p17&#45;&gt;p21 -->
<g id="edge21" class="edge"><title>p17&#45;&gt;p21</title>
<path fill="none" stroke="black" d="M565.26,-648.574C569.435,-642.529 580.806,-626.392 591.6,-614 594.667,-610.479 598.01,-606.875 601.372,-603.383"/>
<polygon fill="black" stroke="black" points="604.133,-605.568 608.665,-595.991 599.15,-600.651 604.133,-605.568"/>
</g>
<!-- p21&#45;&gt;p22 -->
<g id="edge25" class="edge"><title>p21&#45;&gt;p22</title>
<path fill="none" stroke="black" d="M626.6,-559.597C626.6,-543.046 626.6,-518.54 626.6,-503.737"/>
<polygon fill="black" stroke="black" points="630.1,-503.671 626.6,-493.671 623.1,-503.671 630.1,-503.671"/>
</g>
<!-- p18 -->
<g id="node22" class="node"><title>p18</title>
<ellipse fill="black" stroke="black" cx="596.6" cy="-652" rx="3.6" ry="3.6"/>
</g>
<!-- p18&#45;&gt;p21 -->
<g id="edge22" class="edge"><title>p18&#45;&gt;p21</title>
<path fill="none" stroke="black" d="M596.074,-648.19C595.012,-641.846 593.079,-626.03 597.6,-614 598.86,-610.648 600.584,-607.385 602.568,-604.284"/>
<polygon fill="black" stroke="black" points="605.538,-606.156 608.681,-596.038 599.914,-601.987 605.538,-606.156"/>
<text text-anchor="middle" x="616.1" y="-618.3" font-family="Times,serif" font-size="14.00">meta</text>
</g>
<!-- p19 -->
<g id="node23" class="node"><title>p19</title>
<ellipse fill="black" stroke="black" cx="656.6" cy="-652" rx="3.6" ry="3.6"/>
</g>
<!-- p19&#45;&gt;p21 -->
<g id="edge23" class="edge"><title>p19&#45;&gt;p21</title>
<path fill="none" stroke="black" d="M655.461,-648.265C652.526,-641.222 644.458,-621.859 637.596,-605.39"/>
<polygon fill="black" stroke="black" points="640.82,-604.027 633.743,-596.143 634.358,-606.72 640.82,-604.027"/>
<text text-anchor="middle" x="668.6" y="-618.3" font-family="Times,serif" font-size="14.00">name</text>
</g>
<!-- p20 -->
<g id="node24" class="node"><title>p20</title>
<ellipse fill="black" stroke="black" cx="719.6" cy="-652" rx="3.6" ry="3.6"/>
</g>
<!-- p20&#45;&gt;p21 -->
<g id="edge24" class="edge"><title>p20&#45;&gt;p21</title>
<path fill="none" stroke="black" d="M718.228,-648.355C714.726,-641.811 704.86,-624.623 692.6,-614 687.142,-609.27 680.935,-604.942 674.564,-601.065"/>
<polygon fill="black" stroke="black" points="676.245,-597.994 665.828,-596.061 672.766,-604.068 676.245,-597.994"/>
<text text-anchor="middle" x="748.6" y="-618.3" font-family="Times,serif" font-size="14.00">description</text>
</g>
<!-- p35 -->
<g id="node31" class="node"><title>p35</title>
<ellipse fill="none" stroke="black" cx="990.6" cy="-356" rx="3.25" ry="3.5"/>
<text text-anchor="middle" x="973.6" y="-363.3" font-family="Times,serif" font-size="14.00">mix</text>
</g>
<!-- p27&#45;&gt;p35 -->
<g id="edge32" class="edge"><title>p27&#45;&gt;p35</title>
<path fill="none" stroke="black" d="M990.6,-412.203C990.6,-404.649 990.6,-383.48 990.6,-369.66"/>
<polygon fill="black" stroke="black" points="994.1,-369.636 990.6,-359.636 987.1,-369.636 994.1,-369.636"/>
<text text-anchor="middle" x="1029.6" y="-382.3" font-family="Times,serif" font-size="14.00">version_ch</text>
</g>
<!-- p23 -->
<g id="node26" class="node"><title>p23</title>
<ellipse fill="black" stroke="black" cx="1034.6" cy="-860" rx="3.6" ry="3.6"/>
</g>
<!-- p26 -->
<g id="node27" class="node"><title>p26</title>
<ellipse fill="none" stroke="black" cx="1094.6" cy="-786" rx="186.3" ry="18"/>
<text text-anchor="middle" x="1094.6" y="-782.3" font-family="Times,serif" font-size="14.00">PLOT_COVERAGE_01:EXTEND_BED</text>
</g>
<!-- p23&#45;&gt;p26 -->
<g id="edge27" class="edge"><title>p23&#45;&gt;p26</title>
<path fill="none" stroke="black" d="M1035.5,-856.47C1037.82,-850.189 1044.46,-833.553 1053.6,-822 1056.63,-818.165 1060.14,-814.437 1063.79,-810.933"/>
<polygon fill="black" stroke="black" points="1066.31,-813.379 1071.41,-804.091 1061.63,-808.172 1066.31,-813.379"/>
<text text-anchor="middle" x="1072.1" y="-826.3" font-family="Times,serif" font-size="14.00">meta</text>
</g>
<!-- p28 -->
<g id="node30" class="node"><title>p28</title>
<ellipse fill="none" stroke="black" cx="1094.6" cy="-712" rx="3.25" ry="3.5"/>
<text text-anchor="middle" x="1061.6" y="-719.3" font-family="Times,serif" font-size="14.00">splitCsv</text>
</g>
<!-- p26&#45;&gt;p28 -->
<g id="edge30" class="edge"><title>p26&#45;&gt;p28</title>
<path fill="none" stroke="black" d="M1094.6,-767.937C1094.6,-755.126 1094.6,-737.843 1094.6,-726.107"/>
<polygon fill="black" stroke="black" points="1098.1,-725.748 1094.6,-715.748 1091.1,-725.748 1098.1,-725.748"/>
</g>
<!-- p26&#45;&gt;p27 -->
<g id="edge31" class="edge"><title>p26&#45;&gt;p27</title>
<path fill="none" stroke="black" d="M1033.48,-768.883C1023.24,-764.087 1013.41,-757.917 1005.6,-750 993.248,-737.487 991.6,-730.582 991.6,-713 991.6,-713 991.6,-713 991.6,-489 991.6,-468.326 991.183,-444.316 990.887,-429.908"/>
<polygon fill="black" stroke="black" points="994.383,-429.668 990.666,-419.746 987.385,-429.82 994.383,-429.668"/>
</g>
<!-- p24 -->
<g id="node28" class="node"><title>p24</title>
<ellipse fill="black" stroke="black" cx="1094.6" cy="-860" rx="3.6" ry="3.6"/>
</g>
<!-- p24&#45;&gt;p26 -->
<g id="edge28" class="edge"><title>p24&#45;&gt;p26</title>
<path fill="none" stroke="black" d="M1094.6,-856.265C1094.6,-849.354 1094.6,-830.578 1094.6,-814.316"/>
<polygon fill="black" stroke="black" points="1098.1,-814.143 1094.6,-804.143 1091.1,-814.143 1098.1,-814.143"/>
<text text-anchor="middle" x="1129.6" y="-826.3" font-family="Times,serif" font-size="14.00">reference</text>
</g>
<!-- p25 -->
<g id="node29" class="node"><title>p25</title>
<ellipse fill="black" stroke="black" cx="1187.6" cy="-860" rx="3.6" ry="3.6"/>
</g>
<!-- p25&#45;&gt;p26 -->
<g id="edge29" class="edge"><title>p25&#45;&gt;p26</title>
<path fill="none" stroke="black" d="M1186.63,-856.321C1184.12,-849.7 1176.79,-832.349 1165.6,-822 1160.19,-816.997 1153.93,-812.555 1147.41,-808.657"/>
<polygon fill="black" stroke="black" points="1148.87,-805.463 1138.43,-803.678 1145.48,-811.586 1148.87,-805.463"/>
<text text-anchor="middle" x="1192.1" y="-826.3" font-family="Times,serif" font-size="14.00">bed</text>
</g>
<!-- p28&#45;&gt;p30 -->
<g id="edge33" class="edge"><title>p28&#45;&gt;p30</title>
<path fill="none" stroke="black" d="M1094.6,-708.203C1094.6,-700.649 1094.6,-679.48 1094.6,-665.66"/>
<polygon fill="black" stroke="black" points="1098.1,-665.636 1094.6,-655.636 1091.1,-665.636 1098.1,-665.636"/>
<text text-anchor="middle" x="1116.1" y="-678.3" font-family="Times,serif" font-size="14.00">c1_ch</text>
</g>
<!-- p40 -->
<g id="node38" class="node"><title>p40</title>
<ellipse fill="none" stroke="black" cx="989.6" cy="-222" rx="3.25" ry="3.5"/>
<text text-anchor="middle" x="972.6" y="-229.3" font-family="Times,serif" font-size="14.00">mix</text>
</g>
<!-- p35&#45;&gt;p40 -->
<g id="edge41" class="edge"><title>p35&#45;&gt;p40</title>
<path fill="none" stroke="black" d="M990.579,-352.243C990.466,-337.279 989.921,-265.397 989.697,-235.788"/>
<polygon fill="black" stroke="black" points="993.197,-235.715 989.621,-225.742 986.197,-235.768 993.197,-235.715"/>
<text text-anchor="middle" x="1029.6" y="-278.3" font-family="Times,serif" font-size="14.00">version_ch</text>
</g>
<!-- p31 -->
<g id="node33" class="node"><title>p31</title>
<ellipse fill="none" stroke="black" cx="1104.6" cy="-578" rx="3.25" ry="3.5"/>
<text text-anchor="middle" x="1085.6" y="-585.3" font-family="Times,serif" font-size="14.00">map</text>
</g>
<!-- p30&#45;&gt;p31 -->
<g id="edge35" class="edge"><title>p30&#45;&gt;p31</title>
<path fill="none" stroke="black" d="M1094.98,-648.265C1096.25,-639.133 1100.39,-609.282 1102.81,-591.892"/>
<polygon fill="black" stroke="black" points="1106.31,-592.124 1104.22,-581.737 1099.38,-591.161 1106.31,-592.124"/>
</g>
<!-- p34 -->
<g id="node34" class="node"><title>p34</title>
<ellipse fill="none" stroke="black" cx="1229.6" cy="-490" rx="209.397" ry="18"/>
<text text-anchor="middle" x="1229.6" y="-486.3" font-family="Times,serif" font-size="14.00">PLOT_COVERAGE_01:DRAW_COVERAGE</text>
</g>
<!-- p31&#45;&gt;p34 -->
<g id="edge36" class="edge"><title>p31&#45;&gt;p34</title>
<path fill="none" stroke="black" d="M1107.21,-575.204C1118.54,-567.41 1164.32,-535.916 1196.55,-513.74"/>
<polygon fill="black" stroke="black" points="1198.57,-516.594 1204.83,-508.042 1194.61,-510.827 1198.57,-516.594"/>
</g>
<!-- p36 -->
<g id="node37" class="node"><title>p36</title>
<ellipse fill="none" stroke="black" cx="1233.6" cy="-416" rx="3.25" ry="3.5"/>
<text text-anchor="middle" x="1214.6" y="-423.3" font-family="Times,serif" font-size="14.00">map</text>
</g>
<!-- p34&#45;&gt;p36 -->
<g id="edge39" class="edge"><title>p34&#45;&gt;p36</title>
<path fill="none" stroke="black" d="M1230.55,-471.937C1231.26,-459.126 1232.22,-441.843 1232.87,-430.107"/>
<polygon fill="black" stroke="black" points="1236.39,-429.927 1233.45,-419.748 1229.4,-429.539 1236.39,-429.927"/>
</g>
<!-- p34&#45;&gt;p35 -->
<g id="edge40" class="edge"><title>p34&#45;&gt;p35</title>
<path fill="none" stroke="black" d="M1210.25,-471.72C1181.98,-447.353 1126.84,-403.075 1072.6,-378 1049.64,-367.385 1020.49,-361.551 1003.85,-358.867"/>
<polygon fill="black" stroke="black" points="1004.27,-355.392 993.87,-357.402 1003.26,-362.318 1004.27,-355.392"/>
</g>
<!-- p32 -->
<g id="node35" class="node"><title>p32</title>
<ellipse fill="black" stroke="black" cx="1203.6" cy="-578" rx="3.6" ry="3.6"/>
</g>
<!-- p32&#45;&gt;p34 -->
<g id="edge37" class="edge"><title>p32&#45;&gt;p34</title>
<path fill="none" stroke="black" d="M1203.08,-574.138C1201.77,-566.225 1198.81,-543.486 1204.6,-526 1205.66,-522.81 1207.11,-519.66 1208.8,-516.635"/>
<polygon fill="black" stroke="black" points="1211.88,-518.317 1214.36,-508.017 1206,-514.52 1211.88,-518.317"/>
<text text-anchor="middle" x="1223.1" y="-530.3" font-family="Times,serif" font-size="14.00">meta</text>
</g>
<!-- p33 -->
<g id="node36" class="node"><title>p33</title>
<ellipse fill="black" stroke="black" cx="1263.6" cy="-578" rx="3.6" ry="3.6"/>
</g>
<!-- p33&#45;&gt;p34 -->
<g id="edge38" class="edge"><title>p33&#45;&gt;p34</title>
<path fill="none" stroke="black" d="M1262.62,-574.519C1259.35,-566.245 1248.55,-538.926 1240.18,-517.761"/>
<polygon fill="black" stroke="black" points="1243.36,-516.28 1236.43,-508.268 1236.85,-518.854 1243.36,-516.28"/>
<text text-anchor="middle" x="1261.1" y="-530.3" font-family="Times,serif" font-size="14.00">gtf</text>
</g>
<!-- p37 -->
<g id="node39" class="node"><title>p37</title>
<ellipse fill="none" stroke="black" cx="1239.6" cy="-356" rx="3.25" ry="3.5"/>
<text text-anchor="middle" x="1194.6" y="-363.3" font-family="Times,serif" font-size="14.00">groupTuple</text>
</g>
<!-- p36&#45;&gt;p37 -->
<g id="edge42" class="edge"><title>p36&#45;&gt;p37</title>
<path fill="none" stroke="black" d="M1233.86,-412.508C1234.61,-405.27 1236.82,-383.875 1238.27,-369.86"/>
<polygon fill="black" stroke="black" points="1241.77,-369.988 1239.32,-359.681 1234.81,-369.268 1241.77,-369.988"/>
<text text-anchor="middle" x="1295.6" y="-382.3" font-family="Times,serif" font-size="14.00">input_merge_ch</text>
</g>
<!-- p41 -->
<g id="node43" class="node"><title>p41</title>
<ellipse fill="none" stroke="black" cx="987.6" cy="-148" rx="3.25" ry="3.5"/>
<text text-anchor="middle" x="959.6" y="-155.3" font-family="Times,serif" font-size="14.00">collect</text>
</g>
<!-- p40&#45;&gt;p41 -->
<g id="edge47" class="edge"><title>p40&#45;&gt;p41</title>
<path fill="none" stroke="black" d="M989.524,-218.265C989.27,-209.133 988.441,-179.282 987.958,-161.892"/>
<polygon fill="black" stroke="black" points="991.452,-161.636 987.676,-151.737 984.455,-161.831 991.452,-161.636"/>
<text text-anchor="middle" x="1028.6" y="-188.3" font-family="Times,serif" font-size="14.00">version_ch</text>
</g>
<!-- p39 -->
<g id="node40" class="node"><title>p39</title>
<ellipse fill="none" stroke="black" cx="1272.6" cy="-282" rx="186.3" ry="18"/>
<text text-anchor="middle" x="1272.6" y="-278.3" font-family="Times,serif" font-size="14.00">PLOT_COVERAGE_01:MERGE_PDFS</text>
</g>
<!-- p37&#45;&gt;p39 -->
<g id="edge43" class="edge"><title>p37&#45;&gt;p39</title>
<path fill="none" stroke="black" d="M1240.7,-352.604C1243.78,-345.873 1252.8,-326.19 1260.47,-309.465"/>
<polygon fill="black" stroke="black" points="1263.79,-310.629 1264.77,-300.08 1257.42,-307.712 1263.79,-310.629"/>
</g>
<!-- p47 -->
<g id="node42" class="node"><title>p47</title>
<ellipse fill="none" stroke="black" cx="1280.6" cy="-222" rx="3.25" ry="3.5"/>
<text text-anchor="middle" x="1252.6" y="-229.3" font-family="Times,serif" font-size="14.00">collect</text>
</g>
<!-- p39&#45;&gt;p47 -->
<g id="edge45" class="edge"><title>p39&#45;&gt;p47</title>
<path fill="none" stroke="black" d="M1274.96,-263.912C1276.21,-254.858 1277.71,-243.93 1278.86,-235.647"/>
<polygon fill="black" stroke="black" points="1282.33,-236.075 1280.23,-225.691 1275.4,-235.119 1282.33,-236.075"/>
</g>
<!-- p39&#45;&gt;p40 -->
<g id="edge46" class="edge"><title>p39&#45;&gt;p40</title>
<path fill="none" stroke="black" d="M1197.13,-265.533C1129.76,-251.726 1036.65,-232.643 1002.68,-225.68"/>
<polygon fill="black" stroke="black" points="1003.23,-222.22 992.727,-223.641 1001.82,-229.077 1003.23,-222.22"/>
</g>
<!-- p38 -->
<g id="node41" class="node"><title>p38</title>
<ellipse fill="black" stroke="black" cx="1272.6" cy="-356" rx="3.6" ry="3.6"/>
</g>
<!-- p38&#45;&gt;p39 -->
<g id="edge44" class="edge"><title>p38&#45;&gt;p39</title>
<path fill="none" stroke="black" d="M1272.6,-352.265C1272.6,-345.354 1272.6,-326.578 1272.6,-310.316"/>
<polygon fill="black" stroke="black" points="1276.1,-310.143 1272.6,-300.143 1269.1,-310.143 1276.1,-310.143"/>
<text text-anchor="middle" x="1291.1" y="-322.3" font-family="Times,serif" font-size="14.00">meta</text>
</g>
<!-- p49 -->
<g id="node49" class="node"><title>p49</title>
<ellipse fill="none" stroke="black" cx="1320.6" cy="-148" rx="159.354" ry="18"/>
<text text-anchor="middle" x="1320.6" y="-144.3" font-family="Times,serif" font-size="14.00">PLOT_COVERAGE_01:ZIP_ALL</text>
</g>
<!-- p47&#45;&gt;p49 -->
<g id="edge53" class="edge"><title>p47&#45;&gt;p49</title>
<path fill="none" stroke="black" d="M1281.93,-218.604C1285.71,-211.81 1296.81,-191.821 1306.16,-174.997"/>
<polygon fill="black" stroke="black" points="1309.31,-176.521 1311.11,-166.08 1303.2,-173.122 1309.31,-176.521"/>
</g>
<!-- p45 -->
<g id="node44" class="node"><title>p45</title>
<ellipse fill="none" stroke="black" cx="1045.6" cy="-60" rx="206.998" ry="18"/>
<text text-anchor="middle" x="1045.6" y="-56.3" font-family="Times,serif" font-size="14.00">PLOT_COVERAGE_01:MERGE_VERSION</text>
</g>
<!-- p41&#45;&gt;p45 -->
<g id="edge48" class="edge"><title>p41&#45;&gt;p45</title>
<path fill="none" stroke="black" d="M988.368,-144.5C990.804,-136.799 998.896,-112.942 1010.6,-96 1013.07,-92.4207 1015.94,-88.8883 1018.94,-85.5242"/>
<polygon fill="black" stroke="black" points="1021.71,-87.689 1026.08,-78.0373 1016.65,-82.8573 1021.71,-87.689"/>
</g>
<!-- p46 -->
<g id="node48" class="node"><title>p46</title>
<ellipse fill="black" stroke="black" cx="1045.6" cy="-2" rx="1.8" ry="1.8"/>
</g>
<!-- p45&#45;&gt;p46 -->
<g id="edge52" class="edge"><title>p45&#45;&gt;p46</title>
<path fill="none" stroke="black" d="M1045.6,-41.8939C1045.6,-32.8876 1045.6,-22.0999 1045.6,-14.1727"/>
<polygon fill="black" stroke="black" points="1049.1,-13.9957 1045.6,-3.99575 1042.1,-13.9958 1049.1,-13.9957"/>
</g>
<!-- p42 -->
<g id="node45" class="node"><title>p42</title>
<ellipse fill="black" stroke="black" cx="1016.6" cy="-148" rx="3.6" ry="3.6"/>
</g>
<!-- p42&#45;&gt;p45 -->
<g id="edge49" class="edge"><title>p42&#45;&gt;p45</title>
<path fill="none" stroke="black" d="M1016.03,-144.12C1014.59,-136.163 1011.33,-113.321 1017.6,-96 1018.8,-92.6798 1020.46,-89.437 1022.37,-86.3485"/>
<polygon fill="black" stroke="black" points="1025.28,-88.2849 1028.26,-78.1167 1019.59,-84.2094 1025.28,-88.2849"/>
<text text-anchor="middle" x="1036.1" y="-100.3" font-family="Times,serif" font-size="14.00">meta</text>
</g>
<!-- p43 -->
<g id="node46" class="node"><title>p43</title>
<ellipse fill="black" stroke="black" cx="1076.6" cy="-148" rx="3.6" ry="3.6"/>
</g>
<!-- p43&#45;&gt;p45 -->
<g id="edge50" class="edge"><title>p43&#45;&gt;p45</title>
<path fill="none" stroke="black" d="M1075.57,-144.139C1072.43,-135.422 1062.73,-108.523 1055.21,-87.6566"/>
<polygon fill="black" stroke="black" points="1058.41,-86.2243 1051.73,-78.0037 1051.83,-88.5981 1058.41,-86.2243"/>
<text text-anchor="middle" x="1084.6" y="-100.3" font-family="Times,serif" font-size="14.00">name</text>
</g>
<!-- p44 -->
<g id="node47" class="node"><title>p44</title>
<ellipse fill="black" stroke="black" cx="1139.6" cy="-148" rx="3.6" ry="3.6"/>
</g>
<!-- p44&#45;&gt;p45 -->
<g id="edge51" class="edge"><title>p44&#45;&gt;p45</title>
<path fill="none" stroke="black" d="M1138.57,-144.348C1135.3,-136.209 1124.43,-111.226 1108.6,-96 1103.69,-91.2801 1098.02,-86.9852 1092.14,-83.1479"/>
<polygon fill="black" stroke="black" points="1093.79,-80.057 1083.43,-77.8571 1090.16,-86.0399 1093.79,-80.057"/>
<text text-anchor="middle" x="1162.6" y="-100.3" font-family="Times,serif" font-size="14.00">description</text>
</g>
<!-- p51 -->
<g id="node51" class="node"><title>p51</title>
<ellipse fill="black" stroke="black" cx="1301.6" cy="-60" rx="1.8" ry="1.8"/>
</g>
<!-- p49&#45;&gt;p51 -->
<g id="edge55" class="edge"><title>p49&#45;&gt;p51</title>
<path fill="none" stroke="black" d="M1309.8,-129.816C1306.9,-124.329 1304.14,-118.095 1302.6,-112 1299.26,-98.7769 1299.58,-83.0071 1300.36,-72.5397"/>
<polygon fill="black" stroke="black" points="1303.87,-72.5958 1301.42,-62.2898 1296.91,-71.8786 1303.87,-72.5958"/>
<text text-anchor="middle" x="1313.6" y="-100.3" font-family="Times,serif" font-size="14.00">zip</text>
</g>
<!-- p50 -->
<g id="node52" class="node"><title>p50</title>
<ellipse fill="black" stroke="black" cx="1338.6" cy="-60" rx="1.8" ry="1.8"/>
</g>
<!-- p49&#45;&gt;p50 -->
<g id="edge56" class="edge"><title>p49&#45;&gt;p50</title>
<path fill="none" stroke="black" d="M1324.24,-129.597C1327.85,-112.339 1333.28,-86.4315 1336.32,-71.8949"/>
<polygon fill="black" stroke="black" points="1339.75,-72.6001 1338.37,-62.0952 1332.9,-71.166 1339.75,-72.6001"/>
</g>
<!-- p48 -->
<g id="node50" class="node"><title>p48</title>
<ellipse fill="black" stroke="black" cx="1320.6" cy="-222" rx="3.6" ry="3.6"/>
</g>
<!-- p48&#45;&gt;p49 -->
<g id="edge54" class="edge"><title>p48&#45;&gt;p49</title>
<path fill="none" stroke="black" d="M1320.6,-218.265C1320.6,-211.354 1320.6,-192.578 1320.6,-176.316"/>
<polygon fill="black" stroke="black" points="1324.1,-176.143 1320.6,-166.143 1317.1,-176.143 1324.1,-176.143"/>
<text text-anchor="middle" x="1339.1" y="-188.3" font-family="Times,serif" font-size="14.00">meta</text>
</g>
</g>
</svg>
