<?xml version="1.0" encoding="UTF-8" standalone="no"?>
<!DOCTYPE svg PUBLIC "-//W3C//DTD SVG 1.1//EN"
 "http://www.w3.org/Graphics/SVG/1.1/DTD/svg11.dtd">
<!-- Generated by graphviz version 2.30.1 (20201013.1554)
 -->
<!-- Title: 20220909rotavirusplotcovworkflow Pages: 1 -->
<svg width="1478pt" height="1228pt"
 viewBox="0.00 0.00 1478.00 1228.00" xmlns="http://www.w3.org/2000/svg" xmlns:xlink="http://www.w3.org/1999/xlink">
<g id="graph0" class="graph" transform="scale(1 1) rotate(0) translate(4 1224)">
<title>20220909rotavirusplotcovworkflow</title>
<polygon fill="white" stroke="white" points="-4,5 -4,-1224 1475,-1224 1475,5 -4,5"/>
<!-- p0 -->
<g id="node1" class="node"><title>p0</title>
<ellipse fill="black" stroke="black" cx="983" cy="-666" rx="3.6" ry="3.6"/>
<text text-anchor="middle" x="1033.9" y="-673.4" font-family="Times,serif" font-size="14.00">Channel.empty</text>
</g>
<!-- p5 -->
<g id="node2" class="node"><title>p5</title>
<ellipse fill="none" stroke="black" cx="771" cy="-578" rx="3.25" ry="3.5"/>
<text text-anchor="middle" x="754" y="-585.3" font-family="Times,serif" font-size="14.00">mix</text>
</g>
<!-- p0&#45;&gt;p5 -->
<g id="edge1" class="edge"><title>p0&#45;&gt;p5</title>
<path fill="none" stroke="black" d="M981.568,-662.136C979.522,-658.337 975.404,-651.682 970,-648 900.479,-600.629 860.506,-638.662 788,-596 784.897,-594.174 781.956,-591.649 779.419,-589.103"/>
<polygon fill="black" stroke="black" points="781.899,-586.621 772.707,-581.354 776.608,-591.204 781.899,-586.621"/>
<text text-anchor="middle" x="973" y="-618.3" font-family="Times,serif" font-size="14.00">version_ch</text>
</g>
<!-- p27 -->
<g id="node8" class="node"><title>p27</title>
<ellipse fill="none" stroke="black" cx="771" cy="-490" rx="3.25" ry="3.5"/>
<text text-anchor="middle" x="754" y="-497.3" font-family="Times,serif" font-size="14.00">mix</text>
</g>
<!-- p5&#45;&gt;p27 -->
<g id="edge7" class="edge"><title>p5&#45;&gt;p27</title>
<path fill="none" stroke="black" d="M771,-574.139C771,-563.281 771,-524.206 771,-503.727"/>
<polygon fill="black" stroke="black" points="774.5,-503.615 771,-493.615 767.5,-503.615 774.5,-503.615"/>
<text text-anchor="middle" x="810" y="-530.3" font-family="Times,serif" font-size="14.00">version_ch</text>
</g>
<!-- p1 -->
<g id="node3" class="node"><title>p1</title>
<ellipse fill="black" stroke="black" cx="704" cy="-740" rx="3.6" ry="3.6"/>
</g>
<!-- p3 -->
<g id="node4" class="node"><title>p3</title>
<ellipse fill="none" stroke="black" cx="734" cy="-666" rx="227.22" ry="18"/>
<text text-anchor="middle" x="734" y="-662.3" font-family="Times,serif" font-size="14.00">PLOT_COVERAGE_01:DOWNLOAD_GFF3_01</text>
</g>
<!-- p1&#45;&gt;p3 -->
<g id="edge2" class="edge"><title>p1&#45;&gt;p3</title>
<path fill="none" stroke="black" d="M703.474,-736.19C702.412,-729.846 700.479,-714.03 705,-702 706.26,-698.648 707.984,-695.385 709.968,-692.284"/>
<polygon fill="black" stroke="black" points="712.938,-694.156 716.081,-684.038 707.314,-689.987 712.938,-694.156"/>
<text text-anchor="middle" x="723.5" y="-706.3" font-family="Times,serif" font-size="14.00">meta</text>
</g>
<!-- p38 -->
<g id="node6" class="node"><title>p38</title>
<ellipse fill="none" stroke="black" cx="241" cy="-490" rx="209.397" ry="18"/>
<text text-anchor="middle" x="241" y="-486.3" font-family="Times,serif" font-size="14.00">PLOT_COVERAGE_01:DRAW_COVERAGE</text>
</g>
<!-- p3&#45;&gt;p38 -->
<g id="edge4" class="edge"><title>p3&#45;&gt;p38</title>
<path fill="none" stroke="black" d="M686.729,-648.316C595.533,-616.129 395.674,-545.591 297.581,-510.97"/>
<polygon fill="black" stroke="black" points="298.723,-507.661 288.128,-507.633 296.393,-514.262 298.723,-507.661"/>
</g>
<!-- p4 -->
<g id="node7" class="node"><title>p4</title>
<ellipse fill="black" stroke="black" cx="734" cy="-578" rx="1.8" ry="1.8"/>
</g>
<!-- p3&#45;&gt;p4 -->
<g id="edge5" class="edge"><title>p3&#45;&gt;p4</title>
<path fill="none" stroke="black" d="M734,-647.597C734,-630.516 734,-604.965 734,-590.348"/>
<polygon fill="black" stroke="black" points="737.5,-590.095 734,-580.095 730.5,-590.095 737.5,-590.095"/>
</g>
<!-- p3&#45;&gt;p5 -->
<g id="edge6" class="edge"><title>p3&#45;&gt;p5</title>
<path fill="none" stroke="black" d="M741.31,-648.009C748.55,-631.182 759.451,-605.843 765.834,-591.007"/>
<polygon fill="black" stroke="black" points="769.216,-592.002 769.953,-581.432 762.786,-589.235 769.216,-592.002"/>
</g>
<!-- p2 -->
<g id="node5" class="node"><title>p2</title>
<ellipse fill="black" stroke="black" cx="764" cy="-740" rx="3.6" ry="3.6"/>
</g>
<!-- p2&#45;&gt;p3 -->
<g id="edge3" class="edge"><title>p2&#45;&gt;p3</title>
<path fill="none" stroke="black" d="M762.861,-736.265C759.926,-729.222 751.858,-709.859 744.996,-693.39"/>
<polygon fill="black" stroke="black" points="748.22,-692.027 741.143,-684.143 741.758,-694.72 748.22,-692.027"/>
<text text-anchor="middle" x="790" y="-706.3" font-family="Times,serif" font-size="14.00">reference</text>
</g>
<!-- p40 -->
<g id="node41" class="node"><title>p40</title>
<ellipse fill="none" stroke="black" cx="241" cy="-416" rx="3.25" ry="3.5"/>
<text text-anchor="middle" x="222" y="-423.3" font-family="Times,serif" font-size="14.00">map</text>
</g>
<!-- p38&#45;&gt;p40 -->
<g id="edge44" class="edge"><title>p38&#45;&gt;p40</title>
<path fill="none" stroke="black" d="M241,-471.937C241,-459.126 241,-441.843 241,-430.107"/>
<polygon fill="black" stroke="black" points="244.5,-429.748 241,-419.748 237.5,-429.748 244.5,-429.748"/>
</g>
<!-- p39 -->
<g id="node37" class="node"><title>p39</title>
<ellipse fill="none" stroke="black" cx="475" cy="-356" rx="3.25" ry="3.5"/>
<text text-anchor="middle" x="458" y="-363.3" font-family="Times,serif" font-size="14.00">mix</text>
</g>
<!-- p38&#45;&gt;p39 -->
<g id="edge45" class="edge"><title>p38&#45;&gt;p39</title>
<path fill="none" stroke="black" d="M271.112,-472.014C323.457,-442.486 428.959,-382.972 463.655,-363.4"/>
<polygon fill="black" stroke="black" points="465.538,-366.356 472.528,-358.394 462.099,-360.259 465.538,-366.356"/>
</g>
<!-- p32 -->
<g id="node31" class="node"><title>p32</title>
<ellipse fill="none" stroke="black" cx="479" cy="-416" rx="3.25" ry="3.5"/>
<text text-anchor="middle" x="462" y="-423.3" font-family="Times,serif" font-size="14.00">mix</text>
</g>
<!-- p27&#45;&gt;p32 -->
<g id="edge32" class="edge"><title>p27&#45;&gt;p32</title>
<path fill="none" stroke="black" d="M768.11,-488.287C741.845,-481.811 544.211,-433.08 491.752,-420.144"/>
<polygon fill="black" stroke="black" points="492.461,-416.714 481.914,-417.718 490.785,-423.511 492.461,-416.714"/>
<text text-anchor="middle" x="664" y="-442.3" font-family="Times,serif" font-size="14.00">version_ch</text>
</g>
<!-- p6 -->
<g id="node9" class="node"><title>p6</title>
<ellipse fill="black" stroke="black" cx="1238" cy="-1142" rx="3.6" ry="3.6"/>
<text text-anchor="middle" x="1288.9" y="-1149.4" font-family="Times,serif" font-size="14.00">Channel.empty</text>
</g>
<!-- p10 -->
<g id="node10" class="node"><title>p10</title>
<ellipse fill="none" stroke="black" cx="1238" cy="-1068" rx="3.25" ry="3.5"/>
<text text-anchor="middle" x="1221" y="-1075.3" font-family="Times,serif" font-size="14.00">mix</text>
</g>
<!-- p6&#45;&gt;p10 -->
<g id="edge8" class="edge"><title>p6&#45;&gt;p10</title>
<path fill="none" stroke="black" d="M1238,-1138.27C1238,-1129.13 1238,-1099.28 1238,-1081.89"/>
<polygon fill="black" stroke="black" points="1241.5,-1081.74 1238,-1071.74 1234.5,-1081.74 1241.5,-1081.74"/>
<text text-anchor="middle" x="1277" y="-1094.3" font-family="Times,serif" font-size="14.00">version_ch</text>
</g>
<!-- p17 -->
<g id="node15" class="node"><title>p17</title>
<ellipse fill="none" stroke="black" cx="1233" cy="-888" rx="3.25" ry="3.5"/>
<text text-anchor="middle" x="1216" y="-895.3" font-family="Times,serif" font-size="14.00">mix</text>
</g>
<!-- p10&#45;&gt;p17 -->
<g id="edge13" class="edge"><title>p10&#45;&gt;p17</title>
<path fill="none" stroke="black" d="M1237.93,-1064.48C1237.43,-1046.72 1234.43,-939.83 1233.37,-902.142"/>
<polygon fill="black" stroke="black" points="1236.85,-901.578 1233.08,-891.681 1229.86,-901.775 1236.85,-901.578"/>
<text text-anchor="middle" x="1275" y="-988.3" font-family="Times,serif" font-size="14.00">version_ch</text>
</g>
<!-- p7 -->
<g id="node11" class="node"><title>p7</title>
<ellipse fill="black" stroke="black" cx="883" cy="-1216" rx="3.6" ry="3.6"/>
</g>
<!-- p9 -->
<g id="node12" class="node"><title>p9</title>
<ellipse fill="none" stroke="black" cx="913" cy="-1142" rx="303.285" ry="18"/>
<text text-anchor="middle" x="913" y="-1138.3" font-family="Times,serif" font-size="14.00">PLOT_COVERAGE_01:SAMTOOLS_SAMPLES_01:SQRT_FILE</text>
</g>
<!-- p7&#45;&gt;p9 -->
<g id="edge9" class="edge"><title>p7&#45;&gt;p9</title>
<path fill="none" stroke="black" d="M882.474,-1212.19C881.412,-1205.85 879.479,-1190.03 884,-1178 885.26,-1174.65 886.984,-1171.39 888.968,-1168.28"/>
<polygon fill="black" stroke="black" points="891.938,-1170.16 895.081,-1160.04 886.314,-1165.99 891.938,-1170.16"/>
<text text-anchor="middle" x="902.5" y="-1182.3" font-family="Times,serif" font-size="14.00">meta</text>
</g>
<!-- p11 -->
<g id="node14" class="node"><title>p11</title>
<ellipse fill="none" stroke="black" cx="911" cy="-1068" rx="3.25" ry="3.5"/>
<text text-anchor="middle" x="875.5" y="-1075.3" font-family="Times,serif" font-size="14.00">splitText</text>
</g>
<!-- p9&#45;&gt;p11 -->
<g id="edge11" class="edge"><title>p9&#45;&gt;p11</title>
<path fill="none" stroke="black" d="M912.526,-1123.94C912.17,-1111.13 911.69,-1093.84 911.364,-1082.11"/>
<polygon fill="black" stroke="black" points="914.853,-1081.65 911.076,-1071.75 907.855,-1081.84 914.853,-1081.65"/>
</g>
<!-- p9&#45;&gt;p10 -->
<g id="edge12" class="edge"><title>p9&#45;&gt;p10</title>
<path fill="none" stroke="black" d="M987.562,-1124.48C1066.87,-1106.91 1186.16,-1080.48 1225.17,-1071.84"/>
<polygon fill="black" stroke="black" points="1225.99,-1075.25 1235,-1069.66 1224.48,-1068.41 1225.99,-1075.25"/>
</g>
<!-- p8 -->
<g id="node13" class="node"><title>p8</title>
<ellipse fill="black" stroke="black" cx="943" cy="-1216" rx="3.6" ry="3.6"/>
</g>
<!-- p8&#45;&gt;p9 -->
<g id="edge10" class="edge"><title>p8&#45;&gt;p9</title>
<path fill="none" stroke="black" d="M941.861,-1212.27C938.926,-1205.22 930.858,-1185.86 923.996,-1169.39"/>
<polygon fill="black" stroke="black" points="927.22,-1168.03 920.143,-1160.14 920.758,-1170.72 927.22,-1168.03"/>
<text text-anchor="middle" x="952.5" y="-1182.3" font-family="Times,serif" font-size="14.00">filein</text>
</g>
<!-- p12 -->
<g id="node16" class="node"><title>p12</title>
<ellipse fill="none" stroke="black" cx="906" cy="-1022" rx="3.25" ry="3.5"/>
<text text-anchor="middle" x="887" y="-1029.3" font-family="Times,serif" font-size="14.00">map</text>
</g>
<!-- p11&#45;&gt;p12 -->
<g id="edge14" class="edge"><title>p11&#45;&gt;p12</title>
<path fill="none" stroke="black" d="M910.702,-1064.38C910.075,-1058.86 908.584,-1045.74 907.448,-1035.74"/>
<polygon fill="black" stroke="black" points="910.897,-1035.09 906.29,-1025.55 903.942,-1035.88 910.897,-1035.09"/>
</g>
<!-- p21 -->
<g id="node22" class="node"><title>p21</title>
<ellipse fill="none" stroke="black" cx="1231" cy="-740" rx="3.25" ry="3.5"/>
<text text-anchor="middle" x="1214" y="-747.3" font-family="Times,serif" font-size="14.00">mix</text>
</g>
<!-- p17&#45;&gt;p21 -->
<g id="edge21" class="edge"><title>p17&#45;&gt;p21</title>
<path fill="none" stroke="black" d="M1232.97,-884.466C1232.75,-868.891 1231.61,-785.746 1231.17,-753.652"/>
<polygon fill="black" stroke="black" points="1234.67,-753.555 1231.04,-743.604 1227.67,-753.651 1234.67,-753.555"/>
<text text-anchor="middle" x="1271" y="-810.3" font-family="Times,serif" font-size="14.00">version_ch</text>
</g>
<!-- p16 -->
<g id="node17" class="node"><title>p16</title>
<ellipse fill="none" stroke="black" cx="905" cy="-948" rx="307.134" ry="18"/>
<text text-anchor="middle" x="905" y="-944.3" font-family="Times,serif" font-size="14.00">PLOT_COVERAGE_01:SAMTOOLS_SAMPLES_01:ST_SAMPLE</text>
</g>
<!-- p12&#45;&gt;p16 -->
<g id="edge15" class="edge"><title>p12&#45;&gt;p16</title>
<path fill="none" stroke="black" d="M905.962,-1018.27C905.866,-1011.35 905.605,-992.578 905.379,-976.316"/>
<polygon fill="black" stroke="black" points="908.877,-976.093 905.238,-966.143 901.877,-976.191 908.877,-976.093"/>
<text text-anchor="middle" x="940" y="-988.3" font-family="Times,serif" font-size="14.00">chunk_ch</text>
</g>
<!-- p18 -->
<g id="node21" class="node"><title>p18</title>
<ellipse fill="none" stroke="black" cx="905" cy="-888" rx="3.25" ry="3.5"/>
<text text-anchor="middle" x="877" y="-895.3" font-family="Times,serif" font-size="14.00">collect</text>
</g>
<!-- p16&#45;&gt;p18 -->
<g id="edge19" class="edge"><title>p16&#45;&gt;p18</title>
<path fill="none" stroke="black" d="M905,-929.912C905,-920.965 905,-910.187 905,-901.94"/>
<polygon fill="black" stroke="black" points="908.5,-901.691 905,-891.691 901.5,-901.691 908.5,-901.691"/>
</g>
<!-- p16&#45;&gt;p17 -->
<g id="edge20" class="edge"><title>p16&#45;&gt;p17</title>
<path fill="none" stroke="black" d="M996.802,-930.767C1075.8,-916.798 1182.71,-897.892 1219.73,-891.346"/>
<polygon fill="black" stroke="black" points="1220.79,-894.713 1230.03,-889.525 1219.58,-887.82 1220.79,-894.713"/>
</g>
<!-- p13 -->
<g id="node18" class="node"><title>p13</title>
<ellipse fill="black" stroke="black" cx="998" cy="-1022" rx="3.6" ry="3.6"/>
</g>
<!-- p13&#45;&gt;p16 -->
<g id="edge16" class="edge"><title>p13&#45;&gt;p16</title>
<path fill="none" stroke="black" d="M997.031,-1018.32C994.518,-1011.7 987.195,-994.349 976,-984 970.658,-979.061 964.489,-974.669 958.064,-970.807"/>
<polygon fill="black" stroke="black" points="959.637,-967.677 949.197,-965.869 956.231,-973.793 959.637,-967.677"/>
<text text-anchor="middle" x="1006.5" y="-988.3" font-family="Times,serif" font-size="14.00">meta</text>
</g>
<!-- p14 -->
<g id="node19" class="node"><title>p14</title>
<ellipse fill="black" stroke="black" cx="1058" cy="-1022" rx="3.6" ry="3.6"/>
</g>
<!-- p14&#45;&gt;p16 -->
<g id="edge17" class="edge"><title>p14&#45;&gt;p16</title>
<path fill="none" stroke="black" d="M1056.81,-1018.58C1053.43,-1011.97 1043.1,-993.453 1029,-984 1020.04,-977.992 1010.05,-973.006 999.744,-968.869"/>
<polygon fill="black" stroke="black" points="1000.8,-965.527 990.208,-965.304 998.349,-972.084 1000.8,-965.527"/>
<text text-anchor="middle" x="1079" y="-988.3" font-family="Times,serif" font-size="14.00">reference</text>
</g>
<!-- p15 -->
<g id="node20" class="node"><title>p15</title>
<ellipse fill="black" stroke="black" cx="805" cy="-1022" rx="3.6" ry="3.6"/>
</g>
<!-- p15&#45;&gt;p16 -->
<g id="edge18" class="edge"><title>p15&#45;&gt;p16</title>
<path fill="none" stroke="black" d="M805.702,-1018.29C807.565,-1011.58 813.243,-994.064 824,-984 829.46,-978.891 835.783,-974.458 842.442,-970.629"/>
<polygon fill="black" stroke="black" points="844.455,-973.525 851.679,-965.775 841.199,-967.328 844.455,-973.525"/>
<text text-anchor="middle" x="862.5" y="-988.3" font-family="Times,serif" font-size="14.00">references</text>
</g>
<!-- p20 -->
<g id="node23" class="node"><title>p20</title>
<ellipse fill="none" stroke="black" cx="911" cy="-814" rx="285.462" ry="18"/>
<text text-anchor="middle" x="911" y="-810.3" font-family="Times,serif" font-size="14.00">PLOT_COVERAGE_01:SAMTOOLS_SAMPLES_01:DIGEST</text>
</g>
<!-- p18&#45;&gt;p20 -->
<g id="edge22" class="edge"><title>p18&#45;&gt;p20</title>
<path fill="none" stroke="black" d="M905.228,-884.265C905.804,-877.354 907.368,-858.578 908.724,-842.316"/>
<polygon fill="black" stroke="black" points="912.229,-842.399 909.571,-832.143 905.253,-841.818 912.229,-842.399"/>
</g>
<!-- p22 -->
<g id="node26" class="node"><title>p22</title>
<ellipse fill="none" stroke="black" cx="1231" cy="-666" rx="3.25" ry="3.5"/>
<text text-anchor="middle" x="1203" y="-673.3" font-family="Times,serif" font-size="14.00">collect</text>
</g>
<!-- p21&#45;&gt;p22 -->
<g id="edge26" class="edge"><title>p21&#45;&gt;p22</title>
<path fill="none" stroke="black" d="M1231,-736.265C1231,-727.133 1231,-697.282 1231,-679.892"/>
<polygon fill="black" stroke="black" points="1234.5,-679.737 1231,-669.737 1227.5,-679.737 1234.5,-679.737"/>
<text text-anchor="middle" x="1270" y="-706.3" font-family="Times,serif" font-size="14.00">version_ch</text>
</g>
<!-- p34 -->
<g id="node25" class="node"><title>p34</title>
<ellipse fill="none" stroke="black" cx="620" cy="-740" rx="3.25" ry="3.5"/>
<text text-anchor="middle" x="587" y="-747.3" font-family="Times,serif" font-size="14.00">splitCsv</text>
</g>
<!-- p20&#45;&gt;p34 -->
<g id="edge24" class="edge"><title>p20&#45;&gt;p34</title>
<path fill="none" stroke="black" d="M844.239,-796.482C774.298,-779.177 669.622,-753.277 633.117,-744.246"/>
<polygon fill="black" stroke="black" points="633.492,-740.733 622.944,-741.728 631.81,-747.528 633.492,-740.733"/>
<text text-anchor="middle" x="789" y="-766.3" font-family="Times,serif" font-size="14.00">output</text>
</g>
<!-- p20&#45;&gt;p21 -->
<g id="edge25" class="edge"><title>p20&#45;&gt;p21</title>
<path fill="none" stroke="black" d="M984.013,-796.572C1061.91,-779.046 1179.31,-752.629 1218.08,-743.908"/>
<polygon fill="black" stroke="black" points="1219.05,-747.277 1228.04,-741.667 1217.51,-740.447 1219.05,-747.277"/>
</g>
<!-- p19 -->
<g id="node24" class="node"><title>p19</title>
<ellipse fill="black" stroke="black" cx="938" cy="-888" rx="3.6" ry="3.6"/>
</g>
<!-- p19&#45;&gt;p20 -->
<g id="edge23" class="edge"><title>p19&#45;&gt;p20</title>
<path fill="none" stroke="black" d="M936.975,-884.265C934.358,-877.288 927.207,-858.219 921.07,-841.852"/>
<polygon fill="black" stroke="black" points="924.217,-840.277 917.429,-832.143 917.663,-842.735 924.217,-840.277"/>
<text text-anchor="middle" x="948.5" y="-854.3" font-family="Times,serif" font-size="14.00">meta</text>
</g>
<!-- p35 -->
<g id="node38" class="node"><title>p35</title>
<ellipse fill="none" stroke="black" cx="420" cy="-666" rx="3.25" ry="3.5"/>
<text text-anchor="middle" x="386" y="-673.3" font-family="Times,serif" font-size="14.00">combine</text>
</g>
<!-- p34&#45;&gt;p35 -->
<g id="edge40" class="edge"><title>p34&#45;&gt;p35</title>
<path fill="none" stroke="black" d="M617.173,-737.982C596.822,-730.656 472.353,-685.847 432.361,-671.45"/>
<polygon fill="black" stroke="black" points="433.32,-668.075 422.725,-667.981 430.949,-674.661 433.32,-668.075"/>
<text text-anchor="middle" x="582.5" y="-706.3" font-family="Times,serif" font-size="14.00">c2_ch</text>
</g>
<!-- p26 -->
<g id="node27" class="node"><title>p26</title>
<ellipse fill="none" stroke="black" cx="1134" cy="-578" rx="336.505" ry="18"/>
<text text-anchor="middle" x="1134" y="-574.3" font-family="Times,serif" font-size="14.00">PLOT_COVERAGE_01:SAMTOOLS_SAMPLES_01:MERGE_VERSION</text>
</g>
<!-- p22&#45;&gt;p26 -->
<g id="edge27" class="edge"><title>p22&#45;&gt;p26</title>
<path fill="none" stroke="black" d="M1231.04,-662.295C1231.01,-654.007 1229.83,-628.636 1217,-614 1212.57,-608.944 1207.28,-604.598 1201.55,-600.868"/>
<polygon fill="black" stroke="black" points="1203.3,-597.835 1192.9,-595.832 1199.78,-603.885 1203.3,-597.835"/>
</g>
<!-- p26&#45;&gt;p27 -->
<g id="edge31" class="edge"><title>p26&#45;&gt;p27</title>
<path fill="none" stroke="black" d="M1063.58,-560.316C974.632,-539.243 827.853,-504.469 783.852,-494.045"/>
<polygon fill="black" stroke="black" points="784.518,-490.606 773.981,-491.706 782.905,-497.417 784.518,-490.606"/>
</g>
<!-- p23 -->
<g id="node28" class="node"><title>p23</title>
<ellipse fill="black" stroke="black" cx="1264" cy="-666" rx="3.6" ry="3.6"/>
</g>
<!-- p23&#45;&gt;p26 -->
<g id="edge28" class="edge"><title>p23&#45;&gt;p26</title>
<path fill="none" stroke="black" d="M1263.2,-662.222C1260.6,-653.721 1251.6,-627.806 1235,-614 1228.44,-608.542 1220.97,-603.915 1213.14,-599.998"/>
<polygon fill="black" stroke="black" points="1214.36,-596.706 1203.81,-595.717 1211.44,-603.068 1214.36,-596.706"/>
<text text-anchor="middle" x="1266.5" y="-618.3" font-family="Times,serif" font-size="14.00">meta</text>
</g>
<!-- p24 -->
<g id="node29" class="node"><title>p24</title>
<ellipse fill="black" stroke="black" cx="1071" cy="-666" rx="3.6" ry="3.6"/>
</g>
<!-- p24&#45;&gt;p26 -->
<g id="edge29" class="edge"><title>p24&#45;&gt;p26</title>
<path fill="none" stroke="black" d="M1071.54,-661.971C1073.13,-653.633 1078.46,-629.907 1090,-614 1092.86,-610.06 1096.27,-606.326 1099.92,-602.869"/>
<polygon fill="black" stroke="black" points="1102.37,-605.38 1107.62,-596.181 1097.78,-600.094 1102.37,-605.38"/>
<text text-anchor="middle" x="1110" y="-618.3" font-family="Times,serif" font-size="14.00">name</text>
</g>
<!-- p25 -->
<g id="node30" class="node"><title>p25</title>
<ellipse fill="black" stroke="black" cx="1134" cy="-666" rx="3.6" ry="3.6"/>
</g>
<!-- p25&#45;&gt;p26 -->
<g id="edge30" class="edge"><title>p25&#45;&gt;p26</title>
<path fill="none" stroke="black" d="M1134,-662.139C1134,-653.502 1134,-627.011 1134,-606.227"/>
<polygon fill="black" stroke="black" points="1137.5,-606.004 1134,-596.004 1130.5,-606.004 1137.5,-606.004"/>
<text text-anchor="middle" x="1175" y="-618.3" font-family="Times,serif" font-size="14.00">description</text>
</g>
<!-- p32&#45;&gt;p39 -->
<g id="edge38" class="edge"><title>p32&#45;&gt;p39</title>
<path fill="none" stroke="black" d="M478.807,-412.203C478.286,-404.649 476.826,-383.48 475.873,-369.66"/>
<polygon fill="black" stroke="black" points="479.362,-369.371 475.182,-359.636 472.378,-369.853 479.362,-369.371"/>
<text text-anchor="middle" x="517" y="-382.3" font-family="Times,serif" font-size="14.00">version_ch</text>
</g>
<!-- p28 -->
<g id="node32" class="node"><title>p28</title>
<ellipse fill="black" stroke="black" cx="470" cy="-888" rx="3.6" ry="3.6"/>
</g>
<!-- p31 -->
<g id="node33" class="node"><title>p31</title>
<ellipse fill="none" stroke="black" cx="420" cy="-814" rx="186.3" ry="18"/>
<text text-anchor="middle" x="420" y="-810.3" font-family="Times,serif" font-size="14.00">PLOT_COVERAGE_01:EXTEND_BED</text>
</g>
<!-- p28&#45;&gt;p31 -->
<g id="edge33" class="edge"><title>p28&#45;&gt;p31</title>
<path fill="none" stroke="black" d="M468.72,-884.592C465.496,-878.587 456.679,-862.534 448,-850 445.723,-846.711 443.231,-843.332 440.703,-840.031"/>
<polygon fill="black" stroke="black" points="443.381,-837.775 434.445,-832.084 437.882,-842.106 443.381,-837.775"/>
<text text-anchor="middle" x="477.5" y="-854.3" font-family="Times,serif" font-size="14.00">meta</text>
</g>
<!-- p33 -->
<g id="node36" class="node"><title>p33</title>
<ellipse fill="none" stroke="black" cx="420" cy="-740" rx="3.25" ry="3.5"/>
<text text-anchor="middle" x="387" y="-747.3" font-family="Times,serif" font-size="14.00">splitCsv</text>
</g>
<!-- p31&#45;&gt;p33 -->
<g id="edge36" class="edge"><title>p31&#45;&gt;p33</title>
<path fill="none" stroke="black" d="M420,-795.937C420,-783.126 420,-765.843 420,-754.107"/>
<polygon fill="black" stroke="black" points="423.5,-753.748 420,-743.748 416.5,-753.748 423.5,-753.748"/>
</g>
<!-- p31&#45;&gt;p32 -->
<g id="edge37" class="edge"><title>p31&#45;&gt;p32</title>
<path fill="none" stroke="black" d="M445.364,-795.984C461.355,-783.037 479,-763.625 479,-741 479,-741 479,-741 479,-489 479,-468.328 479,-444.318 479,-429.909"/>
<polygon fill="black" stroke="black" points="482.5,-429.747 479,-419.747 475.5,-429.747 482.5,-429.747"/>
</g>
<!-- p29 -->
<g id="node34" class="node"><title>p29</title>
<ellipse fill="black" stroke="black" cx="327" cy="-888" rx="3.6" ry="3.6"/>
</g>
<!-- p29&#45;&gt;p31 -->
<g id="edge34" class="edge"><title>p29&#45;&gt;p31</title>
<path fill="none" stroke="black" d="M327.723,-884.308C329.635,-877.657 335.415,-860.245 346,-850 351.336,-844.836 357.576,-840.321 364.129,-836.407"/>
<polygon fill="black" stroke="black" points="366.115,-839.31 373.204,-831.436 362.752,-833.171 366.115,-839.31"/>
<text text-anchor="middle" x="381" y="-854.3" font-family="Times,serif" font-size="14.00">reference</text>
</g>
<!-- p30 -->
<g id="node35" class="node"><title>p30</title>
<ellipse fill="black" stroke="black" cx="420" cy="-888" rx="3.6" ry="3.6"/>
</g>
<!-- p30&#45;&gt;p31 -->
<g id="edge35" class="edge"><title>p30&#45;&gt;p31</title>
<path fill="none" stroke="black" d="M420,-884.265C420,-877.354 420,-858.578 420,-842.316"/>
<polygon fill="black" stroke="black" points="423.5,-842.143 420,-832.143 416.5,-842.143 423.5,-842.143"/>
<text text-anchor="middle" x="433.5" y="-854.3" font-family="Times,serif" font-size="14.00">bed</text>
</g>
<!-- p33&#45;&gt;p35 -->
<g id="edge39" class="edge"><title>p33&#45;&gt;p35</title>
<path fill="none" stroke="black" d="M420,-736.265C420,-727.133 420,-697.282 420,-679.892"/>
<polygon fill="black" stroke="black" points="423.5,-679.737 420,-669.737 416.5,-679.737 423.5,-679.737"/>
<text text-anchor="middle" x="441.5" y="-706.3" font-family="Times,serif" font-size="14.00">c1_ch</text>
</g>
<!-- p44 -->
<g id="node42" class="node"><title>p44</title>
<ellipse fill="none" stroke="black" cx="475" cy="-222" rx="3.25" ry="3.5"/>
<text text-anchor="middle" x="458" y="-229.3" font-family="Times,serif" font-size="14.00">mix</text>
</g>
<!-- p39&#45;&gt;p44 -->
<g id="edge46" class="edge"><title>p39&#45;&gt;p44</title>
<path fill="none" stroke="black" d="M475,-352.243C475,-337.279 475,-265.397 475,-235.788"/>
<polygon fill="black" stroke="black" points="478.5,-235.742 475,-225.742 471.5,-235.742 478.5,-235.742"/>
<text text-anchor="middle" x="514" y="-278.3" font-family="Times,serif" font-size="14.00">version_ch</text>
</g>
<!-- p36 -->
<g id="node39" class="node"><title>p36</title>
<ellipse fill="none" stroke="black" cx="372" cy="-578" rx="3.25" ry="3.5"/>
<text text-anchor="middle" x="353" y="-585.3" font-family="Times,serif" font-size="14.00">map</text>
</g>
<!-- p35&#45;&gt;p36 -->
<g id="edge41" class="edge"><title>p35&#45;&gt;p36</title>
<path fill="none" stroke="black" d="M418.615,-662.519C412.728,-651.972 389.568,-610.476 378.268,-590.23"/>
<polygon fill="black" stroke="black" points="381.229,-588.354 373.299,-581.328 375.117,-591.766 381.229,-588.354"/>
</g>
<!-- p36&#45;&gt;p38 -->
<g id="edge42" class="edge"><title>p36&#45;&gt;p38</title>
<path fill="none" stroke="black" d="M369.264,-575.204C357.392,-567.41 309.418,-535.916 275.639,-513.74"/>
<polygon fill="black" stroke="black" points="277.24,-510.604 266.96,-508.042 273.398,-516.456 277.24,-510.604"/>
</g>
<!-- p37 -->
<g id="node40" class="node"><title>p37</title>
<ellipse fill="black" stroke="black" cx="241" cy="-578" rx="3.6" ry="3.6"/>
</g>
<!-- p37&#45;&gt;p38 -->
<g id="edge43" class="edge"><title>p37&#45;&gt;p38</title>
<path fill="none" stroke="black" d="M241,-574.139C241,-565.502 241,-539.011 241,-518.227"/>
<polygon fill="black" stroke="black" points="244.5,-518.004 241,-508.004 237.5,-518.004 244.5,-518.004"/>
<text text-anchor="middle" x="259.5" y="-530.3" font-family="Times,serif" font-size="14.00">meta</text>
</g>
<!-- p41 -->
<g id="node43" class="node"><title>p41</title>
<ellipse fill="none" stroke="black" cx="241" cy="-356" rx="3.25" ry="3.5"/>
<text text-anchor="middle" x="196" y="-363.3" font-family="Times,serif" font-size="14.00">groupTuple</text>
</g>
<!-- p40&#45;&gt;p41 -->
<g id="edge47" class="edge"><title>p40&#45;&gt;p41</title>
<path fill="none" stroke="black" d="M241,-412.203C241,-404.649 241,-383.48 241,-369.66"/>
<polygon fill="black" stroke="black" points="244.5,-369.636 241,-359.636 237.5,-369.636 244.5,-369.636"/>
<text text-anchor="middle" x="299" y="-382.3" font-family="Times,serif" font-size="14.00">input_merge_ch</text>
</g>
<!-- p45 -->
<g id="node47" class="node"><title>p45</title>
<ellipse fill="none" stroke="black" cx="495" cy="-148" rx="3.25" ry="3.5"/>
<text text-anchor="middle" x="467" y="-155.3" font-family="Times,serif" font-size="14.00">collect</text>
</g>
<!-- p44&#45;&gt;p45 -->
<g id="edge52" class="edge"><title>p44&#45;&gt;p45</title>
<path fill="none" stroke="black" d="M475.76,-218.265C478.332,-209.005 486.82,-178.446 491.619,-161.172"/>
<polygon fill="black" stroke="black" points="495.019,-162.009 494.323,-151.437 488.274,-160.135 495.019,-162.009"/>
<text text-anchor="middle" x="524" y="-188.3" font-family="Times,serif" font-size="14.00">version_ch</text>
</g>
<!-- p43 -->
<g id="node44" class="node"><title>p43</title>
<ellipse fill="none" stroke="black" cx="248" cy="-282" rx="186.3" ry="18"/>
<text text-anchor="middle" x="248" y="-278.3" font-family="Times,serif" font-size="14.00">PLOT_COVERAGE_01:MERGE_PDFS</text>
</g>
<!-- p41&#45;&gt;p43 -->
<g id="edge48" class="edge"><title>p41&#45;&gt;p43</title>
<path fill="none" stroke="black" d="M241.266,-352.265C241.938,-345.354 243.763,-326.578 245.344,-310.316"/>
<polygon fill="black" stroke="black" points="248.849,-310.435 246.333,-300.143 241.882,-309.757 248.849,-310.435"/>
</g>
<!-- p51 -->
<g id="node46" class="node"><title>p51</title>
<ellipse fill="none" stroke="black" cx="163" cy="-222" rx="3.25" ry="3.5"/>
<text text-anchor="middle" x="135" y="-229.3" font-family="Times,serif" font-size="14.00">collect</text>
</g>
<!-- p43&#45;&gt;p51 -->
<g id="edge50" class="edge"><title>p43&#45;&gt;p51</title>
<path fill="none" stroke="black" d="M222.957,-263.912C206.595,-252.747 186.054,-238.731 173.757,-230.34"/>
<polygon fill="black" stroke="black" points="175.617,-227.372 165.384,-224.627 171.672,-233.155 175.617,-227.372"/>
</g>
<!-- p43&#45;&gt;p44 -->
<g id="edge51" class="edge"><title>p43&#45;&gt;p44</title>
<path fill="none" stroke="black" d="M310.63,-264.998C362.979,-251.622 433.532,-233.595 462.146,-226.284"/>
<polygon fill="black" stroke="black" points="463.304,-229.601 472.126,-223.734 461.571,-222.819 463.304,-229.601"/>
</g>
<!-- p42 -->
<g id="node45" class="node"><title>p42</title>
<ellipse fill="black" stroke="black" cx="274" cy="-356" rx="3.6" ry="3.6"/>
</g>
<!-- p42&#45;&gt;p43 -->
<g id="edge49" class="edge"><title>p42&#45;&gt;p43</title>
<path fill="none" stroke="black" d="M273.013,-352.265C270.493,-345.288 263.607,-326.219 257.697,-309.852"/>
<polygon fill="black" stroke="black" points="260.879,-308.36 254.19,-300.143 254.295,-310.737 260.879,-308.36"/>
<text text-anchor="middle" x="285.5" y="-322.3" font-family="Times,serif" font-size="14.00">meta</text>
</g>
<!-- p53 -->
<g id="node53" class="node"><title>p53</title>
<ellipse fill="none" stroke="black" cx="159" cy="-148" rx="159.354" ry="18"/>
<text text-anchor="middle" x="159" y="-144.3" font-family="Times,serif" font-size="14.00">PLOT_COVERAGE_01:ZIP_ALL</text>
</g>
<!-- p51&#45;&gt;p53 -->
<g id="edge58" class="edge"><title>p51&#45;&gt;p53</title>
<path fill="none" stroke="black" d="M162.848,-218.265C162.464,-211.354 161.421,-192.578 160.518,-176.316"/>
<polygon fill="black" stroke="black" points="164.002,-175.933 159.952,-166.143 157.013,-176.322 164.002,-175.933"/>
</g>
<!-- p49 -->
<g id="node48" class="node"><title>p49</title>
<ellipse fill="none" stroke="black" cx="455" cy="-60" rx="206.998" ry="18"/>
<text text-anchor="middle" x="455" y="-56.3" font-family="Times,serif" font-size="14.00">PLOT_COVERAGE_01:MERGE_VERSION</text>
</g>
<!-- p45&#45;&gt;p49 -->
<g id="edge53" class="edge"><title>p45&#45;&gt;p49</title>
<path fill="none" stroke="black" d="M495.027,-144.07C494.99,-135.983 494.131,-112.841 486,-96 484.35,-92.5826 482.269,-89.2462 479.969,-86.0751"/>
<polygon fill="black" stroke="black" points="482.536,-83.6839 473.517,-78.1251 477.101,-88.0952 482.536,-83.6839"/>
</g>
<!-- p50 -->
<g id="node52" class="node"><title>p50</title>
<ellipse fill="black" stroke="black" cx="455" cy="-2" rx="1.8" ry="1.8"/>
</g>
<!-- p49&#45;&gt;p50 -->
<g id="edge57" class="edge"><title>p49&#45;&gt;p50</title>
<path fill="none" stroke="black" d="M455,-41.8939C455,-32.8876 455,-22.0999 455,-14.1727"/>
<polygon fill="black" stroke="black" points="458.5,-13.9957 455,-3.99575 451.5,-13.9958 458.5,-13.9957"/>
</g>
<!-- p46 -->
<g id="node49" class="node"><title>p46</title>
<ellipse fill="black" stroke="black" cx="533" cy="-148" rx="3.6" ry="3.6"/>
</g>
<!-- p46&#45;&gt;p49 -->
<g id="edge54" class="edge"><title>p46&#45;&gt;p49</title>
<path fill="none" stroke="black" d="M531.942,-144.428C528.601,-136.522 517.624,-112.137 503,-96 499.234,-91.8445 494.903,-87.8753 490.416,-84.2007"/>
<polygon fill="black" stroke="black" points="492.32,-81.25 482.259,-77.928 488.052,-86.7987 492.32,-81.25"/>
<text text-anchor="middle" x="533.5" y="-100.3" font-family="Times,serif" font-size="14.00">meta</text>
</g>
<!-- p47 -->
<g id="node50" class="node"><title>p47</title>
<ellipse fill="black" stroke="black" cx="340" cy="-148" rx="3.6" ry="3.6"/>
</g>
<!-- p47&#45;&gt;p49 -->
<g id="edge55" class="edge"><title>p47&#45;&gt;p49</title>
<path fill="none" stroke="black" d="M339.793,-144.263C339.315,-135.883 339.038,-110.277 352,-96 357.106,-90.3762 363.15,-85.6557 369.71,-81.6933"/>
<polygon fill="black" stroke="black" points="371.779,-84.5559 378.938,-76.7463 368.471,-78.3865 371.779,-84.5559"/>
<text text-anchor="middle" x="372" y="-100.3" font-family="Times,serif" font-size="14.00">name</text>
</g>
<!-- p48 -->
<g id="node51" class="node"><title>p48</title>
<ellipse fill="black" stroke="black" cx="403" cy="-148" rx="3.6" ry="3.6"/>
</g>
<!-- p48&#45;&gt;p49 -->
<g id="edge56" class="edge"><title>p48&#45;&gt;p49</title>
<path fill="none" stroke="black" d="M401.963,-144.459C398.947,-136.641 390.952,-112.483 400,-96 402.393,-91.6408 405.585,-87.7469 409.23,-84.287"/>
<polygon fill="black" stroke="black" points="411.683,-86.8044 417.241,-77.7847 407.271,-81.3695 411.683,-86.8044"/>
<text text-anchor="middle" x="441" y="-100.3" font-family="Times,serif" font-size="14.00">description</text>
</g>
<!-- p55 -->
<g id="node55" class="node"><title>p55</title>
<ellipse fill="black" stroke="black" cx="184" cy="-60" rx="1.8" ry="1.8"/>
</g>
<!-- p53&#45;&gt;p55 -->
<g id="edge60" class="edge"><title>p53&#45;&gt;p55</title>
<path fill="none" stroke="black" d="M164.059,-129.597C169.076,-112.339 176.607,-86.4315 180.833,-71.8949"/>
<polygon fill="black" stroke="black" points="184.251,-72.6747 183.682,-62.0952 177.529,-70.7207 184.251,-72.6747"/>
<text text-anchor="middle" x="185" y="-100.3" font-family="Times,serif" font-size="14.00">zip</text>
</g>
<!-- p54 -->
<g id="node56" class="node"><title>p54</title>
<ellipse fill="black" stroke="black" cx="151" cy="-60" rx="1.8" ry="1.8"/>
</g>
<!-- p53&#45;&gt;p54 -->
<g id="edge61" class="edge"><title>p53&#45;&gt;p54</title>
<path fill="none" stroke="black" d="M157.381,-129.597C155.792,-112.516 153.415,-86.9647 152.056,-72.348"/>
<polygon fill="black" stroke="black" points="155.513,-71.728 151.102,-62.0952 148.543,-72.3764 155.513,-71.728"/>
</g>
<!-- p52 -->
<g id="node54" class="node"><title>p52</title>
<ellipse fill="black" stroke="black" cx="192" cy="-222" rx="3.6" ry="3.6"/>
</g>
<!-- p52&#45;&gt;p53 -->
<g id="edge59" class="edge"><title>p52&#45;&gt;p53</title>
<path fill="none" stroke="black" d="M190.747,-218.265C187.519,-211.222 178.644,-191.859 171.095,-175.39"/>
<polygon fill="black" stroke="black" points="174.205,-173.775 166.857,-166.143 167.842,-176.692 174.205,-173.775"/>
<text text-anchor="middle" x="201.5" y="-188.3" font-family="Times,serif" font-size="14.00">meta</text>
</g>
</g>
</svg>
