<?xml version="1.0" encoding="UTF-8" standalone="no"?>
<!DOCTYPE svg PUBLIC "-//W3C//DTD SVG 1.1//EN"
 "http://www.w3.org/Graphics/SVG/1.1/DTD/svg11.dtd">
<!-- Generated by graphviz version 2.30.1 (20201013.1554)
 -->
<!-- Title: 20220927hs37d5spliceaiworkflow Pages: 1 -->
<svg width="1129pt" height="1716pt"
 viewBox="0.00 0.00 1128.60 1716.00" xmlns="http://www.w3.org/2000/svg" xmlns:xlink="http://www.w3.org/1999/xlink">
<g id="graph0" class="graph" transform="scale(1 1) rotate(0) translate(4 1712)">
<title>20220927hs37d5spliceaiworkflow</title>
<polygon fill="white" stroke="white" points="-4,5 -4,-1712 1125.6,-1712 1125.6,5 -4,5"/>
<!-- p0 -->
<g id="node1" class="node"><title>p0</title>
<ellipse fill="black" stroke="black" cx="567.6" cy="-1630" rx="3.6" ry="3.6"/>
<text text-anchor="middle" x="629" y="-1637.4" font-family="Times,serif" font-size="14.00">Channel.fromPath</text>
</g>
<!-- p7 -->
<g id="node2" class="node"><title>p7</title>
<ellipse fill="none" stroke="black" cx="390.6" cy="-1556" rx="3.25" ry="3.5"/>
<text text-anchor="middle" x="356.6" y="-1563.3" font-family="Times,serif" font-size="14.00">combine</text>
</g>
<!-- p0&#45;&gt;p7 -->
<g id="edge1" class="edge"><title>p0&#45;&gt;p7</title>
<path fill="none" stroke="black" d="M564.528,-1627.75C545.143,-1619.87 439.429,-1576.86 402.969,-1562.03"/>
<polygon fill="black" stroke="black" points="404.065,-1558.7 393.484,-1558.17 401.428,-1565.18 404.065,-1558.7"/>
<text text-anchor="middle" x="490.6" y="-1582.3" font-family="Times,serif" font-size="14.00">vcf</text>
</g>
<!-- p18 -->
<g id="node20" class="node"><title>p18</title>
<ellipse fill="none" stroke="black" cx="551.6" cy="-1178" rx="3.25" ry="3.5"/>
<text text-anchor="middle" x="517.6" y="-1185.3" font-family="Times,serif" font-size="14.00">combine</text>
</g>
<!-- p0&#45;&gt;p18 -->
<g id="edge22" class="edge"><title>p0&#45;&gt;p18</title>
<path fill="none" stroke="black" d="M569.568,-1626.42C576.243,-1617.4 597.6,-1586.25 597.6,-1557 597.6,-1557 597.6,-1557 597.6,-1241 597.6,-1223.42 594.025,-1218.16 583.6,-1204 578.114,-1196.55 569.842,-1190.17 563.082,-1185.72"/>
<polygon fill="black" stroke="black" points="564.695,-1182.6 554.324,-1180.44 561.081,-1188.6 564.695,-1182.6"/>
<text text-anchor="middle" x="608.6" y="-1388.3" font-family="Times,serif" font-size="14.00">vcf</text>
</g>
<!-- p9 -->
<g id="node10" class="node"><title>p9</title>
<ellipse fill="none" stroke="black" cx="364.6" cy="-1482" rx="205.073" ry="18"/>
<text text-anchor="middle" x="364.6" y="-1478.3" font-family="Times,serif" font-size="14.00">SPLICEAI_01:BED_WITH_VARIANTS_01</text>
</g>
<!-- p7&#45;&gt;p9 -->
<g id="edge9" class="edge"><title>p7&#45;&gt;p9</title>
<path fill="none" stroke="black" d="M389.735,-1552.6C387.327,-1545.94 380.329,-1526.56 374.326,-1509.93"/>
<polygon fill="black" stroke="black" points="377.456,-1508.3 370.768,-1500.08 370.872,-1510.67 377.456,-1508.3"/>
</g>
<!-- p1 -->
<g id="node3" class="node"><title>p1</title>
<ellipse fill="black" stroke="black" cx="112.6" cy="-1630" rx="3.6" ry="3.6"/>
<text text-anchor="middle" x="54.5" y="-1637.4" font-family="Times,serif" font-size="14.00">Channel.empty</text>
</g>
<!-- p6 -->
<g id="node4" class="node"><title>p6</title>
<ellipse fill="none" stroke="black" cx="112.6" cy="-1556" rx="3.25" ry="3.5"/>
<text text-anchor="middle" x="95.6" y="-1563.3" font-family="Times,serif" font-size="14.00">mix</text>
</g>
<!-- p1&#45;&gt;p6 -->
<g id="edge2" class="edge"><title>p1&#45;&gt;p6</title>
<path fill="none" stroke="black" d="M112.6,-1626.27C112.6,-1617.13 112.6,-1587.28 112.6,-1569.89"/>
<polygon fill="black" stroke="black" points="116.1,-1569.74 112.6,-1559.74 109.1,-1569.74 116.1,-1569.74"/>
<text text-anchor="middle" x="151.6" y="-1582.3" font-family="Times,serif" font-size="14.00">version_ch</text>
</g>
<!-- p10 -->
<g id="node9" class="node"><title>p10</title>
<ellipse fill="none" stroke="black" cx="68.6" cy="-1422" rx="3.25" ry="3.5"/>
<text text-anchor="middle" x="51.6" y="-1429.3" font-family="Times,serif" font-size="14.00">mix</text>
</g>
<!-- p6&#45;&gt;p10 -->
<g id="edge8" class="edge"><title>p6&#45;&gt;p10</title>
<path fill="none" stroke="black" d="M110.599,-1553.15C103.737,-1546.67 81.1132,-1524.04 72.6,-1500 64.9198,-1478.31 65.7493,-1451.04 67.1239,-1435.45"/>
<polygon fill="black" stroke="black" points="70.6048,-1435.82 68.2318,-1425.49 63.6477,-1435.04 70.6048,-1435.82"/>
<text text-anchor="middle" x="111.6" y="-1478.3" font-family="Times,serif" font-size="14.00">version_ch</text>
</g>
<!-- p2 -->
<g id="node5" class="node"><title>p2</title>
<ellipse fill="black" stroke="black" cx="275.6" cy="-1704" rx="3.6" ry="3.6"/>
</g>
<!-- p5 -->
<g id="node6" class="node"><title>p5</title>
<ellipse fill="none" stroke="black" cx="335.6" cy="-1630" rx="180.526" ry="18"/>
<text text-anchor="middle" x="335.6" y="-1626.3" font-family="Times,serif" font-size="14.00">SPLICEAI_01:DOWNLOAD_EXONS</text>
</g>
<!-- p2&#45;&gt;p5 -->
<g id="edge3" class="edge"><title>p2&#45;&gt;p5</title>
<path fill="none" stroke="black" d="M276.502,-1700.47C278.822,-1694.19 285.46,-1677.55 294.6,-1666 297.634,-1662.16 301.137,-1658.44 304.792,-1654.93"/>
<polygon fill="black" stroke="black" points="307.307,-1657.38 312.405,-1648.09 302.628,-1652.17 307.307,-1657.38"/>
<text text-anchor="middle" x="313.1" y="-1670.3" font-family="Times,serif" font-size="14.00">meta</text>
</g>
<!-- p5&#45;&gt;p7 -->
<g id="edge6" class="edge"><title>p5&#45;&gt;p7</title>
<path fill="none" stroke="black" d="M348.634,-1611.94C359.248,-1598.04 373.881,-1578.89 382.767,-1567.25"/>
<polygon fill="black" stroke="black" points="385.563,-1569.36 388.852,-1559.29 380,-1565.11 385.563,-1569.36"/>
</g>
<!-- p5&#45;&gt;p6 -->
<g id="edge7" class="edge"><title>p5&#45;&gt;p6</title>
<path fill="none" stroke="black" d="M293.076,-1612.41C265.282,-1601.86 228.06,-1588.31 194.6,-1578 170.664,-1570.62 142.253,-1563.76 125.936,-1560"/>
<polygon fill="black" stroke="black" points="126.285,-1556.49 115.758,-1557.69 124.738,-1563.32 126.285,-1556.49"/>
</g>
<!-- p3 -->
<g id="node7" class="node"><title>p3</title>
<ellipse fill="black" stroke="black" cx="335.6" cy="-1704" rx="3.6" ry="3.6"/>
</g>
<!-- p3&#45;&gt;p5 -->
<g id="edge4" class="edge"><title>p3&#45;&gt;p5</title>
<path fill="none" stroke="black" d="M335.6,-1700.27C335.6,-1693.35 335.6,-1674.58 335.6,-1658.32"/>
<polygon fill="black" stroke="black" points="339.1,-1658.14 335.6,-1648.14 332.1,-1658.14 339.1,-1658.14"/>
<text text-anchor="middle" x="370.6" y="-1670.3" font-family="Times,serif" font-size="14.00">reference</text>
</g>
<!-- p4 -->
<g id="node8" class="node"><title>p4</title>
<ellipse fill="black" stroke="black" cx="428.6" cy="-1704" rx="3.6" ry="3.6"/>
</g>
<!-- p4&#45;&gt;p5 -->
<g id="edge5" class="edge"><title>p4&#45;&gt;p5</title>
<path fill="none" stroke="black" d="M427.631,-1700.32C425.118,-1693.7 417.795,-1676.35 406.6,-1666 401.119,-1660.93 394.768,-1656.44 388.163,-1652.51"/>
<polygon fill="black" stroke="black" points="389.504,-1649.25 379.056,-1647.49 386.125,-1655.38 389.504,-1649.25"/>
<text text-anchor="middle" x="433.1" y="-1670.3" font-family="Times,serif" font-size="14.00">bed</text>
</g>
<!-- p15 -->
<g id="node13" class="node"><title>p15</title>
<ellipse fill="none" stroke="black" cx="194.6" cy="-1288" rx="3.25" ry="3.5"/>
<text text-anchor="middle" x="177.6" y="-1295.3" font-family="Times,serif" font-size="14.00">mix</text>
</g>
<!-- p10&#45;&gt;p15 -->
<g id="edge13" class="edge"><title>p10&#45;&gt;p15</title>
<path fill="none" stroke="black" d="M67.9566,-1418.4C65.2154,-1406.66 55.624,-1357.96 77.6,-1330 103.198,-1297.43 156.432,-1290.66 181.283,-1289.3"/>
<polygon fill="black" stroke="black" points="181.512,-1292.8 191.395,-1288.98 181.288,-1285.8 181.512,-1292.8"/>
<text text-anchor="middle" x="116.6" y="-1344.3" font-family="Times,serif" font-size="14.00">version_ch</text>
</g>
<!-- p11 -->
<g id="node12" class="node"><title>p11</title>
<ellipse fill="none" stroke="black" cx="400.6" cy="-1422" rx="3.25" ry="3.5"/>
<text text-anchor="middle" x="381.6" y="-1429.3" font-family="Times,serif" font-size="14.00">map</text>
</g>
<!-- p9&#45;&gt;p11 -->
<g id="edge11" class="edge"><title>p9&#45;&gt;p11</title>
<path fill="none" stroke="black" d="M375.206,-1463.91C381.206,-1454.25 388.531,-1442.44 393.769,-1434"/>
<polygon fill="black" stroke="black" points="396.867,-1435.65 399.167,-1425.31 390.919,-1431.96 396.867,-1435.65"/>
</g>
<!-- p9&#45;&gt;p10 -->
<g id="edge12" class="edge"><title>p9&#45;&gt;p10</title>
<path fill="none" stroke="black" d="M284.888,-1465.38C214.126,-1451.52 116.69,-1432.42 81.7368,-1425.57"/>
<polygon fill="black" stroke="black" points="82.338,-1422.13 71.8516,-1423.64 80.9919,-1428.99 82.338,-1422.13"/>
</g>
<!-- p8 -->
<g id="node11" class="node"><title>p8</title>
<ellipse fill="black" stroke="black" cx="338.6" cy="-1556" rx="3.6" ry="3.6"/>
</g>
<!-- p8&#45;&gt;p9 -->
<g id="edge10" class="edge"><title>p8&#45;&gt;p9</title>
<path fill="none" stroke="black" d="M337.743,-1552.21C335.958,-1545.89 332.341,-1530.14 336.6,-1518 337.769,-1514.67 339.403,-1511.42 341.301,-1508.32"/>
<polygon fill="black" stroke="black" points="344.219,-1510.26 347.18,-1500.09 338.521,-1506.19 344.219,-1510.26"/>
<text text-anchor="middle" x="355.1" y="-1522.3" font-family="Times,serif" font-size="14.00">meta</text>
</g>
<!-- p14 -->
<g id="node14" class="node"><title>p14</title>
<ellipse fill="none" stroke="black" cx="332.6" cy="-1348" rx="167.528" ry="18"/>
<text text-anchor="middle" x="332.6" y="-1344.3" font-family="Times,serif" font-size="14.00">SPLICEAI_01:BED_CLUSTER_01</text>
</g>
<!-- p11&#45;&gt;p14 -->
<g id="edge14" class="edge"><title>p11&#45;&gt;p14</title>
<path fill="none" stroke="black" d="M400.719,-1418.38C400.879,-1411.9 400.475,-1394.85 392.6,-1384 389.151,-1379.25 384.844,-1375.04 380.13,-1371.34"/>
<polygon fill="black" stroke="black" points="382.092,-1368.44 371.891,-1365.58 378.082,-1374.17 382.092,-1368.44"/>
</g>
<!-- p24 -->
<g id="node18" class="node"><title>p24</title>
<ellipse fill="none" stroke="black" cx="194.6" cy="-1040" rx="3.25" ry="3.5"/>
<text text-anchor="middle" x="177.6" y="-1047.3" font-family="Times,serif" font-size="14.00">mix</text>
</g>
<!-- p15&#45;&gt;p24 -->
<g id="edge19" class="edge"><title>p15&#45;&gt;p24</title>
<path fill="none" stroke="black" d="M194.6,-1284.22C194.6,-1277.27 194.6,-1258.58 194.6,-1243 194.6,-1243 194.6,-1243 194.6,-1099 194.6,-1083.49 194.6,-1065.65 194.6,-1053.89"/>
<polygon fill="black" stroke="black" points="198.1,-1053.66 194.6,-1043.66 191.1,-1053.66 198.1,-1053.66"/>
<text text-anchor="middle" x="233.6" y="-1174.3" font-family="Times,serif" font-size="14.00">version_ch</text>
</g>
<!-- p16 -->
<g id="node17" class="node"><title>p16</title>
<ellipse fill="none" stroke="black" cx="436.6" cy="-1288" rx="3.25" ry="3.5"/>
<text text-anchor="middle" x="401.1" y="-1295.3" font-family="Times,serif" font-size="14.00">splitText</text>
</g>
<!-- p14&#45;&gt;p16 -->
<g id="edge17" class="edge"><title>p14&#45;&gt;p16</title>
<path fill="none" stroke="black" d="M362.681,-1330.22C383.524,-1318.6 410.118,-1303.77 425.06,-1295.44"/>
<polygon fill="black" stroke="black" points="426.897,-1298.42 433.926,-1290.49 423.488,-1292.31 426.897,-1298.42"/>
</g>
<!-- p14&#45;&gt;p15 -->
<g id="edge18" class="edge"><title>p14&#45;&gt;p15</title>
<path fill="none" stroke="black" d="M293.055,-1330.38C263.908,-1318.13 226.129,-1302.25 206.948,-1294.19"/>
<polygon fill="black" stroke="black" points="208.052,-1290.86 197.477,-1290.21 205.34,-1297.31 208.052,-1290.86"/>
</g>
<!-- p12 -->
<g id="node15" class="node"><title>p12</title>
<ellipse fill="black" stroke="black" cx="261.6" cy="-1422" rx="3.6" ry="3.6"/>
</g>
<!-- p12&#45;&gt;p14 -->
<g id="edge15" class="edge"><title>p12&#45;&gt;p14</title>
<path fill="none" stroke="black" d="M262.422,-1418.4C264.56,-1411.97 270.816,-1395.01 280.6,-1384 284.536,-1379.57 289.15,-1375.44 293.976,-1371.69"/>
<polygon fill="black" stroke="black" points="296.16,-1374.43 302.215,-1365.73 292.06,-1368.75 296.16,-1374.43"/>
<text text-anchor="middle" x="299.1" y="-1388.3" font-family="Times,serif" font-size="14.00">meta</text>
</g>
<!-- p13 -->
<g id="node16" class="node"><title>p13</title>
<ellipse fill="black" stroke="black" cx="321.6" cy="-1422" rx="3.6" ry="3.6"/>
</g>
<!-- p13&#45;&gt;p14 -->
<g id="edge16" class="edge"><title>p13&#45;&gt;p14</title>
<path fill="none" stroke="black" d="M321.442,-1418.29C321.135,-1412.14 320.646,-1396.7 322.6,-1384 322.995,-1381.43 323.522,-1378.78 324.127,-1376.15"/>
<polygon fill="black" stroke="black" points="327.571,-1376.82 326.74,-1366.26 320.803,-1375.03 327.571,-1376.82"/>
<text text-anchor="middle" x="357.6" y="-1388.3" font-family="Times,serif" font-size="14.00">reference</text>
</g>
<!-- p17 -->
<g id="node19" class="node"><title>p17</title>
<ellipse fill="none" stroke="black" cx="483.6" cy="-1242" rx="3.25" ry="3.5"/>
<text text-anchor="middle" x="464.6" y="-1249.3" font-family="Times,serif" font-size="14.00">map</text>
</g>
<!-- p16&#45;&gt;p17 -->
<g id="edge20" class="edge"><title>p16&#45;&gt;p17</title>
<path fill="none" stroke="black" d="M438.62,-1285.11C444.659,-1279.46 462.864,-1262.41 474.177,-1251.82"/>
<polygon fill="black" stroke="black" points="476.732,-1254.22 481.64,-1244.83 471.948,-1249.11 476.732,-1254.22"/>
</g>
<!-- p28 -->
<g id="node27" class="node"><title>p28</title>
<ellipse fill="none" stroke="black" cx="195.6" cy="-878" rx="3.25" ry="3.5"/>
<text text-anchor="middle" x="178.6" y="-885.3" font-family="Times,serif" font-size="14.00">mix</text>
</g>
<!-- p24&#45;&gt;p28 -->
<g id="edge30" class="edge"><title>p24&#45;&gt;p28</title>
<path fill="none" stroke="black" d="M194.616,-1036.49C194.719,-1019.99 195.301,-926.776 195.518,-892.043"/>
<polygon fill="black" stroke="black" points="199.019,-891.899 195.582,-881.877 192.019,-891.855 199.019,-891.899"/>
<text text-anchor="middle" x="234.6" y="-962.3" font-family="Times,serif" font-size="14.00">version_ch</text>
</g>
<!-- p17&#45;&gt;p18 -->
<g id="edge21" class="edge"><title>p17&#45;&gt;p18</title>
<path fill="none" stroke="black" d="M485.168,-1238.83C489.549,-1232.86 502.464,-1215.81 515.6,-1204 523.355,-1197.03 533.126,-1190.35 540.53,-1185.66"/>
<polygon fill="black" stroke="black" points="542.458,-1188.58 549.176,-1180.39 538.815,-1182.61 542.458,-1188.58"/>
<text text-anchor="middle" x="549.6" y="-1208.3" font-family="Times,serif" font-size="14.00">each_bed</text>
</g>
<!-- p22 -->
<g id="node21" class="node"><title>p22</title>
<ellipse fill="none" stroke="black" cx="390.6" cy="-1100" rx="162.228" ry="18"/>
<text text-anchor="middle" x="390.6" y="-1096.3" font-family="Times,serif" font-size="14.00">SPLICEAI_01:APPLY_SPLICEAI</text>
</g>
<!-- p18&#45;&gt;p22 -->
<g id="edge23" class="edge"><title>p18&#45;&gt;p22</title>
<path fill="none" stroke="black" d="M551.036,-1174.31C549.348,-1166.95 543.626,-1146.35 530.6,-1136 521.174,-1128.51 510.354,-1122.6 498.997,-1117.94"/>
<polygon fill="black" stroke="black" points="499.941,-1114.56 489.349,-1114.32 497.477,-1121.11 499.941,-1114.56"/>
</g>
<!-- p25 -->
<g id="node25" class="node"><title>p25</title>
<ellipse fill="none" stroke="black" cx="461.6" cy="-1040" rx="3.25" ry="3.5"/>
<text text-anchor="middle" x="433.6" y="-1047.3" font-family="Times,serif" font-size="14.00">collect</text>
</g>
<!-- p22&#45;&gt;p25 -->
<g id="edge27" class="edge"><title>p22&#45;&gt;p25</title>
<path fill="none" stroke="black" d="M411.518,-1081.91C424.662,-1071.18 441.032,-1057.8 451.403,-1049.33"/>
<polygon fill="black" stroke="black" points="453.677,-1051.99 459.207,-1042.95 449.249,-1046.57 453.677,-1051.99"/>
</g>
<!-- p23 -->
<g id="node26" class="node"><title>p23</title>
<ellipse fill="black" stroke="black" cx="390.6" cy="-1040" rx="1.8" ry="1.8"/>
</g>
<!-- p22&#45;&gt;p23 -->
<g id="edge28" class="edge"><title>p22&#45;&gt;p23</title>
<path fill="none" stroke="black" d="M390.6,-1081.91C390.6,-1072.32 390.6,-1060.63 390.6,-1052.2"/>
<polygon fill="black" stroke="black" points="394.1,-1052.06 390.6,-1042.06 387.1,-1052.06 394.1,-1052.06"/>
</g>
<!-- p22&#45;&gt;p24 -->
<g id="edge29" class="edge"><title>p22&#45;&gt;p24</title>
<path fill="none" stroke="black" d="M336.523,-1083C292.322,-1069.92 233.089,-1052.39 207.388,-1044.78"/>
<polygon fill="black" stroke="black" points="208.05,-1041.33 197.468,-1041.85 206.063,-1048.04 208.05,-1041.33"/>
</g>
<!-- p19 -->
<g id="node22" class="node"><title>p19</title>
<ellipse fill="black" stroke="black" cx="319.6" cy="-1178" rx="3.6" ry="3.6"/>
</g>
<!-- p19&#45;&gt;p22 -->
<g id="edge24" class="edge"><title>p19&#45;&gt;p22</title>
<path fill="none" stroke="black" d="M320.348,-1174.12C322.316,-1166.98 328.215,-1148.18 338.6,-1136 342.4,-1131.54 346.9,-1127.42 351.638,-1123.67"/>
<polygon fill="black" stroke="black" points="353.741,-1126.47 359.755,-1117.75 349.614,-1120.82 353.741,-1126.47"/>
<text text-anchor="middle" x="357.1" y="-1140.3" font-family="Times,serif" font-size="14.00">meta</text>
</g>
<!-- p20 -->
<g id="node23" class="node"><title>p20</title>
<ellipse fill="black" stroke="black" cx="379.6" cy="-1178" rx="3.6" ry="3.6"/>
</g>
<!-- p20&#45;&gt;p22 -->
<g id="edge25" class="edge"><title>p20&#45;&gt;p22</title>
<path fill="none" stroke="black" d="M379.436,-1174.39C379.075,-1167.87 378.41,-1150.36 380.6,-1136 380.992,-1133.43 381.516,-1130.78 382.119,-1128.15"/>
<polygon fill="black" stroke="black" points="385.564,-1128.82 384.731,-1118.25 378.795,-1127.03 385.564,-1128.82"/>
<text text-anchor="middle" x="415.6" y="-1140.3" font-family="Times,serif" font-size="14.00">reference</text>
</g>
<!-- p21 -->
<g id="node24" class="node"><title>p21</title>
<ellipse fill="black" stroke="black" cx="472.6" cy="-1178" rx="3.6" ry="3.6"/>
</g>
<!-- p21&#45;&gt;p22 -->
<g id="edge26" class="edge"><title>p21&#45;&gt;p22</title>
<path fill="none" stroke="black" d="M471.662,-1174.08C469.219,-1166.85 462.043,-1147.86 450.6,-1136 446.094,-1131.33 440.831,-1127.08 435.328,-1123.27"/>
<polygon fill="black" stroke="black" points="436.869,-1120.1 426.559,-1117.67 433.099,-1126 436.869,-1120.1"/>
<text text-anchor="middle" x="494.6" y="-1140.3" font-family="Times,serif" font-size="14.00">pedigree</text>
</g>
<!-- p27 -->
<g id="node28" class="node"><title>p27</title>
<ellipse fill="none" stroke="black" cx="475.6" cy="-966" rx="190.15" ry="18"/>
<text text-anchor="middle" x="475.6" y="-962.3" font-family="Times,serif" font-size="14.00">SPLICEAI_01:COLLECT_TO_FILE_01</text>
</g>
<!-- p25&#45;&gt;p27 -->
<g id="edge31" class="edge"><title>p25&#45;&gt;p27</title>
<path fill="none" stroke="black" d="M462.132,-1036.27C463.476,-1029.35 467.126,-1010.58 470.289,-994.316"/>
<polygon fill="black" stroke="black" points="473.794,-994.627 472.267,-984.143 466.922,-993.291 473.794,-994.627"/>
</g>
<!-- p50 -->
<g id="node31" class="node"><title>p50</title>
<ellipse fill="none" stroke="black" cx="280.6" cy="-282" rx="3.25" ry="3.5"/>
<text text-anchor="middle" x="263.6" y="-289.3" font-family="Times,serif" font-size="14.00">mix</text>
</g>
<!-- p28&#45;&gt;p50 -->
<g id="edge35" class="edge"><title>p28&#45;&gt;p50</title>
<path fill="none" stroke="black" d="M195.6,-874.341C195.6,-866.114 195.6,-840.347 195.6,-819 195.6,-819 195.6,-819 195.6,-341 195.6,-306.618 243.638,-291.152 267.488,-285.592"/>
<polygon fill="black" stroke="black" points="268.292,-288.999 277.372,-283.539 266.869,-282.146 268.292,-288.999"/>
<text text-anchor="middle" x="234.6" y="-590.3" font-family="Times,serif" font-size="14.00">version_ch</text>
</g>
<!-- p31 -->
<g id="node30" class="node"><title>p31</title>
<ellipse fill="none" stroke="black" cx="683.6" cy="-878" rx="256.591" ry="18"/>
<text text-anchor="middle" x="683.6" y="-874.3" font-family="Times,serif" font-size="14.00">SPLICEAI_01:BCFTOOLS_CONCAT_01:SQRT_FILE</text>
</g>
<!-- p27&#45;&gt;p31 -->
<g id="edge33" class="edge"><title>p27&#45;&gt;p31</title>
<path fill="none" stroke="black" d="M516.198,-948.214C549.733,-934.349 597.491,-914.603 633.419,-899.748"/>
<polygon fill="black" stroke="black" points="634.845,-902.946 642.749,-895.89 632.171,-896.477 634.845,-902.946"/>
<text text-anchor="middle" x="612.6" y="-918.3" font-family="Times,serif" font-size="14.00">vcfs</text>
</g>
<!-- p27&#45;&gt;p28 -->
<g id="edge34" class="edge"><title>p27&#45;&gt;p28</title>
<path fill="none" stroke="black" d="M422.275,-948.622C355.565,-928.132 245.568,-894.347 208.357,-882.918"/>
<polygon fill="black" stroke="black" points="209.007,-879.457 198.42,-879.866 206.952,-886.148 209.007,-879.457"/>
</g>
<!-- p26 -->
<g id="node29" class="node"><title>p26</title>
<ellipse fill="black" stroke="black" cx="423.6" cy="-1040" rx="3.6" ry="3.6"/>
</g>
<!-- p26&#45;&gt;p27 -->
<g id="edge32" class="edge"><title>p26&#45;&gt;p27</title>
<path fill="none" stroke="black" d="M422.948,-1036.08C421.646,-1029.5 419.352,-1013.25 425.6,-1002 427.983,-997.71 431.14,-993.827 434.713,-990.344"/>
<polygon fill="black" stroke="black" points="437.135,-992.879 442.517,-983.753 432.619,-987.531 437.135,-992.879"/>
<text text-anchor="middle" x="444.1" y="-1006.3" font-family="Times,serif" font-size="14.00">meta</text>
</g>
<!-- p33 -->
<g id="node35" class="node"><title>p33</title>
<ellipse fill="none" stroke="black" cx="691.6" cy="-818" rx="3.25" ry="3.5"/>
<text text-anchor="middle" x="656.1" y="-825.3" font-family="Times,serif" font-size="14.00">splitText</text>
</g>
<!-- p31&#45;&gt;p33 -->
<g id="edge38" class="edge"><title>p31&#45;&gt;p33</title>
<path fill="none" stroke="black" d="M685.957,-859.912C687.206,-850.858 688.713,-839.93 689.856,-831.647"/>
<polygon fill="black" stroke="black" points="693.33,-832.075 691.229,-821.691 686.395,-831.119 693.33,-832.075"/>
</g>
<!-- p32 -->
<g id="node36" class="node"><title>p32</title>
<ellipse fill="black" stroke="black" cx="666.6" cy="-818" rx="1.8" ry="1.8"/>
</g>
<!-- p31&#45;&gt;p32 -->
<g id="edge39" class="edge"><title>p31&#45;&gt;p32</title>
<path fill="none" stroke="black" d="M678.591,-859.912C675.746,-850.205 672.269,-838.342 669.794,-829.896"/>
<polygon fill="black" stroke="black" points="673.081,-828.668 666.91,-820.056 666.364,-830.637 673.081,-828.668"/>
</g>
<!-- p51 -->
<g id="node52" class="node"><title>p51</title>
<ellipse fill="none" stroke="black" cx="280.6" cy="-222" rx="3.25" ry="3.5"/>
<text text-anchor="middle" x="252.6" y="-229.3" font-family="Times,serif" font-size="14.00">collect</text>
</g>
<!-- p50&#45;&gt;p51 -->
<g id="edge58" class="edge"><title>p50&#45;&gt;p51</title>
<path fill="none" stroke="black" d="M280.6,-278.203C280.6,-270.649 280.6,-249.48 280.6,-235.66"/>
<polygon fill="black" stroke="black" points="284.1,-235.636 280.6,-225.636 277.1,-235.636 284.1,-235.636"/>
<text text-anchor="middle" x="319.6" y="-248.3" font-family="Times,serif" font-size="14.00">version_ch</text>
</g>
<!-- p29 -->
<g id="node32" class="node"><title>p29</title>
<ellipse fill="black" stroke="black" cx="291.6" cy="-698" rx="3.6" ry="3.6"/>
<text text-anchor="middle" x="233.5" y="-705.4" font-family="Times,serif" font-size="14.00">Channel.empty</text>
</g>
<!-- p38 -->
<g id="node33" class="node"><title>p38</title>
<ellipse fill="none" stroke="black" cx="291.6" cy="-624" rx="3.25" ry="3.5"/>
<text text-anchor="middle" x="274.6" y="-631.3" font-family="Times,serif" font-size="14.00">mix</text>
</g>
<!-- p29&#45;&gt;p38 -->
<g id="edge36" class="edge"><title>p29&#45;&gt;p38</title>
<path fill="none" stroke="black" d="M291.6,-694.265C291.6,-685.133 291.6,-655.282 291.6,-637.892"/>
<polygon fill="black" stroke="black" points="295.1,-637.737 291.6,-627.737 288.1,-637.737 295.1,-637.737"/>
<text text-anchor="middle" x="330.6" y="-650.3" font-family="Times,serif" font-size="14.00">version_ch</text>
</g>
<!-- p44 -->
<g id="node42" class="node"><title>p44</title>
<ellipse fill="none" stroke="black" cx="632.6" cy="-476" rx="3.25" ry="3.5"/>
<text text-anchor="middle" x="615.6" y="-483.3" font-family="Times,serif" font-size="14.00">mix</text>
</g>
<!-- p38&#45;&gt;p44 -->
<g id="edge46" class="edge"><title>p38&#45;&gt;p44</title>
<path fill="none" stroke="black" d="M290.776,-620.316C287.243,-608.212 274.61,-558.159 298.6,-532 342.82,-483.783 562.779,-477.834 619.328,-477.102"/>
<polygon fill="black" stroke="black" points="619.441,-480.601 629.408,-477.009 619.376,-473.602 619.441,-480.601"/>
<text text-anchor="middle" x="337.6" y="-546.3" font-family="Times,serif" font-size="14.00">version_ch</text>
</g>
<!-- p30 -->
<g id="node34" class="node"><title>p30</title>
<ellipse fill="black" stroke="black" cx="687.6" cy="-966" rx="3.6" ry="3.6"/>
</g>
<!-- p30&#45;&gt;p31 -->
<g id="edge37" class="edge"><title>p30&#45;&gt;p31</title>
<path fill="none" stroke="black" d="M687.467,-962.139C687.065,-953.502 685.833,-927.011 684.866,-906.227"/>
<polygon fill="black" stroke="black" points="688.352,-905.83 684.391,-896.004 681.359,-906.156 688.352,-905.83"/>
<text text-anchor="middle" x="704.1" y="-918.3" font-family="Times,serif" font-size="14.00">meta</text>
</g>
<!-- p34 -->
<g id="node37" class="node"><title>p34</title>
<ellipse fill="none" stroke="black" cx="691.6" cy="-772" rx="3.25" ry="3.5"/>
<text text-anchor="middle" x="672.6" y="-779.3" font-family="Times,serif" font-size="14.00">map</text>
</g>
<!-- p33&#45;&gt;p34 -->
<g id="edge40" class="edge"><title>p33&#45;&gt;p34</title>
<path fill="none" stroke="black" d="M691.6,-814.379C691.6,-808.864 691.6,-795.742 691.6,-785.742"/>
<polygon fill="black" stroke="black" points="695.1,-785.552 691.6,-775.552 688.1,-785.552 695.1,-785.552"/>
</g>
<!-- p36 -->
<g id="node38" class="node"><title>p36</title>
<ellipse fill="none" stroke="black" cx="684.6" cy="-698" rx="370.201" ry="18"/>
<text text-anchor="middle" x="684.6" y="-694.3" font-family="Times,serif" font-size="14.00">SPLICEAI_01:BCFTOOLS_CONCAT_01:BCFTOOL_CONCAT_FILE_LIST_01</text>
</g>
<!-- p34&#45;&gt;p36 -->
<g id="edge41" class="edge"><title>p34&#45;&gt;p36</title>
<path fill="none" stroke="black" d="M691.334,-768.265C690.662,-761.354 688.837,-742.578 687.256,-726.316"/>
<polygon fill="black" stroke="black" points="690.718,-725.757 686.267,-716.143 683.751,-726.435 690.718,-725.757"/>
<text text-anchor="middle" x="710.1" y="-738.3" font-family="Times,serif" font-size="14.00">d2_ch</text>
</g>
<!-- p39 -->
<g id="node40" class="node"><title>p39</title>
<ellipse fill="none" stroke="black" cx="685.6" cy="-624" rx="3.25" ry="3.5"/>
<text text-anchor="middle" x="657.6" y="-631.3" font-family="Times,serif" font-size="14.00">collect</text>
</g>
<!-- p36&#45;&gt;p39 -->
<g id="edge43" class="edge"><title>p36&#45;&gt;p39</title>
<path fill="none" stroke="black" d="M684.837,-679.937C685.015,-667.126 685.255,-649.843 685.418,-638.107"/>
<polygon fill="black" stroke="black" points="688.923,-637.796 685.562,-627.748 681.923,-637.699 688.923,-637.796"/>
</g>
<!-- p37 -->
<g id="node41" class="node"><title>p37</title>
<ellipse fill="black" stroke="black" cx="709.6" cy="-624" rx="1.8" ry="1.8"/>
</g>
<!-- p36&#45;&gt;p37 -->
<g id="edge44" class="edge"><title>p36&#45;&gt;p37</title>
<path fill="none" stroke="black" d="M690.525,-679.937C695.34,-666.069 701.976,-646.958 706.017,-635.319"/>
<polygon fill="black" stroke="black" points="709.331,-636.444 709.305,-625.849 702.719,-634.148 709.331,-636.444"/>
</g>
<!-- p36&#45;&gt;p38 -->
<g id="edge45" class="edge"><title>p36&#45;&gt;p38</title>
<path fill="none" stroke="black" d="M594.438,-680.482C496.673,-662.571 348.652,-635.452 304.479,-627.36"/>
<polygon fill="black" stroke="black" points="305.049,-623.906 294.582,-625.546 303.787,-630.791 305.049,-623.906"/>
</g>
<!-- p35 -->
<g id="node39" class="node"><title>p35</title>
<ellipse fill="black" stroke="black" cx="631.6" cy="-772" rx="3.6" ry="3.6"/>
</g>
<!-- p35&#45;&gt;p36 -->
<g id="edge42" class="edge"><title>p35&#45;&gt;p36</title>
<path fill="none" stroke="black" d="M632.306,-768.099C633.991,-761.569 638.706,-745.396 646.6,-734 649.198,-730.249 652.265,-726.607 655.51,-723.178"/>
<polygon fill="black" stroke="black" points="658.091,-725.549 662.79,-716.053 653.195,-720.546 658.091,-725.549"/>
<text text-anchor="middle" x="665.1" y="-738.3" font-family="Times,serif" font-size="14.00">meta</text>
</g>
<!-- p41 -->
<g id="node43" class="node"><title>p41</title>
<ellipse fill="none" stroke="black" cx="753.6" cy="-550" rx="367.301" ry="18"/>
<text text-anchor="middle" x="753.6" y="-546.3" font-family="Times,serif" font-size="14.00">SPLICEAI_01:BCFTOOLS_CONCAT_01:BCFTOOL_CONCAT_COLLECT_01</text>
</g>
<!-- p39&#45;&gt;p41 -->
<g id="edge47" class="edge"><title>p39&#45;&gt;p41</title>
<path fill="none" stroke="black" d="M687.562,-620.923C693.831,-614.285 713.931,-593.002 730.325,-575.644"/>
<polygon fill="black" stroke="black" points="733.212,-577.685 737.533,-568.012 728.123,-572.879 733.212,-577.685"/>
</g>
<!-- p45 -->
<g id="node47" class="node"><title>p45</title>
<ellipse fill="none" stroke="black" cx="632.6" cy="-416" rx="3.25" ry="3.5"/>
<text text-anchor="middle" x="604.6" y="-423.3" font-family="Times,serif" font-size="14.00">collect</text>
</g>
<!-- p44&#45;&gt;p45 -->
<g id="edge52" class="edge"><title>p44&#45;&gt;p45</title>
<path fill="none" stroke="black" d="M632.6,-472.203C632.6,-464.649 632.6,-443.48 632.6,-429.66"/>
<polygon fill="black" stroke="black" points="636.1,-429.636 632.6,-419.636 629.1,-429.636 636.1,-429.636"/>
<text text-anchor="middle" x="671.6" y="-442.3" font-family="Times,serif" font-size="14.00">version_ch</text>
</g>
<!-- p43 -->
<g id="node45" class="node"><title>p43</title>
<ellipse fill="black" stroke="black" cx="730.6" cy="-476" rx="1.8" ry="1.8"/>
</g>
<!-- p41&#45;&gt;p43 -->
<g id="edge49" class="edge"><title>p41&#45;&gt;p43</title>
<path fill="none" stroke="black" d="M745.452,-531.803C743.014,-526.212 740.489,-519.92 738.6,-514 735.873,-505.454 733.779,-495.502 732.419,-488.073"/>
<polygon fill="black" stroke="black" points="735.826,-487.223 730.734,-477.932 728.921,-488.371 735.826,-487.223"/>
<text text-anchor="middle" x="749.6" y="-502.3" font-family="Times,serif" font-size="14.00">vcf</text>
</g>
<!-- p42 -->
<g id="node46" class="node"><title>p42</title>
<ellipse fill="black" stroke="black" cx="775.6" cy="-476" rx="1.8" ry="1.8"/>
</g>
<!-- p41&#45;&gt;p42 -->
<g id="edge50" class="edge"><title>p41&#45;&gt;p42</title>
<path fill="none" stroke="black" d="M758.814,-531.937C763.005,-518.219 768.764,-499.373 772.33,-487.701"/>
<polygon fill="black" stroke="black" points="775.765,-488.436 775.341,-477.849 769.071,-486.39 775.765,-488.436"/>
<text text-anchor="middle" x="788.6" y="-502.3" font-family="Times,serif" font-size="14.00">index</text>
</g>
<!-- p41&#45;&gt;p44 -->
<g id="edge51" class="edge"><title>p41&#45;&gt;p44</title>
<path fill="none" stroke="black" d="M724.925,-531.937C698.997,-516.509 662.168,-494.594 643.85,-483.694"/>
<polygon fill="black" stroke="black" points="645.483,-480.593 635.099,-478.487 641.903,-486.609 645.483,-480.593"/>
</g>
<!-- p40 -->
<g id="node44" class="node"><title>p40</title>
<ellipse fill="black" stroke="black" cx="753.6" cy="-624" rx="3.6" ry="3.6"/>
</g>
<!-- p40&#45;&gt;p41 -->
<g id="edge48" class="edge"><title>p40&#45;&gt;p41</title>
<path fill="none" stroke="black" d="M753.6,-620.265C753.6,-613.354 753.6,-594.578 753.6,-578.316"/>
<polygon fill="black" stroke="black" points="757.1,-578.143 753.6,-568.143 750.1,-578.143 757.1,-578.143"/>
<text text-anchor="middle" x="772.1" y="-590.3" font-family="Times,serif" font-size="14.00">meta</text>
</g>
<!-- p49 -->
<g id="node48" class="node"><title>p49</title>
<ellipse fill="none" stroke="black" cx="513.6" cy="-342" rx="289.312" ry="18"/>
<text text-anchor="middle" x="513.6" y="-338.3" font-family="Times,serif" font-size="14.00">SPLICEAI_01:BCFTOOLS_CONCAT_01:MERGE_VERSION</text>
</g>
<!-- p45&#45;&gt;p49 -->
<g id="edge53" class="edge"><title>p45&#45;&gt;p49</title>
<path fill="none" stroke="black" d="M632.105,-412.238C630.74,-405.425 626.295,-387.674 615.6,-378 609.596,-372.569 602.71,-367.974 595.412,-364.088"/>
<polygon fill="black" stroke="black" points="596.508,-360.731 585.981,-359.535 593.465,-367.035 596.508,-360.731"/>
</g>
<!-- p49&#45;&gt;p50 -->
<g id="edge57" class="edge"><title>p49&#45;&gt;p50</title>
<path fill="none" stroke="black" d="M447.143,-324.457C393.487,-311.101 322.345,-293.391 293.534,-286.22"/>
<polygon fill="black" stroke="black" points="294.039,-282.739 283.49,-283.719 292.348,-289.531 294.039,-282.739"/>
</g>
<!-- p46 -->
<g id="node49" class="node"><title>p46</title>
<ellipse fill="black" stroke="black" cx="412.6" cy="-416" rx="3.6" ry="3.6"/>
</g>
<!-- p46&#45;&gt;p49 -->
<g id="edge54" class="edge"><title>p46&#45;&gt;p49</title>
<path fill="none" stroke="black" d="M413.543,-412.293C415.997,-405.606 423.196,-388.118 434.6,-378 440.439,-372.82 447.167,-368.3 454.183,-364.385"/>
<polygon fill="black" stroke="black" points="455.894,-367.441 463.178,-359.746 452.686,-361.219 455.894,-367.441"/>
<text text-anchor="middle" x="453.1" y="-382.3" font-family="Times,serif" font-size="14.00">meta</text>
</g>
<!-- p47 -->
<g id="node50" class="node"><title>p47</title>
<ellipse fill="black" stroke="black" cx="472.6" cy="-416" rx="3.6" ry="3.6"/>
</g>
<!-- p47&#45;&gt;p49 -->
<g id="edge55" class="edge"><title>p47&#45;&gt;p49</title>
<path fill="none" stroke="black" d="M472.702,-412.133C473.039,-405.672 474.478,-389.632 480.6,-378 482.472,-374.443 484.806,-370.987 487.363,-367.719"/>
<polygon fill="black" stroke="black" points="490.123,-369.878 494.04,-360.034 484.839,-365.287 490.123,-369.878"/>
<text text-anchor="middle" x="500.6" y="-382.3" font-family="Times,serif" font-size="14.00">name</text>
</g>
<!-- p48 -->
<g id="node51" class="node"><title>p48</title>
<ellipse fill="black" stroke="black" cx="535.6" cy="-416" rx="3.6" ry="3.6"/>
</g>
<!-- p48&#45;&gt;p49 -->
<g id="edge56" class="edge"><title>p48&#45;&gt;p49</title>
<path fill="none" stroke="black" d="M534.764,-412.265C532.633,-405.288 526.806,-386.219 521.805,-369.852"/>
<polygon fill="black" stroke="black" points="525.108,-368.684 518.838,-360.143 518.413,-370.729 525.108,-368.684"/>
<text text-anchor="middle" x="570.6" y="-382.3" font-family="Times,serif" font-size="14.00">description</text>
</g>
<!-- p55 -->
<g id="node53" class="node"><title>p55</title>
<ellipse fill="none" stroke="black" cx="343.6" cy="-148" rx="167.053" ry="18"/>
<text text-anchor="middle" x="343.6" y="-144.3" font-family="Times,serif" font-size="14.00">SPLICEAI_01:MERGE_VERSION</text>
</g>
<!-- p51&#45;&gt;p55 -->
<g id="edge59" class="edge"><title>p51&#45;&gt;p55</title>
<path fill="none" stroke="black" d="M282.26,-218.574C286.435,-212.529 297.806,-196.392 308.6,-184 311.667,-180.479 315.01,-176.875 318.372,-173.383"/>
<polygon fill="black" stroke="black" points="321.133,-175.568 325.665,-165.991 316.15,-170.651 321.133,-175.568"/>
</g>
<!-- p57 -->
<g id="node57" class="node"><title>p57</title>
<ellipse fill="none" stroke="black" cx="476.6" cy="-60" rx="111.186" ry="18"/>
<text text-anchor="middle" x="476.6" y="-56.3" font-family="Times,serif" font-size="14.00">VERSION_TO_HTML</text>
</g>
<!-- p55&#45;&gt;p57 -->
<g id="edge63" class="edge"><title>p55&#45;&gt;p57</title>
<path fill="none" stroke="black" d="M369.559,-130.214C390.248,-116.837 419.402,-97.9851 442.061,-83.3335"/>
<polygon fill="black" stroke="black" points="444.209,-86.1125 450.706,-77.7435 440.408,-80.2343 444.209,-86.1125"/>
</g>
<!-- p52 -->
<g id="node54" class="node"><title>p52</title>
<ellipse fill="black" stroke="black" cx="313.6" cy="-222" rx="3.6" ry="3.6"/>
</g>
<!-- p52&#45;&gt;p55 -->
<g id="edge60" class="edge"><title>p52&#45;&gt;p55</title>
<path fill="none" stroke="black" d="M313.074,-218.19C312.012,-211.846 310.079,-196.03 314.6,-184 315.86,-180.648 317.584,-177.385 319.568,-174.284"/>
<polygon fill="black" stroke="black" points="322.538,-176.156 325.681,-166.038 316.914,-171.987 322.538,-176.156"/>
<text text-anchor="middle" x="333.1" y="-188.3" font-family="Times,serif" font-size="14.00">meta</text>
</g>
<!-- p53 -->
<g id="node55" class="node"><title>p53</title>
<ellipse fill="black" stroke="black" cx="373.6" cy="-222" rx="3.6" ry="3.6"/>
</g>
<!-- p53&#45;&gt;p55 -->
<g id="edge61" class="edge"><title>p53&#45;&gt;p55</title>
<path fill="none" stroke="black" d="M372.461,-218.265C369.526,-211.222 361.458,-191.859 354.596,-175.39"/>
<polygon fill="black" stroke="black" points="357.82,-174.027 350.743,-166.143 351.358,-176.72 357.82,-174.027"/>
<text text-anchor="middle" x="385.6" y="-188.3" font-family="Times,serif" font-size="14.00">name</text>
</g>
<!-- p54 -->
<g id="node56" class="node"><title>p54</title>
<ellipse fill="black" stroke="black" cx="436.6" cy="-222" rx="3.6" ry="3.6"/>
</g>
<!-- p54&#45;&gt;p55 -->
<g id="edge62" class="edge"><title>p54&#45;&gt;p55</title>
<path fill="none" stroke="black" d="M435.228,-218.355C431.726,-211.811 421.86,-194.623 409.6,-184 404.007,-179.153 397.628,-174.729 391.091,-170.778"/>
<polygon fill="black" stroke="black" points="392.563,-167.589 382.139,-165.69 389.104,-173.674 392.563,-167.589"/>
<text text-anchor="middle" x="465.6" y="-188.3" font-family="Times,serif" font-size="14.00">description</text>
</g>
<!-- p58 -->
<g id="node59" class="node"><title>p58</title>
<ellipse fill="black" stroke="black" cx="476.6" cy="-2" rx="1.8" ry="1.8"/>
</g>
<!-- p57&#45;&gt;p58 -->
<g id="edge65" class="edge"><title>p57&#45;&gt;p58</title>
<path fill="none" stroke="black" d="M476.6,-41.8939C476.6,-32.8876 476.6,-22.0999 476.6,-14.1727"/>
<polygon fill="black" stroke="black" points="480.1,-13.9957 476.6,-3.99575 473.1,-13.9958 480.1,-13.9957"/>
</g>
<!-- p56 -->
<g id="node58" class="node"><title>p56</title>
<ellipse fill="black" stroke="black" cx="532.6" cy="-148" rx="3.6" ry="3.6"/>
</g>
<!-- p56&#45;&gt;p57 -->
<g id="edge64" class="edge"><title>p56&#45;&gt;p57</title>
<path fill="none" stroke="black" d="M530.984,-144.519C525.524,-136.133 507.323,-108.181 493.467,-86.9021"/>
<polygon fill="black" stroke="black" points="496.234,-84.7378 487.844,-78.2676 490.368,-88.5575 496.234,-84.7378"/>
<text text-anchor="middle" x="529.1" y="-100.3" font-family="Times,serif" font-size="14.00">meta</text>
</g>
</g>
</svg>
