<?xml version="1.0" encoding="UTF-8" standalone="no"?>
<!DOCTYPE svg PUBLIC "-//W3C//DTD SVG 1.1//EN"
 "http://www.w3.org/Graphics/SVG/1.1/DTD/svg11.dtd">
<!-- Generated by graphviz version 2.30.1 (20201013.1554)
 -->
<!-- Title: 20220928mtcallingworkflow Pages: 1 -->
<svg width="1544pt" height="1478pt"
 viewBox="0.00 0.00 1544.00 1478.00" xmlns="http://www.w3.org/2000/svg" xmlns:xlink="http://www.w3.org/1999/xlink">
<g id="graph0" class="graph" transform="scale(1 1) rotate(0) translate(4 1474)">
<title>20220928mtcallingworkflow</title>
<polygon fill="white" stroke="white" points="-4,5 -4,-1474 1541,-1474 1541,5 -4,5"/>
<!-- p0 -->
<g id="node1" class="node"><title>p0</title>
<ellipse fill="black" stroke="black" cx="549" cy="-976" rx="3.6" ry="3.6"/>
<text text-anchor="middle" x="490.9" y="-983.4" font-family="Times,serif" font-size="14.00">Channel.empty</text>
</g>
<!-- p3 -->
<g id="node2" class="node"><title>p3</title>
<ellipse fill="none" stroke="black" cx="549" cy="-888" rx="3.25" ry="3.5"/>
<text text-anchor="middle" x="532" y="-895.3" font-family="Times,serif" font-size="14.00">mix</text>
</g>
<!-- p0&#45;&gt;p3 -->
<g id="edge1" class="edge"><title>p0&#45;&gt;p3</title>
<path fill="none" stroke="black" d="M549,-972.139C549,-961.281 549,-922.206 549,-901.727"/>
<polygon fill="black" stroke="black" points="552.5,-901.615 549,-891.615 545.5,-901.615 552.5,-901.615"/>
<text text-anchor="middle" x="588" y="-928.3" font-family="Times,serif" font-size="14.00">version_ch</text>
</g>
<!-- p6 -->
<g id="node7" class="node"><title>p6</title>
<ellipse fill="none" stroke="black" cx="618" cy="-800" rx="3.25" ry="3.5"/>
<text text-anchor="middle" x="628" y="-807.3" font-family="Times,serif" font-size="14.00">mix</text>
</g>
<!-- p3&#45;&gt;p6 -->
<g id="edge6" class="edge"><title>p3&#45;&gt;p6</title>
<path fill="none" stroke="black" d="M547.406,-884.791C542.111,-877.159 526.095,-851.526 538,-836 556.762,-811.532 579.383,-835.16 605,-818 607.396,-816.395 609.535,-814.2 611.351,-811.921"/>
<polygon fill="black" stroke="black" points="614.381,-813.68 616.841,-803.375 608.491,-809.896 614.381,-813.68"/>
<text text-anchor="middle" x="577" y="-840.3" font-family="Times,serif" font-size="14.00">version_ch</text>
</g>
<!-- p1 -->
<g id="node3" class="node"><title>p1</title>
<ellipse fill="black" stroke="black" cx="1106" cy="-1064" rx="3.6" ry="3.6"/>
</g>
<!-- p2 -->
<g id="node4" class="node"><title>p2</title>
<ellipse fill="none" stroke="black" cx="1106" cy="-976" rx="163.179" ry="18"/>
<text text-anchor="middle" x="1106" y="-972.3" font-family="Times,serif" font-size="14.00">MT_CALLING:MT_REFERENCE</text>
</g>
<!-- p1&#45;&gt;p2 -->
<g id="edge2" class="edge"><title>p1&#45;&gt;p2</title>
<path fill="none" stroke="black" d="M1106,-1060.14C1106,-1051.5 1106,-1025.01 1106,-1004.23"/>
<polygon fill="black" stroke="black" points="1109.5,-1004 1106,-994.004 1102.5,-1004 1109.5,-1004"/>
<text text-anchor="middle" x="1124.5" y="-1016.3" font-family="Times,serif" font-size="14.00">meta</text>
</g>
<!-- p5 -->
<g id="node5" class="node"><title>p5</title>
<ellipse fill="none" stroke="black" cx="915" cy="-888" rx="193.524" ry="18"/>
<text text-anchor="middle" x="915" y="-884.3" font-family="Times,serif" font-size="14.00">MT_CALLING:SHIFTED_REFERENCE</text>
</g>
<!-- p2&#45;&gt;p5 -->
<g id="edge3" class="edge"><title>p2&#45;&gt;p5</title>
<path fill="none" stroke="black" d="M1069.17,-958.418C1038.49,-944.602 994.61,-924.845 961.505,-909.939"/>
<polygon fill="black" stroke="black" points="962.594,-906.592 952.039,-905.677 959.72,-912.974 962.594,-906.592"/>
</g>
<!-- p2&#45;&gt;p3 -->
<g id="edge4" class="edge"><title>p2&#45;&gt;p3</title>
<path fill="none" stroke="black" d="M1004.71,-961.86C908.76,-949.026 760.748,-928.227 633,-906 607.785,-901.613 578.53,-895.446 562.048,-891.872"/>
<polygon fill="black" stroke="black" points="562.408,-888.368 551.891,-889.645 560.909,-895.205 562.408,-888.368"/>
</g>
<!-- p38 -->
<g id="node6" class="node"><title>p38</title>
<ellipse fill="none" stroke="black" cx="1091" cy="-624" rx="173.302" ry="18"/>
<text text-anchor="middle" x="1091" y="-620.3" font-family="Times,serif" font-size="14.00">MT_CALLING:EXTRACT_MT_VCF</text>
</g>
<!-- p2&#45;&gt;p38 -->
<g id="edge5" class="edge"><title>p2&#45;&gt;p38</title>
<path fill="none" stroke="black" d="M1167.1,-959.167C1200.44,-946.449 1235,-924.664 1235,-889 1235,-889 1235,-889 1235,-711 1235,-677.341 1205.64,-656.545 1173.44,-643.858"/>
<polygon fill="black" stroke="black" points="1174.44,-640.496 1163.84,-640.333 1172.02,-647.067 1174.44,-640.496"/>
</g>
<!-- p2&#45;&gt;p38 -->
<g id="edge46" class="edge"><title>p2&#45;&gt;p38</title>
<path fill="none" stroke="black" d="M1116.15,-957.865C1125.19,-940.958 1137,-914.076 1137,-889 1137,-889 1137,-889 1137,-711 1137,-688.507 1124.61,-666.2 1112.7,-649.943"/>
<polygon fill="black" stroke="black" points="1115.46,-647.795 1106.57,-642.024 1109.92,-652.076 1115.46,-647.795"/>
<text text-anchor="middle" x="1172" y="-796.3" font-family="Times,serif" font-size="14.00">reference</text>
</g>
<!-- p5&#45;&gt;p38 -->
<g id="edge8" class="edge"><title>p5&#45;&gt;p38</title>
<path fill="none" stroke="black" d="M939.788,-869.958C975.277,-844.118 1039.82,-791.473 1072,-730 1084.77,-705.599 1089.12,-674.126 1090.52,-652.025"/>
<polygon fill="black" stroke="black" points="1094.01,-652.155 1090.99,-642.001 1087.02,-651.824 1094.01,-652.155"/>
</g>
<!-- p5&#45;&gt;p6 -->
<g id="edge9" class="edge"><title>p5&#45;&gt;p6</title>
<path fill="none" stroke="black" d="M858.787,-870.723C787.62,-850.116 669.602,-815.942 630.799,-804.706"/>
<polygon fill="black" stroke="black" points="631.578,-801.288 620.999,-801.869 629.631,-808.012 631.578,-801.288"/>
</g>
<!-- p41 -->
<g id="node41" class="node"><title>p41</title>
<ellipse fill="none" stroke="black" cx="875" cy="-550" rx="3.25" ry="3.5"/>
<text text-anchor="middle" x="847" y="-557.3" font-family="Times,serif" font-size="14.00">collect</text>
</g>
<!-- p38&#45;&gt;p41 -->
<g id="edge48" class="edge"><title>p38&#45;&gt;p41</title>
<path fill="none" stroke="black" d="M990.253,-609.341C967.843,-604.277 944.63,-597.378 924,-588 908.731,-581.059 893.721,-568.673 884.42,-560.157"/>
<polygon fill="black" stroke="black" points="886.666,-557.462 877.022,-553.074 881.825,-562.518 886.666,-557.462"/>
</g>
<!-- p47 -->
<g id="node42" class="node"><title>p47</title>
<ellipse fill="none" stroke="black" cx="1076" cy="-550" rx="3.25" ry="3.5"/>
<text text-anchor="middle" x="1048" y="-557.3" font-family="Times,serif" font-size="14.00">collect</text>
</g>
<!-- p38&#45;&gt;p47 -->
<g id="edge49" class="edge"><title>p38&#45;&gt;p47</title>
<path fill="none" stroke="black" d="M1087.45,-605.937C1084.75,-592.989 1081.1,-575.471 1078.65,-563.731"/>
<polygon fill="black" stroke="black" points="1082.04,-562.824 1076.57,-553.748 1075.19,-564.252 1082.04,-562.824"/>
</g>
<!-- p39 -->
<g id="node43" class="node"><title>p39</title>
<ellipse fill="black" stroke="black" cx="1281" cy="-550" rx="1.8" ry="1.8"/>
</g>
<!-- p38&#45;&gt;p39 -->
<g id="edge50" class="edge"><title>p38&#45;&gt;p39</title>
<path fill="none" stroke="black" d="M1134.59,-606.482C1178.8,-589.73 1244.25,-564.925 1270.01,-555.163"/>
<polygon fill="black" stroke="black" points="1271.59,-558.308 1279.7,-551.491 1269.11,-551.762 1271.59,-558.308"/>
</g>
<!-- p52 -->
<g id="node44" class="node"><title>p52</title>
<ellipse fill="none" stroke="black" cx="1104" cy="-550" rx="3.25" ry="3.5"/>
<text text-anchor="middle" x="1076" y="-535.3" font-family="Times,serif" font-size="14.00">collect</text>
</g>
<!-- p38&#45;&gt;p52 -->
<g id="edge51" class="edge"><title>p38&#45;&gt;p52</title>
<path fill="none" stroke="black" d="M1094.08,-605.937C1096.42,-592.989 1099.58,-575.471 1101.7,-563.731"/>
<polygon fill="black" stroke="black" points="1105.17,-564.211 1103.5,-553.748 1098.28,-562.967 1105.17,-564.211"/>
</g>
<!-- p40 -->
<g id="node39" class="node"><title>p40</title>
<ellipse fill="none" stroke="black" cx="810" cy="-476" rx="3.25" ry="3.5"/>
<text text-anchor="middle" x="811.75" y="-461.3" font-family="Times,serif" font-size="14.00">mix</text>
</g>
<!-- p38&#45;&gt;p40 -->
<g id="edge52" class="edge"><title>p38&#45;&gt;p40</title>
<path fill="none" stroke="black" d="M1060.67,-606.151C1035.55,-592.194 998.945,-571.832 967,-554 933.641,-535.378 927.463,-526.209 892,-512 862.181,-500.052 848.441,-512.242 822,-494 819.777,-492.467 817.829,-490.379 816.185,-488.192"/>
<polygon fill="black" stroke="black" points="819.095,-486.235 811.015,-479.382 813.058,-489.778 819.095,-486.235"/>
</g>
<!-- p28 -->
<g id="node9" class="node"><title>p28</title>
<ellipse fill="none" stroke="black" cx="565" cy="-712" rx="3.25" ry="3.5"/>
<text text-anchor="middle" x="548" y="-719.3" font-family="Times,serif" font-size="14.00">mix</text>
</g>
<!-- p6&#45;&gt;p28 -->
<g id="edge10" class="edge"><title>p6&#45;&gt;p28</title>
<path fill="none" stroke="black" d="M616.774,-796.719C614.75,-793.144 610.395,-786.199 605,-782 588.974,-769.526 574.18,-780.955 563,-764 555.487,-752.606 557.739,-736.46 560.725,-725.405"/>
<polygon fill="black" stroke="black" points="564.146,-726.205 563.927,-715.612 557.492,-724.029 564.146,-726.205"/>
<text text-anchor="middle" x="602" y="-752.3" font-family="Times,serif" font-size="14.00">version_ch</text>
</g>
<!-- p4 -->
<g id="node8" class="node"><title>p4</title>
<ellipse fill="black" stroke="black" cx="915" cy="-976" rx="3.6" ry="3.6"/>
</g>
<!-- p4&#45;&gt;p5 -->
<g id="edge7" class="edge"><title>p4&#45;&gt;p5</title>
<path fill="none" stroke="black" d="M915,-972.139C915,-963.502 915,-937.011 915,-916.227"/>
<polygon fill="black" stroke="black" points="918.5,-916.004 915,-906.004 911.5,-916.004 918.5,-916.004"/>
<text text-anchor="middle" x="933.5" y="-928.3" font-family="Times,serif" font-size="14.00">meta</text>
</g>
<!-- p32 -->
<g id="node32" class="node"><title>p32</title>
<ellipse fill="none" stroke="black" cx="833" cy="-624" rx="3.25" ry="3.5"/>
<text text-anchor="middle" x="843" y="-631.3" font-family="Times,serif" font-size="14.00">mix</text>
</g>
<!-- p28&#45;&gt;p32 -->
<g id="edge35" class="edge"><title>p28&#45;&gt;p32</title>
<path fill="none" stroke="black" d="M567.164,-709.075C571.291,-705.512 580.707,-697.899 590,-694 627.615,-678.217 640.172,-684.815 680,-676 695.629,-672.541 806.593,-650.747 820,-642 822.415,-640.424 824.561,-638.241 826.379,-635.963"/>
<polygon fill="black" stroke="black" points="829.421,-637.703 831.852,-627.391 823.521,-633.936 829.421,-637.703"/>
<text text-anchor="middle" x="794" y="-664.3" font-family="Times,serif" font-size="14.00">version_ch</text>
</g>
<!-- p7 -->
<g id="node10" class="node"><title>p7</title>
<ellipse fill="black" stroke="black" cx="664" cy="-1392" rx="3.6" ry="3.6"/>
<text text-anchor="middle" x="714.9" y="-1399.4" font-family="Times,serif" font-size="14.00">Channel.empty</text>
</g>
<!-- p11 -->
<g id="node11" class="node"><title>p11</title>
<ellipse fill="none" stroke="black" cx="619" cy="-1318" rx="3.25" ry="3.5"/>
<text text-anchor="middle" x="602" y="-1325.3" font-family="Times,serif" font-size="14.00">mix</text>
</g>
<!-- p7&#45;&gt;p11 -->
<g id="edge11" class="edge"><title>p7&#45;&gt;p11</title>
<path fill="none" stroke="black" d="M662.503,-1388.6C656.898,-1379.64 636.927,-1347.68 626.1,-1330.36"/>
<polygon fill="black" stroke="black" points="628.817,-1328.1 620.549,-1321.48 622.881,-1331.81 628.817,-1328.1"/>
<text text-anchor="middle" x="681" y="-1344.3" font-family="Times,serif" font-size="14.00">version_ch</text>
</g>
<!-- p18 -->
<g id="node16" class="node"><title>p18</title>
<ellipse fill="none" stroke="black" cx="321" cy="-1138" rx="3.25" ry="3.5"/>
<text text-anchor="middle" x="304" y="-1145.3" font-family="Times,serif" font-size="14.00">mix</text>
</g>
<!-- p11&#45;&gt;p18 -->
<g id="edge16" class="edge"><title>p11&#45;&gt;p18</title>
<path fill="none" stroke="black" d="M619.632,-1314.26C623.079,-1298.53 638.064,-1219.12 599,-1180 561.264,-1142.21 384.736,-1139.07 334.418,-1138.95"/>
<polygon fill="black" stroke="black" points="334.315,-1135.45 324.321,-1138.97 334.328,-1142.45 334.315,-1135.45"/>
<text text-anchor="middle" x="665" y="-1238.3" font-family="Times,serif" font-size="14.00">version_ch</text>
</g>
<!-- p8 -->
<g id="node12" class="node"><title>p8</title>
<ellipse fill="black" stroke="black" cx="347" cy="-1466" rx="3.6" ry="3.6"/>
</g>
<!-- p10 -->
<g id="node13" class="node"><title>p10</title>
<ellipse fill="none" stroke="black" cx="377" cy="-1392" rx="265.24" ry="18"/>
<text text-anchor="middle" x="377" y="-1388.3" font-family="Times,serif" font-size="14.00">MT_CALLING:SAMTOOLS_SAMPLES_01:SQRT_FILE</text>
</g>
<!-- p8&#45;&gt;p10 -->
<g id="edge12" class="edge"><title>p8&#45;&gt;p10</title>
<path fill="none" stroke="black" d="M346.474,-1462.19C345.412,-1455.85 343.479,-1440.03 348,-1428 349.26,-1424.65 350.984,-1421.39 352.968,-1418.28"/>
<polygon fill="black" stroke="black" points="355.938,-1420.16 359.081,-1410.04 350.314,-1415.99 355.938,-1420.16"/>
<text text-anchor="middle" x="366.5" y="-1432.3" font-family="Times,serif" font-size="14.00">meta</text>
</g>
<!-- p12 -->
<g id="node15" class="node"><title>p12</title>
<ellipse fill="none" stroke="black" cx="377" cy="-1318" rx="3.25" ry="3.5"/>
<text text-anchor="middle" x="341.5" y="-1325.3" font-family="Times,serif" font-size="14.00">splitText</text>
</g>
<!-- p10&#45;&gt;p12 -->
<g id="edge14" class="edge"><title>p10&#45;&gt;p12</title>
<path fill="none" stroke="black" d="M377,-1373.94C377,-1361.13 377,-1343.84 377,-1332.11"/>
<polygon fill="black" stroke="black" points="380.5,-1331.75 377,-1321.75 373.5,-1331.75 380.5,-1331.75"/>
</g>
<!-- p10&#45;&gt;p11 -->
<g id="edge15" class="edge"><title>p10&#45;&gt;p11</title>
<path fill="none" stroke="black" d="M432.824,-1374.39C490.002,-1357.38 574.857,-1332.13 606.504,-1322.72"/>
<polygon fill="black" stroke="black" points="607.519,-1326.07 616.106,-1319.86 605.523,-1319.36 607.519,-1326.07"/>
</g>
<!-- p9 -->
<g id="node14" class="node"><title>p9</title>
<ellipse fill="black" stroke="black" cx="407" cy="-1466" rx="3.6" ry="3.6"/>
</g>
<!-- p9&#45;&gt;p10 -->
<g id="edge13" class="edge"><title>p9&#45;&gt;p10</title>
<path fill="none" stroke="black" d="M405.861,-1462.27C402.926,-1455.22 394.858,-1435.86 387.996,-1419.39"/>
<polygon fill="black" stroke="black" points="391.22,-1418.03 384.143,-1410.14 384.758,-1420.72 391.22,-1418.03"/>
<text text-anchor="middle" x="417.5" y="-1432.3" font-family="Times,serif" font-size="14.00">filein</text>
</g>
<!-- p13 -->
<g id="node17" class="node"><title>p13</title>
<ellipse fill="none" stroke="black" cx="377" cy="-1272" rx="3.25" ry="3.5"/>
<text text-anchor="middle" x="358" y="-1279.3" font-family="Times,serif" font-size="14.00">map</text>
</g>
<!-- p12&#45;&gt;p13 -->
<g id="edge17" class="edge"><title>p12&#45;&gt;p13</title>
<path fill="none" stroke="black" d="M377,-1314.38C377,-1308.86 377,-1295.74 377,-1285.74"/>
<polygon fill="black" stroke="black" points="380.5,-1285.55 377,-1275.55 373.5,-1285.55 380.5,-1285.55"/>
</g>
<!-- p22 -->
<g id="node23" class="node"><title>p22</title>
<ellipse fill="none" stroke="black" cx="341" cy="-976" rx="3.25" ry="3.5"/>
<text text-anchor="middle" x="324" y="-983.3" font-family="Times,serif" font-size="14.00">mix</text>
</g>
<!-- p18&#45;&gt;p22 -->
<g id="edge24" class="edge"><title>p18&#45;&gt;p22</title>
<path fill="none" stroke="black" d="M320.938,-1134.48C320.749,-1126.68 320.184,-1102.25 320,-1082 319.855,-1066 317.645,-1061.83 320,-1046 323.048,-1025.52 330.921,-1002.7 336.114,-989.118"/>
<polygon fill="black" stroke="black" points="339.469,-990.153 339.914,-979.568 332.965,-987.566 339.469,-990.153"/>
<text text-anchor="middle" x="359" y="-1060.3" font-family="Times,serif" font-size="14.00">version_ch</text>
</g>
<!-- p17 -->
<g id="node18" class="node"><title>p17</title>
<ellipse fill="none" stroke="black" cx="321" cy="-1198" rx="269.589" ry="18"/>
<text text-anchor="middle" x="321" y="-1194.3" font-family="Times,serif" font-size="14.00">MT_CALLING:SAMTOOLS_SAMPLES_01:ST_SAMPLE</text>
</g>
<!-- p13&#45;&gt;p17 -->
<g id="edge18" class="edge"><title>p13&#45;&gt;p17</title>
<path fill="none" stroke="black" d="M375.793,-1268.54C372.737,-1262.41 364.271,-1246.1 355,-1234 352.26,-1230.42 349.191,-1226.82 346.048,-1223.36"/>
<polygon fill="black" stroke="black" points="348.564,-1220.93 339.148,-1216.07 343.48,-1225.74 348.564,-1220.93"/>
<text text-anchor="middle" x="401" y="-1238.3" font-family="Times,serif" font-size="14.00">chunk_ch</text>
</g>
<!-- p19 -->
<g id="node22" class="node"><title>p19</title>
<ellipse fill="none" stroke="black" cx="652" cy="-1138" rx="3.25" ry="3.5"/>
<text text-anchor="middle" x="624" y="-1145.3" font-family="Times,serif" font-size="14.00">collect</text>
</g>
<!-- p17&#45;&gt;p19 -->
<g id="edge22" class="edge"><title>p17&#45;&gt;p19</title>
<path fill="none" stroke="black" d="M412.323,-1181C492.433,-1166.96 601.777,-1147.8 638.99,-1141.28"/>
<polygon fill="black" stroke="black" points="639.732,-1144.7 648.978,-1139.53 638.524,-1137.81 639.732,-1144.7"/>
</g>
<!-- p17&#45;&gt;p18 -->
<g id="edge23" class="edge"><title>p17&#45;&gt;p18</title>
<path fill="none" stroke="black" d="M321,-1179.91C321,-1170.96 321,-1160.19 321,-1151.94"/>
<polygon fill="black" stroke="black" points="324.5,-1151.69 321,-1141.69 317.5,-1151.69 324.5,-1151.69"/>
</g>
<!-- p14 -->
<g id="node19" class="node"><title>p14</title>
<ellipse fill="black" stroke="black" cx="470" cy="-1272" rx="3.6" ry="3.6"/>
</g>
<!-- p14&#45;&gt;p17 -->
<g id="edge19" class="edge"><title>p14&#45;&gt;p17</title>
<path fill="none" stroke="black" d="M468.741,-1268.59C465.173,-1262 454.314,-1243.54 440,-1234 430.944,-1227.97 420.827,-1222.95 410.421,-1218.79"/>
<polygon fill="black" stroke="black" points="411.397,-1215.41 400.804,-1215.2 408.949,-1221.97 411.397,-1215.41"/>
<text text-anchor="middle" x="474.5" y="-1238.3" font-family="Times,serif" font-size="14.00">meta</text>
</g>
<!-- p15 -->
<g id="node20" class="node"><title>p15</title>
<ellipse fill="black" stroke="black" cx="184" cy="-1272" rx="3.6" ry="3.6"/>
</g>
<!-- p15&#45;&gt;p17 -->
<g id="edge20" class="edge"><title>p15&#45;&gt;p17</title>
<path fill="none" stroke="black" d="M184.468,-1268.21C185.769,-1261.32 190.082,-1243.42 201,-1234 207.745,-1228.18 215.412,-1223.33 223.532,-1219.28"/>
<polygon fill="black" stroke="black" points="225.207,-1222.36 232.868,-1215.04 222.315,-1215.99 225.207,-1222.36"/>
<text text-anchor="middle" x="236" y="-1238.3" font-family="Times,serif" font-size="14.00">reference</text>
</g>
<!-- p16 -->
<g id="node21" class="node"><title>p16</title>
<ellipse fill="black" stroke="black" cx="277" cy="-1272" rx="3.6" ry="3.6"/>
</g>
<!-- p16&#45;&gt;p17 -->
<g id="edge21" class="edge"><title>p16&#45;&gt;p17</title>
<path fill="none" stroke="black" d="M276.308,-1268.12C274.907,-1261.63 272.325,-1245.53 278,-1234 279.913,-1230.11 282.481,-1226.51 285.417,-1223.22"/>
<polygon fill="black" stroke="black" points="288.036,-1225.55 292.794,-1216.09 283.171,-1220.52 288.036,-1225.55"/>
<text text-anchor="middle" x="316.5" y="-1238.3" font-family="Times,serif" font-size="14.00">references</text>
</g>
<!-- p21 -->
<g id="node24" class="node"><title>p21</title>
<ellipse fill="none" stroke="black" cx="655" cy="-1064" rx="247.917" ry="18"/>
<text text-anchor="middle" x="655" y="-1060.3" font-family="Times,serif" font-size="14.00">MT_CALLING:SAMTOOLS_SAMPLES_01:DIGEST</text>
</g>
<!-- p19&#45;&gt;p21 -->
<g id="edge25" class="edge"><title>p19&#45;&gt;p21</title>
<path fill="none" stroke="black" d="M652.114,-1134.27C652.402,-1127.35 653.184,-1108.58 653.862,-1092.32"/>
<polygon fill="black" stroke="black" points="657.366,-1092.28 654.286,-1082.14 650.372,-1091.99 657.366,-1092.28"/>
</g>
<!-- p23 -->
<g id="node27" class="node"><title>p23</title>
<ellipse fill="none" stroke="black" cx="341" cy="-888" rx="3.25" ry="3.5"/>
<text text-anchor="middle" x="313" y="-895.3" font-family="Times,serif" font-size="14.00">collect</text>
</g>
<!-- p22&#45;&gt;p23 -->
<g id="edge29" class="edge"><title>p22&#45;&gt;p23</title>
<path fill="none" stroke="black" d="M341,-972.139C341,-961.281 341,-922.206 341,-901.727"/>
<polygon fill="black" stroke="black" points="344.5,-901.615 341,-891.615 337.5,-901.615 344.5,-901.615"/>
<text text-anchor="middle" x="380" y="-928.3" font-family="Times,serif" font-size="14.00">version_ch</text>
</g>
<!-- p29 -->
<g id="node26" class="node"><title>p29</title>
<ellipse fill="none" stroke="black" cx="603" cy="-712" rx="3.25" ry="3.5"/>
<text text-anchor="middle" x="570" y="-697.3" font-family="Times,serif" font-size="14.00">splitCsv</text>
</g>
<!-- p21&#45;&gt;p29 -->
<g id="edge27" class="edge"><title>p21&#45;&gt;p29</title>
<path fill="none" stroke="black" d="M655,-1045.87C655,-1028.51 655,-1000.89 655,-977 655,-977 655,-977 655,-799 655,-775.495 654.414,-767.302 641,-748 633.186,-736.757 625.82,-739.541 616,-730 614.095,-728.149 612.24,-726.006 610.555,-723.878"/>
<polygon fill="black" stroke="black" points="613.305,-721.706 604.641,-715.608 607.611,-725.778 613.305,-721.706"/>
<text text-anchor="middle" x="679" y="-884.3" font-family="Times,serif" font-size="14.00">output</text>
</g>
<!-- p21&#45;&gt;p22 -->
<g id="edge28" class="edge"><title>p21&#45;&gt;p22</title>
<path fill="none" stroke="black" d="M594.829,-1046.52C518.985,-1025.75 393.68,-991.428 353.684,-980.474"/>
<polygon fill="black" stroke="black" points="354.436,-977.051 343.867,-977.785 352.587,-983.802 354.436,-977.051"/>
</g>
<!-- p20 -->
<g id="node25" class="node"><title>p20</title>
<ellipse fill="black" stroke="black" cx="603" cy="-1138" rx="3.6" ry="3.6"/>
</g>
<!-- p20&#45;&gt;p21 -->
<g id="edge26" class="edge"><title>p20&#45;&gt;p21</title>
<path fill="none" stroke="black" d="M603.09,-1134.07C603.419,-1127.47 604.942,-1111.18 612,-1100 614.563,-1095.94 617.759,-1092.13 621.245,-1088.64"/>
<polygon fill="black" stroke="black" points="623.619,-1091.21 628.696,-1081.91 618.928,-1086.01 623.619,-1091.21"/>
<text text-anchor="middle" x="630.5" y="-1104.3" font-family="Times,serif" font-size="14.00">meta</text>
</g>
<!-- p34 -->
<g id="node33" class="node"><title>p34</title>
<ellipse fill="none" stroke="black" cx="603" cy="-624" rx="208.447" ry="18"/>
<text text-anchor="middle" x="603" y="-620.3" font-family="Times,serif" font-size="14.00">MT_CALLING:COLLECT_WGS_METRICS</text>
</g>
<!-- p29&#45;&gt;p34 -->
<g id="edge36" class="edge"><title>p29&#45;&gt;p34</title>
<path fill="none" stroke="black" d="M603,-708.139C603,-699.502 603,-673.011 603,-652.227"/>
<polygon fill="black" stroke="black" points="606.5,-652.004 603,-642.004 599.5,-652.004 606.5,-652.004"/>
<text text-anchor="middle" x="639.5" y="-664.3" font-family="Times,serif" font-size="14.00">each_bam</text>
</g>
<!-- p29&#45;&gt;p38 -->
<g id="edge47" class="edge"><title>p29&#45;&gt;p38</title>
<path fill="none" stroke="black" d="M604.083,-708.499C605.909,-704.625 609.999,-697.275 616,-694 659.251,-670.394 788.395,-684.093 837,-676 865.497,-671.255 871.776,-666.163 900,-660 930.479,-653.345 963.88,-646.928 994.108,-641.446"/>
<polygon fill="black" stroke="black" points="995.008,-644.841 1004.23,-639.624 993.768,-637.952 995.008,-644.841"/>
<text text-anchor="middle" x="936.5" y="-664.3" font-family="Times,serif" font-size="14.00">each_bam</text>
</g>
<!-- p27 -->
<g id="node28" class="node"><title>p27</title>
<ellipse fill="none" stroke="black" cx="298" cy="-800" rx="298.46" ry="18"/>
<text text-anchor="middle" x="298" y="-796.3" font-family="Times,serif" font-size="14.00">MT_CALLING:SAMTOOLS_SAMPLES_01:MERGE_VERSION</text>
</g>
<!-- p23&#45;&gt;p27 -->
<g id="edge30" class="edge"><title>p23&#45;&gt;p27</title>
<path fill="none" stroke="black" d="M340.638,-884.08C339.549,-876.021 335.818,-852.941 327,-836 325.258,-832.653 323.155,-829.336 320.887,-826.153"/>
<polygon fill="black" stroke="black" points="323.536,-823.858 314.631,-818.117 318.012,-828.158 323.536,-823.858"/>
</g>
<!-- p27&#45;&gt;p28 -->
<g id="edge34" class="edge"><title>p27&#45;&gt;p28</title>
<path fill="none" stroke="black" d="M416.331,-783.444C461.575,-773.408 511.89,-756.949 552,-730 554.394,-728.392 556.531,-726.196 558.348,-723.916"/>
<polygon fill="black" stroke="black" points="561.376,-725.677 563.84,-715.373 555.488,-721.892 561.376,-725.677"/>
</g>
<!-- p24 -->
<g id="node29" class="node"><title>p24</title>
<ellipse fill="black" stroke="black" cx="289" cy="-888" rx="3.6" ry="3.6"/>
</g>
<!-- p24&#45;&gt;p27 -->
<g id="edge31" class="edge"><title>p24&#45;&gt;p27</title>
<path fill="none" stroke="black" d="M288.856,-884.222C288.498,-876.524 287.755,-854.283 290,-836 290.312,-833.456 290.731,-830.826 291.213,-828.203"/>
<polygon fill="black" stroke="black" points="294.658,-828.83 293.301,-818.322 287.809,-827.382 294.658,-828.83"/>
<text text-anchor="middle" x="308.5" y="-840.3" font-family="Times,serif" font-size="14.00">meta</text>
</g>
<!-- p25 -->
<g id="node30" class="node"><title>p25</title>
<ellipse fill="black" stroke="black" cx="374" cy="-888" rx="3.6" ry="3.6"/>
</g>
<!-- p25&#45;&gt;p27 -->
<g id="edge32" class="edge"><title>p25&#45;&gt;p27</title>
<path fill="none" stroke="black" d="M372.992,-884.432C369.804,-876.537 359.301,-852.179 345,-836 341.378,-831.903 337.206,-827.983 332.873,-824.347"/>
<polygon fill="black" stroke="black" points="335.006,-821.572 324.985,-818.132 330.673,-827.07 335.006,-821.572"/>
<text text-anchor="middle" x="377" y="-840.3" font-family="Times,serif" font-size="14.00">name</text>
</g>
<!-- p26 -->
<g id="node31" class="node"><title>p26</title>
<ellipse fill="black" stroke="black" cx="184" cy="-888" rx="3.6" ry="3.6"/>
</g>
<!-- p26&#45;&gt;p27 -->
<g id="edge33" class="edge"><title>p26&#45;&gt;p27</title>
<path fill="none" stroke="black" d="M184.233,-884.251C185.092,-875.835 188.81,-850.138 203,-836 208.307,-830.712 214.481,-826.214 221.085,-822.391"/>
<polygon fill="black" stroke="black" points="223.064,-825.307 230.317,-817.584 219.831,-819.098 223.064,-825.307"/>
<text text-anchor="middle" x="244" y="-840.3" font-family="Times,serif" font-size="14.00">description</text>
</g>
<!-- p36 -->
<g id="node36" class="node"><title>p36</title>
<ellipse fill="none" stroke="black" cx="810" cy="-550" rx="3.25" ry="3.5"/>
<text text-anchor="middle" x="793" y="-557.3" font-family="Times,serif" font-size="14.00">mix</text>
</g>
<!-- p32&#45;&gt;p36 -->
<g id="edge40" class="edge"><title>p32&#45;&gt;p36</title>
<path fill="none" stroke="black" d="M831.501,-620.557C828.159,-614.998 820.076,-600.881 816,-588 813.515,-580.148 812.021,-571.016 811.145,-563.789"/>
<polygon fill="black" stroke="black" points="814.621,-563.371 810.172,-553.756 807.654,-564.047 814.621,-563.371"/>
<text text-anchor="middle" x="855" y="-576.3" font-family="Times,serif" font-size="14.00">version_ch</text>
</g>
<!-- p35 -->
<g id="node38" class="node"><title>p35</title>
<ellipse fill="black" stroke="black" cx="646" cy="-550" rx="1.8" ry="1.8"/>
</g>
<!-- p34&#45;&gt;p35 -->
<g id="edge42" class="edge"><title>p34&#45;&gt;p35</title>
<path fill="none" stroke="black" d="M613.19,-605.937C621.653,-591.767 633.384,-572.125 640.284,-560.571"/>
<polygon fill="black" stroke="black" points="643.37,-562.229 645.493,-551.849 637.36,-558.64 643.37,-562.229"/>
</g>
<!-- p34&#45;&gt;p36 -->
<g id="edge43" class="edge"><title>p34&#45;&gt;p36</title>
<path fill="none" stroke="black" d="M650.75,-606.391C698.593,-589.75 769.091,-565.229 797.479,-555.355"/>
<polygon fill="black" stroke="black" points="798.81,-558.598 807.105,-552.007 796.51,-551.986 798.81,-558.598"/>
</g>
<!-- p30 -->
<g id="node34" class="node"><title>p30</title>
<ellipse fill="black" stroke="black" cx="844" cy="-800" rx="3.6" ry="3.6"/>
</g>
<!-- p31 -->
<g id="node35" class="node"><title>p31</title>
<ellipse fill="none" stroke="black" cx="844" cy="-712" rx="219.046" ry="18"/>
<text text-anchor="middle" x="844" y="-708.3" font-family="Times,serif" font-size="14.00">MT_CALLING:DOWNLOAD_HAPLOCHECK</text>
</g>
<!-- p30&#45;&gt;p31 -->
<g id="edge37" class="edge"><title>p30&#45;&gt;p31</title>
<path fill="none" stroke="black" d="M844,-796.139C844,-787.502 844,-761.011 844,-740.227"/>
<polygon fill="black" stroke="black" points="847.5,-740.004 844,-730.004 840.5,-740.004 847.5,-740.004"/>
<text text-anchor="middle" x="862.5" y="-752.3" font-family="Times,serif" font-size="14.00">meta</text>
</g>
<!-- p31&#45;&gt;p38 -->
<g id="edge38" class="edge"><title>p31&#45;&gt;p38</title>
<path fill="none" stroke="black" d="M914.023,-694.86C934.529,-689.521 956.847,-683.106 977,-676 1000.94,-667.559 1026.82,-656.173 1047.87,-646.3"/>
<polygon fill="black" stroke="black" points="1049.64,-649.335 1057.17,-641.887 1046.64,-643.01 1049.64,-649.335"/>
</g>
<!-- p31&#45;&gt;p32 -->
<g id="edge39" class="edge"><title>p31&#45;&gt;p32</title>
<path fill="none" stroke="black" d="M841.774,-693.597C839.657,-677.046 836.523,-652.54 834.629,-637.737"/>
<polygon fill="black" stroke="black" points="838.082,-637.146 833.342,-627.671 831.139,-638.034 838.082,-637.146"/>
</g>
<!-- p36&#45;&gt;p40 -->
<g id="edge44" class="edge"><title>p36&#45;&gt;p40</title>
<path fill="none" stroke="black" d="M810,-546.265C810,-537.133 810,-507.282 810,-489.892"/>
<polygon fill="black" stroke="black" points="813.5,-489.737 810,-479.737 806.5,-489.737 813.5,-489.737"/>
<text text-anchor="middle" x="849" y="-516.3" font-family="Times,serif" font-size="14.00">version_ch</text>
</g>
<!-- p33 -->
<g id="node37" class="node"><title>p33</title>
<ellipse fill="black" stroke="black" cx="540" cy="-712" rx="3.6" ry="3.6"/>
</g>
<!-- p33&#45;&gt;p34 -->
<g id="edge41" class="edge"><title>p33&#45;&gt;p34</title>
<path fill="none" stroke="black" d="M540.651,-708.456C542.74,-700.63 549.862,-676.449 562,-660 564.837,-656.155 568.174,-652.451 571.698,-648.985"/>
<polygon fill="black" stroke="black" points="574.067,-651.562 579.095,-642.236 569.348,-646.391 574.067,-651.562"/>
<text text-anchor="middle" x="580.5" y="-664.3" font-family="Times,serif" font-size="14.00">meta</text>
</g>
<!-- p46 -->
<g id="node45" class="node"><title>p46</title>
<ellipse fill="none" stroke="black" cx="810" cy="-402" rx="3.25" ry="3.5"/>
<text text-anchor="middle" x="793" y="-409.3" font-family="Times,serif" font-size="14.00">mix</text>
</g>
<!-- p40&#45;&gt;p46 -->
<g id="edge53" class="edge"><title>p40&#45;&gt;p46</title>
<path fill="none" stroke="black" d="M810,-472.265C810,-463.133 810,-433.282 810,-415.892"/>
<polygon fill="black" stroke="black" points="813.5,-415.737 810,-405.737 806.5,-415.737 813.5,-415.737"/>
<text text-anchor="middle" x="849" y="-428.3" font-family="Times,serif" font-size="14.00">version_ch</text>
</g>
<!-- p37 -->
<g id="node40" class="node"><title>p37</title>
<ellipse fill="black" stroke="black" cx="1170" cy="-712" rx="3.6" ry="3.6"/>
</g>
<!-- p37&#45;&gt;p38 -->
<g id="edge45" class="edge"><title>p37&#45;&gt;p38</title>
<path fill="none" stroke="black" d="M1169.46,-708.368C1167.69,-700.288 1161.38,-675.454 1148,-660 1144.06,-655.445 1139.37,-651.298 1134.4,-647.582"/>
<polygon fill="black" stroke="black" points="1136.09,-644.496 1125.86,-641.737 1132.14,-650.273 1136.09,-644.496"/>
<text text-anchor="middle" x="1176.5" y="-664.3" font-family="Times,serif" font-size="14.00">meta</text>
</g>
<!-- p43 -->
<g id="node46" class="node"><title>p43</title>
<ellipse fill="none" stroke="black" cx="660" cy="-476" rx="128.533" ry="18"/>
<text text-anchor="middle" x="660" y="-472.3" font-family="Times,serif" font-size="14.00">MT_CALLING:ZIP_BCFS</text>
</g>
<!-- p41&#45;&gt;p43 -->
<g id="edge54" class="edge"><title>p41&#45;&gt;p43</title>
<path fill="none" stroke="black" d="M872.095,-548.162C862.575,-545.405 831.472,-536.321 806,-528 775.294,-517.969 741.201,-506.102 713.688,-496.34"/>
<polygon fill="black" stroke="black" points="714.842,-493.035 704.247,-492.981 712.496,-499.631 714.842,-493.035"/>
</g>
<!-- p49 -->
<g id="node51" class="node"><title>p49</title>
<ellipse fill="none" stroke="black" cx="980" cy="-476" rx="148.256" ry="18"/>
<text text-anchor="middle" x="980" y="-472.3" font-family="Times,serif" font-size="14.00">MT_CALLING:MERGE_PDFS</text>
</g>
<!-- p47&#45;&gt;p49 -->
<g id="edge60" class="edge"><title>p47&#45;&gt;p49</title>
<path fill="none" stroke="black" d="M1073.63,-547.22C1065,-540.75 1034.56,-517.92 1010.7,-500.026"/>
<polygon fill="black" stroke="black" points="1012.68,-497.138 1002.58,-493.938 1008.48,-502.738 1012.68,-497.138"/>
</g>
<!-- p54 -->
<g id="node55" class="node"><title>p54</title>
<ellipse fill="none" stroke="black" cx="1341" cy="-476" rx="193.999" ry="18"/>
<text text-anchor="middle" x="1341" y="-472.3" font-family="Times,serif" font-size="14.00">MT_CALLING:MERGE_HAPLOCHECK</text>
</g>
<!-- p52&#45;&gt;p54 -->
<g id="edge65" class="edge"><title>p52&#45;&gt;p54</title>
<path fill="none" stroke="black" d="M1107,-548.09C1124.42,-542.797 1214.06,-515.563 1277.19,-496.386"/>
<polygon fill="black" stroke="black" points="1278.53,-499.638 1287.08,-493.382 1276.49,-492.94 1278.53,-499.638"/>
</g>
<!-- p51 -->
<g id="node50" class="node"><title>p51</title>
<ellipse fill="none" stroke="black" cx="963" cy="-342" rx="3.25" ry="3.5"/>
<text text-anchor="middle" x="946" y="-349.3" font-family="Times,serif" font-size="14.00">mix</text>
</g>
<!-- p46&#45;&gt;p51 -->
<g id="edge59" class="edge"><title>p46&#45;&gt;p51</title>
<path fill="none" stroke="black" d="M812.186,-399.308C819.824,-393.479 846.203,-374.043 871,-364 897.767,-353.159 931.292,-347.291 949.577,-344.687"/>
<polygon fill="black" stroke="black" points="950.246,-348.13 959.709,-343.365 949.34,-341.189 950.246,-348.13"/>
<text text-anchor="middle" x="910" y="-368.3" font-family="Times,serif" font-size="14.00">version_ch</text>
</g>
<!-- p45 -->
<g id="node48" class="node"><title>p45</title>
<ellipse fill="black" stroke="black" cx="637" cy="-402" rx="1.8" ry="1.8"/>
</g>
<!-- p43&#45;&gt;p45 -->
<g id="edge56" class="edge"><title>p43&#45;&gt;p45</title>
<path fill="none" stroke="black" d="M646.838,-458.092C643.294,-452.617 639.914,-446.319 638,-440 635.457,-431.605 635.342,-421.643 635.788,-414.172"/>
<polygon fill="black" stroke="black" points="639.299,-414.251 636.847,-403.944 632.336,-413.53 639.299,-414.251"/>
<text text-anchor="middle" x="649.5" y="-428.3" font-family="Times,serif" font-size="14.00">list</text>
</g>
<!-- p44 -->
<g id="node49" class="node"><title>p44</title>
<ellipse fill="black" stroke="black" cx="683" cy="-402" rx="1.8" ry="1.8"/>
</g>
<!-- p43&#45;&gt;p44 -->
<g id="edge57" class="edge"><title>p43&#45;&gt;p44</title>
<path fill="none" stroke="black" d="M665.451,-457.937C669.833,-444.219 675.853,-425.373 679.582,-413.701"/>
<polygon fill="black" stroke="black" points="683.02,-414.44 682.729,-403.849 676.352,-412.31 683.02,-414.44"/>
<text text-anchor="middle" x="688" y="-428.3" font-family="Times,serif" font-size="14.00">zip</text>
</g>
<!-- p43&#45;&gt;p46 -->
<g id="edge58" class="edge"><title>p43&#45;&gt;p46</title>
<path fill="none" stroke="black" d="M694.413,-458.482C727.553,-442.575 775.821,-419.406 798.018,-408.751"/>
<polygon fill="black" stroke="black" points="799.72,-411.817 807.221,-404.334 796.691,-405.506 799.72,-411.817"/>
</g>
<!-- p42 -->
<g id="node47" class="node"><title>p42</title>
<ellipse fill="black" stroke="black" cx="623" cy="-550" rx="3.6" ry="3.6"/>
</g>
<!-- p42&#45;&gt;p43 -->
<g id="edge55" class="edge"><title>p42&#45;&gt;p43</title>
<path fill="none" stroke="black" d="M624.231,-546.604C627.722,-539.81 637.995,-519.821 646.64,-502.997"/>
<polygon fill="black" stroke="black" points="649.765,-504.574 651.223,-494.08 643.539,-501.375 649.765,-504.574"/>
<text text-anchor="middle" x="660.5" y="-516.3" font-family="Times,serif" font-size="14.00">meta</text>
</g>
<!-- p56 -->
<g id="node54" class="node"><title>p56</title>
<ellipse fill="none" stroke="black" cx="1223" cy="-282" rx="3.25" ry="3.5"/>
<text text-anchor="middle" x="1206" y="-289.3" font-family="Times,serif" font-size="14.00">mix</text>
</g>
<!-- p51&#45;&gt;p56 -->
<g id="edge64" class="edge"><title>p51&#45;&gt;p56</title>
<path fill="none" stroke="black" d="M965.92,-340.349C990.4,-334.888 1161.74,-296.666 1210.24,-285.847"/>
<polygon fill="black" stroke="black" points="1211.1,-289.24 1220.1,-283.646 1209.58,-282.408 1211.1,-289.24"/>
<text text-anchor="middle" x="1163" y="-308.3" font-family="Times,serif" font-size="14.00">version_ch</text>
</g>
<!-- p50 -->
<g id="node53" class="node"><title>p50</title>
<ellipse fill="black" stroke="black" cx="996" cy="-402" rx="1.8" ry="1.8"/>
</g>
<!-- p49&#45;&gt;p50 -->
<g id="edge62" class="edge"><title>p49&#45;&gt;p50</title>
<path fill="none" stroke="black" d="M983.792,-457.937C986.84,-444.219 991.028,-425.373 993.622,-413.701"/>
<polygon fill="black" stroke="black" points="997.059,-414.37 995.811,-403.849 990.225,-412.852 997.059,-414.37"/>
<text text-anchor="middle" x="1004" y="-428.3" font-family="Times,serif" font-size="14.00">pdf</text>
</g>
<!-- p49&#45;&gt;p51 -->
<g id="edge63" class="edge"><title>p49&#45;&gt;p51</title>
<path fill="none" stroke="black" d="M977.778,-457.743C974.315,-430.856 967.711,-379.583 964.643,-355.757"/>
<polygon fill="black" stroke="black" points="968.093,-355.145 963.344,-345.674 961.15,-356.039 968.093,-355.145"/>
</g>
<!-- p48 -->
<g id="node52" class="node"><title>p48</title>
<ellipse fill="black" stroke="black" cx="980" cy="-550" rx="3.6" ry="3.6"/>
</g>
<!-- p48&#45;&gt;p49 -->
<g id="edge61" class="edge"><title>p48&#45;&gt;p49</title>
<path fill="none" stroke="black" d="M980,-546.265C980,-539.354 980,-520.578 980,-504.316"/>
<polygon fill="black" stroke="black" points="983.5,-504.143 980,-494.143 976.5,-504.143 983.5,-504.143"/>
<text text-anchor="middle" x="998.5" y="-516.3" font-family="Times,serif" font-size="14.00">meta</text>
</g>
<!-- p57 -->
<g id="node58" class="node"><title>p57</title>
<ellipse fill="none" stroke="black" cx="1223" cy="-222" rx="3.25" ry="3.5"/>
<text text-anchor="middle" x="1195" y="-229.3" font-family="Times,serif" font-size="14.00">collect</text>
</g>
<!-- p56&#45;&gt;p57 -->
<g id="edge69" class="edge"><title>p56&#45;&gt;p57</title>
<path fill="none" stroke="black" d="M1223,-278.203C1223,-270.649 1223,-249.48 1223,-235.66"/>
<polygon fill="black" stroke="black" points="1226.5,-235.636 1223,-225.636 1219.5,-235.636 1226.5,-235.636"/>
<text text-anchor="middle" x="1262" y="-248.3" font-family="Times,serif" font-size="14.00">version_ch</text>
</g>
<!-- p55 -->
<g id="node57" class="node"><title>p55</title>
<ellipse fill="black" stroke="black" cx="1244" cy="-402" rx="1.8" ry="1.8"/>
</g>
<!-- p54&#45;&gt;p55 -->
<g id="edge67" class="edge"><title>p54&#45;&gt;p55</title>
<path fill="none" stroke="black" d="M1267.87,-459.308C1258.95,-454.492 1250.91,-448.205 1245,-440 1239.61,-432.517 1239.95,-421.797 1241.29,-413.821"/>
<polygon fill="black" stroke="black" points="1244.7,-414.584 1243.65,-404.042 1237.9,-412.941 1244.7,-414.584"/>
<text text-anchor="middle" x="1286" y="-428.3" font-family="Times,serif" font-size="14.00">haplocheck</text>
</g>
<!-- p54&#45;&gt;p56 -->
<g id="edge68" class="edge"><title>p54&#45;&gt;p56</title>
<path fill="none" stroke="black" d="M1337.95,-457.902C1335.74,-447.723 1332.21,-434.739 1327,-424 1300.52,-369.416 1252.17,-314.297 1232.1,-292.61"/>
<polygon fill="black" stroke="black" points="1234.46,-290.003 1225.06,-285.12 1229.36,-294.801 1234.46,-290.003"/>
</g>
<!-- p53 -->
<g id="node56" class="node"><title>p53</title>
<ellipse fill="black" stroke="black" cx="1258" cy="-550" rx="3.6" ry="3.6"/>
</g>
<!-- p53&#45;&gt;p54 -->
<g id="edge66" class="edge"><title>p53&#45;&gt;p54</title>
<path fill="none" stroke="black" d="M1260.39,-546.923C1268.18,-540.165 1293.47,-518.231 1313.67,-500.71"/>
<polygon fill="black" stroke="black" points="1316.13,-503.208 1321.39,-494.012 1311.54,-497.921 1316.13,-503.208"/>
<text text-anchor="middle" x="1318.5" y="-516.3" font-family="Times,serif" font-size="14.00">meta</text>
</g>
<!-- p61 -->
<g id="node59" class="node"><title>p61</title>
<ellipse fill="none" stroke="black" cx="1286" cy="-148" rx="168.478" ry="18"/>
<text text-anchor="middle" x="1286" y="-144.3" font-family="Times,serif" font-size="14.00">MT_CALLING:MERGE_VERSION</text>
</g>
<!-- p57&#45;&gt;p61 -->
<g id="edge70" class="edge"><title>p57&#45;&gt;p61</title>
<path fill="none" stroke="black" d="M1224.66,-218.574C1228.83,-212.529 1240.21,-196.392 1251,-184 1254.07,-180.479 1257.41,-176.875 1260.77,-173.383"/>
<polygon fill="black" stroke="black" points="1263.53,-175.568 1268.07,-165.991 1258.55,-170.651 1263.53,-175.568"/>
</g>
<!-- p63 -->
<g id="node63" class="node"><title>p63</title>
<ellipse fill="none" stroke="black" cx="1421" cy="-60" rx="111.186" ry="18"/>
<text text-anchor="middle" x="1421" y="-56.3" font-family="Times,serif" font-size="14.00">VERSION_TO_HTML</text>
</g>
<!-- p61&#45;&gt;p63 -->
<g id="edge74" class="edge"><title>p61&#45;&gt;p63</title>
<path fill="none" stroke="black" d="M1312.35,-130.214C1333.44,-116.777 1363.2,-97.8181 1386.25,-83.1393"/>
<polygon fill="black" stroke="black" points="1388.16,-86.0682 1394.72,-77.7435 1384.4,-80.1644 1388.16,-86.0682"/>
</g>
<!-- p58 -->
<g id="node60" class="node"><title>p58</title>
<ellipse fill="black" stroke="black" cx="1256" cy="-222" rx="3.6" ry="3.6"/>
</g>
<!-- p58&#45;&gt;p61 -->
<g id="edge71" class="edge"><title>p58&#45;&gt;p61</title>
<path fill="none" stroke="black" d="M1255.47,-218.19C1254.41,-211.846 1252.48,-196.03 1257,-184 1258.26,-180.648 1259.98,-177.385 1261.97,-174.284"/>
<polygon fill="black" stroke="black" points="1264.94,-176.156 1268.08,-166.038 1259.31,-171.987 1264.94,-176.156"/>
<text text-anchor="middle" x="1275.5" y="-188.3" font-family="Times,serif" font-size="14.00">meta</text>
</g>
<!-- p59 -->
<g id="node61" class="node"><title>p59</title>
<ellipse fill="black" stroke="black" cx="1316" cy="-222" rx="3.6" ry="3.6"/>
</g>
<!-- p59&#45;&gt;p61 -->
<g id="edge72" class="edge"><title>p59&#45;&gt;p61</title>
<path fill="none" stroke="black" d="M1314.86,-218.265C1311.93,-211.222 1303.86,-191.859 1297,-175.39"/>
<polygon fill="black" stroke="black" points="1300.22,-174.027 1293.14,-166.143 1293.76,-176.72 1300.22,-174.027"/>
<text text-anchor="middle" x="1328" y="-188.3" font-family="Times,serif" font-size="14.00">name</text>
</g>
<!-- p60 -->
<g id="node62" class="node"><title>p60</title>
<ellipse fill="black" stroke="black" cx="1379" cy="-222" rx="3.6" ry="3.6"/>
</g>
<!-- p60&#45;&gt;p61 -->
<g id="edge73" class="edge"><title>p60&#45;&gt;p61</title>
<path fill="none" stroke="black" d="M1377.63,-218.355C1374.13,-211.811 1364.26,-194.623 1352,-184 1346.41,-179.153 1340.03,-174.729 1333.49,-170.778"/>
<polygon fill="black" stroke="black" points="1334.96,-167.589 1324.54,-165.69 1331.5,-173.674 1334.96,-167.589"/>
<text text-anchor="middle" x="1408" y="-188.3" font-family="Times,serif" font-size="14.00">description</text>
</g>
<!-- p64 -->
<g id="node65" class="node"><title>p64</title>
<ellipse fill="black" stroke="black" cx="1421" cy="-2" rx="1.8" ry="1.8"/>
</g>
<!-- p63&#45;&gt;p64 -->
<g id="edge76" class="edge"><title>p63&#45;&gt;p64</title>
<path fill="none" stroke="black" d="M1421,-41.8939C1421,-32.8876 1421,-22.0999 1421,-14.1727"/>
<polygon fill="black" stroke="black" points="1424.5,-13.9957 1421,-3.99575 1417.5,-13.9958 1424.5,-13.9957"/>
</g>
<!-- p62 -->
<g id="node64" class="node"><title>p62</title>
<ellipse fill="black" stroke="black" cx="1477" cy="-148" rx="3.6" ry="3.6"/>
</g>
<!-- p62&#45;&gt;p63 -->
<g id="edge75" class="edge"><title>p62&#45;&gt;p63</title>
<path fill="none" stroke="black" d="M1475.38,-144.519C1469.92,-136.133 1451.72,-108.181 1437.87,-86.9021"/>
<polygon fill="black" stroke="black" points="1440.63,-84.7378 1432.24,-78.2676 1434.77,-88.5575 1440.63,-84.7378"/>
<text text-anchor="middle" x="1473.5" y="-100.3" font-family="Times,serif" font-size="14.00">meta</text>
</g>
</g>
</svg>
