<?xml version="1.0" encoding="UTF-8" standalone="no"?>
<!DOCTYPE svg PUBLIC "-//W3C//DTD SVG 1.1//EN"
 "http://www.w3.org/Graphics/SVG/1.1/DTD/svg11.dtd">
<!-- Generated by graphviz version 2.30.1 (20201013.1554)
 -->
<!-- Title: 20221004barplotvcfworkflow Pages: 1 -->
<svg width="675pt" height="668pt"
 viewBox="0.00 0.00 674.60 668.00" xmlns="http://www.w3.org/2000/svg" xmlns:xlink="http://www.w3.org/1999/xlink">
<g id="graph0" class="graph" transform="scale(1 1) rotate(0) translate(4 664)">
<title>20221004barplotvcfworkflow</title>
<polygon fill="white" stroke="white" points="-4,5 -4,-664 671.6,-664 671.6,5 -4,5"/>
<!-- p0 -->
<g id="node1" class="node"><title>p0</title>
<ellipse fill="black" stroke="black" cx="112.6" cy="-582" rx="3.6" ry="3.6"/>
<text text-anchor="middle" x="54.5" y="-589.4" font-family="Times,serif" font-size="14.00">Channel.empty</text>
</g>
<!-- p5 -->
<g id="node2" class="node"><title>p5</title>
<ellipse fill="none" stroke="black" cx="112.6" cy="-508" rx="3.25" ry="3.5"/>
<text text-anchor="middle" x="95.6" y="-515.3" font-family="Times,serif" font-size="14.00">mix</text>
</g>
<!-- p0&#45;&gt;p5 -->
<g id="edge1" class="edge"><title>p0&#45;&gt;p5</title>
<path fill="none" stroke="black" d="M112.6,-578.265C112.6,-569.133 112.6,-539.282 112.6,-521.892"/>
<polygon fill="black" stroke="black" points="116.1,-521.737 112.6,-511.737 109.1,-521.737 116.1,-521.737"/>
<text text-anchor="middle" x="151.6" y="-534.3" font-family="Times,serif" font-size="14.00">version_ch</text>
</g>
<!-- p9 -->
<g id="node8" class="node"><title>p9</title>
<ellipse fill="none" stroke="black" cx="223.6" cy="-374" rx="3.25" ry="3.5"/>
<text text-anchor="middle" x="206.6" y="-381.3" font-family="Times,serif" font-size="14.00">mix</text>
</g>
<!-- p5&#45;&gt;p9 -->
<g id="edge7" class="edge"><title>p5&#45;&gt;p9</title>
<path fill="none" stroke="black" d="M111.38,-504.446C106.065,-492.904 86.0836,-444.929 106.6,-416 130.562,-382.212 184.62,-376.054 209.981,-375.079"/>
<polygon fill="black" stroke="black" points="210.37,-378.573 220.316,-374.923 210.264,-371.574 210.37,-378.573"/>
<text text-anchor="middle" x="145.6" y="-430.3" font-family="Times,serif" font-size="14.00">version_ch</text>
</g>
<!-- p1 -->
<g id="node3" class="node"><title>p1</title>
<ellipse fill="black" stroke="black" cx="273.6" cy="-656" rx="3.6" ry="3.6"/>
</g>
<!-- p4 -->
<g id="node4" class="node"><title>p4</title>
<ellipse fill="none" stroke="black" cx="333.6" cy="-582" rx="198.324" ry="18"/>
<text text-anchor="middle" x="333.6" y="-578.3" font-family="Times,serif" font-size="14.00">BARPLOT_VCF_STATS:SCAN_HEADER</text>
</g>
<!-- p1&#45;&gt;p4 -->
<g id="edge2" class="edge"><title>p1&#45;&gt;p4</title>
<path fill="none" stroke="black" d="M274.502,-652.47C276.822,-646.189 283.46,-629.553 292.6,-618 295.634,-614.165 299.137,-610.437 302.792,-606.933"/>
<polygon fill="black" stroke="black" points="305.307,-609.379 310.405,-600.091 300.628,-604.172 305.307,-609.379"/>
<text text-anchor="middle" x="311.1" y="-622.3" font-family="Times,serif" font-size="14.00">meta</text>
</g>
<!-- p6 -->
<g id="node7" class="node"><title>p6</title>
<ellipse fill="none" stroke="black" cx="339.6" cy="-508" rx="3.25" ry="3.5"/>
<text text-anchor="middle" x="306.6" y="-515.3" font-family="Times,serif" font-size="14.00">splitCsv</text>
</g>
<!-- p4&#45;&gt;p6 -->
<g id="edge5" class="edge"><title>p4&#45;&gt;p6</title>
<path fill="none" stroke="black" d="M335.022,-563.937C336.101,-550.989 337.561,-533.471 338.539,-521.731"/>
<polygon fill="black" stroke="black" points="342.028,-522.004 339.371,-511.748 335.053,-521.423 342.028,-522.004"/>
</g>
<!-- p4&#45;&gt;p5 -->
<g id="edge6" class="edge"><title>p4&#45;&gt;p5</title>
<path fill="none" stroke="black" d="M291.701,-564.371C264.309,-553.813 227.617,-540.256 194.6,-530 170.681,-522.57 142.264,-515.725 125.941,-511.98"/>
<polygon fill="black" stroke="black" points="126.285,-508.469 115.76,-509.688 124.748,-515.298 126.285,-508.469"/>
</g>
<!-- p2 -->
<g id="node5" class="node"><title>p2</title>
<ellipse fill="black" stroke="black" cx="333.6" cy="-656" rx="3.6" ry="3.6"/>
</g>
<!-- p2&#45;&gt;p4 -->
<g id="edge3" class="edge"><title>p2&#45;&gt;p4</title>
<path fill="none" stroke="black" d="M333.6,-652.265C333.6,-645.354 333.6,-626.578 333.6,-610.316"/>
<polygon fill="black" stroke="black" points="337.1,-610.143 333.6,-600.143 330.1,-610.143 337.1,-610.143"/>
<text text-anchor="middle" x="368.6" y="-622.3" font-family="Times,serif" font-size="14.00">reference</text>
</g>
<!-- p3 -->
<g id="node6" class="node"><title>p3</title>
<ellipse fill="black" stroke="black" cx="426.6" cy="-656" rx="3.6" ry="3.6"/>
</g>
<!-- p3&#45;&gt;p4 -->
<g id="edge4" class="edge"><title>p3&#45;&gt;p4</title>
<path fill="none" stroke="black" d="M425.631,-652.321C423.118,-645.7 415.795,-628.349 404.6,-618 399.189,-612.997 392.929,-608.555 386.414,-604.657"/>
<polygon fill="black" stroke="black" points="387.87,-601.463 377.427,-599.678 384.478,-607.586 387.87,-601.463"/>
<text text-anchor="middle" x="428.6" y="-622.3" font-family="Times,serif" font-size="14.00">vcf</text>
</g>
<!-- p8 -->
<g id="node9" class="node"><title>p8</title>
<ellipse fill="none" stroke="black" cx="430.6" cy="-434" rx="236.368" ry="18"/>
<text text-anchor="middle" x="430.6" y="-430.3" font-family="Times,serif" font-size="14.00">BARPLOT_VCF_STATS:VCF_BARPLOT_TAG_01</text>
</g>
<!-- p6&#45;&gt;p8 -->
<g id="edge8" class="edge"><title>p6&#45;&gt;p8</title>
<path fill="none" stroke="black" d="M340.781,-504.736C344.114,-498.518 354.169,-480.912 366.6,-470 372.031,-465.233 378.221,-460.852 384.561,-456.922"/>
<polygon fill="black" stroke="black" points="386.375,-459.915 393.243,-451.848 382.843,-453.872 386.375,-459.915"/>
<text text-anchor="middle" x="396.6" y="-474.3" font-family="Times,serif" font-size="14.00">rows_ch</text>
</g>
<!-- p15 -->
<g id="node12" class="node"><title>p15</title>
<ellipse fill="none" stroke="black" cx="279.6" cy="-194" rx="3.25" ry="3.5"/>
<text text-anchor="middle" x="262.6" y="-201.3" font-family="Times,serif" font-size="14.00">mix</text>
</g>
<!-- p9&#45;&gt;p15 -->
<g id="edge12" class="edge"><title>p9&#45;&gt;p15</title>
<path fill="none" stroke="black" d="M223.402,-370.223C222.471,-355.526 219.48,-285.627 242.6,-236 248.719,-222.866 260.508,-210.95 269.14,-203.392"/>
<polygon fill="black" stroke="black" points="271.567,-205.928 277.074,-196.877 267.124,-200.518 271.567,-205.928"/>
<text text-anchor="middle" x="266.6" y="-294.3" font-family="Times,serif" font-size="14.00">version_ch</text>
</g>
<!-- p10 -->
<g id="node11" class="node"><title>p10</title>
<ellipse fill="none" stroke="black" cx="430.6" cy="-374" rx="3.25" ry="3.5"/>
<text text-anchor="middle" x="411.6" y="-381.3" font-family="Times,serif" font-size="14.00">map</text>
</g>
<!-- p8&#45;&gt;p10 -->
<g id="edge10" class="edge"><title>p8&#45;&gt;p10</title>
<path fill="none" stroke="black" d="M430.6,-415.912C430.6,-406.965 430.6,-396.187 430.6,-387.94"/>
<polygon fill="black" stroke="black" points="434.1,-387.691 430.6,-377.691 427.1,-387.691 434.1,-387.691"/>
</g>
<!-- p8&#45;&gt;p9 -->
<g id="edge11" class="edge"><title>p8&#45;&gt;p9</title>
<path fill="none" stroke="black" d="M371.836,-416.535C324.996,-403.41 263.019,-386.045 236.515,-378.619"/>
<polygon fill="black" stroke="black" points="237.149,-375.162 226.576,-375.834 235.261,-381.902 237.149,-375.162"/>
</g>
<!-- p7 -->
<g id="node10" class="node"><title>p7</title>
<ellipse fill="black" stroke="black" cx="430.6" cy="-508" rx="3.6" ry="3.6"/>
</g>
<!-- p7&#45;&gt;p8 -->
<g id="edge9" class="edge"><title>p7&#45;&gt;p8</title>
<path fill="none" stroke="black" d="M430.6,-504.265C430.6,-497.354 430.6,-478.578 430.6,-462.316"/>
<polygon fill="black" stroke="black" points="434.1,-462.143 430.6,-452.143 427.1,-462.143 434.1,-462.143"/>
<text text-anchor="middle" x="449.1" y="-474.3" font-family="Times,serif" font-size="14.00">meta</text>
</g>
<!-- p11 -->
<g id="node13" class="node"><title>p11</title>
<ellipse fill="none" stroke="black" cx="430.6" cy="-328" rx="3.25" ry="3.5"/>
<text text-anchor="middle" x="385.6" y="-335.3" font-family="Times,serif" font-size="14.00">groupTuple</text>
</g>
<!-- p10&#45;&gt;p11 -->
<g id="edge13" class="edge"><title>p10&#45;&gt;p11</title>
<path fill="none" stroke="black" d="M430.6,-370.379C430.6,-364.864 430.6,-351.742 430.6,-341.742"/>
<polygon fill="black" stroke="black" points="434.1,-341.552 430.6,-331.552 427.1,-341.552 434.1,-341.552"/>
</g>
<!-- p16 -->
<g id="node17" class="node"><title>p16</title>
<ellipse fill="none" stroke="black" cx="279.6" cy="-134" rx="3.25" ry="3.5"/>
<text text-anchor="middle" x="251.6" y="-141.3" font-family="Times,serif" font-size="14.00">collect</text>
</g>
<!-- p15&#45;&gt;p16 -->
<g id="edge18" class="edge"><title>p15&#45;&gt;p16</title>
<path fill="none" stroke="black" d="M279.6,-190.203C279.6,-182.649 279.6,-161.48 279.6,-147.66"/>
<polygon fill="black" stroke="black" points="283.1,-147.636 279.6,-137.636 276.1,-147.636 283.1,-147.636"/>
<text text-anchor="middle" x="318.6" y="-160.3" font-family="Times,serif" font-size="14.00">version_ch</text>
</g>
<!-- p13 -->
<g id="node14" class="node"><title>p13</title>
<ellipse fill="none" stroke="black" cx="447.6" cy="-254" rx="195.924" ry="18"/>
<text text-anchor="middle" x="447.6" y="-250.3" font-family="Times,serif" font-size="14.00">BARPLOT_VCF_STATS:GS_SIMPLE_01</text>
</g>
<!-- p11&#45;&gt;p13 -->
<g id="edge14" class="edge"><title>p11&#45;&gt;p13</title>
<path fill="none" stroke="black" d="M431.246,-324.265C432.878,-317.354 437.311,-298.578 441.15,-282.316"/>
<polygon fill="black" stroke="black" points="444.661,-282.68 443.552,-272.143 437.848,-281.071 444.661,-282.68"/>
</g>
<!-- p14 -->
<g id="node16" class="node"><title>p14</title>
<ellipse fill="black" stroke="black" cx="447.6" cy="-194" rx="1.8" ry="1.8"/>
</g>
<!-- p13&#45;&gt;p14 -->
<g id="edge16" class="edge"><title>p13&#45;&gt;p14</title>
<path fill="none" stroke="black" d="M447.6,-235.912C447.6,-226.322 447.6,-214.628 447.6,-206.202"/>
<polygon fill="black" stroke="black" points="451.1,-206.056 447.6,-196.056 444.1,-206.056 451.1,-206.056"/>
</g>
<!-- p13&#45;&gt;p15 -->
<g id="edge17" class="edge"><title>p13&#45;&gt;p15</title>
<path fill="none" stroke="black" d="M399.907,-236.535C362.911,-223.762 314.279,-206.972 291.872,-199.237"/>
<polygon fill="black" stroke="black" points="292.958,-195.909 282.363,-195.954 290.673,-202.526 292.958,-195.909"/>
</g>
<!-- p12 -->
<g id="node15" class="node"><title>p12</title>
<ellipse fill="black" stroke="black" cx="463.6" cy="-328" rx="3.6" ry="3.6"/>
</g>
<!-- p12&#45;&gt;p13 -->
<g id="edge15" class="edge"><title>p12&#45;&gt;p13</title>
<path fill="none" stroke="black" d="M462.992,-324.265C461.456,-317.354 457.284,-298.578 453.67,-282.316"/>
<polygon fill="black" stroke="black" points="456.996,-281.145 451.41,-272.143 450.162,-282.664 456.996,-281.145"/>
<text text-anchor="middle" x="478.1" y="-294.3" font-family="Times,serif" font-size="14.00">meta</text>
</g>
<!-- p20 -->
<g id="node18" class="node"><title>p20</title>
<ellipse fill="none" stroke="black" cx="342.6" cy="-60" rx="211.347" ry="18"/>
<text text-anchor="middle" x="342.6" y="-56.3" font-family="Times,serif" font-size="14.00">BARPLOT_VCF_STATS:MERGE_VERSION</text>
</g>
<!-- p16&#45;&gt;p20 -->
<g id="edge19" class="edge"><title>p16&#45;&gt;p20</title>
<path fill="none" stroke="black" d="M281.26,-130.574C285.435,-124.529 296.806,-108.392 307.6,-96 310.667,-92.4787 314.01,-88.8752 317.372,-85.3831"/>
<polygon fill="black" stroke="black" points="320.133,-87.5678 324.665,-77.9913 315.15,-82.6513 320.133,-87.5678"/>
</g>
<!-- p21 -->
<g id="node22" class="node"><title>p21</title>
<ellipse fill="black" stroke="black" cx="342.6" cy="-2" rx="1.8" ry="1.8"/>
</g>
<!-- p20&#45;&gt;p21 -->
<g id="edge23" class="edge"><title>p20&#45;&gt;p21</title>
<path fill="none" stroke="black" d="M342.6,-41.8939C342.6,-32.8876 342.6,-22.0999 342.6,-14.1727"/>
<polygon fill="black" stroke="black" points="346.1,-13.9957 342.6,-3.99575 339.1,-13.9958 346.1,-13.9957"/>
</g>
<!-- p17 -->
<g id="node19" class="node"><title>p17</title>
<ellipse fill="black" stroke="black" cx="312.6" cy="-134" rx="3.6" ry="3.6"/>
</g>
<!-- p17&#45;&gt;p20 -->
<g id="edge20" class="edge"><title>p17&#45;&gt;p20</title>
<path fill="none" stroke="black" d="M312.074,-130.19C311.012,-123.846 309.079,-108.03 313.6,-96 314.86,-92.6482 316.584,-89.3851 318.568,-86.2844"/>
<polygon fill="black" stroke="black" points="321.538,-88.1557 324.681,-78.0376 315.914,-83.9874 321.538,-88.1557"/>
<text text-anchor="middle" x="332.1" y="-100.3" font-family="Times,serif" font-size="14.00">meta</text>
</g>
<!-- p18 -->
<g id="node20" class="node"><title>p18</title>
<ellipse fill="black" stroke="black" cx="372.6" cy="-134" rx="3.6" ry="3.6"/>
</g>
<!-- p18&#45;&gt;p20 -->
<g id="edge21" class="edge"><title>p18&#45;&gt;p20</title>
<path fill="none" stroke="black" d="M371.461,-130.265C368.526,-123.222 360.458,-103.859 353.596,-87.3898"/>
<polygon fill="black" stroke="black" points="356.82,-86.0275 349.743,-78.1429 350.358,-88.7198 356.82,-86.0275"/>
<text text-anchor="middle" x="384.6" y="-100.3" font-family="Times,serif" font-size="14.00">name</text>
</g>
<!-- p19 -->
<g id="node21" class="node"><title>p19</title>
<ellipse fill="black" stroke="black" cx="435.6" cy="-134" rx="3.6" ry="3.6"/>
</g>
<!-- p19&#45;&gt;p20 -->
<g id="edge22" class="edge"><title>p19&#45;&gt;p20</title>
<path fill="none" stroke="black" d="M434.228,-130.355C430.726,-123.811 420.86,-106.623 408.6,-96 403.074,-91.2119 396.781,-86.8352 390.328,-82.9211"/>
<polygon fill="black" stroke="black" points="391.904,-79.7909 381.484,-77.8751 388.435,-85.8709 391.904,-79.7909"/>
<text text-anchor="middle" x="464.6" y="-100.3" font-family="Times,serif" font-size="14.00">description</text>
</g>
</g>
</svg>
