<?xml version="1.0" encoding="UTF-8" standalone="no"?>
<!DOCTYPE svg PUBLIC "-//W3C//DTD SVG 1.1//EN"
 "http://www.w3.org/Graphics/SVG/1.1/DTD/svg11.dtd">
<!-- Generated by graphviz version 2.30.1 (20201013.1554)
 -->
<!-- Title: 20221104brshs37d5virusbndworkflow Pages: 1 -->
<svg width="1794pt" height="1391pt"
 viewBox="0.00 0.00 1793.61 1390.60" xmlns="http://www.w3.org/2000/svg" xmlns:xlink="http://www.w3.org/1999/xlink">
<g id="graph0" class="graph" transform="scale(1 1) rotate(0) translate(4 1386.6)">
<title>20221104brshs37d5virusbndworkflow</title>
<polygon fill="white" stroke="white" points="-4,5 -4,-1386.6 1790.61,-1386.6 1790.61,5 -4,5"/>
<!-- p0 -->
<g id="node1" class="node"><title>p0</title>
<ellipse fill="black" stroke="black" cx="760.608" cy="-1364" rx="3.6" ry="3.6"/>
<text text-anchor="middle" x="702.508" y="-1371.4" font-family="Times,serif" font-size="14.00">Channel.empty</text>
</g>
<!-- p1 -->
<g id="node2" class="node"><title>p1</title>
<ellipse fill="black" stroke="black" cx="760.608" cy="-1290" rx="1.8" ry="1.8"/>
</g>
<!-- p0&#45;&gt;p1 -->
<g id="edge1" class="edge"><title>p0&#45;&gt;p1</title>
<path fill="none" stroke="black" d="M760.608,-1360.27C760.608,-1350.79 760.608,-1319.04 760.608,-1302.01"/>
<polygon fill="black" stroke="black" points="764.108,-1301.98 760.608,-1291.98 757.108,-1301.98 764.108,-1301.98"/>
<text text-anchor="middle" x="799.608" y="-1330.3" font-family="Times,serif" font-size="14.00">publish_ch</text>
</g>
<!-- p2 -->
<g id="node3" class="node"><title>p2</title>
<ellipse fill="black" stroke="black" cx="1050.61" cy="-1364" rx="3.6" ry="3.6"/>
<text text-anchor="middle" x="982.008" y="-1371.4" font-family="Times,serif" font-size="14.00">Channel.fromPath</text>
</g>
<!-- p13 -->
<g id="node4" class="node"><title>p13</title>
<ellipse fill="none" stroke="black" cx="1081.61" cy="-1290" rx="300.385" ry="18"/>
<text text-anchor="middle" x="1081.61" y="-1286.3" font-family="Times,serif" font-size="14.00">GRIDSS_VIRUS_BND:SAMTOOLS_SAMPLES_01:SQRT_FILE</text>
</g>
<!-- p2&#45;&gt;p13 -->
<g id="edge2" class="edge"><title>p2&#45;&gt;p13</title>
<path fill="none" stroke="black" d="M1050.07,-1360.18C1048.98,-1353.83 1046.99,-1337.99 1051.61,-1326 1052.88,-1322.69 1054.62,-1319.47 1056.61,-1316.42"/>
<polygon fill="black" stroke="black" points="1059.51,-1318.39 1062.76,-1308.31 1053.93,-1314.16 1059.51,-1318.39"/>
<text text-anchor="middle" x="1071.11" y="-1330.3" font-family="Times,serif" font-size="14.00">bams</text>
</g>
<!-- p15 -->
<g id="node19" class="node"><title>p15</title>
<ellipse fill="none" stroke="black" cx="1052.61" cy="-1216" rx="3.25" ry="3.5"/>
<text text-anchor="middle" x="1017.11" y="-1223.3" font-family="Times,serif" font-size="14.00">splitText</text>
</g>
<!-- p13&#45;&gt;p15 -->
<g id="edge15" class="edge"><title>p13&#45;&gt;p15</title>
<path fill="none" stroke="black" d="M1074.74,-1271.94C1069.46,-1258.85 1062.31,-1241.1 1057.59,-1229.36"/>
<polygon fill="black" stroke="black" points="1060.7,-1227.72 1053.72,-1219.75 1054.2,-1230.33 1060.7,-1227.72"/>
</g>
<!-- p14 -->
<g id="node17" class="node"><title>p14</title>
<ellipse fill="none" stroke="black" cx="1439.61" cy="-1216" rx="3.25" ry="3.5"/>
<text text-anchor="middle" x="1422.61" y="-1223.3" font-family="Times,serif" font-size="14.00">mix</text>
</g>
<!-- p13&#45;&gt;p14 -->
<g id="edge16" class="edge"><title>p13&#45;&gt;p14</title>
<path fill="none" stroke="black" d="M1162.84,-1272.66C1251.09,-1254.91 1385.06,-1227.97 1426.76,-1219.58"/>
<polygon fill="black" stroke="black" points="1427.47,-1223.01 1436.59,-1217.61 1426.09,-1216.15 1427.47,-1223.01"/>
</g>
<!-- p3 -->
<g id="node5" class="node"><title>p3</title>
<ellipse fill="black" stroke="black" cx="1332.61" cy="-874" rx="3.6" ry="3.6"/>
<text text-anchor="middle" x="1274.51" y="-881.4" font-family="Times,serif" font-size="14.00">Channel.empty</text>
</g>
<!-- p7 -->
<g id="node6" class="node"><title>p7</title>
<ellipse fill="none" stroke="black" cx="1332.61" cy="-786" rx="3.25" ry="3.5"/>
<text text-anchor="middle" x="1342.61" y="-793.3" font-family="Times,serif" font-size="14.00">mix</text>
</g>
<!-- p3&#45;&gt;p7 -->
<g id="edge3" class="edge"><title>p3&#45;&gt;p7</title>
<path fill="none" stroke="black" d="M1332.61,-870.139C1332.61,-859.281 1332.61,-820.206 1332.61,-799.727"/>
<polygon fill="black" stroke="black" points="1336.11,-799.615 1332.61,-789.615 1329.11,-799.615 1336.11,-799.615"/>
<text text-anchor="middle" x="1371.61" y="-826.3" font-family="Times,serif" font-size="14.00">version_ch</text>
</g>
<!-- p10 -->
<g id="node11" class="node"><title>p10</title>
<ellipse fill="none" stroke="black" cx="1087.61" cy="-698" rx="3.25" ry="3.5"/>
<text text-anchor="middle" x="1070.61" y="-705.3" font-family="Times,serif" font-size="14.00">mix</text>
</g>
<!-- p7&#45;&gt;p10 -->
<g id="edge8" class="edge"><title>p7&#45;&gt;p10</title>
<path fill="none" stroke="black" d="M1331.46,-782.611C1329.54,-778.889 1325.33,-771.745 1319.61,-768 1279.21,-741.543 1151.86,-737.486 1108.61,-716 1104.54,-713.977 1100.54,-711.048 1097.14,-708.19"/>
<polygon fill="black" stroke="black" points="1099.29,-705.408 1089.59,-701.131 1094.5,-710.519 1099.29,-705.408"/>
<text text-anchor="middle" x="1303.61" y="-738.3" font-family="Times,serif" font-size="14.00">version_ch</text>
</g>
<!-- p4 -->
<g id="node7" class="node"><title>p4</title>
<ellipse fill="black" stroke="black" cx="692.608" cy="-962" rx="3.6" ry="3.6"/>
</g>
<!-- p6 -->
<g id="node8" class="node"><title>p6</title>
<ellipse fill="none" stroke="black" cx="740.608" cy="-874" rx="259.465" ry="18"/>
<text text-anchor="middle" x="740.608" y="-870.3" font-family="Times,serif" font-size="14.00">GRIDSS_VIRUS_BND:GRIDSS_SETUP_REFERENCE</text>
</g>
<!-- p4&#45;&gt;p6 -->
<g id="edge4" class="edge"><title>p4&#45;&gt;p6</title>
<path fill="none" stroke="black" d="M692.732,-958.03C693.19,-949.842 695.285,-926.463 704.608,-910 706.686,-906.331 709.264,-902.798 712.079,-899.482"/>
<polygon fill="black" stroke="black" points="714.651,-901.856 718.954,-892.174 709.553,-897.06 714.651,-901.856"/>
<text text-anchor="middle" x="723.108" y="-914.3" font-family="Times,serif" font-size="14.00">meta</text>
</g>
<!-- p34 -->
<g id="node10" class="node"><title>p34</title>
<ellipse fill="none" stroke="black" cx="451.608" cy="-786" rx="253.216" ry="18"/>
<text text-anchor="middle" x="451.608" y="-782.3" font-family="Times,serif" font-size="14.00">GRIDSS_VIRUS_BND:SEQ_CACHE_POPULATE_01</text>
</g>
<!-- p6&#45;&gt;p34 -->
<g id="edge6" class="edge"><title>p6&#45;&gt;p34</title>
<path fill="none" stroke="black" d="M684.886,-856.418C637.063,-842.187 568.059,-821.653 517.505,-806.609"/>
<polygon fill="black" stroke="black" points="518.235,-803.175 507.652,-803.677 516.238,-809.884 518.235,-803.175"/>
</g>
<!-- p6&#45;&gt;p7 -->
<g id="edge7" class="edge"><title>p6&#45;&gt;p7</title>
<path fill="none" stroke="black" d="M903.423,-859.969C968.031,-854.18 1042.93,-846.696 1110.61,-838 1203.95,-826.006 1238.87,-852.354 1319.61,-804 1322.08,-802.518 1324.25,-800.372 1326.07,-798.1"/>
<polygon fill="black" stroke="black" points="1329.15,-799.777 1331.49,-789.444 1323.22,-796.062 1329.15,-799.777"/>
</g>
<!-- p38 -->
<g id="node14" class="node"><title>p38</title>
<ellipse fill="none" stroke="black" cx="504.608" cy="-698" rx="206.048" ry="18"/>
<text text-anchor="middle" x="504.608" y="-694.3" font-family="Times,serif" font-size="14.00">GRIDSS_VIRUS_BND:CALL_VIRUS_BND</text>
</g>
<!-- p6&#45;&gt;p38 -->
<g id="edge44" class="edge"><title>p6&#45;&gt;p38</title>
<path fill="none" stroke="black" d="M740.974,-855.736C740.51,-832.753 736.233,-792.198 713.608,-768 689.678,-742.406 656.076,-726.294 622.801,-716.155"/>
<polygon fill="black" stroke="black" points="623.544,-712.727 612.966,-713.324 621.607,-719.454 623.544,-712.727"/>
<text text-anchor="middle" x="768.608" y="-782.3" font-family="Times,serif" font-size="14.00">reference</text>
</g>
<!-- p5 -->
<g id="node9" class="node"><title>p5</title>
<ellipse fill="black" stroke="black" cx="752.608" cy="-962" rx="3.6" ry="3.6"/>
</g>
<!-- p5&#45;&gt;p6 -->
<g id="edge5" class="edge"><title>p5&#45;&gt;p6</title>
<path fill="none" stroke="black" d="M752.209,-958.139C750.998,-949.462 747.274,-922.767 744.368,-901.942"/>
<polygon fill="black" stroke="black" points="747.829,-901.424 742.981,-892.004 740.897,-902.391 747.829,-901.424"/>
<text text-anchor="middle" x="783.608" y="-914.3" font-family="Times,serif" font-size="14.00">reference</text>
</g>
<!-- p34&#45;&gt;p38 -->
<g id="edge39" class="edge"><title>p34&#45;&gt;p38</title>
<path fill="none" stroke="black" d="M462.079,-768.009C469.652,-755.722 480.022,-738.895 488.626,-724.934"/>
<polygon fill="black" stroke="black" points="491.711,-726.599 493.978,-716.25 485.751,-722.927 491.711,-726.599"/>
</g>
<!-- p35 -->
<g id="node36" class="node"><title>p35</title>
<ellipse fill="none" stroke="black" cx="790.608" cy="-564" rx="3.25" ry="3.5"/>
<text text-anchor="middle" x="773.608" y="-571.3" font-family="Times,serif" font-size="14.00">mix</text>
</g>
<!-- p34&#45;&gt;p35 -->
<g id="edge40" class="edge"><title>p34&#45;&gt;p35</title>
<path fill="none" stroke="black" d="M597.691,-771.282C640.656,-761.306 685.286,-744.421 719.608,-716 764.497,-678.829 782.682,-606.822 788.411,-577.691"/>
<polygon fill="black" stroke="black" points="791.9,-578.063 790.218,-567.602 785.01,-576.829 791.9,-578.063"/>
</g>
<!-- p31 -->
<g id="node15" class="node"><title>p31</title>
<ellipse fill="none" stroke="black" cx="1087.61" cy="-624" rx="3.25" ry="3.5"/>
<text text-anchor="middle" x="1070.61" y="-631.3" font-family="Times,serif" font-size="14.00">mix</text>
</g>
<!-- p10&#45;&gt;p31 -->
<g id="edge12" class="edge"><title>p10&#45;&gt;p31</title>
<path fill="none" stroke="black" d="M1087.61,-694.265C1087.61,-685.133 1087.61,-655.282 1087.61,-637.892"/>
<polygon fill="black" stroke="black" points="1091.11,-637.737 1087.61,-627.737 1084.11,-637.737 1091.11,-637.737"/>
<text text-anchor="middle" x="1126.61" y="-650.3" font-family="Times,serif" font-size="14.00">version_ch</text>
</g>
<!-- p8 -->
<g id="node12" class="node"><title>p8</title>
<ellipse fill="black" stroke="black" cx="1069.61" cy="-874" rx="3.6" ry="3.6"/>
</g>
<!-- p9 -->
<g id="node13" class="node"><title>p9</title>
<ellipse fill="none" stroke="black" cx="1069.61" cy="-786" rx="241.193" ry="18"/>
<text text-anchor="middle" x="1069.61" y="-782.3" font-family="Times,serif" font-size="14.00">GRIDSS_VIRUS_BND:DOWNLOAD_VIRUS_BND</text>
</g>
<!-- p8&#45;&gt;p9 -->
<g id="edge9" class="edge"><title>p8&#45;&gt;p9</title>
<path fill="none" stroke="black" d="M1069.61,-870.139C1069.61,-861.502 1069.61,-835.011 1069.61,-814.227"/>
<polygon fill="black" stroke="black" points="1073.11,-814.004 1069.61,-804.004 1066.11,-814.004 1073.11,-814.004"/>
<text text-anchor="middle" x="1088.11" y="-826.3" font-family="Times,serif" font-size="14.00">meta</text>
</g>
<!-- p9&#45;&gt;p38 -->
<g id="edge10" class="edge"><title>p9&#45;&gt;p38</title>
<path fill="none" stroke="black" d="M975.407,-769.43C912.16,-759.09 826.937,-745.377 751.608,-734 708.683,-727.517 661.505,-720.745 619.986,-714.904"/>
<polygon fill="black" stroke="black" points="620.226,-711.404 609.836,-713.479 619.253,-718.336 620.226,-711.404"/>
</g>
<!-- p9&#45;&gt;p10 -->
<g id="edge11" class="edge"><title>p9&#45;&gt;p10</title>
<path fill="none" stroke="black" d="M1073.25,-767.597C1076.72,-751.046 1081.84,-726.54 1084.94,-711.737"/>
<polygon fill="black" stroke="black" points="1088.43,-712.176 1087.05,-701.671 1081.57,-710.742 1088.43,-712.176"/>
</g>
<!-- p40 -->
<g id="node40" class="node"><title>p40</title>
<ellipse fill="none" stroke="black" cx="400.608" cy="-624" rx="3.25" ry="3.5"/>
<text text-anchor="middle" x="383.608" y="-631.3" font-family="Times,serif" font-size="14.00">mix</text>
</g>
<!-- p38&#45;&gt;p40 -->
<g id="edge45" class="edge"><title>p38&#45;&gt;p40</title>
<path fill="none" stroke="black" d="M480.225,-680.119C458.566,-665.125 427.903,-643.896 411.677,-632.663"/>
<polygon fill="black" stroke="black" points="413.252,-629.496 403.038,-626.682 409.267,-635.252 413.252,-629.496"/>
</g>
<!-- p39 -->
<g id="node38" class="node"><title>p39</title>
<ellipse fill="none" stroke="black" cx="569.608" cy="-504" rx="3.25" ry="3.5"/>
<text text-anchor="middle" x="552.608" y="-511.3" font-family="Times,serif" font-size="14.00">mix</text>
</g>
<!-- p38&#45;&gt;p39 -->
<g id="edge46" class="edge"><title>p38&#45;&gt;p39</title>
<path fill="none" stroke="black" d="M510.377,-679.961C523.27,-641.875 554.174,-550.589 565.423,-517.363"/>
<polygon fill="black" stroke="black" points="568.802,-518.297 568.693,-507.703 562.171,-516.052 568.802,-518.297"/>
</g>
<!-- p31&#45;&gt;p35 -->
<g id="edge36" class="edge"><title>p31&#45;&gt;p35</title>
<path fill="none" stroke="black" d="M1084.67,-622.426C1057.95,-617.209 856.936,-577.953 803.578,-567.533"/>
<polygon fill="black" stroke="black" points="804.057,-564.06 793.572,-565.579 802.716,-570.931 804.057,-564.06"/>
<text text-anchor="middle" x="1013.61" y="-590.3" font-family="Times,serif" font-size="14.00">version_ch</text>
</g>
<!-- p11 -->
<g id="node16" class="node"><title>p11</title>
<ellipse fill="black" stroke="black" cx="1439.61" cy="-1290" rx="3.6" ry="3.6"/>
<text text-anchor="middle" x="1490.51" y="-1297.4" font-family="Times,serif" font-size="14.00">Channel.empty</text>
</g>
<!-- p11&#45;&gt;p14 -->
<g id="edge13" class="edge"><title>p11&#45;&gt;p14</title>
<path fill="none" stroke="black" d="M1439.61,-1286.27C1439.61,-1277.13 1439.61,-1247.28 1439.61,-1229.89"/>
<polygon fill="black" stroke="black" points="1443.11,-1229.74 1439.61,-1219.74 1436.11,-1229.74 1443.11,-1229.74"/>
<text text-anchor="middle" x="1478.61" y="-1242.3" font-family="Times,serif" font-size="14.00">version_ch</text>
</g>
<!-- p21 -->
<g id="node20" class="node"><title>p21</title>
<ellipse fill="none" stroke="black" cx="1420.61" cy="-1036" rx="3.25" ry="3.5"/>
<text text-anchor="middle" x="1403.61" y="-1043.3" font-family="Times,serif" font-size="14.00">mix</text>
</g>
<!-- p14&#45;&gt;p21 -->
<g id="edge17" class="edge"><title>p14&#45;&gt;p21</title>
<path fill="none" stroke="black" d="M1439.34,-1212.48C1437.44,-1194.64 1425.93,-1086.89 1421.96,-1049.65"/>
<polygon fill="black" stroke="black" points="1425.44,-1049.25 1420.89,-1039.68 1418.48,-1050 1425.44,-1049.25"/>
<text text-anchor="middle" x="1471.61" y="-1136.3" font-family="Times,serif" font-size="14.00">version_ch</text>
</g>
<!-- p12 -->
<g id="node18" class="node"><title>p12</title>
<ellipse fill="black" stroke="black" cx="1112.61" cy="-1364" rx="3.6" ry="3.6"/>
</g>
<!-- p12&#45;&gt;p13 -->
<g id="edge14" class="edge"><title>p12&#45;&gt;p13</title>
<path fill="none" stroke="black" d="M1111.43,-1360.27C1108.4,-1353.22 1100.06,-1333.86 1092.97,-1317.39"/>
<polygon fill="black" stroke="black" points="1096.16,-1315.94 1088.99,-1308.14 1089.73,-1318.71 1096.16,-1315.94"/>
<text text-anchor="middle" x="1122.11" y="-1330.3" font-family="Times,serif" font-size="14.00">meta</text>
</g>
<!-- p16 -->
<g id="node21" class="node"><title>p16</title>
<ellipse fill="none" stroke="black" cx="1048.61" cy="-1170" rx="3.25" ry="3.5"/>
<text text-anchor="middle" x="1029.61" y="-1177.3" font-family="Times,serif" font-size="14.00">map</text>
</g>
<!-- p15&#45;&gt;p16 -->
<g id="edge18" class="edge"><title>p15&#45;&gt;p16</title>
<path fill="none" stroke="black" d="M1052.37,-1212.38C1051.87,-1206.86 1050.68,-1193.74 1049.77,-1183.74"/>
<polygon fill="black" stroke="black" points="1053.23,-1183.19 1048.84,-1173.55 1046.26,-1183.83 1053.23,-1183.19"/>
</g>
<!-- p25 -->
<g id="node27" class="node"><title>p25</title>
<ellipse fill="none" stroke="black" cx="1420.61" cy="-874" rx="3.25" ry="3.5"/>
<text text-anchor="middle" x="1403.61" y="-881.3" font-family="Times,serif" font-size="14.00">mix</text>
</g>
<!-- p21&#45;&gt;p25 -->
<g id="edge25" class="edge"><title>p21&#45;&gt;p25</title>
<path fill="none" stroke="black" d="M1420.61,-1032.49C1420.61,-1015.99 1420.61,-922.776 1420.61,-888.043"/>
<polygon fill="black" stroke="black" points="1424.11,-887.877 1420.61,-877.877 1417.11,-887.877 1424.11,-887.877"/>
<text text-anchor="middle" x="1459.61" y="-958.3" font-family="Times,serif" font-size="14.00">version_ch</text>
</g>
<!-- p20 -->
<g id="node22" class="node"><title>p20</title>
<ellipse fill="none" stroke="black" cx="1107.61" cy="-1096" rx="304.235" ry="18"/>
<text text-anchor="middle" x="1107.61" y="-1092.3" font-family="Times,serif" font-size="14.00">GRIDSS_VIRUS_BND:SAMTOOLS_SAMPLES_01:ST_SAMPLE</text>
</g>
<!-- p16&#45;&gt;p20 -->
<g id="edge19" class="edge"><title>p16&#45;&gt;p20</title>
<path fill="none" stroke="black" d="M1046.41,-1166.87C1040.62,-1160.99 1025.9,-1144.18 1033.61,-1132 1036.6,-1127.27 1040.43,-1123.17 1044.75,-1119.62"/>
<polygon fill="black" stroke="black" points="1046.86,-1122.41 1053.01,-1113.79 1042.83,-1116.69 1046.86,-1122.41"/>
<text text-anchor="middle" x="1068.61" y="-1136.3" font-family="Times,serif" font-size="14.00">chunk_ch</text>
</g>
<!-- p22 -->
<g id="node26" class="node"><title>p22</title>
<ellipse fill="none" stroke="black" cx="1107.61" cy="-1036" rx="3.25" ry="3.5"/>
<text text-anchor="middle" x="1079.61" y="-1043.3" font-family="Times,serif" font-size="14.00">collect</text>
</g>
<!-- p20&#45;&gt;p22 -->
<g id="edge23" class="edge"><title>p20&#45;&gt;p22</title>
<path fill="none" stroke="black" d="M1107.61,-1077.91C1107.61,-1068.96 1107.61,-1058.19 1107.61,-1049.94"/>
<polygon fill="black" stroke="black" points="1111.11,-1049.69 1107.61,-1039.69 1104.11,-1049.69 1111.11,-1049.69"/>
</g>
<!-- p20&#45;&gt;p21 -->
<g id="edge24" class="edge"><title>p20&#45;&gt;p21</title>
<path fill="none" stroke="black" d="M1195.63,-1078.69C1270.35,-1064.84 1371.02,-1046.19 1407.07,-1039.51"/>
<polygon fill="black" stroke="black" points="1408.06,-1042.88 1417.26,-1037.62 1406.79,-1036 1408.06,-1042.88"/>
</g>
<!-- p17 -->
<g id="node23" class="node"><title>p17</title>
<ellipse fill="black" stroke="black" cx="1107.61" cy="-1170" rx="3.6" ry="3.6"/>
</g>
<!-- p17&#45;&gt;p20 -->
<g id="edge20" class="edge"><title>p17&#45;&gt;p20</title>
<path fill="none" stroke="black" d="M1107.61,-1166.27C1107.61,-1159.35 1107.61,-1140.58 1107.61,-1124.32"/>
<polygon fill="black" stroke="black" points="1111.11,-1124.14 1107.61,-1114.14 1104.11,-1124.14 1111.11,-1124.14"/>
<text text-anchor="middle" x="1126.11" y="-1136.3" font-family="Times,serif" font-size="14.00">meta</text>
</g>
<!-- p18 -->
<g id="node24" class="node"><title>p18</title>
<ellipse fill="black" stroke="black" cx="1167.61" cy="-1170" rx="3.6" ry="3.6"/>
</g>
<!-- p18&#45;&gt;p20 -->
<g id="edge21" class="edge"><title>p18&#45;&gt;p20</title>
<path fill="none" stroke="black" d="M1166.44,-1166.51C1163.48,-1160.31 1155.21,-1143.84 1145.61,-1132 1142.59,-1128.28 1139.17,-1124.58 1135.66,-1121.07"/>
<polygon fill="black" stroke="black" points="1138.06,-1118.52 1128.41,-1114.16 1133.23,-1123.59 1138.06,-1118.52"/>
<text text-anchor="middle" x="1191.61" y="-1136.3" font-family="Times,serif" font-size="14.00">reference</text>
</g>
<!-- p19 -->
<g id="node25" class="node"><title>p19</title>
<ellipse fill="black" stroke="black" cx="1260.61" cy="-1170" rx="3.6" ry="3.6"/>
</g>
<!-- p19&#45;&gt;p20 -->
<g id="edge22" class="edge"><title>p19&#45;&gt;p20</title>
<path fill="none" stroke="black" d="M1259.35,-1166.58C1255.8,-1159.98 1244.96,-1141.47 1230.61,-1132 1221.53,-1126.01 1211.42,-1121.03 1201,-1116.89"/>
<polygon fill="black" stroke="black" points="1201.97,-1113.52 1191.38,-1113.32 1199.54,-1120.08 1201.97,-1113.52"/>
<text text-anchor="middle" x="1285.11" y="-1136.3" font-family="Times,serif" font-size="14.00">references</text>
</g>
<!-- p24 -->
<g id="node28" class="node"><title>p24</title>
<ellipse fill="none" stroke="black" cx="1081.61" cy="-962" rx="283.062" ry="18"/>
<text text-anchor="middle" x="1081.61" y="-958.3" font-family="Times,serif" font-size="14.00">GRIDSS_VIRUS_BND:SAMTOOLS_SAMPLES_01:DIGEST</text>
</g>
<!-- p22&#45;&gt;p24 -->
<g id="edge26" class="edge"><title>p22&#45;&gt;p24</title>
<path fill="none" stroke="black" d="M1106.74,-1032.6C1104.34,-1025.94 1097.34,-1006.56 1091.33,-989.935"/>
<polygon fill="black" stroke="black" points="1094.46,-988.297 1087.78,-980.08 1087.88,-990.674 1094.46,-988.297"/>
</g>
<!-- p26 -->
<g id="node31" class="node"><title>p26</title>
<ellipse fill="none" stroke="black" cx="1448.61" cy="-786" rx="3.25" ry="3.5"/>
<text text-anchor="middle" x="1420.61" y="-793.3" font-family="Times,serif" font-size="14.00">collect</text>
</g>
<!-- p25&#45;&gt;p26 -->
<g id="edge30" class="edge"><title>p25&#45;&gt;p26</title>
<path fill="none" stroke="black" d="M1421.42,-870.519C1424.79,-860.162 1437.88,-819.959 1444.59,-799.343"/>
<polygon fill="black" stroke="black" points="1447.97,-800.252 1447.74,-789.659 1441.32,-798.084 1447.97,-800.252"/>
<text text-anchor="middle" x="1476.61" y="-826.3" font-family="Times,serif" font-size="14.00">version_ch</text>
</g>
<!-- p32 -->
<g id="node30" class="node"><title>p32</title>
<ellipse fill="none" stroke="black" cx="103.608" cy="-830" rx="3.25" ry="3.5"/>
<text text-anchor="middle" x="70.6083" y="-837.3" font-family="Times,serif" font-size="14.00">splitCsv</text>
</g>
<!-- p24&#45;&gt;p32 -->
<g id="edge28" class="edge"><title>p24&#45;&gt;p32</title>
<path fill="none" stroke="black" d="M888.001,-948.829C812.531,-943.194 725.39,-935.592 646.608,-926 553.624,-914.679 530.912,-907.947 438.608,-892 312.952,-870.292 161.208,-841.857 116.554,-833.444"/>
<polygon fill="black" stroke="black" points="117.064,-829.979 106.589,-831.564 115.766,-836.858 117.064,-829.979"/>
<text text-anchor="middle" x="670.608" y="-914.3" font-family="Times,serif" font-size="14.00">output</text>
</g>
<!-- p24&#45;&gt;p25 -->
<g id="edge29" class="edge"><title>p24&#45;&gt;p25</title>
<path fill="none" stroke="black" d="M1146.97,-944.418C1229.45,-923.495 1365.63,-888.946 1407.78,-878.255"/>
<polygon fill="black" stroke="black" points="1408.69,-881.635 1417.52,-875.783 1406.97,-874.85 1408.69,-881.635"/>
</g>
<!-- p23 -->
<g id="node29" class="node"><title>p23</title>
<ellipse fill="black" stroke="black" cx="1055.61" cy="-1036" rx="3.6" ry="3.6"/>
</g>
<!-- p23&#45;&gt;p24 -->
<g id="edge27" class="edge"><title>p23&#45;&gt;p24</title>
<path fill="none" stroke="black" d="M1054.75,-1032.21C1052.97,-1025.89 1049.35,-1010.14 1053.61,-998 1054.78,-994.668 1056.41,-991.418 1058.31,-988.325"/>
<polygon fill="black" stroke="black" points="1061.23,-990.26 1064.19,-980.088 1055.53,-986.194 1061.23,-990.26"/>
<text text-anchor="middle" x="1072.11" y="-1002.3" font-family="Times,serif" font-size="14.00">meta</text>
</g>
<!-- p32&#45;&gt;p38 -->
<g id="edge37" class="edge"><title>p32&#45;&gt;p38</title>
<path fill="none" stroke="black" d="M100.453,-828.685C85.2161,-827.093 19.51,-819.398 7.60831,-804 -2.1765,-791.341 -2.79296,-780.158 7.60831,-768 19.3774,-754.243 225.488,-729.252 368.545,-713.421"/>
<polygon fill="black" stroke="black" points="369.177,-716.873 378.733,-712.297 368.41,-709.915 369.177,-716.873"/>
<text text-anchor="middle" x="85.6083" y="-782.3" font-family="Times,serif" font-size="14.00">each_sample_bam_ch</text>
</g>
<!-- p30 -->
<g id="node32" class="node"><title>p30</title>
<ellipse fill="none" stroke="black" cx="1451.61" cy="-698" rx="334.106" ry="18"/>
<text text-anchor="middle" x="1451.61" y="-694.3" font-family="Times,serif" font-size="14.00">GRIDSS_VIRUS_BND:SAMTOOLS_SAMPLES_01:MERGE_VERSION</text>
</g>
<!-- p26&#45;&gt;p30 -->
<g id="edge31" class="edge"><title>p26&#45;&gt;p30</title>
<path fill="none" stroke="black" d="M1448.71,-782.139C1449.01,-773.502 1449.93,-747.011 1450.66,-726.227"/>
<polygon fill="black" stroke="black" points="1454.16,-726.12 1451.02,-716.004 1447.17,-725.876 1454.16,-726.12"/>
</g>
<!-- p30&#45;&gt;p31 -->
<g id="edge35" class="edge"><title>p30&#45;&gt;p31</title>
<path fill="none" stroke="black" d="M1368.1,-680.482C1278.32,-662.723 1142.78,-635.912 1100.6,-627.57"/>
<polygon fill="black" stroke="black" points="1101.15,-624.111 1090.66,-625.604 1099.79,-630.978 1101.15,-624.111"/>
</g>
<!-- p27 -->
<g id="node33" class="node"><title>p27</title>
<ellipse fill="black" stroke="black" cx="1484.61" cy="-786" rx="3.6" ry="3.6"/>
</g>
<!-- p27&#45;&gt;p30 -->
<g id="edge32" class="edge"><title>p27&#45;&gt;p30</title>
<path fill="none" stroke="black" d="M1483.66,-782.519C1480.48,-774.245 1470,-746.926 1461.88,-725.761"/>
<polygon fill="black" stroke="black" points="1465.08,-724.35 1458.23,-716.268 1458.55,-726.858 1465.08,-724.35"/>
<text text-anchor="middle" x="1490.11" y="-738.3" font-family="Times,serif" font-size="14.00">meta</text>
</g>
<!-- p28 -->
<g id="node34" class="node"><title>p28</title>
<ellipse fill="black" stroke="black" cx="1544.61" cy="-786" rx="3.6" ry="3.6"/>
</g>
<!-- p28&#45;&gt;p30 -->
<g id="edge33" class="edge"><title>p28&#45;&gt;p30</title>
<path fill="none" stroke="black" d="M1543.51,-782.359C1540.05,-774.254 1528.58,-749.357 1512.61,-734 1507.76,-729.338 1502.17,-725.062 1496.39,-721.221"/>
<polygon fill="black" stroke="black" points="1498.18,-718.214 1487.84,-715.911 1494.49,-724.16 1498.18,-718.214"/>
<text text-anchor="middle" x="1545.61" y="-738.3" font-family="Times,serif" font-size="14.00">name</text>
</g>
<!-- p29 -->
<g id="node35" class="node"><title>p29</title>
<ellipse fill="black" stroke="black" cx="1357.61" cy="-786" rx="3.6" ry="3.6"/>
</g>
<!-- p29&#45;&gt;p30 -->
<g id="edge34" class="edge"><title>p29&#45;&gt;p30</title>
<path fill="none" stroke="black" d="M1357.12,-782.322C1355.8,-774.111 1352.96,-748.94 1364.61,-734 1368.39,-729.148 1372.96,-724.965 1377.99,-721.361"/>
<polygon fill="black" stroke="black" points="1380.21,-724.095 1386.84,-715.824 1376.5,-718.16 1380.21,-724.095"/>
<text text-anchor="middle" x="1405.61" y="-738.3" font-family="Times,serif" font-size="14.00">description</text>
</g>
<!-- p35&#45;&gt;p39 -->
<g id="edge41" class="edge"><title>p35&#45;&gt;p39</title>
<path fill="none" stroke="black" d="M787.484,-562.18C764.851,-556.24 625.671,-519.713 582.419,-508.362"/>
<polygon fill="black" stroke="black" points="583.181,-504.943 572.62,-505.79 581.404,-511.714 583.181,-504.943"/>
<text text-anchor="middle" x="745.608" y="-530.3" font-family="Times,serif" font-size="14.00">version_ch</text>
</g>
<!-- p33 -->
<g id="node37" class="node"><title>p33</title>
<ellipse fill="black" stroke="black" cx="451.608" cy="-874" rx="3.6" ry="3.6"/>
</g>
<!-- p33&#45;&gt;p34 -->
<g id="edge38" class="edge"><title>p33&#45;&gt;p34</title>
<path fill="none" stroke="black" d="M451.608,-870.139C451.608,-861.502 451.608,-835.011 451.608,-814.227"/>
<polygon fill="black" stroke="black" points="455.108,-814.004 451.608,-804.004 448.108,-814.004 455.108,-814.004"/>
<text text-anchor="middle" x="470.108" y="-826.3" font-family="Times,serif" font-size="14.00">meta</text>
</g>
<!-- p41 -->
<g id="node42" class="node"><title>p41</title>
<ellipse fill="none" stroke="black" cx="569.608" cy="-444" rx="3.25" ry="3.5"/>
<text text-anchor="middle" x="541.608" y="-451.3" font-family="Times,serif" font-size="14.00">collect</text>
</g>
<!-- p39&#45;&gt;p41 -->
<g id="edge47" class="edge"><title>p39&#45;&gt;p41</title>
<path fill="none" stroke="black" d="M569.608,-500.203C569.608,-492.649 569.608,-471.48 569.608,-457.66"/>
<polygon fill="black" stroke="black" points="573.108,-457.636 569.608,-447.636 566.108,-457.636 573.108,-457.636"/>
<text text-anchor="middle" x="608.608" y="-470.3" font-family="Times,serif" font-size="14.00">version_ch</text>
</g>
<!-- p36 -->
<g id="node39" class="node"><title>p36</title>
<ellipse fill="black" stroke="black" cx="276.608" cy="-698" rx="3.6" ry="3.6"/>
<text text-anchor="middle" x="218.508" y="-705.4" font-family="Times,serif" font-size="14.00">Channel.empty</text>
</g>
<!-- p36&#45;&gt;p40 -->
<g id="edge42" class="edge"><title>p36&#45;&gt;p40</title>
<path fill="none" stroke="black" d="M278.145,-694.275C280.309,-690.634 284.561,-684.157 289.608,-680 320.839,-654.277 366.112,-636.659 387.923,-629.124"/>
<polygon fill="black" stroke="black" points="389.188,-632.392 397.582,-625.928 386.989,-625.747 389.188,-632.392"/>
<text text-anchor="middle" x="366.108" y="-650.3" font-family="Times,serif" font-size="14.00">to_zip</text>
</g>
<!-- p46 -->
<g id="node43" class="node"><title>p46</title>
<ellipse fill="none" stroke="black" cx="457.608" cy="-282" rx="3.25" ry="3.5"/>
<text text-anchor="middle" x="440.608" y="-289.3" font-family="Times,serif" font-size="14.00">mix</text>
</g>
<!-- p40&#45;&gt;p46 -->
<g id="edge48" class="edge"><title>p40&#45;&gt;p46</title>
<path fill="none" stroke="black" d="M400.608,-620.341C400.608,-612.114 400.608,-586.347 400.608,-565 400.608,-565 400.608,-565 400.608,-369 400.608,-335.773 430.537,-305.544 447.021,-291.415"/>
<polygon fill="black" stroke="black" points="449.597,-293.832 455.159,-284.815 445.188,-288.395 449.597,-293.832"/>
<text text-anchor="middle" x="422.108" y="-470.3" font-family="Times,serif" font-size="14.00">to_zip</text>
</g>
<!-- p37 -->
<g id="node41" class="node"><title>p37</title>
<ellipse fill="black" stroke="black" cx="176.608" cy="-786" rx="3.6" ry="3.6"/>
</g>
<!-- p37&#45;&gt;p38 -->
<g id="edge43" class="edge"><title>p37&#45;&gt;p38</title>
<path fill="none" stroke="black" d="M177.874,-782.344C179.831,-778.537 183.966,-771.591 189.608,-768 235.309,-738.913 291.467,-721.957 343.646,-712.117"/>
<polygon fill="black" stroke="black" points="344.464,-715.525 353.681,-710.301 343.218,-708.637 344.464,-715.525"/>
<text text-anchor="middle" x="279.108" y="-738.3" font-family="Times,serif" font-size="14.00">meta</text>
</g>
<!-- p45 -->
<g id="node44" class="node"><title>p45</title>
<ellipse fill="none" stroke="black" cx="632.608" cy="-370" rx="204.123" ry="18"/>
<text text-anchor="middle" x="632.608" y="-366.3" font-family="Times,serif" font-size="14.00">GRIDSS_VIRUS_BND:MERGE_VERSION</text>
</g>
<!-- p41&#45;&gt;p45 -->
<g id="edge49" class="edge"><title>p41&#45;&gt;p45</title>
<path fill="none" stroke="black" d="M571.269,-440.574C575.443,-434.529 586.814,-418.392 597.608,-406 600.676,-402.479 604.018,-398.875 607.38,-395.383"/>
<polygon fill="black" stroke="black" points="610.141,-397.568 614.674,-387.991 605.159,-392.651 610.141,-397.568"/>
</g>
<!-- p49 -->
<g id="node48" class="node"><title>p49</title>
<ellipse fill="none" stroke="black" cx="598.608" cy="-208" rx="3.25" ry="3.5"/>
<text text-anchor="middle" x="581.608" y="-215.3" font-family="Times,serif" font-size="14.00">mix</text>
</g>
<!-- p46&#45;&gt;p49 -->
<g id="edge54" class="edge"><title>p46&#45;&gt;p49</title>
<path fill="none" stroke="black" d="M458.835,-278.719C460.859,-275.146 465.216,-268.202 470.608,-264 507.327,-235.391 561.178,-218.713 585.65,-212.196"/>
<polygon fill="black" stroke="black" points="586.684,-215.545 595.523,-209.705 584.971,-208.758 586.684,-215.545"/>
<text text-anchor="middle" x="552.108" y="-234.3" font-family="Times,serif" font-size="14.00">to_zip</text>
</g>
<!-- p45&#45;&gt;p46 -->
<g id="edge53" class="edge"><title>p45&#45;&gt;p46</title>
<path fill="none" stroke="black" d="M575.171,-352.632C542.33,-341.385 501.634,-324.094 470.608,-300 468.33,-298.231 466.239,-295.972 464.43,-293.682"/>
<polygon fill="black" stroke="black" points="467.291,-291.664 458.834,-285.283 461.465,-295.545 467.291,-291.664"/>
</g>
<!-- p48 -->
<g id="node50" class="node"><title>p48</title>
<ellipse fill="none" stroke="black" cx="695.608" cy="-282" rx="216.146" ry="18"/>
<text text-anchor="middle" x="695.608" y="-278.3" font-family="Times,serif" font-size="14.00">GRIDSS_VIRUS_BND:VERSION_TO_HTML</text>
</g>
<!-- p45&#45;&gt;p48 -->
<g id="edge56" class="edge"><title>p45&#45;&gt;p48</title>
<path fill="none" stroke="black" d="M645.055,-352.009C654.142,-339.605 666.618,-322.574 676.902,-308.536"/>
<polygon fill="black" stroke="black" points="679.886,-310.385 682.972,-300.25 674.239,-306.249 679.886,-310.385"/>
<text text-anchor="middle" x="684.108" y="-322.3" font-family="Times,serif" font-size="14.00">xml</text>
</g>
<!-- p42 -->
<g id="node45" class="node"><title>p42</title>
<ellipse fill="black" stroke="black" cx="602.608" cy="-444" rx="3.6" ry="3.6"/>
</g>
<!-- p42&#45;&gt;p45 -->
<g id="edge50" class="edge"><title>p42&#45;&gt;p45</title>
<path fill="none" stroke="black" d="M602.082,-440.19C601.02,-433.846 599.087,-418.03 603.608,-406 604.868,-402.648 606.592,-399.385 608.576,-396.284"/>
<polygon fill="black" stroke="black" points="611.546,-398.156 614.689,-388.038 605.922,-393.987 611.546,-398.156"/>
<text text-anchor="middle" x="622.108" y="-410.3" font-family="Times,serif" font-size="14.00">meta</text>
</g>
<!-- p43 -->
<g id="node46" class="node"><title>p43</title>
<ellipse fill="black" stroke="black" cx="662.608" cy="-444" rx="3.6" ry="3.6"/>
</g>
<!-- p43&#45;&gt;p45 -->
<g id="edge51" class="edge"><title>p43&#45;&gt;p45</title>
<path fill="none" stroke="black" d="M661.469,-440.265C658.534,-433.222 650.466,-413.859 643.604,-397.39"/>
<polygon fill="black" stroke="black" points="646.828,-396.027 639.751,-388.143 640.367,-398.72 646.828,-396.027"/>
<text text-anchor="middle" x="674.608" y="-410.3" font-family="Times,serif" font-size="14.00">name</text>
</g>
<!-- p44 -->
<g id="node47" class="node"><title>p44</title>
<ellipse fill="black" stroke="black" cx="725.608" cy="-444" rx="3.6" ry="3.6"/>
</g>
<!-- p44&#45;&gt;p45 -->
<g id="edge52" class="edge"><title>p44&#45;&gt;p45</title>
<path fill="none" stroke="black" d="M724.236,-440.355C720.734,-433.811 710.868,-416.623 698.608,-406 693.015,-401.153 686.636,-396.729 680.1,-392.778"/>
<polygon fill="black" stroke="black" points="681.571,-389.589 671.148,-387.69 678.112,-395.674 681.571,-389.589"/>
<text text-anchor="middle" x="754.608" y="-410.3" font-family="Times,serif" font-size="14.00">description</text>
</g>
<!-- p50 -->
<g id="node51" class="node"><title>p50</title>
<ellipse fill="none" stroke="black" cx="598.608" cy="-148" rx="3.25" ry="3.5"/>
<text text-anchor="middle" x="570.608" y="-155.3" font-family="Times,serif" font-size="14.00">collect</text>
</g>
<!-- p49&#45;&gt;p50 -->
<g id="edge58" class="edge"><title>p49&#45;&gt;p50</title>
<path fill="none" stroke="black" d="M598.608,-204.203C598.608,-196.649 598.608,-175.48 598.608,-161.66"/>
<polygon fill="black" stroke="black" points="602.108,-161.636 598.608,-151.636 595.108,-161.636 602.108,-161.636"/>
<text text-anchor="middle" x="620.108" y="-174.3" font-family="Times,serif" font-size="14.00">to_zip</text>
</g>
<!-- p47 -->
<g id="node49" class="node"><title>p47</title>
<ellipse fill="black" stroke="black" cx="858.608" cy="-370" rx="3.6" ry="3.6"/>
</g>
<!-- p47&#45;&gt;p48 -->
<g id="edge55" class="edge"><title>p47&#45;&gt;p48</title>
<path fill="none" stroke="black" d="M857.089,-366.254C854.945,-362.588 850.715,-356.084 845.608,-352 819.26,-330.93 785.434,-314.649 756.574,-303.208"/>
<polygon fill="black" stroke="black" points="757.585,-299.846 746.996,-299.513 755.066,-306.377 757.585,-299.846"/>
<text text-anchor="middle" x="835.108" y="-322.3" font-family="Times,serif" font-size="14.00">meta</text>
</g>
<!-- p48&#45;&gt;p49 -->
<g id="edge57" class="edge"><title>p48&#45;&gt;p49</title>
<path fill="none" stroke="black" d="M672.621,-263.937C652.604,-249.08 624.483,-228.206 609.316,-216.948"/>
<polygon fill="black" stroke="black" points="610.978,-213.823 600.862,-210.673 606.805,-219.443 610.978,-213.823"/>
</g>
<!-- p52 -->
<g id="node52" class="node"><title>p52</title>
<ellipse fill="none" stroke="black" cx="614.608" cy="-74" rx="192.075" ry="18"/>
<text text-anchor="middle" x="614.608" y="-70.3" font-family="Times,serif" font-size="14.00">GRIDSS_VIRUS_BND:SIMPLE_ZIP_01</text>
</g>
<!-- p50&#45;&gt;p52 -->
<g id="edge59" class="edge"><title>p50&#45;&gt;p52</title>
<path fill="none" stroke="black" d="M599.216,-144.265C600.752,-137.354 604.924,-118.578 608.538,-102.316"/>
<polygon fill="black" stroke="black" points="612.046,-102.664 610.799,-92.1429 605.213,-101.145 612.046,-102.664"/>
</g>
<!-- p54 -->
<g id="node54" class="node"><title>p54</title>
<ellipse fill="black" stroke="black" cx="596.608" cy="-2" rx="1.8" ry="1.8"/>
</g>
<!-- p52&#45;&gt;p54 -->
<g id="edge61" class="edge"><title>p52&#45;&gt;p54</title>
<path fill="none" stroke="black" d="M604.438,-55.7436C601.699,-50.2541 599.088,-44.0362 597.608,-38 595.684,-30.1475 595.489,-21.0073 595.746,-14.0369"/>
<polygon fill="black" stroke="black" points="599.25,-14.1155 596.499,-3.88397 592.269,-13.5976 599.25,-14.1155"/>
<text text-anchor="middle" x="608.608" y="-26.3" font-family="Times,serif" font-size="14.00">zip</text>
</g>
<!-- p53 -->
<g id="node55" class="node"><title>p53</title>
<ellipse fill="black" stroke="black" cx="633.608" cy="-2" rx="1.8" ry="1.8"/>
</g>
<!-- p52&#45;&gt;p53 -->
<g id="edge62" class="edge"><title>p52&#45;&gt;p53</title>
<path fill="none" stroke="black" d="M619.305,-55.6966C622.89,-42.488 627.714,-24.716 630.742,-13.5595"/>
<polygon fill="black" stroke="black" points="634.147,-14.375 633.389,-3.8073 627.392,-12.5413 634.147,-14.375"/>
</g>
<!-- p51 -->
<g id="node53" class="node"><title>p51</title>
<ellipse fill="black" stroke="black" cx="631.608" cy="-148" rx="3.6" ry="3.6"/>
</g>
<!-- p51&#45;&gt;p52 -->
<g id="edge60" class="edge"><title>p51&#45;&gt;p52</title>
<path fill="none" stroke="black" d="M630.963,-144.265C629.331,-137.354 624.898,-118.578 621.058,-102.316"/>
<polygon fill="black" stroke="black" points="624.36,-101.071 618.656,-92.1429 617.548,-102.68 624.36,-101.071"/>
<text text-anchor="middle" x="645.108" y="-114.3" font-family="Times,serif" font-size="14.00">meta</text>
</g>
</g>
</svg>
