<?xml version="1.0" encoding="UTF-8" standalone="no"?>
<!DOCTYPE svg PUBLIC "-//W3C//DTD SVG 1.1//EN"
 "http://www.w3.org/Graphics/SVG/1.1/DTD/svg11.dtd">
<!-- Generated by graphviz version 2.30.1 (20201013.1554)
 -->
<!-- Title: 20230509ncbigenesworkflow Pages: 1 -->
<svg width="603pt" height="1088pt"
 viewBox="0.00 0.00 602.50 1088.00" xmlns="http://www.w3.org/2000/svg" xmlns:xlink="http://www.w3.org/1999/xlink">
<g id="graph0" class="graph" transform="scale(1 1) rotate(0) translate(4 1084)">
<title>20230509ncbigenesworkflow</title>
<polygon fill="white" stroke="white" points="-4,5 -4,-1084 599.5,-1084 599.5,5 -4,5"/>
<!-- p0 -->
<g id="node1" class="node"><title>p0</title>
<ellipse fill="black" stroke="black" cx="462.5" cy="-868" rx="3.6" ry="3.6"/>
<text text-anchor="middle" x="500.9" y="-875.4" font-family="Times,serif" font-size="14.00">Channel.empty</text>
</g>
<!-- p3 -->
<g id="node2" class="node"><title>p3</title>
<ellipse fill="none" stroke="black" cx="393.5" cy="-794" rx="3.25" ry="3.5"/>
<text text-anchor="middle" x="379" y="-801.3" font-family="Times,serif" font-size="14.00">mix</text>
</g>
<!-- p0&#45;&gt;p3 -->
<g id="edge1" class="edge"><title>p0&#45;&gt;p3</title>
<path fill="none" stroke="black" d="M460.894,-864.355C458.65,-860.805 454.308,-854.432 449.5,-850 438.621,-839.974 432.353,-842.053 421.5,-832 413.212,-824.322 405.601,-813.952 400.413,-806.144"/>
<polygon fill="black" stroke="black" points="403.303,-804.164 395.004,-797.577 397.384,-807.902 403.303,-804.164"/>
<text text-anchor="middle" x="451" y="-820.3" font-family="Times,serif" font-size="14.00">version_ch</text>
</g>
<!-- p6 -->
<g id="node6" class="node"><title>p6</title>
<ellipse fill="none" stroke="black" cx="393.5" cy="-720" rx="3.25" ry="3.5"/>
<text text-anchor="middle" x="379" y="-727.3" font-family="Times,serif" font-size="14.00">mix</text>
</g>
<!-- p3&#45;&gt;p6 -->
<g id="edge5" class="edge"><title>p3&#45;&gt;p6</title>
<path fill="none" stroke="black" d="M393.5,-790.265C393.5,-781.133 393.5,-751.282 393.5,-733.892"/>
<polygon fill="black" stroke="black" points="397,-733.737 393.5,-723.737 390,-733.737 397,-733.737"/>
<text text-anchor="middle" x="423" y="-760.3" font-family="Times,serif" font-size="14.00">version_ch</text>
</g>
<!-- p1 -->
<g id="node3" class="node"><title>p1</title>
<ellipse fill="black" stroke="black" cx="245.5" cy="-942" rx="3.6" ry="3.6"/>
</g>
<!-- p2 -->
<g id="node4" class="node"><title>p2</title>
<ellipse fill="none" stroke="black" cx="245.5" cy="-868" rx="195.449" ry="18"/>
<text text-anchor="middle" x="245.5" y="-864.3" font-family="Times,serif" font-size="14.00">BUILD_NCBI_GENE_DB:MAKE_AWK_SCRIPT</text>
</g>
<!-- p1&#45;&gt;p2 -->
<g id="edge2" class="edge"><title>p1&#45;&gt;p2</title>
<path fill="none" stroke="black" d="M245.5,-938.265C245.5,-931.354 245.5,-912.578 245.5,-896.316"/>
<polygon fill="black" stroke="black" points="249,-896.143 245.5,-886.143 242,-896.143 249,-896.143"/>
<text text-anchor="middle" x="259.5" y="-908.3" font-family="Times,serif" font-size="14.00">meta</text>
</g>
<!-- p11 -->
<g id="node5" class="node"><title>p11</title>
<ellipse fill="none" stroke="black" cx="193.5" cy="-720" rx="161.279" ry="18"/>
<text text-anchor="middle" x="193.5" y="-716.3" font-family="Times,serif" font-size="14.00">BUILD_NCBI_GENE_DB:WGET_GBFF</text>
</g>
<!-- p2&#45;&gt;p11 -->
<g id="edge3" class="edge"><title>p2&#45;&gt;p11</title>
<path fill="none" stroke="black" d="M246.608,-849.79C247.334,-827.034 246.025,-786.283 230.5,-756 228.549,-752.194 226.013,-748.576 223.185,-745.212"/>
<polygon fill="black" stroke="black" points="225.615,-742.689 216.189,-737.852 220.542,-747.511 225.615,-742.689"/>
</g>
<!-- p2&#45;&gt;p3 -->
<g id="edge4" class="edge"><title>p2&#45;&gt;p3</title>
<path fill="none" stroke="black" d="M280.199,-850.119C312.783,-834.268 359.689,-811.449 381.502,-800.837"/>
<polygon fill="black" stroke="black" points="383.327,-803.841 390.788,-796.319 380.264,-797.547 383.327,-803.841"/>
</g>
<!-- p13 -->
<g id="node14" class="node"><title>p13</title>
<ellipse fill="none" stroke="black" cx="193.5" cy="-646" rx="3.25" ry="3.5"/>
<text text-anchor="middle" x="171.5" y="-653.3" font-family="Times,serif" font-size="14.00">collect</text>
</g>
<!-- p11&#45;&gt;p13 -->
<g id="edge14" class="edge"><title>p11&#45;&gt;p13</title>
<path fill="none" stroke="black" d="M193.5,-701.937C193.5,-689.126 193.5,-671.843 193.5,-660.107"/>
<polygon fill="black" stroke="black" points="197,-659.748 193.5,-649.748 190,-659.748 197,-659.748"/>
</g>
<!-- p12 -->
<g id="node10" class="node"><title>p12</title>
<ellipse fill="none" stroke="black" cx="372.5" cy="-646" rx="3.25" ry="3.5"/>
<text text-anchor="middle" x="358" y="-653.3" font-family="Times,serif" font-size="14.00">mix</text>
</g>
<!-- p11&#45;&gt;p12 -->
<g id="edge15" class="edge"><title>p11&#45;&gt;p12</title>
<path fill="none" stroke="black" d="M234.566,-702.482C275.198,-686.138 334.888,-662.129 360.311,-651.903"/>
<polygon fill="black" stroke="black" points="361.628,-655.146 369.6,-648.167 359.016,-648.651 361.628,-655.146"/>
</g>
<!-- p6&#45;&gt;p12 -->
<g id="edge9" class="edge"><title>p6&#45;&gt;p12</title>
<path fill="none" stroke="black" d="M392.702,-716.265C390.002,-707.005 381.089,-676.446 376.05,-659.172"/>
<polygon fill="black" stroke="black" points="379.371,-658.057 373.211,-649.437 372.651,-660.017 379.371,-658.057"/>
<text text-anchor="middle" x="413" y="-672.3" font-family="Times,serif" font-size="14.00">version_ch</text>
</g>
<!-- p4 -->
<g id="node7" class="node"><title>p4</title>
<ellipse fill="black" stroke="black" cx="407.5" cy="-1076" rx="3.6" ry="3.6"/>
</g>
<!-- p5 -->
<g id="node8" class="node"><title>p5</title>
<ellipse fill="none" stroke="black" cx="407.5" cy="-1002" rx="187.275" ry="18"/>
<text text-anchor="middle" x="407.5" y="-998.3" font-family="Times,serif" font-size="14.00">BUILD_NCBI_GENE_DB:WGET_INSTALLED</text>
</g>
<!-- p4&#45;&gt;p5 -->
<g id="edge6" class="edge"><title>p4&#45;&gt;p5</title>
<path fill="none" stroke="black" d="M407.5,-1072.27C407.5,-1065.35 407.5,-1046.58 407.5,-1030.32"/>
<polygon fill="black" stroke="black" points="411,-1030.14 407.5,-1020.14 404,-1030.14 411,-1030.14"/>
<text text-anchor="middle" x="421.5" y="-1042.3" font-family="Times,serif" font-size="14.00">meta</text>
</g>
<!-- p7 -->
<g id="node9" class="node"><title>p7</title>
<ellipse fill="none" stroke="black" cx="170.5" cy="-942" rx="3.25" ry="3.5"/>
<text text-anchor="middle" x="144.5" y="-949.3" font-family="Times,serif" font-size="14.00">splitCsv</text>
</g>
<!-- p5&#45;&gt;p7 -->
<g id="edge7" class="edge"><title>p5&#45;&gt;p7</title>
<path fill="none" stroke="black" d="M342.425,-985.075C287.515,-971.637 213.249,-953.462 183.556,-946.195"/>
<polygon fill="black" stroke="black" points="184.055,-942.714 173.509,-943.736 182.391,-949.513 184.055,-942.714"/>
</g>
<!-- p5&#45;&gt;p6 -->
<g id="edge8" class="edge"><title>p5&#45;&gt;p6</title>
<path fill="none" stroke="black" d="M461.609,-984.667C479.301,-975.743 494.5,-962.424 494.5,-943 494.5,-943 494.5,-943 494.5,-793 494.5,-750.423 434.253,-730.665 406.821,-723.876"/>
<polygon fill="black" stroke="black" points="407.385,-720.415 396.86,-721.634 405.848,-727.244 407.385,-720.415"/>
</g>
<!-- p8 -->
<g id="node11" class="node"><title>p8</title>
<ellipse fill="none" stroke="black" cx="28.5" cy="-868" rx="3.25" ry="3.5"/>
<text text-anchor="middle" x="12.5" y="-875.3" font-family="Times,serif" font-size="14.00">map</text>
</g>
<!-- p7&#45;&gt;p8 -->
<g id="edge10" class="edge"><title>p7&#45;&gt;p8</title>
<path fill="none" stroke="black" d="M167.339,-940.343C151.925,-937.009 83.6282,-920.747 40.5,-886 38.6433,-884.504 36.9464,-882.65 35.4502,-880.721"/>
<polygon fill="black" stroke="black" points="38.1145,-878.382 29.8327,-871.774 32.1862,-882.104 38.1145,-878.382"/>
</g>
<!-- p16 -->
<g id="node15" class="node"><title>p16</title>
<ellipse fill="none" stroke="black" cx="372.5" cy="-512" rx="3.25" ry="3.5"/>
<text text-anchor="middle" x="358" y="-519.3" font-family="Times,serif" font-size="14.00">mix</text>
</g>
<!-- p12&#45;&gt;p16 -->
<g id="edge16" class="edge"><title>p12&#45;&gt;p16</title>
<path fill="none" stroke="black" d="M372.5,-642.243C372.5,-627.279 372.5,-555.397 372.5,-525.788"/>
<polygon fill="black" stroke="black" points="376,-525.742 372.5,-515.742 369,-525.742 376,-525.742"/>
<text text-anchor="middle" x="402" y="-568.3" font-family="Times,serif" font-size="14.00">version_ch</text>
</g>
<!-- p9 -->
<g id="node12" class="node"><title>p9</title>
<ellipse fill="none" stroke="black" cx="175.5" cy="-794" rx="3.25" ry="3.5"/>
<text text-anchor="middle" x="159" y="-801.3" font-family="Times,serif" font-size="14.00">filter</text>
</g>
<!-- p8&#45;&gt;p9 -->
<g id="edge11" class="edge"><title>p8&#45;&gt;p9</title>
<path fill="none" stroke="black" d="M29.8249,-864.216C31.717,-860.508 35.5223,-853.956 40.5,-850 78.9811,-819.419 136.776,-803.583 162.431,-797.72"/>
<polygon fill="black" stroke="black" points="163.173,-801.141 172.217,-795.623 161.706,-794.296 163.173,-801.141"/>
</g>
<!-- p9&#45;&gt;p11 -->
<g id="edge12" class="edge"><title>p9&#45;&gt;p11</title>
<path fill="none" stroke="black" d="M176.184,-790.265C177.928,-783.288 182.695,-764.219 186.787,-747.852"/>
<polygon fill="black" stroke="black" points="190.184,-748.693 189.214,-738.143 183.393,-746.995 190.184,-748.693"/>
<text text-anchor="middle" x="205.5" y="-760.3" font-family="Times,serif" font-size="14.00">gbff_ch</text>
</g>
<!-- p10 -->
<g id="node13" class="node"><title>p10</title>
<ellipse fill="black" stroke="black" cx="137.5" cy="-794" rx="3.6" ry="3.6"/>
</g>
<!-- p10&#45;&gt;p11 -->
<g id="edge13" class="edge"><title>p10&#45;&gt;p11</title>
<path fill="none" stroke="black" d="M137.867,-790.056C138.809,-783.439 141.805,-767.099 149.5,-756 152.274,-751.999 155.637,-748.229 159.254,-744.751"/>
<polygon fill="black" stroke="black" points="161.703,-747.259 166.93,-738.043 157.097,-741.988 161.703,-747.259"/>
<text text-anchor="middle" x="163.5" y="-760.3" font-family="Times,serif" font-size="14.00">meta</text>
</g>
<!-- p15 -->
<g id="node16" class="node"><title>p15</title>
<ellipse fill="none" stroke="black" cx="169.5" cy="-572" rx="167.053" ry="18"/>
<text text-anchor="middle" x="169.5" y="-568.3" font-family="Times,serif" font-size="14.00">BUILD_NCBI_GENE_DB:MERGE_GBFF</text>
</g>
<!-- p13&#45;&gt;p15 -->
<g id="edge17" class="edge"><title>p13&#45;&gt;p15</title>
<path fill="none" stroke="black" d="M192.701,-642.604C190.479,-635.936 184.019,-616.557 178.478,-599.935"/>
<polygon fill="black" stroke="black" points="181.676,-598.46 175.193,-590.08 175.035,-600.674 181.676,-598.46"/>
</g>
<!-- p17 -->
<g id="node19" class="node"><title>p17</title>
<ellipse fill="none" stroke="black" cx="375.5" cy="-452" rx="3.25" ry="3.5"/>
<text text-anchor="middle" x="353.5" y="-459.3" font-family="Times,serif" font-size="14.00">collect</text>
</g>
<!-- p16&#45;&gt;p17 -->
<g id="edge21" class="edge"><title>p16&#45;&gt;p17</title>
<path fill="none" stroke="black" d="M372.645,-508.203C373.035,-500.649 374.13,-479.48 374.845,-465.66"/>
<polygon fill="black" stroke="black" points="378.342,-465.803 375.364,-455.636 371.352,-465.442 378.342,-465.803"/>
<text text-anchor="middle" x="404" y="-478.3" font-family="Times,serif" font-size="14.00">version_ch</text>
</g>
<!-- p27 -->
<g id="node18" class="node"><title>p27</title>
<ellipse fill="none" stroke="black" cx="216.5" cy="-138" rx="3.25" ry="3.5"/>
<text text-anchor="middle" x="202" y="-145.3" font-family="Times,serif" font-size="14.00">mix</text>
</g>
<!-- p15&#45;&gt;p27 -->
<g id="edge19" class="edge"><title>p15&#45;&gt;p27</title>
<path fill="none" stroke="black" d="M169.053,-553.997C168.786,-542.438 168.5,-526.797 168.5,-513 168.5,-513 168.5,-513 168.5,-183 168.5,-163.554 190.172,-150.375 204.391,-143.821"/>
<polygon fill="black" stroke="black" points="205.74,-147.051 213.641,-139.992 203.063,-140.583 205.74,-147.051"/>
<text text-anchor="middle" x="186" y="-330.3" font-family="Times,serif" font-size="14.00">output</text>
</g>
<!-- p15&#45;&gt;p16 -->
<g id="edge20" class="edge"><title>p15&#45;&gt;p16</title>
<path fill="none" stroke="black" d="M225.508,-554.998C271.497,-541.858 333.197,-524.229 359.617,-516.681"/>
<polygon fill="black" stroke="black" points="360.876,-519.961 369.53,-513.849 358.953,-513.231 360.876,-519.961"/>
</g>
<!-- p14 -->
<g id="node17" class="node"><title>p14</title>
<ellipse fill="black" stroke="black" cx="150.5" cy="-646" rx="3.6" ry="3.6"/>
</g>
<!-- p14&#45;&gt;p15 -->
<g id="edge18" class="edge"><title>p14&#45;&gt;p15</title>
<path fill="none" stroke="black" d="M150.164,-642.25C149.493,-636.03 148.308,-620.449 151.5,-608 152.232,-605.146 153.228,-602.26 154.379,-599.434"/>
<polygon fill="black" stroke="black" points="157.637,-600.73 158.726,-590.191 151.302,-597.751 157.637,-600.73"/>
<text text-anchor="middle" x="165.5" y="-612.3" font-family="Times,serif" font-size="14.00">meta</text>
</g>
<!-- p28 -->
<g id="node29" class="node"><title>p28</title>
<ellipse fill="none" stroke="black" cx="216.5" cy="-92" rx="3.25" ry="3.5"/>
<text text-anchor="middle" x="194.5" y="-99.3" font-family="Times,serif" font-size="14.00">collect</text>
</g>
<!-- p27&#45;&gt;p28 -->
<g id="edge33" class="edge"><title>p27&#45;&gt;p28</title>
<path fill="none" stroke="black" d="M216.5,-134.379C216.5,-128.864 216.5,-115.742 216.5,-105.742"/>
<polygon fill="black" stroke="black" points="220,-105.552 216.5,-95.5518 213,-105.552 220,-105.552"/>
</g>
<!-- p21 -->
<g id="node20" class="node"><title>p21</title>
<ellipse fill="none" stroke="black" cx="379.5" cy="-378" rx="182.451" ry="18"/>
<text text-anchor="middle" x="379.5" y="-374.3" font-family="Times,serif" font-size="14.00">BUILD_NCBI_GENE_DB:MERGE_VERSION</text>
</g>
<!-- p17&#45;&gt;p21 -->
<g id="edge22" class="edge"><title>p17&#45;&gt;p21</title>
<path fill="none" stroke="black" d="M375.652,-448.265C376.036,-441.354 377.079,-422.578 377.982,-406.316"/>
<polygon fill="black" stroke="black" points="381.487,-406.322 378.548,-396.143 374.498,-405.933 381.487,-406.322"/>
</g>
<!-- p23 -->
<g id="node24" class="node"><title>p23</title>
<ellipse fill="none" stroke="black" cx="484.5" cy="-290" rx="94.338" ry="18"/>
<text text-anchor="middle" x="484.5" y="-286.3" font-family="Times,serif" font-size="14.00">VERSION_TO_HTML</text>
</g>
<!-- p21&#45;&gt;p23 -->
<g id="edge26" class="edge"><title>p21&#45;&gt;p23</title>
<path fill="none" stroke="black" d="M400.245,-360.009C416.311,-346.85 438.734,-328.484 456.409,-314.008"/>
<polygon fill="black" stroke="black" points="458.637,-316.707 464.156,-307.663 454.202,-311.292 458.637,-316.707"/>
</g>
<!-- p26 -->
<g id="node28" class="node"><title>p26</title>
<ellipse fill="none" stroke="black" cx="336.5" cy="-184" rx="3.25" ry="3.5"/>
<text text-anchor="middle" x="322" y="-191.3" font-family="Times,serif" font-size="14.00">mix</text>
</g>
<!-- p21&#45;&gt;p26 -->
<g id="edge31" class="edge"><title>p21&#45;&gt;p26</title>
<path fill="none" stroke="black" d="M372.602,-359.965C367.249,-346.158 360.004,-326.092 355.5,-308 345.638,-268.388 339.984,-220.255 337.699,-197.75"/>
<polygon fill="black" stroke="black" points="341.175,-197.339 336.736,-187.719 334.207,-198.008 341.175,-197.339"/>
</g>
<!-- p18 -->
<g id="node21" class="node"><title>p18</title>
<ellipse fill="black" stroke="black" cx="412.5" cy="-452" rx="3.6" ry="3.6"/>
</g>
<!-- p18&#45;&gt;p21 -->
<g id="edge23" class="edge"><title>p18&#45;&gt;p21</title>
<path fill="none" stroke="black" d="M411.247,-448.265C408.019,-441.222 399.144,-421.859 391.595,-405.39"/>
<polygon fill="black" stroke="black" points="394.705,-403.775 387.357,-396.143 388.342,-406.692 394.705,-403.775"/>
<text text-anchor="middle" x="417.5" y="-418.3" font-family="Times,serif" font-size="14.00">meta</text>
</g>
<!-- p19 -->
<g id="node22" class="node"><title>p19</title>
<ellipse fill="black" stroke="black" cx="249.5" cy="-452" rx="3.6" ry="3.6"/>
</g>
<!-- p19&#45;&gt;p21 -->
<g id="edge24" class="edge"><title>p19&#45;&gt;p21</title>
<path fill="none" stroke="black" d="M250.3,-448.217C252.415,-441.357 258.809,-423.505 270.5,-414 278.134,-407.794 286.89,-402.679 296.051,-398.465"/>
<polygon fill="black" stroke="black" points="297.472,-401.665 305.319,-394.546 294.745,-395.217 297.472,-401.665"/>
<text text-anchor="middle" x="286" y="-418.3" font-family="Times,serif" font-size="14.00">name</text>
</g>
<!-- p20 -->
<g id="node23" class="node"><title>p20</title>
<ellipse fill="black" stroke="black" cx="303.5" cy="-452" rx="3.6" ry="3.6"/>
</g>
<!-- p20&#45;&gt;p21 -->
<g id="edge25" class="edge"><title>p20&#45;&gt;p21</title>
<path fill="none" stroke="black" d="M303.434,-448.355C303.408,-441.81 304.189,-424.621 312.5,-414 316.374,-409.049 321.145,-404.725 326.341,-400.967"/>
<polygon fill="black" stroke="black" points="328.281,-403.881 334.788,-395.519 324.487,-397.998 328.281,-403.881"/>
<text text-anchor="middle" x="343" y="-418.3" font-family="Times,serif" font-size="14.00">description</text>
</g>
<!-- p25 -->
<g id="node26" class="node"><title>p25</title>
<ellipse fill="none" stroke="black" cx="368.5" cy="-230" rx="3.25" ry="3.5"/>
<text text-anchor="middle" x="354" y="-237.3" font-family="Times,serif" font-size="14.00">mix</text>
</g>
<!-- p23&#45;&gt;p25 -->
<g id="edge28" class="edge"><title>p23&#45;&gt;p25</title>
<path fill="none" stroke="black" d="M452.495,-272.998C428.521,-261.011 397.075,-245.288 380.28,-236.89"/>
<polygon fill="black" stroke="black" points="381.775,-233.724 371.265,-232.383 378.644,-239.985 381.775,-233.724"/>
</g>
<!-- p22 -->
<g id="node25" class="node"><title>p22</title>
<ellipse fill="black" stroke="black" cx="583.5" cy="-378" rx="3.6" ry="3.6"/>
</g>
<!-- p22&#45;&gt;p23 -->
<g id="edge27" class="edge"><title>p22&#45;&gt;p23</title>
<path fill="none" stroke="black" d="M581.824,-374.427C579.501,-370.959 575.07,-364.677 570.5,-360 553.983,-343.093 533.392,-326.443 516.499,-313.736"/>
<polygon fill="black" stroke="black" points="518.162,-310.612 508.044,-307.47 513.994,-316.236 518.162,-310.612"/>
<text text-anchor="middle" x="564.5" y="-330.3" font-family="Times,serif" font-size="14.00">meta</text>
</g>
<!-- p25&#45;&gt;p26 -->
<g id="edge30" class="edge"><title>p25&#45;&gt;p26</title>
<path fill="none" stroke="black" d="M366.957,-226.878C362.912,-221.316 351.79,-206.023 344.167,-195.543"/>
<polygon fill="black" stroke="black" points="346.816,-193.233 338.103,-187.205 341.154,-197.351 346.816,-193.233"/>
</g>
<!-- p24 -->
<g id="node27" class="node"><title>p24</title>
<ellipse fill="black" stroke="black" cx="368.5" cy="-290" rx="3.6" ry="3.6"/>
<text text-anchor="middle" x="322.9" y="-297.4" font-family="Times,serif" font-size="14.00">Channel.empty</text>
</g>
<!-- p24&#45;&gt;p25 -->
<g id="edge29" class="edge"><title>p24&#45;&gt;p25</title>
<path fill="none" stroke="black" d="M368.5,-286.203C368.5,-278.649 368.5,-257.48 368.5,-243.66"/>
<polygon fill="black" stroke="black" points="372,-243.636 368.5,-233.636 365,-243.636 372,-243.636"/>
</g>
<!-- p26&#45;&gt;p27 -->
<g id="edge32" class="edge"><title>p26&#45;&gt;p27</title>
<path fill="none" stroke="black" d="M333.534,-181.912C319.136,-176.633 256.132,-153.532 229.001,-143.584"/>
<polygon fill="black" stroke="black" points="229.956,-140.206 219.363,-140.05 227.546,-146.778 229.956,-140.206"/>
</g>
<!-- p30 -->
<g id="node30" class="node"><title>p30</title>
<ellipse fill="none" stroke="black" cx="232.5" cy="-18" rx="96.2631" ry="18"/>
<text text-anchor="middle" x="232.5" y="-14.3" font-family="Times,serif" font-size="14.00">SIMPLE_PUBLISH_01</text>
</g>
<!-- p28&#45;&gt;p30 -->
<g id="edge34" class="edge"><title>p28&#45;&gt;p30</title>
<path fill="none" stroke="black" d="M217.108,-88.2654C218.644,-81.3541 222.816,-62.5781 226.43,-46.3163"/>
<polygon fill="black" stroke="black" points="229.938,-46.6641 228.69,-36.1429 223.104,-45.1455 229.938,-46.6641"/>
</g>
<!-- p29 -->
<g id="node31" class="node"><title>p29</title>
<ellipse fill="black" stroke="black" cx="249.5" cy="-92" rx="3.6" ry="3.6"/>
</g>
<!-- p29&#45;&gt;p30 -->
<g id="edge35" class="edge"><title>p29&#45;&gt;p30</title>
<path fill="none" stroke="black" d="M248.854,-88.2654C247.222,-81.3541 242.789,-62.5781 238.95,-46.3163"/>
<polygon fill="black" stroke="black" points="242.252,-45.071 236.548,-36.1429 235.439,-46.6796 242.252,-45.071"/>
<text text-anchor="middle" x="258.5" y="-58.3" font-family="Times,serif" font-size="14.00">meta</text>
</g>
</g>
</svg>
