<?xml version="1.0" encoding="UTF-8" standalone="no"?>
<!DOCTYPE svg PUBLIC "-//W3C//DTD SVG 1.1//EN"
 "http://www.w3.org/Graphics/SVG/1.1/DTD/svg11.dtd">
<!-- Generated by graphviz version 2.30.1 (20201013.1554)
 -->
<!-- Title: 20220624mantaworkflow Pages: 1 -->
<svg width="1481pt" height="1520pt"
 viewBox="0.00 0.00 1481.00 1520.00" xmlns="http://www.w3.org/2000/svg" xmlns:xlink="http://www.w3.org/1999/xlink">
<g id="graph0" class="graph" transform="scale(1 1) rotate(0) translate(4 1516)">
<title>20220624mantaworkflow</title>
<polygon fill="white" stroke="white" points="-4,5 -4,-1516 1478,-1516 1478,5 -4,5"/>
<!-- p0 -->
<g id="node1" class="node"><title>p0</title>
<ellipse fill="black" stroke="black" cx="1086" cy="-1434" rx="3.6" ry="3.6"/>
<text text-anchor="middle" x="1136.9" y="-1441.4" font-family="Times,serif" font-size="14.00">Channel.empty</text>
</g>
<!-- p5 -->
<g id="node2" class="node"><title>p5</title>
<ellipse fill="none" stroke="black" cx="1028" cy="-1360" rx="3.25" ry="3.5"/>
<text text-anchor="middle" x="1011" y="-1367.3" font-family="Times,serif" font-size="14.00">mix</text>
</g>
<!-- p0&#45;&gt;p5 -->
<g id="edge1" class="edge"><title>p0&#45;&gt;p5</title>
<path fill="none" stroke="black" d="M1084.17,-1430.56C1081.68,-1427.24 1077.06,-1421.13 1073,-1416 1060.34,-1400 1045.26,-1381.72 1036.17,-1370.78"/>
<polygon fill="black" stroke="black" points="1038.83,-1368.52 1029.74,-1363.08 1033.46,-1373 1038.83,-1368.52"/>
<text text-anchor="middle" x="1098" y="-1386.3" font-family="Times,serif" font-size="14.00">version_ch</text>
</g>
<!-- p11 -->
<g id="node8" class="node"><title>p11</title>
<ellipse fill="none" stroke="black" cx="1028" cy="-1166" rx="3.25" ry="3.5"/>
<text text-anchor="middle" x="1011" y="-1173.3" font-family="Times,serif" font-size="14.00">mix</text>
</g>
<!-- p5&#45;&gt;p11 -->
<g id="edge7" class="edge"><title>p5&#45;&gt;p11</title>
<path fill="none" stroke="black" d="M1028,-1356.29C1028,-1336.88 1028,-1218.8 1028,-1179.62"/>
<polygon fill="black" stroke="black" points="1031.5,-1179.62 1028,-1169.62 1024.5,-1179.62 1031.5,-1179.62"/>
<text text-anchor="middle" x="1067" y="-1238.3" font-family="Times,serif" font-size="14.00">version_ch</text>
</g>
<!-- p1 -->
<g id="node3" class="node"><title>p1</title>
<ellipse fill="black" stroke="black" cx="758" cy="-1508" rx="3.6" ry="3.6"/>
</g>
<!-- p4 -->
<g id="node4" class="node"><title>p4</title>
<ellipse fill="none" stroke="black" cx="818" cy="-1434" rx="245.992" ry="18"/>
<text text-anchor="middle" x="818" y="-1430.3" font-family="Times,serif" font-size="14.00">MANTA_SINGLE_SV01:SAMTOOLS_SAMPLES01</text>
</g>
<!-- p1&#45;&gt;p4 -->
<g id="edge2" class="edge"><title>p1&#45;&gt;p4</title>
<path fill="none" stroke="black" d="M758.902,-1504.47C761.222,-1498.19 767.86,-1481.55 777,-1470 780.034,-1466.16 783.537,-1462.44 787.192,-1458.93"/>
<polygon fill="black" stroke="black" points="789.707,-1461.38 794.805,-1452.09 785.028,-1456.17 789.707,-1461.38"/>
<text text-anchor="middle" x="795.5" y="-1474.3" font-family="Times,serif" font-size="14.00">meta</text>
</g>
<!-- p6 -->
<g id="node7" class="node"><title>p6</title>
<ellipse fill="none" stroke="black" cx="818" cy="-1360" rx="3.25" ry="3.5"/>
<text text-anchor="middle" x="785" y="-1367.3" font-family="Times,serif" font-size="14.00">splitCsv</text>
</g>
<!-- p4&#45;&gt;p6 -->
<g id="edge5" class="edge"><title>p4&#45;&gt;p6</title>
<path fill="none" stroke="black" d="M818,-1415.94C818,-1403.13 818,-1385.84 818,-1374.11"/>
<polygon fill="black" stroke="black" points="821.5,-1373.75 818,-1363.75 814.5,-1373.75 821.5,-1373.75"/>
</g>
<!-- p4&#45;&gt;p5 -->
<g id="edge6" class="edge"><title>p4&#45;&gt;p5</title>
<path fill="none" stroke="black" d="M866.706,-1416.3C915.257,-1399.65 986.606,-1375.19 1015.33,-1365.34"/>
<polygon fill="black" stroke="black" points="1016.75,-1368.56 1025.07,-1362 1014.48,-1361.94 1016.75,-1368.56"/>
</g>
<!-- p2 -->
<g id="node5" class="node"><title>p2</title>
<ellipse fill="black" stroke="black" cx="818" cy="-1508" rx="3.6" ry="3.6"/>
</g>
<!-- p2&#45;&gt;p4 -->
<g id="edge3" class="edge"><title>p2&#45;&gt;p4</title>
<path fill="none" stroke="black" d="M818,-1504.27C818,-1497.35 818,-1478.58 818,-1462.32"/>
<polygon fill="black" stroke="black" points="821.5,-1462.14 818,-1452.14 814.5,-1462.14 821.5,-1462.14"/>
<text text-anchor="middle" x="853" y="-1474.3" font-family="Times,serif" font-size="14.00">reference</text>
</g>
<!-- p3 -->
<g id="node6" class="node"><title>p3</title>
<ellipse fill="black" stroke="black" cx="911" cy="-1508" rx="3.6" ry="3.6"/>
</g>
<!-- p3&#45;&gt;p4 -->
<g id="edge4" class="edge"><title>p3&#45;&gt;p4</title>
<path fill="none" stroke="black" d="M910.031,-1504.32C907.518,-1497.7 900.195,-1480.35 889,-1470 883.658,-1465.06 877.489,-1460.67 871.064,-1456.81"/>
<polygon fill="black" stroke="black" points="872.637,-1453.68 862.197,-1451.87 869.231,-1459.79 872.637,-1453.68"/>
<text text-anchor="middle" x="921.5" y="-1474.3" font-family="Times,serif" font-size="14.00">bams</text>
</g>
<!-- p9 -->
<g id="node9" class="node"><title>p9</title>
<ellipse fill="none" stroke="black" cx="725" cy="-1286" rx="221.445" ry="18"/>
<text text-anchor="middle" x="725" y="-1282.3" font-family="Times,serif" font-size="14.00">MANTA_SINGLE_SV01:MANTA_SINGLE_01</text>
</g>
<!-- p6&#45;&gt;p9 -->
<g id="edge8" class="edge"><title>p6&#45;&gt;p9</title>
<path fill="none" stroke="black" d="M817.031,-1356.32C814.518,-1349.7 807.195,-1332.35 796,-1322 790.589,-1317 784.329,-1312.55 777.814,-1308.66"/>
<polygon fill="black" stroke="black" points="779.27,-1305.46 768.827,-1303.68 775.878,-1311.59 779.27,-1305.46"/>
<text text-anchor="middle" x="887" y="-1326.3" font-family="Times,serif" font-size="14.00">each_sample_bam_ch</text>
</g>
<!-- p20 -->
<g id="node14" class="node"><title>p20</title>
<ellipse fill="none" stroke="black" cx="1175" cy="-890" rx="3.25" ry="3.5"/>
<text text-anchor="middle" x="1158" y="-897.3" font-family="Times,serif" font-size="14.00">mix</text>
</g>
<!-- p11&#45;&gt;p20 -->
<g id="edge14" class="edge"><title>p11&#45;&gt;p20</title>
<path fill="none" stroke="black" d="M1031.07,-1164.77C1052.18,-1163.12 1175,-1152.17 1175,-1121 1175,-1121 1175,-1121 1175,-977 1175,-951.081 1175,-920.769 1175,-903.94"/>
<polygon fill="black" stroke="black" points="1178.5,-903.675 1175,-893.675 1171.5,-903.675 1178.5,-903.675"/>
<text text-anchor="middle" x="1214" y="-1052.3" font-family="Times,serif" font-size="14.00">version_ch</text>
</g>
<!-- p12 -->
<g id="node12" class="node"><title>p12</title>
<ellipse fill="none" stroke="black" cx="701" cy="-1212" rx="3.25" ry="3.5"/>
<text text-anchor="middle" x="682" y="-1219.3" font-family="Times,serif" font-size="14.00">map</text>
</g>
<!-- p9&#45;&gt;p12 -->
<g id="edge11" class="edge"><title>p9&#45;&gt;p12</title>
<path fill="none" stroke="black" d="M719.312,-1267.94C714.95,-1254.85 709.033,-1237.1 705.119,-1225.36"/>
<polygon fill="black" stroke="black" points="708.399,-1224.13 701.916,-1215.75 701.758,-1226.34 708.399,-1224.13"/>
</g>
<!-- p10 -->
<g id="node13" class="node"><title>p10</title>
<ellipse fill="none" stroke="black" cx="744" cy="-1212" rx="3.25" ry="3.5"/>
<text text-anchor="middle" x="725" y="-1219.3" font-family="Times,serif" font-size="14.00">first</text>
</g>
<!-- p9&#45;&gt;p10 -->
<g id="edge12" class="edge"><title>p9&#45;&gt;p10</title>
<path fill="none" stroke="black" d="M729.503,-1267.94C732.92,-1254.99 737.542,-1237.47 740.641,-1225.73"/>
<polygon fill="black" stroke="black" points="744.107,-1226.31 743.275,-1215.75 737.339,-1224.52 744.107,-1226.31"/>
</g>
<!-- p7 -->
<g id="node10" class="node"><title>p7</title>
<ellipse fill="black" stroke="black" cx="665" cy="-1360" rx="3.6" ry="3.6"/>
</g>
<!-- p7&#45;&gt;p9 -->
<g id="edge9" class="edge"><title>p7&#45;&gt;p9</title>
<path fill="none" stroke="black" d="M665.902,-1356.47C668.222,-1350.19 674.86,-1333.55 684,-1322 687.034,-1318.16 690.537,-1314.44 694.192,-1310.93"/>
<polygon fill="black" stroke="black" points="696.707,-1313.38 701.805,-1304.09 692.028,-1308.17 696.707,-1313.38"/>
<text text-anchor="middle" x="702.5" y="-1326.3" font-family="Times,serif" font-size="14.00">meta</text>
</g>
<!-- p8 -->
<g id="node11" class="node"><title>p8</title>
<ellipse fill="black" stroke="black" cx="725" cy="-1360" rx="3.6" ry="3.6"/>
</g>
<!-- p8&#45;&gt;p9 -->
<g id="edge10" class="edge"><title>p8&#45;&gt;p9</title>
<path fill="none" stroke="black" d="M725,-1356.27C725,-1349.35 725,-1330.58 725,-1314.32"/>
<polygon fill="black" stroke="black" points="728.5,-1314.14 725,-1304.14 721.5,-1314.14 728.5,-1314.14"/>
<text text-anchor="middle" x="760" y="-1326.3" font-family="Times,serif" font-size="14.00">reference</text>
</g>
<!-- p13 -->
<g id="node15" class="node"><title>p13</title>
<ellipse fill="none" stroke="black" cx="655" cy="-1166" rx="3.25" ry="3.5"/>
<text text-anchor="middle" x="622" y="-1173.3" font-family="Times,serif" font-size="14.00">splitCsv</text>
</g>
<!-- p12&#45;&gt;p13 -->
<g id="edge15" class="edge"><title>p12&#45;&gt;p13</title>
<path fill="none" stroke="black" d="M699.023,-1209.11C693.112,-1203.46 675.294,-1186.41 664.222,-1175.82"/>
<polygon fill="black" stroke="black" points="666.564,-1173.22 656.918,-1168.83 661.725,-1178.28 666.564,-1173.22"/>
</g>
<!-- p10&#45;&gt;p11 -->
<g id="edge13" class="edge"><title>p10&#45;&gt;p11</title>
<path fill="none" stroke="black" d="M747.189,-1210.51C774.043,-1206.35 962.678,-1177.12 1014.73,-1169.06"/>
<polygon fill="black" stroke="black" points="1015.49,-1172.48 1024.83,-1167.49 1014.42,-1165.56 1015.49,-1172.48"/>
</g>
<!-- p25 -->
<g id="node24" class="node"><title>p25</title>
<ellipse fill="none" stroke="black" cx="901" cy="-812" rx="3.25" ry="3.5"/>
<text text-anchor="middle" x="884" y="-819.3" font-family="Times,serif" font-size="14.00">mix</text>
</g>
<!-- p20&#45;&gt;p25 -->
<g id="edge24" class="edge"><title>p20&#45;&gt;p25</title>
<path fill="none" stroke="black" d="M1171.92,-888.146C1146.01,-880.96 964.022,-830.481 913.806,-816.552"/>
<polygon fill="black" stroke="black" points="914.625,-813.147 904.054,-813.847 912.754,-819.893 914.625,-813.147"/>
<text text-anchor="middle" x="1086" y="-842.3" font-family="Times,serif" font-size="14.00">version_ch</text>
</g>
<!-- p14 -->
<g id="node16" class="node"><title>p14</title>
<ellipse fill="none" stroke="black" cx="528" cy="-1120" rx="3.25" ry="3.5"/>
<text text-anchor="middle" x="509" y="-1127.3" font-family="Times,serif" font-size="14.00">map</text>
</g>
<!-- p13&#45;&gt;p14 -->
<g id="edge16" class="edge"><title>p13&#45;&gt;p14</title>
<path fill="none" stroke="black" d="M651.861,-1163.91C636.555,-1158.61 569.342,-1135.32 540.844,-1125.45"/>
<polygon fill="black" stroke="black" points="541.624,-1122.02 531.03,-1122.05 539.333,-1128.63 541.624,-1122.02"/>
</g>
<!-- p15 -->
<g id="node17" class="node"><title>p15</title>
<ellipse fill="none" stroke="black" cx="240" cy="-1056" rx="3.25" ry="3.5"/>
<text text-anchor="middle" x="212" y="-1063.3" font-family="Times,serif" font-size="14.00">collect</text>
</g>
<!-- p14&#45;&gt;p15 -->
<g id="edge17" class="edge"><title>p14&#45;&gt;p15</title>
<path fill="none" stroke="black" d="M524.989,-1118.64C502.918,-1115.94 363.96,-1098.1 256,-1064 254.634,-1063.57 253.227,-1063.06 251.841,-1062.51"/>
<polygon fill="black" stroke="black" points="253.205,-1059.29 242.65,-1058.37 250.328,-1065.67 253.205,-1059.29"/>
<text text-anchor="middle" x="410.5" y="-1086.3" font-family="Times,serif" font-size="14.00">to_zip</text>
</g>
<!-- p21 -->
<g id="node25" class="node"><title>p21</title>
<ellipse fill="none" stroke="black" cx="562" cy="-1056" rx="3.25" ry="3.5"/>
<text text-anchor="middle" x="540.5" y="-1063.3" font-family="Times,serif" font-size="14.00">filter</text>
</g>
<!-- p14&#45;&gt;p21 -->
<g id="edge25" class="edge"><title>p14&#45;&gt;p21</title>
<path fill="none" stroke="black" d="M529.291,-1116.65C533.583,-1108.82 547.563,-1083.33 555.792,-1068.32"/>
<polygon fill="black" stroke="black" points="558.968,-1069.81 560.707,-1059.36 552.83,-1066.44 558.968,-1069.81"/>
<text text-anchor="middle" x="570.5" y="-1086.3" font-family="Times,serif" font-size="14.00">to_zip</text>
</g>
<!-- p26 -->
<g id="node28" class="node"><title>p26</title>
<ellipse fill="none" stroke="black" cx="634" cy="-812" rx="3.25" ry="3.5"/>
<text text-anchor="middle" x="617" y="-819.3" font-family="Times,serif" font-size="14.00">mix</text>
</g>
<!-- p14&#45;&gt;p26 -->
<g id="edge33" class="edge"><title>p14&#45;&gt;p26</title>
<path fill="none" stroke="black" d="M526.753,-1116.71C522.526,-1108.74 509,-1081.32 509,-1057 509,-1057 509,-1057 509,-889 509,-837.212 588.303,-819.707 620.578,-814.727"/>
<polygon fill="black" stroke="black" points="621.472,-818.138 630.91,-813.325 620.53,-811.202 621.472,-818.138"/>
<text text-anchor="middle" x="530.5" y="-974.3" font-family="Times,serif" font-size="14.00">to_zip</text>
</g>
<!-- p17 -->
<g id="node18" class="node"><title>p17</title>
<ellipse fill="none" stroke="black" cx="236" cy="-978" rx="236.368" ry="18"/>
<text text-anchor="middle" x="236" y="-974.3" font-family="Times,serif" font-size="14.00">MANTA_SINGLE_SV01:COLLECT_TO_FILE_01</text>
</g>
<!-- p15&#45;&gt;p17 -->
<g id="edge18" class="edge"><title>p15&#45;&gt;p17</title>
<path fill="none" stroke="black" d="M239.867,-1052.47C239.488,-1045.27 238.37,-1024.03 237.433,-1006.23"/>
<polygon fill="black" stroke="black" points="240.916,-1005.81 236.895,-996.009 233.926,-1006.18 240.916,-1005.81"/>
</g>
<!-- p45 -->
<g id="node20" class="node"><title>p45</title>
<ellipse fill="none" stroke="black" cx="586" cy="-226" rx="3.25" ry="3.5"/>
<text text-anchor="middle" x="569" y="-233.3" font-family="Times,serif" font-size="14.00">mix</text>
</g>
<!-- p17&#45;&gt;p45 -->
<g id="edge20" class="edge"><title>p17&#45;&gt;p45</title>
<path fill="none" stroke="black" d="M275.601,-960.227C302.045,-946.083 332,-922.998 332,-891 332,-891 332,-891 332,-271 332,-246.349 520.145,-231.538 572.579,-227.889"/>
<polygon fill="black" stroke="black" points="573.046,-231.366 582.789,-227.203 572.576,-224.381 573.046,-231.366"/>
<text text-anchor="middle" x="373.5" y="-538.3" font-family="Times,serif" font-size="14.00">manta_files</text>
</g>
<!-- p16 -->
<g id="node19" class="node"><title>p16</title>
<ellipse fill="black" stroke="black" cx="269" cy="-1056" rx="3.6" ry="3.6"/>
</g>
<!-- p16&#45;&gt;p17 -->
<g id="edge19" class="edge"><title>p16&#45;&gt;p17</title>
<path fill="none" stroke="black" d="M267.902,-1052.47C264.731,-1045.17 255.291,-1023.43 247.496,-1005.48"/>
<polygon fill="black" stroke="black" points="250.579,-1003.79 243.385,-996.009 244.158,-1006.58 250.579,-1003.79"/>
<text text-anchor="middle" x="276.5" y="-1018.3" font-family="Times,serif" font-size="14.00">meta</text>
</g>
<!-- p46 -->
<g id="node43" class="node"><title>p46</title>
<ellipse fill="none" stroke="black" cx="1093" cy="-180" rx="3.25" ry="3.5"/>
<text text-anchor="middle" x="1076" y="-187.3" font-family="Times,serif" font-size="14.00">mix</text>
</g>
<!-- p45&#45;&gt;p46 -->
<g id="edge57" class="edge"><title>p45&#45;&gt;p46</title>
<path fill="none" stroke="black" d="M589.238,-224.719C627.983,-221.357 1002.8,-188.828 1079.38,-182.182"/>
<polygon fill="black" stroke="black" points="1080.15,-185.629 1089.81,-181.277 1079.54,-178.655 1080.15,-185.629"/>
</g>
<!-- p18 -->
<g id="node21" class="node"><title>p18</title>
<ellipse fill="black" stroke="black" cx="921" cy="-1056" rx="3.6" ry="3.6"/>
</g>
<!-- p19 -->
<g id="node22" class="node"><title>p19</title>
<ellipse fill="none" stroke="black" cx="921" cy="-978" rx="225.295" ry="18"/>
<text text-anchor="middle" x="921" y="-974.3" font-family="Times,serif" font-size="14.00">MANTA_SINGLE_SV01:SURVIVOR_INSTALL</text>
</g>
<!-- p18&#45;&gt;p19 -->
<g id="edge21" class="edge"><title>p18&#45;&gt;p19</title>
<path fill="none" stroke="black" d="M921,-1052.11C921,-1044.61 921,-1023.88 921,-1006.4"/>
<polygon fill="black" stroke="black" points="924.5,-1006.08 921,-996.083 917.5,-1006.08 924.5,-1006.08"/>
<text text-anchor="middle" x="939.5" y="-1018.3" font-family="Times,serif" font-size="14.00">meta</text>
</g>
<!-- p24 -->
<g id="node23" class="node"><title>p24</title>
<ellipse fill="none" stroke="black" cx="756" cy="-890" rx="219.046" ry="18"/>
<text text-anchor="middle" x="756" y="-886.3" font-family="Times,serif" font-size="14.00">MANTA_SINGLE_SV01:SURVIVOR_MERGE</text>
</g>
<!-- p19&#45;&gt;p24 -->
<g id="edge22" class="edge"><title>p19&#45;&gt;p24</title>
<path fill="none" stroke="black" d="M888.401,-960.009C862.328,-946.419 825.603,-927.278 797.444,-912.601"/>
<polygon fill="black" stroke="black" points="798.735,-909.327 788.25,-907.809 795.5,-915.535 798.735,-909.327"/>
</g>
<!-- p19&#45;&gt;p20 -->
<g id="edge23" class="edge"><title>p19&#45;&gt;p20</title>
<path fill="none" stroke="black" d="M969.974,-960.418C1030.06,-940.074 1128.19,-906.848 1162.61,-895.196"/>
<polygon fill="black" stroke="black" points="1163.86,-898.466 1172.21,-891.944 1161.62,-891.836 1163.86,-898.466"/>
</g>
<!-- p24&#45;&gt;p26 -->
<g id="edge29" class="edge"><title>p24&#45;&gt;p26</title>
<path fill="none" stroke="black" d="M661.693,-873.614C652.248,-868.693 643.694,-862.296 637,-854 630.664,-846.147 630.411,-834.464 631.455,-825.576"/>
<polygon fill="black" stroke="black" points="634.929,-826.033 633.294,-815.565 628.045,-824.768 634.929,-826.033"/>
<text text-anchor="middle" x="681.5" y="-842.3" font-family="Times,serif" font-size="14.00">survivor_vcf</text>
</g>
<!-- p27 -->
<g id="node29" class="node"><title>p27</title>
<ellipse fill="none" stroke="black" cx="634" cy="-748" rx="3.25" ry="3.5"/>
<text text-anchor="middle" x="617" y="-755.3" font-family="Times,serif" font-size="14.00">mix</text>
</g>
<!-- p24&#45;&gt;p27 -->
<g id="edge30" class="edge"><title>p24&#45;&gt;p27</title>
<path fill="none" stroke="black" d="M747.354,-871.724C741.867,-861.481 734.26,-848.493 726,-838 699.911,-804.856 661.935,-771.935 644.04,-757.126"/>
<polygon fill="black" stroke="black" points="646.179,-754.355 636.214,-750.754 641.759,-759.783 646.179,-754.355"/>
<text text-anchor="middle" x="778" y="-808.3" font-family="Times,serif" font-size="14.00">survivor_vcf_index</text>
</g>
<!-- p24&#45;&gt;p25 -->
<g id="edge31" class="edge"><title>p24&#45;&gt;p25</title>
<path fill="none" stroke="black" d="M788.18,-872.133C820.147,-855.378 867.448,-830.586 889.233,-819.168"/>
<polygon fill="black" stroke="black" points="891.036,-822.174 898.269,-814.432 887.787,-815.974 891.036,-822.174"/>
</g>
<!-- p43 -->
<g id="node46" class="node"><title>p43</title>
<ellipse fill="none" stroke="black" cx="742" cy="-318" rx="3.25" ry="3.5"/>
<text text-anchor="middle" x="725" y="-325.3" font-family="Times,serif" font-size="14.00">mix</text>
</g>
<!-- p24&#45;&gt;p43 -->
<g id="edge53" class="edge"><title>p24&#45;&gt;p43</title>
<path fill="none" stroke="black" d="M958.567,-883.079C1052.2,-874.61 1143,-855.452 1143,-813 1143,-813 1143,-813 1143,-363 1143,-323.111 825.423,-319.372 755.507,-319.032"/>
<polygon fill="black" stroke="black" points="755.478,-315.532 745.467,-319 755.455,-322.532 755.478,-315.532"/>
<text text-anchor="middle" x="1187.5" y="-582.3" font-family="Times,serif" font-size="14.00">survivor_vcf</text>
</g>
<!-- p44 -->
<g id="node47" class="node"><title>p44</title>
<ellipse fill="none" stroke="black" cx="586" cy="-272" rx="3.25" ry="3.5"/>
<text text-anchor="middle" x="569" y="-279.3" font-family="Times,serif" font-size="14.00">mix</text>
</g>
<!-- p24&#45;&gt;p44 -->
<g id="edge55" class="edge"><title>p24&#45;&gt;p44</title>
<path fill="none" stroke="black" d="M659.919,-873.761C599.921,-861.429 534,-841.414 534,-813 534,-813 534,-813 534,-317 534,-296.268 558.386,-283.296 573.759,-277.179"/>
<polygon fill="black" stroke="black" points="574.954,-280.469 583.204,-273.822 572.61,-273.873 574.954,-280.469"/>
<text text-anchor="middle" x="602" y="-538.3" font-family="Times,serif" font-size="14.00">survivor_vcf_index</text>
</g>
<!-- p28 -->
<g id="node30" class="node"><title>p28</title>
<ellipse fill="none" stroke="black" cx="901" cy="-748" rx="3.25" ry="3.5"/>
<text text-anchor="middle" x="873" y="-755.3" font-family="Times,serif" font-size="14.00">collect</text>
</g>
<!-- p25&#45;&gt;p28 -->
<g id="edge32" class="edge"><title>p25&#45;&gt;p28</title>
<path fill="none" stroke="black" d="M901,-808.336C901,-800.448 901,-776.832 901,-761.881"/>
<polygon fill="black" stroke="black" points="904.5,-761.585 901,-751.585 897.5,-761.585 904.5,-761.585"/>
<text text-anchor="middle" x="940" y="-774.3" font-family="Times,serif" font-size="14.00">version_ch</text>
</g>
<!-- p22 -->
<g id="node26" class="node"><title>p22</title>
<ellipse fill="none" stroke="black" cx="574" cy="-978" rx="3.25" ry="3.5"/>
<text text-anchor="middle" x="595" y="-985.3" font-family="Times,serif" font-size="14.00">collect</text>
</g>
<!-- p21&#45;&gt;p22 -->
<g id="edge26" class="edge"><title>p21&#45;&gt;p22</title>
<path fill="none" stroke="black" d="M562.399,-1052.47C563.88,-1043.1 569.118,-1009.92 572.023,-991.518"/>
<polygon fill="black" stroke="black" points="575.484,-992.04 573.587,-981.616 568.57,-990.948 575.484,-992.04"/>
</g>
<!-- p22&#45;&gt;p24 -->
<g id="edge27" class="edge"><title>p22&#45;&gt;p24</title>
<path fill="none" stroke="black" d="M575.72,-974.65C581.769,-966.557 603.003,-939.599 627,-926 638.423,-919.527 651.097,-914.206 663.913,-909.843"/>
<polygon fill="black" stroke="black" points="665.272,-913.083 673.722,-906.691 663.13,-906.418 665.272,-913.083"/>
<text text-anchor="middle" x="664" y="-930.3" font-family="Times,serif" font-size="14.00">diploid_ch</text>
</g>
<!-- p23 -->
<g id="node27" class="node"><title>p23</title>
<ellipse fill="black" stroke="black" cx="674" cy="-978" rx="3.6" ry="3.6"/>
</g>
<!-- p23&#45;&gt;p24 -->
<g id="edge28" class="edge"><title>p23&#45;&gt;p24</title>
<path fill="none" stroke="black" d="M675.578,-974.477C677.757,-971.065 681.886,-964.848 686,-960 699.382,-944.229 715.785,-927.923 729.348,-915.126"/>
<polygon fill="black" stroke="black" points="732.034,-917.406 736.961,-908.026 727.26,-912.287 732.034,-917.406"/>
<text text-anchor="middle" x="736.5" y="-930.3" font-family="Times,serif" font-size="14.00">meta</text>
</g>
<!-- p26&#45;&gt;p27 -->
<g id="edge34" class="edge"><title>p26&#45;&gt;p27</title>
<path fill="none" stroke="black" d="M634,-808.336C634,-800.448 634,-776.832 634,-761.881"/>
<polygon fill="black" stroke="black" points="637.5,-761.585 634,-751.585 630.5,-761.585 637.5,-761.585"/>
</g>
<!-- p33 -->
<g id="node31" class="node"><title>p33</title>
<ellipse fill="none" stroke="black" cx="887" cy="-586" rx="3.25" ry="3.5"/>
<text text-anchor="middle" x="870" y="-593.3" font-family="Times,serif" font-size="14.00">mix</text>
</g>
<!-- p27&#45;&gt;p33 -->
<g id="edge35" class="edge"><title>p27&#45;&gt;p33</title>
<path fill="none" stroke="black" d="M633.102,-744.394C629.225,-732.625 615.089,-683.814 637,-656 667.307,-617.528 826.641,-594.614 873.824,-588.599"/>
<polygon fill="black" stroke="black" points="874.46,-592.047 883.958,-587.351 873.605,-585.099 874.46,-592.047"/>
<text text-anchor="middle" x="658.5" y="-670.3" font-family="Times,serif" font-size="14.00">to_zip</text>
</g>
<!-- p32 -->
<g id="node32" class="node"><title>p32</title>
<ellipse fill="none" stroke="black" cx="902" cy="-674" rx="213.272" ry="18"/>
<text text-anchor="middle" x="902" y="-670.3" font-family="Times,serif" font-size="14.00">MANTA_SINGLE_SV01:MERGE_VERSION</text>
</g>
<!-- p28&#45;&gt;p32 -->
<g id="edge36" class="edge"><title>p28&#45;&gt;p32</title>
<path fill="none" stroke="black" d="M901.038,-744.265C901.134,-737.354 901.395,-718.578 901.621,-702.316"/>
<polygon fill="black" stroke="black" points="905.123,-702.191 901.762,-692.143 898.123,-702.093 905.123,-702.191"/>
</g>
<!-- p34 -->
<g id="node36" class="node"><title>p34</title>
<ellipse fill="none" stroke="black" cx="887" cy="-512" rx="3.25" ry="3.5"/>
<text text-anchor="middle" x="859" y="-519.3" font-family="Times,serif" font-size="14.00">collect</text>
</g>
<!-- p33&#45;&gt;p34 -->
<g id="edge41" class="edge"><title>p33&#45;&gt;p34</title>
<path fill="none" stroke="black" d="M887,-582.265C887,-573.133 887,-543.282 887,-525.892"/>
<polygon fill="black" stroke="black" points="890.5,-525.737 887,-515.737 883.5,-525.737 890.5,-525.737"/>
<text text-anchor="middle" x="908.5" y="-538.3" font-family="Times,serif" font-size="14.00">to_zip</text>
</g>
<!-- p32&#45;&gt;p33 -->
<g id="edge40" class="edge"><title>p32&#45;&gt;p33</title>
<path fill="none" stroke="black" d="M898.965,-655.597C896.078,-639.046 891.803,-614.54 889.222,-599.737"/>
<polygon fill="black" stroke="black" points="892.632,-598.921 887.466,-589.671 885.736,-600.124 892.632,-598.921"/>
<text text-anchor="middle" x="922.5" y="-626.3" font-family="Times,serif" font-size="14.00">version</text>
</g>
<!-- p39 -->
<g id="node42" class="node"><title>p39</title>
<ellipse fill="none" stroke="black" cx="1362" cy="-586" rx="111.186" ry="18"/>
<text text-anchor="middle" x="1362" y="-582.3" font-family="Times,serif" font-size="14.00">VERSION_TO_HTML</text>
</g>
<!-- p32&#45;&gt;p39 -->
<g id="edge47" class="edge"><title>p32&#45;&gt;p39</title>
<path fill="none" stroke="black" d="M985.303,-657.426C1069.64,-641.658 1199.15,-617.446 1282.21,-601.917"/>
<polygon fill="black" stroke="black" points="1282.92,-605.346 1292.1,-600.068 1281.63,-598.465 1282.92,-605.346"/>
<text text-anchor="middle" x="1199.5" y="-626.3" font-family="Times,serif" font-size="14.00">version</text>
</g>
<!-- p41 -->
<g id="node45" class="node"><title>p41</title>
<ellipse fill="none" stroke="black" cx="685" cy="-586" rx="3.25" ry="3.5"/>
<text text-anchor="middle" x="668" y="-593.3" font-family="Times,serif" font-size="14.00">mix</text>
</g>
<!-- p32&#45;&gt;p41 -->
<g id="edge50" class="edge"><title>p32&#45;&gt;p41</title>
<path fill="none" stroke="black" d="M859.903,-656.316C809.416,-636.308 727.762,-603.947 697.126,-591.806"/>
<polygon fill="black" stroke="black" points="698.402,-588.546 687.816,-588.116 695.823,-595.054 698.402,-588.546"/>
<text text-anchor="middle" x="839.5" y="-626.3" font-family="Times,serif" font-size="14.00">version</text>
</g>
<!-- p29 -->
<g id="node33" class="node"><title>p29</title>
<ellipse fill="black" stroke="black" cx="934" cy="-748" rx="3.6" ry="3.6"/>
</g>
<!-- p29&#45;&gt;p32 -->
<g id="edge37" class="edge"><title>p29&#45;&gt;p32</title>
<path fill="none" stroke="black" d="M932.785,-744.265C929.654,-737.222 921.048,-717.859 913.729,-701.39"/>
<polygon fill="black" stroke="black" points="916.879,-699.86 909.619,-692.143 910.482,-702.703 916.879,-699.86"/>
<text text-anchor="middle" x="943.5" y="-714.3" font-family="Times,serif" font-size="14.00">meta</text>
</g>
<!-- p30 -->
<g id="node34" class="node"><title>p30</title>
<ellipse fill="black" stroke="black" cx="994" cy="-748" rx="3.6" ry="3.6"/>
</g>
<!-- p30&#45;&gt;p32 -->
<g id="edge38" class="edge"><title>p30&#45;&gt;p32</title>
<path fill="none" stroke="black" d="M992.544,-744.369C988.836,-737.856 978.444,-720.733 966,-710 960.462,-705.223 954.166,-700.821 947.735,-696.866"/>
<polygon fill="black" stroke="black" points="949.346,-693.755 938.941,-691.759 945.831,-699.808 949.346,-693.755"/>
<text text-anchor="middle" x="1001" y="-714.3" font-family="Times,serif" font-size="14.00">name</text>
</g>
<!-- p31 -->
<g id="node35" class="node"><title>p31</title>
<ellipse fill="black" stroke="black" cx="804" cy="-748" rx="3.6" ry="3.6"/>
</g>
<!-- p31&#45;&gt;p32 -->
<g id="edge39" class="edge"><title>p31&#45;&gt;p32</title>
<path fill="none" stroke="black" d="M804.123,-744.289C804.569,-737.594 806.62,-720.09 816,-710 820.98,-704.643 826.897,-700.085 833.261,-696.212"/>
<polygon fill="black" stroke="black" points="835.074,-699.21 842.172,-691.344 831.718,-693.067 835.074,-699.21"/>
<text text-anchor="middle" x="857" y="-714.3" font-family="Times,serif" font-size="14.00">description</text>
</g>
<!-- p36 -->
<g id="node37" class="node"><title>p36</title>
<ellipse fill="none" stroke="black" cx="914" cy="-438" rx="201.223" ry="18"/>
<text text-anchor="middle" x="914" y="-434.3" font-family="Times,serif" font-size="14.00">MANTA_SINGLE_SV01:SIMPLE_ZIP_01</text>
</g>
<!-- p34&#45;&gt;p36 -->
<g id="edge42" class="edge"><title>p34&#45;&gt;p36</title>
<path fill="none" stroke="black" d="M887.898,-508.604C890.423,-501.873 897.804,-482.19 904.076,-465.465"/>
<polygon fill="black" stroke="black" points="907.361,-466.672 907.595,-456.08 900.807,-464.214 907.361,-466.672"/>
</g>
<!-- p42 -->
<g id="node39" class="node"><title>p42</title>
<ellipse fill="none" stroke="black" cx="742" cy="-364" rx="3.25" ry="3.5"/>
<text text-anchor="middle" x="725" y="-371.3" font-family="Times,serif" font-size="14.00">mix</text>
</g>
<!-- p36&#45;&gt;p42 -->
<g id="edge44" class="edge"><title>p36&#45;&gt;p42</title>
<path fill="none" stroke="black" d="M874.107,-420.301C835.395,-404.095 778.985,-380.482 754.317,-370.156"/>
<polygon fill="black" stroke="black" points="755.347,-366.793 744.771,-366.16 752.644,-373.25 755.347,-366.793"/>
<text text-anchor="middle" x="839" y="-390.3" font-family="Times,serif" font-size="14.00">zip</text>
</g>
<!-- p37 -->
<g id="node40" class="node"><title>p37</title>
<ellipse fill="black" stroke="black" cx="914" cy="-364" rx="1.8" ry="1.8"/>
</g>
<!-- p36&#45;&gt;p37 -->
<g id="edge45" class="edge"><title>p36&#45;&gt;p37</title>
<path fill="none" stroke="black" d="M914,-419.937C914,-406.37 914,-387.787 914,-376.089"/>
<polygon fill="black" stroke="black" points="917.5,-375.849 914,-365.849 910.5,-375.849 917.5,-375.849"/>
</g>
<!-- p35 -->
<g id="node38" class="node"><title>p35</title>
<ellipse fill="black" stroke="black" cx="920" cy="-512" rx="3.6" ry="3.6"/>
</g>
<!-- p35&#45;&gt;p36 -->
<g id="edge43" class="edge"><title>p35&#45;&gt;p36</title>
<path fill="none" stroke="black" d="M919.772,-508.265C919.196,-501.354 917.632,-482.578 916.276,-466.316"/>
<polygon fill="black" stroke="black" points="919.747,-465.818 915.429,-456.143 912.771,-466.399 919.747,-465.818"/>
<text text-anchor="middle" x="937.5" y="-478.3" font-family="Times,serif" font-size="14.00">meta</text>
</g>
<!-- p42&#45;&gt;p43 -->
<g id="edge52" class="edge"><title>p42&#45;&gt;p43</title>
<path fill="none" stroke="black" d="M742,-360.379C742,-354.864 742,-341.742 742,-331.742"/>
<polygon fill="black" stroke="black" points="745.5,-331.552 742,-321.552 738.5,-331.552 745.5,-331.552"/>
</g>
<!-- p38 -->
<g id="node41" class="node"><title>p38</title>
<ellipse fill="black" stroke="black" cx="1362" cy="-674" rx="3.6" ry="3.6"/>
</g>
<!-- p38&#45;&gt;p39 -->
<g id="edge46" class="edge"><title>p38&#45;&gt;p39</title>
<path fill="none" stroke="black" d="M1362,-670.139C1362,-661.502 1362,-635.011 1362,-614.227"/>
<polygon fill="black" stroke="black" points="1365.5,-614.004 1362,-604.004 1358.5,-614.004 1365.5,-614.004"/>
<text text-anchor="middle" x="1380.5" y="-626.3" font-family="Times,serif" font-size="14.00">meta</text>
</g>
<!-- p39&#45;&gt;p46 -->
<g id="edge48" class="edge"><title>p39&#45;&gt;p46</title>
<path fill="none" stroke="black" d="M1318.63,-569.404C1295.19,-557.904 1271,-539.592 1271,-513 1271,-513 1271,-513 1271,-225 1271,-191.103 1147.81,-183.153 1106.4,-181.438"/>
<polygon fill="black" stroke="black" points="1106.51,-177.94 1096.4,-181.085 1106.27,-184.936 1106.51,-177.94"/>
</g>
<!-- p47 -->
<g id="node48" class="node"><title>p47</title>
<ellipse fill="none" stroke="black" cx="1093" cy="-120" rx="3.25" ry="3.5"/>
<text text-anchor="middle" x="1065" y="-127.3" font-family="Times,serif" font-size="14.00">collect</text>
</g>
<!-- p46&#45;&gt;p47 -->
<g id="edge58" class="edge"><title>p46&#45;&gt;p47</title>
<path fill="none" stroke="black" d="M1093,-176.203C1093,-168.649 1093,-147.48 1093,-133.66"/>
<polygon fill="black" stroke="black" points="1096.5,-133.636 1093,-123.636 1089.5,-133.636 1096.5,-133.636"/>
<text text-anchor="middle" x="1130.5" y="-146.3" font-family="Times,serif" font-size="14.00">to_publish</text>
</g>
<!-- p40 -->
<g id="node44" class="node"><title>p40</title>
<ellipse fill="black" stroke="black" cx="567" cy="-674" rx="3.6" ry="3.6"/>
<text text-anchor="middle" x="508.9" y="-681.4" font-family="Times,serif" font-size="14.00">Channel.empty</text>
</g>
<!-- p40&#45;&gt;p41 -->
<g id="edge49" class="edge"><title>p40&#45;&gt;p41</title>
<path fill="none" stroke="black" d="M566.072,-670.323C563.409,-662.114 556.64,-636.948 568,-622 592.689,-589.513 646.381,-586.091 671.515,-586.394"/>
<polygon fill="black" stroke="black" points="671.633,-589.9 681.751,-586.758 671.881,-582.905 671.633,-589.9"/>
<text text-anchor="middle" x="605.5" y="-626.3" font-family="Times,serif" font-size="14.00">to_publish</text>
</g>
<!-- p41&#45;&gt;p42 -->
<g id="edge51" class="edge"><title>p41&#45;&gt;p42</title>
<path fill="none" stroke="black" d="M684.826,-582.161C683.923,-565.796 680.66,-482.078 704,-420 710.686,-402.218 724.357,-384.689 733.348,-374.36"/>
<polygon fill="black" stroke="black" points="736.006,-376.64 740.153,-366.89 730.831,-371.926 736.006,-376.64"/>
</g>
<!-- p43&#45;&gt;p44 -->
<g id="edge54" class="edge"><title>p43&#45;&gt;p44</title>
<path fill="none" stroke="black" d="M739.023,-316.16C721.616,-311.251 632.62,-286.149 598.939,-276.649"/>
<polygon fill="black" stroke="black" points="599.842,-273.268 589.267,-273.922 597.942,-280.005 599.842,-273.268"/>
</g>
<!-- p44&#45;&gt;p45 -->
<g id="edge56" class="edge"><title>p44&#45;&gt;p45</title>
<path fill="none" stroke="black" d="M586,-268.379C586,-262.864 586,-249.742 586,-239.742"/>
<polygon fill="black" stroke="black" points="589.5,-239.552 586,-229.552 582.5,-239.552 589.5,-239.552"/>
</g>
<!-- p48 -->
<g id="node49" class="node"><title>p48</title>
<ellipse fill="none" stroke="black" cx="1093" cy="-60" rx="56.3173" ry="18"/>
<text text-anchor="middle" x="1093" y="-56.3" font-family="Times,serif" font-size="14.00">PUBLISH</text>
</g>
<!-- p47&#45;&gt;p48 -->
<g id="edge59" class="edge"><title>p47&#45;&gt;p48</title>
<path fill="none" stroke="black" d="M1093,-116.203C1093,-111.005 1093,-99.3614 1093,-88.1011"/>
<polygon fill="black" stroke="black" points="1096.5,-88.0637 1093,-78.0638 1089.5,-88.0638 1096.5,-88.0637"/>
</g>
<!-- p54 -->
<g id="node50" class="node"><title>p54</title>
<ellipse fill="black" stroke="black" cx="1031" cy="-2" rx="1.8" ry="1.8"/>
</g>
<!-- p48&#45;&gt;p54 -->
<g id="edge60" class="edge"><title>p48&#45;&gt;p54</title>
<path fill="none" stroke="black" d="M1075.07,-42.8025C1063.43,-32.288 1048.78,-19.0556 1039.65,-10.8107"/>
<polygon fill="black" stroke="black" points="1041.91,-8.13744 1032.14,-4.03191 1037.22,-13.3322 1041.91,-8.13744"/>
</g>
<!-- p53 -->
<g id="node51" class="node"><title>p53</title>
<ellipse fill="black" stroke="black" cx="1056" cy="-2" rx="1.8" ry="1.8"/>
</g>
<!-- p48&#45;&gt;p53 -->
<g id="edge61" class="edge"><title>p48&#45;&gt;p53</title>
<path fill="none" stroke="black" d="M1081.9,-42.1982C1075.49,-32.5008 1067.67,-20.6579 1062.31,-12.5438"/>
<polygon fill="black" stroke="black" points="1065.1,-10.4217 1056.67,-4.00774 1059.26,-14.2805 1065.1,-10.4217"/>
</g>
<!-- p52 -->
<g id="node52" class="node"><title>p52</title>
<ellipse fill="black" stroke="black" cx="1081" cy="-2" rx="1.8" ry="1.8"/>
</g>
<!-- p48&#45;&gt;p52 -->
<g id="edge62" class="edge"><title>p48&#45;&gt;p52</title>
<path fill="none" stroke="black" d="M1089.33,-41.8939C1087.38,-32.775 1085.03,-21.8299 1083.33,-13.8767"/>
<polygon fill="black" stroke="black" points="1086.73,-13.0404 1081.21,-3.99575 1079.89,-14.5072 1086.73,-13.0404"/>
</g>
<!-- p51 -->
<g id="node53" class="node"><title>p51</title>
<ellipse fill="black" stroke="black" cx="1106" cy="-2" rx="1.8" ry="1.8"/>
</g>
<!-- p48&#45;&gt;p51 -->
<g id="edge63" class="edge"><title>p48&#45;&gt;p51</title>
<path fill="none" stroke="black" d="M1096.97,-41.8939C1099.09,-32.775 1101.63,-21.8299 1103.48,-13.8767"/>
<polygon fill="black" stroke="black" points="1106.92,-14.5282 1105.77,-3.99575 1100.1,-12.9452 1106.92,-14.5282"/>
</g>
<!-- p50 -->
<g id="node54" class="node"><title>p50</title>
<ellipse fill="black" stroke="black" cx="1131" cy="-2" rx="1.8" ry="1.8"/>
</g>
<!-- p48&#45;&gt;p50 -->
<g id="edge64" class="edge"><title>p48&#45;&gt;p50</title>
<path fill="none" stroke="black" d="M1104.4,-42.1982C1110.98,-32.5008 1119.02,-20.6579 1124.52,-12.5438"/>
<polygon fill="black" stroke="black" points="1127.6,-14.2478 1130.32,-4.00774 1121.8,-10.3172 1127.6,-14.2478"/>
</g>
<!-- p49 -->
<g id="node55" class="node"><title>p49</title>
<ellipse fill="black" stroke="black" cx="1156" cy="-2" rx="1.8" ry="1.8"/>
</g>
<!-- p48&#45;&gt;p49 -->
<g id="edge65" class="edge"><title>p48&#45;&gt;p49</title>
<path fill="none" stroke="black" d="M1111.22,-42.8025C1123.05,-32.288 1137.94,-19.0556 1147.21,-10.8107"/>
<polygon fill="black" stroke="black" points="1149.69,-13.2915 1154.84,-4.03191 1145.04,-8.05964 1149.69,-13.2915"/>
</g>
</g>
</svg>
