<?xml version="1.0" encoding="UTF-8" standalone="no"?>
<!DOCTYPE svg PUBLIC "-//W3C//DTD SVG 1.1//EN"
 "http://www.w3.org/Graphics/SVG/1.1/DTD/svg11.dtd">
<!-- Generated by graphviz version 2.30.1 (20201013.1554)
 -->
<!-- Title: helloworkflow Pages: 1 -->
<svg width="1481pt" height="1520pt"
 viewBox="0.00 0.00 1481.00 1520.00" xmlns="http://www.w3.org/2000/svg" xmlns:xlink="http://www.w3.org/1999/xlink">
<g id="graph0" class="graph" transform="scale(1 1) rotate(0) translate(4 1516)">
<title>helloworkflow</title>
<polygon fill="white" stroke="white" points="-4,5 -4,-1516 1478,-1516 1478,5 -4,5"/>
<!-- p0 -->
<g id="node1" class="node"><title>p0</title>
<ellipse fill="black" stroke="black" cx="1203" cy="-1434" rx="3.6" ry="3.6"/>
<text text-anchor="middle" x="1253.9" y="-1441.4" font-family="Times,serif" font-size="14.00">Channel.empty</text>
</g>
<!-- p5 -->
<g id="node2" class="node"><title>p5</title>
<ellipse fill="none" stroke="black" cx="1139" cy="-1360" rx="3.25" ry="3.5"/>
<text text-anchor="middle" x="1122" y="-1367.3" font-family="Times,serif" font-size="14.00">mix</text>
</g>
<!-- p0&#45;&gt;p5 -->
<g id="edge1" class="edge"><title>p0&#45;&gt;p5</title>
<path fill="none" stroke="black" d="M1201.22,-1430.52C1198.78,-1427.16 1194.21,-1421 1190,-1416 1175.98,-1399.36 1158.54,-1381.02 1148.11,-1370.28"/>
<polygon fill="black" stroke="black" points="1150.52,-1367.73 1141.02,-1363.03 1145.51,-1372.63 1150.52,-1367.73"/>
<text text-anchor="middle" x="1212" y="-1386.3" font-family="Times,serif" font-size="14.00">version_ch</text>
</g>
<!-- p11 -->
<g id="node8" class="node"><title>p11</title>
<ellipse fill="none" stroke="black" cx="1139" cy="-1166" rx="3.25" ry="3.5"/>
<text text-anchor="middle" x="1122" y="-1173.3" font-family="Times,serif" font-size="14.00">mix</text>
</g>
<!-- p5&#45;&gt;p11 -->
<g id="edge7" class="edge"><title>p5&#45;&gt;p11</title>
<path fill="none" stroke="black" d="M1139,-1356.29C1139,-1336.88 1139,-1218.8 1139,-1179.62"/>
<polygon fill="black" stroke="black" points="1142.5,-1179.62 1139,-1169.62 1135.5,-1179.62 1142.5,-1179.62"/>
<text text-anchor="middle" x="1178" y="-1238.3" font-family="Times,serif" font-size="14.00">version_ch</text>
</g>
<!-- p1 -->
<g id="node3" class="node"><title>p1</title>
<ellipse fill="black" stroke="black" cx="875" cy="-1508" rx="3.6" ry="3.6"/>
</g>
<!-- p4 -->
<g id="node4" class="node"><title>p4</title>
<ellipse fill="none" stroke="black" cx="935" cy="-1434" rx="245.992" ry="18"/>
<text text-anchor="middle" x="935" y="-1430.3" font-family="Times,serif" font-size="14.00">MANTA_SINGLE_SV01:SAMTOOLS_SAMPLES01</text>
</g>
<!-- p1&#45;&gt;p4 -->
<g id="edge2" class="edge"><title>p1&#45;&gt;p4</title>
<path fill="none" stroke="black" d="M875.902,-1504.47C878.222,-1498.19 884.86,-1481.55 894,-1470 897.034,-1466.16 900.537,-1462.44 904.192,-1458.93"/>
<polygon fill="black" stroke="black" points="906.707,-1461.38 911.805,-1452.09 902.028,-1456.17 906.707,-1461.38"/>
<text text-anchor="middle" x="912.5" y="-1474.3" font-family="Times,serif" font-size="14.00">meta</text>
</g>
<!-- p6 -->
<g id="node7" class="node"><title>p6</title>
<ellipse fill="none" stroke="black" cx="935" cy="-1360" rx="3.25" ry="3.5"/>
<text text-anchor="middle" x="902" y="-1367.3" font-family="Times,serif" font-size="14.00">splitCsv</text>
</g>
<!-- p4&#45;&gt;p6 -->
<g id="edge5" class="edge"><title>p4&#45;&gt;p6</title>
<path fill="none" stroke="black" d="M935,-1415.94C935,-1403.13 935,-1385.84 935,-1374.11"/>
<polygon fill="black" stroke="black" points="938.5,-1373.75 935,-1363.75 931.5,-1373.75 938.5,-1373.75"/>
</g>
<!-- p4&#45;&gt;p5 -->
<g id="edge6" class="edge"><title>p4&#45;&gt;p5</title>
<path fill="none" stroke="black" d="M982.314,-1416.3C1029.48,-1399.65 1098.79,-1375.19 1126.69,-1365.34"/>
<polygon fill="black" stroke="black" points="1127.89,-1368.63 1136.16,-1362 1125.56,-1362.03 1127.89,-1368.63"/>
</g>
<!-- p2 -->
<g id="node5" class="node"><title>p2</title>
<ellipse fill="black" stroke="black" cx="935" cy="-1508" rx="3.6" ry="3.6"/>
</g>
<!-- p2&#45;&gt;p4 -->
<g id="edge3" class="edge"><title>p2&#45;&gt;p4</title>
<path fill="none" stroke="black" d="M935,-1504.27C935,-1497.35 935,-1478.58 935,-1462.32"/>
<polygon fill="black" stroke="black" points="938.5,-1462.14 935,-1452.14 931.5,-1462.14 938.5,-1462.14"/>
<text text-anchor="middle" x="970" y="-1474.3" font-family="Times,serif" font-size="14.00">reference</text>
</g>
<!-- p3 -->
<g id="node6" class="node"><title>p3</title>
<ellipse fill="black" stroke="black" cx="1028" cy="-1508" rx="3.6" ry="3.6"/>
</g>
<!-- p3&#45;&gt;p4 -->
<g id="edge4" class="edge"><title>p3&#45;&gt;p4</title>
<path fill="none" stroke="black" d="M1027.03,-1504.32C1024.52,-1497.7 1017.19,-1480.35 1006,-1470 1000.66,-1465.06 994.489,-1460.67 988.064,-1456.81"/>
<polygon fill="black" stroke="black" points="989.637,-1453.68 979.197,-1451.87 986.231,-1459.79 989.637,-1453.68"/>
<text text-anchor="middle" x="1038.5" y="-1474.3" font-family="Times,serif" font-size="14.00">bams</text>
</g>
<!-- p9 -->
<g id="node9" class="node"><title>p9</title>
<ellipse fill="none" stroke="black" cx="842" cy="-1286" rx="221.445" ry="18"/>
<text text-anchor="middle" x="842" y="-1282.3" font-family="Times,serif" font-size="14.00">MANTA_SINGLE_SV01:MANTA_SINGLE_01</text>
</g>
<!-- p6&#45;&gt;p9 -->
<g id="edge8" class="edge"><title>p6&#45;&gt;p9</title>
<path fill="none" stroke="black" d="M934.031,-1356.32C931.518,-1349.7 924.195,-1332.35 913,-1322 907.589,-1317 901.329,-1312.55 894.814,-1308.66"/>
<polygon fill="black" stroke="black" points="896.27,-1305.46 885.827,-1303.68 892.878,-1311.59 896.27,-1305.46"/>
<text text-anchor="middle" x="1004" y="-1326.3" font-family="Times,serif" font-size="14.00">each_sample_bam_ch</text>
</g>
<!-- p20 -->
<g id="node14" class="node"><title>p20</title>
<ellipse fill="none" stroke="black" cx="1175" cy="-890" rx="3.25" ry="3.5"/>
<text text-anchor="middle" x="1158" y="-897.3" font-family="Times,serif" font-size="14.00">mix</text>
</g>
<!-- p11&#45;&gt;p20 -->
<g id="edge14" class="edge"><title>p11&#45;&gt;p20</title>
<path fill="none" stroke="black" d="M1141.82,-1163.4C1150.31,-1158.37 1175,-1141.92 1175,-1121 1175,-1121 1175,-1121 1175,-977 1175,-951.081 1175,-920.769 1175,-903.94"/>
<polygon fill="black" stroke="black" points="1178.5,-903.675 1175,-893.675 1171.5,-903.675 1178.5,-903.675"/>
<text text-anchor="middle" x="1214" y="-1052.3" font-family="Times,serif" font-size="14.00">version_ch</text>
</g>
<!-- p12 -->
<g id="node12" class="node"><title>p12</title>
<ellipse fill="none" stroke="black" cx="827" cy="-1212" rx="3.25" ry="3.5"/>
<text text-anchor="middle" x="808" y="-1219.3" font-family="Times,serif" font-size="14.00">map</text>
</g>
<!-- p9&#45;&gt;p12 -->
<g id="edge11" class="edge"><title>p9&#45;&gt;p12</title>
<path fill="none" stroke="black" d="M838.445,-1267.94C835.748,-1254.99 832.098,-1237.47 829.652,-1225.73"/>
<polygon fill="black" stroke="black" points="833.039,-1224.82 827.573,-1215.75 826.186,-1226.25 833.039,-1224.82"/>
</g>
<!-- p10 -->
<g id="node13" class="node"><title>p10</title>
<ellipse fill="none" stroke="black" cx="921" cy="-1212" rx="3.25" ry="3.5"/>
<text text-anchor="middle" x="902" y="-1219.3" font-family="Times,serif" font-size="14.00">first</text>
</g>
<!-- p9&#45;&gt;p10 -->
<g id="edge12" class="edge"><title>p9&#45;&gt;p10</title>
<path fill="none" stroke="black" d="M860.722,-1267.94C876.563,-1253.5 898.638,-1233.38 911.208,-1221.92"/>
<polygon fill="black" stroke="black" points="913.917,-1224.19 918.95,-1214.87 909.202,-1219.02 913.917,-1224.19"/>
</g>
<!-- p7 -->
<g id="node10" class="node"><title>p7</title>
<ellipse fill="black" stroke="black" cx="782" cy="-1360" rx="3.6" ry="3.6"/>
</g>
<!-- p7&#45;&gt;p9 -->
<g id="edge9" class="edge"><title>p7&#45;&gt;p9</title>
<path fill="none" stroke="black" d="M782.902,-1356.47C785.222,-1350.19 791.86,-1333.55 801,-1322 804.034,-1318.16 807.537,-1314.44 811.192,-1310.93"/>
<polygon fill="black" stroke="black" points="813.707,-1313.38 818.805,-1304.09 809.028,-1308.17 813.707,-1313.38"/>
<text text-anchor="middle" x="819.5" y="-1326.3" font-family="Times,serif" font-size="14.00">meta</text>
</g>
<!-- p8 -->
<g id="node11" class="node"><title>p8</title>
<ellipse fill="black" stroke="black" cx="842" cy="-1360" rx="3.6" ry="3.6"/>
</g>
<!-- p8&#45;&gt;p9 -->
<g id="edge10" class="edge"><title>p8&#45;&gt;p9</title>
<path fill="none" stroke="black" d="M842,-1356.27C842,-1349.35 842,-1330.58 842,-1314.32"/>
<polygon fill="black" stroke="black" points="845.5,-1314.14 842,-1304.14 838.5,-1314.14 845.5,-1314.14"/>
<text text-anchor="middle" x="877" y="-1326.3" font-family="Times,serif" font-size="14.00">reference</text>
</g>
<!-- p13 -->
<g id="node15" class="node"><title>p13</title>
<ellipse fill="none" stroke="black" cx="767" cy="-1166" rx="3.25" ry="3.5"/>
<text text-anchor="middle" x="734" y="-1173.3" font-family="Times,serif" font-size="14.00">splitCsv</text>
</g>
<!-- p12&#45;&gt;p13 -->
<g id="edge15" class="edge"><title>p12&#45;&gt;p13</title>
<path fill="none" stroke="black" d="M824.721,-1209.33C817.073,-1203.72 791.992,-1185.33 777.532,-1174.72"/>
<polygon fill="black" stroke="black" points="779.415,-1171.76 769.281,-1168.67 775.275,-1177.41 779.415,-1171.76"/>
</g>
<!-- p10&#45;&gt;p11 -->
<g id="edge13" class="edge"><title>p10&#45;&gt;p11</title>
<path fill="none" stroke="black" d="M924.082,-1210.38C946.36,-1205.88 1083.11,-1178.28 1126.09,-1169.61"/>
<polygon fill="black" stroke="black" points="1126.92,-1173.01 1136.03,-1167.6 1125.53,-1166.15 1126.92,-1173.01"/>
</g>
<!-- p25 -->
<g id="node24" class="node"><title>p25</title>
<ellipse fill="none" stroke="black" cx="901" cy="-812" rx="3.25" ry="3.5"/>
<text text-anchor="middle" x="884" y="-819.3" font-family="Times,serif" font-size="14.00">mix</text>
</g>
<!-- p20&#45;&gt;p25 -->
<g id="edge24" class="edge"><title>p20&#45;&gt;p25</title>
<path fill="none" stroke="black" d="M1171.92,-888.146C1146.01,-880.96 964.022,-830.481 913.806,-816.552"/>
<polygon fill="black" stroke="black" points="914.625,-813.147 904.054,-813.847 912.754,-819.893 914.625,-813.147"/>
<text text-anchor="middle" x="1086" y="-842.3" font-family="Times,serif" font-size="14.00">version_ch</text>
</g>
<!-- p14 -->
<g id="node16" class="node"><title>p14</title>
<ellipse fill="none" stroke="black" cx="527" cy="-1120" rx="3.25" ry="3.5"/>
<text text-anchor="middle" x="508" y="-1127.3" font-family="Times,serif" font-size="14.00">map</text>
</g>
<!-- p13&#45;&gt;p14 -->
<g id="edge16" class="edge"><title>p13&#45;&gt;p14</title>
<path fill="none" stroke="black" d="M763.966,-1164.44C740.356,-1160.12 585.749,-1131.77 539.835,-1123.35"/>
<polygon fill="black" stroke="black" points="540.434,-1119.9 529.967,-1121.54 539.172,-1126.79 540.434,-1119.9"/>
</g>
<!-- p15 -->
<g id="node17" class="node"><title>p15</title>
<ellipse fill="none" stroke="black" cx="240" cy="-1056" rx="3.25" ry="3.5"/>
<text text-anchor="middle" x="212" y="-1063.3" font-family="Times,serif" font-size="14.00">collect</text>
</g>
<!-- p14&#45;&gt;p15 -->
<g id="edge17" class="edge"><title>p14&#45;&gt;p15</title>
<path fill="none" stroke="black" d="M524,-1118.64C502.01,-1115.93 363.567,-1098.02 256,-1064 254.634,-1063.57 253.227,-1063.06 251.841,-1062.51"/>
<polygon fill="black" stroke="black" points="253.205,-1059.29 242.65,-1058.37 250.329,-1065.67 253.205,-1059.29"/>
<text text-anchor="middle" x="409.5" y="-1086.3" font-family="Times,serif" font-size="14.00">to_zip</text>
</g>
<!-- p21 -->
<g id="node25" class="node"><title>p21</title>
<ellipse fill="none" stroke="black" cx="554" cy="-1056" rx="3.25" ry="3.5"/>
<text text-anchor="middle" x="532.5" y="-1063.3" font-family="Times,serif" font-size="14.00">filter</text>
</g>
<!-- p14&#45;&gt;p21 -->
<g id="edge25" class="edge"><title>p14&#45;&gt;p21</title>
<path fill="none" stroke="black" d="M528.025,-1116.65C531.4,-1108.9 542.318,-1083.82 548.876,-1068.77"/>
<polygon fill="black" stroke="black" points="552.19,-1069.92 552.974,-1059.36 545.772,-1067.13 552.19,-1069.92"/>
<text text-anchor="middle" x="564.5" y="-1086.3" font-family="Times,serif" font-size="14.00">to_zip</text>
</g>
<!-- p26 -->
<g id="node28" class="node"><title>p26</title>
<ellipse fill="none" stroke="black" cx="634" cy="-812" rx="3.25" ry="3.5"/>
<text text-anchor="middle" x="617" y="-819.3" font-family="Times,serif" font-size="14.00">mix</text>
</g>
<!-- p14&#45;&gt;p26 -->
<g id="edge33" class="edge"><title>p14&#45;&gt;p26</title>
<path fill="none" stroke="black" d="M525.819,-1116.71C521.814,-1108.7 509,-1081.21 509,-1057 509,-1057 509,-1057 509,-889 509,-837.212 588.303,-819.707 620.578,-814.727"/>
<polygon fill="black" stroke="black" points="621.472,-818.138 630.91,-813.325 620.53,-811.202 621.472,-818.138"/>
<text text-anchor="middle" x="530.5" y="-974.3" font-family="Times,serif" font-size="14.00">to_zip</text>
</g>
<!-- p17 -->
<g id="node18" class="node"><title>p17</title>
<ellipse fill="none" stroke="black" cx="236" cy="-978" rx="236.368" ry="18"/>
<text text-anchor="middle" x="236" y="-974.3" font-family="Times,serif" font-size="14.00">MANTA_SINGLE_SV01:COLLECT_TO_FILE_01</text>
</g>
<!-- p15&#45;&gt;p17 -->
<g id="edge18" class="edge"><title>p15&#45;&gt;p17</title>
<path fill="none" stroke="black" d="M239.867,-1052.47C239.488,-1045.27 238.37,-1024.03 237.433,-1006.23"/>
<polygon fill="black" stroke="black" points="240.916,-1005.81 236.895,-996.009 233.926,-1006.18 240.916,-1005.81"/>
</g>
<!-- p44 -->
<g id="node20" class="node"><title>p44</title>
<ellipse fill="none" stroke="black" cx="587" cy="-226" rx="3.25" ry="3.5"/>
<text text-anchor="middle" x="570" y="-233.3" font-family="Times,serif" font-size="14.00">mix</text>
</g>
<!-- p17&#45;&gt;p44 -->
<g id="edge20" class="edge"><title>p17&#45;&gt;p44</title>
<path fill="none" stroke="black" d="M275.601,-960.227C302.045,-946.083 332,-922.998 332,-891 332,-891 332,-891 332,-271 332,-246.254 520.886,-231.512 573.526,-227.883"/>
<polygon fill="black" stroke="black" points="574.03,-231.358 583.776,-227.201 573.565,-224.373 574.03,-231.358"/>
<text text-anchor="middle" x="373.5" y="-538.3" font-family="Times,serif" font-size="14.00">manta_files</text>
</g>
<!-- p16 -->
<g id="node19" class="node"><title>p16</title>
<ellipse fill="black" stroke="black" cx="269" cy="-1056" rx="3.6" ry="3.6"/>
</g>
<!-- p16&#45;&gt;p17 -->
<g id="edge19" class="edge"><title>p16&#45;&gt;p17</title>
<path fill="none" stroke="black" d="M267.902,-1052.47C264.731,-1045.17 255.291,-1023.43 247.496,-1005.48"/>
<polygon fill="black" stroke="black" points="250.579,-1003.79 243.385,-996.009 244.158,-1006.58 250.579,-1003.79"/>
<text text-anchor="middle" x="276.5" y="-1018.3" font-family="Times,serif" font-size="14.00">meta</text>
</g>
<!-- p45 -->
<g id="node42" class="node"><title>p45</title>
<ellipse fill="none" stroke="black" cx="1094" cy="-180" rx="3.25" ry="3.5"/>
<text text-anchor="middle" x="1077" y="-187.3" font-family="Times,serif" font-size="14.00">mix</text>
</g>
<!-- p44&#45;&gt;p45 -->
<g id="edge56" class="edge"><title>p44&#45;&gt;p45</title>
<path fill="none" stroke="black" d="M590.238,-224.719C628.983,-221.357 1003.8,-188.828 1080.38,-182.182"/>
<polygon fill="black" stroke="black" points="1081.15,-185.629 1090.81,-181.277 1080.54,-178.655 1081.15,-185.629"/>
</g>
<!-- p18 -->
<g id="node21" class="node"><title>p18</title>
<ellipse fill="black" stroke="black" cx="921" cy="-1056" rx="3.6" ry="3.6"/>
</g>
<!-- p19 -->
<g id="node22" class="node"><title>p19</title>
<ellipse fill="none" stroke="black" cx="921" cy="-978" rx="225.295" ry="18"/>
<text text-anchor="middle" x="921" y="-974.3" font-family="Times,serif" font-size="14.00">MANTA_SINGLE_SV01:SURVIVOR_INSTALL</text>
</g>
<!-- p18&#45;&gt;p19 -->
<g id="edge21" class="edge"><title>p18&#45;&gt;p19</title>
<path fill="none" stroke="black" d="M921,-1052.11C921,-1044.61 921,-1023.88 921,-1006.4"/>
<polygon fill="black" stroke="black" points="924.5,-1006.08 921,-996.083 917.5,-1006.08 924.5,-1006.08"/>
<text text-anchor="middle" x="939.5" y="-1018.3" font-family="Times,serif" font-size="14.00">meta</text>
</g>
<!-- p24 -->
<g id="node23" class="node"><title>p24</title>
<ellipse fill="none" stroke="black" cx="756" cy="-890" rx="219.046" ry="18"/>
<text text-anchor="middle" x="756" y="-886.3" font-family="Times,serif" font-size="14.00">MANTA_SINGLE_SV01:SURVIVOR_MERGE</text>
</g>
<!-- p19&#45;&gt;p24 -->
<g id="edge22" class="edge"><title>p19&#45;&gt;p24</title>
<path fill="none" stroke="black" d="M888.401,-960.009C862.328,-946.419 825.603,-927.278 797.444,-912.601"/>
<polygon fill="black" stroke="black" points="798.735,-909.327 788.25,-907.809 795.5,-915.535 798.735,-909.327"/>
</g>
<!-- p19&#45;&gt;p20 -->
<g id="edge23" class="edge"><title>p19&#45;&gt;p20</title>
<path fill="none" stroke="black" d="M969.974,-960.418C1030.06,-940.074 1128.19,-906.848 1162.61,-895.196"/>
<polygon fill="black" stroke="black" points="1163.86,-898.466 1172.21,-891.944 1161.62,-891.836 1163.86,-898.466"/>
</g>
<!-- p24&#45;&gt;p26 -->
<g id="edge29" class="edge"><title>p24&#45;&gt;p26</title>
<path fill="none" stroke="black" d="M661.693,-873.614C652.248,-868.693 643.694,-862.296 637,-854 630.664,-846.147 630.411,-834.464 631.455,-825.576"/>
<polygon fill="black" stroke="black" points="634.929,-826.033 633.294,-815.565 628.045,-824.768 634.929,-826.033"/>
<text text-anchor="middle" x="681.5" y="-842.3" font-family="Times,serif" font-size="14.00">survivor_vcf</text>
</g>
<!-- p27 -->
<g id="node29" class="node"><title>p27</title>
<ellipse fill="none" stroke="black" cx="634" cy="-748" rx="3.25" ry="3.5"/>
<text text-anchor="middle" x="617" y="-755.3" font-family="Times,serif" font-size="14.00">mix</text>
</g>
<!-- p24&#45;&gt;p27 -->
<g id="edge30" class="edge"><title>p24&#45;&gt;p27</title>
<path fill="none" stroke="black" d="M747.354,-871.724C741.867,-861.481 734.26,-848.493 726,-838 699.911,-804.856 661.935,-771.935 644.04,-757.126"/>
<polygon fill="black" stroke="black" points="646.179,-754.355 636.214,-750.754 641.759,-759.783 646.179,-754.355"/>
<text text-anchor="middle" x="778" y="-808.3" font-family="Times,serif" font-size="14.00">survivor_vcf_index</text>
</g>
<!-- p24&#45;&gt;p25 -->
<g id="edge31" class="edge"><title>p24&#45;&gt;p25</title>
<path fill="none" stroke="black" d="M788.18,-872.133C820.147,-855.378 867.448,-830.586 889.233,-819.168"/>
<polygon fill="black" stroke="black" points="891.036,-822.174 898.269,-814.432 887.787,-815.974 891.036,-822.174"/>
</g>
<!-- p42 -->
<g id="node45" class="node"><title>p42</title>
<ellipse fill="none" stroke="black" cx="743" cy="-318" rx="3.25" ry="3.5"/>
<text text-anchor="middle" x="726" y="-325.3" font-family="Times,serif" font-size="14.00">mix</text>
</g>
<!-- p24&#45;&gt;p42 -->
<g id="edge52" class="edge"><title>p24&#45;&gt;p42</title>
<path fill="none" stroke="black" d="M958.567,-883.079C1052.2,-874.61 1143,-855.452 1143,-813 1143,-813 1143,-813 1143,-363 1143,-323.209 826.215,-319.394 756.473,-319.036"/>
<polygon fill="black" stroke="black" points="756.47,-315.536 746.458,-319.001 756.446,-322.536 756.47,-315.536"/>
<text text-anchor="middle" x="1187.5" y="-582.3" font-family="Times,serif" font-size="14.00">survivor_vcf</text>
</g>
<!-- p43 -->
<g id="node46" class="node"><title>p43</title>
<ellipse fill="none" stroke="black" cx="587" cy="-272" rx="3.25" ry="3.5"/>
<text text-anchor="middle" x="570" y="-279.3" font-family="Times,serif" font-size="14.00">mix</text>
</g>
<!-- p24&#45;&gt;p43 -->
<g id="edge54" class="edge"><title>p24&#45;&gt;p43</title>
<path fill="none" stroke="black" d="M659.919,-873.761C599.921,-861.429 534,-841.414 534,-813 534,-813 534,-813 534,-317 534,-296.034 558.855,-283.149 574.524,-277.109"/>
<polygon fill="black" stroke="black" points="575.829,-280.362 584.15,-273.805 573.556,-273.741 575.829,-280.362"/>
<text text-anchor="middle" x="602" y="-538.3" font-family="Times,serif" font-size="14.00">survivor_vcf_index</text>
</g>
<!-- p28 -->
<g id="node30" class="node"><title>p28</title>
<ellipse fill="none" stroke="black" cx="901" cy="-748" rx="3.25" ry="3.5"/>
<text text-anchor="middle" x="873" y="-755.3" font-family="Times,serif" font-size="14.00">collect</text>
</g>
<!-- p25&#45;&gt;p28 -->
<g id="edge32" class="edge"><title>p25&#45;&gt;p28</title>
<path fill="none" stroke="black" d="M901,-808.336C901,-800.448 901,-776.832 901,-761.881"/>
<polygon fill="black" stroke="black" points="904.5,-761.585 901,-751.585 897.5,-761.585 904.5,-761.585"/>
<text text-anchor="middle" x="940" y="-774.3" font-family="Times,serif" font-size="14.00">version_ch</text>
</g>
<!-- p22 -->
<g id="node26" class="node"><title>p22</title>
<ellipse fill="none" stroke="black" cx="574" cy="-978" rx="3.25" ry="3.5"/>
<text text-anchor="middle" x="595" y="-985.3" font-family="Times,serif" font-size="14.00">collect</text>
</g>
<!-- p21&#45;&gt;p22 -->
<g id="edge26" class="edge"><title>p21&#45;&gt;p22</title>
<path fill="none" stroke="black" d="M554.665,-1052.47C557.133,-1043.1 565.864,-1009.92 570.706,-991.518"/>
<polygon fill="black" stroke="black" points="574.151,-992.178 573.312,-981.616 567.382,-990.396 574.151,-992.178"/>
</g>
<!-- p22&#45;&gt;p24 -->
<g id="edge27" class="edge"><title>p22&#45;&gt;p24</title>
<path fill="none" stroke="black" d="M575.72,-974.65C581.769,-966.557 603.003,-939.599 627,-926 638.423,-919.527 651.097,-914.206 663.913,-909.843"/>
<polygon fill="black" stroke="black" points="665.272,-913.083 673.722,-906.691 663.13,-906.418 665.272,-913.083"/>
<text text-anchor="middle" x="664" y="-930.3" font-family="Times,serif" font-size="14.00">diploid_ch</text>
</g>
<!-- p23 -->
<g id="node27" class="node"><title>p23</title>
<ellipse fill="black" stroke="black" cx="674" cy="-978" rx="3.6" ry="3.6"/>
</g>
<!-- p23&#45;&gt;p24 -->
<g id="edge28" class="edge"><title>p23&#45;&gt;p24</title>
<path fill="none" stroke="black" d="M675.578,-974.477C677.757,-971.065 681.886,-964.848 686,-960 699.382,-944.229 715.785,-927.923 729.348,-915.126"/>
<polygon fill="black" stroke="black" points="732.034,-917.406 736.961,-908.026 727.26,-912.287 732.034,-917.406"/>
<text text-anchor="middle" x="736.5" y="-930.3" font-family="Times,serif" font-size="14.00">meta</text>
</g>
<!-- p26&#45;&gt;p27 -->
<g id="edge34" class="edge"><title>p26&#45;&gt;p27</title>
<path fill="none" stroke="black" d="M634,-808.336C634,-800.448 634,-776.832 634,-761.881"/>
<polygon fill="black" stroke="black" points="637.5,-761.585 634,-751.585 630.5,-761.585 637.5,-761.585"/>
</g>
<!-- p33 -->
<g id="node31" class="node"><title>p33</title>
<ellipse fill="none" stroke="black" cx="887" cy="-586" rx="3.25" ry="3.5"/>
<text text-anchor="middle" x="870" y="-593.3" font-family="Times,serif" font-size="14.00">mix</text>
</g>
<!-- p27&#45;&gt;p33 -->
<g id="edge35" class="edge"><title>p27&#45;&gt;p33</title>
<path fill="none" stroke="black" d="M633.102,-744.394C629.225,-732.625 615.089,-683.814 637,-656 667.307,-617.528 826.641,-594.614 873.824,-588.599"/>
<polygon fill="black" stroke="black" points="874.46,-592.047 883.958,-587.351 873.605,-585.099 874.46,-592.047"/>
<text text-anchor="middle" x="658.5" y="-670.3" font-family="Times,serif" font-size="14.00">to_zip</text>
</g>
<!-- p32 -->
<g id="node32" class="node"><title>p32</title>
<ellipse fill="none" stroke="black" cx="902" cy="-674" rx="213.272" ry="18"/>
<text text-anchor="middle" x="902" y="-670.3" font-family="Times,serif" font-size="14.00">MANTA_SINGLE_SV01:MERGE_VERSION</text>
</g>
<!-- p28&#45;&gt;p32 -->
<g id="edge36" class="edge"><title>p28&#45;&gt;p32</title>
<path fill="none" stroke="black" d="M901.038,-744.265C901.134,-737.354 901.395,-718.578 901.621,-702.316"/>
<polygon fill="black" stroke="black" points="905.123,-702.191 901.762,-692.143 898.123,-702.093 905.123,-702.191"/>
</g>
<!-- p34 -->
<g id="node36" class="node"><title>p34</title>
<ellipse fill="none" stroke="black" cx="887" cy="-512" rx="3.25" ry="3.5"/>
<text text-anchor="middle" x="859" y="-519.3" font-family="Times,serif" font-size="14.00">collect</text>
</g>
<!-- p33&#45;&gt;p34 -->
<g id="edge41" class="edge"><title>p33&#45;&gt;p34</title>
<path fill="none" stroke="black" d="M887,-582.265C887,-573.133 887,-543.282 887,-525.892"/>
<polygon fill="black" stroke="black" points="890.5,-525.737 887,-515.737 883.5,-525.737 890.5,-525.737"/>
<text text-anchor="middle" x="908.5" y="-538.3" font-family="Times,serif" font-size="14.00">to_zip</text>
</g>
<!-- p32&#45;&gt;p33 -->
<g id="edge40" class="edge"><title>p32&#45;&gt;p33</title>
<path fill="none" stroke="black" d="M898.965,-655.597C896.078,-639.046 891.803,-614.54 889.222,-599.737"/>
<polygon fill="black" stroke="black" points="892.632,-598.921 887.466,-589.671 885.736,-600.124 892.632,-598.921"/>
<text text-anchor="middle" x="922.5" y="-626.3" font-family="Times,serif" font-size="14.00">version</text>
</g>
<!-- p38 -->
<g id="node41" class="node"><title>p38</title>
<ellipse fill="none" stroke="black" cx="1362" cy="-586" rx="111.186" ry="18"/>
<text text-anchor="middle" x="1362" y="-582.3" font-family="Times,serif" font-size="14.00">VERSION_TO_HTML</text>
</g>
<!-- p32&#45;&gt;p38 -->
<g id="edge46" class="edge"><title>p32&#45;&gt;p38</title>
<path fill="none" stroke="black" d="M985.303,-657.426C1069.64,-641.658 1199.15,-617.446 1282.21,-601.917"/>
<polygon fill="black" stroke="black" points="1282.92,-605.346 1292.1,-600.068 1281.63,-598.465 1282.92,-605.346"/>
<text text-anchor="middle" x="1199.5" y="-626.3" font-family="Times,serif" font-size="14.00">version</text>
</g>
<!-- p40 -->
<g id="node44" class="node"><title>p40</title>
<ellipse fill="none" stroke="black" cx="685" cy="-586" rx="3.25" ry="3.5"/>
<text text-anchor="middle" x="668" y="-593.3" font-family="Times,serif" font-size="14.00">mix</text>
</g>
<!-- p32&#45;&gt;p40 -->
<g id="edge49" class="edge"><title>p32&#45;&gt;p40</title>
<path fill="none" stroke="black" d="M859.903,-656.316C809.416,-636.308 727.762,-603.947 697.126,-591.806"/>
<polygon fill="black" stroke="black" points="698.402,-588.546 687.816,-588.116 695.823,-595.054 698.402,-588.546"/>
<text text-anchor="middle" x="839.5" y="-626.3" font-family="Times,serif" font-size="14.00">version</text>
</g>
<!-- p29 -->
<g id="node33" class="node"><title>p29</title>
<ellipse fill="black" stroke="black" cx="934" cy="-748" rx="3.6" ry="3.6"/>
</g>
<!-- p29&#45;&gt;p32 -->
<g id="edge37" class="edge"><title>p29&#45;&gt;p32</title>
<path fill="none" stroke="black" d="M932.785,-744.265C929.654,-737.222 921.048,-717.859 913.729,-701.39"/>
<polygon fill="black" stroke="black" points="916.879,-699.86 909.619,-692.143 910.482,-702.703 916.879,-699.86"/>
<text text-anchor="middle" x="943.5" y="-714.3" font-family="Times,serif" font-size="14.00">meta</text>
</g>
<!-- p30 -->
<g id="node34" class="node"><title>p30</title>
<ellipse fill="black" stroke="black" cx="994" cy="-748" rx="3.6" ry="3.6"/>
</g>
<!-- p30&#45;&gt;p32 -->
<g id="edge38" class="edge"><title>p30&#45;&gt;p32</title>
<path fill="none" stroke="black" d="M992.544,-744.369C988.836,-737.856 978.444,-720.733 966,-710 960.462,-705.223 954.166,-700.821 947.735,-696.866"/>
<polygon fill="black" stroke="black" points="949.346,-693.755 938.941,-691.759 945.831,-699.808 949.346,-693.755"/>
<text text-anchor="middle" x="1001" y="-714.3" font-family="Times,serif" font-size="14.00">name</text>
</g>
<!-- p31 -->
<g id="node35" class="node"><title>p31</title>
<ellipse fill="black" stroke="black" cx="804" cy="-748" rx="3.6" ry="3.6"/>
</g>
<!-- p31&#45;&gt;p32 -->
<g id="edge39" class="edge"><title>p31&#45;&gt;p32</title>
<path fill="none" stroke="black" d="M804.123,-744.289C804.569,-737.594 806.62,-720.09 816,-710 820.98,-704.643 826.897,-700.085 833.261,-696.212"/>
<polygon fill="black" stroke="black" points="835.074,-699.21 842.172,-691.344 831.718,-693.067 835.074,-699.21"/>
<text text-anchor="middle" x="857" y="-714.3" font-family="Times,serif" font-size="14.00">description</text>
</g>
<!-- p36 -->
<g id="node37" class="node"><title>p36</title>
<ellipse fill="none" stroke="black" cx="914" cy="-438" rx="201.223" ry="18"/>
<text text-anchor="middle" x="914" y="-434.3" font-family="Times,serif" font-size="14.00">MANTA_SINGLE_SV01:SIMPLE_ZIP_01</text>
</g>
<!-- p34&#45;&gt;p36 -->
<g id="edge42" class="edge"><title>p34&#45;&gt;p36</title>
<path fill="none" stroke="black" d="M887.898,-508.604C890.423,-501.873 897.804,-482.19 904.076,-465.465"/>
<polygon fill="black" stroke="black" points="907.361,-466.672 907.595,-456.08 900.807,-464.214 907.361,-466.672"/>
</g>
<!-- p41 -->
<g id="node39" class="node"><title>p41</title>
<ellipse fill="none" stroke="black" cx="743" cy="-364" rx="3.25" ry="3.5"/>
<text text-anchor="middle" x="726" y="-371.3" font-family="Times,serif" font-size="14.00">mix</text>
</g>
<!-- p36&#45;&gt;p41 -->
<g id="edge44" class="edge"><title>p36&#45;&gt;p41</title>
<path fill="none" stroke="black" d="M874.339,-420.301C835.852,-404.095 779.77,-380.482 755.246,-370.156"/>
<polygon fill="black" stroke="black" points="756.33,-366.815 745.755,-366.16 753.613,-373.266 756.33,-366.815"/>
<text text-anchor="middle" x="840" y="-390.3" font-family="Times,serif" font-size="14.00">zip</text>
</g>
<!-- p35 -->
<g id="node38" class="node"><title>p35</title>
<ellipse fill="black" stroke="black" cx="920" cy="-512" rx="3.6" ry="3.6"/>
</g>
<!-- p35&#45;&gt;p36 -->
<g id="edge43" class="edge"><title>p35&#45;&gt;p36</title>
<path fill="none" stroke="black" d="M919.772,-508.265C919.196,-501.354 917.632,-482.578 916.276,-466.316"/>
<polygon fill="black" stroke="black" points="919.747,-465.818 915.429,-456.143 912.771,-466.399 919.747,-465.818"/>
<text text-anchor="middle" x="937.5" y="-478.3" font-family="Times,serif" font-size="14.00">meta</text>
</g>
<!-- p41&#45;&gt;p42 -->
<g id="edge51" class="edge"><title>p41&#45;&gt;p42</title>
<path fill="none" stroke="black" d="M743,-360.379C743,-354.864 743,-341.742 743,-331.742"/>
<polygon fill="black" stroke="black" points="746.5,-331.552 743,-321.552 739.5,-331.552 746.5,-331.552"/>
</g>
<!-- p37 -->
<g id="node40" class="node"><title>p37</title>
<ellipse fill="black" stroke="black" cx="1362" cy="-674" rx="3.6" ry="3.6"/>
</g>
<!-- p37&#45;&gt;p38 -->
<g id="edge45" class="edge"><title>p37&#45;&gt;p38</title>
<path fill="none" stroke="black" d="M1362,-670.139C1362,-661.502 1362,-635.011 1362,-614.227"/>
<polygon fill="black" stroke="black" points="1365.5,-614.004 1362,-604.004 1358.5,-614.004 1365.5,-614.004"/>
<text text-anchor="middle" x="1380.5" y="-626.3" font-family="Times,serif" font-size="14.00">meta</text>
</g>
<!-- p38&#45;&gt;p45 -->
<g id="edge47" class="edge"><title>p38&#45;&gt;p45</title>
<path fill="none" stroke="black" d="M1318.63,-569.404C1295.19,-557.904 1271,-539.592 1271,-513 1271,-513 1271,-513 1271,-225 1271,-191.355 1149.03,-183.248 1107.59,-181.465"/>
<polygon fill="black" stroke="black" points="1107.5,-177.96 1097.38,-181.089 1107.24,-184.955 1107.5,-177.96"/>
</g>
<!-- p46 -->
<g id="node47" class="node"><title>p46</title>
<ellipse fill="none" stroke="black" cx="1094" cy="-120" rx="3.25" ry="3.5"/>
<text text-anchor="middle" x="1066" y="-127.3" font-family="Times,serif" font-size="14.00">collect</text>
</g>
<!-- p45&#45;&gt;p46 -->
<g id="edge57" class="edge"><title>p45&#45;&gt;p46</title>
<path fill="none" stroke="black" d="M1094,-176.203C1094,-168.649 1094,-147.48 1094,-133.66"/>
<polygon fill="black" stroke="black" points="1097.5,-133.636 1094,-123.636 1090.5,-133.636 1097.5,-133.636"/>
<text text-anchor="middle" x="1131.5" y="-146.3" font-family="Times,serif" font-size="14.00">to_publish</text>
</g>
<!-- p39 -->
<g id="node43" class="node"><title>p39</title>
<ellipse fill="black" stroke="black" cx="567" cy="-674" rx="3.6" ry="3.6"/>
<text text-anchor="middle" x="508.9" y="-681.4" font-family="Times,serif" font-size="14.00">Channel.empty</text>
</g>
<!-- p39&#45;&gt;p40 -->
<g id="edge48" class="edge"><title>p39&#45;&gt;p40</title>
<path fill="none" stroke="black" d="M566.072,-670.323C563.409,-662.114 556.64,-636.948 568,-622 592.689,-589.513 646.381,-586.091 671.515,-586.394"/>
<polygon fill="black" stroke="black" points="671.633,-589.9 681.751,-586.758 671.881,-582.905 671.633,-589.9"/>
<text text-anchor="middle" x="605.5" y="-626.3" font-family="Times,serif" font-size="14.00">to_publish</text>
</g>
<!-- p40&#45;&gt;p41 -->
<g id="edge50" class="edge"><title>p40&#45;&gt;p41</title>
<path fill="none" stroke="black" d="M684.814,-582.156C683.846,-565.767 680.282,-481.935 704,-420 710.852,-402.107 724.886,-384.609 734.117,-374.317"/>
<polygon fill="black" stroke="black" points="736.808,-376.564 741.103,-366.879 731.706,-371.772 736.808,-376.564"/>
</g>
<!-- p42&#45;&gt;p43 -->
<g id="edge53" class="edge"><title>p42&#45;&gt;p43</title>
<path fill="none" stroke="black" d="M740.023,-316.16C722.616,-311.251 633.62,-286.149 599.939,-276.649"/>
<polygon fill="black" stroke="black" points="600.842,-273.268 590.267,-273.922 598.942,-280.005 600.842,-273.268"/>
</g>
<!-- p43&#45;&gt;p44 -->
<g id="edge55" class="edge"><title>p43&#45;&gt;p44</title>
<path fill="none" stroke="black" d="M587,-268.379C587,-262.864 587,-249.742 587,-239.742"/>
<polygon fill="black" stroke="black" points="590.5,-239.552 587,-229.552 583.5,-239.552 590.5,-239.552"/>
</g>
<!-- p47 -->
<g id="node48" class="node"><title>p47</title>
<ellipse fill="none" stroke="black" cx="1094" cy="-60" rx="56.3173" ry="18"/>
<text text-anchor="middle" x="1094" y="-56.3" font-family="Times,serif" font-size="14.00">PUBLISH</text>
</g>
<!-- p46&#45;&gt;p47 -->
<g id="edge58" class="edge"><title>p46&#45;&gt;p47</title>
<path fill="none" stroke="black" d="M1094,-116.203C1094,-111.005 1094,-99.3614 1094,-88.1011"/>
<polygon fill="black" stroke="black" points="1097.5,-88.0637 1094,-78.0638 1090.5,-88.0638 1097.5,-88.0637"/>
</g>
<!-- p53 -->
<g id="node49" class="node"><title>p53</title>
<ellipse fill="black" stroke="black" cx="1032" cy="-2" rx="1.8" ry="1.8"/>
</g>
<!-- p47&#45;&gt;p53 -->
<g id="edge59" class="edge"><title>p47&#45;&gt;p53</title>
<path fill="none" stroke="black" d="M1076.07,-42.8025C1064.43,-32.288 1049.78,-19.0556 1040.65,-10.8107"/>
<polygon fill="black" stroke="black" points="1042.91,-8.13744 1033.14,-4.03191 1038.22,-13.3322 1042.91,-8.13744"/>
</g>
<!-- p52 -->
<g id="node50" class="node"><title>p52</title>
<ellipse fill="black" stroke="black" cx="1057" cy="-2" rx="1.8" ry="1.8"/>
</g>
<!-- p47&#45;&gt;p52 -->
<g id="edge60" class="edge"><title>p47&#45;&gt;p52</title>
<path fill="none" stroke="black" d="M1082.9,-42.1982C1076.49,-32.5008 1068.67,-20.6579 1063.31,-12.5438"/>
<polygon fill="black" stroke="black" points="1066.1,-10.4217 1057.67,-4.00774 1060.26,-14.2805 1066.1,-10.4217"/>
</g>
<!-- p51 -->
<g id="node51" class="node"><title>p51</title>
<ellipse fill="black" stroke="black" cx="1082" cy="-2" rx="1.8" ry="1.8"/>
</g>
<!-- p47&#45;&gt;p51 -->
<g id="edge61" class="edge"><title>p47&#45;&gt;p51</title>
<path fill="none" stroke="black" d="M1090.33,-41.8939C1088.38,-32.775 1086.03,-21.8299 1084.33,-13.8767"/>
<polygon fill="black" stroke="black" points="1087.73,-13.0404 1082.21,-3.99575 1080.89,-14.5072 1087.73,-13.0404"/>
</g>
<!-- p50 -->
<g id="node52" class="node"><title>p50</title>
<ellipse fill="black" stroke="black" cx="1107" cy="-2" rx="1.8" ry="1.8"/>
</g>
<!-- p47&#45;&gt;p50 -->
<g id="edge62" class="edge"><title>p47&#45;&gt;p50</title>
<path fill="none" stroke="black" d="M1097.97,-41.8939C1100.09,-32.775 1102.63,-21.8299 1104.48,-13.8767"/>
<polygon fill="black" stroke="black" points="1107.92,-14.5282 1106.77,-3.99575 1101.1,-12.9452 1107.92,-14.5282"/>
</g>
<!-- p49 -->
<g id="node53" class="node"><title>p49</title>
<ellipse fill="black" stroke="black" cx="1132" cy="-2" rx="1.8" ry="1.8"/>
</g>
<!-- p47&#45;&gt;p49 -->
<g id="edge63" class="edge"><title>p47&#45;&gt;p49</title>
<path fill="none" stroke="black" d="M1105.4,-42.1982C1111.98,-32.5008 1120.02,-20.6579 1125.52,-12.5438"/>
<polygon fill="black" stroke="black" points="1128.6,-14.2478 1131.32,-4.00774 1122.8,-10.3172 1128.6,-14.2478"/>
</g>
<!-- p48 -->
<g id="node54" class="node"><title>p48</title>
<ellipse fill="black" stroke="black" cx="1157" cy="-2" rx="1.8" ry="1.8"/>
</g>
<!-- p47&#45;&gt;p48 -->
<g id="edge64" class="edge"><title>p47&#45;&gt;p48</title>
<path fill="none" stroke="black" d="M1112.22,-42.8025C1124.05,-32.288 1138.94,-19.0556 1148.21,-10.8107"/>
<polygon fill="black" stroke="black" points="1150.69,-13.2915 1155.84,-4.03191 1146.04,-8.05964 1150.69,-13.2915"/>
</g>
</g>
</svg>
