<?xml version="1.0" encoding="UTF-8" standalone="no"?>
<!DOCTYPE svg PUBLIC "-//W3C//DTD SVG 1.1//EN"
 "http://www.w3.org/Graphics/SVG/1.1/DTD/svg11.dtd">
<!-- Generated by graphviz version 2.30.1 (20201013.1554)
 -->
<!-- Title: 20220712rotavirusflagstatsworkflow Pages: 1 -->
<svg width="594pt" height="904pt"
 viewBox="0.00 0.00 593.60 904.00" xmlns="http://www.w3.org/2000/svg" xmlns:xlink="http://www.w3.org/1999/xlink">
<g id="graph0" class="graph" transform="scale(1 1) rotate(0) translate(4 900)">
<title>20220712rotavirusflagstatsworkflow</title>
<polygon fill="white" stroke="white" points="-4,5 -4,-900 590.6,-900 590.6,5 -4,5"/>
<!-- p0 -->
<g id="node1" class="node"><title>p0</title>
<ellipse fill="black" stroke="black" cx="87.6" cy="-818" rx="3.6" ry="3.6"/>
<text text-anchor="middle" x="42" y="-825.4" font-family="Times,serif" font-size="14.00">Channel.empty</text>
</g>
<!-- p4 -->
<g id="node2" class="node"><title>p4</title>
<ellipse fill="none" stroke="black" cx="87.6" cy="-744" rx="3.25" ry="3.5"/>
<text text-anchor="middle" x="73.1" y="-751.3" font-family="Times,serif" font-size="14.00">mix</text>
</g>
<!-- p0&#45;&gt;p4 -->
<g id="edge1" class="edge"><title>p0&#45;&gt;p4</title>
<path fill="none" stroke="black" d="M87.6,-814.265C87.6,-805.133 87.6,-775.282 87.6,-757.892"/>
<polygon fill="black" stroke="black" points="91.1001,-757.737 87.6,-747.737 84.1001,-757.737 91.1001,-757.737"/>
<text text-anchor="middle" x="117.1" y="-770.3" font-family="Times,serif" font-size="14.00">version_ch</text>
</g>
<!-- p8 -->
<g id="node7" class="node"><title>p8</title>
<ellipse fill="none" stroke="black" cx="172.6" cy="-610" rx="3.25" ry="3.5"/>
<text text-anchor="middle" x="158.1" y="-617.3" font-family="Times,serif" font-size="14.00">mix</text>
</g>
<!-- p4&#45;&gt;p8 -->
<g id="edge6" class="edge"><title>p4&#45;&gt;p8</title>
<path fill="none" stroke="black" d="M86.9865,-740.48C84.3644,-729.085 75.0951,-681.654 94.6,-652 109.628,-629.153 141.698,-618.222 159.684,-613.706"/>
<polygon fill="black" stroke="black" points="160.494,-617.111 169.504,-611.536 158.984,-610.276 160.494,-617.111"/>
<text text-anchor="middle" x="124.1" y="-666.3" font-family="Times,serif" font-size="14.00">version_ch</text>
</g>
<!-- p1 -->
<g id="node3" class="node"><title>p1</title>
<ellipse fill="black" stroke="black" cx="285.6" cy="-892" rx="3.6" ry="3.6"/>
</g>
<!-- p3 -->
<g id="node4" class="node"><title>p3</title>
<ellipse fill="none" stroke="black" cx="311.6" cy="-818" rx="198.324" ry="18"/>
<text text-anchor="middle" x="311.6" y="-814.3" font-family="Times,serif" font-size="14.00">BAM_FLAGSTATS_01:SAMTOOLS_SAMPLES02</text>
</g>
<!-- p1&#45;&gt;p3 -->
<g id="edge2" class="edge"><title>p1&#45;&gt;p3</title>
<path fill="none" stroke="black" d="M285.829,-888.231C286.408,-881.972 288.213,-866.317 292.6,-854 293.634,-851.098 294.883,-848.145 296.242,-845.248"/>
<polygon fill="black" stroke="black" points="299.377,-846.806 300.826,-836.311 293.148,-843.612 299.377,-846.806"/>
<text text-anchor="middle" x="306.6" y="-858.3" font-family="Times,serif" font-size="14.00">meta</text>
</g>
<!-- p5 -->
<g id="node6" class="node"><title>p5</title>
<ellipse fill="none" stroke="black" cx="321.6" cy="-744" rx="3.25" ry="3.5"/>
<text text-anchor="middle" x="295.6" y="-751.3" font-family="Times,serif" font-size="14.00">splitCsv</text>
</g>
<!-- p3&#45;&gt;p5 -->
<g id="edge4" class="edge"><title>p3&#45;&gt;p5</title>
<path fill="none" stroke="black" d="M313.97,-799.937C315.768,-786.989 318.201,-769.471 319.832,-757.731"/>
<polygon fill="black" stroke="black" points="323.309,-758.135 321.218,-747.748 316.376,-757.172 323.309,-758.135"/>
</g>
<!-- p3&#45;&gt;p4 -->
<g id="edge5" class="edge"><title>p3&#45;&gt;p4</title>
<path fill="none" stroke="black" d="M260.491,-800.572C208.286,-783.792 130.724,-758.861 100.403,-749.115"/>
<polygon fill="black" stroke="black" points="101.341,-745.74 90.7498,-746.012 99.199,-752.405 101.341,-745.74"/>
</g>
<!-- p2 -->
<g id="node5" class="node"><title>p2</title>
<ellipse fill="black" stroke="black" cx="336.6" cy="-892" rx="3.6" ry="3.6"/>
</g>
<!-- p2&#45;&gt;p3 -->
<g id="edge3" class="edge"><title>p2&#45;&gt;p3</title>
<path fill="none" stroke="black" d="M335.65,-888.265C333.228,-881.288 326.607,-862.219 320.924,-845.852"/>
<polygon fill="black" stroke="black" points="324.139,-844.442 317.552,-836.143 317.526,-846.738 324.139,-844.442"/>
<text text-anchor="middle" x="340.1" y="-858.3" font-family="Times,serif" font-size="14.00">row</text>
</g>
<!-- p7 -->
<g id="node8" class="node"><title>p7</title>
<ellipse fill="none" stroke="black" cx="374.6" cy="-670" rx="211.322" ry="18"/>
<text text-anchor="middle" x="374.6" y="-666.3" font-family="Times,serif" font-size="14.00">BAM_FLAGSTATS_01:SAMTOOLS_FLAGSTATS_01</text>
</g>
<!-- p5&#45;&gt;p7 -->
<g id="edge7" class="edge"><title>p5&#45;&gt;p7</title>
<path fill="none" stroke="black" d="M323.363,-740.604C328.411,-733.747 343.352,-713.449 355.807,-696.531"/>
<polygon fill="black" stroke="black" points="358.918,-698.208 362.027,-688.08 353.28,-694.059 358.918,-698.208"/>
</g>
<!-- p13 -->
<g id="node11" class="node"><title>p13</title>
<ellipse fill="none" stroke="black" cx="183.6" cy="-430" rx="3.25" ry="3.5"/>
<text text-anchor="middle" x="169.1" y="-437.3" font-family="Times,serif" font-size="14.00">mix</text>
</g>
<!-- p8&#45;&gt;p13 -->
<g id="edge11" class="edge"><title>p8&#45;&gt;p13</title>
<path fill="none" stroke="black" d="M172.755,-606.484C173.853,-588.72 180.459,-481.83 182.788,-444.142"/>
<polygon fill="black" stroke="black" points="186.311,-443.878 183.434,-433.681 179.324,-443.446 186.311,-443.878"/>
<text text-anchor="middle" x="208.1" y="-530.3" font-family="Times,serif" font-size="14.00">version_ch</text>
</g>
<!-- p9 -->
<g id="node10" class="node"><title>p9</title>
<ellipse fill="none" stroke="black" cx="374.6" cy="-610" rx="3.25" ry="3.5"/>
<text text-anchor="middle" x="358.6" y="-617.3" font-family="Times,serif" font-size="14.00">map</text>
</g>
<!-- p7&#45;&gt;p9 -->
<g id="edge9" class="edge"><title>p7&#45;&gt;p9</title>
<path fill="none" stroke="black" d="M374.6,-651.912C374.6,-642.965 374.6,-632.187 374.6,-623.94"/>
<polygon fill="black" stroke="black" points="378.1,-623.691 374.6,-613.691 371.1,-623.691 378.1,-623.691"/>
</g>
<!-- p7&#45;&gt;p8 -->
<g id="edge10" class="edge"><title>p7&#45;&gt;p8</title>
<path fill="none" stroke="black" d="M317.525,-652.612C271.806,-639.485 211.174,-622.076 185.239,-614.629"/>
<polygon fill="black" stroke="black" points="186.09,-611.232 175.513,-611.836 184.158,-617.96 186.09,-611.232"/>
</g>
<!-- p6 -->
<g id="node9" class="node"><title>p6</title>
<ellipse fill="black" stroke="black" cx="374.6" cy="-744" rx="3.6" ry="3.6"/>
</g>
<!-- p6&#45;&gt;p7 -->
<g id="edge8" class="edge"><title>p6&#45;&gt;p7</title>
<path fill="none" stroke="black" d="M374.6,-740.265C374.6,-733.354 374.6,-714.578 374.6,-698.316"/>
<polygon fill="black" stroke="black" points="378.1,-698.143 374.6,-688.143 371.1,-698.143 378.1,-698.143"/>
<text text-anchor="middle" x="388.6" y="-710.3" font-family="Times,serif" font-size="14.00">meta</text>
</g>
<!-- p10 -->
<g id="node12" class="node"><title>p10</title>
<ellipse fill="none" stroke="black" cx="374.6" cy="-564" rx="3.25" ry="3.5"/>
<text text-anchor="middle" x="352.6" y="-571.3" font-family="Times,serif" font-size="14.00">collect</text>
</g>
<!-- p9&#45;&gt;p10 -->
<g id="edge12" class="edge"><title>p9&#45;&gt;p10</title>
<path fill="none" stroke="black" d="M374.6,-606.379C374.6,-600.864 374.6,-587.742 374.6,-577.742"/>
<polygon fill="black" stroke="black" points="378.1,-577.552 374.6,-567.552 371.1,-577.552 378.1,-577.552"/>
</g>
<!-- p18 -->
<g id="node16" class="node"><title>p18</title>
<ellipse fill="none" stroke="black" cx="239.6" cy="-282" rx="3.25" ry="3.5"/>
<text text-anchor="middle" x="225.1" y="-289.3" font-family="Times,serif" font-size="14.00">mix</text>
</g>
<!-- p13&#45;&gt;p18 -->
<g id="edge17" class="edge"><title>p13&#45;&gt;p18</title>
<path fill="none" stroke="black" d="M183.303,-426.327C182.162,-415.046 178.783,-370.423 192.6,-338 200.826,-318.697 218.332,-301.165 229.502,-291.313"/>
<polygon fill="black" stroke="black" points="231.88,-293.887 237.295,-284.781 227.383,-288.522 231.88,-293.887"/>
<text text-anchor="middle" x="222.1" y="-352.3" font-family="Times,serif" font-size="14.00">version_ch</text>
</g>
<!-- p12 -->
<g id="node13" class="node"><title>p12</title>
<ellipse fill="none" stroke="black" cx="390.6" cy="-490" rx="190.15" ry="18"/>
<text text-anchor="middle" x="390.6" y="-486.3" font-family="Times,serif" font-size="14.00">BAM_FLAGSTATS_01:COLLECT_TO_FILE_01</text>
</g>
<!-- p10&#45;&gt;p12 -->
<g id="edge13" class="edge"><title>p10&#45;&gt;p12</title>
<path fill="none" stroke="black" d="M375.208,-560.265C376.744,-553.354 380.916,-534.578 384.53,-518.316"/>
<polygon fill="black" stroke="black" points="388.038,-518.664 386.79,-508.143 381.204,-517.145 388.038,-518.664"/>
</g>
<!-- p14 -->
<g id="node15" class="node"><title>p14</title>
<ellipse fill="none" stroke="black" cx="390.6" cy="-430" rx="3.25" ry="3.5"/>
<text text-anchor="middle" x="374.6" y="-437.3" font-family="Times,serif" font-size="14.00">map</text>
</g>
<!-- p12&#45;&gt;p14 -->
<g id="edge15" class="edge"><title>p12&#45;&gt;p14</title>
<path fill="none" stroke="black" d="M390.6,-471.912C390.6,-462.965 390.6,-452.187 390.6,-443.94"/>
<polygon fill="black" stroke="black" points="394.1,-443.691 390.6,-433.691 387.1,-443.691 394.1,-443.691"/>
</g>
<!-- p12&#45;&gt;p13 -->
<g id="edge16" class="edge"><title>p12&#45;&gt;p13</title>
<path fill="none" stroke="black" d="M332.939,-472.844C285.847,-459.649 222.888,-442.008 196.299,-434.558"/>
<polygon fill="black" stroke="black" points="197.185,-431.172 186.611,-431.844 195.296,-437.912 197.185,-431.172"/>
</g>
<!-- p11 -->
<g id="node14" class="node"><title>p11</title>
<ellipse fill="black" stroke="black" cx="407.6" cy="-564" rx="3.6" ry="3.6"/>
</g>
<!-- p11&#45;&gt;p12 -->
<g id="edge14" class="edge"><title>p11&#45;&gt;p12</title>
<path fill="none" stroke="black" d="M406.954,-560.265C405.322,-553.354 400.889,-534.578 397.05,-518.316"/>
<polygon fill="black" stroke="black" points="400.352,-517.071 394.648,-508.143 393.539,-518.68 400.352,-517.071"/>
<text text-anchor="middle" x="416.6" y="-530.3" font-family="Times,serif" font-size="14.00">meta</text>
</g>
<!-- p16 -->
<g id="node17" class="node"><title>p16</title>
<ellipse fill="none" stroke="black" cx="412.6" cy="-356" rx="152.13" ry="18"/>
<text text-anchor="middle" x="412.6" y="-352.3" font-family="Times,serif" font-size="14.00">BAM_FLAGSTATS_01:MULTIQC_01</text>
</g>
<!-- p14&#45;&gt;p16 -->
<g id="edge18" class="edge"><title>p14&#45;&gt;p16</title>
<path fill="none" stroke="black" d="M391.436,-426.265C393.567,-419.288 399.394,-400.219 404.395,-383.852"/>
<polygon fill="black" stroke="black" points="407.787,-384.729 407.362,-374.143 401.092,-382.684 407.787,-384.729"/>
</g>
<!-- p19 -->
<g id="node20" class="node"><title>p19</title>
<ellipse fill="none" stroke="black" cx="239.6" cy="-222" rx="3.25" ry="3.5"/>
<text text-anchor="middle" x="217.6" y="-229.3" font-family="Times,serif" font-size="14.00">collect</text>
</g>
<!-- p18&#45;&gt;p19 -->
<g id="edge22" class="edge"><title>p18&#45;&gt;p19</title>
<path fill="none" stroke="black" d="M239.6,-278.203C239.6,-270.649 239.6,-249.48 239.6,-235.66"/>
<polygon fill="black" stroke="black" points="243.1,-235.636 239.6,-225.636 236.1,-235.636 243.1,-235.636"/>
<text text-anchor="middle" x="269.1" y="-248.3" font-family="Times,serif" font-size="14.00">version_ch</text>
</g>
<!-- p17 -->
<g id="node19" class="node"><title>p17</title>
<ellipse fill="black" stroke="black" cx="412.6" cy="-282" rx="1.8" ry="1.8"/>
</g>
<!-- p16&#45;&gt;p17 -->
<g id="edge20" class="edge"><title>p16&#45;&gt;p17</title>
<path fill="none" stroke="black" d="M412.6,-337.937C412.6,-324.37 412.6,-305.787 412.6,-294.089"/>
<polygon fill="black" stroke="black" points="416.1,-293.849 412.6,-283.849 409.1,-293.849 416.1,-293.849"/>
<text text-anchor="middle" x="445.6" y="-308.3" font-family="Times,serif" font-size="14.00">multiqc_zip</text>
</g>
<!-- p16&#45;&gt;p18 -->
<g id="edge21" class="edge"><title>p16&#45;&gt;p18</title>
<path fill="none" stroke="black" d="M372.91,-338.482C333.818,-322.212 276.473,-298.346 251.716,-288.042"/>
<polygon fill="black" stroke="black" points="252.98,-284.778 242.403,-284.167 250.29,-291.24 252.98,-284.778"/>
</g>
<!-- p15 -->
<g id="node18" class="node"><title>p15</title>
<ellipse fill="black" stroke="black" cx="423.6" cy="-430" rx="3.6" ry="3.6"/>
</g>
<!-- p15&#45;&gt;p16 -->
<g id="edge19" class="edge"><title>p15&#45;&gt;p16</title>
<path fill="none" stroke="black" d="M423.182,-426.265C422.126,-419.354 419.258,-400.578 416.773,-384.316"/>
<polygon fill="black" stroke="black" points="420.189,-383.5 415.219,-374.143 413.27,-384.557 420.189,-383.5"/>
<text text-anchor="middle" x="434.6" y="-396.3" font-family="Times,serif" font-size="14.00">meta</text>
</g>
<!-- p23 -->
<g id="node21" class="node"><title>p23</title>
<ellipse fill="none" stroke="black" cx="297.6" cy="-148" rx="172.352" ry="18"/>
<text text-anchor="middle" x="297.6" y="-144.3" font-family="Times,serif" font-size="14.00">BAM_FLAGSTATS_01:MERGE_VERSION</text>
</g>
<!-- p19&#45;&gt;p23 -->
<g id="edge23" class="edge"><title>p19&#45;&gt;p23</title>
<path fill="none" stroke="black" d="M241.32,-218.624C245.631,-212.694 257.29,-196.797 267.6,-184 270.255,-180.705 273.093,-177.278 275.925,-173.914"/>
<polygon fill="black" stroke="black" points="278.615,-176.154 282.434,-166.271 273.286,-171.615 278.615,-176.154"/>
</g>
<!-- p25 -->
<g id="node25" class="node"><title>p25</title>
<ellipse fill="none" stroke="black" cx="434.6" cy="-60" rx="94.338" ry="18"/>
<text text-anchor="middle" x="434.6" y="-56.3" font-family="Times,serif" font-size="14.00">VERSION_TO_HTML</text>
</g>
<!-- p23&#45;&gt;p25 -->
<g id="edge27" class="edge"><title>p23&#45;&gt;p25</title>
<path fill="none" stroke="black" d="M324.34,-130.214C345.883,-116.691 376.338,-97.5733 399.783,-82.8557"/>
<polygon fill="black" stroke="black" points="401.784,-85.7324 408.393,-77.4513 398.062,-79.8037 401.784,-85.7324"/>
</g>
<!-- p20 -->
<g id="node22" class="node"><title>p20</title>
<ellipse fill="black" stroke="black" cx="272.6" cy="-222" rx="3.6" ry="3.6"/>
</g>
<!-- p20&#45;&gt;p23 -->
<g id="edge24" class="edge"><title>p20&#45;&gt;p23</title>
<path fill="none" stroke="black" d="M272.153,-218.218C271.253,-211.931 269.63,-196.223 273.6,-184 274.624,-180.847 276.03,-177.72 277.651,-174.709"/>
<polygon fill="black" stroke="black" points="280.691,-176.449 282.997,-166.109 274.745,-172.754 280.691,-176.449"/>
<text text-anchor="middle" x="287.6" y="-188.3" font-family="Times,serif" font-size="14.00">meta</text>
</g>
<!-- p21 -->
<g id="node23" class="node"><title>p21</title>
<ellipse fill="black" stroke="black" cx="323.6" cy="-222" rx="3.6" ry="3.6"/>
</g>
<!-- p21&#45;&gt;p23 -->
<g id="edge25" class="edge"><title>p21&#45;&gt;p23</title>
<path fill="none" stroke="black" d="M322.613,-218.265C320.093,-211.288 313.207,-192.219 307.297,-175.852"/>
<polygon fill="black" stroke="black" points="310.479,-174.36 303.79,-166.143 303.895,-176.737 310.479,-174.36"/>
<text text-anchor="middle" x="332.1" y="-188.3" font-family="Times,serif" font-size="14.00">name</text>
</g>
<!-- p22 -->
<g id="node24" class="node"><title>p22</title>
<ellipse fill="black" stroke="black" cx="377.6" cy="-222" rx="3.6" ry="3.6"/>
</g>
<!-- p22&#45;&gt;p23 -->
<g id="edge26" class="edge"><title>p22&#45;&gt;p23</title>
<path fill="none" stroke="black" d="M376.245,-218.416C372.796,-212.009 363.135,-195.111 351.6,-184 347.006,-179.575 341.775,-175.383 336.42,-171.54"/>
<polygon fill="black" stroke="black" points="338.215,-168.528 327.977,-165.805 334.282,-174.319 338.215,-168.528"/>
<text text-anchor="middle" x="395.1" y="-188.3" font-family="Times,serif" font-size="14.00">description</text>
</g>
<!-- p26 -->
<g id="node27" class="node"><title>p26</title>
<ellipse fill="black" stroke="black" cx="434.6" cy="-2" rx="1.8" ry="1.8"/>
</g>
<!-- p25&#45;&gt;p26 -->
<g id="edge29" class="edge"><title>p25&#45;&gt;p26</title>
<path fill="none" stroke="black" d="M434.6,-41.8939C434.6,-32.8876 434.6,-22.0999 434.6,-14.1727"/>
<polygon fill="black" stroke="black" points="438.1,-13.9957 434.6,-3.99575 431.1,-13.9958 438.1,-13.9957"/>
</g>
<!-- p24 -->
<g id="node26" class="node"><title>p24</title>
<ellipse fill="black" stroke="black" cx="491.6" cy="-148" rx="3.6" ry="3.6"/>
</g>
<!-- p24&#45;&gt;p25 -->
<g id="edge28" class="edge"><title>p24&#45;&gt;p25</title>
<path fill="none" stroke="black" d="M489.956,-144.519C484.341,-136.047 465.491,-107.607 451.336,-86.2508"/>
<polygon fill="black" stroke="black" points="454.242,-84.2996 445.8,-77.8978 448.407,-88.1669 454.242,-84.2996"/>
<text text-anchor="middle" x="482.6" y="-100.3" font-family="Times,serif" font-size="14.00">meta</text>
</g>
</g>
</svg>
