<?xml version="1.0" encoding="UTF-8" standalone="no"?>
<!DOCTYPE svg PUBLIC "-//W3C//DTD SVG 1.1//EN"
 "http://www.w3.org/Graphics/SVG/1.1/DTD/svg11.dtd">
<!-- Generated by graphviz version 2.30.1 (20201013.1554)
 -->
<!-- Title: 20220711hs38mebettyCHAagasomalierworkflow Pages: 1 -->
<svg width="1345pt" height="855pt"
 viewBox="0.00 0.00 1345.00 854.60" xmlns="http://www.w3.org/2000/svg" xmlns:xlink="http://www.w3.org/1999/xlink">
<g id="graph0" class="graph" transform="scale(1 1) rotate(0) translate(4 850.6)">
<title>20220711hs38mebettyCHAagasomalierworkflow</title>
<polygon fill="white" stroke="white" points="-4,5 -4,-850.6 1342,-850.6 1342,5 -4,5"/>
<!-- p0 -->
<g id="node1" class="node"><title>p0</title>
<ellipse fill="black" stroke="black" cx="830" cy="-828" rx="3.6" ry="3.6"/>
<text text-anchor="middle" x="761.4" y="-835.4" font-family="Times,serif" font-size="14.00">Channel.fromPath</text>
</g>
<!-- p12 -->
<g id="node2" class="node"><title>p12</title>
<ellipse fill="none" stroke="black" cx="737" cy="-754" rx="240.218" ry="18"/>
<text text-anchor="middle" x="737" y="-750.3" font-family="Times,serif" font-size="14.00">SOMALIER_BAMS_01:SAMTOOLS_SAMPLES01</text>
</g>
<!-- p0&#45;&gt;p12 -->
<g id="edge1" class="edge"><title>p0&#45;&gt;p12</title>
<path fill="none" stroke="black" d="M829.031,-824.321C826.518,-817.7 819.195,-800.349 808,-790 802.658,-785.061 796.489,-780.669 790.064,-776.807"/>
<polygon fill="black" stroke="black" points="791.637,-773.677 781.197,-771.869 788.231,-779.793 791.637,-773.677"/>
<text text-anchor="middle" x="840.5" y="-794.3" font-family="Times,serif" font-size="14.00">bams</text>
</g>
<!-- p14 -->
<g id="node16" class="node"><title>p14</title>
<ellipse fill="none" stroke="black" cx="625" cy="-666" rx="3.25" ry="3.5"/>
<text text-anchor="middle" x="592" y="-673.3" font-family="Times,serif" font-size="14.00">splitCsv</text>
</g>
<!-- p12&#45;&gt;p14 -->
<g id="edge15" class="edge"><title>p12&#45;&gt;p14</title>
<path fill="none" stroke="black" d="M714.872,-736.009C690.785,-717.513 653.304,-688.733 635.316,-674.921"/>
<polygon fill="black" stroke="black" points="637.289,-672.024 627.226,-668.709 633.026,-677.576 637.289,-672.024"/>
</g>
<!-- p13 -->
<g id="node13" class="node"><title>p13</title>
<ellipse fill="none" stroke="black" cx="737" cy="-504" rx="3.25" ry="3.5"/>
<text text-anchor="middle" x="720" y="-511.3" font-family="Times,serif" font-size="14.00">mix</text>
</g>
<!-- p12&#45;&gt;p13 -->
<g id="edge16" class="edge"><title>p12&#45;&gt;p13</title>
<path fill="none" stroke="black" d="M737,-735.954C737,-689.148 737,-559.372 737,-517.911"/>
<polygon fill="black" stroke="black" points="740.5,-517.771 737,-507.771 733.5,-517.771 740.5,-517.771"/>
</g>
<!-- p1 -->
<g id="node3" class="node"><title>p1</title>
<ellipse fill="black" stroke="black" cx="999" cy="-754" rx="3.6" ry="3.6"/>
<text text-anchor="middle" x="1049.9" y="-761.4" font-family="Times,serif" font-size="14.00">Channel.empty</text>
</g>
<!-- p4 -->
<g id="node4" class="node"><title>p4</title>
<ellipse fill="none" stroke="black" cx="769" cy="-666" rx="3.25" ry="3.5"/>
<text text-anchor="middle" x="752" y="-673.3" font-family="Times,serif" font-size="14.00">mix</text>
</g>
<!-- p1&#45;&gt;p4 -->
<g id="edge2" class="edge"><title>p1&#45;&gt;p4</title>
<path fill="none" stroke="black" d="M997.719,-750.369C995.742,-746.591 991.582,-739.683 986,-736 907.54,-684.238 858.458,-737.251 781,-684 778.775,-682.47 776.826,-680.384 775.182,-678.198"/>
<polygon fill="black" stroke="black" points="778.091,-676.24 770.014,-669.384 772.053,-679.781 778.091,-676.24"/>
<text text-anchor="middle" x="986" y="-706.3" font-family="Times,serif" font-size="14.00">version_ch</text>
</g>
<!-- p9 -->
<g id="node8" class="node"><title>p9</title>
<ellipse fill="none" stroke="black" cx="770" cy="-578" rx="3.25" ry="3.5"/>
<text text-anchor="middle" x="753" y="-585.3" font-family="Times,serif" font-size="14.00">mix</text>
</g>
<!-- p4&#45;&gt;p9 -->
<g id="edge6" class="edge"><title>p4&#45;&gt;p9</title>
<path fill="none" stroke="black" d="M769.033,-662.139C769.16,-651.281 769.614,-612.206 769.852,-591.727"/>
<polygon fill="black" stroke="black" points="773.353,-591.655 769.97,-581.615 766.353,-591.573 773.353,-591.655"/>
<text text-anchor="middle" x="809" y="-618.3" font-family="Times,serif" font-size="14.00">version_ch</text>
</g>
<!-- p2 -->
<g id="node5" class="node"><title>p2</title>
<ellipse fill="black" stroke="black" cx="239" cy="-828" rx="3.6" ry="3.6"/>
</g>
<!-- p3 -->
<g id="node6" class="node"><title>p3</title>
<ellipse fill="none" stroke="black" cx="239" cy="-754" rx="239.268" ry="18"/>
<text text-anchor="middle" x="239" y="-750.3" font-family="Times,serif" font-size="14.00">SOMALIER_BAMS_01:DOWNLOAD_SOMALIER</text>
</g>
<!-- p2&#45;&gt;p3 -->
<g id="edge3" class="edge"><title>p2&#45;&gt;p3</title>
<path fill="none" stroke="black" d="M239,-824.265C239,-817.354 239,-798.578 239,-782.316"/>
<polygon fill="black" stroke="black" points="242.5,-782.143 239,-772.143 235.5,-782.143 242.5,-782.143"/>
<text text-anchor="middle" x="257.5" y="-794.3" font-family="Times,serif" font-size="14.00">meta</text>
</g>
<!-- p17 -->
<g id="node7" class="node"><title>p17</title>
<ellipse fill="none" stroke="black" cx="515" cy="-578" rx="193.524" ry="18"/>
<text text-anchor="middle" x="515" y="-574.3" font-family="Times,serif" font-size="14.00">SOMALIER_BAMS_01:EXTRACT_BAM</text>
</g>
<!-- p3&#45;&gt;p17 -->
<g id="edge4" class="edge"><title>p3&#45;&gt;p17</title>
<path fill="none" stroke="black" d="M265.967,-735.999C316.052,-704.424 423.42,-636.735 479.398,-601.445"/>
<polygon fill="black" stroke="black" points="481.331,-604.363 487.924,-596.07 477.598,-598.442 481.331,-604.363"/>
</g>
<!-- p3&#45;&gt;p4 -->
<g id="edge5" class="edge"><title>p3&#45;&gt;p4</title>
<path fill="none" stroke="black" d="M334.672,-737.476C467.449,-715.931 697.815,-678.551 755.572,-669.179"/>
<polygon fill="black" stroke="black" points="756.489,-672.576 765.799,-667.519 755.368,-665.666 756.489,-672.576"/>
</g>
<!-- p23 -->
<g id="node22" class="node"><title>p23</title>
<ellipse fill="none" stroke="black" cx="358" cy="-430" rx="217.121" ry="18"/>
<text text-anchor="middle" x="358" y="-426.3" font-family="Times,serif" font-size="14.00">SOMALIER_BAMS_01:RELATE_SOMALIER</text>
</g>
<!-- p3&#45;&gt;p23 -->
<g id="edge27" class="edge"><title>p3&#45;&gt;p23</title>
<path fill="none" stroke="black" d="M239.316,-735.868C239.609,-718.512 240,-690.891 240,-667 240,-667 240,-667 240,-503 240,-478.638 258.555,-462.276 280.949,-451.399"/>
<polygon fill="black" stroke="black" points="282.666,-454.466 290.385,-447.209 279.825,-448.069 282.666,-454.466"/>
<text text-anchor="middle" x="271" y="-574.3" font-family="Times,serif" font-size="14.00">somalier</text>
</g>
<!-- p19 -->
<g id="node20" class="node"><title>p19</title>
<ellipse fill="none" stroke="black" cx="333" cy="-504" rx="3.25" ry="3.5"/>
<text text-anchor="middle" x="305" y="-511.3" font-family="Times,serif" font-size="14.00">collect</text>
</g>
<!-- p17&#45;&gt;p19 -->
<g id="edge21" class="edge"><title>p17&#45;&gt;p19</title>
<path fill="none" stroke="black" d="M472.788,-560.301C431.451,-543.947 371.043,-520.05 345.327,-509.877"/>
<polygon fill="black" stroke="black" points="346.519,-506.584 335.933,-506.16 343.944,-513.093 346.519,-506.584"/>
</g>
<!-- p18 -->
<g id="node17" class="node"><title>p18</title>
<ellipse fill="none" stroke="black" cx="640" cy="-430" rx="3.25" ry="3.5"/>
<text text-anchor="middle" x="623" y="-437.3" font-family="Times,serif" font-size="14.00">mix</text>
</g>
<!-- p17&#45;&gt;p18 -->
<g id="edge22" class="edge"><title>p17&#45;&gt;p18</title>
<path fill="none" stroke="black" d="M529.584,-559.966C555.848,-529.29 610.324,-465.662 631.407,-441.037"/>
<polygon fill="black" stroke="black" points="634.214,-443.14 638.059,-433.268 628.896,-438.588 634.214,-443.14"/>
</g>
<!-- p9&#45;&gt;p13 -->
<g id="edge12" class="edge"><title>p9&#45;&gt;p13</title>
<path fill="none" stroke="black" d="M769.053,-574.633C766.112,-567.319 756.798,-544.453 748,-526 746.523,-522.903 744.842,-519.595 743.245,-516.543"/>
<polygon fill="black" stroke="black" points="746.163,-514.58 738.348,-507.427 739.997,-517.893 746.163,-514.58"/>
<text text-anchor="middle" x="794" y="-530.3" font-family="Times,serif" font-size="14.00">version_ch</text>
</g>
<!-- p5 -->
<g id="node9" class="node"><title>p5</title>
<ellipse fill="black" stroke="black" cx="1064" cy="-754" rx="3.6" ry="3.6"/>
</g>
<!-- p7 -->
<g id="node10" class="node"><title>p7</title>
<ellipse fill="none" stroke="black" cx="1064" cy="-666" rx="273.438" ry="18"/>
<text text-anchor="middle" x="1064" y="-662.3" font-family="Times,serif" font-size="14.00">SOMALIER_BAMS_01:SOMALIER_DOWNLOAD_SITES</text>
</g>
<!-- p5&#45;&gt;p7 -->
<g id="edge7" class="edge"><title>p5&#45;&gt;p7</title>
<path fill="none" stroke="black" d="M1064,-750.139C1064,-741.502 1064,-715.011 1064,-694.227"/>
<polygon fill="black" stroke="black" points="1067.5,-694.004 1064,-684.004 1060.5,-694.004 1067.5,-694.004"/>
<text text-anchor="middle" x="1082.5" y="-706.3" font-family="Times,serif" font-size="14.00">meta</text>
</g>
<!-- p7&#45;&gt;p17 -->
<g id="edge9" class="edge"><title>p7&#45;&gt;p17</title>
<path fill="none" stroke="black" d="M993.072,-648.614C968.344,-642.828 940.425,-636.214 915,-630 886.937,-623.141 880.442,-619.061 852,-614 793.954,-603.671 729.7,-596.065 672.999,-590.633"/>
<polygon fill="black" stroke="black" points="673.154,-587.132 662.87,-589.678 672.497,-594.101 673.154,-587.132"/>
</g>
<!-- p8 -->
<g id="node12" class="node"><title>p8</title>
<ellipse fill="black" stroke="black" cx="1064" cy="-578" rx="1.8" ry="1.8"/>
</g>
<!-- p7&#45;&gt;p8 -->
<g id="edge10" class="edge"><title>p7&#45;&gt;p8</title>
<path fill="none" stroke="black" d="M1064,-647.597C1064,-630.516 1064,-604.965 1064,-590.348"/>
<polygon fill="black" stroke="black" points="1067.5,-590.095 1064,-580.095 1060.5,-590.095 1067.5,-590.095"/>
</g>
<!-- p7&#45;&gt;p9 -->
<g id="edge11" class="edge"><title>p7&#45;&gt;p9</title>
<path fill="none" stroke="black" d="M1018.37,-648.152C989.06,-637.634 950.046,-624.203 915,-614 866.929,-600.004 808.765,-587.186 783.17,-581.749"/>
<polygon fill="black" stroke="black" points="783.698,-578.283 773.192,-579.655 782.26,-585.134 783.698,-578.283"/>
</g>
<!-- p6 -->
<g id="node11" class="node"><title>p6</title>
<ellipse fill="black" stroke="black" cx="1124" cy="-754" rx="3.6" ry="3.6"/>
</g>
<!-- p6&#45;&gt;p7 -->
<g id="edge8" class="edge"><title>p6&#45;&gt;p7</title>
<path fill="none" stroke="black" d="M1123.19,-750.019C1120.87,-741.803 1113.6,-718.361 1102,-702 1099.36,-698.278 1096.27,-694.653 1093.01,-691.233"/>
<polygon fill="black" stroke="black" points="1095.32,-688.596 1085.72,-684.118 1090.43,-693.607 1095.32,-688.596"/>
<text text-anchor="middle" x="1147" y="-706.3" font-family="Times,serif" font-size="14.00">reference</text>
</g>
<!-- p13&#45;&gt;p18 -->
<g id="edge17" class="edge"><title>p13&#45;&gt;p18</title>
<path fill="none" stroke="black" d="M734.602,-501.22C723.017,-492.621 672.494,-455.119 650.403,-438.722"/>
<polygon fill="black" stroke="black" points="652.43,-435.867 642.314,-432.718 648.258,-441.488 652.43,-435.867"/>
<text text-anchor="middle" x="748" y="-470.3" font-family="Times,serif" font-size="14.00">version_ch</text>
</g>
<!-- p10 -->
<g id="node14" class="node"><title>p10</title>
<ellipse fill="black" stroke="black" cx="677" cy="-828" rx="3.6" ry="3.6"/>
</g>
<!-- p10&#45;&gt;p12 -->
<g id="edge13" class="edge"><title>p10&#45;&gt;p12</title>
<path fill="none" stroke="black" d="M677.902,-824.47C680.222,-818.189 686.86,-801.553 696,-790 699.034,-786.165 702.537,-782.437 706.192,-778.933"/>
<polygon fill="black" stroke="black" points="708.707,-781.379 713.805,-772.091 704.028,-776.172 708.707,-781.379"/>
<text text-anchor="middle" x="714.5" y="-794.3" font-family="Times,serif" font-size="14.00">meta</text>
</g>
<!-- p11 -->
<g id="node15" class="node"><title>p11</title>
<ellipse fill="black" stroke="black" cx="737" cy="-828" rx="3.6" ry="3.6"/>
</g>
<!-- p11&#45;&gt;p12 -->
<g id="edge14" class="edge"><title>p11&#45;&gt;p12</title>
<path fill="none" stroke="black" d="M737,-824.265C737,-817.354 737,-798.578 737,-782.316"/>
<polygon fill="black" stroke="black" points="740.5,-782.143 737,-772.143 733.5,-782.143 740.5,-782.143"/>
<text text-anchor="middle" x="772" y="-794.3" font-family="Times,serif" font-size="14.00">reference</text>
</g>
<!-- p14&#45;&gt;p17 -->
<g id="edge18" class="edge"><title>p14&#45;&gt;p17</title>
<path fill="none" stroke="black" d="M623.852,-662.297C620.212,-654.014 608.15,-628.657 591,-614 584.944,-608.824 577.994,-604.259 570.812,-600.282"/>
<polygon fill="black" stroke="black" points="572.133,-597.025 561.64,-595.556 568.926,-603.247 572.133,-597.025"/>
<text text-anchor="middle" x="618.5" y="-618.3" font-family="Times,serif" font-size="14.00">ch2</text>
</g>
<!-- p24 -->
<g id="node21" class="node"><title>p24</title>
<ellipse fill="none" stroke="black" cx="640" cy="-356" rx="3.25" ry="3.5"/>
<text text-anchor="middle" x="623" y="-363.3" font-family="Times,serif" font-size="14.00">mix</text>
</g>
<!-- p18&#45;&gt;p24 -->
<g id="edge23" class="edge"><title>p18&#45;&gt;p24</title>
<path fill="none" stroke="black" d="M640,-426.265C640,-417.133 640,-387.282 640,-369.892"/>
<polygon fill="black" stroke="black" points="643.5,-369.737 640,-359.737 636.5,-369.737 643.5,-369.737"/>
<text text-anchor="middle" x="679" y="-382.3" font-family="Times,serif" font-size="14.00">version_ch</text>
</g>
<!-- p15 -->
<g id="node18" class="node"><title>p15</title>
<ellipse fill="black" stroke="black" cx="457" cy="-666" rx="3.6" ry="3.6"/>
</g>
<!-- p15&#45;&gt;p17 -->
<g id="edge19" class="edge"><title>p15&#45;&gt;p17</title>
<path fill="none" stroke="black" d="M457.506,-661.999C459.008,-653.731 464.043,-630.167 475,-614 477.574,-610.202 480.657,-606.559 483.954,-603.155"/>
<polygon fill="black" stroke="black" points="486.539,-605.528 491.399,-596.114 481.729,-600.442 486.539,-605.528"/>
<text text-anchor="middle" x="493.5" y="-618.3" font-family="Times,serif" font-size="14.00">meta</text>
</g>
<!-- p16 -->
<g id="node19" class="node"><title>p16</title>
<ellipse fill="black" stroke="black" cx="517" cy="-666" rx="3.6" ry="3.6"/>
</g>
<!-- p16&#45;&gt;p17 -->
<g id="edge20" class="edge"><title>p16&#45;&gt;p17</title>
<path fill="none" stroke="black" d="M516.933,-662.139C516.733,-653.502 516.117,-627.011 515.633,-606.227"/>
<polygon fill="black" stroke="black" points="519.127,-605.92 515.395,-596.004 512.129,-606.082 519.127,-605.92"/>
<text text-anchor="middle" x="552" y="-618.3" font-family="Times,serif" font-size="14.00">reference</text>
</g>
<!-- p19&#45;&gt;p23 -->
<g id="edge24" class="edge"><title>p19&#45;&gt;p23</title>
<path fill="none" stroke="black" d="M333.832,-500.604C336.147,-493.936 342.876,-474.557 348.648,-457.935"/>
<polygon fill="black" stroke="black" points="352.096,-458.675 352.069,-448.08 345.483,-456.379 352.096,-458.675"/>
</g>
<!-- p25 -->
<g id="node27" class="node"><title>p25</title>
<ellipse fill="none" stroke="black" cx="645" cy="-296" rx="3.25" ry="3.5"/>
<text text-anchor="middle" x="617" y="-303.3" font-family="Times,serif" font-size="14.00">collect</text>
</g>
<!-- p24&#45;&gt;p25 -->
<g id="edge31" class="edge"><title>p24&#45;&gt;p25</title>
<path fill="none" stroke="black" d="M640.241,-352.203C640.892,-344.649 642.717,-323.48 643.909,-309.66"/>
<polygon fill="black" stroke="black" points="647.401,-309.899 644.773,-299.636 640.427,-309.298 647.401,-309.899"/>
<text text-anchor="middle" x="683" y="-322.3" font-family="Times,serif" font-size="14.00">version_ch</text>
</g>
<!-- p32 -->
<g id="node26" class="node"><title>p32</title>
<ellipse fill="none" stroke="black" cx="534" cy="-60" rx="56.3173" ry="18"/>
<text text-anchor="middle" x="534" y="-56.3" font-family="Times,serif" font-size="14.00">PUBLISH</text>
</g>
<!-- p23&#45;&gt;p32 -->
<g id="edge29" class="edge"><title>p23&#45;&gt;p32</title>
<path fill="none" stroke="black" d="M355.393,-411.879C353.403,-397.32 351,-375.838 351,-357 351,-357 351,-357 351,-133 351,-105.519 423.363,-84.1294 477.081,-72.0365"/>
<polygon fill="black" stroke="black" points="477.856,-75.4499 486.873,-69.8874 476.355,-68.6127 477.856,-75.4499"/>
<text text-anchor="middle" x="362" y="-262.3" font-family="Times,serif" font-size="14.00">zip</text>
</g>
<!-- p23&#45;&gt;p24 -->
<g id="edge30" class="edge"><title>p23&#45;&gt;p24</title>
<path fill="none" stroke="black" d="M421.638,-412.752C489.348,-395.464 591.531,-369.375 627.185,-360.272"/>
<polygon fill="black" stroke="black" points="628.3,-363.6 637.124,-357.734 626.569,-356.817 628.3,-363.6"/>
</g>
<!-- p20 -->
<g id="node23" class="node"><title>p20</title>
<ellipse fill="black" stroke="black" cx="358" cy="-504" rx="3.6" ry="3.6"/>
</g>
<!-- p20&#45;&gt;p23 -->
<g id="edge25" class="edge"><title>p20&#45;&gt;p23</title>
<path fill="none" stroke="black" d="M358,-500.265C358,-493.354 358,-474.578 358,-458.316"/>
<polygon fill="black" stroke="black" points="361.5,-458.143 358,-448.143 354.5,-458.143 361.5,-458.143"/>
<text text-anchor="middle" x="376.5" y="-470.3" font-family="Times,serif" font-size="14.00">meta</text>
</g>
<!-- p21 -->
<g id="node24" class="node"><title>p21</title>
<ellipse fill="black" stroke="black" cx="418" cy="-504" rx="3.6" ry="3.6"/>
</g>
<!-- p21&#45;&gt;p23 -->
<g id="edge26" class="edge"><title>p21&#45;&gt;p23</title>
<path fill="none" stroke="black" d="M416.834,-500.506C413.872,-494.306 405.604,-477.841 396,-466 392.981,-462.278 389.566,-458.584 386.053,-455.07"/>
<polygon fill="black" stroke="black" points="388.452,-452.521 378.798,-448.156 383.623,-457.588 388.452,-452.521"/>
<text text-anchor="middle" x="442" y="-470.3" font-family="Times,serif" font-size="14.00">reference</text>
</g>
<!-- p22 -->
<g id="node25" class="node"><title>p22</title>
<ellipse fill="black" stroke="black" cx="511" cy="-504" rx="3.6" ry="3.6"/>
</g>
<!-- p22&#45;&gt;p23 -->
<g id="edge28" class="edge"><title>p22&#45;&gt;p23</title>
<path fill="none" stroke="black" d="M509.746,-500.585C506.188,-493.979 495.356,-475.475 481,-466 471.469,-459.71 460.803,-454.535 449.843,-450.28"/>
<polygon fill="black" stroke="black" points="450.751,-446.886 440.156,-446.773 448.368,-453.468 450.751,-446.886"/>
<text text-anchor="middle" x="529" y="-470.3" font-family="Times,serif" font-size="14.00">pedigree</text>
</g>
<!-- p35 -->
<g id="node34" class="node"><title>p35</title>
<ellipse fill="black" stroke="black" cx="509" cy="-2" rx="1.8" ry="1.8"/>
</g>
<!-- p32&#45;&gt;p35 -->
<g id="edge40" class="edge"><title>p32&#45;&gt;p35</title>
<path fill="none" stroke="black" d="M526.363,-41.8939C522.192,-32.5499 517.164,-21.2883 513.595,-13.2932"/>
<polygon fill="black" stroke="black" points="516.717,-11.7003 509.445,-3.99575 510.325,-14.5539 516.717,-11.7003"/>
</g>
<!-- p34 -->
<g id="node35" class="node"><title>p34</title>
<ellipse fill="black" stroke="black" cx="534" cy="-2" rx="1.8" ry="1.8"/>
</g>
<!-- p32&#45;&gt;p34 -->
<g id="edge41" class="edge"><title>p32&#45;&gt;p34</title>
<path fill="none" stroke="black" d="M534,-41.8939C534,-32.8876 534,-22.0999 534,-14.1727"/>
<polygon fill="black" stroke="black" points="537.5,-13.9957 534,-3.99575 530.5,-13.9958 537.5,-13.9957"/>
</g>
<!-- p33 -->
<g id="node36" class="node"><title>p33</title>
<ellipse fill="black" stroke="black" cx="559" cy="-2" rx="1.8" ry="1.8"/>
</g>
<!-- p32&#45;&gt;p33 -->
<g id="edge42" class="edge"><title>p32&#45;&gt;p33</title>
<path fill="none" stroke="black" d="M541.637,-41.8939C545.808,-32.5499 550.836,-21.2883 554.405,-13.2932"/>
<polygon fill="black" stroke="black" points="557.675,-14.5539 558.555,-3.99575 551.283,-11.7003 557.675,-14.5539"/>
</g>
<!-- p29 -->
<g id="node28" class="node"><title>p29</title>
<ellipse fill="none" stroke="black" cx="586" cy="-222" rx="206.998" ry="18"/>
<text text-anchor="middle" x="586" y="-218.3" font-family="Times,serif" font-size="14.00">SOMALIER_BAMS_01:MERGE_VERSION</text>
</g>
<!-- p25&#45;&gt;p29 -->
<g id="edge32" class="edge"><title>p25&#45;&gt;p29</title>
<path fill="none" stroke="black" d="M647.598,-293.709C652.83,-290.942 664.516,-283.882 669,-274 671.938,-267.524 672.932,-263.925 669,-258 665.676,-252.991 661.48,-248.698 656.747,-245.017"/>
<polygon fill="black" stroke="black" points="658.592,-242.041 648.336,-239.385 654.697,-247.857 658.592,-242.041"/>
</g>
<!-- p31 -->
<g id="node32" class="node"><title>p31</title>
<ellipse fill="none" stroke="black" cx="717" cy="-134" rx="111.186" ry="18"/>
<text text-anchor="middle" x="717" y="-130.3" font-family="Times,serif" font-size="14.00">VERSION_TO_HTML</text>
</g>
<!-- p29&#45;&gt;p31 -->
<g id="edge36" class="edge"><title>p29&#45;&gt;p31</title>
<path fill="none" stroke="black" d="M611.881,-204.009C632.288,-190.613 660.912,-171.821 683.139,-157.229"/>
<polygon fill="black" stroke="black" points="685.179,-160.077 691.618,-151.663 681.338,-154.225 685.179,-160.077"/>
</g>
<!-- p29&#45;&gt;p32 -->
<g id="edge39" class="edge"><title>p29&#45;&gt;p32</title>
<path fill="none" stroke="black" d="M572.269,-203.984C562.334,-190.669 549.547,-171.242 543,-152 535.99,-131.395 533.907,-106.762 533.484,-88.3236"/>
<polygon fill="black" stroke="black" points="536.984,-88.2319 533.402,-78.2607 529.984,-88.2888 536.984,-88.2319"/>
<text text-anchor="middle" x="569.5" y="-130.3" font-family="Times,serif" font-size="14.00">version</text>
</g>
<!-- p26 -->
<g id="node29" class="node"><title>p26</title>
<ellipse fill="black" stroke="black" cx="463" cy="-296" rx="3.6" ry="3.6"/>
</g>
<!-- p26&#45;&gt;p29 -->
<g id="edge33" class="edge"><title>p26&#45;&gt;p29</title>
<path fill="none" stroke="black" d="M464.44,-292.257C468.124,-285.487 478.559,-267.826 492,-258 499.721,-252.356 508.456,-247.523 517.414,-243.412"/>
<polygon fill="black" stroke="black" points="518.987,-246.546 526.797,-239.386 516.227,-240.113 518.987,-246.546"/>
<text text-anchor="middle" x="510.5" y="-262.3" font-family="Times,serif" font-size="14.00">meta</text>
</g>
<!-- p27 -->
<g id="node30" class="node"><title>p27</title>
<ellipse fill="black" stroke="black" cx="523" cy="-296" rx="3.6" ry="3.6"/>
</g>
<!-- p27&#45;&gt;p29 -->
<g id="edge34" class="edge"><title>p27&#45;&gt;p29</title>
<path fill="none" stroke="black" d="M523.877,-292.451C526.141,-286.124 532.662,-269.393 542,-258 545.243,-254.044 549.002,-250.241 552.93,-246.694"/>
<polygon fill="black" stroke="black" points="555.219,-249.342 560.6,-240.215 550.702,-243.994 555.219,-249.342"/>
<text text-anchor="middle" x="562" y="-262.3" font-family="Times,serif" font-size="14.00">name</text>
</g>
<!-- p28 -->
<g id="node31" class="node"><title>p28</title>
<ellipse fill="black" stroke="black" cx="586" cy="-296" rx="3.6" ry="3.6"/>
</g>
<!-- p28&#45;&gt;p29 -->
<g id="edge35" class="edge"><title>p28&#45;&gt;p29</title>
<path fill="none" stroke="black" d="M586,-292.265C586,-285.354 586,-266.578 586,-250.316"/>
<polygon fill="black" stroke="black" points="589.5,-250.143 586,-240.143 582.5,-250.143 589.5,-250.143"/>
<text text-anchor="middle" x="627" y="-262.3" font-family="Times,serif" font-size="14.00">description</text>
</g>
<!-- p31&#45;&gt;p32 -->
<g id="edge38" class="edge"><title>p31&#45;&gt;p32</title>
<path fill="none" stroke="black" d="M676.84,-117.199C647.504,-105.657 607.758,-90.0196 577.64,-78.1699"/>
<polygon fill="black" stroke="black" points="578.813,-74.8701 568.225,-74.4658 576.25,-81.3841 578.813,-74.8701"/>
</g>
<!-- p30 -->
<g id="node33" class="node"><title>p30</title>
<ellipse fill="black" stroke="black" cx="815" cy="-222" rx="3.6" ry="3.6"/>
</g>
<!-- p30&#45;&gt;p31 -->
<g id="edge37" class="edge"><title>p30&#45;&gt;p31</title>
<path fill="none" stroke="black" d="M813.32,-218.431C810.992,-214.967 806.556,-208.691 802,-204 785.76,-187.282 765.575,-170.748 748.951,-158.058"/>
<polygon fill="black" stroke="black" points="750.717,-155.007 740.622,-151.792 746.509,-160.6 750.717,-155.007"/>
<text text-anchor="middle" x="801.5" y="-174.3" font-family="Times,serif" font-size="14.00">meta</text>
</g>
</g>
</svg>
