<?xml version="1.0" encoding="UTF-8" standalone="no"?>
<!DOCTYPE svg PUBLIC "-//W3C//DTD SVG 1.1//EN"
 "http://www.w3.org/Graphics/SVG/1.1/DTD/svg11.dtd">
<!-- Generated by graphviz version 2.30.1 (20201013.1554)
 -->
<!-- Title: 20220712rotavirusremapworkflow Pages: 1 -->
<svg width="944pt" height="752pt"
 viewBox="0.00 0.00 943.60 752.00" xmlns="http://www.w3.org/2000/svg" xmlns:xlink="http://www.w3.org/1999/xlink">
<g id="graph0" class="graph" transform="scale(1 1) rotate(0) translate(4 748)">
<title>20220712rotavirusremapworkflow</title>
<polygon fill="white" stroke="white" points="-4,5 -4,-748 940.6,-748 940.6,5 -4,5"/>
<!-- p0 -->
<g id="node1" class="node"><title>p0</title>
<ellipse fill="black" stroke="black" cx="112.6" cy="-666" rx="3.6" ry="3.6"/>
<text text-anchor="middle" x="54.5" y="-673.4" font-family="Times,serif" font-size="14.00">Channel.empty</text>
</g>
<!-- p5 -->
<g id="node2" class="node"><title>p5</title>
<ellipse fill="none" stroke="black" cx="112.6" cy="-592" rx="3.25" ry="3.5"/>
<text text-anchor="middle" x="95.6" y="-599.3" font-family="Times,serif" font-size="14.00">mix</text>
</g>
<!-- p0&#45;&gt;p5 -->
<g id="edge1" class="edge"><title>p0&#45;&gt;p5</title>
<path fill="none" stroke="black" d="M112.6,-662.265C112.6,-653.133 112.6,-623.282 112.6,-605.892"/>
<polygon fill="black" stroke="black" points="116.1,-605.737 112.6,-595.737 109.1,-605.737 116.1,-605.737"/>
<text text-anchor="middle" x="151.6" y="-618.3" font-family="Times,serif" font-size="14.00">version_ch</text>
</g>
<!-- p10 -->
<g id="node8" class="node"><title>p10</title>
<ellipse fill="none" stroke="black" cx="448.6" cy="-430" rx="3.25" ry="3.5"/>
<text text-anchor="middle" x="431.6" y="-437.3" font-family="Times,serif" font-size="14.00">mix</text>
</g>
<!-- p5&#45;&gt;p10 -->
<g id="edge7" class="edge"><title>p5&#45;&gt;p10</title>
<path fill="none" stroke="black" d="M111.083,-588.695C103.903,-577.472 74.6121,-527.947 97.6,-500 141.614,-446.492 375.543,-433.841 434.899,-431.474"/>
<polygon fill="black" stroke="black" points="435.346,-434.96 445.213,-431.1 435.093,-427.965 435.346,-434.96"/>
<text text-anchor="middle" x="136.6" y="-514.3" font-family="Times,serif" font-size="14.00">version_ch</text>
</g>
<!-- p1 -->
<g id="node3" class="node"><title>p1</title>
<ellipse fill="black" stroke="black" cx="343.6" cy="-740" rx="3.6" ry="3.6"/>
</g>
<!-- p4 -->
<g id="node4" class="node"><title>p4</title>
<ellipse fill="none" stroke="black" cx="403.6" cy="-666" rx="245.042" ry="18"/>
<text text-anchor="middle" x="403.6" y="-662.3" font-family="Times,serif" font-size="14.00">MOSDEPTH_BAMS_01:SAMTOOLS_SAMPLES01</text>
</g>
<!-- p1&#45;&gt;p4 -->
<g id="edge2" class="edge"><title>p1&#45;&gt;p4</title>
<path fill="none" stroke="black" d="M344.502,-736.47C346.822,-730.189 353.46,-713.553 362.6,-702 365.634,-698.165 369.137,-694.437 372.792,-690.933"/>
<polygon fill="black" stroke="black" points="375.307,-693.379 380.405,-684.091 370.628,-688.172 375.307,-693.379"/>
<text text-anchor="middle" x="381.1" y="-706.3" font-family="Times,serif" font-size="14.00">meta</text>
</g>
<!-- p6 -->
<g id="node7" class="node"><title>p6</title>
<ellipse fill="none" stroke="black" cx="546.6" cy="-592" rx="3.25" ry="3.5"/>
<text text-anchor="middle" x="513.6" y="-599.3" font-family="Times,serif" font-size="14.00">splitCsv</text>
</g>
<!-- p4&#45;&gt;p6 -->
<g id="edge5" class="edge"><title>p4&#45;&gt;p6</title>
<path fill="none" stroke="black" d="M437.127,-648.119C468.61,-632.268 513.931,-609.449 535.007,-598.837"/>
<polygon fill="black" stroke="black" points="536.622,-601.943 543.979,-594.319 533.474,-595.69 536.622,-601.943"/>
</g>
<!-- p4&#45;&gt;p5 -->
<g id="edge6" class="edge"><title>p4&#45;&gt;p5</title>
<path fill="none" stroke="black" d="M337.568,-648.662C267.366,-631.293 161.561,-605.114 125.31,-596.145"/>
<polygon fill="black" stroke="black" points="126.108,-592.737 115.56,-593.732 124.427,-599.532 126.108,-592.737"/>
</g>
<!-- p2 -->
<g id="node5" class="node"><title>p2</title>
<ellipse fill="black" stroke="black" cx="403.6" cy="-740" rx="3.6" ry="3.6"/>
</g>
<!-- p2&#45;&gt;p4 -->
<g id="edge3" class="edge"><title>p2&#45;&gt;p4</title>
<path fill="none" stroke="black" d="M403.6,-736.265C403.6,-729.354 403.6,-710.578 403.6,-694.316"/>
<polygon fill="black" stroke="black" points="407.1,-694.143 403.6,-684.143 400.1,-694.143 407.1,-694.143"/>
<text text-anchor="middle" x="438.6" y="-706.3" font-family="Times,serif" font-size="14.00">reference</text>
</g>
<!-- p3 -->
<g id="node6" class="node"><title>p3</title>
<ellipse fill="black" stroke="black" cx="496.6" cy="-740" rx="3.6" ry="3.6"/>
</g>
<!-- p3&#45;&gt;p4 -->
<g id="edge4" class="edge"><title>p3&#45;&gt;p4</title>
<path fill="none" stroke="black" d="M495.631,-736.321C493.118,-729.7 485.795,-712.349 474.6,-702 469.258,-697.061 463.089,-692.669 456.664,-688.807"/>
<polygon fill="black" stroke="black" points="458.237,-685.677 447.797,-683.869 454.831,-691.793 458.237,-685.677"/>
<text text-anchor="middle" x="507.1" y="-706.3" font-family="Times,serif" font-size="14.00">bams</text>
</g>
<!-- p7 -->
<g id="node9" class="node"><title>p7</title>
<ellipse fill="none" stroke="black" cx="735.6" cy="-518" rx="3.25" ry="3.5"/>
<text text-anchor="middle" x="747.6" y="-525.3" font-family="Times,serif" font-size="14.00">map</text>
</g>
<!-- p6&#45;&gt;p7 -->
<g id="edge8" class="edge"><title>p6&#45;&gt;p7</title>
<path fill="none" stroke="black" d="M549.811,-590.719C568.28,-588.968 662.267,-578.205 722.6,-536 724.963,-534.347 727.089,-532.133 728.903,-529.851"/>
<polygon fill="black" stroke="black" points="731.914,-531.641 734.423,-521.348 726.042,-527.83 731.914,-531.641"/>
</g>
<!-- p15 -->
<g id="node13" class="node"><title>p15</title>
<ellipse fill="none" stroke="black" cx="448.6" cy="-356" rx="3.25" ry="3.5"/>
<text text-anchor="middle" x="431.6" y="-363.3" font-family="Times,serif" font-size="14.00">mix</text>
</g>
<!-- p10&#45;&gt;p15 -->
<g id="edge13" class="edge"><title>p10&#45;&gt;p15</title>
<path fill="none" stroke="black" d="M448.6,-426.265C448.6,-417.133 448.6,-387.282 448.6,-369.892"/>
<polygon fill="black" stroke="black" points="452.1,-369.737 448.6,-359.737 445.1,-369.737 452.1,-369.737"/>
<text text-anchor="middle" x="487.6" y="-382.3" font-family="Times,serif" font-size="14.00">version_ch</text>
</g>
<!-- p12 -->
<g id="node10" class="node"><title>p12</title>
<ellipse fill="none" stroke="black" cx="710.6" cy="-430" rx="225.295" ry="18"/>
<text text-anchor="middle" x="710.6" y="-426.3" font-family="Times,serif" font-size="14.00">MOSDEPTH_BAMS_01:MOSDEPTH_RUN_01</text>
</g>
<!-- p7&#45;&gt;p12 -->
<g id="edge9" class="edge"><title>p7&#45;&gt;p12</title>
<path fill="none" stroke="black" d="M733.928,-514.913C728.879,-508.559 713.985,-489.437 711.6,-482 709.22,-474.579 708.358,-466.234 708.252,-458.476"/>
<polygon fill="black" stroke="black" points="711.753,-458.489 708.504,-448.404 704.755,-458.314 711.753,-458.489"/>
<text text-anchor="middle" x="725.1" y="-470.3" font-family="Times,serif" font-size="14.00">ch1</text>
</g>
<!-- p14 -->
<g id="node15" class="node"><title>p14</title>
<ellipse fill="black" stroke="black" cx="711.6" cy="-356" rx="1.8" ry="1.8"/>
</g>
<!-- p12&#45;&gt;p14 -->
<g id="edge15" class="edge"><title>p12&#45;&gt;p14</title>
<path fill="none" stroke="black" d="M710.837,-411.937C711.025,-398.37 711.284,-379.787 711.446,-368.089"/>
<polygon fill="black" stroke="black" points="714.949,-367.897 711.588,-357.849 707.95,-367.8 714.949,-367.897"/>
<text text-anchor="middle" x="747.1" y="-382.3" font-family="Times,serif" font-size="14.00">globaldist</text>
</g>
<!-- p23 -->
<g id="node16" class="node"><title>p23</title>
<ellipse fill="none" stroke="black" cx="622.6" cy="-326" rx="3.25" ry="3.5"/>
<text text-anchor="middle" x="603.6" y="-333.3" font-family="Times,serif" font-size="14.00">map</text>
</g>
<!-- p12&#45;&gt;p23 -->
<g id="edge16" class="edge"><title>p12&#45;&gt;p23</title>
<path fill="none" stroke="black" d="M663.326,-412.29C654.803,-407.491 646.702,-401.472 640.6,-394 627.885,-378.429 624.098,-354.682 623.003,-340.039"/>
<polygon fill="black" stroke="black" points="626.483,-339.494 622.574,-329.646 619.489,-339.782 626.483,-339.494"/>
<text text-anchor="middle" x="674.1" y="-382.3" font-family="Times,serif" font-size="14.00">summary</text>
</g>
<!-- p13 -->
<g id="node17" class="node"><title>p13</title>
<ellipse fill="black" stroke="black" cx="805.6" cy="-356" rx="1.8" ry="1.8"/>
</g>
<!-- p12&#45;&gt;p13 -->
<g id="edge17" class="edge"><title>p12&#45;&gt;p13</title>
<path fill="none" stroke="black" d="M756.046,-412.306C765.827,-407.379 775.613,-401.303 783.6,-394 791.707,-386.587 797.758,-375.487 801.441,-367.379"/>
<polygon fill="black" stroke="black" points="804.705,-368.642 805.234,-358.06 798.222,-366.003 804.705,-368.642"/>
<text text-anchor="middle" x="825.6" y="-382.3" font-family="Times,serif" font-size="14.00">perbase</text>
</g>
<!-- p12&#45;&gt;p15 -->
<g id="edge18" class="edge"><title>p12&#45;&gt;p15</title>
<path fill="none" stroke="black" d="M653.954,-412.552C618.558,-402.373 571.995,-389.163 530.6,-378 506.417,-371.479 478.088,-364.332 461.853,-360.284"/>
<polygon fill="black" stroke="black" points="462.284,-356.785 451.736,-357.773 460.598,-363.579 462.284,-356.785"/>
</g>
<!-- p8 -->
<g id="node11" class="node"><title>p8</title>
<ellipse fill="black" stroke="black" cx="449.6" cy="-592" rx="3.6" ry="3.6"/>
</g>
<!-- p9 -->
<g id="node12" class="node"><title>p9</title>
<ellipse fill="none" stroke="black" cx="449.6" cy="-518" rx="264.29" ry="18"/>
<text text-anchor="middle" x="449.6" y="-514.3" font-family="Times,serif" font-size="14.00">MOSDEPTH_BAMS_01:MOSDEPTH_DOWNLOAD_01</text>
</g>
<!-- p8&#45;&gt;p9 -->
<g id="edge10" class="edge"><title>p8&#45;&gt;p9</title>
<path fill="none" stroke="black" d="M449.6,-588.265C449.6,-581.354 449.6,-562.578 449.6,-546.316"/>
<polygon fill="black" stroke="black" points="453.1,-546.143 449.6,-536.143 446.1,-546.143 453.1,-546.143"/>
<text text-anchor="middle" x="468.1" y="-558.3" font-family="Times,serif" font-size="14.00">meta</text>
</g>
<!-- p9&#45;&gt;p12 -->
<g id="edge11" class="edge"><title>p9&#45;&gt;p12</title>
<path fill="none" stroke="black" d="M500.233,-500.316C543.185,-486.164 604.892,-465.831 650.373,-450.845"/>
<polygon fill="black" stroke="black" points="651.706,-454.091 660.108,-447.637 649.515,-447.443 651.706,-454.091"/>
</g>
<!-- p9&#45;&gt;p10 -->
<g id="edge12" class="edge"><title>p9&#45;&gt;p10</title>
<path fill="none" stroke="black" d="M449.398,-499.597C449.205,-483.046 448.92,-458.54 448.748,-443.737"/>
<polygon fill="black" stroke="black" points="452.247,-443.63 448.631,-433.671 445.248,-443.711 452.247,-443.63"/>
</g>
<!-- p16 -->
<g id="node18" class="node"><title>p16</title>
<ellipse fill="none" stroke="black" cx="435.6" cy="-296" rx="3.25" ry="3.5"/>
<text text-anchor="middle" x="407.6" y="-303.3" font-family="Times,serif" font-size="14.00">collect</text>
</g>
<!-- p15&#45;&gt;p16 -->
<g id="edge19" class="edge"><title>p15&#45;&gt;p16</title>
<path fill="none" stroke="black" d="M448.041,-352.508C446.419,-345.27 441.624,-323.875 438.482,-309.86"/>
<polygon fill="black" stroke="black" points="441.803,-308.674 436.201,-299.681 434.973,-310.205 441.803,-308.674"/>
<text text-anchor="middle" x="483.6" y="-322.3" font-family="Times,serif" font-size="14.00">version_ch</text>
</g>
<!-- p11 -->
<g id="node14" class="node"><title>p11</title>
<ellipse fill="black" stroke="black" cx="760.6" cy="-518" rx="3.6" ry="3.6"/>
</g>
<!-- p11&#45;&gt;p12 -->
<g id="edge14" class="edge"><title>p11&#45;&gt;p12</title>
<path fill="none" stroke="black" d="M759.659,-514.107C756.997,-506.115 748.929,-483.193 738.6,-466 736.641,-462.74 734.41,-459.449 732.081,-456.258"/>
<polygon fill="black" stroke="black" points="734.692,-453.911 725.811,-448.133 729.15,-458.188 734.692,-453.911"/>
<text text-anchor="middle" x="765.1" y="-470.3" font-family="Times,serif" font-size="14.00">meta</text>
</g>
<!-- p24 -->
<g id="node26" class="node"><title>p24</title>
<ellipse fill="none" stroke="black" cx="717.6" cy="-266" rx="3.25" ry="3.5"/>
<text text-anchor="middle" x="689.6" y="-273.3" font-family="Times,serif" font-size="14.00">collect</text>
</g>
<!-- p23&#45;&gt;p24 -->
<g id="edge27" class="edge"><title>p23&#45;&gt;p24</title>
<path fill="none" stroke="black" d="M624.948,-323.566C636.094,-316.761 684.04,-287.489 706.239,-273.936"/>
<polygon fill="black" stroke="black" points="708.274,-276.795 714.985,-268.597 704.626,-270.82 708.274,-276.795"/>
</g>
<!-- p20 -->
<g id="node19" class="node"><title>p20</title>
<ellipse fill="none" stroke="black" cx="468.6" cy="-222" rx="211.322" ry="18"/>
<text text-anchor="middle" x="468.6" y="-218.3" font-family="Times,serif" font-size="14.00">MOSDEPTH_BAMS_01:MERGE_VERSION</text>
</g>
<!-- p16&#45;&gt;p20 -->
<g id="edge20" class="edge"><title>p16&#45;&gt;p20</title>
<path fill="none" stroke="black" d="M436.698,-292.604C439.783,-285.873 448.805,-266.19 456.47,-249.465"/>
<polygon fill="black" stroke="black" points="459.787,-250.629 460.772,-240.08 453.423,-247.712 459.787,-250.629"/>
</g>
<!-- p22 -->
<g id="node23" class="node"><title>p22</title>
<ellipse fill="none" stroke="black" cx="632.6" cy="-134" rx="111.186" ry="18"/>
<text text-anchor="middle" x="632.6" y="-130.3" font-family="Times,serif" font-size="14.00">VERSION_TO_HTML</text>
</g>
<!-- p20&#45;&gt;p22 -->
<g id="edge24" class="edge"><title>p20&#45;&gt;p22</title>
<path fill="none" stroke="black" d="M501.001,-204.009C527.168,-190.288 564.128,-170.906 592.22,-156.175"/>
<polygon fill="black" stroke="black" points="594.148,-159.116 601.379,-151.372 590.897,-152.917 594.148,-159.116"/>
</g>
<!-- p25 -->
<g id="node25" class="node"><title>p25</title>
<ellipse fill="none" stroke="black" cx="632.6" cy="-60" rx="56.3173" ry="18"/>
<text text-anchor="middle" x="632.6" y="-56.3" font-family="Times,serif" font-size="14.00">PUBLISH</text>
</g>
<!-- p20&#45;&gt;p25 -->
<g id="edge29" class="edge"><title>p20&#45;&gt;p25</title>
<path fill="none" stroke="black" d="M460.542,-203.88C451.288,-181.425 439.661,-141.85 458.6,-116 483.179,-82.4526 528.302,-68.8481 566.437,-63.5549"/>
<polygon fill="black" stroke="black" points="566.973,-67.0156 576.474,-62.3267 566.123,-60.0674 566.973,-67.0156"/>
<text text-anchor="middle" x="485.1" y="-130.3" font-family="Times,serif" font-size="14.00">version</text>
</g>
<!-- p17 -->
<g id="node20" class="node"><title>p17</title>
<ellipse fill="black" stroke="black" cx="468.6" cy="-296" rx="3.6" ry="3.6"/>
</g>
<!-- p17&#45;&gt;p20 -->
<g id="edge21" class="edge"><title>p17&#45;&gt;p20</title>
<path fill="none" stroke="black" d="M468.6,-292.265C468.6,-285.354 468.6,-266.578 468.6,-250.316"/>
<polygon fill="black" stroke="black" points="472.1,-250.143 468.6,-240.143 465.1,-250.143 472.1,-250.143"/>
<text text-anchor="middle" x="487.1" y="-262.3" font-family="Times,serif" font-size="14.00">meta</text>
</g>
<!-- p18 -->
<g id="node21" class="node"><title>p18</title>
<ellipse fill="black" stroke="black" cx="528.6" cy="-296" rx="3.6" ry="3.6"/>
</g>
<!-- p18&#45;&gt;p20 -->
<g id="edge22" class="edge"><title>p18&#45;&gt;p20</title>
<path fill="none" stroke="black" d="M527.434,-292.506C524.472,-286.306 516.204,-269.841 506.6,-258 503.581,-254.278 500.166,-250.584 496.653,-247.07"/>
<polygon fill="black" stroke="black" points="499.052,-244.521 489.398,-240.156 494.223,-249.588 499.052,-244.521"/>
<text text-anchor="middle" x="537.6" y="-262.3" font-family="Times,serif" font-size="14.00">name</text>
</g>
<!-- p19 -->
<g id="node22" class="node"><title>p19</title>
<ellipse fill="black" stroke="black" cx="591.6" cy="-296" rx="3.6" ry="3.6"/>
</g>
<!-- p19&#45;&gt;p20 -->
<g id="edge23" class="edge"><title>p19&#45;&gt;p20</title>
<path fill="none" stroke="black" d="M590.083,-292.262C586.209,-285.504 575.284,-267.867 561.6,-258 553.811,-252.384 545.012,-247.555 536.011,-243.437"/>
<polygon fill="black" stroke="black" points="537.162,-240.122 526.592,-239.399 534.404,-246.556 537.162,-240.122"/>
<text text-anchor="middle" x="618.6" y="-262.3" font-family="Times,serif" font-size="14.00">description</text>
</g>
<!-- p22&#45;&gt;p25 -->
<g id="edge26" class="edge"><title>p22&#45;&gt;p25</title>
<path fill="none" stroke="black" d="M632.6,-115.937C632.6,-107.807 632.6,-97.8761 632.6,-88.7047"/>
<polygon fill="black" stroke="black" points="636.1,-88.4406 632.6,-78.4407 629.1,-88.4407 636.1,-88.4406"/>
</g>
<!-- p21 -->
<g id="node24" class="node"><title>p21</title>
<ellipse fill="black" stroke="black" cx="701.6" cy="-222" rx="3.6" ry="3.6"/>
</g>
<!-- p21&#45;&gt;p22 -->
<g id="edge25" class="edge"><title>p21&#45;&gt;p22</title>
<path fill="none" stroke="black" d="M699.77,-218.562C697.274,-215.245 692.647,-209.136 688.6,-204 677.008,-189.287 663.816,-173.011 653.149,-159.963"/>
<polygon fill="black" stroke="black" points="655.591,-157.421 646.546,-151.904 650.176,-161.857 655.591,-157.421"/>
<text text-anchor="middle" x="692.1" y="-174.3" font-family="Times,serif" font-size="14.00">meta</text>
</g>
<!-- p26 -->
<g id="node27" class="node"><title>p26</title>
<ellipse fill="black" stroke="black" cx="632.6" cy="-2" rx="1.8" ry="1.8"/>
</g>
<!-- p25&#45;&gt;p26 -->
<g id="edge30" class="edge"><title>p25&#45;&gt;p26</title>
<path fill="none" stroke="black" d="M632.6,-41.8939C632.6,-32.8876 632.6,-22.0999 632.6,-14.1727"/>
<polygon fill="black" stroke="black" points="636.1,-13.9957 632.6,-3.99575 629.1,-13.9958 636.1,-13.9957"/>
</g>
<!-- p24&#45;&gt;p25 -->
<g id="edge28" class="edge"><title>p24&#45;&gt;p25</title>
<path fill="none" stroke="black" d="M719.343,-262.685C730.097,-248.1 785.894,-167.884 752.6,-116 738.567,-94.1318 713.426,-80.8457 689.769,-72.8293"/>
<polygon fill="black" stroke="black" points="690.698,-69.4524 680.109,-69.8073 688.608,-76.1332 690.698,-69.4524"/>
</g>
</g>
</svg>
