<?xml version="1.0" encoding="UTF-8" standalone="no"?>
<!DOCTYPE svg PUBLIC "-//W3C//DTD SVG 1.1//EN"
 "http://www.w3.org/Graphics/SVG/1.1/DTD/svg11.dtd">
<!-- Generated by graphviz version 2.30.1 (20201013.1554)
 -->
<!-- Title: 20220712rotavirusremapworkflow Pages: 1 -->
<svg width="995pt" height="1088pt"
 viewBox="0.00 0.00 995.00 1088.00" xmlns="http://www.w3.org/2000/svg" xmlns:xlink="http://www.w3.org/1999/xlink">
<g id="graph0" class="graph" transform="scale(1 1) rotate(0) translate(4 1084)">
<title>20220712rotavirusremapworkflow</title>
<polygon fill="white" stroke="white" points="-4,5 -4,-1084 992,-1084 992,5 -4,5"/>
<!-- p0 -->
<g id="node1" class="node"><title>p0</title>
<ellipse fill="black" stroke="black" cx="491" cy="-942" rx="3.6" ry="3.6"/>
<text text-anchor="middle" x="422.4" y="-949.4" font-family="Times,serif" font-size="14.00">Channel.fromPath</text>
</g>
<!-- p8 -->
<g id="node2" class="node"><title>p8</title>
<ellipse fill="none" stroke="black" cx="458" cy="-882" rx="3.25" ry="3.5"/>
<text text-anchor="middle" x="424" y="-889.3" font-family="Times,serif" font-size="14.00">combine</text>
</g>
<!-- p0&#45;&gt;p8 -->
<g id="edge1" class="edge"><title>p0&#45;&gt;p8</title>
<path fill="none" stroke="black" d="M489.582,-938.508C485.299,-930.98 472.302,-908.138 464.379,-894.212"/>
<polygon fill="black" stroke="black" points="467.363,-892.379 459.376,-885.418 461.279,-895.841 467.363,-892.379"/>
<text text-anchor="middle" x="492.5" y="-908.3" font-family="Times,serif" font-size="14.00">bed</text>
</g>
<!-- p9 -->
<g id="node11" class="node"><title>p9</title>
<ellipse fill="none" stroke="black" cx="241" cy="-808" rx="3.25" ry="3.5"/>
<text text-anchor="middle" x="222" y="-815.3" font-family="Times,serif" font-size="14.00">map</text>
</g>
<!-- p8&#45;&gt;p9 -->
<g id="edge10" class="edge"><title>p8&#45;&gt;p9</title>
<path fill="none" stroke="black" d="M454.741,-880.692C435.119,-878.723 331.131,-866.655 259,-826 255.663,-824.119 252.467,-821.487 249.72,-818.855"/>
<polygon fill="black" stroke="black" points="252.176,-816.356 242.836,-811.356 247.02,-821.09 252.176,-816.356"/>
</g>
<!-- p1 -->
<g id="node3" class="node"><title>p1</title>
<ellipse fill="black" stroke="black" cx="751" cy="-882" rx="3.6" ry="3.6"/>
<text text-anchor="middle" x="692.9" y="-889.4" font-family="Times,serif" font-size="14.00">Channel.empty</text>
</g>
<!-- p6 -->
<g id="node4" class="node"><title>p6</title>
<ellipse fill="none" stroke="black" cx="844" cy="-808" rx="3.25" ry="3.5"/>
<text text-anchor="middle" x="854" y="-815.3" font-family="Times,serif" font-size="14.00">mix</text>
</g>
<!-- p1&#45;&gt;p6 -->
<g id="edge2" class="edge"><title>p1&#45;&gt;p6</title>
<path fill="none" stroke="black" d="M750.078,-878.295C747.988,-871.613 743.687,-854.136 752,-844 774.836,-816.156 800.702,-845.463 831,-826 833.427,-824.441 835.577,-822.265 837.395,-819.988"/>
<polygon fill="black" stroke="black" points="840.444,-821.717 842.858,-811.401 834.538,-817.96 840.444,-821.717"/>
<text text-anchor="middle" x="791" y="-848.3" font-family="Times,serif" font-size="14.00">version_ch</text>
</g>
<!-- p12 -->
<g id="node10" class="node"><title>p12</title>
<ellipse fill="none" stroke="black" cx="587" cy="-720" rx="3.25" ry="3.5"/>
<text text-anchor="middle" x="570" y="-727.3" font-family="Times,serif" font-size="14.00">mix</text>
</g>
<!-- p6&#45;&gt;p12 -->
<g id="edge8" class="edge"><title>p6&#45;&gt;p12</title>
<path fill="none" stroke="black" d="M842.835,-804.634C840.897,-800.943 836.655,-793.842 831,-790 754.447,-737.989 639.071,-724.869 600.266,-721.84"/>
<polygon fill="black" stroke="black" points="600.422,-718.343 590.208,-721.159 599.949,-725.327 600.422,-718.343"/>
<text text-anchor="middle" x="834" y="-760.3" font-family="Times,serif" font-size="14.00">version_ch</text>
</g>
<!-- p2 -->
<g id="node5" class="node"><title>p2</title>
<ellipse fill="black" stroke="black" cx="682" cy="-1076" rx="3.6" ry="3.6"/>
</g>
<!-- p5 -->
<g id="node6" class="node"><title>p5</title>
<ellipse fill="none" stroke="black" cx="742" cy="-1002" rx="245.042" ry="18"/>
<text text-anchor="middle" x="742" y="-998.3" font-family="Times,serif" font-size="14.00">MOSDEPTH_BAMS_01:SAMTOOLS_SAMPLES01</text>
</g>
<!-- p2&#45;&gt;p5 -->
<g id="edge3" class="edge"><title>p2&#45;&gt;p5</title>
<path fill="none" stroke="black" d="M682.902,-1072.47C685.222,-1066.19 691.86,-1049.55 701,-1038 704.034,-1034.16 707.537,-1030.44 711.192,-1026.93"/>
<polygon fill="black" stroke="black" points="713.707,-1029.38 718.805,-1020.09 709.028,-1024.17 713.707,-1029.38"/>
<text text-anchor="middle" x="719.5" y="-1042.3" font-family="Times,serif" font-size="14.00">meta</text>
</g>
<!-- p7 -->
<g id="node9" class="node"><title>p7</title>
<ellipse fill="none" stroke="black" cx="462" cy="-942" rx="3.25" ry="3.5"/>
<text text-anchor="middle" x="429" y="-927.3" font-family="Times,serif" font-size="14.00">splitCsv</text>
</g>
<!-- p5&#45;&gt;p7 -->
<g id="edge6" class="edge"><title>p5&#45;&gt;p7</title>
<path fill="none" stroke="black" d="M664.376,-984.921C598.081,-971.188 508.328,-952.596 475.086,-945.711"/>
<polygon fill="black" stroke="black" points="475.525,-942.227 465.023,-943.626 474.105,-949.082 475.525,-942.227"/>
</g>
<!-- p5&#45;&gt;p6 -->
<g id="edge7" class="edge"><title>p5&#45;&gt;p6</title>
<path fill="none" stroke="black" d="M755.151,-983.676C774.118,-957.955 809.157,-907.574 830,-860 835.449,-847.564 839.274,-832.478 841.533,-821.953"/>
<polygon fill="black" stroke="black" points="845.022,-822.349 843.516,-811.862 838.154,-820.999 845.022,-822.349"/>
</g>
<!-- p3 -->
<g id="node7" class="node"><title>p3</title>
<ellipse fill="black" stroke="black" cx="742" cy="-1076" rx="3.6" ry="3.6"/>
</g>
<!-- p3&#45;&gt;p5 -->
<g id="edge4" class="edge"><title>p3&#45;&gt;p5</title>
<path fill="none" stroke="black" d="M742,-1072.27C742,-1065.35 742,-1046.58 742,-1030.32"/>
<polygon fill="black" stroke="black" points="745.5,-1030.14 742,-1020.14 738.5,-1030.14 745.5,-1030.14"/>
<text text-anchor="middle" x="777" y="-1042.3" font-family="Times,serif" font-size="14.00">reference</text>
</g>
<!-- p4 -->
<g id="node8" class="node"><title>p4</title>
<ellipse fill="black" stroke="black" cx="835" cy="-1076" rx="3.6" ry="3.6"/>
</g>
<!-- p4&#45;&gt;p5 -->
<g id="edge5" class="edge"><title>p4&#45;&gt;p5</title>
<path fill="none" stroke="black" d="M834.031,-1072.32C831.518,-1065.7 824.195,-1048.35 813,-1038 807.658,-1033.06 801.489,-1028.67 795.064,-1024.81"/>
<polygon fill="black" stroke="black" points="796.637,-1021.68 786.197,-1019.87 793.231,-1027.79 796.637,-1021.68"/>
<text text-anchor="middle" x="844.5" y="-1042.3" font-family="Times,serif" font-size="14.00">bams</text>
</g>
<!-- p7&#45;&gt;p8 -->
<g id="edge9" class="edge"><title>p7&#45;&gt;p8</title>
<path fill="none" stroke="black" d="M461.807,-938.203C461.286,-930.649 459.826,-909.48 458.873,-895.66"/>
<polygon fill="black" stroke="black" points="462.362,-895.371 458.182,-885.636 455.378,-895.853 462.362,-895.371"/>
</g>
<!-- p19 -->
<g id="node15" class="node"><title>p19</title>
<ellipse fill="none" stroke="black" cx="587" cy="-646" rx="3.25" ry="3.5"/>
<text text-anchor="middle" x="570" y="-653.3" font-family="Times,serif" font-size="14.00">mix</text>
</g>
<!-- p12&#45;&gt;p19 -->
<g id="edge15" class="edge"><title>p12&#45;&gt;p19</title>
<path fill="none" stroke="black" d="M587,-716.265C587,-707.133 587,-677.282 587,-659.892"/>
<polygon fill="black" stroke="black" points="590.5,-659.737 587,-649.737 583.5,-659.737 590.5,-659.737"/>
<text text-anchor="middle" x="626" y="-672.3" font-family="Times,serif" font-size="14.00">version_ch</text>
</g>
<!-- p14 -->
<g id="node12" class="node"><title>p14</title>
<ellipse fill="none" stroke="black" cx="288" cy="-720" rx="225.295" ry="18"/>
<text text-anchor="middle" x="288" y="-716.3" font-family="Times,serif" font-size="14.00">MOSDEPTH_BAMS_01:MOSDEPTH_RUN_01</text>
</g>
<!-- p9&#45;&gt;p14 -->
<g id="edge11" class="edge"><title>p9&#45;&gt;p14</title>
<path fill="none" stroke="black" d="M240.753,-804.476C240.11,-796.709 239.013,-772.68 248,-756 250.068,-752.162 252.735,-748.548 255.71,-745.206"/>
<polygon fill="black" stroke="black" points="258.422,-747.447 263.073,-737.927 253.501,-742.469 258.422,-747.447"/>
<text text-anchor="middle" x="261.5" y="-760.3" font-family="Times,serif" font-size="14.00">ch1</text>
</g>
<!-- p18 -->
<g id="node17" class="node"><title>p18</title>
<ellipse fill="black" stroke="black" cx="120" cy="-646" rx="1.8" ry="1.8"/>
</g>
<!-- p14&#45;&gt;p18 -->
<g id="edge17" class="edge"><title>p14&#45;&gt;p18</title>
<path fill="none" stroke="black" d="M182.678,-703.975C168.547,-699.061 154.859,-692.57 143,-684 133.881,-677.41 127.594,-665.987 123.926,-657.571"/>
<polygon fill="black" stroke="black" points="127.163,-656.234 120.345,-648.125 120.617,-658.716 127.163,-656.234"/>
<text text-anchor="middle" x="178.5" y="-672.3" font-family="Times,serif" font-size="14.00">globaldist</text>
</g>
<!-- p17 -->
<g id="node18" class="node"><title>p17</title>
<ellipse fill="black" stroke="black" cx="312" cy="-646" rx="1.8" ry="1.8"/>
</g>
<!-- p14&#45;&gt;p17 -->
<g id="edge18" class="edge"><title>p14&#45;&gt;p17</title>
<path fill="none" stroke="black" d="M293.688,-701.937C298.26,-688.219 304.542,-669.373 308.433,-657.701"/>
<polygon fill="black" stroke="black" points="311.875,-658.443 311.717,-647.849 305.234,-656.229 311.875,-658.443"/>
</g>
<!-- p20 -->
<g id="node19" class="node"><title>p20</title>
<ellipse fill="none" stroke="black" cx="336" cy="-646" rx="3.25" ry="3.5"/>
<text text-anchor="middle" x="317" y="-653.3" font-family="Times,serif" font-size="14.00">map</text>
</g>
<!-- p14&#45;&gt;p20 -->
<g id="edge19" class="edge"><title>p14&#45;&gt;p20</title>
<path fill="none" stroke="black" d="M303.534,-701.773C308.132,-696.285 313.002,-690.06 317,-684 322.323,-675.931 327.275,-666.182 330.788,-658.718"/>
<polygon fill="black" stroke="black" points="334.053,-659.993 334.971,-649.438 327.671,-657.116 334.053,-659.993"/>
</g>
<!-- p16 -->
<g id="node20" class="node"><title>p16</title>
<ellipse fill="black" stroke="black" cx="214" cy="-646" rx="1.8" ry="1.8"/>
</g>
<!-- p14&#45;&gt;p16 -->
<g id="edge20" class="edge"><title>p14&#45;&gt;p16</title>
<path fill="none" stroke="black" d="M247.966,-702.21C239.825,-697.313 231.945,-691.273 226,-684 219.942,-676.588 216.914,-666.041 215.417,-658.102"/>
<polygon fill="black" stroke="black" points="218.866,-657.486 214.067,-648.041 211.928,-658.418 218.866,-657.486"/>
<text text-anchor="middle" x="255" y="-672.3" font-family="Times,serif" font-size="14.00">perbase</text>
</g>
<!-- p15 -->
<g id="node21" class="node"><title>p15</title>
<ellipse fill="black" stroke="black" cx="287" cy="-646" rx="1.8" ry="1.8"/>
</g>
<!-- p14&#45;&gt;p15 -->
<g id="edge21" class="edge"><title>p14&#45;&gt;p15</title>
<path fill="none" stroke="black" d="M287.763,-701.937C287.575,-688.37 287.316,-669.787 287.154,-658.089"/>
<polygon fill="black" stroke="black" points="290.65,-657.8 287.012,-647.849 283.651,-657.897 290.65,-657.8"/>
</g>
<!-- p14&#45;&gt;p19 -->
<g id="edge22" class="edge"><title>p14&#45;&gt;p19</title>
<path fill="none" stroke="black" d="M355.474,-702.752C427.581,-685.389 536.56,-659.146 573.906,-650.153"/>
<polygon fill="black" stroke="black" points="575.048,-653.478 583.95,-647.734 573.409,-646.673 575.048,-653.478"/>
</g>
<!-- p10 -->
<g id="node13" class="node"><title>p10</title>
<ellipse fill="black" stroke="black" cx="558" cy="-882" rx="3.6" ry="3.6"/>
</g>
<!-- p11 -->
<g id="node14" class="node"><title>p11</title>
<ellipse fill="none" stroke="black" cx="558" cy="-808" rx="264.29" ry="18"/>
<text text-anchor="middle" x="558" y="-804.3" font-family="Times,serif" font-size="14.00">MOSDEPTH_BAMS_01:MOSDEPTH_DOWNLOAD_01</text>
</g>
<!-- p10&#45;&gt;p11 -->
<g id="edge12" class="edge"><title>p10&#45;&gt;p11</title>
<path fill="none" stroke="black" d="M558,-878.265C558,-871.354 558,-852.578 558,-836.316"/>
<polygon fill="black" stroke="black" points="561.5,-836.143 558,-826.143 554.5,-836.143 561.5,-836.143"/>
<text text-anchor="middle" x="576.5" y="-848.3" font-family="Times,serif" font-size="14.00">meta</text>
</g>
<!-- p11&#45;&gt;p14 -->
<g id="edge13" class="edge"><title>p11&#45;&gt;p14</title>
<path fill="none" stroke="black" d="M505.621,-790.316C461.095,-776.134 397.085,-755.746 350.009,-740.751"/>
<polygon fill="black" stroke="black" points="350.824,-737.337 340.233,-737.637 348.699,-744.007 350.824,-737.337"/>
</g>
<!-- p11&#45;&gt;p12 -->
<g id="edge14" class="edge"><title>p11&#45;&gt;p12</title>
<path fill="none" stroke="black" d="M563.869,-789.597C569.558,-772.725 578.034,-747.588 582.991,-732.888"/>
<polygon fill="black" stroke="black" points="586.31,-734.001 586.188,-723.407 579.676,-731.764 586.31,-734.001"/>
</g>
<!-- p24 -->
<g id="node22" class="node"><title>p24</title>
<ellipse fill="none" stroke="black" cx="434" cy="-438" rx="3.25" ry="3.5"/>
<text text-anchor="middle" x="417" y="-445.3" font-family="Times,serif" font-size="14.00">mix</text>
</g>
<!-- p19&#45;&gt;p24 -->
<g id="edge23" class="edge"><title>p19&#45;&gt;p24</title>
<path fill="none" stroke="black" d="M587.54,-642.378C591.102,-624.236 609.403,-516.841 553,-474 514.947,-445.097 487.91,-480.694 447,-456 444.531,-454.51 442.364,-452.36 440.543,-450.088"/>
<polygon fill="black" stroke="black" points="443.397,-448.051 435.118,-441.439 437.467,-451.771 443.397,-448.051"/>
<text text-anchor="middle" x="633" y="-566.3" font-family="Times,serif" font-size="14.00">version_ch</text>
</g>
<!-- p13 -->
<g id="node16" class="node"><title>p13</title>
<ellipse fill="black" stroke="black" cx="272" cy="-808" rx="3.6" ry="3.6"/>
</g>
<!-- p13&#45;&gt;p14 -->
<g id="edge16" class="edge"><title>p13&#45;&gt;p14</title>
<path fill="none" stroke="black" d="M272.532,-804.139C274.147,-795.462 279.113,-768.767 282.988,-747.942"/>
<polygon fill="black" stroke="black" points="286.448,-748.475 284.837,-738.004 279.566,-747.195 286.448,-748.475"/>
<text text-anchor="middle" x="300.5" y="-760.3" font-family="Times,serif" font-size="14.00">meta</text>
</g>
<!-- p21 -->
<g id="node23" class="node"><title>p21</title>
<ellipse fill="none" stroke="black" cx="332" cy="-600" rx="3.25" ry="3.5"/>
<text text-anchor="middle" x="304" y="-607.3" font-family="Times,serif" font-size="14.00">collect</text>
</g>
<!-- p20&#45;&gt;p21 -->
<g id="edge24" class="edge"><title>p20&#45;&gt;p21</title>
<path fill="none" stroke="black" d="M335.762,-642.379C335.26,-636.864 334.067,-623.742 333.158,-613.742"/>
<polygon fill="black" stroke="black" points="336.623,-613.194 332.232,-603.552 329.652,-613.828 336.623,-613.194"/>
</g>
<!-- p28 -->
<g id="node27" class="node"><title>p28</title>
<ellipse fill="none" stroke="black" cx="522" cy="-364" rx="3.25" ry="3.5"/>
<text text-anchor="middle" x="505" y="-371.3" font-family="Times,serif" font-size="14.00">mix</text>
</g>
<!-- p24&#45;&gt;p28 -->
<g id="edge29" class="edge"><title>p24&#45;&gt;p28</title>
<path fill="none" stroke="black" d="M435.647,-434.398C437.937,-430.896 442.33,-424.577 447,-420 467.415,-399.992 495.461,-381.354 510.821,-371.76"/>
<polygon fill="black" stroke="black" points="512.759,-374.678 519.473,-366.482 509.113,-368.702 512.759,-374.678"/>
<text text-anchor="middle" x="528" y="-390.3" font-family="Times,serif" font-size="14.00">version_ch</text>
</g>
<!-- p23 -->
<g id="node24" class="node"><title>p23</title>
<ellipse fill="none" stroke="black" cx="280" cy="-526" rx="280.188" ry="18"/>
<text text-anchor="middle" x="280" y="-522.3" font-family="Times,serif" font-size="14.00">MOSDEPTH_BAMS_01:MERGE_MOSDEPTH_SUMMARY</text>
</g>
<!-- p21&#45;&gt;p23 -->
<g id="edge25" class="edge"><title>p21&#45;&gt;p23</title>
<path fill="none" stroke="black" d="M331.473,-596.477C330.076,-590.212 325.843,-573.61 318,-562 315.446,-558.219 312.406,-554.558 309.174,-551.12"/>
<polygon fill="black" stroke="black" points="311.496,-548.494 301.908,-543.986 306.592,-553.489 311.496,-548.494"/>
</g>
<!-- p27 -->
<g id="node26" class="node"><title>p27</title>
<ellipse fill="none" stroke="black" cx="621" cy="-438" rx="165.128" ry="18"/>
<text text-anchor="middle" x="621" y="-434.3" font-family="Times,serif" font-size="14.00">MOSDEPTH_BAMS_01:PLOT_IT</text>
</g>
<!-- p23&#45;&gt;p27 -->
<g id="edge27" class="edge"><title>p23&#45;&gt;p27</title>
<path fill="none" stroke="black" d="M345.748,-508.418C403.956,-493.738 488.757,-472.352 548.824,-457.203"/>
<polygon fill="black" stroke="black" points="549.776,-460.572 558.617,-454.733 548.064,-453.785 549.776,-460.572"/>
<text text-anchor="middle" x="515.5" y="-478.3" font-family="Times,serif" font-size="14.00">summary</text>
</g>
<!-- p23&#45;&gt;p24 -->
<g id="edge28" class="edge"><title>p23&#45;&gt;p24</title>
<path fill="none" stroke="black" d="M310.425,-508.009C344.776,-488.826 398.935,-458.582 422.458,-445.446"/>
<polygon fill="black" stroke="black" points="424.299,-448.426 431.323,-440.495 420.886,-442.315 424.299,-448.426"/>
</g>
<!-- p40 -->
<g id="node41" class="node"><title>p40</title>
<ellipse fill="none" stroke="black" cx="508" cy="-60" rx="56.3173" ry="18"/>
<text text-anchor="middle" x="508" y="-56.3" font-family="Times,serif" font-size="14.00">PUBLISH</text>
</g>
<!-- p23&#45;&gt;p40 -->
<g id="edge48" class="edge"><title>p23&#45;&gt;p40</title>
<path fill="none" stroke="black" d="M270.177,-507.824C261.428,-490.888 250,-463.984 250,-439 250,-439 250,-439 250,-133 250,-92.8343 367.475,-74.0909 443.885,-66.1478"/>
<polygon fill="black" stroke="black" points="444.314,-69.6225 453.915,-65.1423 443.615,-62.6574 444.314,-69.6225"/>
<text text-anchor="middle" x="283.5" y="-296.3" font-family="Times,serif" font-size="14.00">summary</text>
</g>
<!-- p22 -->
<g id="node25" class="node"><title>p22</title>
<ellipse fill="black" stroke="black" cx="280" cy="-600" rx="3.6" ry="3.6"/>
</g>
<!-- p22&#45;&gt;p23 -->
<g id="edge26" class="edge"><title>p22&#45;&gt;p23</title>
<path fill="none" stroke="black" d="M280,-596.265C280,-589.354 280,-570.578 280,-554.316"/>
<polygon fill="black" stroke="black" points="283.5,-554.143 280,-544.143 276.5,-554.143 283.5,-554.143"/>
<text text-anchor="middle" x="298.5" y="-566.3" font-family="Times,serif" font-size="14.00">meta</text>
</g>
<!-- p29 -->
<g id="node29" class="node"><title>p29</title>
<ellipse fill="none" stroke="black" cx="731" cy="-364" rx="3.25" ry="3.5"/>
<text text-anchor="middle" x="714" y="-371.3" font-family="Times,serif" font-size="14.00">mix</text>
</g>
<!-- p27&#45;&gt;p29 -->
<g id="edge32" class="edge"><title>p27&#45;&gt;p29</title>
<path fill="none" stroke="black" d="M655.13,-420.223C665.303,-414.8 676.315,-408.499 686,-402 698.936,-393.319 712.597,-381.689 721.426,-373.802"/>
<polygon fill="black" stroke="black" points="724.022,-376.172 729.047,-366.844 719.302,-371.003 724.022,-376.172"/>
</g>
<!-- p30 -->
<g id="node31" class="node"><title>p30</title>
<ellipse fill="none" stroke="black" cx="731" cy="-300" rx="3.25" ry="3.5"/>
<text text-anchor="middle" x="714" y="-307.3" font-family="Times,serif" font-size="14.00">mix</text>
</g>
<!-- p27&#45;&gt;p30 -->
<g id="edge33" class="edge"><title>p27&#45;&gt;p30</title>
<path fill="none" stroke="black" d="M634.709,-420.05C657.883,-391.399 704.104,-334.253 722.834,-311.096"/>
<polygon fill="black" stroke="black" points="725.757,-313.048 729.324,-303.072 720.314,-308.646 725.757,-313.048"/>
</g>
<!-- p27&#45;&gt;p28 -->
<g id="edge34" class="edge"><title>p27&#45;&gt;p28</title>
<path fill="none" stroke="black" d="M607.099,-419.685C597.769,-408.917 584.712,-395.383 571,-386 559.581,-378.186 544.788,-372.337 534.456,-368.822"/>
<polygon fill="black" stroke="black" points="535.436,-365.461 524.846,-365.791 533.33,-372.137 535.436,-365.461"/>
</g>
<!-- p31 -->
<g id="node32" class="node"><title>p31</title>
<ellipse fill="none" stroke="black" cx="522" cy="-300" rx="3.25" ry="3.5"/>
<text text-anchor="middle" x="494" y="-307.3" font-family="Times,serif" font-size="14.00">collect</text>
</g>
<!-- p28&#45;&gt;p31 -->
<g id="edge35" class="edge"><title>p28&#45;&gt;p31</title>
<path fill="none" stroke="black" d="M522,-360.336C522,-352.448 522,-328.832 522,-313.881"/>
<polygon fill="black" stroke="black" points="525.5,-313.585 522,-303.585 518.5,-313.585 525.5,-313.585"/>
<text text-anchor="middle" x="561" y="-330.3" font-family="Times,serif" font-size="14.00">version_ch</text>
</g>
<!-- p25 -->
<g id="node28" class="node"><title>p25</title>
<ellipse fill="black" stroke="black" cx="808" cy="-438" rx="3.6" ry="3.6"/>
<text text-anchor="middle" x="858.9" y="-445.4" font-family="Times,serif" font-size="14.00">Channel.empty</text>
</g>
<!-- p25&#45;&gt;p29 -->
<g id="edge30" class="edge"><title>p25&#45;&gt;p29</title>
<path fill="none" stroke="black" d="M806.3,-434.45C803.951,-431.006 799.49,-424.754 795,-420 777.855,-401.847 755.171,-383.487 741.923,-373.241"/>
<polygon fill="black" stroke="black" points="743.688,-370.187 733.608,-366.924 739.453,-375.76 743.688,-370.187"/>
<text text-anchor="middle" x="799.5" y="-390.3" font-family="Times,serif" font-size="14.00">pdf_ch</text>
</g>
<!-- p29&#45;&gt;p30 -->
<g id="edge36" class="edge"><title>p29&#45;&gt;p30</title>
<path fill="none" stroke="black" d="M731,-360.336C731,-352.448 731,-328.832 731,-313.881"/>
<polygon fill="black" stroke="black" points="734.5,-313.585 731,-303.585 727.5,-313.585 734.5,-313.585"/>
<text text-anchor="middle" x="755.5" y="-330.3" font-family="Times,serif" font-size="14.00">pdf_ch</text>
</g>
<!-- p26 -->
<g id="node30" class="node"><title>p26</title>
<ellipse fill="black" stroke="black" cx="621" cy="-526" rx="3.6" ry="3.6"/>
</g>
<!-- p26&#45;&gt;p27 -->
<g id="edge31" class="edge"><title>p26&#45;&gt;p27</title>
<path fill="none" stroke="black" d="M621,-522.139C621,-513.502 621,-487.011 621,-466.227"/>
<polygon fill="black" stroke="black" points="624.5,-466.004 621,-456.004 617.5,-466.004 624.5,-466.004"/>
<text text-anchor="middle" x="639.5" y="-478.3" font-family="Times,serif" font-size="14.00">meta</text>
</g>
<!-- p36 -->
<g id="node33" class="node"><title>p36</title>
<ellipse fill="none" stroke="black" cx="764" cy="-222" rx="3.25" ry="3.5"/>
<text text-anchor="middle" x="736" y="-229.3" font-family="Times,serif" font-size="14.00">collect</text>
</g>
<!-- p30&#45;&gt;p36 -->
<g id="edge37" class="edge"><title>p30&#45;&gt;p36</title>
<path fill="none" stroke="black" d="M732.098,-296.471C736.208,-287.006 750.854,-253.276 758.793,-234.991"/>
<polygon fill="black" stroke="black" points="762.092,-236.183 762.864,-225.616 755.671,-233.395 762.092,-236.183"/>
<text text-anchor="middle" x="772.5" y="-262.3" font-family="Times,serif" font-size="14.00">pdf_ch</text>
</g>
<!-- p35 -->
<g id="node34" class="node"><title>p35</title>
<ellipse fill="none" stroke="black" cx="490" cy="-222" rx="211.322" ry="18"/>
<text text-anchor="middle" x="490" y="-218.3" font-family="Times,serif" font-size="14.00">MOSDEPTH_BAMS_01:MERGE_VERSION</text>
</g>
<!-- p31&#45;&gt;p35 -->
<g id="edge38" class="edge"><title>p31&#45;&gt;p35</title>
<path fill="none" stroke="black" d="M521.245,-296.36C519.329,-289.772 514.004,-272.121 508,-258 506.783,-255.137 505.429,-252.185 504.026,-249.267"/>
<polygon fill="black" stroke="black" points="507.094,-247.577 499.482,-240.208 500.837,-250.716 507.094,-247.577"/>
</g>
<!-- p39 -->
<g id="node39" class="node"><title>p39</title>
<ellipse fill="none" stroke="black" cx="772" cy="-134" rx="3.25" ry="3.5"/>
<text text-anchor="middle" x="793" y="-141.3" font-family="Times,serif" font-size="14.00">collect</text>
</g>
<!-- p36&#45;&gt;p39 -->
<g id="edge43" class="edge"><title>p36&#45;&gt;p39</title>
<path fill="none" stroke="black" d="M764.266,-218.139C765.276,-207.281 768.911,-168.206 770.816,-147.727"/>
<polygon fill="black" stroke="black" points="774.315,-147.896 771.757,-137.615 767.345,-147.248 774.315,-147.896"/>
<text text-anchor="middle" x="780" y="-174.3" font-family="Times,serif" font-size="14.00">pdf</text>
</g>
<!-- p38 -->
<g id="node38" class="node"><title>p38</title>
<ellipse fill="none" stroke="black" cx="639" cy="-134" rx="111.186" ry="18"/>
<text text-anchor="middle" x="639" y="-130.3" font-family="Times,serif" font-size="14.00">VERSION_TO_HTML</text>
</g>
<!-- p35&#45;&gt;p38 -->
<g id="edge42" class="edge"><title>p35&#45;&gt;p38</title>
<path fill="none" stroke="black" d="M519.438,-204.009C542.929,-190.45 575.995,-171.365 601.401,-156.701"/>
<polygon fill="black" stroke="black" points="603.472,-159.548 610.383,-151.517 599.972,-153.485 603.472,-159.548"/>
</g>
<!-- p35&#45;&gt;p40 -->
<g id="edge47" class="edge"><title>p35&#45;&gt;p40</title>
<path fill="none" stroke="black" d="M480.11,-203.98C469.224,-182.967 454.563,-146.296 465,-116 468.869,-104.77 476.077,-94.0776 483.501,-85.1574"/>
<polygon fill="black" stroke="black" points="486.276,-87.3038 490.29,-77.4989 481.037,-82.6603 486.276,-87.3038"/>
<text text-anchor="middle" x="491.5" y="-130.3" font-family="Times,serif" font-size="14.00">version</text>
</g>
<!-- p32 -->
<g id="node35" class="node"><title>p32</title>
<ellipse fill="black" stroke="black" cx="555" cy="-300" rx="3.6" ry="3.6"/>
</g>
<!-- p32&#45;&gt;p35 -->
<g id="edge39" class="edge"><title>p32&#45;&gt;p35</title>
<path fill="none" stroke="black" d="M553.491,-296.685C549.281,-290.29 536.938,-271.93 525,-258 521.961,-254.454 518.635,-250.836 515.281,-247.337"/>
<polygon fill="black" stroke="black" points="517.505,-244.608 507.994,-239.94 512.519,-249.52 517.505,-244.608"/>
<text text-anchor="middle" x="556.5" y="-262.3" font-family="Times,serif" font-size="14.00">meta</text>
</g>
<!-- p33 -->
<g id="node36" class="node"><title>p33</title>
<ellipse fill="black" stroke="black" cx="362" cy="-300" rx="3.6" ry="3.6"/>
</g>
<!-- p33&#45;&gt;p35 -->
<g id="edge40" class="edge"><title>p33&#45;&gt;p35</title>
<path fill="none" stroke="black" d="M362.035,-296.368C362.276,-289.161 363.954,-268.919 375,-258 381.027,-252.042 388.036,-247.094 395.564,-242.985"/>
<polygon fill="black" stroke="black" points="397.181,-246.089 404.611,-238.536 394.092,-239.808 397.181,-246.089"/>
<text text-anchor="middle" x="395" y="-262.3" font-family="Times,serif" font-size="14.00">name</text>
</g>
<!-- p34 -->
<g id="node37" class="node"><title>p34</title>
<ellipse fill="black" stroke="black" cx="425" cy="-300" rx="3.6" ry="3.6"/>
</g>
<!-- p34&#45;&gt;p35 -->
<g id="edge41" class="edge"><title>p34&#45;&gt;p35</title>
<path fill="none" stroke="black" d="M423.908,-296.553C421.082,-289.819 414.269,-270.673 422,-258 424.895,-253.253 428.663,-249.123 432.94,-245.535"/>
<polygon fill="black" stroke="black" points="435.045,-248.331 441.11,-239.644 430.952,-242.653 435.045,-248.331"/>
<text text-anchor="middle" x="463" y="-262.3" font-family="Times,serif" font-size="14.00">description</text>
</g>
<!-- p38&#45;&gt;p40 -->
<g id="edge45" class="edge"><title>p38&#45;&gt;p40</title>
<path fill="none" stroke="black" d="M608.946,-116.482C589.687,-105.897 564.578,-92.0963 544.22,-80.9072"/>
<polygon fill="black" stroke="black" points="545.688,-77.7205 535.239,-75.971 542.317,-83.855 545.688,-77.7205"/>
</g>
<!-- p39&#45;&gt;p40 -->
<g id="edge46" class="edge"><title>p39&#45;&gt;p40</title>
<path fill="none" stroke="black" d="M770.862,-130.593C768.96,-126.847 764.767,-119.671 759,-116 703.051,-80.3879 627.434,-67.5893 573.862,-63.1172"/>
<polygon fill="black" stroke="black" points="574.027,-59.6197 563.79,-62.3525 573.497,-66.5996 574.027,-59.6197"/>
</g>
<!-- p37 -->
<g id="node40" class="node"><title>p37</title>
<ellipse fill="black" stroke="black" cx="723" cy="-222" rx="3.6" ry="3.6"/>
</g>
<!-- p37&#45;&gt;p38 -->
<g id="edge44" class="edge"><title>p37&#45;&gt;p38</title>
<path fill="none" stroke="black" d="M721.257,-218.489C718.859,-215.091 714.343,-208.889 710,-204 696.069,-188.316 679.284,-171.903 665.532,-159.022"/>
<polygon fill="black" stroke="black" points="667.542,-156.113 657.83,-151.878 662.782,-161.245 667.542,-156.113"/>
<text text-anchor="middle" x="709.5" y="-174.3" font-family="Times,serif" font-size="14.00">meta</text>
</g>
<!-- p41 -->
<g id="node42" class="node"><title>p41</title>
<ellipse fill="black" stroke="black" cx="508" cy="-2" rx="1.8" ry="1.8"/>
</g>
<!-- p40&#45;&gt;p41 -->
<g id="edge49" class="edge"><title>p40&#45;&gt;p41</title>
<path fill="none" stroke="black" d="M508,-41.8939C508,-32.8876 508,-22.0999 508,-14.1727"/>
<polygon fill="black" stroke="black" points="511.5,-13.9957 508,-3.99575 504.5,-13.9958 511.5,-13.9957"/>
</g>
</g>
</svg>
