<?xml version="1.0" encoding="UTF-8" standalone="no"?>
<!DOCTYPE svg PUBLIC "-//W3C//DTD SVG 1.1//EN"
 "http://www.w3.org/Graphics/SVG/1.1/DTD/svg11.dtd">
<!-- Generated by graphviz version 2.30.1 (20201013.1554)
 -->
<!-- Title: 20220712rotavirusremapworkflow Pages: 1 -->
<svg width="1014pt" height="1042pt"
 viewBox="0.00 0.00 1014.40 1042.00" xmlns="http://www.w3.org/2000/svg" xmlns:xlink="http://www.w3.org/1999/xlink">
<g id="graph0" class="graph" transform="scale(1 1) rotate(0) translate(4 1038)">
<title>20220712rotavirusremapworkflow</title>
<polygon fill="white" stroke="white" points="-4,5 -4,-1038 1011.4,-1038 1011.4,5 -4,5"/>
<!-- p0 -->
<g id="node1" class="node"><title>p0</title>
<ellipse fill="black" stroke="black" cx="700" cy="-956" rx="3.6" ry="3.6"/>
<text text-anchor="middle" x="750.9" y="-963.4" font-family="Times,serif" font-size="14.00">Channel.empty</text>
</g>
<!-- p5 -->
<g id="node2" class="node"><title>p5</title>
<ellipse fill="none" stroke="black" cx="700" cy="-882" rx="3.25" ry="3.5"/>
<text text-anchor="middle" x="683" y="-889.3" font-family="Times,serif" font-size="14.00">mix</text>
</g>
<!-- p0&#45;&gt;p5 -->
<g id="edge1" class="edge"><title>p0&#45;&gt;p5</title>
<path fill="none" stroke="black" d="M700,-952.265C700,-943.133 700,-913.282 700,-895.892"/>
<polygon fill="black" stroke="black" points="703.5,-895.737 700,-885.737 696.5,-895.737 703.5,-895.737"/>
<text text-anchor="middle" x="739" y="-908.3" font-family="Times,serif" font-size="14.00">version_ch</text>
</g>
<!-- p10 -->
<g id="node8" class="node"><title>p10</title>
<ellipse fill="none" stroke="black" cx="581" cy="-720" rx="3.25" ry="3.5"/>
<text text-anchor="middle" x="564" y="-727.3" font-family="Times,serif" font-size="14.00">mix</text>
</g>
<!-- p5&#45;&gt;p10 -->
<g id="edge7" class="edge"><title>p5&#45;&gt;p10</title>
<path fill="none" stroke="black" d="M703.455,-880.936C721.615,-880.389 806.468,-875.2 840,-826 849.011,-812.779 849.749,-802.687 840,-790 809.092,-749.78 642.991,-728.022 594.375,-722.45"/>
<polygon fill="black" stroke="black" points="594.484,-718.941 584.161,-721.324 593.717,-725.899 594.484,-718.941"/>
<text text-anchor="middle" x="886" y="-804.3" font-family="Times,serif" font-size="14.00">version_ch</text>
</g>
<!-- p1 -->
<g id="node3" class="node"><title>p1</title>
<ellipse fill="black" stroke="black" cx="357" cy="-1030" rx="3.6" ry="3.6"/>
</g>
<!-- p4 -->
<g id="node4" class="node"><title>p4</title>
<ellipse fill="none" stroke="black" cx="417" cy="-956" rx="245.042" ry="18"/>
<text text-anchor="middle" x="417" y="-952.3" font-family="Times,serif" font-size="14.00">MOSDEPTH_BAMS_01:SAMTOOLS_SAMPLES01</text>
</g>
<!-- p1&#45;&gt;p4 -->
<g id="edge2" class="edge"><title>p1&#45;&gt;p4</title>
<path fill="none" stroke="black" d="M357.902,-1026.47C360.222,-1020.19 366.86,-1003.55 376,-992 379.034,-988.165 382.537,-984.437 386.192,-980.933"/>
<polygon fill="black" stroke="black" points="388.707,-983.379 393.805,-974.091 384.028,-978.172 388.707,-983.379"/>
<text text-anchor="middle" x="394.5" y="-996.3" font-family="Times,serif" font-size="14.00">meta</text>
</g>
<!-- p6 -->
<g id="node7" class="node"><title>p6</title>
<ellipse fill="none" stroke="black" cx="320" cy="-882" rx="3.25" ry="3.5"/>
<text text-anchor="middle" x="287" y="-889.3" font-family="Times,serif" font-size="14.00">splitCsv</text>
</g>
<!-- p4&#45;&gt;p6 -->
<g id="edge5" class="edge"><title>p4&#45;&gt;p6</title>
<path fill="none" stroke="black" d="M394.012,-937.937C373.996,-923.08 345.875,-902.206 330.707,-890.948"/>
<polygon fill="black" stroke="black" points="332.369,-887.823 322.253,-884.673 328.197,-893.443 332.369,-887.823"/>
</g>
<!-- p4&#45;&gt;p5 -->
<g id="edge6" class="edge"><title>p4&#45;&gt;p5</title>
<path fill="none" stroke="black" d="M481.571,-938.572C549.568,-921.273 651.615,-895.31 687.209,-886.254"/>
<polygon fill="black" stroke="black" points="688.301,-889.588 697.129,-883.73 686.575,-882.804 688.301,-889.588"/>
</g>
<!-- p2 -->
<g id="node5" class="node"><title>p2</title>
<ellipse fill="black" stroke="black" cx="417" cy="-1030" rx="3.6" ry="3.6"/>
</g>
<!-- p2&#45;&gt;p4 -->
<g id="edge3" class="edge"><title>p2&#45;&gt;p4</title>
<path fill="none" stroke="black" d="M417,-1026.27C417,-1019.35 417,-1000.58 417,-984.316"/>
<polygon fill="black" stroke="black" points="420.5,-984.143 417,-974.143 413.5,-984.143 420.5,-984.143"/>
<text text-anchor="middle" x="452" y="-996.3" font-family="Times,serif" font-size="14.00">reference</text>
</g>
<!-- p3 -->
<g id="node6" class="node"><title>p3</title>
<ellipse fill="black" stroke="black" cx="510" cy="-1030" rx="3.6" ry="3.6"/>
</g>
<!-- p3&#45;&gt;p4 -->
<g id="edge4" class="edge"><title>p3&#45;&gt;p4</title>
<path fill="none" stroke="black" d="M509.031,-1026.32C506.518,-1019.7 499.195,-1002.35 488,-992 482.658,-987.061 476.489,-982.669 470.064,-978.807"/>
<polygon fill="black" stroke="black" points="471.637,-975.677 461.197,-973.869 468.231,-981.793 471.637,-975.677"/>
<text text-anchor="middle" x="520.5" y="-996.3" font-family="Times,serif" font-size="14.00">bams</text>
</g>
<!-- p7 -->
<g id="node9" class="node"><title>p7</title>
<ellipse fill="none" stroke="black" cx="281" cy="-808" rx="3.25" ry="3.5"/>
<text text-anchor="middle" x="262" y="-815.3" font-family="Times,serif" font-size="14.00">map</text>
</g>
<!-- p6&#45;&gt;p7 -->
<g id="edge8" class="edge"><title>p6&#45;&gt;p7</title>
<path fill="none" stroke="black" d="M318.702,-878.604C313.845,-869.637 296.536,-837.683 287.153,-820.36"/>
<polygon fill="black" stroke="black" points="290.183,-818.604 282.342,-811.478 284.028,-821.938 290.183,-818.604"/>
</g>
<!-- p17 -->
<g id="node13" class="node"><title>p17</title>
<ellipse fill="none" stroke="black" cx="581" cy="-646" rx="3.25" ry="3.5"/>
<text text-anchor="middle" x="564" y="-653.3" font-family="Times,serif" font-size="14.00">mix</text>
</g>
<!-- p10&#45;&gt;p17 -->
<g id="edge13" class="edge"><title>p10&#45;&gt;p17</title>
<path fill="none" stroke="black" d="M581,-716.265C581,-707.133 581,-677.282 581,-659.892"/>
<polygon fill="black" stroke="black" points="584.5,-659.737 581,-649.737 577.5,-659.737 584.5,-659.737"/>
<text text-anchor="middle" x="620" y="-672.3" font-family="Times,serif" font-size="14.00">version_ch</text>
</g>
<!-- p12 -->
<g id="node10" class="node"><title>p12</title>
<ellipse fill="none" stroke="black" cx="303" cy="-720" rx="225.295" ry="18"/>
<text text-anchor="middle" x="303" y="-716.3" font-family="Times,serif" font-size="14.00">MOSDEPTH_BAMS_01:MOSDEPTH_RUN_01</text>
</g>
<!-- p7&#45;&gt;p12 -->
<g id="edge9" class="edge"><title>p7&#45;&gt;p12</title>
<path fill="none" stroke="black" d="M281.635,-804.519C283.742,-796.283 290.677,-769.173 296.081,-748.048"/>
<polygon fill="black" stroke="black" points="299.495,-748.823 298.583,-738.268 292.713,-747.088 299.495,-748.823"/>
<text text-anchor="middle" x="307.5" y="-760.3" font-family="Times,serif" font-size="14.00">ch1</text>
</g>
<!-- p16 -->
<g id="node15" class="node"><title>p16</title>
<ellipse fill="black" stroke="black" cx="335" cy="-646" rx="1.8" ry="1.8"/>
</g>
<!-- p12&#45;&gt;p16 -->
<g id="edge15" class="edge"><title>p12&#45;&gt;p16</title>
<path fill="none" stroke="black" d="M310.584,-701.937C316.747,-688.069 325.241,-668.958 330.414,-657.319"/>
<polygon fill="black" stroke="black" points="333.759,-658.409 334.623,-647.849 327.363,-655.566 333.759,-658.409"/>
<text text-anchor="middle" x="361.5" y="-672.3" font-family="Times,serif" font-size="14.00">globaldist</text>
</g>
<!-- p15 -->
<g id="node16" class="node"><title>p15</title>
<ellipse fill="black" stroke="black" cx="421" cy="-646" rx="1.8" ry="1.8"/>
</g>
<!-- p12&#45;&gt;p15 -->
<g id="edge16" class="edge"><title>p12&#45;&gt;p15</title>
<path fill="none" stroke="black" d="M369.609,-702.719C380.888,-697.944 391.882,-691.823 401,-684 409.146,-677.01 414.532,-665.848 417.641,-657.61"/>
<polygon fill="black" stroke="black" points="420.972,-658.682 420.723,-648.091 414.312,-656.526 420.972,-658.682"/>
</g>
<!-- p18 -->
<g id="node17" class="node"><title>p18</title>
<ellipse fill="none" stroke="black" cx="301" cy="-646" rx="3.25" ry="3.5"/>
<text text-anchor="middle" x="282" y="-653.3" font-family="Times,serif" font-size="14.00">map</text>
</g>
<!-- p12&#45;&gt;p18 -->
<g id="edge17" class="edge"><title>p12&#45;&gt;p18</title>
<path fill="none" stroke="black" d="M302.526,-701.937C302.17,-689.126 301.69,-671.843 301.364,-660.107"/>
<polygon fill="black" stroke="black" points="304.853,-659.647 301.076,-649.748 297.855,-659.842 304.853,-659.647"/>
</g>
<!-- p14 -->
<g id="node18" class="node"><title>p14</title>
<ellipse fill="black" stroke="black" cx="204" cy="-646" rx="1.8" ry="1.8"/>
</g>
<!-- p12&#45;&gt;p14 -->
<g id="edge18" class="edge"><title>p12&#45;&gt;p14</title>
<path fill="none" stroke="black" d="M250.751,-702.334C240.762,-697.514 230.954,-691.475 223,-684 215.357,-676.817 210.271,-665.874 207.3,-657.75"/>
<polygon fill="black" stroke="black" points="210.596,-656.565 204.264,-648.071 203.917,-658.66 210.596,-656.565"/>
<text text-anchor="middle" x="252" y="-672.3" font-family="Times,serif" font-size="14.00">perbase</text>
</g>
<!-- p13 -->
<g id="node19" class="node"><title>p13</title>
<ellipse fill="black" stroke="black" cx="277" cy="-646" rx="1.8" ry="1.8"/>
</g>
<!-- p12&#45;&gt;p13 -->
<g id="edge19" class="edge"><title>p12&#45;&gt;p13</title>
<path fill="none" stroke="black" d="M296.838,-701.937C291.83,-688.069 284.929,-668.958 280.726,-657.319"/>
<polygon fill="black" stroke="black" points="283.995,-656.066 277.307,-647.849 277.411,-658.444 283.995,-656.066"/>
</g>
<!-- p12&#45;&gt;p17 -->
<g id="edge20" class="edge"><title>p12&#45;&gt;p17</title>
<path fill="none" stroke="black" d="M366.083,-702.662C432.855,-685.368 533.344,-659.342 568.401,-650.263"/>
<polygon fill="black" stroke="black" points="569.369,-653.628 578.172,-647.732 567.614,-646.851 569.369,-653.628"/>
</g>
<!-- p8 -->
<g id="node11" class="node"><title>p8</title>
<ellipse fill="black" stroke="black" cx="567" cy="-882" rx="3.6" ry="3.6"/>
</g>
<!-- p9 -->
<g id="node12" class="node"><title>p9</title>
<ellipse fill="none" stroke="black" cx="567" cy="-808" rx="264.29" ry="18"/>
<text text-anchor="middle" x="567" y="-804.3" font-family="Times,serif" font-size="14.00">MOSDEPTH_BAMS_01:MOSDEPTH_DOWNLOAD_01</text>
</g>
<!-- p8&#45;&gt;p9 -->
<g id="edge10" class="edge"><title>p8&#45;&gt;p9</title>
<path fill="none" stroke="black" d="M567,-878.265C567,-871.354 567,-852.578 567,-836.316"/>
<polygon fill="black" stroke="black" points="570.5,-836.143 567,-826.143 563.5,-836.143 570.5,-836.143"/>
<text text-anchor="middle" x="585.5" y="-848.3" font-family="Times,serif" font-size="14.00">meta</text>
</g>
<!-- p9&#45;&gt;p12 -->
<g id="edge11" class="edge"><title>p9&#45;&gt;p12</title>
<path fill="none" stroke="black" d="M515.785,-790.316C472.248,-776.134 409.661,-755.746 363.631,-740.751"/>
<polygon fill="black" stroke="black" points="364.665,-737.407 354.072,-737.637 362.496,-744.063 364.665,-737.407"/>
</g>
<!-- p9&#45;&gt;p10 -->
<g id="edge12" class="edge"><title>p9&#45;&gt;p10</title>
<path fill="none" stroke="black" d="M569.833,-789.597C572.527,-773.046 576.517,-748.54 578.926,-733.737"/>
<polygon fill="black" stroke="black" points="582.413,-734.104 580.565,-723.671 575.504,-732.979 582.413,-734.104"/>
</g>
<!-- p22 -->
<g id="node20" class="node"><title>p22</title>
<ellipse fill="none" stroke="black" cx="527" cy="-438" rx="3.25" ry="3.5"/>
<text text-anchor="middle" x="510" y="-445.3" font-family="Times,serif" font-size="14.00">mix</text>
</g>
<!-- p17&#45;&gt;p22 -->
<g id="edge21" class="edge"><title>p17&#45;&gt;p22</title>
<path fill="none" stroke="black" d="M581.21,-642.298C582.231,-627.985 585.973,-559.723 569,-508 565.021,-495.874 545.471,-466.115 534.502,-449.924"/>
<polygon fill="black" stroke="black" points="537.112,-447.54 528.575,-441.265 531.336,-451.494 537.112,-447.54"/>
<text text-anchor="middle" x="621" y="-566.3" font-family="Times,serif" font-size="14.00">version_ch</text>
</g>
<!-- p11 -->
<g id="node14" class="node"><title>p11</title>
<ellipse fill="black" stroke="black" cx="243" cy="-808" rx="3.6" ry="3.6"/>
</g>
<!-- p11&#45;&gt;p12 -->
<g id="edge14" class="edge"><title>p11&#45;&gt;p12</title>
<path fill="none" stroke="black" d="M242.602,-803.953C241.665,-795.568 240.098,-771.732 250,-756 252.756,-751.621 256.282,-747.672 260.204,-744.141"/>
<polygon fill="black" stroke="black" points="262.464,-746.816 268.134,-737.866 258.12,-741.327 262.464,-746.816"/>
<text text-anchor="middle" x="268.5" y="-760.3" font-family="Times,serif" font-size="14.00">meta</text>
</g>
<!-- p19 -->
<g id="node21" class="node"><title>p19</title>
<ellipse fill="none" stroke="black" cx="284" cy="-600" rx="3.25" ry="3.5"/>
<text text-anchor="middle" x="256" y="-607.3" font-family="Times,serif" font-size="14.00">collect</text>
</g>
<!-- p18&#45;&gt;p19 -->
<g id="edge22" class="edge"><title>p18&#45;&gt;p19</title>
<path fill="none" stroke="black" d="M300.086,-642.634C297.961,-637.135 292.57,-623.181 288.612,-612.937"/>
<polygon fill="black" stroke="black" points="291.872,-611.663 285.003,-603.596 285.342,-614.186 291.872,-611.663"/>
</g>
<!-- p26 -->
<g id="node25" class="node"><title>p26</title>
<ellipse fill="none" stroke="black" cx="561" cy="-364" rx="3.25" ry="3.5"/>
<text text-anchor="middle" x="544" y="-371.3" font-family="Times,serif" font-size="14.00">mix</text>
</g>
<!-- p22&#45;&gt;p26 -->
<g id="edge27" class="edge"><title>p22&#45;&gt;p26</title>
<path fill="none" stroke="black" d="M528.131,-434.604C532.325,-425.723 547.169,-394.289 555.4,-376.859"/>
<polygon fill="black" stroke="black" points="558.724,-378.015 559.83,-367.478 552.395,-375.026 558.724,-378.015"/>
<text text-anchor="middle" x="590" y="-390.3" font-family="Times,serif" font-size="14.00">version_ch</text>
</g>
<!-- p21 -->
<g id="node22" class="node"><title>p21</title>
<ellipse fill="none" stroke="black" cx="280" cy="-526" rx="280.188" ry="18"/>
<text text-anchor="middle" x="280" y="-522.3" font-family="Times,serif" font-size="14.00">MOSDEPTH_BAMS_01:MERGE_MOSDEPTH_SUMMARY</text>
</g>
<!-- p19&#45;&gt;p21 -->
<g id="edge23" class="edge"><title>p19&#45;&gt;p21</title>
<path fill="none" stroke="black" d="M283.848,-596.265C283.464,-589.354 282.421,-570.578 281.518,-554.316"/>
<polygon fill="black" stroke="black" points="285.002,-553.933 280.952,-544.143 278.013,-554.322 285.002,-553.933"/>
</g>
<!-- p25 -->
<g id="node24" class="node"><title>p25</title>
<ellipse fill="none" stroke="black" cx="714" cy="-438" rx="165.128" ry="18"/>
<text text-anchor="middle" x="714" y="-434.3" font-family="Times,serif" font-size="14.00">MOSDEPTH_BAMS_01:PLOT_IT</text>
</g>
<!-- p21&#45;&gt;p25 -->
<g id="edge25" class="edge"><title>p21&#45;&gt;p25</title>
<path fill="none" stroke="black" d="M361.887,-508.774C437.939,-493.703 550.764,-471.346 628.082,-456.025"/>
<polygon fill="black" stroke="black" points="629.146,-459.382 638.275,-454.005 627.786,-452.516 629.146,-459.382"/>
<text text-anchor="middle" x="569.5" y="-478.3" font-family="Times,serif" font-size="14.00">summary</text>
</g>
<!-- p21&#45;&gt;p22 -->
<g id="edge26" class="edge"><title>p21&#45;&gt;p22</title>
<path fill="none" stroke="black" d="M328.21,-508.214C386.228,-488.014 480.093,-455.332 514.143,-443.477"/>
<polygon fill="black" stroke="black" points="515.511,-446.706 523.804,-440.113 513.209,-440.096 515.511,-446.706"/>
</g>
<!-- p38 -->
<g id="node39" class="node"><title>p38</title>
<ellipse fill="none" stroke="black" cx="539" cy="-60" rx="56.3173" ry="18"/>
<text text-anchor="middle" x="539" y="-56.3" font-family="Times,serif" font-size="14.00">PUBLISH</text>
</g>
<!-- p21&#45;&gt;p38 -->
<g id="edge46" class="edge"><title>p21&#45;&gt;p38</title>
<path fill="none" stroke="black" d="M279.684,-507.868C279.391,-490.512 279,-462.891 279,-439 279,-439 279,-439 279,-133 279,-92.4893 397.714,-73.8514 474.708,-66.0236"/>
<polygon fill="black" stroke="black" points="475.201,-69.4922 484.812,-65.0336 474.518,-62.5255 475.201,-69.4922"/>
<text text-anchor="middle" x="312.5" y="-296.3" font-family="Times,serif" font-size="14.00">summary</text>
</g>
<!-- p20 -->
<g id="node23" class="node"><title>p20</title>
<ellipse fill="black" stroke="black" cx="313" cy="-600" rx="3.6" ry="3.6"/>
</g>
<!-- p20&#45;&gt;p21 -->
<g id="edge24" class="edge"><title>p20&#45;&gt;p21</title>
<path fill="none" stroke="black" d="M311.747,-596.265C308.519,-589.222 299.644,-569.859 292.095,-553.39"/>
<polygon fill="black" stroke="black" points="295.205,-551.775 287.857,-544.143 288.842,-554.692 295.205,-551.775"/>
<text text-anchor="middle" x="322.5" y="-566.3" font-family="Times,serif" font-size="14.00">meta</text>
</g>
<!-- p27 -->
<g id="node27" class="node"><title>p27</title>
<ellipse fill="none" stroke="black" cx="754" cy="-364" rx="3.25" ry="3.5"/>
<text text-anchor="middle" x="737" y="-371.3" font-family="Times,serif" font-size="14.00">mix</text>
</g>
<!-- p25&#45;&gt;p27 -->
<g id="edge30" class="edge"><title>p25&#45;&gt;p27</title>
<path fill="none" stroke="black" d="M723.479,-419.937C730.965,-406.464 741.198,-388.043 747.705,-376.332"/>
<polygon fill="black" stroke="black" points="750.932,-377.73 752.728,-367.289 744.812,-374.331 750.932,-377.73"/>
</g>
<!-- p28 -->
<g id="node29" class="node"><title>p28</title>
<ellipse fill="none" stroke="black" cx="754" cy="-300" rx="3.25" ry="3.5"/>
<text text-anchor="middle" x="737" y="-307.3" font-family="Times,serif" font-size="14.00">mix</text>
</g>
<!-- p25&#45;&gt;p28 -->
<g id="edge31" class="edge"><title>p25&#45;&gt;p28</title>
<path fill="none" stroke="black" d="M719.066,-419.776C727.229,-392.02 743.104,-338.045 750.298,-313.587"/>
<polygon fill="black" stroke="black" points="753.718,-314.363 753.182,-303.782 747.002,-312.388 753.718,-314.363"/>
</g>
<!-- p25&#45;&gt;p26 -->
<g id="edge32" class="edge"><title>p25&#45;&gt;p26</title>
<path fill="none" stroke="black" d="M690.877,-420.001C675.182,-409.088 653.61,-395.274 633,-386 613.347,-377.156 589.009,-370.97 574.26,-367.701"/>
<polygon fill="black" stroke="black" points="574.63,-364.203 564.126,-365.587 573.201,-371.056 574.63,-364.203"/>
</g>
<!-- p29 -->
<g id="node30" class="node"><title>p29</title>
<ellipse fill="none" stroke="black" cx="561" cy="-300" rx="3.25" ry="3.5"/>
<text text-anchor="middle" x="533" y="-307.3" font-family="Times,serif" font-size="14.00">collect</text>
</g>
<!-- p26&#45;&gt;p29 -->
<g id="edge33" class="edge"><title>p26&#45;&gt;p29</title>
<path fill="none" stroke="black" d="M561,-360.336C561,-352.448 561,-328.832 561,-313.881"/>
<polygon fill="black" stroke="black" points="564.5,-313.585 561,-303.585 557.5,-313.585 564.5,-313.585"/>
<text text-anchor="middle" x="600" y="-330.3" font-family="Times,serif" font-size="14.00">version_ch</text>
</g>
<!-- p23 -->
<g id="node26" class="node"><title>p23</title>
<ellipse fill="black" stroke="black" cx="901" cy="-438" rx="3.6" ry="3.6"/>
<text text-anchor="middle" x="951.9" y="-445.4" font-family="Times,serif" font-size="14.00">Channel.empty</text>
</g>
<!-- p23&#45;&gt;p27 -->
<g id="edge28" class="edge"><title>p23&#45;&gt;p27</title>
<path fill="none" stroke="black" d="M899.506,-434.222C897.389,-430.521 893.191,-423.977 888,-420 849.405,-390.433 792.678,-374.156 767.219,-367.958"/>
<polygon fill="black" stroke="black" points="767.76,-364.492 757.231,-365.665 766.194,-371.314 767.76,-364.492"/>
<text text-anchor="middle" x="881.5" y="-390.3" font-family="Times,serif" font-size="14.00">pdf_ch</text>
</g>
<!-- p27&#45;&gt;p28 -->
<g id="edge34" class="edge"><title>p27&#45;&gt;p28</title>
<path fill="none" stroke="black" d="M754,-360.336C754,-352.448 754,-328.832 754,-313.881"/>
<polygon fill="black" stroke="black" points="757.5,-313.585 754,-303.585 750.5,-313.585 757.5,-313.585"/>
<text text-anchor="middle" x="778.5" y="-330.3" font-family="Times,serif" font-size="14.00">pdf_ch</text>
</g>
<!-- p24 -->
<g id="node28" class="node"><title>p24</title>
<ellipse fill="black" stroke="black" cx="714" cy="-526" rx="3.6" ry="3.6"/>
</g>
<!-- p24&#45;&gt;p25 -->
<g id="edge29" class="edge"><title>p24&#45;&gt;p25</title>
<path fill="none" stroke="black" d="M714,-522.139C714,-513.502 714,-487.011 714,-466.227"/>
<polygon fill="black" stroke="black" points="717.5,-466.004 714,-456.004 710.5,-466.004 717.5,-466.004"/>
<text text-anchor="middle" x="732.5" y="-478.3" font-family="Times,serif" font-size="14.00">meta</text>
</g>
<!-- p34 -->
<g id="node31" class="node"><title>p34</title>
<ellipse fill="none" stroke="black" cx="786" cy="-222" rx="3.25" ry="3.5"/>
<text text-anchor="middle" x="758" y="-229.3" font-family="Times,serif" font-size="14.00">collect</text>
</g>
<!-- p28&#45;&gt;p34 -->
<g id="edge35" class="edge"><title>p28&#45;&gt;p34</title>
<path fill="none" stroke="black" d="M755.065,-296.471C759.05,-287.006 773.252,-253.276 780.951,-234.991"/>
<polygon fill="black" stroke="black" points="784.244,-236.191 784.898,-225.616 777.792,-233.474 784.244,-236.191"/>
<text text-anchor="middle" x="794.5" y="-262.3" font-family="Times,serif" font-size="14.00">pdf_ch</text>
</g>
<!-- p33 -->
<g id="node32" class="node"><title>p33</title>
<ellipse fill="none" stroke="black" cx="519" cy="-222" rx="211.322" ry="18"/>
<text text-anchor="middle" x="519" y="-218.3" font-family="Times,serif" font-size="14.00">MOSDEPTH_BAMS_01:MERGE_VERSION</text>
</g>
<!-- p29&#45;&gt;p33 -->
<g id="edge36" class="edge"><title>p29&#45;&gt;p33</title>
<path fill="none" stroke="black" d="M560.415,-296.277C558.889,-289.5 554.382,-271.452 547,-258 545.17,-254.666 543.019,-251.329 540.735,-248.112"/>
<polygon fill="black" stroke="black" points="543.361,-245.784 534.51,-239.961 537.798,-250.033 543.361,-245.784"/>
</g>
<!-- p37 -->
<g id="node37" class="node"><title>p37</title>
<ellipse fill="none" stroke="black" cx="803" cy="-134" rx="3.25" ry="3.5"/>
<text text-anchor="middle" x="824" y="-141.3" font-family="Times,serif" font-size="14.00">collect</text>
</g>
<!-- p34&#45;&gt;p37 -->
<g id="edge41" class="edge"><title>p34&#45;&gt;p37</title>
<path fill="none" stroke="black" d="M786.49,-218.519C788.528,-208.21 796.41,-168.336 800.502,-147.635"/>
<polygon fill="black" stroke="black" points="803.969,-148.148 802.474,-137.659 797.101,-146.791 803.969,-148.148"/>
<text text-anchor="middle" x="808" y="-174.3" font-family="Times,serif" font-size="14.00">pdf</text>
</g>
<!-- p36 -->
<g id="node36" class="node"><title>p36</title>
<ellipse fill="none" stroke="black" cx="670" cy="-134" rx="111.186" ry="18"/>
<text text-anchor="middle" x="670" y="-130.3" font-family="Times,serif" font-size="14.00">VERSION_TO_HTML</text>
</g>
<!-- p33&#45;&gt;p36 -->
<g id="edge40" class="edge"><title>p33&#45;&gt;p36</title>
<path fill="none" stroke="black" d="M548.833,-204.009C572.744,-190.391 606.443,-171.198 632.235,-156.509"/>
<polygon fill="black" stroke="black" points="634.041,-159.508 640.999,-151.517 630.577,-153.425 634.041,-159.508"/>
</g>
<!-- p33&#45;&gt;p38 -->
<g id="edge45" class="edge"><title>p33&#45;&gt;p38</title>
<path fill="none" stroke="black" d="M509.639,-203.938C499.36,-182.884 485.606,-146.171 496,-116 499.869,-104.77 507.077,-94.0776 514.501,-85.1574"/>
<polygon fill="black" stroke="black" points="517.276,-87.3038 521.29,-77.4989 512.037,-82.6603 517.276,-87.3038"/>
<text text-anchor="middle" x="522.5" y="-130.3" font-family="Times,serif" font-size="14.00">version</text>
</g>
<!-- p30 -->
<g id="node33" class="node"><title>p30</title>
<ellipse fill="black" stroke="black" cx="509" cy="-300" rx="3.6" ry="3.6"/>
</g>
<!-- p30&#45;&gt;p33 -->
<g id="edge37" class="edge"><title>p30&#45;&gt;p33</title>
<path fill="none" stroke="black" d="M508.86,-296.393C508.553,-289.88 508.001,-272.387 510,-258 510.355,-255.444 510.828,-252.807 511.373,-250.179"/>
<polygon fill="black" stroke="black" points="514.815,-250.829 513.724,-240.291 508.005,-249.21 514.815,-250.829"/>
<text text-anchor="middle" x="528.5" y="-262.3" font-family="Times,serif" font-size="14.00">meta</text>
</g>
<!-- p31 -->
<g id="node34" class="node"><title>p31</title>
<ellipse fill="black" stroke="black" cx="446" cy="-300" rx="3.6" ry="3.6"/>
</g>
<!-- p31&#45;&gt;p33 -->
<g id="edge38" class="edge"><title>p31&#45;&gt;p33</title>
<path fill="none" stroke="black" d="M446.735,-296.108C448.673,-288.946 454.509,-270.086 465,-258 468.847,-253.568 473.389,-249.481 478.179,-245.784"/>
<polygon fill="black" stroke="black" points="480.275,-248.588 486.394,-239.939 476.217,-242.884 480.275,-248.588"/>
<text text-anchor="middle" x="485" y="-262.3" font-family="Times,serif" font-size="14.00">name</text>
</g>
<!-- p32 -->
<g id="node35" class="node"><title>p32</title>
<ellipse fill="black" stroke="black" cx="594" cy="-300" rx="3.6" ry="3.6"/>
</g>
<!-- p32&#45;&gt;p33 -->
<g id="edge39" class="edge"><title>p32&#45;&gt;p33</title>
<path fill="none" stroke="black" d="M592.652,-296.592C588.869,-289.958 577.598,-271.044 565,-258 561.166,-254.03 556.856,-250.15 552.452,-246.505"/>
<polygon fill="black" stroke="black" points="554.521,-243.68 544.504,-240.229 550.183,-249.174 554.521,-243.68"/>
<text text-anchor="middle" x="620" y="-262.3" font-family="Times,serif" font-size="14.00">description</text>
</g>
<!-- p36&#45;&gt;p38 -->
<g id="edge43" class="edge"><title>p36&#45;&gt;p38</title>
<path fill="none" stroke="black" d="M639.946,-116.482C620.687,-105.897 595.578,-92.0963 575.22,-80.9072"/>
<polygon fill="black" stroke="black" points="576.688,-77.7205 566.239,-75.971 573.317,-83.855 576.688,-77.7205"/>
</g>
<!-- p37&#45;&gt;p38 -->
<g id="edge44" class="edge"><title>p37&#45;&gt;p38</title>
<path fill="none" stroke="black" d="M801.862,-130.593C799.96,-126.847 795.767,-119.671 790,-116 734.051,-80.3879 658.434,-67.5893 604.862,-63.1172"/>
<polygon fill="black" stroke="black" points="605.027,-59.6197 594.79,-62.3525 604.497,-66.5996 605.027,-59.6197"/>
</g>
<!-- p35 -->
<g id="node38" class="node"><title>p35</title>
<ellipse fill="black" stroke="black" cx="752" cy="-222" rx="3.6" ry="3.6"/>
</g>
<!-- p35&#45;&gt;p36 -->
<g id="edge42" class="edge"><title>p35&#45;&gt;p36</title>
<path fill="none" stroke="black" d="M750.247,-218.499C747.837,-215.11 743.308,-208.92 739,-204 725.38,-188.444 709.064,-172.037 695.718,-159.127"/>
<polygon fill="black" stroke="black" points="697.886,-156.358 688.246,-151.963 693.042,-161.41 697.886,-156.358"/>
<text text-anchor="middle" x="738.5" y="-174.3" font-family="Times,serif" font-size="14.00">meta</text>
</g>
<!-- p39 -->
<g id="node40" class="node"><title>p39</title>
<ellipse fill="black" stroke="black" cx="539" cy="-2" rx="1.8" ry="1.8"/>
</g>
<!-- p38&#45;&gt;p39 -->
<g id="edge47" class="edge"><title>p38&#45;&gt;p39</title>
<path fill="none" stroke="black" d="M539,-41.8939C539,-32.8876 539,-22.0999 539,-14.1727"/>
<polygon fill="black" stroke="black" points="542.5,-13.9957 539,-3.99575 535.5,-13.9958 542.5,-13.9957"/>
</g>
</g>
</svg>
