<?xml version="1.0" encoding="UTF-8" standalone="no"?>
<!DOCTYPE svg PUBLIC "-//W3C//DTD SVG 1.1//EN"
 "http://www.w3.org/Graphics/SVG/1.1/DTD/svg11.dtd">
<!-- Generated by graphviz version 2.30.1 (20201013.1554)
 -->
<!-- Title: 20220712rotavirusremapworkflow Pages: 1 -->
<svg width="889pt" height="1088pt"
 viewBox="0.00 0.00 889.00 1088.00" xmlns="http://www.w3.org/2000/svg" xmlns:xlink="http://www.w3.org/1999/xlink">
<g id="graph0" class="graph" transform="scale(1 1) rotate(0) translate(4 1084)">
<title>20220712rotavirusremapworkflow</title>
<polygon fill="white" stroke="white" points="-4,5 -4,-1084 886,-1084 886,5 -4,5"/>
<!-- p0 -->
<g id="node1" class="node"><title>p0</title>
<ellipse fill="black" stroke="black" cx="442" cy="-942" rx="3.6" ry="3.6"/>
<text text-anchor="middle" x="386.9" y="-949.4" font-family="Times,serif" font-size="14.00">Channel.fromPath</text>
</g>
<!-- p8 -->
<g id="node2" class="node"><title>p8</title>
<ellipse fill="none" stroke="black" cx="409" cy="-882" rx="3.25" ry="3.5"/>
<text text-anchor="middle" x="381" y="-889.3" font-family="Times,serif" font-size="14.00">combine</text>
</g>
<!-- p0&#45;&gt;p8 -->
<g id="edge1" class="edge"><title>p0&#45;&gt;p8</title>
<path fill="none" stroke="black" d="M440.582,-938.508C436.299,-930.98 423.302,-908.138 415.379,-894.212"/>
<polygon fill="black" stroke="black" points="418.363,-892.379 410.376,-885.418 412.279,-895.841 418.363,-892.379"/>
<text text-anchor="middle" x="440.5" y="-908.3" font-family="Times,serif" font-size="14.00">bed</text>
</g>
<!-- p9 -->
<g id="node11" class="node"><title>p9</title>
<ellipse fill="none" stroke="black" cx="211" cy="-808" rx="3.25" ry="3.5"/>
<text text-anchor="middle" x="195" y="-815.3" font-family="Times,serif" font-size="14.00">map</text>
</g>
<!-- p8&#45;&gt;p9 -->
<g id="edge10" class="edge"><title>p8&#45;&gt;p9</title>
<path fill="none" stroke="black" d="M405.913,-880.493C388.131,-877.482 297.271,-860.89 232,-826 228.075,-823.902 224.175,-821.024 220.821,-818.233"/>
<polygon fill="black" stroke="black" points="222.987,-815.471 213.243,-811.312 218.267,-820.64 222.987,-815.471"/>
</g>
<!-- p1 -->
<g id="node3" class="node"><title>p1</title>
<ellipse fill="black" stroke="black" cx="683" cy="-882" rx="3.6" ry="3.6"/>
<text text-anchor="middle" x="636.9" y="-889.4" font-family="Times,serif" font-size="14.00">Channel.empty</text>
</g>
<!-- p6 -->
<g id="node4" class="node"><title>p6</title>
<ellipse fill="none" stroke="black" cx="759" cy="-808" rx="3.25" ry="3.5"/>
<text text-anchor="middle" x="766.5" y="-815.3" font-family="Times,serif" font-size="14.00">mix</text>
</g>
<!-- p1&#45;&gt;p6 -->
<g id="edge2" class="edge"><title>p1&#45;&gt;p6</title>
<path fill="none" stroke="black" d="M682.115,-878.325C680.11,-871.71 675.987,-854.375 684,-844 701.539,-821.291 722.322,-842.207 746,-826 748.38,-824.371 750.512,-822.167 752.327,-819.886"/>
<polygon fill="black" stroke="black" points="755.348,-821.661 757.832,-811.361 749.467,-817.863 755.348,-821.661"/>
<text text-anchor="middle" x="714.5" y="-848.3" font-family="Times,serif" font-size="14.00">version_ch</text>
</g>
<!-- p12 -->
<g id="node10" class="node"><title>p12</title>
<ellipse fill="none" stroke="black" cx="527" cy="-720" rx="3.25" ry="3.5"/>
<text text-anchor="middle" x="512.5" y="-727.3" font-family="Times,serif" font-size="14.00">mix</text>
</g>
<!-- p6&#45;&gt;p12 -->
<g id="edge8" class="edge"><title>p6&#45;&gt;p12</title>
<path fill="none" stroke="black" d="M757.822,-804.654C755.864,-800.99 751.597,-793.925 746,-790 678.563,-742.707 577.317,-726.807 540.772,-722.432"/>
<polygon fill="black" stroke="black" points="540.737,-718.908 530.417,-721.306 539.98,-725.867 540.737,-718.908"/>
<text text-anchor="middle" x="744.5" y="-760.3" font-family="Times,serif" font-size="14.00">version_ch</text>
</g>
<!-- p2 -->
<g id="node5" class="node"><title>p2</title>
<ellipse fill="black" stroke="black" cx="615" cy="-1076" rx="3.6" ry="3.6"/>
</g>
<!-- p5 -->
<g id="node6" class="node"><title>p5</title>
<ellipse fill="none" stroke="black" cx="666" cy="-1002" rx="215.172" ry="18"/>
<text text-anchor="middle" x="666" y="-998.3" font-family="Times,serif" font-size="14.00">MOSDEPTH_BAMS_01:SAMTOOLS_SAMPLES01</text>
</g>
<!-- p2&#45;&gt;p5 -->
<g id="edge3" class="edge"><title>p2&#45;&gt;p5</title>
<path fill="none" stroke="black" d="M615.992,-1072.54C618.519,-1066.41 625.591,-1050.1 634,-1038 636.432,-1034.5 639.189,-1030.99 642.039,-1027.61"/>
<polygon fill="black" stroke="black" points="644.739,-1029.84 648.752,-1020.03 639.5,-1025.19 644.739,-1029.84"/>
<text text-anchor="middle" x="648" y="-1042.3" font-family="Times,serif" font-size="14.00">meta</text>
</g>
<!-- p7 -->
<g id="node9" class="node"><title>p7</title>
<ellipse fill="none" stroke="black" cx="413" cy="-942" rx="3.25" ry="3.5"/>
<text text-anchor="middle" x="386.5" y="-927.3" font-family="Times,serif" font-size="14.00">splitCsv</text>
</g>
<!-- p5&#45;&gt;p7 -->
<g id="edge6" class="edge"><title>p5&#45;&gt;p7</title>
<path fill="none" stroke="black" d="M595.861,-984.921C536.738,-971.367 456.967,-953.079 426.022,-945.985"/>
<polygon fill="black" stroke="black" points="426.723,-942.555 416.194,-943.732 425.159,-949.378 426.723,-942.555"/>
</g>
<!-- p5&#45;&gt;p6 -->
<g id="edge7" class="edge"><title>p5&#45;&gt;p6</title>
<path fill="none" stroke="black" d="M677.405,-983.884C694.214,-958.017 725.724,-906.987 745,-860 750.153,-847.439 754.024,-832.372 756.375,-821.886"/>
<polygon fill="black" stroke="black" points="759.854,-822.347 758.473,-811.843 753.002,-820.916 759.854,-822.347"/>
</g>
<!-- p3 -->
<g id="node7" class="node"><title>p3</title>
<ellipse fill="black" stroke="black" cx="666" cy="-1076" rx="3.6" ry="3.6"/>
</g>
<!-- p3&#45;&gt;p5 -->
<g id="edge4" class="edge"><title>p3&#45;&gt;p5</title>
<path fill="none" stroke="black" d="M666,-1072.27C666,-1065.35 666,-1046.58 666,-1030.32"/>
<polygon fill="black" stroke="black" points="669.5,-1030.14 666,-1020.14 662.5,-1030.14 669.5,-1030.14"/>
<text text-anchor="middle" x="692" y="-1042.3" font-family="Times,serif" font-size="14.00">reference</text>
</g>
<!-- p4 -->
<g id="node8" class="node"><title>p4</title>
<ellipse fill="black" stroke="black" cx="741" cy="-1076" rx="3.6" ry="3.6"/>
</g>
<!-- p4&#45;&gt;p5 -->
<g id="edge5" class="edge"><title>p4&#45;&gt;p5</title>
<path fill="none" stroke="black" d="M739.948,-1072.41C737.245,-1065.98 729.523,-1049.03 719,-1038 714.856,-1033.66 710.076,-1029.58 705.12,-1025.84"/>
<polygon fill="black" stroke="black" points="706.883,-1022.8 696.692,-1019.91 702.852,-1028.53 706.883,-1022.8"/>
<text text-anchor="middle" x="745.5" y="-1042.3" font-family="Times,serif" font-size="14.00">bams</text>
</g>
<!-- p7&#45;&gt;p8 -->
<g id="edge9" class="edge"><title>p7&#45;&gt;p8</title>
<path fill="none" stroke="black" d="M412.807,-938.203C412.286,-930.649 410.826,-909.48 409.873,-895.66"/>
<polygon fill="black" stroke="black" points="413.362,-895.371 409.182,-885.636 406.378,-895.853 413.362,-895.371"/>
</g>
<!-- p19 -->
<g id="node15" class="node"><title>p19</title>
<ellipse fill="none" stroke="black" cx="527" cy="-646" rx="3.25" ry="3.5"/>
<text text-anchor="middle" x="512.5" y="-653.3" font-family="Times,serif" font-size="14.00">mix</text>
</g>
<!-- p12&#45;&gt;p19 -->
<g id="edge15" class="edge"><title>p12&#45;&gt;p19</title>
<path fill="none" stroke="black" d="M527,-716.265C527,-707.133 527,-677.282 527,-659.892"/>
<polygon fill="black" stroke="black" points="530.5,-659.737 527,-649.737 523.5,-659.737 530.5,-659.737"/>
<text text-anchor="middle" x="557.5" y="-672.3" font-family="Times,serif" font-size="14.00">version_ch</text>
</g>
<!-- p14 -->
<g id="node12" class="node"><title>p14</title>
<ellipse fill="none" stroke="black" cx="250" cy="-720" rx="199.298" ry="18"/>
<text text-anchor="middle" x="250" y="-716.3" font-family="Times,serif" font-size="14.00">MOSDEPTH_BAMS_01:MOSDEPTH_RUN_01</text>
</g>
<!-- p9&#45;&gt;p14 -->
<g id="edge11" class="edge"><title>p9&#45;&gt;p14</title>
<path fill="none" stroke="black" d="M211.25,-804.095C212.03,-796.075 214.872,-773.084 223,-756 224.53,-752.784 226.393,-749.584 228.417,-746.5"/>
<polygon fill="black" stroke="black" points="231.395,-748.354 234.408,-738.197 225.718,-744.258 231.395,-748.354"/>
<text text-anchor="middle" x="233.5" y="-760.3" font-family="Times,serif" font-size="14.00">ch1</text>
</g>
<!-- p18 -->
<g id="node17" class="node"><title>p18</title>
<ellipse fill="black" stroke="black" cx="113" cy="-646" rx="1.8" ry="1.8"/>
</g>
<!-- p14&#45;&gt;p18 -->
<g id="edge17" class="edge"><title>p14&#45;&gt;p18</title>
<path fill="none" stroke="black" d="M172.121,-703.335C159.259,-698.509 146.662,-692.211 136,-684 127.086,-677.135 120.766,-665.756 117.035,-657.426"/>
<polygon fill="black" stroke="black" points="120.283,-656.124 113.359,-648.105 113.771,-658.692 120.283,-656.124"/>
<text text-anchor="middle" x="163.5" y="-672.3" font-family="Times,serif" font-size="14.00">globaldist</text>
</g>
<!-- p17 -->
<g id="node18" class="node"><title>p17</title>
<ellipse fill="black" stroke="black" cx="275" cy="-646" rx="1.8" ry="1.8"/>
</g>
<!-- p14&#45;&gt;p17 -->
<g id="edge18" class="edge"><title>p14&#45;&gt;p17</title>
<path fill="none" stroke="black" d="M255.925,-701.937C260.74,-688.069 267.376,-668.958 271.417,-657.319"/>
<polygon fill="black" stroke="black" points="274.731,-658.444 274.705,-647.849 268.119,-656.148 274.731,-658.444"/>
</g>
<!-- p20 -->
<g id="node19" class="node"><title>p20</title>
<ellipse fill="none" stroke="black" cx="300" cy="-646" rx="3.25" ry="3.5"/>
<text text-anchor="middle" x="284" y="-653.3" font-family="Times,serif" font-size="14.00">map</text>
</g>
<!-- p14&#45;&gt;p20 -->
<g id="edge19" class="edge"><title>p14&#45;&gt;p20</title>
<path fill="none" stroke="black" d="M266.027,-701.783C270.783,-696.295 275.83,-690.068 280,-684 285.537,-675.943 290.752,-666.195 294.468,-658.727"/>
<polygon fill="black" stroke="black" points="297.752,-659.972 298.904,-649.44 291.435,-656.955 297.752,-659.972"/>
</g>
<!-- p16 -->
<g id="node20" class="node"><title>p16</title>
<ellipse fill="black" stroke="black" cx="191" cy="-646" rx="1.8" ry="1.8"/>
</g>
<!-- p14&#45;&gt;p16 -->
<g id="edge20" class="edge"><title>p14&#45;&gt;p16</title>
<path fill="none" stroke="black" d="M220.381,-702.047C213.556,-696.982 206.878,-690.908 202,-684 196.588,-676.336 193.806,-665.989 192.395,-658.185"/>
<polygon fill="black" stroke="black" points="195.833,-657.477 191.067,-648.015 188.891,-658.384 195.833,-657.477"/>
<text text-anchor="middle" x="224" y="-672.3" font-family="Times,serif" font-size="14.00">perbase</text>
</g>
<!-- p15 -->
<g id="node21" class="node"><title>p15</title>
<ellipse fill="black" stroke="black" cx="250" cy="-646" rx="1.8" ry="1.8"/>
</g>
<!-- p14&#45;&gt;p15 -->
<g id="edge21" class="edge"><title>p14&#45;&gt;p15</title>
<path fill="none" stroke="black" d="M250,-701.937C250,-688.37 250,-669.787 250,-658.089"/>
<polygon fill="black" stroke="black" points="253.5,-657.849 250,-647.849 246.5,-657.849 253.5,-657.849"/>
</g>
<!-- p14&#45;&gt;p19 -->
<g id="edge22" class="edge"><title>p14&#45;&gt;p19</title>
<path fill="none" stroke="black" d="M312.164,-702.842C378.65,-685.56 479.265,-659.408 514.378,-650.281"/>
<polygon fill="black" stroke="black" points="515.369,-653.64 524.167,-647.736 513.608,-646.865 515.369,-653.64"/>
</g>
<!-- p10 -->
<g id="node13" class="node"><title>p10</title>
<ellipse fill="black" stroke="black" cx="502" cy="-882" rx="3.6" ry="3.6"/>
</g>
<!-- p11 -->
<g id="node14" class="node"><title>p11</title>
<ellipse fill="none" stroke="black" cx="502" cy="-808" rx="234.919" ry="18"/>
<text text-anchor="middle" x="502" y="-804.3" font-family="Times,serif" font-size="14.00">MOSDEPTH_BAMS_01:MOSDEPTH_DOWNLOAD_01</text>
</g>
<!-- p10&#45;&gt;p11 -->
<g id="edge12" class="edge"><title>p10&#45;&gt;p11</title>
<path fill="none" stroke="black" d="M502,-878.265C502,-871.354 502,-852.578 502,-836.316"/>
<polygon fill="black" stroke="black" points="505.5,-836.143 502,-826.143 498.5,-836.143 505.5,-836.143"/>
<text text-anchor="middle" x="516" y="-848.3" font-family="Times,serif" font-size="14.00">meta</text>
</g>
<!-- p11&#45;&gt;p14 -->
<g id="edge13" class="edge"><title>p11&#45;&gt;p14</title>
<path fill="none" stroke="black" d="M453.113,-790.316C411.596,-776.148 351.93,-755.786 308.004,-740.795"/>
<polygon fill="black" stroke="black" points="308.917,-737.408 298.323,-737.491 306.656,-744.033 308.917,-737.408"/>
</g>
<!-- p11&#45;&gt;p12 -->
<g id="edge14" class="edge"><title>p11&#45;&gt;p12</title>
<path fill="none" stroke="black" d="M507.059,-789.597C511.919,-772.878 519.138,-748.044 523.427,-733.292"/>
<polygon fill="black" stroke="black" points="526.793,-734.251 526.224,-723.671 520.071,-732.297 526.793,-734.251"/>
</g>
<!-- p24 -->
<g id="node22" class="node"><title>p24</title>
<ellipse fill="none" stroke="black" cx="394" cy="-438" rx="3.25" ry="3.5"/>
<text text-anchor="middle" x="379.5" y="-445.3" font-family="Times,serif" font-size="14.00">mix</text>
</g>
<!-- p19&#45;&gt;p24 -->
<g id="edge23" class="edge"><title>p19&#45;&gt;p24</title>
<path fill="none" stroke="black" d="M527.504,-642.376C530.819,-624.22 547.674,-516.753 491,-474 460.172,-450.745 438.249,-477.24 406,-456 403.745,-454.515 401.783,-452.447 400.137,-450.265"/>
<polygon fill="black" stroke="black" points="403.044,-448.301 394.996,-441.41 396.99,-451.816 403.044,-448.301"/>
<text text-anchor="middle" x="562.5" y="-566.3" font-family="Times,serif" font-size="14.00">version_ch</text>
</g>
<!-- p13 -->
<g id="node16" class="node"><title>p13</title>
<ellipse fill="black" stroke="black" cx="245" cy="-808" rx="3.6" ry="3.6"/>
</g>
<!-- p13&#45;&gt;p14 -->
<g id="edge16" class="edge"><title>p13&#45;&gt;p14</title>
<path fill="none" stroke="black" d="M245.166,-804.139C245.669,-795.502 247.209,-769.011 248.417,-748.227"/>
<polygon fill="black" stroke="black" points="251.925,-748.19 249.011,-738.004 244.937,-747.784 251.925,-748.19"/>
<text text-anchor="middle" x="262" y="-760.3" font-family="Times,serif" font-size="14.00">meta</text>
</g>
<!-- p21 -->
<g id="node23" class="node"><title>p21</title>
<ellipse fill="none" stroke="black" cx="295" cy="-600" rx="3.25" ry="3.5"/>
<text text-anchor="middle" x="273" y="-607.3" font-family="Times,serif" font-size="14.00">collect</text>
</g>
<!-- p20&#45;&gt;p21 -->
<g id="edge24" class="edge"><title>p20&#45;&gt;p21</title>
<path fill="none" stroke="black" d="M299.702,-642.379C299.075,-636.864 297.584,-623.742 296.448,-613.742"/>
<polygon fill="black" stroke="black" points="299.897,-613.093 295.29,-603.552 292.942,-613.883 299.897,-613.093"/>
</g>
<!-- p28 -->
<g id="node27" class="node"><title>p28</title>
<ellipse fill="none" stroke="black" cx="487" cy="-364" rx="3.25" ry="3.5"/>
<text text-anchor="middle" x="472.5" y="-371.3" font-family="Times,serif" font-size="14.00">mix</text>
</g>
<!-- p24&#45;&gt;p28 -->
<g id="edge29" class="edge"><title>p24&#45;&gt;p28</title>
<path fill="none" stroke="black" d="M395.481,-434.389C397.549,-430.876 401.553,-424.545 406,-420 427.442,-398.085 458.88,-379.747 475.584,-370.826"/>
<polygon fill="black" stroke="black" points="477.211,-373.925 484.49,-366.225 473.999,-367.705 477.211,-373.925"/>
<text text-anchor="middle" x="478.5" y="-390.3" font-family="Times,serif" font-size="14.00">version_ch</text>
</g>
<!-- p23 -->
<g id="node24" class="node"><title>p23</title>
<ellipse fill="none" stroke="black" cx="250" cy="-526" rx="250.317" ry="18"/>
<text text-anchor="middle" x="250" y="-522.3" font-family="Times,serif" font-size="14.00">MOSDEPTH_BAMS_01:MERGE_MOSDEPTH_SUMMARY</text>
</g>
<!-- p21&#45;&gt;p23 -->
<g id="edge25" class="edge"><title>p21&#45;&gt;p23</title>
<path fill="none" stroke="black" d="M294.305,-596.535C292.512,-590.402 287.353,-574.078 280,-562 278.01,-558.732 275.717,-555.463 273.303,-552.309"/>
<polygon fill="black" stroke="black" points="275.798,-549.83 266.759,-544.304 270.378,-554.261 275.798,-549.83"/>
</g>
<!-- p27 -->
<g id="node26" class="node"><title>p27</title>
<ellipse fill="none" stroke="black" cx="562" cy="-438" rx="146.331" ry="18"/>
<text text-anchor="middle" x="562" y="-434.3" font-family="Times,serif" font-size="14.00">MOSDEPTH_BAMS_01:PLOT_IT</text>
</g>
<!-- p23&#45;&gt;p27 -->
<g id="edge27" class="edge"><title>p23&#45;&gt;p27</title>
<path fill="none" stroke="black" d="M309.788,-508.52C362.952,-493.866 440.575,-472.47 495.641,-457.291"/>
<polygon fill="black" stroke="black" points="496.596,-460.659 505.306,-454.627 494.735,-453.91 496.596,-460.659"/>
<text text-anchor="middle" x="460.5" y="-478.3" font-family="Times,serif" font-size="14.00">summary</text>
</g>
<!-- p23&#45;&gt;p24 -->
<g id="edge28" class="edge"><title>p23&#45;&gt;p24</title>
<path fill="none" stroke="black" d="M278.45,-508.009C310.424,-488.914 360.752,-458.856 382.905,-445.626"/>
<polygon fill="black" stroke="black" points="384.706,-448.627 391.497,-440.495 381.117,-442.618 384.706,-448.627"/>
</g>
<!-- p40 -->
<g id="node41" class="node"><title>p40</title>
<ellipse fill="none" stroke="black" cx="479" cy="-60" rx="49.0941" ry="18"/>
<text text-anchor="middle" x="479" y="-56.3" font-family="Times,serif" font-size="14.00">PUBLISH</text>
</g>
<!-- p23&#45;&gt;p40 -->
<g id="edge48" class="edge"><title>p23&#45;&gt;p40</title>
<path fill="none" stroke="black" d="M249.684,-507.868C249.391,-490.512 249,-462.891 249,-439 249,-439 249,-439 249,-133 249,-96.7835 354.174,-76.6239 422.28,-67.3661"/>
<polygon fill="black" stroke="black" points="422.999,-70.8017 432.456,-66.0258 422.085,-63.8616 422.999,-70.8017"/>
<text text-anchor="middle" x="275.5" y="-296.3" font-family="Times,serif" font-size="14.00">summary</text>
</g>
<!-- p22 -->
<g id="node25" class="node"><title>p22</title>
<ellipse fill="black" stroke="black" cx="250" cy="-600" rx="3.6" ry="3.6"/>
</g>
<!-- p22&#45;&gt;p23 -->
<g id="edge26" class="edge"><title>p22&#45;&gt;p23</title>
<path fill="none" stroke="black" d="M250,-596.265C250,-589.354 250,-570.578 250,-554.316"/>
<polygon fill="black" stroke="black" points="253.5,-554.143 250,-544.143 246.5,-554.143 253.5,-554.143"/>
<text text-anchor="middle" x="264" y="-566.3" font-family="Times,serif" font-size="14.00">meta</text>
</g>
<!-- p29 -->
<g id="node29" class="node"><title>p29</title>
<ellipse fill="none" stroke="black" cx="657" cy="-364" rx="3.25" ry="3.5"/>
<text text-anchor="middle" x="642.5" y="-371.3" font-family="Times,serif" font-size="14.00">mix</text>
</g>
<!-- p27&#45;&gt;p29 -->
<g id="edge32" class="edge"><title>p27&#45;&gt;p29</title>
<path fill="none" stroke="black" d="M588.344,-420.143C596.694,-414.569 605.866,-408.203 614,-402 625.835,-392.975 638.682,-381.711 647.222,-373.997"/>
<polygon fill="black" stroke="black" points="649.738,-376.439 654.75,-367.104 645.011,-371.276 649.738,-376.439"/>
</g>
<!-- p30 -->
<g id="node31" class="node"><title>p30</title>
<ellipse fill="none" stroke="black" cx="657" cy="-300" rx="3.25" ry="3.5"/>
<text text-anchor="middle" x="642.5" y="-307.3" font-family="Times,serif" font-size="14.00">mix</text>
</g>
<!-- p27&#45;&gt;p30 -->
<g id="edge33" class="edge"><title>p27&#45;&gt;p30</title>
<path fill="none" stroke="black" d="M573.84,-420.05C593.681,-391.646 633.085,-335.236 649.524,-311.702"/>
<polygon fill="black" stroke="black" points="652.452,-313.623 655.309,-303.421 646.713,-309.615 652.452,-313.623"/>
</g>
<!-- p27&#45;&gt;p28 -->
<g id="edge34" class="edge"><title>p27&#45;&gt;p28</title>
<path fill="none" stroke="black" d="M548.735,-420.005C540.223,-409.621 528.622,-396.386 517,-386 511.193,-380.811 504.074,-375.779 498.228,-371.943"/>
<polygon fill="black" stroke="black" points="499.971,-368.904 489.64,-366.552 496.249,-374.833 499.971,-368.904"/>
</g>
<!-- p31 -->
<g id="node32" class="node"><title>p31</title>
<ellipse fill="none" stroke="black" cx="487" cy="-300" rx="3.25" ry="3.5"/>
<text text-anchor="middle" x="465" y="-307.3" font-family="Times,serif" font-size="14.00">collect</text>
</g>
<!-- p28&#45;&gt;p31 -->
<g id="edge35" class="edge"><title>p28&#45;&gt;p31</title>
<path fill="none" stroke="black" d="M487,-360.336C487,-352.448 487,-328.832 487,-313.881"/>
<polygon fill="black" stroke="black" points="490.5,-313.585 487,-303.585 483.5,-313.585 490.5,-313.585"/>
<text text-anchor="middle" x="517.5" y="-330.3" font-family="Times,serif" font-size="14.00">version_ch</text>
</g>
<!-- p25 -->
<g id="node28" class="node"><title>p25</title>
<ellipse fill="black" stroke="black" cx="730" cy="-438" rx="3.6" ry="3.6"/>
<text text-anchor="middle" x="768.9" y="-445.4" font-family="Times,serif" font-size="14.00">Channel.empty</text>
</g>
<!-- p25&#45;&gt;p29 -->
<g id="edge30" class="edge"><title>p25&#45;&gt;p29</title>
<path fill="none" stroke="black" d="M728.278,-434.471C725.903,-431.051 721.413,-424.825 717,-420 700.745,-402.228 679.539,-383.741 667.18,-373.369"/>
<polygon fill="black" stroke="black" points="669.365,-370.634 659.428,-366.959 664.904,-376.029 669.365,-370.634"/>
<text text-anchor="middle" x="718" y="-390.3" font-family="Times,serif" font-size="14.00">pdf_ch</text>
</g>
<!-- p29&#45;&gt;p30 -->
<g id="edge36" class="edge"><title>p29&#45;&gt;p30</title>
<path fill="none" stroke="black" d="M657,-360.336C657,-352.448 657,-328.832 657,-313.881"/>
<polygon fill="black" stroke="black" points="660.5,-313.585 657,-303.585 653.5,-313.585 660.5,-313.585"/>
<text text-anchor="middle" x="677" y="-330.3" font-family="Times,serif" font-size="14.00">pdf_ch</text>
</g>
<!-- p26 -->
<g id="node30" class="node"><title>p26</title>
<ellipse fill="black" stroke="black" cx="562" cy="-526" rx="3.6" ry="3.6"/>
</g>
<!-- p26&#45;&gt;p27 -->
<g id="edge31" class="edge"><title>p26&#45;&gt;p27</title>
<path fill="none" stroke="black" d="M562,-522.139C562,-513.502 562,-487.011 562,-466.227"/>
<polygon fill="black" stroke="black" points="565.5,-466.004 562,-456.004 558.5,-466.004 565.5,-466.004"/>
<text text-anchor="middle" x="576" y="-478.3" font-family="Times,serif" font-size="14.00">meta</text>
</g>
<!-- p36 -->
<g id="node33" class="node"><title>p36</title>
<ellipse fill="none" stroke="black" cx="709" cy="-222" rx="3.25" ry="3.5"/>
<text text-anchor="middle" x="687" y="-229.3" font-family="Times,serif" font-size="14.00">collect</text>
</g>
<!-- p30&#45;&gt;p36 -->
<g id="edge37" class="edge"><title>p30&#45;&gt;p36</title>
<path fill="none" stroke="black" d="M658.5,-296.807C664.792,-287.612 689.3,-251.792 701.711,-233.652"/>
<polygon fill="black" stroke="black" points="704.634,-235.579 707.392,-225.35 698.857,-231.627 704.634,-235.579"/>
<text text-anchor="middle" x="704" y="-262.3" font-family="Times,serif" font-size="14.00">pdf_ch</text>
</g>
<!-- p35 -->
<g id="node34" class="node"><title>p35</title>
<ellipse fill="none" stroke="black" cx="464" cy="-222" rx="187.275" ry="18"/>
<text text-anchor="middle" x="464" y="-218.3" font-family="Times,serif" font-size="14.00">MOSDEPTH_BAMS_01:MERGE_VERSION</text>
</g>
<!-- p31&#45;&gt;p35 -->
<g id="edge38" class="edge"><title>p31&#45;&gt;p35</title>
<path fill="none" stroke="black" d="M486.235,-296.471C484.035,-289.203 477.506,-267.629 472.088,-249.726"/>
<polygon fill="black" stroke="black" points="475.394,-248.566 469.147,-240.009 468.694,-250.594 475.394,-248.566"/>
</g>
<!-- p39 -->
<g id="node39" class="node"><title>p39</title>
<ellipse fill="none" stroke="black" cx="714" cy="-134" rx="3.25" ry="3.5"/>
<text text-anchor="middle" x="729" y="-141.3" font-family="Times,serif" font-size="14.00">collect</text>
</g>
<!-- p36&#45;&gt;p39 -->
<g id="edge43" class="edge"><title>p36&#45;&gt;p39</title>
<path fill="none" stroke="black" d="M709.166,-218.139C709.798,-207.281 712.069,-168.206 713.26,-147.727"/>
<polygon fill="black" stroke="black" points="716.762,-147.801 713.848,-137.615 709.773,-147.395 716.762,-147.801"/>
<text text-anchor="middle" x="721" y="-174.3" font-family="Times,serif" font-size="14.00">pdf</text>
</g>
<!-- p38 -->
<g id="node38" class="node"><title>p38</title>
<ellipse fill="none" stroke="black" cx="592" cy="-134" rx="100.137" ry="18"/>
<text text-anchor="middle" x="592" y="-130.3" font-family="Times,serif" font-size="14.00">VERSION_TO_HTML</text>
</g>
<!-- p35&#45;&gt;p38 -->
<g id="edge42" class="edge"><title>p35&#45;&gt;p38</title>
<path fill="none" stroke="black" d="M489.289,-204.009C509.14,-190.672 536.949,-171.987 558.626,-157.423"/>
<polygon fill="black" stroke="black" points="560.851,-160.145 567.199,-151.663 556.947,-154.335 560.851,-160.145"/>
</g>
<!-- p35&#45;&gt;p40 -->
<g id="edge47" class="edge"><title>p35&#45;&gt;p40</title>
<path fill="none" stroke="black" d="M455.092,-203.666C445.494,-182.65 432.761,-146.285 442,-116 445.308,-105.156 451.549,-94.5131 457.977,-85.5224"/>
<polygon fill="black" stroke="black" points="460.843,-87.5358 464.106,-77.4561 455.269,-83.3006 460.843,-87.5358"/>
<text text-anchor="middle" x="462.5" y="-130.3" font-family="Times,serif" font-size="14.00">version</text>
</g>
<!-- p32 -->
<g id="node35" class="node"><title>p32</title>
<ellipse fill="black" stroke="black" cx="520" cy="-300" rx="3.6" ry="3.6"/>
</g>
<!-- p32&#45;&gt;p35 -->
<g id="edge39" class="edge"><title>p32&#45;&gt;p35</title>
<path fill="none" stroke="black" d="M518.205,-296.383C513.709,-289.847 501.57,-272.305 491,-258 488.606,-254.76 486.058,-251.376 483.52,-248.045"/>
<polygon fill="black" stroke="black" points="486.194,-245.78 477.326,-239.982 480.643,-250.044 486.194,-245.78"/>
<text text-anchor="middle" x="517" y="-262.3" font-family="Times,serif" font-size="14.00">meta</text>
</g>
<!-- p33 -->
<g id="node36" class="node"><title>p33</title>
<ellipse fill="black" stroke="black" cx="356" cy="-300" rx="3.6" ry="3.6"/>
</g>
<!-- p33&#45;&gt;p35 -->
<g id="edge40" class="edge"><title>p33&#45;&gt;p35</title>
<path fill="none" stroke="black" d="M356.214,-296.397C356.937,-289.266 359.904,-269.199 371,-258 376.549,-252.399 383.081,-247.683 390.068,-243.713"/>
<polygon fill="black" stroke="black" points="391.818,-246.749 399.122,-239.074 388.626,-240.519 391.818,-246.749"/>
<text text-anchor="middle" x="386.5" y="-262.3" font-family="Times,serif" font-size="14.00">name</text>
</g>
<!-- p34 -->
<g id="node37" class="node"><title>p34</title>
<ellipse fill="black" stroke="black" cx="410" cy="-300" rx="3.6" ry="3.6"/>
</g>
<!-- p34&#45;&gt;p35 -->
<g id="edge41" class="edge"><title>p34&#45;&gt;p35</title>
<path fill="none" stroke="black" d="M409.028,-296.188C406.795,-289.208 402.01,-270.733 409,-258 411.393,-253.641 414.585,-249.747 418.23,-246.287"/>
<polygon fill="black" stroke="black" points="420.683,-248.804 426.241,-239.785 416.271,-243.369 420.683,-248.804"/>
<text text-anchor="middle" x="440" y="-262.3" font-family="Times,serif" font-size="14.00">description</text>
</g>
<!-- p38&#45;&gt;p40 -->
<g id="edge45" class="edge"><title>p38&#45;&gt;p40</title>
<path fill="none" stroke="black" d="M566.076,-116.482C549.762,-106.087 528.583,-92.5925 511.196,-81.5146"/>
<polygon fill="black" stroke="black" points="512.811,-78.3929 502.496,-75.971 509.049,-84.2964 512.811,-78.3929"/>
</g>
<!-- p39&#45;&gt;p40 -->
<g id="edge46" class="edge"><title>p39&#45;&gt;p40</title>
<path fill="none" stroke="black" d="M712.85,-130.612C710.932,-126.891 706.717,-119.749 701,-116 651.659,-83.645 584.8,-70.3202 537.385,-64.8345"/>
<polygon fill="black" stroke="black" points="537.593,-61.3368 527.276,-63.7492 536.845,-68.2968 537.593,-61.3368"/>
</g>
<!-- p37 -->
<g id="node40" class="node"><title>p37</title>
<ellipse fill="black" stroke="black" cx="673" cy="-222" rx="3.6" ry="3.6"/>
</g>
<!-- p37&#45;&gt;p38 -->
<g id="edge44" class="edge"><title>p37&#45;&gt;p38</title>
<path fill="none" stroke="black" d="M671.242,-218.503C668.825,-215.12 664.29,-208.936 660,-204 646.443,-188.401 630.233,-171.879 617.041,-158.914"/>
<polygon fill="black" stroke="black" points="619.269,-156.199 609.665,-151.726 614.383,-161.212 619.269,-156.199"/>
<text text-anchor="middle" x="656" y="-174.3" font-family="Times,serif" font-size="14.00">meta</text>
</g>
<!-- p41 -->
<g id="node42" class="node"><title>p41</title>
<ellipse fill="black" stroke="black" cx="479" cy="-2" rx="1.8" ry="1.8"/>
</g>
<!-- p40&#45;&gt;p41 -->
<g id="edge49" class="edge"><title>p40&#45;&gt;p41</title>
<path fill="none" stroke="black" d="M479,-41.8939C479,-32.8876 479,-22.0999 479,-14.1727"/>
<polygon fill="black" stroke="black" points="482.5,-13.9957 479,-3.99575 475.5,-13.9958 482.5,-13.9957"/>
</g>
</g>
</svg>
