<?xml version="1.0" encoding="UTF-8" standalone="no"?>
<!DOCTYPE svg PUBLIC "-//W3C//DTD SVG 1.1//EN"
 "http://www.w3.org/Graphics/SVG/1.1/DTD/svg11.dtd">
<!-- Generated by graphviz version 2.30.1 (20201013.1554)
 -->
<!-- Title: 20220712rotavirusremapworkflow Pages: 1 -->
<svg width="1858pt" height="1708pt"
 viewBox="0.00 0.00 1858.00 1708.00" xmlns="http://www.w3.org/2000/svg" xmlns:xlink="http://www.w3.org/1999/xlink">
<g id="graph0" class="graph" transform="scale(1 1) rotate(0) translate(4 1704)">
<title>20220712rotavirusremapworkflow</title>
<polygon fill="white" stroke="white" points="-4,5 -4,-1704 1855,-1704 1855,5 -4,5"/>
<!-- p0 -->
<g id="node1" class="node"><title>p0</title>
<ellipse fill="black" stroke="black" cx="1146" cy="-1086" rx="3.6" ry="3.6"/>
<text text-anchor="middle" x="1147.8" y="-1071.2" font-family="Times,serif" font-size="14.00">Channel.empty</text>
</g>
<!-- p22 -->
<g id="node2" class="node"><title>p22</title>
<ellipse fill="none" stroke="black" cx="1146" cy="-998" rx="3.25" ry="3.5"/>
<text text-anchor="middle" x="1129" y="-1005.3" font-family="Times,serif" font-size="14.00">mix</text>
</g>
<!-- p0&#45;&gt;p22 -->
<g id="edge1" class="edge"><title>p0&#45;&gt;p22</title>
<path fill="none" stroke="black" d="M1146,-1082.14C1146,-1071.28 1146,-1032.21 1146,-1011.73"/>
<polygon fill="black" stroke="black" points="1149.5,-1011.61 1146,-1001.61 1142.5,-1011.61 1149.5,-1011.61"/>
<text text-anchor="middle" x="1185" y="-1038.3" font-family="Times,serif" font-size="14.00">version_ch</text>
</g>
<!-- p29 -->
<g id="node25" class="node"><title>p29</title>
<ellipse fill="none" stroke="black" cx="860" cy="-924" rx="3.25" ry="3.5"/>
<text text-anchor="middle" x="843" y="-931.3" font-family="Times,serif" font-size="14.00">mix</text>
</g>
<!-- p22&#45;&gt;p29 -->
<g id="edge26" class="edge"><title>p22&#45;&gt;p29</title>
<path fill="none" stroke="black" d="M1142.79,-996.191C1115.69,-989.369 924.976,-941.358 873.036,-928.282"/>
<polygon fill="black" stroke="black" points="873.739,-924.85 863.187,-925.802 872.03,-931.638 873.739,-924.85"/>
<text text-anchor="middle" x="1042" y="-950.3" font-family="Times,serif" font-size="14.00">version_ch</text>
</g>
<!-- p1 -->
<g id="node3" class="node"><title>p1</title>
<ellipse fill="black" stroke="black" cx="1369" cy="-1622" rx="3.6" ry="3.6"/>
<text text-anchor="middle" x="1419.9" y="-1629.4" font-family="Times,serif" font-size="14.00">Channel.empty</text>
</g>
<!-- p5 -->
<g id="node4" class="node"><title>p5</title>
<ellipse fill="none" stroke="black" cx="1232" cy="-1548" rx="3.25" ry="3.5"/>
<text text-anchor="middle" x="1215" y="-1555.3" font-family="Times,serif" font-size="14.00">mix</text>
</g>
<!-- p1&#45;&gt;p5 -->
<g id="edge2" class="edge"><title>p1&#45;&gt;p5</title>
<path fill="none" stroke="black" d="M1367.49,-1618.24C1365.35,-1614.57 1361.13,-1608.05 1356,-1604 1320.57,-1576.06 1268.73,-1559.14 1244.88,-1552.39"/>
<polygon fill="black" stroke="black" points="1245.55,-1548.95 1234.99,-1549.73 1243.74,-1555.71 1245.55,-1548.95"/>
<text text-anchor="middle" x="1367" y="-1574.3" font-family="Times,serif" font-size="14.00">version_ch</text>
</g>
<!-- p12 -->
<g id="node9" class="node"><title>p12</title>
<ellipse fill="none" stroke="black" cx="1228" cy="-1368" rx="3.25" ry="3.5"/>
<text text-anchor="middle" x="1211" y="-1375.3" font-family="Times,serif" font-size="14.00">mix</text>
</g>
<!-- p5&#45;&gt;p12 -->
<g id="edge7" class="edge"><title>p5&#45;&gt;p12</title>
<path fill="none" stroke="black" d="M1231.94,-1544.48C1231.54,-1526.72 1229.14,-1419.83 1228.3,-1382.14"/>
<polygon fill="black" stroke="black" points="1231.78,-1381.6 1228.06,-1371.68 1224.79,-1381.76 1231.78,-1381.6"/>
<text text-anchor="middle" x="1269" y="-1468.3" font-family="Times,serif" font-size="14.00">version_ch</text>
</g>
<!-- p2 -->
<g id="node5" class="node"><title>p2</title>
<ellipse fill="black" stroke="black" cx="1009" cy="-1696" rx="3.6" ry="3.6"/>
</g>
<!-- p4 -->
<g id="node6" class="node"><title>p4</title>
<ellipse fill="none" stroke="black" cx="1039" cy="-1622" rx="308.109" ry="18"/>
<text text-anchor="middle" x="1039" y="-1618.3" font-family="Times,serif" font-size="14.00">MOSDEPTH_BAMS_01:SAMTOOLS_SAMPLES_01:SQRT_FILE</text>
</g>
<!-- p2&#45;&gt;p4 -->
<g id="edge3" class="edge"><title>p2&#45;&gt;p4</title>
<path fill="none" stroke="black" d="M1008.47,-1692.19C1007.41,-1685.85 1005.48,-1670.03 1010,-1658 1011.26,-1654.65 1012.98,-1651.39 1014.97,-1648.28"/>
<polygon fill="black" stroke="black" points="1017.94,-1650.16 1021.08,-1640.04 1012.31,-1645.99 1017.94,-1650.16"/>
<text text-anchor="middle" x="1028.5" y="-1662.3" font-family="Times,serif" font-size="14.00">meta</text>
</g>
<!-- p6 -->
<g id="node8" class="node"><title>p6</title>
<ellipse fill="none" stroke="black" cx="1039" cy="-1548" rx="3.25" ry="3.5"/>
<text text-anchor="middle" x="1003.5" y="-1555.3" font-family="Times,serif" font-size="14.00">splitText</text>
</g>
<!-- p4&#45;&gt;p6 -->
<g id="edge5" class="edge"><title>p4&#45;&gt;p6</title>
<path fill="none" stroke="black" d="M1039,-1603.94C1039,-1591.13 1039,-1573.84 1039,-1562.11"/>
<polygon fill="black" stroke="black" points="1042.5,-1561.75 1039,-1551.75 1035.5,-1561.75 1042.5,-1561.75"/>
</g>
<!-- p4&#45;&gt;p5 -->
<g id="edge6" class="edge"><title>p4&#45;&gt;p5</title>
<path fill="none" stroke="black" d="M1084.25,-1604.12C1128.49,-1587.61 1192.99,-1563.55 1219.7,-1553.59"/>
<polygon fill="black" stroke="black" points="1221.18,-1556.77 1229.32,-1550 1218.73,-1550.21 1221.18,-1556.77"/>
</g>
<!-- p3 -->
<g id="node7" class="node"><title>p3</title>
<ellipse fill="black" stroke="black" cx="1069" cy="-1696" rx="3.6" ry="3.6"/>
</g>
<!-- p3&#45;&gt;p4 -->
<g id="edge4" class="edge"><title>p3&#45;&gt;p4</title>
<path fill="none" stroke="black" d="M1067.86,-1692.27C1064.93,-1685.22 1056.86,-1665.86 1050,-1649.39"/>
<polygon fill="black" stroke="black" points="1053.22,-1648.03 1046.14,-1640.14 1046.76,-1650.72 1053.22,-1648.03"/>
<text text-anchor="middle" x="1078.5" y="-1662.3" font-family="Times,serif" font-size="14.00">filein</text>
</g>
<!-- p7 -->
<g id="node10" class="node"><title>p7</title>
<ellipse fill="none" stroke="black" cx="1039" cy="-1502" rx="3.25" ry="3.5"/>
<text text-anchor="middle" x="1020" y="-1509.3" font-family="Times,serif" font-size="14.00">map</text>
</g>
<!-- p6&#45;&gt;p7 -->
<g id="edge8" class="edge"><title>p6&#45;&gt;p7</title>
<path fill="none" stroke="black" d="M1039,-1544.38C1039,-1538.86 1039,-1525.74 1039,-1515.74"/>
<polygon fill="black" stroke="black" points="1042.5,-1515.55 1039,-1505.55 1035.5,-1515.55 1042.5,-1515.55"/>
</g>
<!-- p16 -->
<g id="node16" class="node"><title>p16</title>
<ellipse fill="none" stroke="black" cx="1228" cy="-1220" rx="3.25" ry="3.5"/>
<text text-anchor="middle" x="1211" y="-1227.3" font-family="Times,serif" font-size="14.00">mix</text>
</g>
<!-- p12&#45;&gt;p16 -->
<g id="edge15" class="edge"><title>p12&#45;&gt;p16</title>
<path fill="none" stroke="black" d="M1228,-1364.47C1228,-1348.89 1228,-1265.75 1228,-1233.65"/>
<polygon fill="black" stroke="black" points="1231.5,-1233.6 1228,-1223.6 1224.5,-1233.6 1231.5,-1233.6"/>
<text text-anchor="middle" x="1267" y="-1290.3" font-family="Times,serif" font-size="14.00">version_ch</text>
</g>
<!-- p11 -->
<g id="node11" class="node"><title>p11</title>
<ellipse fill="none" stroke="black" cx="892" cy="-1428" rx="311.459" ry="18"/>
<text text-anchor="middle" x="892" y="-1424.3" font-family="Times,serif" font-size="14.00">MOSDEPTH_BAMS_01:SAMTOOLS_SAMPLES_01:ST_SAMPLE</text>
</g>
<!-- p7&#45;&gt;p11 -->
<g id="edge9" class="edge"><title>p7&#45;&gt;p11</title>
<path fill="none" stroke="black" d="M1037.67,-1498.6C1033.92,-1492.03 1022.55,-1473.6 1008,-1464 999.06,-1458.1 989.088,-1453.17 978.848,-1449.04"/>
<polygon fill="black" stroke="black" points="979.982,-1445.73 969.39,-1445.48 977.514,-1452.28 979.982,-1445.73"/>
<text text-anchor="middle" x="1060" y="-1468.3" font-family="Times,serif" font-size="14.00">chunk_ch</text>
</g>
<!-- p13 -->
<g id="node15" class="node"><title>p13</title>
<ellipse fill="none" stroke="black" cx="892" cy="-1368" rx="3.25" ry="3.5"/>
<text text-anchor="middle" x="864" y="-1375.3" font-family="Times,serif" font-size="14.00">collect</text>
</g>
<!-- p11&#45;&gt;p13 -->
<g id="edge13" class="edge"><title>p11&#45;&gt;p13</title>
<path fill="none" stroke="black" d="M892,-1409.91C892,-1400.96 892,-1390.19 892,-1381.94"/>
<polygon fill="black" stroke="black" points="895.5,-1381.69 892,-1371.69 888.5,-1381.69 895.5,-1381.69"/>
</g>
<!-- p11&#45;&gt;p12 -->
<g id="edge14" class="edge"><title>p11&#45;&gt;p12</title>
<path fill="none" stroke="black" d="M986.042,-1410.77C1067.32,-1396.74 1177.45,-1377.73 1214.91,-1371.26"/>
<polygon fill="black" stroke="black" points="1215.7,-1374.67 1224.96,-1369.52 1214.51,-1367.78 1215.7,-1374.67"/>
</g>
<!-- p8 -->
<g id="node12" class="node"><title>p8</title>
<ellipse fill="black" stroke="black" cx="786" cy="-1502" rx="3.6" ry="3.6"/>
</g>
<!-- p8&#45;&gt;p11 -->
<g id="edge10" class="edge"><title>p8&#45;&gt;p11</title>
<path fill="none" stroke="black" d="M786.522,-1498.27C787.948,-1491.52 792.521,-1473.91 803,-1464 808.474,-1458.82 814.804,-1454.38 821.514,-1450.58"/>
<polygon fill="black" stroke="black" points="823.561,-1453.46 830.855,-1445.78 820.361,-1447.24 823.561,-1453.46"/>
<text text-anchor="middle" x="821.5" y="-1468.3" font-family="Times,serif" font-size="14.00">meta</text>
</g>
<!-- p9 -->
<g id="node13" class="node"><title>p9</title>
<ellipse fill="black" stroke="black" cx="846" cy="-1502" rx="3.6" ry="3.6"/>
</g>
<!-- p9&#45;&gt;p11 -->
<g id="edge11" class="edge"><title>p9&#45;&gt;p11</title>
<path fill="none" stroke="black" d="M845.29,-1498.11C843.851,-1491.6 841.198,-1475.47 847,-1464 848.96,-1460.13 851.571,-1456.55 854.55,-1453.29"/>
<polygon fill="black" stroke="black" points="857.155,-1455.64 862.042,-1446.24 852.359,-1450.54 857.155,-1455.64"/>
<text text-anchor="middle" x="882" y="-1468.3" font-family="Times,serif" font-size="14.00">reference</text>
</g>
<!-- p10 -->
<g id="node14" class="node"><title>p10</title>
<ellipse fill="black" stroke="black" cx="939" cy="-1502" rx="3.6" ry="3.6"/>
</g>
<!-- p10&#45;&gt;p11 -->
<g id="edge12" class="edge"><title>p10&#45;&gt;p11</title>
<path fill="none" stroke="black" d="M937.677,-1498.62C934.356,-1492.68 925.334,-1476.77 917,-1464 914.962,-1460.88 912.767,-1457.64 910.555,-1454.45"/>
<polygon fill="black" stroke="black" points="913.384,-1452.39 904.754,-1446.25 907.668,-1456.43 913.384,-1452.39"/>
<text text-anchor="middle" x="965.5" y="-1468.3" font-family="Times,serif" font-size="14.00">references</text>
</g>
<!-- p15 -->
<g id="node17" class="node"><title>p15</title>
<ellipse fill="none" stroke="black" cx="895" cy="-1294" rx="290.286" ry="18"/>
<text text-anchor="middle" x="895" y="-1290.3" font-family="Times,serif" font-size="14.00">MOSDEPTH_BAMS_01:SAMTOOLS_SAMPLES_01:DIGEST</text>
</g>
<!-- p13&#45;&gt;p15 -->
<g id="edge16" class="edge"><title>p13&#45;&gt;p15</title>
<path fill="none" stroke="black" d="M892.114,-1364.27C892.402,-1357.35 893.184,-1338.58 893.862,-1322.32"/>
<polygon fill="black" stroke="black" points="897.366,-1322.28 894.286,-1312.14 890.372,-1321.99 897.366,-1322.28"/>
</g>
<!-- p17 -->
<g id="node20" class="node"><title>p17</title>
<ellipse fill="none" stroke="black" cx="1440" cy="-1160" rx="3.25" ry="3.5"/>
<text text-anchor="middle" x="1412" y="-1167.3" font-family="Times,serif" font-size="14.00">collect</text>
</g>
<!-- p16&#45;&gt;p17 -->
<g id="edge20" class="edge"><title>p16&#45;&gt;p17</title>
<path fill="none" stroke="black" d="M1231,-1218.18C1252.66,-1212.25 1385.65,-1175.87 1427.44,-1164.44"/>
<polygon fill="black" stroke="black" points="1428.39,-1167.81 1437.11,-1161.79 1426.54,-1161.05 1428.39,-1167.81"/>
<text text-anchor="middle" x="1398" y="-1186.3" font-family="Times,serif" font-size="14.00">version_ch</text>
</g>
<!-- p24 -->
<g id="node19" class="node"><title>p24</title>
<ellipse fill="none" stroke="black" cx="765" cy="-1220" rx="3.25" ry="3.5"/>
<text text-anchor="middle" x="732" y="-1227.3" font-family="Times,serif" font-size="14.00">splitCsv</text>
</g>
<!-- p15&#45;&gt;p24 -->
<g id="edge18" class="edge"><title>p15&#45;&gt;p24</title>
<path fill="none" stroke="black" d="M864.192,-1275.94C836.073,-1260.36 796.02,-1238.18 776.535,-1227.39"/>
<polygon fill="black" stroke="black" points="778.129,-1224.27 767.685,-1222.49 774.738,-1230.39 778.129,-1224.27"/>
<text text-anchor="middle" x="854" y="-1246.3" font-family="Times,serif" font-size="14.00">output</text>
</g>
<!-- p15&#45;&gt;p16 -->
<g id="edge19" class="edge"><title>p15&#45;&gt;p16</title>
<path fill="none" stroke="black" d="M970.98,-1276.57C1052.39,-1258.97 1175.28,-1232.4 1215.07,-1223.79"/>
<polygon fill="black" stroke="black" points="1215.88,-1227.2 1224.92,-1221.67 1214.4,-1220.36 1215.88,-1227.2"/>
</g>
<!-- p14 -->
<g id="node18" class="node"><title>p14</title>
<ellipse fill="black" stroke="black" cx="925" cy="-1368" rx="3.6" ry="3.6"/>
</g>
<!-- p14&#45;&gt;p15 -->
<g id="edge17" class="edge"><title>p14&#45;&gt;p15</title>
<path fill="none" stroke="black" d="M923.861,-1364.27C920.926,-1357.22 912.858,-1337.86 905.996,-1321.39"/>
<polygon fill="black" stroke="black" points="909.22,-1320.03 902.143,-1312.14 902.758,-1322.72 909.22,-1320.03"/>
<text text-anchor="middle" x="935.5" y="-1334.3" font-family="Times,serif" font-size="14.00">meta</text>
</g>
<!-- p25 -->
<g id="node27" class="node"><title>p25</title>
<ellipse fill="none" stroke="black" cx="761" cy="-1160" rx="3.25" ry="3.5"/>
<text text-anchor="middle" x="727" y="-1167.3" font-family="Times,serif" font-size="14.00">combine</text>
</g>
<!-- p24&#45;&gt;p25 -->
<g id="edge28" class="edge"><title>p24&#45;&gt;p25</title>
<path fill="none" stroke="black" d="M764.807,-1216.2C764.286,-1208.65 762.826,-1187.48 761.873,-1173.66"/>
<polygon fill="black" stroke="black" points="765.362,-1173.37 761.182,-1163.64 758.378,-1173.85 765.362,-1173.37"/>
</g>
<!-- p21 -->
<g id="node21" class="node"><title>p21</title>
<ellipse fill="none" stroke="black" cx="1509" cy="-1086" rx="341.33" ry="18"/>
<text text-anchor="middle" x="1509" y="-1082.3" font-family="Times,serif" font-size="14.00">MOSDEPTH_BAMS_01:SAMTOOLS_SAMPLES_01:MERGE_VERSION</text>
</g>
<!-- p17&#45;&gt;p21 -->
<g id="edge21" class="edge"><title>p17&#45;&gt;p21</title>
<path fill="none" stroke="black" d="M1442.11,-1157.07C1446.07,-1153.43 1454.89,-1145.23 1462,-1138 1470.27,-1129.58 1479.1,-1120.14 1486.84,-1111.68"/>
<polygon fill="black" stroke="black" points="1489.46,-1114.01 1493.6,-1104.26 1484.28,-1109.29 1489.46,-1114.01"/>
</g>
<!-- p21&#45;&gt;p22 -->
<g id="edge25" class="edge"><title>p21&#45;&gt;p22</title>
<path fill="none" stroke="black" d="M1438.58,-1068.32C1349.63,-1047.24 1202.85,-1012.47 1158.85,-1002.04"/>
<polygon fill="black" stroke="black" points="1159.52,-998.606 1148.98,-999.706 1157.9,-1005.42 1159.52,-998.606"/>
</g>
<!-- p18 -->
<g id="node22" class="node"><title>p18</title>
<ellipse fill="black" stroke="black" cx="1509" cy="-1160" rx="3.6" ry="3.6"/>
</g>
<!-- p18&#45;&gt;p21 -->
<g id="edge22" class="edge"><title>p18&#45;&gt;p21</title>
<path fill="none" stroke="black" d="M1509,-1156.27C1509,-1149.35 1509,-1130.58 1509,-1114.32"/>
<polygon fill="black" stroke="black" points="1512.5,-1114.14 1509,-1104.14 1505.5,-1114.14 1512.5,-1114.14"/>
<text text-anchor="middle" x="1527.5" y="-1126.3" font-family="Times,serif" font-size="14.00">meta</text>
</g>
<!-- p19 -->
<g id="node23" class="node"><title>p19</title>
<ellipse fill="black" stroke="black" cx="1569" cy="-1160" rx="3.6" ry="3.6"/>
</g>
<!-- p19&#45;&gt;p21 -->
<g id="edge23" class="edge"><title>p19&#45;&gt;p21</title>
<path fill="none" stroke="black" d="M1567.83,-1156.51C1564.87,-1150.31 1556.6,-1133.84 1547,-1122 1543.98,-1118.28 1540.57,-1114.58 1537.05,-1111.07"/>
<polygon fill="black" stroke="black" points="1539.45,-1108.52 1529.8,-1104.16 1534.62,-1113.59 1539.45,-1108.52"/>
<text text-anchor="middle" x="1577" y="-1126.3" font-family="Times,serif" font-size="14.00">name</text>
</g>
<!-- p20 -->
<g id="node24" class="node"><title>p20</title>
<ellipse fill="black" stroke="black" cx="1379" cy="-1160" rx="3.6" ry="3.6"/>
</g>
<!-- p20&#45;&gt;p21 -->
<g id="edge24" class="edge"><title>p20&#45;&gt;p21</title>
<path fill="none" stroke="black" d="M1377.69,-1156.33C1374.64,-1149.73 1367.97,-1132.41 1376,-1122 1380.68,-1115.93 1391.37,-1110.71 1404.77,-1106.28"/>
<polygon fill="black" stroke="black" points="1405.89,-1109.6 1414.44,-1103.35 1403.85,-1102.9 1405.89,-1109.6"/>
<text text-anchor="middle" x="1417" y="-1126.3" font-family="Times,serif" font-size="14.00">description</text>
</g>
<!-- p35 -->
<g id="node32" class="node"><title>p35</title>
<ellipse fill="none" stroke="black" cx="841" cy="-864" rx="3.25" ry="3.5"/>
<text text-anchor="middle" x="824" y="-871.3" font-family="Times,serif" font-size="14.00">mix</text>
</g>
<!-- p29&#45;&gt;p35 -->
<g id="edge34" class="edge"><title>p29&#45;&gt;p35</title>
<path fill="none" stroke="black" d="M859.184,-920.508C856.766,-913.129 849.529,-891.036 844.947,-877.05"/>
<polygon fill="black" stroke="black" points="848.231,-875.832 841.792,-867.418 841.579,-878.011 848.231,-875.832"/>
<text text-anchor="middle" x="892" y="-890.3" font-family="Times,serif" font-size="14.00">version_ch</text>
</g>
<!-- p23 -->
<g id="node26" class="node"><title>p23</title>
<ellipse fill="black" stroke="black" cx="794" cy="-1220" rx="3.6" ry="3.6"/>
<text text-anchor="middle" x="725.4" y="-1205.2" font-family="Times,serif" font-size="14.00">Channel.fromPath</text>
</g>
<!-- p23&#45;&gt;p25 -->
<g id="edge27" class="edge"><title>p23&#45;&gt;p25</title>
<path fill="none" stroke="black" d="M792.582,-1216.51C788.299,-1208.98 775.302,-1186.14 767.379,-1172.21"/>
<polygon fill="black" stroke="black" points="770.363,-1170.38 762.376,-1163.42 764.279,-1173.84 770.363,-1170.38"/>
<text text-anchor="middle" x="800" y="-1186.3" font-family="Times,serif" font-size="14.00">bed2</text>
</g>
<!-- p26 -->
<g id="node28" class="node"><title>p26</title>
<ellipse fill="none" stroke="black" cx="549" cy="-1086" rx="3.25" ry="3.5"/>
<text text-anchor="middle" x="530" y="-1093.3" font-family="Times,serif" font-size="14.00">map</text>
</g>
<!-- p25&#45;&gt;p26 -->
<g id="edge29" class="edge"><title>p25&#45;&gt;p26</title>
<path fill="none" stroke="black" d="M757.859,-1158.91C738.077,-1158.17 629.371,-1152.01 561,-1104 558.79,-1102.45 556.848,-1100.35 555.205,-1098.16"/>
<polygon fill="black" stroke="black" points="558.115,-1096.21 550.023,-1089.37 552.085,-1099.76 558.115,-1096.21"/>
</g>
<!-- p31 -->
<g id="node29" class="node"><title>p31</title>
<ellipse fill="none" stroke="black" cx="599" cy="-998" rx="225.295" ry="18"/>
<text text-anchor="middle" x="599" y="-994.3" font-family="Times,serif" font-size="14.00">MOSDEPTH_BAMS_01:MOSDEPTH_RUN_01</text>
</g>
<!-- p26&#45;&gt;p31 -->
<g id="edge30" class="edge"><title>p26&#45;&gt;p31</title>
<path fill="none" stroke="black" d="M548.585,-1082.46C547.441,-1074.65 544.896,-1050.52 554,-1034 556.21,-1029.99 559.09,-1026.29 562.326,-1022.91"/>
<polygon fill="black" stroke="black" points="564.822,-1025.37 569.856,-1016.05 560.108,-1020.2 564.822,-1025.37"/>
<text text-anchor="middle" x="567.5" y="-1038.3" font-family="Times,serif" font-size="14.00">ch1</text>
</g>
<!-- p34 -->
<g id="node34" class="node"><title>p34</title>
<ellipse fill="black" stroke="black" cx="662" cy="-924" rx="1.8" ry="1.8"/>
</g>
<!-- p31&#45;&gt;p34 -->
<g id="edge36" class="edge"><title>p31&#45;&gt;p34</title>
<path fill="none" stroke="black" d="M621.513,-980.06C627.893,-974.679 634.572,-968.441 640,-962 646.996,-953.7 653.135,-942.907 657.138,-935.123"/>
<polygon fill="black" stroke="black" points="660.352,-936.516 661.56,-925.99 654.052,-933.465 660.352,-936.516"/>
<text text-anchor="middle" x="686.5" y="-950.3" font-family="Times,serif" font-size="14.00">globaldist</text>
</g>
<!-- p41 -->
<g id="node35" class="node"><title>p41</title>
<ellipse fill="none" stroke="black" cx="632" cy="-894" rx="3.25" ry="3.5"/>
<text text-anchor="middle" x="613" y="-901.3" font-family="Times,serif" font-size="14.00">map</text>
</g>
<!-- p31&#45;&gt;p41 -->
<g id="edge37" class="edge"><title>p31&#45;&gt;p41</title>
<path fill="none" stroke="black" d="M606.34,-979.687C608.601,-974.089 611.016,-967.823 613,-962 619.383,-943.267 625.372,-921.098 628.86,-907.545"/>
<polygon fill="black" stroke="black" points="632.32,-908.138 631.37,-897.586 625.533,-906.427 632.32,-908.138"/>
</g>
<!-- p36 -->
<g id="node36" class="node"><title>p36</title>
<ellipse fill="none" stroke="black" cx="415" cy="-924" rx="3.25" ry="3.5"/>
<text text-anchor="middle" x="396" y="-931.3" font-family="Times,serif" font-size="14.00">map</text>
</g>
<!-- p31&#45;&gt;p36 -->
<g id="edge38" class="edge"><title>p31&#45;&gt;p36</title>
<path fill="none" stroke="black" d="M556.324,-980.301C514.532,-963.947 453.462,-940.05 427.462,-929.877"/>
<polygon fill="black" stroke="black" points="428.553,-926.545 417.965,-926.16 426.002,-933.064 428.553,-926.545"/>
</g>
<!-- p33 -->
<g id="node37" class="node"><title>p33</title>
<ellipse fill="black" stroke="black" cx="526" cy="-924" rx="1.8" ry="1.8"/>
</g>
<!-- p31&#45;&gt;p33 -->
<g id="edge39" class="edge"><title>p31&#45;&gt;p33</title>
<path fill="none" stroke="black" d="M558.512,-980.124C550.492,-975.255 542.778,-969.249 537,-962 531.079,-954.571 528.343,-944.025 527.079,-936.092"/>
<polygon fill="black" stroke="black" points="530.55,-935.624 526.034,-926.04 523.587,-936.348 530.55,-935.624"/>
<text text-anchor="middle" x="566" y="-950.3" font-family="Times,serif" font-size="14.00">perbase</text>
</g>
<!-- p32 -->
<g id="node38" class="node"><title>p32</title>
<ellipse fill="black" stroke="black" cx="599" cy="-924" rx="1.8" ry="1.8"/>
</g>
<!-- p31&#45;&gt;p32 -->
<g id="edge40" class="edge"><title>p31&#45;&gt;p32</title>
<path fill="none" stroke="black" d="M599,-979.937C599,-966.37 599,-947.787 599,-936.089"/>
<polygon fill="black" stroke="black" points="602.5,-935.849 599,-925.849 595.5,-935.849 602.5,-935.849"/>
</g>
<!-- p31&#45;&gt;p35 -->
<g id="edge41" class="edge"><title>p31&#45;&gt;p35</title>
<path fill="none" stroke="black" d="M677.595,-981.042C694.097,-976.139 711.026,-969.887 726,-962 771.074,-938.258 814.221,-894.386 832.212,-874.841"/>
<polygon fill="black" stroke="black" points="834.973,-877.004 839.065,-867.231 829.772,-872.32 834.973,-877.004"/>
</g>
<!-- p27 -->
<g id="node30" class="node"><title>p27</title>
<ellipse fill="black" stroke="black" cx="860" cy="-1160" rx="3.6" ry="3.6"/>
</g>
<!-- p28 -->
<g id="node31" class="node"><title>p28</title>
<ellipse fill="none" stroke="black" cx="860" cy="-1086" rx="264.29" ry="18"/>
<text text-anchor="middle" x="860" y="-1082.3" font-family="Times,serif" font-size="14.00">MOSDEPTH_BAMS_01:MOSDEPTH_DOWNLOAD_01</text>
</g>
<!-- p27&#45;&gt;p28 -->
<g id="edge31" class="edge"><title>p27&#45;&gt;p28</title>
<path fill="none" stroke="black" d="M860,-1156.27C860,-1149.35 860,-1130.58 860,-1114.32"/>
<polygon fill="black" stroke="black" points="863.5,-1114.14 860,-1104.14 856.5,-1114.14 863.5,-1114.14"/>
<text text-anchor="middle" x="878.5" y="-1126.3" font-family="Times,serif" font-size="14.00">meta</text>
</g>
<!-- p28&#45;&gt;p31 -->
<g id="edge32" class="edge"><title>p28&#45;&gt;p31</title>
<path fill="none" stroke="black" d="M809.367,-1068.32C766.415,-1054.16 704.708,-1033.83 659.227,-1018.85"/>
<polygon fill="black" stroke="black" points="660.085,-1015.44 649.492,-1015.64 657.894,-1022.09 660.085,-1015.44"/>
</g>
<!-- p28&#45;&gt;p29 -->
<g id="edge33" class="edge"><title>p28&#45;&gt;p29</title>
<path fill="none" stroke="black" d="M860,-1067.88C860,-1035.59 860,-966.37 860,-937.77"/>
<polygon fill="black" stroke="black" points="863.5,-937.545 860,-927.546 856.5,-937.546 863.5,-937.545"/>
</g>
<!-- p40 -->
<g id="node39" class="node"><title>p40</title>
<ellipse fill="none" stroke="black" cx="841" cy="-702" rx="3.25" ry="3.5"/>
<text text-anchor="middle" x="851" y="-709.3" font-family="Times,serif" font-size="14.00">mix</text>
</g>
<!-- p35&#45;&gt;p40 -->
<g id="edge42" class="edge"><title>p35&#45;&gt;p40</title>
<path fill="none" stroke="black" d="M841,-860.487C841,-843.988 841,-750.776 841,-716.043"/>
<polygon fill="black" stroke="black" points="844.5,-715.877 841,-705.877 837.5,-715.877 844.5,-715.877"/>
<text text-anchor="middle" x="880" y="-786.3" font-family="Times,serif" font-size="14.00">version_ch</text>
</g>
<!-- p30 -->
<g id="node33" class="node"><title>p30</title>
<ellipse fill="black" stroke="black" cx="574" cy="-1086" rx="3.6" ry="3.6"/>
</g>
<!-- p30&#45;&gt;p31 -->
<g id="edge35" class="edge"><title>p30&#45;&gt;p31</title>
<path fill="none" stroke="black" d="M574.832,-1082.14C577.366,-1073.42 585.185,-1046.52 591.251,-1025.66"/>
<polygon fill="black" stroke="black" points="594.626,-1026.58 594.057,-1016 587.905,-1024.63 594.626,-1026.58"/>
<text text-anchor="middle" x="607.5" y="-1038.3" font-family="Times,serif" font-size="14.00">meta</text>
</g>
<!-- p42 -->
<g id="node45" class="node"><title>p42</title>
<ellipse fill="none" stroke="black" cx="658" cy="-834" rx="3.25" ry="3.5"/>
<text text-anchor="middle" x="630" y="-841.3" font-family="Times,serif" font-size="14.00">collect</text>
</g>
<!-- p41&#45;&gt;p42 -->
<g id="edge49" class="edge"><title>p41&#45;&gt;p42</title>
<path fill="none" stroke="black" d="M633.117,-890.508C636.458,-883.054 646.529,-860.589 652.787,-846.628"/>
<polygon fill="black" stroke="black" points="656.019,-847.975 656.916,-837.418 649.632,-845.112 656.019,-847.975"/>
</g>
<!-- p37 -->
<g id="node40" class="node"><title>p37</title>
<ellipse fill="none" stroke="black" cx="284" cy="-864" rx="3.25" ry="3.5"/>
<text text-anchor="middle" x="256" y="-871.3" font-family="Times,serif" font-size="14.00">collect</text>
</g>
<!-- p36&#45;&gt;p37 -->
<g id="edge43" class="edge"><title>p36&#45;&gt;p37</title>
<path fill="none" stroke="black" d="M412.264,-921.789C397.28,-915.154 324.792,-883.06 295.911,-870.273"/>
<polygon fill="black" stroke="black" points="297.282,-867.053 286.721,-866.205 294.448,-873.454 297.282,-867.053"/>
</g>
<!-- p45 -->
<g id="node44" class="node"><title>p45</title>
<ellipse fill="none" stroke="black" cx="814" cy="-614" rx="3.25" ry="3.5"/>
<text text-anchor="middle" x="824" y="-621.3" font-family="Times,serif" font-size="14.00">mix</text>
</g>
<!-- p40&#45;&gt;p45 -->
<g id="edge48" class="edge"><title>p40&#45;&gt;p45</title>
<path fill="none" stroke="black" d="M840.221,-698.519C836.969,-688.162 824.348,-647.959 817.875,-627.343"/>
<polygon fill="black" stroke="black" points="821.17,-626.152 814.835,-617.659 814.491,-628.248 821.17,-626.152"/>
<text text-anchor="middle" x="869" y="-654.3" font-family="Times,serif" font-size="14.00">version_ch</text>
</g>
<!-- p39 -->
<g id="node41" class="node"><title>p39</title>
<ellipse fill="none" stroke="black" cx="280" cy="-790" rx="280.188" ry="18"/>
<text text-anchor="middle" x="280" y="-786.3" font-family="Times,serif" font-size="14.00">MOSDEPTH_BAMS_01:MERGE_MOSDEPTH_SUMMARY</text>
</g>
<!-- p37&#45;&gt;p39 -->
<g id="edge44" class="edge"><title>p37&#45;&gt;p39</title>
<path fill="none" stroke="black" d="M283.848,-860.265C283.464,-853.354 282.421,-834.578 281.518,-818.316"/>
<polygon fill="black" stroke="black" points="285.002,-817.933 280.952,-808.143 278.013,-818.322 285.002,-817.933"/>
</g>
<!-- p56 -->
<g id="node43" class="node"><title>p56</title>
<ellipse fill="none" stroke="black" cx="526" cy="-438" rx="165.128" ry="18"/>
<text text-anchor="middle" x="526" y="-434.3" font-family="Times,serif" font-size="14.00">MOSDEPTH_BAMS_01:PLOT_IT</text>
</g>
<!-- p39&#45;&gt;p56 -->
<g id="edge46" class="edge"><title>p39&#45;&gt;p56</title>
<path fill="none" stroke="black" d="M280,-771.867C280,-754.51 280,-726.889 280,-703 280,-703 280,-703 280,-525 280,-492.335 358.267,-469.158 426.507,-455.158"/>
<polygon fill="black" stroke="black" points="427.374,-458.554 436.492,-453.159 426,-451.691 427.374,-458.554"/>
<text text-anchor="middle" x="313.5" y="-610.3" font-family="Times,serif" font-size="14.00">summary</text>
</g>
<!-- p39&#45;&gt;p40 -->
<g id="edge47" class="edge"><title>p39&#45;&gt;p40</title>
<path fill="none" stroke="black" d="M435.099,-774.994C493.191,-769.233 559.708,-762.024 620,-754 712.853,-741.643 747.657,-768.159 828,-720 830.474,-718.517 832.643,-716.371 834.464,-714.099"/>
<polygon fill="black" stroke="black" points="837.543,-715.776 839.885,-705.444 831.611,-712.061 837.543,-715.776"/>
</g>
<!-- p69 -->
<g id="node56" class="node"><title>p69</title>
<ellipse fill="none" stroke="black" cx="719" cy="-60" rx="56.3173" ry="18"/>
<text text-anchor="middle" x="719" y="-56.3" font-family="Times,serif" font-size="14.00">PUBLISH</text>
</g>
<!-- p39&#45;&gt;p69 -->
<g id="edge83" class="edge"><title>p39&#45;&gt;p69</title>
<path fill="none" stroke="black" d="M264.426,-771.976C251.082,-755.571 234,-729.414 234,-703 234,-703 234,-703 234,-133 234,-91.1038 520.831,-71.0652 653.331,-64.0436"/>
<polygon fill="black" stroke="black" points="653.56,-67.5365 663.364,-63.5211 653.196,-60.546 653.56,-67.5365"/>
<text text-anchor="middle" x="267.5" y="-390.3" font-family="Times,serif" font-size="14.00">summary</text>
</g>
<!-- p38 -->
<g id="node42" class="node"><title>p38</title>
<ellipse fill="black" stroke="black" cx="313" cy="-864" rx="3.6" ry="3.6"/>
</g>
<!-- p38&#45;&gt;p39 -->
<g id="edge45" class="edge"><title>p38&#45;&gt;p39</title>
<path fill="none" stroke="black" d="M311.747,-860.265C308.519,-853.222 299.644,-833.859 292.095,-817.39"/>
<polygon fill="black" stroke="black" points="295.205,-815.775 287.857,-808.143 288.842,-818.692 295.205,-815.775"/>
<text text-anchor="middle" x="322.5" y="-830.3" font-family="Times,serif" font-size="14.00">meta</text>
</g>
<!-- p58 -->
<g id="node59" class="node"><title>p58</title>
<ellipse fill="none" stroke="black" cx="472" cy="-364" rx="3.25" ry="3.5"/>
<text text-anchor="middle" x="455" y="-371.3" font-family="Times,serif" font-size="14.00">mix</text>
</g>
<!-- p56&#45;&gt;p58 -->
<g id="edge67" class="edge"><title>p56&#45;&gt;p58</title>
<path fill="none" stroke="black" d="M513.203,-419.937C502.887,-406.183 488.705,-387.273 479.956,-375.609"/>
<polygon fill="black" stroke="black" points="482.517,-373.189 473.717,-367.289 476.917,-377.389 482.517,-373.189"/>
</g>
<!-- p59 -->
<g id="node61" class="node"><title>p59</title>
<ellipse fill="none" stroke="black" cx="536" cy="-300" rx="3.25" ry="3.5"/>
<text text-anchor="middle" x="519" y="-307.3" font-family="Times,serif" font-size="14.00">mix</text>
</g>
<!-- p56&#45;&gt;p59 -->
<g id="edge68" class="edge"><title>p56&#45;&gt;p59</title>
<path fill="none" stroke="black" d="M527.267,-419.776C529.298,-392.148 533.24,-338.54 535.05,-313.925"/>
<polygon fill="black" stroke="black" points="538.553,-314.012 535.795,-303.782 531.571,-313.499 538.553,-314.012"/>
</g>
<!-- p57 -->
<g id="node57" class="node"><title>p57</title>
<ellipse fill="none" stroke="black" cx="786" cy="-364" rx="3.25" ry="3.5"/>
<text text-anchor="middle" x="769" y="-371.3" font-family="Times,serif" font-size="14.00">mix</text>
</g>
<!-- p56&#45;&gt;p57 -->
<g id="edge69" class="edge"><title>p56&#45;&gt;p57</title>
<path fill="none" stroke="black" d="M583.38,-421.11C644.909,-404.071 738.393,-378.184 772.742,-368.672"/>
<polygon fill="black" stroke="black" points="774.118,-371.922 782.821,-365.88 772.25,-365.176 774.118,-371.922"/>
</g>
<!-- p49 -->
<g id="node49" class="node"><title>p49</title>
<ellipse fill="none" stroke="black" cx="626" cy="-526" rx="3.25" ry="3.5"/>
<text text-anchor="middle" x="609" y="-533.3" font-family="Times,serif" font-size="14.00">mix</text>
</g>
<!-- p45&#45;&gt;p49 -->
<g id="edge54" class="edge"><title>p45&#45;&gt;p49</title>
<path fill="none" stroke="black" d="M812.819,-610.657C810.858,-606.999 806.587,-599.94 801,-596 770.103,-574.208 669.897,-565.792 639,-544 636.643,-542.338 634.52,-540.12 632.706,-537.838"/>
<polygon fill="black" stroke="black" points="635.567,-535.817 627.181,-529.343 629.699,-539.634 635.567,-535.817"/>
<text text-anchor="middle" x="790" y="-566.3" font-family="Times,serif" font-size="14.00">version_ch</text>
</g>
<!-- p44 -->
<g id="node46" class="node"><title>p44</title>
<ellipse fill="none" stroke="black" cx="584" cy="-702" rx="234.919" ry="18"/>
<text text-anchor="middle" x="584" y="-698.3" font-family="Times,serif" font-size="14.00">MOSDEPTH_BAMS_01:COLLECT_TO_FILE_01</text>
</g>
<!-- p42&#45;&gt;p44 -->
<g id="edge50" class="edge"><title>p42&#45;&gt;p44</title>
<path fill="none" stroke="black" d="M657.616,-830.432C655.78,-818.808 647.059,-770.295 625,-738 622.305,-734.054 619.053,-730.289 615.575,-726.791"/>
<polygon fill="black" stroke="black" points="617.946,-724.217 608.222,-720.012 613.201,-729.363 617.946,-724.217"/>
</g>
<!-- p47 -->
<g id="node48" class="node"><title>p47</title>
<ellipse fill="none" stroke="black" cx="579" cy="-614" rx="213.247" ry="18"/>
<text text-anchor="middle" x="579" y="-610.3" font-family="Times,serif" font-size="14.00">MOSDEPTH_BAMS_01:ZIP_REGION_DIST</text>
</g>
<!-- p44&#45;&gt;p47 -->
<g id="edge52" class="edge"><title>p44&#45;&gt;p47</title>
<path fill="none" stroke="black" d="M582.988,-683.597C582.299,-671.746 581.373,-655.817 580.587,-642.292"/>
<polygon fill="black" stroke="black" points="584.068,-641.864 579.993,-632.084 577.08,-642.27 584.068,-641.864"/>
</g>
<!-- p44&#45;&gt;p45 -->
<g id="edge53" class="edge"><title>p44&#45;&gt;p45</title>
<path fill="none" stroke="black" d="M634.81,-684.37C665.754,-674.299 706.111,-661.266 742,-650 768.157,-641.789 778.483,-647.639 801,-632 803.369,-630.355 805.496,-628.144 807.311,-625.863"/>
<polygon fill="black" stroke="black" points="810.325,-627.648 812.826,-617.352 804.45,-623.841 810.325,-627.648"/>
</g>
<!-- p50 -->
<g id="node53" class="node"><title>p50</title>
<ellipse fill="none" stroke="black" cx="839" cy="-614" rx="3.25" ry="3.5"/>
<text text-anchor="middle" x="820" y="-599.3" font-family="Times,serif" font-size="14.00">map</text>
</g>
<!-- p44&#45;&gt;p50 -->
<g id="edge59" class="edge"><title>p44&#45;&gt;p50</title>
<path fill="none" stroke="black" d="M696.547,-686.167C740.116,-676.221 788.432,-659.635 826,-632 828.323,-630.291 830.433,-628.055 832.245,-625.77"/>
<polygon fill="black" stroke="black" points="835.233,-627.596 837.8,-617.316 829.383,-623.751 835.233,-627.596"/>
</g>
<!-- p43 -->
<g id="node47" class="node"><title>p43</title>
<ellipse fill="black" stroke="black" cx="582" cy="-790" rx="3.6" ry="3.6"/>
</g>
<!-- p43&#45;&gt;p44 -->
<g id="edge51" class="edge"><title>p43&#45;&gt;p44</title>
<path fill="none" stroke="black" d="M582.067,-786.139C582.267,-777.502 582.883,-751.011 583.367,-730.227"/>
<polygon fill="black" stroke="black" points="586.871,-730.082 583.605,-720.004 579.873,-729.92 586.871,-730.082"/>
<text text-anchor="middle" x="602.5" y="-742.3" font-family="Times,serif" font-size="14.00">meta</text>
</g>
<!-- p48 -->
<g id="node51" class="node"><title>p48</title>
<ellipse fill="black" stroke="black" cx="502" cy="-526" rx="1.8" ry="1.8"/>
</g>
<!-- p47&#45;&gt;p48 -->
<g id="edge56" class="edge"><title>p47&#45;&gt;p48</title>
<path fill="none" stroke="black" d="M519.273,-596.486C511.253,-591.778 504.062,-585.739 499,-578 491.081,-565.891 494.472,-548.506 497.975,-537.486"/>
<polygon fill="black" stroke="black" points="501.372,-538.398 501.629,-527.807 494.823,-535.926 501.372,-538.398"/>
<text text-anchor="middle" x="553.5" y="-566.3" font-family="Times,serif" font-size="14.00">region_dist_zip</text>
</g>
<!-- p47&#45;&gt;p49 -->
<g id="edge57" class="edge"><title>p47&#45;&gt;p49</title>
<path fill="none" stroke="black" d="M598.331,-595.842C603.375,-590.545 608.4,-584.407 612,-578 618.779,-565.936 622.429,-550.399 624.284,-539.661"/>
<polygon fill="black" stroke="black" points="627.786,-539.895 625.747,-529.498 620.858,-538.897 627.786,-539.895"/>
</g>
<!-- p53 -->
<g id="node52" class="node"><title>p53</title>
<ellipse fill="none" stroke="black" cx="786" cy="-438" rx="3.25" ry="3.5"/>
<text text-anchor="middle" x="769" y="-445.3" font-family="Times,serif" font-size="14.00">mix</text>
</g>
<!-- p49&#45;&gt;p53 -->
<g id="edge58" class="edge"><title>p49&#45;&gt;p53</title>
<path fill="none" stroke="black" d="M627.243,-522.74C629.29,-519.195 633.677,-512.29 639,-508 682.204,-473.177 745.871,-451.113 772.994,-442.774"/>
<polygon fill="black" stroke="black" points="774.305,-446.036 782.905,-439.848 772.323,-439.322 774.305,-446.036"/>
<text text-anchor="middle" x="731" y="-478.3" font-family="Times,serif" font-size="14.00">version_ch</text>
</g>
<!-- p46 -->
<g id="node50" class="node"><title>p46</title>
<ellipse fill="black" stroke="black" cx="327" cy="-702" rx="3.6" ry="3.6"/>
</g>
<!-- p46&#45;&gt;p47 -->
<g id="edge55" class="edge"><title>p46&#45;&gt;p47</title>
<path fill="none" stroke="black" d="M328.433,-698.138C330.481,-694.341 334.601,-687.69 340,-684 377.297,-658.511 424.017,-642.331 466.233,-632.109"/>
<polygon fill="black" stroke="black" points="467.067,-635.509 476.01,-629.828 465.476,-628.692 467.067,-635.509"/>
<text text-anchor="middle" x="425.5" y="-654.3" font-family="Times,serif" font-size="14.00">meta</text>
</g>
<!-- p53&#45;&gt;p57 -->
<g id="edge64" class="edge"><title>p53&#45;&gt;p57</title>
<path fill="none" stroke="black" d="M786,-434.265C786,-425.133 786,-395.282 786,-377.892"/>
<polygon fill="black" stroke="black" points="789.5,-377.737 786,-367.737 782.5,-377.737 789.5,-377.737"/>
<text text-anchor="middle" x="825" y="-390.3" font-family="Times,serif" font-size="14.00">version_ch</text>
</g>
<!-- p52 -->
<g id="node54" class="node"><title>p52</title>
<ellipse fill="none" stroke="black" cx="835" cy="-526" rx="187.275" ry="18"/>
<text text-anchor="middle" x="835" y="-522.3" font-family="Times,serif" font-size="14.00">MOSDEPTH_BAMS_01:MULTIQC_01</text>
</g>
<!-- p50&#45;&gt;p52 -->
<g id="edge60" class="edge"><title>p50&#45;&gt;p52</title>
<path fill="none" stroke="black" d="M838.867,-610.139C838.465,-601.502 837.233,-575.011 836.266,-554.227"/>
<polygon fill="black" stroke="black" points="839.752,-553.83 835.791,-544.004 832.759,-554.156 839.752,-553.83"/>
</g>
<!-- p52&#45;&gt;p69 -->
<g id="edge62" class="edge"><title>p52&#45;&gt;p69</title>
<path fill="none" stroke="black" d="M782.769,-508.647C751.979,-495.398 719,-473.22 719,-439 719,-439 719,-439 719,-133 719,-118.205 719,-101.7 719,-88.2288"/>
<polygon fill="black" stroke="black" points="722.5,-88.1662 719,-78.1662 715.5,-88.1662 722.5,-88.1662"/>
<text text-anchor="middle" x="746.5" y="-296.3" font-family="Times,serif" font-size="14.00">multiqc</text>
</g>
<!-- p52&#45;&gt;p53 -->
<g id="edge63" class="edge"><title>p52&#45;&gt;p53</title>
<path fill="none" stroke="black" d="M825.319,-508.009C815.54,-490.846 800.715,-464.826 792.341,-450.13"/>
<polygon fill="black" stroke="black" points="795.378,-448.388 787.386,-441.432 789.295,-451.854 795.378,-448.388"/>
</g>
<!-- p51 -->
<g id="node55" class="node"><title>p51</title>
<ellipse fill="black" stroke="black" cx="868" cy="-614" rx="3.6" ry="3.6"/>
</g>
<!-- p51&#45;&gt;p52 -->
<g id="edge61" class="edge"><title>p51&#45;&gt;p52</title>
<path fill="none" stroke="black" d="M867.048,-610.519C863.873,-602.245 853.39,-574.926 845.269,-553.761"/>
<polygon fill="black" stroke="black" points="848.476,-552.35 841.626,-544.268 841.941,-554.858 848.476,-552.35"/>
<text text-anchor="middle" x="873.5" y="-566.3" font-family="Times,serif" font-size="14.00">meta</text>
</g>
<!-- p70 -->
<g id="node71" class="node"><title>p70</title>
<ellipse fill="black" stroke="black" cx="719" cy="-2" rx="1.8" ry="1.8"/>
</g>
<!-- p69&#45;&gt;p70 -->
<g id="edge84" class="edge"><title>p69&#45;&gt;p70</title>
<path fill="none" stroke="black" d="M719,-41.8939C719,-32.8876 719,-22.0999 719,-14.1727"/>
<polygon fill="black" stroke="black" points="722.5,-13.9957 719,-3.99575 715.5,-13.9958 722.5,-13.9957"/>
</g>
<!-- p60 -->
<g id="node62" class="node"><title>p60</title>
<ellipse fill="none" stroke="black" cx="890" cy="-300" rx="3.25" ry="3.5"/>
<text text-anchor="middle" x="862" y="-307.3" font-family="Times,serif" font-size="14.00">collect</text>
</g>
<!-- p57&#45;&gt;p60 -->
<g id="edge70" class="edge"><title>p57&#45;&gt;p60</title>
<path fill="none" stroke="black" d="M788.571,-361.467C800.992,-354.062 855.161,-321.769 878.847,-307.649"/>
<polygon fill="black" stroke="black" points="880.722,-310.606 887.519,-302.479 877.137,-304.593 880.722,-310.606"/>
<text text-anchor="middle" x="887" y="-330.3" font-family="Times,serif" font-size="14.00">version_ch</text>
</g>
<!-- p54 -->
<g id="node58" class="node"><title>p54</title>
<ellipse fill="black" stroke="black" cx="339" cy="-438" rx="3.6" ry="3.6"/>
<text text-anchor="middle" x="280.9" y="-445.4" font-family="Times,serif" font-size="14.00">Channel.empty</text>
</g>
<!-- p54&#45;&gt;p58 -->
<g id="edge65" class="edge"><title>p54&#45;&gt;p58</title>
<path fill="none" stroke="black" d="M340.518,-434.253C342.662,-430.585 346.89,-424.08 352,-420 386.148,-392.731 436.005,-375.57 459.221,-368.588"/>
<polygon fill="black" stroke="black" points="460.459,-371.875 469.11,-365.757 458.533,-365.145 460.459,-371.875"/>
<text text-anchor="middle" x="435.5" y="-390.3" font-family="Times,serif" font-size="14.00">pdf_ch</text>
</g>
<!-- p58&#45;&gt;p59 -->
<g id="edge71" class="edge"><title>p58&#45;&gt;p59</title>
<path fill="none" stroke="black" d="M471.177,-360.37C469.314,-353.86 465.49,-336.745 473,-326 484.271,-309.875 507.69,-304.149 522.583,-302.117"/>
<polygon fill="black" stroke="black" points="523.023,-305.591 532.634,-301.131 522.34,-298.624 523.023,-305.591"/>
<text text-anchor="middle" x="497.5" y="-330.3" font-family="Times,serif" font-size="14.00">pdf_ch</text>
</g>
<!-- p55 -->
<g id="node60" class="node"><title>p55</title>
<ellipse fill="black" stroke="black" cx="526" cy="-526" rx="3.6" ry="3.6"/>
</g>
<!-- p55&#45;&gt;p56 -->
<g id="edge66" class="edge"><title>p55&#45;&gt;p56</title>
<path fill="none" stroke="black" d="M526,-522.139C526,-513.502 526,-487.011 526,-466.227"/>
<polygon fill="black" stroke="black" points="529.5,-466.004 526,-456.004 522.5,-466.004 529.5,-466.004"/>
<text text-anchor="middle" x="544.5" y="-478.3" font-family="Times,serif" font-size="14.00">meta</text>
</g>
<!-- p65 -->
<g id="node63" class="node"><title>p65</title>
<ellipse fill="none" stroke="black" cx="632" cy="-222" rx="3.25" ry="3.5"/>
<text text-anchor="middle" x="604" y="-229.3" font-family="Times,serif" font-size="14.00">collect</text>
</g>
<!-- p59&#45;&gt;p65 -->
<g id="edge72" class="edge"><title>p59&#45;&gt;p65</title>
<path fill="none" stroke="black" d="M538.373,-297.121C549.839,-288.044 599.841,-248.459 621.705,-231.151"/>
<polygon fill="black" stroke="black" points="624.042,-233.764 629.71,-224.813 619.697,-228.276 624.042,-233.764"/>
<text text-anchor="middle" x="611.5" y="-262.3" font-family="Times,serif" font-size="14.00">pdf_ch</text>
</g>
<!-- p64 -->
<g id="node64" class="node"><title>p64</title>
<ellipse fill="none" stroke="black" cx="959" cy="-222" rx="211.322" ry="18"/>
<text text-anchor="middle" x="959" y="-218.3" font-family="Times,serif" font-size="14.00">MOSDEPTH_BAMS_01:MERGE_VERSION</text>
</g>
<!-- p60&#45;&gt;p64 -->
<g id="edge73" class="edge"><title>p60&#45;&gt;p64</title>
<path fill="none" stroke="black" d="M891.991,-296.807C898.487,-289.652 919.617,-266.378 936.434,-247.856"/>
<polygon fill="black" stroke="black" points="939.191,-250.026 943.321,-240.269 934.008,-245.32 939.191,-250.026"/>
</g>
<!-- p68 -->
<g id="node69" class="node"><title>p68</title>
<ellipse fill="none" stroke="black" cx="665" cy="-134" rx="3.25" ry="3.5"/>
<text text-anchor="middle" x="637" y="-141.3" font-family="Times,serif" font-size="14.00">collect</text>
</g>
<!-- p65&#45;&gt;p68 -->
<g id="edge78" class="edge"><title>p65&#45;&gt;p68</title>
<path fill="none" stroke="black" d="M632.952,-218.519C636.945,-208.113 652.498,-167.581 660.375,-147.054"/>
<polygon fill="black" stroke="black" points="663.665,-148.249 663.98,-137.659 657.129,-145.742 663.665,-148.249"/>
<text text-anchor="middle" x="664" y="-174.3" font-family="Times,serif" font-size="14.00">pdf</text>
</g>
<!-- p67 -->
<g id="node68" class="node"><title>p67</title>
<ellipse fill="none" stroke="black" cx="959" cy="-134" rx="111.186" ry="18"/>
<text text-anchor="middle" x="959" y="-130.3" font-family="Times,serif" font-size="14.00">VERSION_TO_HTML</text>
</g>
<!-- p64&#45;&gt;p67 -->
<g id="edge77" class="edge"><title>p64&#45;&gt;p67</title>
<path fill="none" stroke="black" d="M959,-203.597C959,-191.746 959,-175.817 959,-162.292"/>
<polygon fill="black" stroke="black" points="962.5,-162.084 959,-152.084 955.5,-162.084 962.5,-162.084"/>
</g>
<!-- p64&#45;&gt;p69 -->
<g id="edge82" class="edge"><title>p64&#45;&gt;p69</title>
<path fill="none" stroke="black" d="M894.143,-204.863C859.317,-193.954 817.08,-176.919 785,-152 762.381,-134.43 744.005,-107.098 732.441,-86.9714"/>
<polygon fill="black" stroke="black" points="735.384,-85.062 727.47,-78.0185 729.265,-88.4602 735.384,-85.062"/>
<text text-anchor="middle" x="811.5" y="-130.3" font-family="Times,serif" font-size="14.00">version</text>
</g>
<!-- p61 -->
<g id="node65" class="node"><title>p61</title>
<ellipse fill="black" stroke="black" cx="959" cy="-300" rx="3.6" ry="3.6"/>
</g>
<!-- p61&#45;&gt;p64 -->
<g id="edge74" class="edge"><title>p61&#45;&gt;p64</title>
<path fill="none" stroke="black" d="M959,-296.114C959,-288.614 959,-267.88 959,-250.399"/>
<polygon fill="black" stroke="black" points="962.5,-250.082 959,-240.083 955.5,-250.083 962.5,-250.082"/>
<text text-anchor="middle" x="977.5" y="-262.3" font-family="Times,serif" font-size="14.00">meta</text>
</g>
<!-- p62 -->
<g id="node66" class="node"><title>p62</title>
<ellipse fill="black" stroke="black" cx="1019" cy="-300" rx="3.6" ry="3.6"/>
</g>
<!-- p62&#45;&gt;p64 -->
<g id="edge75" class="edge"><title>p62&#45;&gt;p64</title>
<path fill="none" stroke="black" d="M1017.9,-296.224C1015.07,-289.326 1007.1,-271.024 997,-258 994.063,-254.212 990.697,-250.481 987.208,-246.947"/>
<polygon fill="black" stroke="black" points="989.616,-244.407 979.974,-240.017 984.774,-249.462 989.616,-244.407"/>
<text text-anchor="middle" x="1027" y="-262.3" font-family="Times,serif" font-size="14.00">name</text>
</g>
<!-- p63 -->
<g id="node67" class="node"><title>p63</title>
<ellipse fill="black" stroke="black" cx="829" cy="-300" rx="3.6" ry="3.6"/>
</g>
<!-- p63&#45;&gt;p64 -->
<g id="edge76" class="edge"><title>p63&#45;&gt;p64</title>
<path fill="none" stroke="black" d="M828.05,-296.456C825.623,-289.473 819.994,-269.751 829,-258 833.957,-251.532 845.857,-245.991 860.552,-241.352"/>
<polygon fill="black" stroke="black" points="861.945,-244.592 870.566,-238.433 859.986,-237.871 861.945,-244.592"/>
<text text-anchor="middle" x="870" y="-262.3" font-family="Times,serif" font-size="14.00">description</text>
</g>
<!-- p67&#45;&gt;p69 -->
<g id="edge80" class="edge"><title>p67&#45;&gt;p69</title>
<path fill="none" stroke="black" d="M908.688,-117.906C867.419,-105.526 809.321,-88.0963 768.323,-75.797"/>
<polygon fill="black" stroke="black" points="769.134,-72.3862 758.55,-72.8651 767.123,-79.091 769.134,-72.3862"/>
</g>
<!-- p68&#45;&gt;p69 -->
<g id="edge81" class="edge"><title>p68&#45;&gt;p69</title>
<path fill="none" stroke="black" d="M666.558,-130.923C671.521,-124.305 687.401,-103.132 700.398,-85.8026"/>
<polygon fill="black" stroke="black" points="703.286,-87.7851 706.486,-77.6851 697.686,-83.5851 703.286,-87.7851"/>
</g>
<!-- p66 -->
<g id="node70" class="node"><title>p66</title>
<ellipse fill="black" stroke="black" cx="1192" cy="-222" rx="3.6" ry="3.6"/>
</g>
<!-- p66&#45;&gt;p67 -->
<g id="edge79" class="edge"><title>p66&#45;&gt;p67</title>
<path fill="none" stroke="black" d="M1190.55,-218.156C1188.49,-214.38 1184.36,-207.751 1179,-204 1139.53,-176.36 1088.54,-159.457 1045.59,-149.306"/>
<polygon fill="black" stroke="black" points="1046.23,-145.863 1035.7,-147.055 1044.68,-152.688 1046.23,-145.863"/>
<text text-anchor="middle" x="1164.5" y="-174.3" font-family="Times,serif" font-size="14.00">meta</text>
</g>
</g>
</svg>
