<?xml version="1.0" encoding="UTF-8" standalone="no"?>
<!DOCTYPE svg PUBLIC "-//W3C//DTD SVG 1.1//EN"
 "http://www.w3.org/Graphics/SVG/1.1/DTD/svg11.dtd">
<!-- Generated by graphviz version 2.30.1 (20201013.1554)
 -->
<!-- Title: 20220922bettysashimihs38meworkflow Pages: 1 -->
<svg width="1018pt" height="1288pt"
 viewBox="0.00 0.00 1017.60 1288.00" xmlns="http://www.w3.org/2000/svg" xmlns:xlink="http://www.w3.org/1999/xlink">
<g id="graph0" class="graph" transform="scale(1 1) rotate(0) translate(4 1284)">
<title>20220922bettysashimihs38meworkflow</title>
<polygon fill="white" stroke="white" points="-4,5 -4,-1284 1014.6,-1284 1014.6,5 -4,5"/>
<!-- p0 -->
<g id="node1" class="node"><title>p0</title>
<ellipse fill="black" stroke="black" cx="252.6" cy="-1142" rx="3.6" ry="3.6"/>
<text text-anchor="middle" x="184" y="-1149.4" font-family="Times,serif" font-size="14.00">Channel.fromPath</text>
</g>
<!-- p11 -->
<g id="node2" class="node"><title>p11</title>
<ellipse fill="none" stroke="black" cx="252.6" cy="-1068" rx="3.25" ry="3.5"/>
<text text-anchor="middle" x="219.6" y="-1075.3" font-family="Times,serif" font-size="14.00">splitCsv</text>
</g>
<!-- p0&#45;&gt;p11 -->
<g id="edge1" class="edge"><title>p0&#45;&gt;p11</title>
<path fill="none" stroke="black" d="M252.6,-1138.27C252.6,-1129.13 252.6,-1099.28 252.6,-1081.89"/>
<polygon fill="black" stroke="black" points="256.1,-1081.74 252.6,-1071.74 249.1,-1081.74 256.1,-1081.74"/>
<text text-anchor="middle" x="266.1" y="-1108.3" font-family="Times,serif" font-size="14.00">bed</text>
</g>
<!-- p12 -->
<g id="node16" class="node"><title>p12</title>
<ellipse fill="none" stroke="black" cx="252.6" cy="-994" rx="3.25" ry="3.5"/>
<text text-anchor="middle" x="233.6" y="-1001.3" font-family="Times,serif" font-size="14.00">map</text>
</g>
<!-- p11&#45;&gt;p12 -->
<g id="edge14" class="edge"><title>p11&#45;&gt;p12</title>
<path fill="none" stroke="black" d="M252.6,-1064.27C252.6,-1055.13 252.6,-1025.28 252.6,-1007.89"/>
<polygon fill="black" stroke="black" points="256.1,-1007.74 252.6,-997.737 249.1,-1007.74 256.1,-1007.74"/>
</g>
<!-- p1 -->
<g id="node3" class="node"><title>p1</title>
<ellipse fill="black" stroke="black" cx="827.6" cy="-1068" rx="3.6" ry="3.6"/>
<text text-anchor="middle" x="878.5" y="-1075.4" font-family="Times,serif" font-size="14.00">Channel.empty</text>
</g>
<!-- p4 -->
<g id="node4" class="node"><title>p4</title>
<ellipse fill="none" stroke="black" cx="796.6" cy="-994" rx="3.25" ry="3.5"/>
<text text-anchor="middle" x="779.6" y="-1001.3" font-family="Times,serif" font-size="14.00">mix</text>
</g>
<!-- p1&#45;&gt;p4 -->
<g id="edge2" class="edge"><title>p1&#45;&gt;p4</title>
<path fill="none" stroke="black" d="M825.826,-1064.52C823.393,-1061.15 818.837,-1054.98 814.6,-1050 807.47,-1041.62 801.803,-1042.17 797.6,-1032 794.431,-1024.33 794.204,-1014.99 794.758,-1007.61"/>
<polygon fill="black" stroke="black" points="798.259,-1007.83 796.087,-997.46 791.318,-1006.92 798.259,-1007.83"/>
<text text-anchor="middle" x="836.6" y="-1020.3" font-family="Times,serif" font-size="14.00">version_ch</text>
</g>
<!-- p7 -->
<g id="node8" class="node"><title>p7</title>
<ellipse fill="none" stroke="black" cx="865.6" cy="-920" rx="3.25" ry="3.5"/>
<text text-anchor="middle" x="875.6" y="-927.3" font-family="Times,serif" font-size="14.00">mix</text>
</g>
<!-- p4&#45;&gt;p7 -->
<g id="edge6" class="edge"><title>p4&#45;&gt;p7</title>
<path fill="none" stroke="black" d="M795.737,-990.341C793.781,-983.764 789.763,-966.509 797.6,-956 812.976,-935.382 831.624,-952.884 852.6,-938 854.952,-936.331 857.073,-934.111 858.887,-931.828"/>
<polygon fill="black" stroke="black" points="861.891,-933.628 864.417,-923.339 856.026,-929.808 861.891,-933.628"/>
<text text-anchor="middle" x="836.6" y="-960.3" font-family="Times,serif" font-size="14.00">version_ch</text>
</g>
<!-- p2 -->
<g id="node5" class="node"><title>p2</title>
<ellipse fill="black" stroke="black" cx="568.6" cy="-1142" rx="3.6" ry="3.6"/>
</g>
<!-- p3 -->
<g id="node6" class="node"><title>p3</title>
<ellipse fill="none" stroke="black" cx="568.6" cy="-1068" rx="237.344" ry="18"/>
<text text-anchor="middle" x="568.6" y="-1064.3" font-family="Times,serif" font-size="14.00">SASHIMI_ENCODE_01:BATIK_DOWNLOAD_01</text>
</g>
<!-- p2&#45;&gt;p3 -->
<g id="edge3" class="edge"><title>p2&#45;&gt;p3</title>
<path fill="none" stroke="black" d="M568.6,-1138.27C568.6,-1131.35 568.6,-1112.58 568.6,-1096.32"/>
<polygon fill="black" stroke="black" points="572.1,-1096.14 568.6,-1086.14 565.1,-1096.14 572.1,-1096.14"/>
<text text-anchor="middle" x="587.1" y="-1108.3" font-family="Times,serif" font-size="14.00">meta</text>
</g>
<!-- p19 -->
<g id="node7" class="node"><title>p19</title>
<ellipse fill="none" stroke="black" cx="411.6" cy="-832" rx="230.119" ry="18"/>
<text text-anchor="middle" x="411.6" y="-828.3" font-family="Times,serif" font-size="14.00">SASHIMI_ENCODE_01:DOWNLOAD_BAM_01</text>
</g>
<!-- p3&#45;&gt;p19 -->
<g id="edge4" class="edge"><title>p3&#45;&gt;p19</title>
<path fill="none" stroke="black" d="M551.86,-1049.72C529.404,-1025.95 489.168,-981.158 461.6,-938 445.389,-912.62 431.094,-881.171 421.987,-859.34"/>
<polygon fill="black" stroke="black" points="425.208,-857.97 418.179,-850.043 418.73,-860.623 425.208,-857.97"/>
</g>
<!-- p3&#45;&gt;p4 -->
<g id="edge5" class="edge"><title>p3&#45;&gt;p4</title>
<path fill="none" stroke="black" d="M621.194,-1050.39C674.364,-1033.6 752.935,-1008.79 783.639,-999.093"/>
<polygon fill="black" stroke="black" points="784.93,-1002.36 793.412,-996.007 782.822,-995.681 784.93,-1002.36"/>
</g>
<!-- p20 -->
<g id="node22" class="node"><title>p20</title>
<ellipse fill="black" stroke="black" cx="411.6" cy="-758" rx="1.8" ry="1.8"/>
</g>
<!-- p19&#45;&gt;p20 -->
<g id="edge23" class="edge"><title>p19&#45;&gt;p20</title>
<path fill="none" stroke="black" d="M411.6,-813.937C411.6,-800.37 411.6,-781.787 411.6,-770.089"/>
<polygon fill="black" stroke="black" points="415.1,-769.849 411.6,-759.849 408.1,-769.849 415.1,-769.849"/>
</g>
<!-- p26 -->
<g id="node23" class="node"><title>p26</title>
<ellipse fill="none" stroke="black" cx="657.6" cy="-728" rx="3.25" ry="3.5"/>
<text text-anchor="middle" x="629.6" y="-735.3" font-family="Times,serif" font-size="14.00">collect</text>
</g>
<!-- p19&#45;&gt;p26 -->
<g id="edge24" class="edge"><title>p19&#45;&gt;p26</title>
<path fill="none" stroke="black" d="M457.671,-814.21C472.698,-808.587 489.419,-802.175 504.6,-796 557.469,-774.493 619.485,-746.451 645.33,-734.637"/>
<polygon fill="black" stroke="black" points="647.077,-737.686 654.707,-730.335 644.159,-731.323 647.077,-737.686"/>
</g>
<!-- p22 -->
<g id="node24" class="node"><title>p22</title>
<ellipse fill="none" stroke="black" cx="324.6" cy="-758" rx="3.25" ry="3.5"/>
<text text-anchor="middle" x="279.6" y="-765.3" font-family="Times,serif" font-size="14.00">groupTuple</text>
</g>
<!-- p19&#45;&gt;p22 -->
<g id="edge25" class="edge"><title>p19&#45;&gt;p22</title>
<path fill="none" stroke="black" d="M390.982,-813.937C373.191,-799.213 348.261,-778.582 334.574,-767.254"/>
<polygon fill="black" stroke="black" points="336.793,-764.547 326.857,-760.868 332.33,-769.94 336.793,-764.547"/>
</g>
<!-- p21 -->
<g id="node19" class="node"><title>p21</title>
<ellipse fill="none" stroke="black" cx="543.6" cy="-758" rx="3.25" ry="3.5"/>
<text text-anchor="middle" x="526.6" y="-765.3" font-family="Times,serif" font-size="14.00">mix</text>
</g>
<!-- p19&#45;&gt;p21 -->
<g id="edge26" class="edge"><title>p19&#45;&gt;p21</title>
<path fill="none" stroke="black" d="M442.548,-814.119C471.086,-798.553 511.94,-776.269 531.825,-765.423"/>
<polygon fill="black" stroke="black" points="533.755,-768.357 540.858,-760.496 530.403,-762.211 533.755,-768.357"/>
</g>
<!-- p15 -->
<g id="node12" class="node"><title>p15</title>
<ellipse fill="none" stroke="black" cx="663.6" cy="-832" rx="3.25" ry="3.5"/>
<text text-anchor="middle" x="673.6" y="-839.3" font-family="Times,serif" font-size="14.00">mix</text>
</g>
<!-- p7&#45;&gt;p15 -->
<g id="edge10" class="edge"><title>p7&#45;&gt;p15</title>
<path fill="none" stroke="black" d="M864.401,-916.683C862.414,-913.06 858.108,-906.05 852.6,-902 795.209,-859.803 709.319,-841.049 676.754,-835.165"/>
<polygon fill="black" stroke="black" points="677.24,-831.698 666.795,-833.478 676.07,-838.6 677.24,-831.698"/>
<text text-anchor="middle" x="858.6" y="-872.3" font-family="Times,serif" font-size="14.00">version_ch</text>
</g>
<!-- p5 -->
<g id="node9" class="node"><title>p5</title>
<ellipse fill="black" stroke="black" cx="781.6" cy="-1276" rx="3.6" ry="3.6"/>
</g>
<!-- p6 -->
<g id="node10" class="node"><title>p6</title>
<ellipse fill="none" stroke="black" cx="781.6" cy="-1202" rx="228.17" ry="18"/>
<text text-anchor="middle" x="781.6" y="-1198.3" font-family="Times,serif" font-size="14.00">SASHIMI_ENCODE_01:ENCODE_METADATA</text>
</g>
<!-- p5&#45;&gt;p6 -->
<g id="edge7" class="edge"><title>p5&#45;&gt;p6</title>
<path fill="none" stroke="black" d="M781.6,-1272.27C781.6,-1265.35 781.6,-1246.58 781.6,-1230.32"/>
<polygon fill="black" stroke="black" points="785.1,-1230.14 781.6,-1220.14 778.1,-1230.14 785.1,-1230.14"/>
<text text-anchor="middle" x="800.1" y="-1242.3" font-family="Times,serif" font-size="14.00">meta</text>
</g>
<!-- p8 -->
<g id="node11" class="node"><title>p8</title>
<ellipse fill="none" stroke="black" cx="483.6" cy="-1142" rx="3.25" ry="3.5"/>
<text text-anchor="middle" x="450.6" y="-1149.3" font-family="Times,serif" font-size="14.00">splitCsv</text>
</g>
<!-- p6&#45;&gt;p8 -->
<g id="edge8" class="edge"><title>p6&#45;&gt;p8</title>
<path fill="none" stroke="black" d="M700.17,-1185.15C628.955,-1171.29 531.613,-1152.34 496.714,-1145.55"/>
<polygon fill="black" stroke="black" points="497.33,-1142.11 486.845,-1143.63 495.992,-1148.98 497.33,-1142.11"/>
</g>
<!-- p6&#45;&gt;p7 -->
<g id="edge9" class="edge"><title>p6&#45;&gt;p7</title>
<path fill="none" stroke="black" d="M856.315,-1184.89C874.883,-1176.28 889.6,-1163.11 889.6,-1143 889.6,-1143 889.6,-1143 889.6,-993 889.6,-970.765 879.172,-946.559 872.063,-932.641"/>
<polygon fill="black" stroke="black" points="875.023,-930.757 867.175,-923.64 868.871,-934.098 875.023,-930.757"/>
</g>
<!-- p9 -->
<g id="node13" class="node"><title>p9</title>
<ellipse fill="none" stroke="black" cx="309.6" cy="-1068" rx="3.25" ry="3.5"/>
<text text-anchor="middle" x="288.1" y="-1075.3" font-family="Times,serif" font-size="14.00">filter</text>
</g>
<!-- p8&#45;&gt;p9 -->
<g id="edge11" class="edge"><title>p8&#45;&gt;p9</title>
<path fill="none" stroke="black" d="M480.205,-1140.58C462.267,-1138.23 377.271,-1125.33 322.6,-1086 320.259,-1084.32 318.142,-1082.09 316.329,-1079.81"/>
<polygon fill="black" stroke="black" points="319.19,-1077.79 310.79,-1071.33 313.331,-1081.62 319.19,-1077.79"/>
</g>
<!-- p15&#45;&gt;p21 -->
<g id="edge19" class="edge"><title>p15&#45;&gt;p21</title>
<path fill="none" stroke="black" d="M662.338,-828.763C660.266,-825.249 655.845,-818.385 650.6,-814 620.595,-788.913 577.238,-771.1 556.114,-763.342"/>
<polygon fill="black" stroke="black" points="557.11,-759.982 546.515,-759.957 554.782,-766.583 557.11,-759.982"/>
<text text-anchor="middle" x="662.6" y="-784.3" font-family="Times,serif" font-size="14.00">version_ch</text>
</g>
<!-- p10 -->
<g id="node14" class="node"><title>p10</title>
<ellipse fill="none" stroke="black" cx="357.6" cy="-994" rx="3.25" ry="3.5"/>
<text text-anchor="middle" x="338.6" y="-1001.3" font-family="Times,serif" font-size="14.00">map</text>
</g>
<!-- p9&#45;&gt;p10 -->
<g id="edge12" class="edge"><title>p9&#45;&gt;p10</title>
<path fill="none" stroke="black" d="M311.197,-1064.6C317.232,-1055.55 338.885,-1023.07 350.354,-1005.87"/>
<polygon fill="black" stroke="black" points="353.313,-1007.74 355.948,-997.478 347.489,-1003.86 353.313,-1007.74"/>
</g>
<!-- p16 -->
<g id="node15" class="node"><title>p16</title>
<ellipse fill="none" stroke="black" cx="400.6" cy="-920" rx="3.25" ry="3.5"/>
<text text-anchor="middle" x="366.6" y="-927.3" font-family="Times,serif" font-size="14.00">combine</text>
</g>
<!-- p10&#45;&gt;p16 -->
<g id="edge13" class="edge"><title>p10&#45;&gt;p16</title>
<path fill="none" stroke="black" d="M357.491,-990.45C357.338,-984.123 357.665,-967.392 364.6,-956 371.35,-944.913 378.473,-947.23 387.6,-938 389.468,-936.111 391.307,-933.951 392.986,-931.819"/>
<polygon fill="black" stroke="black" points="395.918,-933.738 398.932,-923.581 390.242,-929.641 395.918,-933.738"/>
<text text-anchor="middle" x="396.6" y="-960.3" font-family="Times,serif" font-size="14.00">all_bams</text>
</g>
<!-- p16&#45;&gt;p19 -->
<g id="edge20" class="edge"><title>p16&#45;&gt;p19</title>
<path fill="none" stroke="black" d="M400.966,-916.139C402.076,-907.462 405.49,-880.767 408.154,-859.942"/>
<polygon fill="black" stroke="black" points="411.628,-860.367 409.425,-850.004 404.685,-859.479 411.628,-860.367"/>
</g>
<!-- p12&#45;&gt;p16 -->
<g id="edge15" class="edge"><title>p12&#45;&gt;p16</title>
<path fill="none" stroke="black" d="M252.83,-990.123C253.563,-983.05 256.493,-964.75 267.6,-956 309.963,-922.626 341.162,-965.422 387.6,-938 390.083,-936.533 392.256,-934.393 394.078,-932.123"/>
<polygon fill="black" stroke="black" points="397.164,-933.789 399.49,-923.453 391.226,-930.082 397.164,-933.789"/>
<text text-anchor="middle" x="311.6" y="-960.3" font-family="Times,serif" font-size="14.00">all_intervals</text>
</g>
<!-- p13 -->
<g id="node17" class="node"><title>p13</title>
<ellipse fill="black" stroke="black" cx="657.6" cy="-994" rx="3.6" ry="3.6"/>
</g>
<!-- p14 -->
<g id="node18" class="node"><title>p14</title>
<ellipse fill="none" stroke="black" cx="657.6" cy="-920" rx="186.3" ry="18"/>
<text text-anchor="middle" x="657.6" y="-916.3" font-family="Times,serif" font-size="14.00">SASHIMI_ENCODE_01:EXTRACTOR</text>
</g>
<!-- p13&#45;&gt;p14 -->
<g id="edge16" class="edge"><title>p13&#45;&gt;p14</title>
<path fill="none" stroke="black" d="M657.6,-990.265C657.6,-983.354 657.6,-964.578 657.6,-948.316"/>
<polygon fill="black" stroke="black" points="661.1,-948.143 657.6,-938.143 654.1,-948.143 661.1,-948.143"/>
<text text-anchor="middle" x="676.1" y="-960.3" font-family="Times,serif" font-size="14.00">meta</text>
</g>
<!-- p14&#45;&gt;p19 -->
<g id="edge17" class="edge"><title>p14&#45;&gt;p19</title>
<path fill="none" stroke="black" d="M610.46,-902.52C570.122,-888.418 511.926,-868.073 468.906,-853.034"/>
<polygon fill="black" stroke="black" points="470.014,-849.714 459.419,-849.717 467.704,-856.321 470.014,-849.714"/>
</g>
<!-- p14&#45;&gt;p15 -->
<g id="edge18" class="edge"><title>p14&#45;&gt;p15</title>
<path fill="none" stroke="black" d="M658.814,-901.597C659.969,-885.046 661.679,-860.54 662.711,-845.737"/>
<polygon fill="black" stroke="black" points="666.209,-845.89 663.414,-835.671 659.226,-845.403 666.209,-845.89"/>
</g>
<!-- p25 -->
<g id="node25" class="node"><title>p25</title>
<ellipse fill="none" stroke="black" cx="386.6" cy="-596" rx="3.25" ry="3.5"/>
<text text-anchor="middle" x="369.6" y="-603.3" font-family="Times,serif" font-size="14.00">mix</text>
</g>
<!-- p21&#45;&gt;p25 -->
<g id="edge27" class="edge"><title>p21&#45;&gt;p25</title>
<path fill="none" stroke="black" d="M543.549,-754.388C543.18,-742.597 540.168,-693.701 515.6,-666 477.842,-623.427 442.589,-650.098 398.6,-614 396.757,-612.487 395.066,-610.625 393.573,-608.693"/>
<polygon fill="black" stroke="black" points="396.236,-606.355 387.943,-599.761 390.314,-610.087 396.236,-606.355"/>
<text text-anchor="middle" x="572.6" y="-680.3" font-family="Times,serif" font-size="14.00">version_ch</text>
</g>
<!-- p17 -->
<g id="node20" class="node"><title>p17</title>
<ellipse fill="black" stroke="black" cx="315.6" cy="-920" rx="3.6" ry="3.6"/>
</g>
<!-- p17&#45;&gt;p19 -->
<g id="edge21" class="edge"><title>p17&#45;&gt;p19</title>
<path fill="none" stroke="black" d="M315.943,-916.298C317.127,-908.016 321.761,-882.663 335.6,-868 340.356,-862.96 345.979,-858.584 351.98,-854.798"/>
<polygon fill="black" stroke="black" points="354.03,-857.658 360.986,-849.665 350.564,-851.576 354.03,-857.658"/>
<text text-anchor="middle" x="354.1" y="-872.3" font-family="Times,serif" font-size="14.00">meta</text>
</g>
<!-- p18 -->
<g id="node21" class="node"><title>p18</title>
<ellipse fill="black" stroke="black" cx="375.6" cy="-920" rx="3.6" ry="3.6"/>
</g>
<!-- p18&#45;&gt;p19 -->
<g id="edge22" class="edge"><title>p18&#45;&gt;p19</title>
<path fill="none" stroke="black" d="M375.281,-916.082C374.525,-908.029 373.202,-884.962 380.6,-868 382.117,-864.522 384.114,-861.147 386.365,-857.953"/>
<polygon fill="black" stroke="black" points="389.235,-859.968 392.761,-849.977 383.774,-855.589 389.235,-859.968"/>
<text text-anchor="middle" x="391.1" y="-872.3" font-family="Times,serif" font-size="14.00">gtf</text>
</g>
<!-- p28 -->
<g id="node30" class="node"><title>p28</title>
<ellipse fill="none" stroke="black" cx="669.6" cy="-596" rx="261.39" ry="18"/>
<text text-anchor="middle" x="669.6" y="-592.3" font-family="Times,serif" font-size="14.00">SASHIMI_ENCODE_01:COLLECT_ALL_JUNCTIONS</text>
</g>
<!-- p26&#45;&gt;p28 -->
<g id="edge33" class="edge"><title>p26&#45;&gt;p28</title>
<path fill="none" stroke="black" d="M658.925,-724.68C664.791,-714.131 687.864,-669.587 681.6,-632 681.15,-629.301 680.518,-626.532 679.776,-623.789"/>
<polygon fill="black" stroke="black" points="683.084,-622.64 676.742,-614.153 676.407,-624.743 683.084,-622.64"/>
</g>
<!-- p24 -->
<g id="node26" class="node"><title>p24</title>
<ellipse fill="none" stroke="black" cx="320.6" cy="-684" rx="186.3" ry="18"/>
<text text-anchor="middle" x="320.6" y="-680.3" font-family="Times,serif" font-size="14.00">SASHIMI_ENCODE_01:MERGE_PDF</text>
</g>
<!-- p22&#45;&gt;p24 -->
<g id="edge28" class="edge"><title>p22&#45;&gt;p24</title>
<path fill="none" stroke="black" d="M324.448,-754.265C324.064,-747.354 323.021,-728.578 322.118,-712.316"/>
<polygon fill="black" stroke="black" points="325.602,-711.933 321.552,-702.143 318.613,-712.322 325.602,-711.933"/>
</g>
<!-- p29 -->
<g id="node29" class="node"><title>p29</title>
<ellipse fill="none" stroke="black" cx="411.6" cy="-522" rx="3.25" ry="3.5"/>
<text text-anchor="middle" x="394.6" y="-529.3" font-family="Times,serif" font-size="14.00">mix</text>
</g>
<!-- p25&#45;&gt;p29 -->
<g id="edge32" class="edge"><title>p25&#45;&gt;p29</title>
<path fill="none" stroke="black" d="M387.432,-592.604C390.501,-583.765 401.325,-552.591 407.395,-535.111"/>
<polygon fill="black" stroke="black" points="410.766,-536.073 410.739,-525.478 404.153,-533.777 410.766,-536.073"/>
<text text-anchor="middle" x="443.6" y="-548.3" font-family="Times,serif" font-size="14.00">version_ch</text>
</g>
<!-- p38 -->
<g id="node28" class="node"><title>p38</title>
<ellipse fill="none" stroke="black" cx="187.6" cy="-596" rx="3.25" ry="3.5"/>
<text text-anchor="middle" x="170.6" y="-603.3" font-family="Times,serif" font-size="14.00">mix</text>
</g>
<!-- p24&#45;&gt;p38 -->
<g id="edge30" class="edge"><title>p24&#45;&gt;p38</title>
<path fill="none" stroke="black" d="M294.323,-666.009C265.062,-647.088 219.156,-617.405 198.414,-603.993"/>
<polygon fill="black" stroke="black" points="200.21,-600.986 189.912,-598.495 196.409,-606.864 200.21,-600.986"/>
<text text-anchor="middle" x="282.1" y="-636.3" font-family="Times,serif" font-size="14.00">pdfs</text>
</g>
<!-- p24&#45;&gt;p25 -->
<g id="edge31" class="edge"><title>p24&#45;&gt;p25</title>
<path fill="none" stroke="black" d="M333.639,-666.009C347.062,-648.52 367.54,-621.835 378.691,-607.305"/>
<polygon fill="black" stroke="black" points="381.617,-609.242 384.928,-599.178 376.063,-604.981 381.617,-609.242"/>
</g>
<!-- p23 -->
<g id="node27" class="node"><title>p23</title>
<ellipse fill="black" stroke="black" cx="353.6" cy="-758" rx="3.6" ry="3.6"/>
</g>
<!-- p23&#45;&gt;p24 -->
<g id="edge29" class="edge"><title>p23&#45;&gt;p24</title>
<path fill="none" stroke="black" d="M352.347,-754.265C349.119,-747.222 340.244,-727.859 332.695,-711.39"/>
<polygon fill="black" stroke="black" points="335.805,-709.775 328.457,-702.143 329.442,-712.692 335.805,-709.775"/>
<text text-anchor="middle" x="363.1" y="-724.3" font-family="Times,serif" font-size="14.00">meta</text>
</g>
<!-- p39 -->
<g id="node42" class="node"><title>p39</title>
<ellipse fill="none" stroke="black" cx="428.6" cy="-300" rx="3.25" ry="3.5"/>
<text text-anchor="middle" x="411.6" y="-307.3" font-family="Times,serif" font-size="14.00">mix</text>
</g>
<!-- p38&#45;&gt;p39 -->
<g id="edge46" class="edge"><title>p38&#45;&gt;p39</title>
<path fill="none" stroke="black" d="M187.6,-592.253C187.6,-582.695 187.6,-550 187.6,-523 187.6,-523 187.6,-523 187.6,-387 187.6,-338.164 365.36,-309.779 415.548,-302.738"/>
<polygon fill="black" stroke="black" points="416.112,-306.194 425.553,-301.385 415.174,-299.257 416.112,-306.194"/>
</g>
<!-- p30 -->
<g id="node33" class="node"><title>p30</title>
<ellipse fill="none" stroke="black" cx="411.6" cy="-462" rx="3.25" ry="3.5"/>
<text text-anchor="middle" x="383.6" y="-469.3" font-family="Times,serif" font-size="14.00">collect</text>
</g>
<!-- p29&#45;&gt;p30 -->
<g id="edge37" class="edge"><title>p29&#45;&gt;p30</title>
<path fill="none" stroke="black" d="M411.6,-518.203C411.6,-510.649 411.6,-489.48 411.6,-475.66"/>
<polygon fill="black" stroke="black" points="415.1,-475.636 411.6,-465.636 408.1,-475.636 415.1,-475.636"/>
<text text-anchor="middle" x="450.6" y="-488.3" font-family="Times,serif" font-size="14.00">version_ch</text>
</g>
<!-- p40 -->
<g id="node32" class="node"><title>p40</title>
<ellipse fill="none" stroke="black" cx="669.6" cy="-240" rx="3.25" ry="3.5"/>
<text text-anchor="middle" x="652.6" y="-247.3" font-family="Times,serif" font-size="14.00">mix</text>
</g>
<!-- p28&#45;&gt;p40 -->
<g id="edge35" class="edge"><title>p28&#45;&gt;p40</title>
<path fill="none" stroke="black" d="M669.6,-577.834C669.6,-563.247 669.6,-541.75 669.6,-523 669.6,-523 669.6,-523 669.6,-299 669.6,-283.49 669.6,-265.647 669.6,-253.893"/>
<polygon fill="black" stroke="black" points="673.1,-253.659 669.6,-243.659 666.1,-253.659 673.1,-253.659"/>
<text text-anchor="middle" x="703.1" y="-428.3" font-family="Times,serif" font-size="14.00">junctions</text>
</g>
<!-- p28&#45;&gt;p29 -->
<g id="edge36" class="edge"><title>p28&#45;&gt;p29</title>
<path fill="none" stroke="black" d="M610.086,-578.391C548.857,-561.304 457.861,-535.91 424.477,-526.594"/>
<polygon fill="black" stroke="black" points="425.259,-523.178 414.686,-523.861 423.377,-529.92 425.259,-523.178"/>
</g>
<!-- p27 -->
<g id="node31" class="node"><title>p27</title>
<ellipse fill="black" stroke="black" cx="643.6" cy="-684" rx="3.6" ry="3.6"/>
</g>
<!-- p27&#45;&gt;p28 -->
<g id="edge34" class="edge"><title>p27&#45;&gt;p28</title>
<path fill="none" stroke="black" d="M643.081,-680.138C641.767,-672.225 638.807,-649.486 644.6,-632 645.657,-628.81 647.115,-625.66 648.8,-622.635"/>
<polygon fill="black" stroke="black" points="651.88,-624.317 654.363,-614.017 645.999,-620.52 651.88,-624.317"/>
<text text-anchor="middle" x="663.1" y="-636.3" font-family="Times,serif" font-size="14.00">meta</text>
</g>
<!-- p41 -->
<g id="node40" class="node"><title>p41</title>
<ellipse fill="none" stroke="black" cx="727.6" cy="-194" rx="3.25" ry="3.5"/>
<text text-anchor="middle" x="710.6" y="-201.3" font-family="Times,serif" font-size="14.00">mix</text>
</g>
<!-- p40&#45;&gt;p41 -->
<g id="edge49" class="edge"><title>p40&#45;&gt;p41</title>
<path fill="none" stroke="black" d="M672.092,-237.109C679.764,-231.29 703.34,-213.404 717.175,-202.908"/>
<polygon fill="black" stroke="black" points="719.581,-205.477 725.432,-196.645 715.35,-199.9 719.581,-205.477"/>
</g>
<!-- p34 -->
<g id="node34" class="node"><title>p34</title>
<ellipse fill="none" stroke="black" cx="428.6" cy="-388" rx="213.272" ry="18"/>
<text text-anchor="middle" x="428.6" y="-384.3" font-family="Times,serif" font-size="14.00">SASHIMI_ENCODE_01:MERGE_VERSION</text>
</g>
<!-- p30&#45;&gt;p34 -->
<g id="edge38" class="edge"><title>p30&#45;&gt;p34</title>
<path fill="none" stroke="black" d="M412.246,-458.265C413.878,-451.354 418.311,-432.578 422.15,-416.316"/>
<polygon fill="black" stroke="black" points="425.661,-416.68 424.552,-406.143 418.848,-415.071 425.661,-416.68"/>
</g>
<!-- p36 -->
<g id="node38" class="node"><title>p36</title>
<ellipse fill="none" stroke="black" cx="809.6" cy="-300" rx="111.186" ry="18"/>
<text text-anchor="middle" x="809.6" y="-296.3" font-family="Times,serif" font-size="14.00">VERSION_TO_HTML</text>
</g>
<!-- p34&#45;&gt;p36 -->
<g id="edge42" class="edge"><title>p34&#45;&gt;p36</title>
<path fill="none" stroke="black" d="M499.816,-370.925C567.766,-355.587 669.595,-332.602 737.753,-317.217"/>
<polygon fill="black" stroke="black" points="738.573,-320.62 747.557,-315.004 737.032,-313.792 738.573,-320.62"/>
</g>
<!-- p34&#45;&gt;p39 -->
<g id="edge47" class="edge"><title>p34&#45;&gt;p39</title>
<path fill="none" stroke="black" d="M428.6,-369.597C428.6,-353.046 428.6,-328.54 428.6,-313.737"/>
<polygon fill="black" stroke="black" points="432.1,-313.671 428.6,-303.671 425.1,-313.671 432.1,-313.671"/>
</g>
<!-- p31 -->
<g id="node35" class="node"><title>p31</title>
<ellipse fill="black" stroke="black" cx="444.6" cy="-462" rx="3.6" ry="3.6"/>
</g>
<!-- p31&#45;&gt;p34 -->
<g id="edge39" class="edge"><title>p31&#45;&gt;p34</title>
<path fill="none" stroke="black" d="M443.992,-458.265C442.456,-451.354 438.284,-432.578 434.67,-416.316"/>
<polygon fill="black" stroke="black" points="437.996,-415.145 432.41,-406.143 431.162,-416.664 437.996,-415.145"/>
<text text-anchor="middle" x="459.1" y="-428.3" font-family="Times,serif" font-size="14.00">meta</text>
</g>
<!-- p32 -->
<g id="node36" class="node"><title>p32</title>
<ellipse fill="black" stroke="black" cx="504.6" cy="-462" rx="3.6" ry="3.6"/>
</g>
<!-- p32&#45;&gt;p34 -->
<g id="edge40" class="edge"><title>p32&#45;&gt;p34</title>
<path fill="none" stroke="black" d="M503.47,-458.409C500.576,-451.988 492.36,-435.059 481.6,-424 477.413,-419.696 472.609,-415.64 467.641,-411.92"/>
<polygon fill="black" stroke="black" points="469.398,-408.878 459.203,-405.994 465.375,-414.606 469.398,-408.878"/>
<text text-anchor="middle" x="512.6" y="-428.3" font-family="Times,serif" font-size="14.00">name</text>
</g>
<!-- p33 -->
<g id="node37" class="node"><title>p33</title>
<ellipse fill="black" stroke="black" cx="314.6" cy="-462" rx="3.6" ry="3.6"/>
</g>
<!-- p33&#45;&gt;p34 -->
<g id="edge41" class="edge"><title>p33&#45;&gt;p34</title>
<path fill="none" stroke="black" d="M315.105,-458.248C316.491,-451.46 320.982,-433.758 331.6,-424 337.806,-418.297 345.01,-413.508 352.635,-409.489"/>
<polygon fill="black" stroke="black" points="354.243,-412.6 361.744,-405.117 351.214,-406.289 354.243,-412.6"/>
<text text-anchor="middle" x="372.6" y="-428.3" font-family="Times,serif" font-size="14.00">description</text>
</g>
<!-- p36&#45;&gt;p41 -->
<g id="edge44" class="edge"><title>p36&#45;&gt;p41</title>
<path fill="none" stroke="black" d="M796.059,-281.827C778.872,-260.028 749.769,-223.116 735.697,-205.27"/>
<polygon fill="black" stroke="black" points="738.293,-202.909 729.353,-197.223 732.796,-207.243 738.293,-202.909"/>
</g>
<!-- p35 -->
<g id="node39" class="node"><title>p35</title>
<ellipse fill="black" stroke="black" cx="809.6" cy="-388" rx="3.6" ry="3.6"/>
</g>
<!-- p35&#45;&gt;p36 -->
<g id="edge43" class="edge"><title>p35&#45;&gt;p36</title>
<path fill="none" stroke="black" d="M809.6,-384.139C809.6,-375.502 809.6,-349.011 809.6,-328.227"/>
<polygon fill="black" stroke="black" points="813.1,-328.004 809.6,-318.004 806.1,-328.004 813.1,-328.004"/>
<text text-anchor="middle" x="828.1" y="-340.3" font-family="Times,serif" font-size="14.00">meta</text>
</g>
<!-- p42 -->
<g id="node43" class="node"><title>p42</title>
<ellipse fill="none" stroke="black" cx="727.6" cy="-134" rx="3.25" ry="3.5"/>
<text text-anchor="middle" x="699.6" y="-141.3" font-family="Times,serif" font-size="14.00">collect</text>
</g>
<!-- p41&#45;&gt;p42 -->
<g id="edge50" class="edge"><title>p41&#45;&gt;p42</title>
<path fill="none" stroke="black" d="M727.6,-190.203C727.6,-182.649 727.6,-161.48 727.6,-147.66"/>
<polygon fill="black" stroke="black" points="731.1,-147.636 727.6,-137.636 724.1,-147.636 731.1,-147.636"/>
<text text-anchor="middle" x="750.6" y="-160.3" font-family="Times,serif" font-size="14.00">zip_ch</text>
</g>
<!-- p37 -->
<g id="node41" class="node"><title>p37</title>
<ellipse fill="black" stroke="black" cx="112.6" cy="-684" rx="3.6" ry="3.6"/>
<text text-anchor="middle" x="54.5" y="-691.4" font-family="Times,serif" font-size="14.00">Channel.empty</text>
</g>
<!-- p37&#45;&gt;p38 -->
<g id="edge45" class="edge"><title>p37&#45;&gt;p38</title>
<path fill="none" stroke="black" d="M114.216,-680.509C116.438,-677.132 120.615,-670.955 124.6,-666 142.597,-643.622 165.83,-619.198 178.452,-606.258"/>
<polygon fill="black" stroke="black" points="181.017,-608.641 185.54,-599.06 176.03,-603.73 181.017,-608.641"/>
</g>
<!-- p39&#45;&gt;p40 -->
<g id="edge48" class="edge"><title>p39&#45;&gt;p40</title>
<path fill="none" stroke="black" d="M431.647,-298.267C455.355,-292.561 610.606,-255.198 656.711,-244.102"/>
<polygon fill="black" stroke="black" points="657.717,-247.46 666.621,-241.717 656.08,-240.654 657.717,-247.46"/>
</g>
<!-- p44 -->
<g id="node44" class="node"><title>p44</title>
<ellipse fill="none" stroke="black" cx="743.6" cy="-60" rx="87.613" ry="18"/>
<text text-anchor="middle" x="743.6" y="-56.3" font-family="Times,serif" font-size="14.00">SIMPLE_ZIP_01</text>
</g>
<!-- p42&#45;&gt;p44 -->
<g id="edge51" class="edge"><title>p42&#45;&gt;p44</title>
<path fill="none" stroke="black" d="M728.208,-130.265C729.744,-123.354 733.916,-104.578 737.53,-88.3163"/>
<polygon fill="black" stroke="black" points="741.038,-88.6641 739.79,-78.1429 734.204,-87.1455 741.038,-88.6641"/>
</g>
<!-- p46 -->
<g id="node46" class="node"><title>p46</title>
<ellipse fill="black" stroke="black" cx="731.6" cy="-2" rx="1.8" ry="1.8"/>
</g>
<!-- p44&#45;&gt;p46 -->
<g id="edge53" class="edge"><title>p44&#45;&gt;p46</title>
<path fill="none" stroke="black" d="M739.934,-41.8939C737.98,-32.775 735.635,-21.8299 733.931,-13.8767"/>
<polygon fill="black" stroke="black" points="737.331,-13.0404 731.813,-3.99575 730.486,-14.5072 737.331,-13.0404"/>
</g>
<!-- p45 -->
<g id="node47" class="node"><title>p45</title>
<ellipse fill="black" stroke="black" cx="756.6" cy="-2" rx="1.8" ry="1.8"/>
</g>
<!-- p44&#45;&gt;p45 -->
<g id="edge54" class="edge"><title>p44&#45;&gt;p45</title>
<path fill="none" stroke="black" d="M747.571,-41.8939C749.688,-32.775 752.229,-21.8299 754.075,-13.8767"/>
<polygon fill="black" stroke="black" points="757.517,-14.5282 756.369,-3.99575 750.698,-12.9452 757.517,-14.5282"/>
</g>
<!-- p43 -->
<g id="node45" class="node"><title>p43</title>
<ellipse fill="black" stroke="black" cx="760.6" cy="-134" rx="3.6" ry="3.6"/>
</g>
<!-- p43&#45;&gt;p44 -->
<g id="edge52" class="edge"><title>p43&#45;&gt;p44</title>
<path fill="none" stroke="black" d="M759.954,-130.265C758.322,-123.354 753.889,-104.578 750.05,-88.3163"/>
<polygon fill="black" stroke="black" points="753.352,-87.071 747.648,-78.1429 746.539,-88.6796 753.352,-87.071"/>
<text text-anchor="middle" x="773.1" y="-100.3" font-family="Times,serif" font-size="14.00">meta</text>
</g>
</g>
</svg>
