<?xml version="1.0" encoding="UTF-8" standalone="no"?>
<!DOCTYPE svg PUBLIC "-//W3C//DTD SVG 1.1//EN"
 "http://www.w3.org/Graphics/SVG/1.1/DTD/svg11.dtd">
<!-- Generated by graphviz version 2.30.1 (20201013.1554)
 -->
<!-- Title: 20220727vcfstatsworkflow Pages: 1 -->
<svg width="720pt" height="789pt"
 viewBox="0.00 0.00 720.00 788.60" xmlns="http://www.w3.org/2000/svg" xmlns:xlink="http://www.w3.org/1999/xlink">
<g id="graph0" class="graph" transform="scale(1 1) rotate(0) translate(4 784.6)">
<title>20220727vcfstatsworkflow</title>
<polygon fill="white" stroke="white" points="-4,5 -4,-784.6 717,-784.6 717,5 -4,5"/>
<!-- p0 -->
<g id="node1" class="node"><title>p0</title>
<ellipse fill="black" stroke="black" cx="138" cy="-762" rx="3.6" ry="3.6"/>
<text text-anchor="middle" x="84.4" y="-769.4" font-family="Times,serif" font-size="14.00">Channel.fromPath</text>
</g>
<!-- p2 -->
<g id="node2" class="node"><title>p2</title>
<ellipse fill="none" stroke="black" cx="138" cy="-702" rx="3.25" ry="3.5"/>
<text text-anchor="middle" x="111.5" y="-709.3" font-family="Times,serif" font-size="14.00">splitText</text>
</g>
<!-- p0&#45;&gt;p2 -->
<g id="edge1" class="edge"><title>p0&#45;&gt;p2</title>
<path fill="none" stroke="black" d="M138,-758.203C138,-750.649 138,-729.48 138,-715.66"/>
<polygon fill="black" stroke="black" points="141.5,-715.636 138,-705.636 134.5,-715.636 141.5,-715.636"/>
<text text-anchor="middle" x="149" y="-728.3" font-family="Times,serif" font-size="14.00">vcfs</text>
</g>
<!-- p3 -->
<g id="node5" class="node"><title>p3</title>
<ellipse fill="none" stroke="black" cx="138" cy="-656" rx="3.25" ry="3.5"/>
<text text-anchor="middle" x="122" y="-663.3" font-family="Times,serif" font-size="14.00">map</text>
</g>
<!-- p2&#45;&gt;p3 -->
<g id="edge3" class="edge"><title>p2&#45;&gt;p3</title>
<path fill="none" stroke="black" d="M138,-698.379C138,-692.864 138,-679.742 138,-669.742"/>
<polygon fill="black" stroke="black" points="141.5,-669.552 138,-659.552 134.5,-669.552 141.5,-669.552"/>
</g>
<!-- p1 -->
<g id="node3" class="node"><title>p1</title>
<ellipse fill="black" stroke="black" cx="442" cy="-582" rx="3.6" ry="3.6"/>
<text text-anchor="middle" x="480.4" y="-589.4" font-family="Times,serif" font-size="14.00">Channel.empty</text>
</g>
<!-- p7 -->
<g id="node4" class="node"><title>p7</title>
<ellipse fill="none" stroke="black" cx="379" cy="-508" rx="3.25" ry="3.5"/>
<text text-anchor="middle" x="364.5" y="-515.3" font-family="Times,serif" font-size="14.00">mix</text>
</g>
<!-- p1&#45;&gt;p7 -->
<g id="edge2" class="edge"><title>p1&#45;&gt;p7</title>
<path fill="none" stroke="black" d="M440.212,-578.528C437.763,-575.173 433.189,-569.021 429,-564 415.189,-547.446 398.11,-529.075 387.91,-518.308"/>
<polygon fill="black" stroke="black" points="390.409,-515.858 380.973,-511.041 385.346,-520.691 390.409,-515.858"/>
<text text-anchor="middle" x="441.5" y="-534.3" font-family="Times,serif" font-size="14.00">version_ch</text>
</g>
<!-- p8 -->
<g id="node10" class="node"><title>p8</title>
<ellipse fill="none" stroke="black" cx="379" cy="-448" rx="3.25" ry="3.5"/>
<text text-anchor="middle" x="357" y="-455.3" font-family="Times,serif" font-size="14.00">collect</text>
</g>
<!-- p7&#45;&gt;p8 -->
<g id="edge9" class="edge"><title>p7&#45;&gt;p8</title>
<path fill="none" stroke="black" d="M379,-504.203C379,-496.649 379,-475.48 379,-461.66"/>
<polygon fill="black" stroke="black" points="382.5,-461.636 379,-451.636 375.5,-461.636 382.5,-461.636"/>
<text text-anchor="middle" x="408.5" y="-474.3" font-family="Times,serif" font-size="14.00">version_ch</text>
</g>
<!-- p6 -->
<g id="node6" class="node"><title>p6</title>
<ellipse fill="none" stroke="black" cx="210" cy="-582" rx="210.372" ry="18"/>
<text text-anchor="middle" x="210" y="-578.3" font-family="Times,serif" font-size="14.00">BCFTOOLS_VCFS_STATS_01:BCFTOOL_STATS_01</text>
</g>
<!-- p3&#45;&gt;p6 -->
<g id="edge4" class="edge"><title>p3&#45;&gt;p6</title>
<path fill="none" stroke="black" d="M138.816,-652.398C140.94,-645.952 147.168,-628.969 157,-618 160.96,-613.581 165.598,-609.474 170.452,-605.742"/>
<polygon fill="black" stroke="black" points="172.637,-608.483 178.746,-599.827 168.572,-602.784 172.637,-608.483"/>
<text text-anchor="middle" x="181.5" y="-622.3" font-family="Times,serif" font-size="14.00">each_vcf</text>
</g>
<!-- p15 -->
<g id="node9" class="node"><title>p15</title>
<ellipse fill="none" stroke="black" cx="210" cy="-478" rx="3.25" ry="3.5"/>
<text text-anchor="middle" x="194" y="-485.3" font-family="Times,serif" font-size="14.00">map</text>
</g>
<!-- p6&#45;&gt;p15 -->
<g id="edge7" class="edge"><title>p6&#45;&gt;p15</title>
<path fill="none" stroke="black" d="M210,-563.697C210,-543.39 210,-510.181 210,-491.965"/>
<polygon fill="black" stroke="black" points="213.5,-491.75 210,-481.75 206.5,-491.75 213.5,-491.75"/>
</g>
<!-- p6&#45;&gt;p7 -->
<g id="edge8" class="edge"><title>p6&#45;&gt;p7</title>
<path fill="none" stroke="black" d="M249.197,-564.301C287.234,-548.095 342.66,-524.482 366.897,-514.156"/>
<polygon fill="black" stroke="black" points="368.449,-517.3 376.277,-510.16 365.705,-510.86 368.449,-517.3"/>
</g>
<!-- p4 -->
<g id="node7" class="node"><title>p4</title>
<ellipse fill="black" stroke="black" cx="210" cy="-656" rx="3.6" ry="3.6"/>
</g>
<!-- p4&#45;&gt;p6 -->
<g id="edge5" class="edge"><title>p4&#45;&gt;p6</title>
<path fill="none" stroke="black" d="M210,-652.265C210,-645.354 210,-626.578 210,-610.316"/>
<polygon fill="black" stroke="black" points="213.5,-610.143 210,-600.143 206.5,-610.143 213.5,-610.143"/>
<text text-anchor="middle" x="224" y="-622.3" font-family="Times,serif" font-size="14.00">meta</text>
</g>
<!-- p5 -->
<g id="node8" class="node"><title>p5</title>
<ellipse fill="black" stroke="black" cx="261" cy="-656" rx="3.6" ry="3.6"/>
</g>
<!-- p5&#45;&gt;p6 -->
<g id="edge6" class="edge"><title>p5&#45;&gt;p6</title>
<path fill="none" stroke="black" d="M259.733,-652.583C256.539,-646.557 247.786,-630.459 239,-618 236.662,-614.685 234.094,-611.29 231.482,-607.98"/>
<polygon fill="black" stroke="black" points="234.034,-605.571 225.006,-600.026 228.605,-609.991 234.034,-605.571"/>
<text text-anchor="middle" x="275" y="-622.3" font-family="Times,serif" font-size="14.00">reference</text>
</g>
<!-- p16 -->
<g id="node18" class="node"><title>p16</title>
<ellipse fill="none" stroke="black" cx="268" cy="-286" rx="3.25" ry="3.5"/>
<text text-anchor="middle" x="253.5" y="-293.3" font-family="Times,serif" font-size="14.00">mix</text>
</g>
<!-- p15&#45;&gt;p16 -->
<g id="edge17" class="edge"><title>p15&#45;&gt;p16</title>
<path fill="none" stroke="black" d="M210.07,-474.274C210.488,-460.939 213.196,-401.384 229,-356 236.636,-334.071 251.151,-311.071 260.159,-297.94"/>
<polygon fill="black" stroke="black" points="263.233,-299.655 266.157,-289.471 257.521,-295.609 263.233,-299.655"/>
</g>
<!-- p12 -->
<g id="node11" class="node"><title>p12</title>
<ellipse fill="none" stroke="black" cx="438" cy="-374" rx="200.273" ry="18"/>
<text text-anchor="middle" x="438" y="-370.3" font-family="Times,serif" font-size="14.00">BCFTOOLS_VCFS_STATS_01:MERGE_VERSION</text>
</g>
<!-- p8&#45;&gt;p12 -->
<g id="edge10" class="edge"><title>p8&#45;&gt;p12</title>
<path fill="none" stroke="black" d="M380.702,-444.923C386.093,-438.344 403.268,-417.385 417.42,-400.114"/>
<polygon fill="black" stroke="black" points="420.429,-401.965 424.06,-392.012 415.014,-397.528 420.429,-401.965"/>
</g>
<!-- p14 -->
<g id="node15" class="node"><title>p14</title>
<ellipse fill="none" stroke="black" cx="501" cy="-286" rx="211.347" ry="18"/>
<text text-anchor="middle" x="501" y="-282.3" font-family="Times,serif" font-size="14.00">BCFTOOLS_VCFS_STATS_01:VERSION_TO_HTML</text>
</g>
<!-- p12&#45;&gt;p14 -->
<g id="edge14" class="edge"><title>p12&#45;&gt;p14</title>
<path fill="none" stroke="black" d="M450.447,-356.009C459.534,-343.605 472.009,-326.574 482.293,-312.536"/>
<polygon fill="black" stroke="black" points="485.277,-314.385 488.363,-304.25 479.63,-310.249 485.277,-314.385"/>
</g>
<!-- p12&#45;&gt;p16 -->
<g id="edge18" class="edge"><title>p12&#45;&gt;p16</title>
<path fill="none" stroke="black" d="M383.087,-356.557C351.136,-345.2 311.316,-327.822 281,-304 278.732,-302.218 276.644,-299.954 274.836,-297.663"/>
<polygon fill="black" stroke="black" points="277.697,-295.645 269.231,-289.275 271.877,-299.535 277.697,-295.645"/>
</g>
<!-- p9 -->
<g id="node12" class="node"><title>p9</title>
<ellipse fill="black" stroke="black" cx="412" cy="-448" rx="3.6" ry="3.6"/>
</g>
<!-- p9&#45;&gt;p12 -->
<g id="edge11" class="edge"><title>p9&#45;&gt;p12</title>
<path fill="none" stroke="black" d="M412.113,-444.225C412.439,-437.951 413.66,-422.27 418,-410 419.04,-407.06 420.324,-404.083 421.735,-401.171"/>
<polygon fill="black" stroke="black" points="424.896,-402.682 426.536,-392.215 418.727,-399.375 424.896,-402.682"/>
<text text-anchor="middle" x="432" y="-414.3" font-family="Times,serif" font-size="14.00">meta</text>
</g>
<!-- p10 -->
<g id="node13" class="node"><title>p10</title>
<ellipse fill="black" stroke="black" cx="463" cy="-448" rx="3.6" ry="3.6"/>
</g>
<!-- p10&#45;&gt;p12 -->
<g id="edge12" class="edge"><title>p10&#45;&gt;p12</title>
<path fill="none" stroke="black" d="M462.05,-444.265C459.628,-437.288 453.007,-418.219 447.324,-401.852"/>
<polygon fill="black" stroke="black" points="450.539,-400.442 443.952,-392.143 443.926,-402.738 450.539,-400.442"/>
<text text-anchor="middle" x="470.5" y="-414.3" font-family="Times,serif" font-size="14.00">name</text>
</g>
<!-- p11 -->
<g id="node14" class="node"><title>p11</title>
<ellipse fill="black" stroke="black" cx="517" cy="-448" rx="3.6" ry="3.6"/>
</g>
<!-- p11&#45;&gt;p12 -->
<g id="edge13" class="edge"><title>p11&#45;&gt;p12</title>
<path fill="none" stroke="black" d="M515.557,-444.433C511.893,-438.066 501.687,-421.251 490,-410 485.473,-405.641 480.342,-401.468 475.11,-397.618"/>
<polygon fill="black" stroke="black" points="477.077,-394.723 466.877,-391.855 473.062,-400.457 477.077,-394.723"/>
<text text-anchor="middle" x="533.5" y="-414.3" font-family="Times,serif" font-size="14.00">description</text>
</g>
<!-- p17 -->
<g id="node17" class="node"><title>p17</title>
<ellipse fill="none" stroke="black" cx="410" cy="-226" rx="3.25" ry="3.5"/>
<text text-anchor="middle" x="395.5" y="-233.3" font-family="Times,serif" font-size="14.00">mix</text>
</g>
<!-- p14&#45;&gt;p17 -->
<g id="edge16" class="edge"><title>p14&#45;&gt;p17</title>
<path fill="none" stroke="black" d="M474.189,-267.912C456.495,-256.634 434.237,-242.448 421.12,-234.087"/>
<polygon fill="black" stroke="black" points="422.867,-231.05 412.553,-228.627 419.104,-236.953 422.867,-231.05"/>
</g>
<!-- p13 -->
<g id="node16" class="node"><title>p13</title>
<ellipse fill="black" stroke="black" cx="660" cy="-374" rx="3.6" ry="3.6"/>
</g>
<!-- p13&#45;&gt;p14 -->
<g id="edge15" class="edge"><title>p13&#45;&gt;p14</title>
<path fill="none" stroke="black" d="M658.475,-370.261C656.323,-366.604 652.086,-360.11 647,-356 621.141,-335.101 587.908,-318.757 559.683,-307.233"/>
<polygon fill="black" stroke="black" points="560.906,-303.953 550.321,-303.511 558.32,-310.458 560.906,-303.953"/>
<text text-anchor="middle" x="632" y="-326.3" font-family="Times,serif" font-size="14.00">meta</text>
</g>
<!-- p18 -->
<g id="node19" class="node"><title>p18</title>
<ellipse fill="none" stroke="black" cx="410" cy="-180" rx="3.25" ry="3.5"/>
<text text-anchor="middle" x="388" y="-187.3" font-family="Times,serif" font-size="14.00">collect</text>
</g>
<!-- p17&#45;&gt;p18 -->
<g id="edge20" class="edge"><title>p17&#45;&gt;p18</title>
<path fill="none" stroke="black" d="M410,-222.379C410,-216.864 410,-203.742 410,-193.742"/>
<polygon fill="black" stroke="black" points="413.5,-193.552 410,-183.552 406.5,-193.552 413.5,-193.552"/>
</g>
<!-- p16&#45;&gt;p17 -->
<g id="edge19" class="edge"><title>p16&#45;&gt;p17</title>
<path fill="none" stroke="black" d="M269.179,-282.655C271.139,-278.994 275.408,-271.932 281,-268 317.996,-241.986 372.272,-231.914 396.939,-228.516"/>
<polygon fill="black" stroke="black" points="397.389,-231.987 406.89,-227.299 396.539,-225.039 397.389,-231.987"/>
</g>
<!-- p20 -->
<g id="node20" class="node"><title>p20</title>
<ellipse fill="none" stroke="black" cx="426" cy="-106" rx="189.175" ry="18"/>
<text text-anchor="middle" x="426" y="-102.3" font-family="Times,serif" font-size="14.00">BCFTOOLS_VCFS_STATS_01:SIMPLE_ZIP_01</text>
</g>
<!-- p18&#45;&gt;p20 -->
<g id="edge21" class="edge"><title>p18&#45;&gt;p20</title>
<path fill="none" stroke="black" d="M410.608,-176.265C412.144,-169.354 416.316,-150.578 419.93,-134.316"/>
<polygon fill="black" stroke="black" points="423.438,-134.664 422.19,-124.143 416.604,-133.145 423.438,-134.664"/>
</g>
<!-- p22 -->
<g id="node22" class="node"><title>p22</title>
<ellipse fill="none" stroke="black" cx="393" cy="-18" rx="47.169" ry="18"/>
<text text-anchor="middle" x="393" y="-14.3" font-family="Times,serif" font-size="14.00">PUBLISH</text>
</g>
<!-- p20&#45;&gt;p22 -->
<g id="edge23" class="edge"><title>p20&#45;&gt;p22</title>
<path fill="none" stroke="black" d="M419.48,-88.0092C414.825,-75.8769 408.472,-59.3199 403.155,-45.4648"/>
<polygon fill="black" stroke="black" points="406.356,-44.0379 399.506,-35.9555 399.821,-46.5457 406.356,-44.0379"/>
<text text-anchor="middle" x="420.5" y="-58.3" font-family="Times,serif" font-size="14.00">zip</text>
</g>
<!-- p21 -->
<g id="node23" class="node"><title>p21</title>
<ellipse fill="black" stroke="black" cx="460" cy="-18" rx="1.8" ry="1.8"/>
</g>
<!-- p20&#45;&gt;p21 -->
<g id="edge24" class="edge"><title>p20&#45;&gt;p21</title>
<path fill="none" stroke="black" d="M432.717,-88.0092C439.64,-70.4999 450.205,-43.7747 455.945,-29.2557"/>
<polygon fill="black" stroke="black" points="459.272,-30.3612 459.694,-19.7747 452.762,-27.7875 459.272,-30.3612"/>
</g>
<!-- p19 -->
<g id="node21" class="node"><title>p19</title>
<ellipse fill="black" stroke="black" cx="443" cy="-180" rx="3.6" ry="3.6"/>
</g>
<!-- p19&#45;&gt;p20 -->
<g id="edge22" class="edge"><title>p19&#45;&gt;p20</title>
<path fill="none" stroke="black" d="M442.354,-176.265C440.722,-169.354 436.289,-150.578 432.45,-134.316"/>
<polygon fill="black" stroke="black" points="435.752,-133.071 430.048,-124.143 428.939,-134.68 435.752,-133.071"/>
<text text-anchor="middle" x="451" y="-146.3" font-family="Times,serif" font-size="14.00">meta</text>
</g>
</g>
</svg>
