<?xml version="1.0" encoding="UTF-8" standalone="no"?>
<!DOCTYPE svg PUBLIC "-//W3C//DTD SVG 1.1//EN"
 "http://www.w3.org/Graphics/SVG/1.1/DTD/svg11.dtd">
<!-- Generated by graphviz version 2.30.1 (20201013.1554)
 -->
<!-- Title: 20221017guesssexworkflow Pages: 1 -->
<svg width="1194pt" height="1392pt"
 viewBox="0.00 0.00 1194.40 1392.00" xmlns="http://www.w3.org/2000/svg" xmlns:xlink="http://www.w3.org/1999/xlink">
<g id="graph0" class="graph" transform="scale(1 1) rotate(0) translate(4 1388)">
<title>20221017guesssexworkflow</title>
<polygon fill="white" stroke="white" points="-4,5 -4,-1388 1191.4,-1388 1191.4,5 -4,5"/>
<!-- p0 -->
<g id="node1" class="node"><title>p0</title>
<ellipse fill="black" stroke="black" cx="1081" cy="-742" rx="3.6" ry="3.6"/>
<text text-anchor="middle" x="1131.9" y="-749.4" font-family="Times,serif" font-size="14.00">Channel.empty</text>
</g>
<!-- p22 -->
<g id="node2" class="node"><title>p22</title>
<ellipse fill="none" stroke="black" cx="751" cy="-654" rx="3.25" ry="3.5"/>
<text text-anchor="middle" x="734" y="-661.3" font-family="Times,serif" font-size="14.00">mix</text>
</g>
<!-- p0&#45;&gt;p22 -->
<g id="edge1" class="edge"><title>p0&#45;&gt;p22</title>
<path fill="none" stroke="black" d="M1079.74,-738.343C1077.78,-734.534 1073.64,-727.587 1068,-724 965.456,-658.83 810.64,-654.497 764.459,-654.747"/>
<polygon fill="black" stroke="black" points="764.396,-651.247 754.448,-654.892 764.498,-658.247 764.396,-651.247"/>
<text text-anchor="middle" x="1068" y="-694.3" font-family="Times,serif" font-size="14.00">version_ch</text>
</g>
<!-- p32 -->
<g id="node25" class="node"><title>p32</title>
<ellipse fill="none" stroke="black" cx="523" cy="-526" rx="3.25" ry="3.5"/>
<text text-anchor="middle" x="506" y="-533.3" font-family="Times,serif" font-size="14.00">mix</text>
</g>
<!-- p22&#45;&gt;p32 -->
<g id="edge26" class="edge"><title>p22&#45;&gt;p32</title>
<path fill="none" stroke="black" d="M748.465,-651.437C732.438,-641.576 643.425,-587.149 568,-548 557.024,-542.303 544.221,-536.397 535.083,-532.305"/>
<polygon fill="black" stroke="black" points="536.445,-529.081 525.884,-528.244 533.619,-535.485 536.445,-529.081"/>
<text text-anchor="middle" x="697" y="-586.3" font-family="Times,serif" font-size="14.00">version_ch</text>
</g>
<!-- p1 -->
<g id="node3" class="node"><title>p1</title>
<ellipse fill="black" stroke="black" cx="725" cy="-1306" rx="3.6" ry="3.6"/>
<text text-anchor="middle" x="775.9" y="-1313.4" font-family="Times,serif" font-size="14.00">Channel.empty</text>
</g>
<!-- p5 -->
<g id="node4" class="node"><title>p5</title>
<ellipse fill="none" stroke="black" cx="680" cy="-1232" rx="3.25" ry="3.5"/>
<text text-anchor="middle" x="663" y="-1239.3" font-family="Times,serif" font-size="14.00">mix</text>
</g>
<!-- p1&#45;&gt;p5 -->
<g id="edge2" class="edge"><title>p1&#45;&gt;p5</title>
<path fill="none" stroke="black" d="M723.503,-1302.6C717.898,-1293.64 697.927,-1261.68 687.1,-1244.36"/>
<polygon fill="black" stroke="black" points="689.817,-1242.1 681.549,-1235.48 683.881,-1245.81 689.817,-1242.1"/>
<text text-anchor="middle" x="742" y="-1258.3" font-family="Times,serif" font-size="14.00">version_ch</text>
</g>
<!-- p12 -->
<g id="node9" class="node"><title>p12</title>
<ellipse fill="none" stroke="black" cx="640" cy="-1052" rx="3.25" ry="3.5"/>
<text text-anchor="middle" x="623" y="-1059.3" font-family="Times,serif" font-size="14.00">mix</text>
</g>
<!-- p5&#45;&gt;p12 -->
<g id="edge7" class="edge"><title>p5&#45;&gt;p12</title>
<path fill="none" stroke="black" d="M679.915,-1228.32C679.4,-1214.13 676.164,-1146.37 660,-1094 656.761,-1083.51 651.164,-1072.35 646.713,-1064.33"/>
<polygon fill="black" stroke="black" points="649.61,-1062.35 641.551,-1055.48 643.563,-1065.88 649.61,-1062.35"/>
<text text-anchor="middle" x="714" y="-1152.3" font-family="Times,serif" font-size="14.00">version_ch</text>
</g>
<!-- p2 -->
<g id="node5" class="node"><title>p2</title>
<ellipse fill="black" stroke="black" cx="398" cy="-1380" rx="3.6" ry="3.6"/>
</g>
<!-- p4 -->
<g id="node6" class="node"><title>p4</title>
<ellipse fill="none" stroke="black" cx="428" cy="-1306" rx="274.389" ry="18"/>
<text text-anchor="middle" x="428" y="-1302.3" font-family="Times,serif" font-size="14.00">SEX_GUESS_02:SAMTOOLS_SAMPLES_01:SQRT_FILE</text>
</g>
<!-- p2&#45;&gt;p4 -->
<g id="edge3" class="edge"><title>p2&#45;&gt;p4</title>
<path fill="none" stroke="black" d="M397.474,-1376.19C396.412,-1369.85 394.479,-1354.03 399,-1342 400.26,-1338.65 401.984,-1335.39 403.968,-1332.28"/>
<polygon fill="black" stroke="black" points="406.938,-1334.16 410.081,-1324.04 401.314,-1329.99 406.938,-1334.16"/>
<text text-anchor="middle" x="417.5" y="-1346.3" font-family="Times,serif" font-size="14.00">meta</text>
</g>
<!-- p6 -->
<g id="node8" class="node"><title>p6</title>
<ellipse fill="none" stroke="black" cx="428" cy="-1232" rx="3.25" ry="3.5"/>
<text text-anchor="middle" x="392.5" y="-1239.3" font-family="Times,serif" font-size="14.00">splitText</text>
</g>
<!-- p4&#45;&gt;p6 -->
<g id="edge5" class="edge"><title>p4&#45;&gt;p6</title>
<path fill="none" stroke="black" d="M428,-1287.94C428,-1275.13 428,-1257.84 428,-1246.11"/>
<polygon fill="black" stroke="black" points="431.5,-1245.75 428,-1235.75 424.5,-1245.75 431.5,-1245.75"/>
</g>
<!-- p4&#45;&gt;p5 -->
<g id="edge6" class="edge"><title>p4&#45;&gt;p5</title>
<path fill="none" stroke="black" d="M486.13,-1288.39C545.671,-1271.38 634.033,-1246.13 666.988,-1236.72"/>
<polygon fill="black" stroke="black" points="668.332,-1239.97 676.986,-1233.86 666.409,-1233.24 668.332,-1239.97"/>
</g>
<!-- p3 -->
<g id="node7" class="node"><title>p3</title>
<ellipse fill="black" stroke="black" cx="458" cy="-1380" rx="3.6" ry="3.6"/>
</g>
<!-- p3&#45;&gt;p4 -->
<g id="edge4" class="edge"><title>p3&#45;&gt;p4</title>
<path fill="none" stroke="black" d="M456.861,-1376.27C453.926,-1369.22 445.858,-1349.86 438.996,-1333.39"/>
<polygon fill="black" stroke="black" points="442.22,-1332.03 435.143,-1324.14 435.758,-1334.72 442.22,-1332.03"/>
<text text-anchor="middle" x="468.5" y="-1346.3" font-family="Times,serif" font-size="14.00">filein</text>
</g>
<!-- p7 -->
<g id="node10" class="node"><title>p7</title>
<ellipse fill="none" stroke="black" cx="428" cy="-1186" rx="3.25" ry="3.5"/>
<text text-anchor="middle" x="409" y="-1193.3" font-family="Times,serif" font-size="14.00">map</text>
</g>
<!-- p6&#45;&gt;p7 -->
<g id="edge8" class="edge"><title>p6&#45;&gt;p7</title>
<path fill="none" stroke="black" d="M428,-1228.38C428,-1222.86 428,-1209.74 428,-1199.74"/>
<polygon fill="black" stroke="black" points="431.5,-1199.55 428,-1189.55 424.5,-1199.55 431.5,-1199.55"/>
</g>
<!-- p16 -->
<g id="node16" class="node"><title>p16</title>
<ellipse fill="none" stroke="black" cx="640" cy="-904" rx="3.25" ry="3.5"/>
<text text-anchor="middle" x="623" y="-911.3" font-family="Times,serif" font-size="14.00">mix</text>
</g>
<!-- p12&#45;&gt;p16 -->
<g id="edge15" class="edge"><title>p12&#45;&gt;p16</title>
<path fill="none" stroke="black" d="M640,-1048.47C640,-1032.89 640,-949.746 640,-917.652"/>
<polygon fill="black" stroke="black" points="643.5,-917.604 640,-907.604 636.5,-917.604 643.5,-917.604"/>
<text text-anchor="middle" x="679" y="-974.3" font-family="Times,serif" font-size="14.00">version_ch</text>
</g>
<!-- p11 -->
<g id="node11" class="node"><title>p11</title>
<ellipse fill="none" stroke="black" cx="373" cy="-1112" rx="278.238" ry="18"/>
<text text-anchor="middle" x="373" y="-1108.3" font-family="Times,serif" font-size="14.00">SEX_GUESS_02:SAMTOOLS_SAMPLES_01:ST_SAMPLE</text>
</g>
<!-- p7&#45;&gt;p11 -->
<g id="edge9" class="edge"><title>p7&#45;&gt;p11</title>
<path fill="none" stroke="black" d="M426.782,-1182.55C423.7,-1176.44 415.18,-1160.17 406,-1148 403.398,-1144.55 400.499,-1141.06 397.53,-1137.7"/>
<polygon fill="black" stroke="black" points="399.924,-1135.13 390.581,-1130.14 394.77,-1139.87 399.924,-1135.13"/>
<text text-anchor="middle" x="452" y="-1152.3" font-family="Times,serif" font-size="14.00">chunk_ch</text>
</g>
<!-- p13 -->
<g id="node15" class="node"><title>p13</title>
<ellipse fill="none" stroke="black" cx="373" cy="-1052" rx="3.25" ry="3.5"/>
<text text-anchor="middle" x="345" y="-1059.3" font-family="Times,serif" font-size="14.00">collect</text>
</g>
<!-- p11&#45;&gt;p13 -->
<g id="edge13" class="edge"><title>p11&#45;&gt;p13</title>
<path fill="none" stroke="black" d="M373,-1093.91C373,-1084.96 373,-1074.19 373,-1065.94"/>
<polygon fill="black" stroke="black" points="376.5,-1065.69 373,-1055.69 369.5,-1065.69 376.5,-1065.69"/>
</g>
<!-- p11&#45;&gt;p12 -->
<g id="edge14" class="edge"><title>p11&#45;&gt;p12</title>
<path fill="none" stroke="black" d="M448.441,-1094.61C511.058,-1081.01 594.84,-1062.81 626.831,-1055.86"/>
<polygon fill="black" stroke="black" points="627.885,-1059.21 636.915,-1053.67 626.399,-1052.37 627.885,-1059.21"/>
</g>
<!-- p8 -->
<g id="node12" class="node"><title>p8</title>
<ellipse fill="black" stroke="black" cx="521" cy="-1186" rx="3.6" ry="3.6"/>
</g>
<!-- p8&#45;&gt;p11 -->
<g id="edge10" class="edge"><title>p8&#45;&gt;p11</title>
<path fill="none" stroke="black" d="M519.74,-1182.59C516.168,-1176.01 505.303,-1157.55 491,-1148 482.021,-1142 471.99,-1137.01 461.671,-1132.86"/>
<polygon fill="black" stroke="black" points="462.727,-1129.51 452.135,-1129.27 460.266,-1136.07 462.727,-1129.51"/>
<text text-anchor="middle" x="525.5" y="-1152.3" font-family="Times,serif" font-size="14.00">meta</text>
</g>
<!-- p9 -->
<g id="node13" class="node"><title>p9</title>
<ellipse fill="black" stroke="black" cx="235" cy="-1186" rx="3.6" ry="3.6"/>
</g>
<!-- p9&#45;&gt;p11 -->
<g id="edge11" class="edge"><title>p9&#45;&gt;p11</title>
<path fill="none" stroke="black" d="M235.467,-1182.21C236.765,-1175.32 241.071,-1157.41 252,-1148 258.743,-1142.19 266.399,-1137.35 274.507,-1133.31"/>
<polygon fill="black" stroke="black" points="276.17,-1136.4 283.83,-1129.08 273.277,-1130.02 276.17,-1136.4"/>
<text text-anchor="middle" x="287" y="-1152.3" font-family="Times,serif" font-size="14.00">reference</text>
</g>
<!-- p10 -->
<g id="node14" class="node"><title>p10</title>
<ellipse fill="black" stroke="black" cx="328" cy="-1186" rx="3.6" ry="3.6"/>
</g>
<!-- p10&#45;&gt;p11 -->
<g id="edge12" class="edge"><title>p10&#45;&gt;p11</title>
<path fill="none" stroke="black" d="M327.299,-1182.11C325.879,-1175.61 323.261,-1159.5 329,-1148 331.016,-1143.96 333.74,-1140.24 336.85,-1136.85"/>
<polygon fill="black" stroke="black" points="339.27,-1139.38 344.15,-1129.98 334.47,-1134.28 339.27,-1139.38"/>
<text text-anchor="middle" x="367.5" y="-1152.3" font-family="Times,serif" font-size="14.00">references</text>
</g>
<!-- p15 -->
<g id="node17" class="node"><title>p15</title>
<ellipse fill="none" stroke="black" cx="347" cy="-978" rx="257.066" ry="18"/>
<text text-anchor="middle" x="347" y="-974.3" font-family="Times,serif" font-size="14.00">SEX_GUESS_02:SAMTOOLS_SAMPLES_01:DIGEST</text>
</g>
<!-- p13&#45;&gt;p15 -->
<g id="edge16" class="edge"><title>p13&#45;&gt;p15</title>
<path fill="none" stroke="black" d="M372.135,-1048.6C369.727,-1041.94 362.729,-1022.56 356.726,-1005.93"/>
<polygon fill="black" stroke="black" points="359.856,-1004.3 353.168,-996.08 353.272,-1006.67 359.856,-1004.3"/>
</g>
<!-- p17 -->
<g id="node20" class="node"><title>p17</title>
<ellipse fill="none" stroke="black" cx="647" cy="-830" rx="3.25" ry="3.5"/>
<text text-anchor="middle" x="619" y="-837.3" font-family="Times,serif" font-size="14.00">collect</text>
</g>
<!-- p16&#45;&gt;p17 -->
<g id="edge20" class="edge"><title>p16&#45;&gt;p17</title>
<path fill="none" stroke="black" d="M640.266,-900.265C641.154,-891.133 644.056,-861.282 645.747,-843.892"/>
<polygon fill="black" stroke="black" points="649.25,-844.029 646.734,-833.737 642.283,-843.352 649.25,-844.029"/>
<text text-anchor="middle" x="683" y="-870.3" font-family="Times,serif" font-size="14.00">version_ch</text>
</g>
<!-- p24 -->
<g id="node19" class="node"><title>p24</title>
<ellipse fill="none" stroke="black" cx="346" cy="-904" rx="3.25" ry="3.5"/>
<text text-anchor="middle" x="313" y="-911.3" font-family="Times,serif" font-size="14.00">splitCsv</text>
</g>
<!-- p15&#45;&gt;p24 -->
<g id="edge18" class="edge"><title>p15&#45;&gt;p24</title>
<path fill="none" stroke="black" d="M346.763,-959.937C346.585,-947.126 346.345,-929.843 346.182,-918.107"/>
<polygon fill="black" stroke="black" points="349.677,-917.699 346.038,-907.748 342.677,-917.796 349.677,-917.699"/>
<text text-anchor="middle" x="392" y="-930.3" font-family="Times,serif" font-size="14.00">sample_bam</text>
</g>
<!-- p15&#45;&gt;p16 -->
<g id="edge19" class="edge"><title>p15&#45;&gt;p16</title>
<path fill="none" stroke="black" d="M413.853,-960.572C484.561,-943.197 590.833,-917.082 627.238,-908.136"/>
<polygon fill="black" stroke="black" points="628.152,-911.516 637.028,-905.73 626.482,-904.718 628.152,-911.516"/>
</g>
<!-- p14 -->
<g id="node18" class="node"><title>p14</title>
<ellipse fill="black" stroke="black" cx="321" cy="-1052" rx="3.6" ry="3.6"/>
</g>
<!-- p14&#45;&gt;p15 -->
<g id="edge17" class="edge"><title>p14&#45;&gt;p15</title>
<path fill="none" stroke="black" d="M320.143,-1048.21C318.358,-1041.89 314.741,-1026.14 319,-1014 320.169,-1010.67 321.803,-1007.42 323.701,-1004.32"/>
<polygon fill="black" stroke="black" points="326.619,-1006.26 329.58,-996.088 320.921,-1002.19 326.619,-1006.26"/>
<text text-anchor="middle" x="337.5" y="-1018.3" font-family="Times,serif" font-size="14.00">meta</text>
</g>
<!-- p26 -->
<g id="node28" class="node"><title>p26</title>
<ellipse fill="none" stroke="black" cx="276" cy="-830" rx="276.313" ry="18"/>
<text text-anchor="middle" x="276" y="-826.3" font-family="Times,serif" font-size="14.00">SEX_GUESS_02:SEX_GUESS_01:SEX_CONTIG_COUNT</text>
</g>
<!-- p24&#45;&gt;p26 -->
<g id="edge28" class="edge"><title>p24&#45;&gt;p26</title>
<path fill="none" stroke="black" d="M344.323,-900.528C340.097,-894.377 328.524,-878.017 317,-866 313.368,-862.213 309.361,-858.406 305.317,-854.77"/>
<polygon fill="black" stroke="black" points="307.423,-851.963 297.583,-848.037 302.827,-857.243 307.423,-851.963"/>
<text text-anchor="middle" x="352" y="-870.3" font-family="Times,serif" font-size="14.00">sn_ch</text>
</g>
<!-- p21 -->
<g id="node21" class="node"><title>p21</title>
<ellipse fill="none" stroke="black" cx="751" cy="-742" rx="308.109" ry="18"/>
<text text-anchor="middle" x="751" y="-738.3" font-family="Times,serif" font-size="14.00">SEX_GUESS_02:SAMTOOLS_SAMPLES_01:MERGE_VERSION</text>
</g>
<!-- p17&#45;&gt;p21 -->
<g id="edge21" class="edge"><title>p17&#45;&gt;p21</title>
<path fill="none" stroke="black" d="M648.514,-826.845C653.825,-819.391 672.355,-794.267 692,-778 697.362,-773.56 703.351,-769.323 709.402,-765.427"/>
<polygon fill="black" stroke="black" points="711.566,-768.205 718.245,-759.981 707.895,-762.245 711.566,-768.205"/>
</g>
<!-- p21&#45;&gt;p22 -->
<g id="edge25" class="edge"><title>p21&#45;&gt;p22</title>
<path fill="none" stroke="black" d="M751,-723.597C751,-707.046 751,-682.54 751,-667.737"/>
<polygon fill="black" stroke="black" points="754.5,-667.671 751,-657.671 747.5,-667.671 754.5,-667.671"/>
</g>
<!-- p18 -->
<g id="node22" class="node"><title>p18</title>
<ellipse fill="black" stroke="black" cx="804" cy="-830" rx="3.6" ry="3.6"/>
</g>
<!-- p18&#45;&gt;p21 -->
<g id="edge22" class="edge"><title>p18&#45;&gt;p21</title>
<path fill="none" stroke="black" d="M803.104,-826.079C800.557,-818.016 792.757,-794.929 782,-778 779.857,-774.628 777.393,-771.259 774.809,-768.016"/>
<polygon fill="black" stroke="black" points="777.393,-765.652 768.257,-760.286 772.053,-770.178 777.393,-765.652"/>
<text text-anchor="middle" x="808.5" y="-782.3" font-family="Times,serif" font-size="14.00">meta</text>
</g>
<!-- p19 -->
<g id="node23" class="node"><title>p19</title>
<ellipse fill="black" stroke="black" cx="864" cy="-830" rx="3.6" ry="3.6"/>
</g>
<!-- p19&#45;&gt;p21 -->
<g id="edge23" class="edge"><title>p19&#45;&gt;p21</title>
<path fill="none" stroke="black" d="M862.92,-826.281C859.487,-817.953 848.036,-792.479 831,-778 824.99,-772.892 818.118,-768.414 810.983,-764.522"/>
<polygon fill="black" stroke="black" points="812.353,-761.292 801.849,-759.901 809.193,-767.538 812.353,-761.292"/>
<text text-anchor="middle" x="864" y="-782.3" font-family="Times,serif" font-size="14.00">name</text>
</g>
<!-- p20 -->
<g id="node24" class="node"><title>p20</title>
<ellipse fill="black" stroke="black" cx="699" cy="-830" rx="3.6" ry="3.6"/>
</g>
<!-- p20&#45;&gt;p21 -->
<g id="edge24" class="edge"><title>p20&#45;&gt;p21</title>
<path fill="none" stroke="black" d="M698.289,-826.463C696.251,-818.656 691.09,-794.526 700,-778 702.3,-773.735 705.373,-769.885 708.876,-766.438"/>
<polygon fill="black" stroke="black" points="711.197,-769.06 716.56,-759.923 706.67,-763.721 711.197,-769.06"/>
<text text-anchor="middle" x="741" y="-782.3" font-family="Times,serif" font-size="14.00">description</text>
</g>
<!-- p33 -->
<g id="node36" class="node"><title>p33</title>
<ellipse fill="none" stroke="black" cx="523" cy="-466" rx="3.25" ry="3.5"/>
<text text-anchor="middle" x="495" y="-473.3" font-family="Times,serif" font-size="14.00">collect</text>
</g>
<!-- p32&#45;&gt;p33 -->
<g id="edge39" class="edge"><title>p32&#45;&gt;p33</title>
<path fill="none" stroke="black" d="M523,-522.203C523,-514.649 523,-493.48 523,-479.66"/>
<polygon fill="black" stroke="black" points="526.5,-479.636 523,-469.636 519.5,-479.636 526.5,-479.636"/>
<text text-anchor="middle" x="562" y="-492.3" font-family="Times,serif" font-size="14.00">version_ch</text>
</g>
<!-- p23 -->
<g id="node26" class="node"><title>p23</title>
<ellipse fill="black" stroke="black" cx="574" cy="-830" rx="3.6" ry="3.6"/>
<text text-anchor="middle" x="624.9" y="-815.2" font-family="Times,serif" font-size="14.00">Channel.empty</text>
</g>
<!-- p27 -->
<g id="node27" class="node"><title>p27</title>
<ellipse fill="none" stroke="black" cx="421" cy="-742" rx="3.25" ry="3.5"/>
<text text-anchor="middle" x="404" y="-749.3" font-family="Times,serif" font-size="14.00">mix</text>
</g>
<!-- p23&#45;&gt;p27 -->
<g id="edge27" class="edge"><title>p23&#45;&gt;p27</title>
<path fill="none" stroke="black" d="M572.506,-826.222C570.39,-822.519 566.193,-815.975 561,-812 512.566,-774.929 482.434,-797.071 434,-760 431.71,-758.247 429.613,-755.994 427.803,-753.706"/>
<polygon fill="black" stroke="black" points="430.665,-751.688 422.218,-745.292 424.833,-755.559 430.665,-751.688"/>
<text text-anchor="middle" x="568" y="-782.3" font-family="Times,serif" font-size="14.00">version_ch</text>
</g>
<!-- p31 -->
<g id="node31" class="node"><title>p31</title>
<ellipse fill="none" stroke="black" cx="487" cy="-590" rx="3.25" ry="3.5"/>
<text text-anchor="middle" x="470" y="-597.3" font-family="Times,serif" font-size="14.00">mix</text>
</g>
<!-- p27&#45;&gt;p31 -->
<g id="edge32" class="edge"><title>p27&#45;&gt;p31</title>
<path fill="none" stroke="black" d="M422.615,-738.45C428.199,-729.558 447.006,-698.995 459,-672 469.487,-648.396 478.627,-619.558 483.424,-603.438"/>
<polygon fill="black" stroke="black" points="486.859,-604.159 486.283,-593.58 480.136,-602.21 486.859,-604.159"/>
<text text-anchor="middle" x="512" y="-650.3" font-family="Times,serif" font-size="14.00">version_ch</text>
</g>
<!-- p28 -->
<g id="node30" class="node"><title>p28</title>
<ellipse fill="none" stroke="black" cx="276" cy="-742" rx="3.25" ry="3.5"/>
<text text-anchor="middle" x="248" y="-749.3" font-family="Times,serif" font-size="14.00">collect</text>
</g>
<!-- p26&#45;&gt;p28 -->
<g id="edge30" class="edge"><title>p26&#45;&gt;p28</title>
<path fill="none" stroke="black" d="M276,-811.597C276,-795.046 276,-770.54 276,-755.737"/>
<polygon fill="black" stroke="black" points="279.5,-755.671 276,-745.671 272.5,-755.671 279.5,-755.671"/>
</g>
<!-- p26&#45;&gt;p27 -->
<g id="edge31" class="edge"><title>p26&#45;&gt;p27</title>
<path fill="none" stroke="black" d="M304.647,-812.009C336.843,-792.914 387.521,-762.856 409.828,-749.626"/>
<polygon fill="black" stroke="black" points="411.664,-752.607 418.479,-744.495 408.093,-746.586 411.664,-752.607"/>
</g>
<!-- p25 -->
<g id="node29" class="node"><title>p25</title>
<ellipse fill="black" stroke="black" cx="276" cy="-904" rx="3.6" ry="3.6"/>
</g>
<!-- p25&#45;&gt;p26 -->
<g id="edge29" class="edge"><title>p25&#45;&gt;p26</title>
<path fill="none" stroke="black" d="M276,-900.265C276,-893.354 276,-874.578 276,-858.316"/>
<polygon fill="black" stroke="black" points="279.5,-858.143 276,-848.143 272.5,-858.143 279.5,-858.143"/>
<text text-anchor="middle" x="294.5" y="-870.3" font-family="Times,serif" font-size="14.00">meta</text>
</g>
<!-- p30 -->
<g id="node32" class="node"><title>p30</title>
<ellipse fill="none" stroke="black" cx="244" cy="-654" rx="206.522" ry="18"/>
<text text-anchor="middle" x="244" y="-650.3" font-family="Times,serif" font-size="14.00">SEX_GUESS_02:SEX_GUESS_01:DIGEST</text>
</g>
<!-- p28&#45;&gt;p30 -->
<g id="edge33" class="edge"><title>p28&#45;&gt;p30</title>
<path fill="none" stroke="black" d="M275.439,-738.17C273.842,-730.341 268.932,-707.795 262,-690 260.871,-687.101 259.574,-684.126 258.205,-681.194"/>
<polygon fill="black" stroke="black" points="261.281,-679.521 253.701,-672.119 255.011,-682.632 261.281,-679.521"/>
</g>
<!-- p31&#45;&gt;p32 -->
<g id="edge38" class="edge"><title>p31&#45;&gt;p32</title>
<path fill="none" stroke="black" d="M488.367,-586.645C492.911,-578.819 507.714,-553.327 516.426,-538.321"/>
<polygon fill="black" stroke="black" points="519.637,-539.763 521.631,-529.357 513.583,-536.248 519.637,-539.763"/>
<text text-anchor="middle" x="537.5" y="-552.3" font-family="Times,serif" font-size="14.00">version</text>
</g>
<!-- p44 -->
<g id="node34" class="node"><title>p44</title>
<ellipse fill="none" stroke="black" cx="257" cy="-152" rx="3.25" ry="3.5"/>
<text text-anchor="middle" x="240" y="-159.3" font-family="Times,serif" font-size="14.00">mix</text>
</g>
<!-- p30&#45;&gt;p44 -->
<g id="edge35" class="edge"><title>p30&#45;&gt;p44</title>
<path fill="none" stroke="black" d="M238.841,-635.801C235.589,-623.453 232,-606.349 232,-591 232,-591 232,-591 232,-197 232,-183.613 240.857,-170.574 248.027,-162.211"/>
<polygon fill="black" stroke="black" points="250.707,-164.471 255.038,-154.802 245.623,-159.66 250.707,-164.471"/>
<text text-anchor="middle" x="256" y="-388.3" font-family="Times,serif" font-size="14.00">output</text>
</g>
<!-- p43 -->
<g id="node35" class="node"><title>p43</title>
<ellipse fill="none" stroke="black" cx="308" cy="-198" rx="3.25" ry="3.5"/>
<text text-anchor="middle" x="291" y="-205.3" font-family="Times,serif" font-size="14.00">mix</text>
</g>
<!-- p30&#45;&gt;p43 -->
<g id="edge36" class="edge"><title>p30&#45;&gt;p43</title>
<path fill="none" stroke="black" d="M277.125,-636.101C292.741,-625.573 308,-610.337 308,-591 308,-591 308,-591 308,-243 308,-232.53 308,-220.658 308,-211.888"/>
<polygon fill="black" stroke="black" points="311.5,-211.78 308,-201.78 304.5,-211.78 311.5,-211.78"/>
<text text-anchor="middle" x="320" y="-432.3" font-family="Times,serif" font-size="14.00">pdf</text>
</g>
<!-- p30&#45;&gt;p31 -->
<g id="edge37" class="edge"><title>p30&#45;&gt;p31</title>
<path fill="none" stroke="black" d="M307.528,-636.791C364.381,-622.285 443.354,-602.136 474.063,-594.301"/>
<polygon fill="black" stroke="black" points="475,-597.674 483.824,-591.81 473.269,-590.891 475,-597.674"/>
</g>
<!-- p29 -->
<g id="node33" class="node"><title>p29</title>
<ellipse fill="black" stroke="black" cx="224" cy="-742" rx="3.6" ry="3.6"/>
</g>
<!-- p29&#45;&gt;p30 -->
<g id="edge34" class="edge"><title>p29&#45;&gt;p30</title>
<path fill="none" stroke="black" d="M223.596,-738.172C222.574,-730.346 220.292,-707.808 225,-690 225.788,-687.021 226.877,-684.019 228.138,-681.092"/>
<polygon fill="black" stroke="black" points="231.283,-682.629 232.6,-672.117 225.014,-679.514 231.283,-682.629"/>
<text text-anchor="middle" x="243.5" y="-694.3" font-family="Times,serif" font-size="14.00">meta</text>
</g>
<!-- p45 -->
<g id="node46" class="node"><title>p45</title>
<ellipse fill="none" stroke="black" cx="257" cy="-92" rx="3.25" ry="3.5"/>
<text text-anchor="middle" x="229" y="-99.3" font-family="Times,serif" font-size="14.00">collect</text>
</g>
<!-- p44&#45;&gt;p45 -->
<g id="edge52" class="edge"><title>p44&#45;&gt;p45</title>
<path fill="none" stroke="black" d="M257,-148.203C257,-140.649 257,-119.48 257,-105.66"/>
<polygon fill="black" stroke="black" points="260.5,-105.636 257,-95.6357 253.5,-105.636 260.5,-105.636"/>
<text text-anchor="middle" x="270.5" y="-118.3" font-family="Times,serif" font-size="14.00">ch2</text>
</g>
<!-- p43&#45;&gt;p44 -->
<g id="edge51" class="edge"><title>p43&#45;&gt;p44</title>
<path fill="none" stroke="black" d="M305.809,-195.109C299.189,-189.398 279.104,-172.07 266.859,-161.506"/>
<polygon fill="black" stroke="black" points="268.984,-158.717 259.126,-154.835 264.412,-164.017 268.984,-158.717"/>
</g>
<!-- p37 -->
<g id="node37" class="node"><title>p37</title>
<ellipse fill="none" stroke="black" cx="540" cy="-392" rx="178.601" ry="18"/>
<text text-anchor="middle" x="540" y="-388.3" font-family="Times,serif" font-size="14.00">SEX_GUESS_02:MERGE_VERSION</text>
</g>
<!-- p33&#45;&gt;p37 -->
<g id="edge40" class="edge"><title>p33&#45;&gt;p37</title>
<path fill="none" stroke="black" d="M523.646,-462.265C525.278,-455.354 529.711,-436.578 533.55,-420.316"/>
<polygon fill="black" stroke="black" points="537.061,-420.68 535.952,-410.143 530.248,-419.071 537.061,-420.68"/>
</g>
<!-- p39 -->
<g id="node41" class="node"><title>p39</title>
<ellipse fill="none" stroke="black" cx="540" cy="-304" rx="111.186" ry="18"/>
<text text-anchor="middle" x="540" y="-300.3" font-family="Times,serif" font-size="14.00">VERSION_TO_HTML</text>
</g>
<!-- p37&#45;&gt;p39 -->
<g id="edge44" class="edge"><title>p37&#45;&gt;p39</title>
<path fill="none" stroke="black" d="M540,-373.597C540,-361.746 540,-345.817 540,-332.292"/>
<polygon fill="black" stroke="black" points="543.5,-332.084 540,-322.084 536.5,-332.084 543.5,-332.084"/>
</g>
<!-- p41 -->
<g id="node45" class="node"><title>p41</title>
<ellipse fill="none" stroke="black" cx="373" cy="-304" rx="3.25" ry="3.5"/>
<text text-anchor="middle" x="356" y="-311.3" font-family="Times,serif" font-size="14.00">mix</text>
</g>
<!-- p37&#45;&gt;p41 -->
<g id="edge48" class="edge"><title>p37&#45;&gt;p41</title>
<path fill="none" stroke="black" d="M507.404,-374.214C469.71,-354.803 409.635,-323.866 384.572,-310.959"/>
<polygon fill="black" stroke="black" points="386.019,-307.768 375.526,-306.301 382.814,-313.991 386.019,-307.768"/>
</g>
<!-- p34 -->
<g id="node38" class="node"><title>p34</title>
<ellipse fill="black" stroke="black" cx="556" cy="-466" rx="3.6" ry="3.6"/>
</g>
<!-- p34&#45;&gt;p37 -->
<g id="edge41" class="edge"><title>p34&#45;&gt;p37</title>
<path fill="none" stroke="black" d="M555.392,-462.265C553.856,-455.354 549.684,-436.578 546.07,-420.316"/>
<polygon fill="black" stroke="black" points="549.396,-419.145 543.81,-410.143 542.562,-420.664 549.396,-419.145"/>
<text text-anchor="middle" x="570.5" y="-432.3" font-family="Times,serif" font-size="14.00">meta</text>
</g>
<!-- p35 -->
<g id="node39" class="node"><title>p35</title>
<ellipse fill="black" stroke="black" cx="616" cy="-466" rx="3.6" ry="3.6"/>
</g>
<!-- p35&#45;&gt;p37 -->
<g id="edge42" class="edge"><title>p35&#45;&gt;p37</title>
<path fill="none" stroke="black" d="M614.87,-462.409C611.976,-455.988 603.76,-439.059 593,-428 588.764,-423.646 583.896,-419.545 578.865,-415.789"/>
<polygon fill="black" stroke="black" points="580.526,-412.68 570.327,-409.812 576.512,-418.414 580.526,-412.68"/>
<text text-anchor="middle" x="625" y="-432.3" font-family="Times,serif" font-size="14.00">name</text>
</g>
<!-- p36 -->
<g id="node40" class="node"><title>p36</title>
<ellipse fill="black" stroke="black" cx="426" cy="-466" rx="3.6" ry="3.6"/>
</g>
<!-- p36&#45;&gt;p37 -->
<g id="edge43" class="edge"><title>p36&#45;&gt;p37</title>
<path fill="none" stroke="black" d="M426.505,-462.248C427.891,-455.46 432.382,-437.758 443,-428 449.417,-422.103 456.901,-417.183 464.814,-413.082"/>
<polygon fill="black" stroke="black" points="466.35,-416.227 473.897,-408.791 463.36,-409.898 466.35,-416.227"/>
<text text-anchor="middle" x="484" y="-432.3" font-family="Times,serif" font-size="14.00">description</text>
</g>
<!-- p42 -->
<g id="node43" class="node"><title>p42</title>
<ellipse fill="none" stroke="black" cx="373" cy="-244" rx="3.25" ry="3.5"/>
<text text-anchor="middle" x="356" y="-251.3" font-family="Times,serif" font-size="14.00">mix</text>
</g>
<!-- p39&#45;&gt;p42 -->
<g id="edge46" class="edge"><title>p39&#45;&gt;p42</title>
<path fill="none" stroke="black" d="M495.247,-287.457C458.23,-274.601 408.157,-257.21 385.298,-249.271"/>
<polygon fill="black" stroke="black" points="386.439,-245.962 375.844,-245.988 384.142,-252.575 386.439,-245.962"/>
</g>
<!-- p38 -->
<g id="node42" class="node"><title>p38</title>
<ellipse fill="black" stroke="black" cx="740" cy="-392" rx="3.6" ry="3.6"/>
</g>
<!-- p38&#45;&gt;p39 -->
<g id="edge45" class="edge"><title>p38&#45;&gt;p39</title>
<path fill="none" stroke="black" d="M738.526,-388.195C736.433,-384.462 732.262,-377.883 727,-374 693.388,-349.197 649.896,-332.444 613.315,-321.663"/>
<polygon fill="black" stroke="black" points="614.262,-318.293 603.686,-318.914 612.341,-325.024 614.262,-318.293"/>
<text text-anchor="middle" x="713.5" y="-344.3" font-family="Times,serif" font-size="14.00">meta</text>
</g>
<!-- p42&#45;&gt;p43 -->
<g id="edge50" class="edge"><title>p42&#45;&gt;p43</title>
<path fill="none" stroke="black" d="M370.531,-241.329C362.166,-235.666 334.545,-216.969 318.957,-206.417"/>
<polygon fill="black" stroke="black" points="320.714,-203.38 310.471,-200.673 316.79,-209.177 320.714,-203.38"/>
</g>
<!-- p40 -->
<g id="node44" class="node"><title>p40</title>
<ellipse fill="black" stroke="black" cx="340" cy="-392" rx="3.6" ry="3.6"/>
<text text-anchor="middle" x="281.9" y="-399.4" font-family="Times,serif" font-size="14.00">Channel.empty</text>
</g>
<!-- p40&#45;&gt;p41 -->
<g id="edge47" class="edge"><title>p40&#45;&gt;p41</title>
<path fill="none" stroke="black" d="M340.952,-388.519C344.945,-378.113 360.498,-337.581 368.375,-317.054"/>
<polygon fill="black" stroke="black" points="371.665,-318.249 371.98,-307.659 365.129,-315.742 371.665,-318.249"/>
</g>
<!-- p41&#45;&gt;p42 -->
<g id="edge49" class="edge"><title>p41&#45;&gt;p42</title>
<path fill="none" stroke="black" d="M373,-300.203C373,-292.649 373,-271.48 373,-257.66"/>
<polygon fill="black" stroke="black" points="376.5,-257.636 373,-247.636 369.5,-257.636 376.5,-257.636"/>
</g>
<!-- p47 -->
<g id="node47" class="node"><title>p47</title>
<ellipse fill="none" stroke="black" cx="273" cy="-18" rx="56.3173" ry="18"/>
<text text-anchor="middle" x="273" y="-14.3" font-family="Times,serif" font-size="14.00">PUBLISH</text>
</g>
<!-- p45&#45;&gt;p47 -->
<g id="edge53" class="edge"><title>p45&#45;&gt;p47</title>
<path fill="none" stroke="black" d="M257.608,-88.2654C259.144,-81.3541 263.316,-62.5781 266.93,-46.3163"/>
<polygon fill="black" stroke="black" points="270.438,-46.6641 269.19,-36.1429 263.604,-45.1455 270.438,-46.6641"/>
</g>
<!-- p46 -->
<g id="node48" class="node"><title>p46</title>
<ellipse fill="black" stroke="black" cx="290" cy="-92" rx="3.6" ry="3.6"/>
</g>
<!-- p46&#45;&gt;p47 -->
<g id="edge54" class="edge"><title>p46&#45;&gt;p47</title>
<path fill="none" stroke="black" d="M289.354,-88.2654C287.722,-81.3541 283.289,-62.5781 279.45,-46.3163"/>
<polygon fill="black" stroke="black" points="282.752,-45.071 277.048,-36.1429 275.939,-46.6796 282.752,-45.071"/>
<text text-anchor="middle" x="303.5" y="-58.3" font-family="Times,serif" font-size="14.00">meta</text>
</g>
</g>
</svg>
