<?xml version="1.0" encoding="UTF-8" standalone="no"?>
<!DOCTYPE svg PUBLIC "-//W3C//DTD SVG 1.1//EN"
 "http://www.w3.org/Graphics/SVG/1.1/DTD/svg11.dtd">
<!-- Generated by graphviz version 2.30.1 (20201013.1554)
 -->
<!-- Title: workflow Pages: 1 -->
<svg width="1196pt" height="1481pt"
 viewBox="0.00 0.00 1196.00 1480.60" xmlns="http://www.w3.org/2000/svg" xmlns:xlink="http://www.w3.org/1999/xlink">
<g id="graph0" class="graph" transform="scale(1 1) rotate(0) translate(4 1476.6)">
<title>workflow</title>
<polygon fill="white" stroke="white" points="-4,5 -4,-1476.6 1193,-1476.6 1193,5 -4,5"/>
<!-- p0 -->
<g id="node1" class="node"><title>p0</title>
<ellipse fill="black" stroke="black" cx="1082.6" cy="-1334" rx="3.6" ry="3.6"/>
<text text-anchor="middle" x="1133.5" y="-1341.4" font-family="Times,serif" font-size="14.00">Channel.empty</text>
</g>
<!-- p3 -->
<g id="node2" class="node"><title>p3</title>
<ellipse fill="none" stroke="black" cx="913.6" cy="-1246" rx="3.25" ry="3.5"/>
<text text-anchor="middle" x="896.6" y="-1253.3" font-family="Times,serif" font-size="14.00">mix</text>
</g>
<!-- p0&#45;&gt;p3 -->
<g id="edge1" class="edge"><title>p0&#45;&gt;p3</title>
<path fill="none" stroke="black" d="M1081.09,-1330.24C1078.96,-1326.56 1074.74,-1320.05 1069.6,-1316 1023.4,-1279.61 954.988,-1258.15 926.639,-1250.36"/>
<polygon fill="black" stroke="black" points="927.448,-1246.96 916.887,-1247.8 925.668,-1253.72 927.448,-1246.96"/>
<text text-anchor="middle" x="1081.6" y="-1286.3" font-family="Times,serif" font-size="14.00">version_ch</text>
</g>
<!-- p6 -->
<g id="node6" class="node"><title>p6</title>
<ellipse fill="none" stroke="black" cx="787.6" cy="-1168" rx="3.25" ry="3.5"/>
<text text-anchor="middle" x="770.6" y="-1175.3" font-family="Times,serif" font-size="14.00">mix</text>
</g>
<!-- p3&#45;&gt;p6 -->
<g id="edge5" class="edge"><title>p3&#45;&gt;p6</title>
<path fill="none" stroke="black" d="M910.968,-1243.41C896.556,-1234.72 826.835,-1192.67 799.056,-1175.91"/>
<polygon fill="black" stroke="black" points="800.588,-1172.75 790.217,-1170.58 796.972,-1178.74 800.588,-1172.75"/>
<text text-anchor="middle" x="892.6" y="-1198.3" font-family="Times,serif" font-size="14.00">version_ch</text>
</g>
<!-- p1 -->
<g id="node3" class="node"><title>p1</title>
<ellipse fill="black" stroke="black" cx="909.6" cy="-1408" rx="3.6" ry="3.6"/>
</g>
<!-- p2 -->
<g id="node4" class="node"><title>p2</title>
<ellipse fill="none" stroke="black" cx="909.6" cy="-1334" rx="151.155" ry="18"/>
<text text-anchor="middle" x="909.6" y="-1330.3" font-family="Times,serif" font-size="14.00">TRACK_HUB:COMPILE_JAVA</text>
</g>
<!-- p1&#45;&gt;p2 -->
<g id="edge2" class="edge"><title>p1&#45;&gt;p2</title>
<path fill="none" stroke="black" d="M909.6,-1404.27C909.6,-1397.35 909.6,-1378.58 909.6,-1362.32"/>
<polygon fill="black" stroke="black" points="913.1,-1362.14 909.6,-1352.14 906.1,-1362.14 913.1,-1362.14"/>
<text text-anchor="middle" x="928.1" y="-1374.3" font-family="Times,serif" font-size="14.00">meta</text>
</g>
<!-- p11 -->
<g id="node5" class="node"><title>p11</title>
<ellipse fill="none" stroke="black" cx="736.6" cy="-1246" rx="129.483" ry="18"/>
<text text-anchor="middle" x="736.6" y="-1242.3" font-family="Times,serif" font-size="14.00">TRACK_HUB:SCAN_VCF</text>
</g>
<!-- p2&#45;&gt;p11 -->
<g id="edge3" class="edge"><title>p2&#45;&gt;p11</title>
<path fill="none" stroke="black" d="M876.244,-1316.42C848.481,-1302.62 808.794,-1282.89 778.82,-1267.99"/>
<polygon fill="black" stroke="black" points="780.366,-1264.85 769.854,-1263.53 777.25,-1271.12 780.366,-1264.85"/>
</g>
<!-- p2&#45;&gt;p3 -->
<g id="edge4" class="edge"><title>p2&#45;&gt;p3</title>
<path fill="none" stroke="black" d="M910.409,-1315.6C911.179,-1299.05 912.319,-1274.54 913.008,-1259.74"/>
<polygon fill="black" stroke="black" points="916.507,-1259.82 913.476,-1249.67 909.515,-1259.5 916.507,-1259.82"/>
</g>
<!-- p20 -->
<g id="node15" class="node"><title>p20</title>
<ellipse fill="none" stroke="black" cx="647.6" cy="-910" rx="3.25" ry="3.5"/>
<text text-anchor="middle" x="613.6" y="-917.3" font-family="Times,serif" font-size="14.00">combine</text>
</g>
<!-- p11&#45;&gt;p20 -->
<g id="edge14" class="edge"><title>p11&#45;&gt;p20</title>
<path fill="none" stroke="black" d="M641.782,-1233.65C605.923,-1223.56 573.6,-1204.59 573.6,-1169 573.6,-1169 573.6,-1169 573.6,-969 573.6,-938.292 613.562,-921.395 634.752,-914.594"/>
<polygon fill="black" stroke="black" points="635.798,-917.935 644.42,-911.778 633.841,-911.214 635.798,-917.935"/>
</g>
<!-- p27 -->
<g id="node16" class="node"><title>p27</title>
<ellipse fill="none" stroke="black" cx="541.6" cy="-1168" rx="3.25" ry="3.5"/>
<text text-anchor="middle" x="513.6" y="-1175.3" font-family="Times,serif" font-size="14.00">collect</text>
</g>
<!-- p11&#45;&gt;p27 -->
<g id="edge15" class="edge"><title>p11&#45;&gt;p27</title>
<path fill="none" stroke="black" d="M640.278,-1233.97C606.047,-1228.4 572.732,-1220.54 559.6,-1210 550.831,-1202.96 546.225,-1190.79 543.877,-1181.53"/>
<polygon fill="black" stroke="black" points="547.309,-1180.84 541.931,-1171.72 540.442,-1182.21 547.309,-1180.84"/>
</g>
<!-- p13 -->
<g id="node17" class="node"><title>p13</title>
<ellipse fill="none" stroke="black" cx="736.6" cy="-1168" rx="3.25" ry="3.5"/>
<text text-anchor="middle" x="708.6" y="-1175.3" font-family="Times,serif" font-size="14.00">collect</text>
</g>
<!-- p11&#45;&gt;p13 -->
<g id="edge16" class="edge"><title>p11&#45;&gt;p13</title>
<path fill="none" stroke="black" d="M736.6,-1227.75C736.6,-1213.97 736.6,-1194.94 736.6,-1182.31"/>
<polygon fill="black" stroke="black" points="740.1,-1181.96 736.6,-1171.96 733.1,-1181.96 740.1,-1181.96"/>
</g>
<!-- p12 -->
<g id="node10" class="node"><title>p12</title>
<ellipse fill="none" stroke="black" cx="886.6" cy="-1090" rx="3.25" ry="3.5"/>
<text text-anchor="middle" x="896.6" y="-1097.3" font-family="Times,serif" font-size="14.00">mix</text>
</g>
<!-- p11&#45;&gt;p12 -->
<g id="edge17" class="edge"><title>p11&#45;&gt;p12</title>
<path fill="none" stroke="black" d="M765.625,-1228.37C794.71,-1210.39 839.017,-1179.26 866.6,-1142 875.222,-1130.35 880.666,-1114.5 883.66,-1103.58"/>
<polygon fill="black" stroke="black" points="887.133,-1104.11 886.094,-1093.57 880.331,-1102.46 887.133,-1104.11"/>
</g>
<!-- p6&#45;&gt;p12 -->
<g id="edge9" class="edge"><title>p6&#45;&gt;p12</title>
<path fill="none" stroke="black" d="M786.694,-1164.42C784.391,-1157.34 779.136,-1137.39 788.6,-1126 813.277,-1096.3 840.951,-1128.62 873.6,-1108 876.038,-1106.46 878.193,-1104.29 880.013,-1102.02"/>
<polygon fill="black" stroke="black" points="883.069,-1103.73 885.465,-1093.41 877.156,-1099.98 883.069,-1103.73"/>
<text text-anchor="middle" x="827.6" y="-1130.3" font-family="Times,serif" font-size="14.00">version_ch</text>
</g>
<!-- p4 -->
<g id="node7" class="node"><title>p4</title>
<ellipse fill="black" stroke="black" cx="375.6" cy="-1334" rx="3.6" ry="3.6"/>
</g>
<!-- p5 -->
<g id="node8" class="node"><title>p5</title>
<ellipse fill="none" stroke="black" cx="375.6" cy="-1246" rx="212.297" ry="18"/>
<text text-anchor="middle" x="375.6" y="-1242.3" font-family="Times,serif" font-size="14.00">TRACK_HUB:DOWNLOAD_CHROM_INFO</text>
</g>
<!-- p4&#45;&gt;p5 -->
<g id="edge6" class="edge"><title>p4&#45;&gt;p5</title>
<path fill="none" stroke="black" d="M375.6,-1330.14C375.6,-1321.5 375.6,-1295.01 375.6,-1274.23"/>
<polygon fill="black" stroke="black" points="379.1,-1274 375.6,-1264 372.1,-1274 379.1,-1274"/>
<text text-anchor="middle" x="394.1" y="-1286.3" font-family="Times,serif" font-size="14.00">meta</text>
</g>
<!-- p24 -->
<g id="node9" class="node"><title>p24</title>
<ellipse fill="none" stroke="black" cx="594.6" cy="-776" rx="138.157" ry="18"/>
<text text-anchor="middle" x="594.6" y="-772.3" font-family="Times,serif" font-size="14.00">TRACK_HUB:MERGE_BED</text>
</g>
<!-- p5&#45;&gt;p24 -->
<g id="edge7" class="edge"><title>p5&#45;&gt;p24</title>
<path fill="none" stroke="black" d="M452.772,-1229.22C482.559,-1218.22 509.6,-1199.76 509.6,-1169 509.6,-1169 509.6,-1169 509.6,-849 509.6,-826.862 526.595,-810.127 545.386,-798.388"/>
<polygon fill="black" stroke="black" points="547.193,-801.386 554.092,-793.345 543.684,-795.329 547.193,-801.386"/>
</g>
<!-- p5&#45;&gt;p6 -->
<g id="edge8" class="edge"><title>p5&#45;&gt;p6</title>
<path fill="none" stroke="black" d="M459.969,-1229.44C562.399,-1210.54 727.338,-1180.12 774.578,-1171.4"/>
<polygon fill="black" stroke="black" points="775.431,-1174.8 784.631,-1169.55 774.162,-1167.92 775.431,-1174.8"/>
</g>
<!-- p30 -->
<g id="node31" class="node"><title>p30</title>
<ellipse fill="none" stroke="black" cx="324.6" cy="-1090" rx="156.454" ry="18"/>
<text text-anchor="middle" x="324.6" y="-1086.3" font-family="Times,serif" font-size="14.00">TRACK_HUB:MERGE_BED_PE</text>
</g>
<!-- p5&#45;&gt;p30 -->
<g id="edge37" class="edge"><title>p5&#45;&gt;p30</title>
<path fill="none" stroke="black" d="M347.606,-1227.99C330.53,-1215.86 310.198,-1197.87 300.6,-1176 292.23,-1156.93 299.501,-1134.16 308.17,-1116.99"/>
<polygon fill="black" stroke="black" points="311.311,-1118.54 313.039,-1108.09 305.17,-1115.18 311.311,-1118.54"/>
<text text-anchor="middle" x="337.1" y="-1164.3" font-family="Times,serif" font-size="14.00">chrominfo</text>
</g>
<!-- p26 -->
<g id="node25" class="node"><title>p26</title>
<ellipse fill="none" stroke="black" cx="333.6" cy="-702" rx="3.25" ry="3.5"/>
<text text-anchor="middle" x="316.6" y="-709.3" font-family="Times,serif" font-size="14.00">mix</text>
</g>
<!-- p24&#45;&gt;p26 -->
<g id="edge31" class="edge"><title>p24&#45;&gt;p26</title>
<path fill="none" stroke="black" d="M542.071,-759.334C506.928,-748.984 459.599,-735.297 417.6,-724 392.383,-717.217 362.709,-709.97 346.239,-706.012"/>
<polygon fill="black" stroke="black" points="347.051,-702.607 336.511,-703.688 345.425,-709.415 347.051,-702.607"/>
</g>
<!-- p25 -->
<g id="node22" class="node"><title>p25</title>
<ellipse fill="none" stroke="black" cx="594.6" cy="-702" rx="3.25" ry="3.5"/>
<text text-anchor="middle" x="577.6" y="-709.3" font-family="Times,serif" font-size="14.00">mix</text>
</g>
<!-- p24&#45;&gt;p25 -->
<g id="edge32" class="edge"><title>p24&#45;&gt;p25</title>
<path fill="none" stroke="black" d="M594.6,-757.937C594.6,-745.126 594.6,-727.843 594.6,-716.107"/>
<polygon fill="black" stroke="black" points="598.1,-715.748 594.6,-705.748 591.1,-715.748 598.1,-715.748"/>
</g>
<!-- p16 -->
<g id="node18" class="node"><title>p16</title>
<ellipse fill="none" stroke="black" cx="760.6" cy="-1016" rx="3.25" ry="3.5"/>
<text text-anchor="middle" x="743.6" y="-1023.3" font-family="Times,serif" font-size="14.00">mix</text>
</g>
<!-- p12&#45;&gt;p16 -->
<g id="edge18" class="edge"><title>p12&#45;&gt;p16</title>
<path fill="none" stroke="black" d="M885.349,-1086.75C883.293,-1083.22 878.892,-1076.33 873.6,-1072 841.677,-1045.9 795.299,-1028.36 773.209,-1020.97"/>
<polygon fill="black" stroke="black" points="774.273,-1017.63 763.682,-1017.91 772.137,-1024.3 774.273,-1017.63"/>
<text text-anchor="middle" x="883.6" y="-1042.3" font-family="Times,serif" font-size="14.00">version_ch</text>
</g>
<!-- p7 -->
<g id="node11" class="node"><title>p7</title>
<ellipse fill="black" stroke="black" cx="703.6" cy="-1454" rx="3.6" ry="3.6"/>
<text text-anchor="middle" x="635" y="-1461.4" font-family="Times,serif" font-size="14.00">Channel.fromPath</text>
</g>
<!-- p8 -->
<g id="node12" class="node"><title>p8</title>
<ellipse fill="none" stroke="black" cx="703.6" cy="-1408" rx="3.25" ry="3.5"/>
<text text-anchor="middle" x="668.1" y="-1415.3" font-family="Times,serif" font-size="14.00">splitText</text>
</g>
<!-- p7&#45;&gt;p8 -->
<g id="edge10" class="edge"><title>p7&#45;&gt;p8</title>
<path fill="none" stroke="black" d="M703.6,-1450.38C703.6,-1444.86 703.6,-1431.74 703.6,-1421.74"/>
<polygon fill="black" stroke="black" points="707.1,-1421.55 703.6,-1411.55 700.1,-1421.55 707.1,-1421.55"/>
</g>
<!-- p9 -->
<g id="node13" class="node"><title>p9</title>
<ellipse fill="none" stroke="black" cx="703.6" cy="-1334" rx="3.25" ry="3.5"/>
<text text-anchor="middle" x="684.6" y="-1341.3" font-family="Times,serif" font-size="14.00">map</text>
</g>
<!-- p8&#45;&gt;p9 -->
<g id="edge11" class="edge"><title>p8&#45;&gt;p9</title>
<path fill="none" stroke="black" d="M703.6,-1404.27C703.6,-1395.13 703.6,-1365.28 703.6,-1347.89"/>
<polygon fill="black" stroke="black" points="707.1,-1347.74 703.6,-1337.74 700.1,-1347.74 707.1,-1347.74"/>
</g>
<!-- p9&#45;&gt;p11 -->
<g id="edge12" class="edge"><title>p9&#45;&gt;p11</title>
<path fill="none" stroke="black" d="M704.552,-1330.52C707.727,-1322.25 718.21,-1294.93 726.331,-1273.76"/>
<polygon fill="black" stroke="black" points="729.659,-1274.86 729.974,-1264.27 723.124,-1272.35 729.659,-1274.86"/>
</g>
<!-- p10 -->
<g id="node14" class="node"><title>p10</title>
<ellipse fill="black" stroke="black" cx="736.6" cy="-1334" rx="3.6" ry="3.6"/>
</g>
<!-- p10&#45;&gt;p11 -->
<g id="edge13" class="edge"><title>p10&#45;&gt;p11</title>
<path fill="none" stroke="black" d="M736.6,-1330.14C736.6,-1321.5 736.6,-1295.01 736.6,-1274.23"/>
<polygon fill="black" stroke="black" points="740.1,-1274 736.6,-1264 733.1,-1274 740.1,-1274"/>
<text text-anchor="middle" x="755.1" y="-1286.3" font-family="Times,serif" font-size="14.00">meta</text>
</g>
<!-- p21 -->
<g id="node26" class="node"><title>p21</title>
<ellipse fill="none" stroke="black" cx="647.6" cy="-850" rx="3.25" ry="3.5"/>
<text text-anchor="middle" x="602.6" y="-857.3" font-family="Times,serif" font-size="14.00">groupTuple</text>
</g>
<!-- p20&#45;&gt;p21 -->
<g id="edge27" class="edge"><title>p20&#45;&gt;p21</title>
<path fill="none" stroke="black" d="M647.6,-906.203C647.6,-898.649 647.6,-877.48 647.6,-863.66"/>
<polygon fill="black" stroke="black" points="651.1,-863.636 647.6,-853.636 644.1,-863.636 651.1,-863.636"/>
</g>
<!-- p27&#45;&gt;p30 -->
<g id="edge35" class="edge"><title>p27&#45;&gt;p30</title>
<path fill="none" stroke="black" d="M538.935,-1165.55C528.385,-1159.86 488.426,-1138.73 453.6,-1126 436.406,-1119.71 417.558,-1113.98 399.709,-1109.05"/>
<polygon fill="black" stroke="black" points="400.48,-1105.63 389.913,-1106.4 398.65,-1112.39 400.48,-1105.63"/>
</g>
<!-- p15 -->
<g id="node19" class="node"><title>p15</title>
<ellipse fill="none" stroke="black" cx="733.6" cy="-1090" rx="131.408" ry="18"/>
<text text-anchor="middle" x="733.6" y="-1086.3" font-family="Times,serif" font-size="14.00">TRACK_HUB:ALL_TYPES</text>
</g>
<!-- p13&#45;&gt;p15 -->
<g id="edge19" class="edge"><title>p13&#45;&gt;p15</title>
<path fill="none" stroke="black" d="M736.5,-1164.47C736.216,-1157.27 735.377,-1136.03 734.675,-1118.23"/>
<polygon fill="black" stroke="black" points="738.163,-1117.86 734.271,-1108.01 731.169,-1118.14 738.163,-1117.86"/>
</g>
<!-- p16&#45;&gt;p25 -->
<g id="edge23" class="edge"><title>p16&#45;&gt;p25</title>
<path fill="none" stroke="black" d="M760.6,-1012.22C760.6,-1005.27 760.6,-986.583 760.6,-971 760.6,-971 760.6,-971 760.6,-775 760.6,-708.532 647.197,-702.753 607.853,-702.748"/>
<polygon fill="black" stroke="black" points="607.72,-699.249 597.768,-702.884 607.814,-706.248 607.72,-699.249"/>
<text text-anchor="middle" x="799.6" y="-876.3" font-family="Times,serif" font-size="14.00">version_ch</text>
</g>
<!-- p17 -->
<g id="node21" class="node"><title>p17</title>
<ellipse fill="none" stroke="black" cx="692.6" cy="-1016" rx="3.25" ry="3.5"/>
<text text-anchor="middle" x="657.1" y="-1023.3" font-family="Times,serif" font-size="14.00">splitText</text>
</g>
<!-- p15&#45;&gt;p17 -->
<g id="edge21" class="edge"><title>p15&#45;&gt;p17</title>
<path fill="none" stroke="black" d="M723.884,-1071.94C716.211,-1058.46 705.722,-1040.04 699.053,-1028.33"/>
<polygon fill="black" stroke="black" points="701.893,-1026.25 693.903,-1019.29 695.81,-1029.71 701.893,-1026.25"/>
</g>
<!-- p15&#45;&gt;p16 -->
<g id="edge22" class="edge"><title>p15&#45;&gt;p16</title>
<path fill="none" stroke="black" d="M739.999,-1071.94C744.906,-1058.85 751.563,-1041.1 755.966,-1029.36"/>
<polygon fill="black" stroke="black" points="759.335,-1030.34 759.569,-1019.75 752.781,-1027.88 759.335,-1030.34"/>
</g>
<!-- p14 -->
<g id="node20" class="node"><title>p14</title>
<ellipse fill="black" stroke="black" cx="684.6" cy="-1168" rx="3.6" ry="3.6"/>
</g>
<!-- p14&#45;&gt;p15 -->
<g id="edge20" class="edge"><title>p14&#45;&gt;p15</title>
<path fill="none" stroke="black" d="M684.72,-1164.2C685.132,-1157.25 686.924,-1138.83 694.6,-1126 696.923,-1122.12 699.815,-1118.43 702.966,-1114.99"/>
<polygon fill="black" stroke="black" points="705.482,-1117.43 710.162,-1107.92 700.576,-1112.43 705.482,-1117.43"/>
<text text-anchor="middle" x="713.1" y="-1130.3" font-family="Times,serif" font-size="14.00">meta</text>
</g>
<!-- p18 -->
<g id="node23" class="node"><title>p18</title>
<ellipse fill="none" stroke="black" cx="670.6" cy="-970" rx="3.25" ry="3.5"/>
<text text-anchor="middle" x="651.6" y="-977.3" font-family="Times,serif" font-size="14.00">map</text>
</g>
<!-- p17&#45;&gt;p18 -->
<g id="edge24" class="edge"><title>p17&#45;&gt;p18</title>
<path fill="none" stroke="black" d="M691.417,-1012.63C688.638,-1007.08 681.54,-992.88 676.404,-982.608"/>
<polygon fill="black" stroke="black" points="679.501,-980.975 671.898,-973.596 673.24,-984.106 679.501,-980.975"/>
</g>
<!-- p31 -->
<g id="node29" class="node"><title>p31</title>
<ellipse fill="none" stroke="black" cx="450.6" cy="-642" rx="3.25" ry="3.5"/>
<text text-anchor="middle" x="433.6" y="-649.3" font-family="Times,serif" font-size="14.00">mix</text>
</g>
<!-- p25&#45;&gt;p31 -->
<g id="edge33" class="edge"><title>p25&#45;&gt;p31</title>
<path fill="none" stroke="black" d="M591.852,-699.893C575.854,-693.45 494.353,-660.623 462.955,-647.976"/>
<polygon fill="black" stroke="black" points="464.199,-644.704 453.616,-644.215 461.584,-651.197 464.199,-644.704"/>
<text text-anchor="middle" x="579.6" y="-668.3" font-family="Times,serif" font-size="14.00">version_ch</text>
</g>
<!-- p18&#45;&gt;p20 -->
<g id="edge25" class="edge"><title>p18&#45;&gt;p20</title>
<path fill="none" stroke="black" d="M669.612,-966.508C666.686,-959.129 657.925,-937.036 652.378,-923.05"/>
<polygon fill="black" stroke="black" points="655.499,-921.424 648.559,-913.418 648.992,-924.004 655.499,-921.424"/>
<text text-anchor="middle" x="699.1" y="-936.3" font-family="Times,serif" font-size="14.00">each_type</text>
</g>
<!-- p19 -->
<g id="node24" class="node"><title>p19</title>
<ellipse fill="black" stroke="black" cx="333.6" cy="-776" rx="3.6" ry="3.6"/>
<text text-anchor="middle" x="275.5" y="-783.4" font-family="Times,serif" font-size="14.00">Channel.empty</text>
</g>
<!-- p19&#45;&gt;p26 -->
<g id="edge26" class="edge"><title>p19&#45;&gt;p26</title>
<path fill="none" stroke="black" d="M333.6,-772.265C333.6,-763.133 333.6,-733.282 333.6,-715.892"/>
<polygon fill="black" stroke="black" points="337.1,-715.737 333.6,-705.737 330.1,-715.737 337.1,-715.737"/>
<text text-anchor="middle" x="373.6" y="-728.3" font-family="Times,serif" font-size="14.00">all_outputs</text>
</g>
<!-- p32 -->
<g id="node30" class="node"><title>p32</title>
<ellipse fill="none" stroke="black" cx="315.6" cy="-642" rx="3.25" ry="3.5"/>
<text text-anchor="middle" x="298.6" y="-649.3" font-family="Times,serif" font-size="14.00">mix</text>
</g>
<!-- p26&#45;&gt;p32 -->
<g id="edge34" class="edge"><title>p26&#45;&gt;p32</title>
<path fill="none" stroke="black" d="M332.827,-698.508C330.537,-691.129 323.68,-669.036 319.34,-655.05"/>
<polygon fill="black" stroke="black" points="322.657,-653.932 316.351,-645.418 315.972,-656.006 322.657,-653.932"/>
<text text-anchor="middle" x="367.6" y="-668.3" font-family="Times,serif" font-size="14.00">all_outputs</text>
</g>
<!-- p21&#45;&gt;p24 -->
<g id="edge28" class="edge"><title>p21&#45;&gt;p24</title>
<path fill="none" stroke="black" d="M647.082,-846.471C645.707,-840.191 641.518,-823.559 633.6,-812 630.984,-808.181 627.868,-804.498 624.554,-801.048"/>
<polygon fill="black" stroke="black" points="626.739,-798.295 617.098,-793.902 621.896,-803.349 626.739,-798.295"/>
</g>
<!-- p22 -->
<g id="node27" class="node"><title>p22</title>
<ellipse fill="black" stroke="black" cx="542.6" cy="-850" rx="3.6" ry="3.6"/>
</g>
<!-- p22&#45;&gt;p24 -->
<g id="edge29" class="edge"><title>p22&#45;&gt;p24</title>
<path fill="none" stroke="black" d="M543.317,-846.106C545.024,-839.592 549.782,-823.448 557.6,-812 560.137,-808.285 563.127,-804.664 566.289,-801.247"/>
<polygon fill="black" stroke="black" points="568.799,-803.687 573.38,-794.134 563.841,-798.746 568.799,-803.687"/>
<text text-anchor="middle" x="576.1" y="-816.3" font-family="Times,serif" font-size="14.00">meta</text>
</g>
<!-- p23 -->
<g id="node28" class="node"><title>p23</title>
<ellipse fill="black" stroke="black" cx="602.6" cy="-850" rx="3.6" ry="3.6"/>
</g>
<!-- p23&#45;&gt;p24 -->
<g id="edge30" class="edge"><title>p23&#45;&gt;p24</title>
<path fill="none" stroke="black" d="M602.296,-846.265C601.528,-839.354 599.442,-820.578 597.635,-804.316"/>
<polygon fill="black" stroke="black" points="601.088,-803.695 596.505,-794.143 594.131,-804.468 601.088,-803.695"/>
<text text-anchor="middle" x="615.6" y="-816.3" font-family="Times,serif" font-size="14.00">vcfs</text>
</g>
<!-- p36 -->
<g id="node34" class="node"><title>p36</title>
<ellipse fill="none" stroke="black" cx="401.6" cy="-434" rx="3.25" ry="3.5"/>
<text text-anchor="middle" x="384.6" y="-441.3" font-family="Times,serif" font-size="14.00">mix</text>
</g>
<!-- p31&#45;&gt;p36 -->
<g id="edge41" class="edge"><title>p31&#45;&gt;p36</title>
<path fill="none" stroke="black" d="M450.63,-638.433C450.729,-623.633 450.269,-547.832 431.6,-490 426.342,-473.714 416.215,-456.67 409.19,-445.953"/>
<polygon fill="black" stroke="black" points="411.858,-443.653 403.326,-437.371 406.078,-447.602 411.858,-443.653"/>
<text text-anchor="middle" x="485.6" y="-548.3" font-family="Times,serif" font-size="14.00">version_ch</text>
</g>
<!-- p33 -->
<g id="node35" class="node"><title>p33</title>
<ellipse fill="none" stroke="black" cx="315.6" cy="-582" rx="3.25" ry="3.5"/>
<text text-anchor="middle" x="287.6" y="-589.3" font-family="Times,serif" font-size="14.00">collect</text>
</g>
<!-- p32&#45;&gt;p33 -->
<g id="edge42" class="edge"><title>p32&#45;&gt;p33</title>
<path fill="none" stroke="black" d="M315.6,-638.203C315.6,-630.649 315.6,-609.48 315.6,-595.66"/>
<polygon fill="black" stroke="black" points="319.1,-595.636 315.6,-585.636 312.1,-595.636 319.1,-595.636"/>
<text text-anchor="middle" x="355.6" y="-608.3" font-family="Times,serif" font-size="14.00">all_outputs</text>
</g>
<!-- p30&#45;&gt;p32 -->
<g id="edge39" class="edge"><title>p30&#45;&gt;p32</title>
<path fill="none" stroke="black" d="M315.39,-1071.78C308.621,-1057.52 300.6,-1036.5 300.6,-1017 300.6,-1017 300.6,-1017 300.6,-701 300.6,-684.635 306.266,-666.476 310.634,-654.911"/>
<polygon fill="black" stroke="black" points="313.897,-656.179 314.423,-645.597 307.413,-653.541 313.897,-656.179"/>
</g>
<!-- p30&#45;&gt;p31 -->
<g id="edge40" class="edge"><title>p30&#45;&gt;p31</title>
<path fill="none" stroke="black" d="M379.037,-1073.03C404.2,-1061.97 428.6,-1044.23 428.6,-1017 428.6,-1017 428.6,-1017 428.6,-701 428.6,-683.877 437.087,-665.65 443.518,-654.296"/>
<polygon fill="black" stroke="black" points="446.648,-655.886 448.874,-645.528 440.674,-652.237 446.648,-655.886"/>
</g>
<!-- p28 -->
<g id="node32" class="node"><title>p28</title>
<ellipse fill="black" stroke="black" cx="425.6" cy="-1168" rx="3.6" ry="3.6"/>
</g>
<!-- p28&#45;&gt;p30 -->
<g id="edge36" class="edge"><title>p28&#45;&gt;p30</title>
<path fill="none" stroke="black" d="M424.589,-1164.44C421.702,-1157.41 412.767,-1137.58 399.6,-1126 393.605,-1120.73 386.681,-1116.1 379.513,-1112.08"/>
<polygon fill="black" stroke="black" points="380.841,-1108.82 370.355,-1107.31 377.608,-1115.03 380.841,-1108.82"/>
<text text-anchor="middle" x="431.1" y="-1130.3" font-family="Times,serif" font-size="14.00">meta</text>
</g>
<!-- p29 -->
<g id="node33" class="node"><title>p29</title>
<ellipse fill="black" stroke="black" cx="386.6" cy="-1168" rx="3.6" ry="3.6"/>
</g>
<!-- p29&#45;&gt;p30 -->
<g id="edge38" class="edge"><title>p29&#45;&gt;p30</title>
<path fill="none" stroke="black" d="M384.811,-1164.81C379.026,-1157.72 360.325,-1134.79 345.283,-1116.35"/>
<polygon fill="black" stroke="black" points="347.721,-1113.81 338.688,-1108.27 342.297,-1118.23 347.721,-1113.81"/>
<text text-anchor="middle" x="380.6" y="-1130.3" font-family="Times,serif" font-size="14.00">vcfs</text>
</g>
<!-- p37 -->
<g id="node39" class="node"><title>p37</title>
<ellipse fill="none" stroke="black" cx="401.6" cy="-374" rx="3.25" ry="3.5"/>
<text text-anchor="middle" x="373.6" y="-381.3" font-family="Times,serif" font-size="14.00">collect</text>
</g>
<!-- p36&#45;&gt;p37 -->
<g id="edge47" class="edge"><title>p36&#45;&gt;p37</title>
<path fill="none" stroke="black" d="M401.6,-430.203C401.6,-422.649 401.6,-401.48 401.6,-387.66"/>
<polygon fill="black" stroke="black" points="405.1,-387.636 401.6,-377.636 398.1,-387.636 405.1,-387.636"/>
<text text-anchor="middle" x="440.6" y="-400.3" font-family="Times,serif" font-size="14.00">version_ch</text>
</g>
<!-- p35 -->
<g id="node36" class="node"><title>p35</title>
<ellipse fill="none" stroke="black" cx="278.6" cy="-508" rx="143.931" ry="18"/>
<text text-anchor="middle" x="278.6" y="-504.3" font-family="Times,serif" font-size="14.00">TRACK_HUB:MAKE_TRACK</text>
</g>
<!-- p33&#45;&gt;p35 -->
<g id="edge43" class="edge"><title>p33&#45;&gt;p35</title>
<path fill="none" stroke="black" d="M314.779,-578.22C312.875,-571.937 307.84,-556.237 301.6,-544 299.999,-540.86 298.18,-537.655 296.283,-534.521"/>
<polygon fill="black" stroke="black" points="299.172,-532.543 290.844,-525.994 293.27,-536.307 299.172,-532.543"/>
</g>
<!-- p45 -->
<g id="node38" class="node"><title>p45</title>
<ellipse fill="none" stroke="black" cx="160.6" cy="-434" rx="3.25" ry="3.5"/>
<text text-anchor="middle" x="143.6" y="-441.3" font-family="Times,serif" font-size="14.00">mix</text>
</g>
<!-- p35&#45;&gt;p45 -->
<g id="edge45" class="edge"><title>p35&#45;&gt;p45</title>
<path fill="none" stroke="black" d="M251.232,-490.301C225.973,-474.889 189.733,-452.776 171.688,-441.765"/>
<polygon fill="black" stroke="black" points="173.424,-438.725 163.065,-436.504 169.778,-444.7 173.424,-438.725"/>
<text text-anchor="middle" x="230.6" y="-460.3" font-family="Times,serif" font-size="14.00">tar</text>
</g>
<!-- p35&#45;&gt;p36 -->
<g id="edge46" class="edge"><title>p35&#45;&gt;p36</title>
<path fill="none" stroke="black" d="M307.128,-490.301C333.581,-474.816 371.589,-452.567 390.307,-441.61"/>
<polygon fill="black" stroke="black" points="392.169,-444.576 399.031,-436.504 388.633,-438.535 392.169,-444.576"/>
</g>
<!-- p34 -->
<g id="node37" class="node"><title>p34</title>
<ellipse fill="black" stroke="black" cx="263.6" cy="-582" rx="3.6" ry="3.6"/>
</g>
<!-- p34&#45;&gt;p35 -->
<g id="edge44" class="edge"><title>p34&#45;&gt;p35</title>
<path fill="none" stroke="black" d="M263.349,-578.27C262.852,-572.089 261.999,-556.586 264.6,-544 265.164,-541.27 265.928,-538.48 266.81,-535.725"/>
<polygon fill="black" stroke="black" points="270.194,-536.664 270.372,-526.071 263.626,-534.241 270.194,-536.664"/>
<text text-anchor="middle" x="283.1" y="-548.3" font-family="Times,serif" font-size="14.00">meta</text>
</g>
<!-- p46 -->
<g id="node48" class="node"><title>p46</title>
<ellipse fill="none" stroke="black" cx="285.6" cy="-212" rx="3.25" ry="3.5"/>
<text text-anchor="middle" x="268.6" y="-219.3" font-family="Times,serif" font-size="14.00">mix</text>
</g>
<!-- p45&#45;&gt;p46 -->
<g id="edge56" class="edge"><title>p45&#45;&gt;p46</title>
<path fill="none" stroke="black" d="M160.15,-430.238C157.712,-414.348 147.347,-333.505 179.6,-282 201.925,-246.348 250.196,-225.415 273.079,-217.137"/>
<polygon fill="black" stroke="black" points="274.313,-220.414 282.659,-213.888 272.065,-213.785 274.313,-220.414"/>
</g>
<!-- p41 -->
<g id="node40" class="node"><title>p41</title>
<ellipse fill="none" stroke="black" cx="352.6" cy="-300" rx="164.153" ry="18"/>
<text text-anchor="middle" x="352.6" y="-296.3" font-family="Times,serif" font-size="14.00">TRACK_HUB:MERGE_VERSION</text>
</g>
<!-- p37&#45;&gt;p41 -->
<g id="edge48" class="edge"><title>p37&#45;&gt;p41</title>
<path fill="none" stroke="black" d="M401.043,-370.497C399.579,-364.276 395.203,-347.769 387.6,-336 385.239,-332.346 382.444,-328.768 379.477,-325.38"/>
<polygon fill="black" stroke="black" points="381.786,-322.727 372.37,-317.869 376.702,-327.539 381.786,-322.727"/>
</g>
<!-- p43 -->
<g id="node44" class="node"><title>p43</title>
<ellipse fill="none" stroke="black" cx="418.6" cy="-212" rx="111.186" ry="18"/>
<text text-anchor="middle" x="418.6" y="-208.3" font-family="Times,serif" font-size="14.00">VERSION_TO_HTML</text>
</g>
<!-- p41&#45;&gt;p43 -->
<g id="edge52" class="edge"><title>p41&#45;&gt;p43</title>
<path fill="none" stroke="black" d="M365.639,-282.009C375.221,-269.524 388.4,-252.352 399.214,-238.261"/>
<polygon fill="black" stroke="black" points="402.276,-240.02 405.588,-229.956 396.723,-235.758 402.276,-240.02"/>
</g>
<!-- p41&#45;&gt;p46 -->
<g id="edge57" class="edge"><title>p41&#45;&gt;p46</title>
<path fill="none" stroke="black" d="M338.53,-281.921C327.246,-268.089 311.117,-248.011 297.6,-230 296.169,-228.093 294.678,-226.039 293.253,-224.041"/>
<polygon fill="black" stroke="black" points="295.856,-221.654 287.265,-215.453 290.114,-225.658 295.856,-221.654"/>
</g>
<!-- p38 -->
<g id="node41" class="node"><title>p38</title>
<ellipse fill="black" stroke="black" cx="434.6" cy="-374" rx="3.6" ry="3.6"/>
</g>
<!-- p38&#45;&gt;p41 -->
<g id="edge49" class="edge"><title>p38&#45;&gt;p41</title>
<path fill="none" stroke="black" d="M433.012,-370.437C428.988,-364.08 417.841,-347.286 405.6,-336 400.865,-331.634 395.532,-327.439 390.12,-323.564"/>
<polygon fill="black" stroke="black" points="391.856,-320.511 381.625,-317.758 387.907,-326.29 391.856,-320.511"/>
<text text-anchor="middle" x="438.1" y="-340.3" font-family="Times,serif" font-size="14.00">meta</text>
</g>
<!-- p39 -->
<g id="node42" class="node"><title>p39</title>
<ellipse fill="black" stroke="black" cx="241.6" cy="-374" rx="3.6" ry="3.6"/>
</g>
<!-- p39&#45;&gt;p41 -->
<g id="edge50" class="edge"><title>p39&#45;&gt;p41</title>
<path fill="none" stroke="black" d="M242.111,-370.255C243.511,-363.481 248.031,-345.812 258.6,-336 264.998,-330.06 272.495,-325.105 280.415,-320.976"/>
<polygon fill="black" stroke="black" points="281.972,-324.111 289.501,-316.656 278.967,-317.789 281.972,-324.111"/>
<text text-anchor="middle" x="278.6" y="-340.3" font-family="Times,serif" font-size="14.00">name</text>
</g>
<!-- p40 -->
<g id="node43" class="node"><title>p40</title>
<ellipse fill="black" stroke="black" cx="304.6" cy="-374" rx="3.6" ry="3.6"/>
</g>
<!-- p40&#45;&gt;p41 -->
<g id="edge51" class="edge"><title>p40&#45;&gt;p41</title>
<path fill="none" stroke="black" d="M303.873,-370.101C302.399,-363.573 299.678,-347.406 305.6,-336 307.714,-331.928 310.541,-328.205 313.765,-324.834"/>
<polygon fill="black" stroke="black" points="316.246,-327.31 321.334,-318.018 311.561,-322.109 316.246,-327.31"/>
<text text-anchor="middle" x="346.6" y="-340.3" font-family="Times,serif" font-size="14.00">description</text>
</g>
<!-- p47 -->
<g id="node46" class="node"><title>p47</title>
<ellipse fill="none" stroke="black" cx="365.6" cy="-152" rx="3.25" ry="3.5"/>
<text text-anchor="middle" x="348.6" y="-159.3" font-family="Times,serif" font-size="14.00">mix</text>
</g>
<!-- p43&#45;&gt;p47 -->
<g id="edge54" class="edge"><title>p43&#45;&gt;p47</title>
<path fill="none" stroke="black" d="M402.985,-193.912C393.578,-183.618 381.957,-170.9 374.192,-162.402"/>
<polygon fill="black" stroke="black" points="376.716,-159.976 367.386,-154.955 371.548,-164.698 376.716,-159.976"/>
</g>
<!-- p42 -->
<g id="node45" class="node"><title>p42</title>
<ellipse fill="black" stroke="black" cx="538.6" cy="-300" rx="3.6" ry="3.6"/>
</g>
<!-- p42&#45;&gt;p43 -->
<g id="edge53" class="edge"><title>p42&#45;&gt;p43</title>
<path fill="none" stroke="black" d="M536.993,-296.356C534.748,-292.807 530.405,-286.435 525.6,-282 505.56,-263.504 479.984,-246.81 458.863,-234.477"/>
<polygon fill="black" stroke="black" points="460.53,-231.398 450.113,-229.465 457.051,-237.472 460.53,-231.398"/>
<text text-anchor="middle" x="520.1" y="-252.3" font-family="Times,serif" font-size="14.00">meta</text>
</g>
<!-- p48 -->
<g id="node49" class="node"><title>p48</title>
<ellipse fill="none" stroke="black" cx="365.6" cy="-92" rx="3.25" ry="3.5"/>
<text text-anchor="middle" x="337.6" y="-99.3" font-family="Times,serif" font-size="14.00">collect</text>
</g>
<!-- p47&#45;&gt;p48 -->
<g id="edge59" class="edge"><title>p47&#45;&gt;p48</title>
<path fill="none" stroke="black" d="M365.6,-148.203C365.6,-140.649 365.6,-119.48 365.6,-105.66"/>
<polygon fill="black" stroke="black" points="369.1,-105.636 365.6,-95.6357 362.1,-105.636 369.1,-105.636"/>
<text text-anchor="middle" x="391.6" y="-118.3" font-family="Times,serif" font-size="14.00">pub_ch</text>
</g>
<!-- p44 -->
<g id="node47" class="node"><title>p44</title>
<ellipse fill="black" stroke="black" cx="112.6" cy="-508" rx="3.6" ry="3.6"/>
<text text-anchor="middle" x="54.5" y="-515.4" font-family="Times,serif" font-size="14.00">Channel.empty</text>
</g>
<!-- p44&#45;&gt;p45 -->
<g id="edge55" class="edge"><title>p44&#45;&gt;p45</title>
<path fill="none" stroke="black" d="M114.197,-504.604C120.232,-495.552 141.885,-463.072 153.354,-445.869"/>
<polygon fill="black" stroke="black" points="156.313,-447.74 158.948,-437.478 150.489,-443.857 156.313,-447.74"/>
</g>
<!-- p46&#45;&gt;p47 -->
<g id="edge58" class="edge"><title>p46&#45;&gt;p47</title>
<path fill="none" stroke="black" d="M287.019,-208.326C289.019,-204.742 292.945,-198.331 297.6,-194 314.631,-178.154 338.757,-165.384 353.223,-158.519"/>
<polygon fill="black" stroke="black" points="355.074,-161.523 362.735,-154.205 352.182,-155.148 355.074,-161.523"/>
</g>
<!-- p50 -->
<g id="node50" class="node"><title>p50</title>
<ellipse fill="none" stroke="black" cx="381.6" cy="-18" rx="116.484" ry="18"/>
<text text-anchor="middle" x="381.6" y="-14.3" font-family="Times,serif" font-size="14.00">SIMPLE_PUBLISH_01</text>
</g>
<!-- p48&#45;&gt;p50 -->
<g id="edge60" class="edge"><title>p48&#45;&gt;p50</title>
<path fill="none" stroke="black" d="M366.208,-88.2654C367.744,-81.3541 371.916,-62.5781 375.53,-46.3163"/>
<polygon fill="black" stroke="black" points="379.038,-46.6641 377.79,-36.1429 372.204,-45.1455 379.038,-46.6641"/>
</g>
<!-- p49 -->
<g id="node51" class="node"><title>p49</title>
<ellipse fill="black" stroke="black" cx="398.6" cy="-92" rx="3.6" ry="3.6"/>
</g>
<!-- p49&#45;&gt;p50 -->
<g id="edge61" class="edge"><title>p49&#45;&gt;p50</title>
<path fill="none" stroke="black" d="M397.954,-88.2654C396.322,-81.3541 391.889,-62.5781 388.05,-46.3163"/>
<polygon fill="black" stroke="black" points="391.352,-45.071 385.648,-36.1429 384.539,-46.6796 391.352,-45.071"/>
<text text-anchor="middle" x="412.1" y="-58.3" font-family="Times,serif" font-size="14.00">meta</text>
</g>
</g>
</svg>
