<?xml version="1.0" encoding="UTF-8" standalone="no"?>
<!DOCTYPE svg PUBLIC "-//W3C//DTD SVG 1.1//EN"
 "http://www.w3.org/Graphics/SVG/1.1/DTD/svg11.dtd">
<!-- Generated by graphviz version 2.30.1 (20201013.1554)
 -->
<!-- Title: 20220626gazoductestpihatworkflow Pages: 1 -->
<svg width="607pt" height="803pt"
 viewBox="0.00 0.00 607.00 802.60" xmlns="http://www.w3.org/2000/svg" xmlns:xlink="http://www.w3.org/1999/xlink">
<g id="graph0" class="graph" transform="scale(1 1) rotate(0) translate(4 798.6)">
<title>20220626gazoductestpihatworkflow</title>
<polygon fill="white" stroke="white" points="-4,5 -4,-798.6 604,-798.6 604,5 -4,5"/>
<!-- p0 -->
<g id="node1" class="node"><title>p0</title>
<ellipse fill="black" stroke="black" cx="267" cy="-582" rx="3.6" ry="3.6"/>
<text text-anchor="middle" x="213.4" y="-589.4" font-family="Times,serif" font-size="14.00">Channel.fromPath</text>
</g>
<!-- p10 -->
<g id="node2" class="node"><title>p10</title>
<ellipse fill="none" stroke="black" cx="234" cy="-522" rx="3.25" ry="3.5"/>
<text text-anchor="middle" x="206.5" y="-529.3" font-family="Times,serif" font-size="14.00">combine</text>
</g>
<!-- p0&#45;&gt;p10 -->
<g id="edge1" class="edge"><title>p0&#45;&gt;p10</title>
<path fill="none" stroke="black" d="M265.582,-578.508C261.299,-570.98 248.302,-548.138 240.379,-534.212"/>
<polygon fill="black" stroke="black" points="243.363,-532.379 235.376,-525.418 237.279,-535.841 243.363,-532.379"/>
<text text-anchor="middle" x="277.5" y="-548.3" font-family="Times,serif" font-size="14.00">samples</text>
</g>
<!-- p13 -->
<g id="node13" class="node"><title>p13</title>
<ellipse fill="none" stroke="black" cx="266" cy="-448" rx="130.933" ry="18"/>
<text text-anchor="middle" x="266" y="-444.3" font-family="Times,serif" font-size="14.00">PIHAT01:PLINK_PER_CONTIG</text>
</g>
<!-- p10&#45;&gt;p13 -->
<g id="edge11" class="edge"><title>p10&#45;&gt;p13</title>
<path fill="none" stroke="black" d="M231.796,-519.07C228.093,-515.663 220.756,-508.164 218,-500 215.726,-493.262 214.777,-490.339 218,-484 220.108,-479.854 222.962,-476.083 226.235,-472.683"/>
<polygon fill="black" stroke="black" points="228.793,-475.092 233.941,-465.832 224.142,-469.861 228.793,-475.092"/>
<text text-anchor="middle" x="244.5" y="-488.3" font-family="Times,serif" font-size="14.00">ctgvcf_ch</text>
</g>
<!-- p1 -->
<g id="node3" class="node"><title>p1</title>
<ellipse fill="black" stroke="black" cx="424" cy="-702" rx="3.6" ry="3.6"/>
<text text-anchor="middle" x="462.4" y="-709.4" font-family="Times,serif" font-size="14.00">Channel.empty</text>
</g>
<!-- p7 -->
<g id="node4" class="node"><title>p7</title>
<ellipse fill="none" stroke="black" cx="424" cy="-628" rx="3.25" ry="3.5"/>
<text text-anchor="middle" x="409.5" y="-635.3" font-family="Times,serif" font-size="14.00">mix</text>
</g>
<!-- p1&#45;&gt;p7 -->
<g id="edge2" class="edge"><title>p1&#45;&gt;p7</title>
<path fill="none" stroke="black" d="M424,-698.265C424,-689.133 424,-659.282 424,-641.892"/>
<polygon fill="black" stroke="black" points="427.5,-641.737 424,-631.737 420.5,-641.737 427.5,-641.737"/>
<text text-anchor="middle" x="453.5" y="-654.3" font-family="Times,serif" font-size="14.00">version_ch</text>
</g>
<!-- p15 -->
<g id="node11" class="node"><title>p15</title>
<ellipse fill="none" stroke="black" cx="425" cy="-342" rx="3.25" ry="3.5"/>
<text text-anchor="middle" x="410.5" y="-349.3" font-family="Times,serif" font-size="14.00">mix</text>
</g>
<!-- p7&#45;&gt;p15 -->
<g id="edge8" class="edge"><title>p7&#45;&gt;p15</title>
<path fill="none" stroke="black" d="M424.107,-624.221C424.365,-617.273 425,-598.587 425,-583 425,-583 425,-583 425,-387 425,-376.53 425,-364.658 425,-355.888"/>
<polygon fill="black" stroke="black" points="428.5,-355.78 425,-345.78 421.5,-355.78 428.5,-355.78"/>
<text text-anchor="middle" x="454.5" y="-488.3" font-family="Times,serif" font-size="14.00">version_ch</text>
</g>
<!-- p2 -->
<g id="node5" class="node"><title>p2</title>
<ellipse fill="black" stroke="black" cx="447" cy="-776" rx="3.6" ry="3.6"/>
<text text-anchor="middle" x="401.4" y="-783.4" font-family="Times,serif" font-size="14.00">Channel.empty</text>
</g>
<!-- p3 -->
<g id="node6" class="node"><title>p3</title>
<ellipse fill="black" stroke="black" cx="447" cy="-702" rx="1.8" ry="1.8"/>
</g>
<!-- p2&#45;&gt;p3 -->
<g id="edge3" class="edge"><title>p2&#45;&gt;p3</title>
<path fill="none" stroke="black" d="M447,-772.265C447,-762.793 447,-731.037 447,-714.008"/>
<polygon fill="black" stroke="black" points="450.5,-713.98 447,-703.98 443.5,-713.98 450.5,-713.98"/>
<text text-anchor="middle" x="464" y="-742.3" font-family="Times,serif" font-size="14.00">to_zip</text>
</g>
<!-- p4 -->
<g id="node7" class="node"><title>p4</title>
<ellipse fill="black" stroke="black" cx="228" cy="-776" rx="3.6" ry="3.6"/>
</g>
<!-- p6 -->
<g id="node8" class="node"><title>p6</title>
<ellipse fill="none" stroke="black" cx="253" cy="-702" rx="102.061" ry="18"/>
<text text-anchor="middle" x="253" y="-698.3" font-family="Times,serif" font-size="14.00">PIHAT01:VCF_TO_BED</text>
</g>
<!-- p4&#45;&gt;p6 -->
<g id="edge4" class="edge"><title>p4&#45;&gt;p6</title>
<path fill="none" stroke="black" d="M227.553,-772.218C226.653,-765.931 225.03,-750.223 229,-738 230.024,-734.847 231.43,-731.72 233.051,-728.709"/>
<polygon fill="black" stroke="black" points="236.091,-730.449 238.397,-720.109 230.145,-726.754 236.091,-730.449"/>
<text text-anchor="middle" x="243" y="-742.3" font-family="Times,serif" font-size="14.00">meta</text>
</g>
<!-- p8 -->
<g id="node10" class="node"><title>p8</title>
<ellipse fill="none" stroke="black" cx="241" cy="-628" rx="3.25" ry="3.5"/>
<text text-anchor="middle" x="215" y="-635.3" font-family="Times,serif" font-size="14.00">splitCsv</text>
</g>
<!-- p6&#45;&gt;p8 -->
<g id="edge6" class="edge"><title>p6&#45;&gt;p8</title>
<path fill="none" stroke="black" d="M250.156,-683.937C247.998,-670.989 245.078,-653.471 243.122,-641.731"/>
<polygon fill="black" stroke="black" points="246.554,-641.037 241.458,-631.748 239.65,-642.188 246.554,-641.037"/>
</g>
<!-- p6&#45;&gt;p7 -->
<g id="edge7" class="edge"><title>p6&#45;&gt;p7</title>
<path fill="none" stroke="black" d="M290.527,-685.199C329.053,-668.978 386.795,-644.665 411.768,-634.15"/>
<polygon fill="black" stroke="black" points="413.31,-637.299 421.168,-630.192 410.593,-630.847 413.31,-637.299"/>
</g>
<!-- p5 -->
<g id="node9" class="node"><title>p5</title>
<ellipse fill="black" stroke="black" cx="279" cy="-776" rx="3.6" ry="3.6"/>
</g>
<!-- p5&#45;&gt;p6 -->
<g id="edge5" class="edge"><title>p5&#45;&gt;p6</title>
<path fill="none" stroke="black" d="M278.013,-772.265C275.493,-765.288 268.607,-746.219 262.697,-729.852"/>
<polygon fill="black" stroke="black" points="265.879,-728.36 259.19,-720.143 259.295,-730.737 265.879,-728.36"/>
<text text-anchor="middle" x="280.5" y="-742.3" font-family="Times,serif" font-size="14.00">vcf</text>
</g>
<!-- p9 -->
<g id="node12" class="node"><title>p9</title>
<ellipse fill="none" stroke="black" cx="238" cy="-582" rx="3.25" ry="3.5"/>
<text text-anchor="middle" x="222" y="-567.3" font-family="Times,serif" font-size="14.00">map</text>
</g>
<!-- p8&#45;&gt;p9 -->
<g id="edge9" class="edge"><title>p8&#45;&gt;p9</title>
<path fill="none" stroke="black" d="M240.821,-624.379C240.445,-618.864 239.551,-605.742 238.869,-595.742"/>
<polygon fill="black" stroke="black" points="242.346,-595.291 238.174,-585.552 235.362,-595.767 242.346,-595.291"/>
</g>
<!-- p24 -->
<g id="node18" class="node"><title>p24</title>
<ellipse fill="none" stroke="black" cx="414" cy="-194" rx="3.25" ry="3.5"/>
<text text-anchor="middle" x="399.5" y="-201.3" font-family="Times,serif" font-size="14.00">mix</text>
</g>
<!-- p15&#45;&gt;p24 -->
<g id="edge17" class="edge"><title>p15&#45;&gt;p24</title>
<path fill="none" stroke="black" d="M424.809,-338.466C423.636,-322.891 417.371,-239.746 414.953,-207.652"/>
<polygon fill="black" stroke="black" points="418.438,-207.313 414.196,-197.604 411.457,-207.839 418.438,-207.313"/>
<text text-anchor="middle" x="450.5" y="-264.3" font-family="Times,serif" font-size="14.00">version_ch</text>
</g>
<!-- p9&#45;&gt;p10 -->
<g id="edge10" class="edge"><title>p9&#45;&gt;p10</title>
<path fill="none" stroke="black" d="M237.807,-578.203C237.286,-570.649 235.826,-549.48 234.873,-535.66"/>
<polygon fill="black" stroke="black" points="238.362,-535.371 234.182,-525.636 231.378,-535.853 238.362,-535.371"/>
</g>
<!-- p16 -->
<g id="node16" class="node"><title>p16</title>
<ellipse fill="none" stroke="black" cx="254" cy="-388" rx="3.25" ry="3.5"/>
<text text-anchor="middle" x="238" y="-395.3" font-family="Times,serif" font-size="14.00">map</text>
</g>
<!-- p13&#45;&gt;p16 -->
<g id="edge14" class="edge"><title>p13&#45;&gt;p16</title>
<path fill="none" stroke="black" d="M262.465,-429.912C260.591,-420.858 258.33,-409.93 256.617,-401.647"/>
<polygon fill="black" stroke="black" points="260.01,-400.774 254.557,-391.691 253.155,-402.193 260.01,-400.774"/>
</g>
<!-- p14 -->
<g id="node17" class="node"><title>p14</title>
<ellipse fill="none" stroke="black" cx="336" cy="-388" rx="3.25" ry="3.5"/>
<text text-anchor="middle" x="314" y="-395.3" font-family="Times,serif" font-size="14.00">collect</text>
</g>
<!-- p13&#45;&gt;p14 -->
<g id="edge15" class="edge"><title>p13&#45;&gt;p14</title>
<path fill="none" stroke="black" d="M286.624,-429.912C299.448,-419.286 315.39,-406.077 325.629,-397.593"/>
<polygon fill="black" stroke="black" points="328.174,-400.03 333.641,-390.955 323.708,-394.64 328.174,-400.03"/>
</g>
<!-- p11 -->
<g id="node14" class="node"><title>p11</title>
<ellipse fill="black" stroke="black" cx="284" cy="-522" rx="3.6" ry="3.6"/>
</g>
<!-- p11&#45;&gt;p13 -->
<g id="edge12" class="edge"><title>p11&#45;&gt;p13</title>
<path fill="none" stroke="black" d="M283.316,-518.265C281.572,-511.288 276.805,-492.219 272.713,-475.852"/>
<polygon fill="black" stroke="black" points="276.107,-474.995 270.286,-466.143 269.316,-476.693 276.107,-474.995"/>
<text text-anchor="middle" x="293" y="-488.3" font-family="Times,serif" font-size="14.00">meta</text>
</g>
<!-- p12 -->
<g id="node15" class="node"><title>p12</title>
<ellipse fill="black" stroke="black" cx="335" cy="-522" rx="3.6" ry="3.6"/>
</g>
<!-- p12&#45;&gt;p13 -->
<g id="edge13" class="edge"><title>p12&#45;&gt;p13</title>
<path fill="none" stroke="black" d="M333.739,-518.465C330.531,-512.17 321.562,-495.507 311,-484 307.235,-479.898 302.953,-475.91 298.561,-472.182"/>
<polygon fill="black" stroke="black" points="300.609,-469.337 290.627,-465.786 296.216,-474.787 300.609,-469.337"/>
<text text-anchor="middle" x="348" y="-488.3" font-family="Times,serif" font-size="14.00">reference</text>
</g>
<!-- p17 -->
<g id="node19" class="node"><title>p17</title>
<ellipse fill="none" stroke="black" cx="237" cy="-342" rx="3.25" ry="3.5"/>
<text text-anchor="middle" x="215" y="-349.3" font-family="Times,serif" font-size="14.00">collect</text>
</g>
<!-- p16&#45;&gt;p17 -->
<g id="edge18" class="edge"><title>p16&#45;&gt;p17</title>
<path fill="none" stroke="black" d="M253.086,-384.634C250.961,-379.135 245.57,-365.181 241.612,-354.937"/>
<polygon fill="black" stroke="black" points="244.872,-353.663 238.003,-345.596 238.342,-356.186 244.872,-353.663"/>
</g>
<!-- p14&#45;&gt;p15 -->
<g id="edge16" class="edge"><title>p14&#45;&gt;p15</title>
<path fill="none" stroke="black" d="M338.568,-385.731C349.437,-380.357 392.07,-359.28 413.116,-348.875"/>
<polygon fill="black" stroke="black" points="414.835,-351.93 422.248,-344.361 411.733,-345.655 414.835,-351.93"/>
</g>
<!-- p25 -->
<g id="node26" class="node"><title>p25</title>
<ellipse fill="none" stroke="black" cx="414" cy="-134" rx="3.25" ry="3.5"/>
<text text-anchor="middle" x="392" y="-141.3" font-family="Times,serif" font-size="14.00">collect</text>
</g>
<!-- p24&#45;&gt;p25 -->
<g id="edge26" class="edge"><title>p24&#45;&gt;p25</title>
<path fill="none" stroke="black" d="M414,-190.203C414,-182.649 414,-161.48 414,-147.66"/>
<polygon fill="black" stroke="black" points="417.5,-147.636 414,-137.636 410.5,-147.636 417.5,-147.636"/>
<text text-anchor="middle" x="443.5" y="-160.3" font-family="Times,serif" font-size="14.00">version_ch</text>
</g>
<!-- p19 -->
<g id="node20" class="node"><title>p19</title>
<ellipse fill="none" stroke="black" cx="184" cy="-268" rx="128.533" ry="18"/>
<text text-anchor="middle" x="184" y="-264.3" font-family="Times,serif" font-size="14.00">PIHAT01:MERGE_PIHAT_VCF</text>
</g>
<!-- p17&#45;&gt;p19 -->
<g id="edge19" class="edge"><title>p17&#45;&gt;p19</title>
<path fill="none" stroke="black" d="M235.849,-338.549C232.934,-332.447 224.858,-316.189 216,-304 213.495,-300.553 210.695,-297.07 207.822,-293.705"/>
<polygon fill="black" stroke="black" points="210.354,-291.285 201.089,-286.144 205.126,-295.94 210.354,-291.285"/>
</g>
<!-- p23 -->
<g id="node22" class="node"><title>p23</title>
<ellipse fill="black" stroke="black" cx="102" cy="-194" rx="1.8" ry="1.8"/>
</g>
<!-- p19&#45;&gt;p23 -->
<g id="edge21" class="edge"><title>p19&#45;&gt;p23</title>
<path fill="none" stroke="black" d="M147.173,-250.681C138.232,-245.574 129.187,-239.321 122,-232 114.57,-224.432 109.132,-213.541 105.819,-205.534"/>
<polygon fill="black" stroke="black" points="109.063,-204.216 102.322,-196.043 102.495,-206.636 109.063,-204.216"/>
<text text-anchor="middle" x="149.5" y="-220.3" font-family="Times,serif" font-size="14.00">pihat_png</text>
</g>
<!-- p22 -->
<g id="node23" class="node"><title>p22</title>
<ellipse fill="black" stroke="black" cx="180" cy="-194" rx="1.8" ry="1.8"/>
</g>
<!-- p19&#45;&gt;p22 -->
<g id="edge22" class="edge"><title>p19&#45;&gt;p22</title>
<path fill="none" stroke="black" d="M182.335,-249.924C181.833,-244.229 181.329,-237.845 181,-232 180.507,-223.242 180.255,-213.305 180.128,-205.935"/>
<polygon fill="black" stroke="black" points="183.627,-205.873 180.005,-195.916 176.628,-205.958 183.627,-205.873"/>
<text text-anchor="middle" x="207" y="-220.3" font-family="Times,serif" font-size="14.00">pihat_pdf</text>
</g>
<!-- p21 -->
<g id="node24" class="node"><title>p21</title>
<ellipse fill="black" stroke="black" cx="255" cy="-194" rx="1.8" ry="1.8"/>
</g>
<!-- p19&#45;&gt;p21 -->
<g id="edge23" class="edge"><title>p19&#45;&gt;p21</title>
<path fill="none" stroke="black" d="M211.565,-250.313C219.037,-245.024 226.773,-238.772 233,-232 240.347,-224.009 246.44,-213.175 250.336,-205.296"/>
<polygon fill="black" stroke="black" points="253.606,-206.562 254.586,-196.012 247.241,-203.648 253.606,-206.562"/>
<text text-anchor="middle" x="311" y="-220.3" font-family="Times,serif" font-size="14.00">pihat_removed_samples</text>
</g>
<!-- p20 -->
<g id="node25" class="node"><title>p20</title>
<ellipse fill="black" stroke="black" cx="1" cy="-194" rx="1.8" ry="1.8"/>
</g>
<!-- p19&#45;&gt;p20 -->
<g id="edge24" class="edge"><title>p19&#45;&gt;p20</title>
<path fill="none" stroke="black" d="M87.197,-256.062C66.8956,-250.855 46.3909,-243.209 29,-232 18.8096,-225.432 10.9237,-213.799 6.1546,-205.326"/>
<polygon fill="black" stroke="black" points="9.13656,-203.467 1.49217,-196.132 2.8934,-206.633 9.13656,-203.467"/>
<text text-anchor="middle" x="68" y="-220.3" font-family="Times,serif" font-size="14.00">plink_genome</text>
</g>
<!-- p19&#45;&gt;p24 -->
<g id="edge25" class="edge"><title>p19&#45;&gt;p24</title>
<path fill="none" stroke="black" d="M298.327,-259.811C326.623,-254.57 355.977,-245.969 381,-232 391.991,-225.864 401.195,-214.663 407.065,-206.187"/>
<polygon fill="black" stroke="black" points="410.182,-207.809 412.603,-197.494 404.278,-204.048 410.182,-207.809"/>
</g>
<!-- p18 -->
<g id="node21" class="node"><title>p18</title>
<ellipse fill="black" stroke="black" cx="184" cy="-342" rx="3.6" ry="3.6"/>
</g>
<!-- p18&#45;&gt;p19 -->
<g id="edge20" class="edge"><title>p18&#45;&gt;p19</title>
<path fill="none" stroke="black" d="M184,-338.265C184,-331.354 184,-312.578 184,-296.316"/>
<polygon fill="black" stroke="black" points="187.5,-296.143 184,-286.143 180.5,-296.143 187.5,-296.143"/>
<text text-anchor="middle" x="198" y="-308.3" font-family="Times,serif" font-size="14.00">meta</text>
</g>
<!-- p29 -->
<g id="node27" class="node"><title>p29</title>
<ellipse fill="none" stroke="black" cx="472" cy="-60" rx="120.359" ry="18"/>
<text text-anchor="middle" x="472" y="-56.3" font-family="Times,serif" font-size="14.00">PIHAT01:MERGE_VERSION</text>
</g>
<!-- p25&#45;&gt;p29 -->
<g id="edge27" class="edge"><title>p25&#45;&gt;p29</title>
<path fill="none" stroke="black" d="M415.72,-130.624C420.031,-124.694 431.69,-108.797 442,-96 444.711,-92.6348 447.614,-89.1319 450.506,-85.6993"/>
<polygon fill="black" stroke="black" points="453.318,-87.7959 457.141,-77.9149 447.99,-83.255 453.318,-87.7959"/>
</g>
<!-- p30 -->
<g id="node31" class="node"><title>p30</title>
<ellipse fill="black" stroke="black" cx="472" cy="-2" rx="1.8" ry="1.8"/>
</g>
<!-- p29&#45;&gt;p30 -->
<g id="edge31" class="edge"><title>p29&#45;&gt;p30</title>
<path fill="none" stroke="black" d="M472,-41.8939C472,-32.8876 472,-22.0999 472,-14.1727"/>
<polygon fill="black" stroke="black" points="475.5,-13.9957 472,-3.99575 468.5,-13.9958 475.5,-13.9957"/>
</g>
<!-- p26 -->
<g id="node28" class="node"><title>p26</title>
<ellipse fill="black" stroke="black" cx="447" cy="-134" rx="3.6" ry="3.6"/>
</g>
<!-- p26&#45;&gt;p29 -->
<g id="edge28" class="edge"><title>p26&#45;&gt;p29</title>
<path fill="none" stroke="black" d="M446.553,-130.218C445.653,-123.931 444.03,-108.223 448,-96 449.024,-92.8467 450.43,-89.7205 452.051,-86.7093"/>
<polygon fill="black" stroke="black" points="455.091,-88.4495 457.397,-78.1087 449.145,-84.7542 455.091,-88.4495"/>
<text text-anchor="middle" x="462" y="-100.3" font-family="Times,serif" font-size="14.00">meta</text>
</g>
<!-- p27 -->
<g id="node29" class="node"><title>p27</title>
<ellipse fill="black" stroke="black" cx="498" cy="-134" rx="3.6" ry="3.6"/>
</g>
<!-- p27&#45;&gt;p29 -->
<g id="edge29" class="edge"><title>p27&#45;&gt;p29</title>
<path fill="none" stroke="black" d="M497.013,-130.265C494.493,-123.288 487.607,-104.219 481.697,-87.8523"/>
<polygon fill="black" stroke="black" points="484.879,-86.3597 478.19,-78.1429 478.295,-88.7372 484.879,-86.3597"/>
<text text-anchor="middle" x="506.5" y="-100.3" font-family="Times,serif" font-size="14.00">name</text>
</g>
<!-- p28 -->
<g id="node30" class="node"><title>p28</title>
<ellipse fill="black" stroke="black" cx="552" cy="-134" rx="3.6" ry="3.6"/>
</g>
<!-- p28&#45;&gt;p29 -->
<g id="edge30" class="edge"><title>p28&#45;&gt;p29</title>
<path fill="none" stroke="black" d="M550.645,-130.416C547.196,-124.009 537.535,-107.111 526,-96 521.3,-91.4733 515.934,-87.1903 510.451,-83.2754"/>
<polygon fill="black" stroke="black" points="512.062,-80.14 501.816,-77.4443 508.144,-85.9412 512.062,-80.14"/>
<text text-anchor="middle" x="568.5" y="-100.3" font-family="Times,serif" font-size="14.00">description</text>
</g>
</g>
</svg>
