<?xml version="1.0" encoding="UTF-8" standalone="no"?>
<!DOCTYPE svg PUBLIC "-//W3C//DTD SVG 1.1//EN"
 "http://www.w3.org/Graphics/SVG/1.1/DTD/svg11.dtd">
<!-- Generated by graphviz version 2.30.1 (20201013.1554)
 -->
<!-- Title: 20220712rotavirusremapworkflow Pages: 1 -->
<svg width="967pt" height="1483pt"
 viewBox="0.00 0.00 967.40 1482.60" xmlns="http://www.w3.org/2000/svg" xmlns:xlink="http://www.w3.org/1999/xlink">
<g id="graph0" class="graph" transform="scale(1 1) rotate(0) translate(4 1478.6)">
<title>20220712rotavirusremapworkflow</title>
<polygon fill="white" stroke="white" points="-4,5 -4,-1478.6 964.4,-1478.6 964.4,5 -4,5"/>
<!-- p0 -->
<g id="node1" class="node"><title>p0</title>
<ellipse fill="black" stroke="black" cx="638" cy="-1456" rx="3.6" ry="3.6"/>
<text text-anchor="middle" x="569.4" y="-1463.4" font-family="Times,serif" font-size="14.00">Channel.fromPath</text>
</g>
<!-- p1 -->
<g id="node2" class="node"><title>p1</title>
<ellipse fill="none" stroke="black" cx="638" cy="-1410" rx="3.25" ry="3.5"/>
<text text-anchor="middle" x="605" y="-1417.3" font-family="Times,serif" font-size="14.00">splitCsv</text>
</g>
<!-- p0&#45;&gt;p1 -->
<g id="edge1" class="edge"><title>p0&#45;&gt;p1</title>
<path fill="none" stroke="black" d="M638,-1452.38C638,-1446.86 638,-1433.74 638,-1423.74"/>
<polygon fill="black" stroke="black" points="641.5,-1423.55 638,-1413.55 634.5,-1423.55 641.5,-1423.55"/>
</g>
<!-- p3 -->
<g id="node3" class="node"><title>p3</title>
<ellipse fill="none" stroke="black" cx="638" cy="-1350" rx="3.25" ry="3.5"/>
<text text-anchor="middle" x="619" y="-1357.3" font-family="Times,serif" font-size="14.00">map</text>
</g>
<!-- p1&#45;&gt;p3 -->
<g id="edge2" class="edge"><title>p1&#45;&gt;p3</title>
<path fill="none" stroke="black" d="M638,-1406.2C638,-1398.65 638,-1377.48 638,-1363.66"/>
<polygon fill="black" stroke="black" points="641.5,-1363.64 638,-1353.64 634.5,-1363.64 641.5,-1363.64"/>
<text text-anchor="middle" x="668.5" y="-1376.3" font-family="Times,serif" font-size="14.00">fastq_ch</text>
</g>
<!-- p5 -->
<g id="node6" class="node"><title>p5</title>
<ellipse fill="none" stroke="black" cx="678" cy="-1276" rx="150.205" ry="18"/>
<text text-anchor="middle" x="678" y="-1272.3" font-family="Times,serif" font-size="14.00">MAP_BWA_01:BWA_MEM_01</text>
</g>
<!-- p3&#45;&gt;p5 -->
<g id="edge4" class="edge"><title>p3&#45;&gt;p5</title>
<path fill="none" stroke="black" d="M637.426,-1346.51C636.129,-1340.33 633.497,-1323.9 639,-1312 640.805,-1308.1 643.271,-1304.44 646.095,-1301.08"/>
<polygon fill="black" stroke="black" points="648.732,-1303.39 653.186,-1293.77 643.709,-1298.51 648.732,-1303.39"/>
<text text-anchor="middle" x="667.5" y="-1316.3" font-family="Times,serif" font-size="14.00">r1r2_ch</text>
</g>
<!-- p2 -->
<g id="node4" class="node"><title>p2</title>
<ellipse fill="black" stroke="black" cx="854" cy="-1276" rx="3.6" ry="3.6"/>
<text text-anchor="middle" x="904.9" y="-1283.4" font-family="Times,serif" font-size="14.00">Channel.empty</text>
</g>
<!-- p7 -->
<g id="node5" class="node"><title>p7</title>
<ellipse fill="none" stroke="black" cx="854" cy="-1202" rx="3.25" ry="3.5"/>
<text text-anchor="middle" x="837" y="-1209.3" font-family="Times,serif" font-size="14.00">mix</text>
</g>
<!-- p2&#45;&gt;p7 -->
<g id="edge3" class="edge"><title>p2&#45;&gt;p7</title>
<path fill="none" stroke="black" d="M854,-1272.27C854,-1263.13 854,-1233.28 854,-1215.89"/>
<polygon fill="black" stroke="black" points="857.5,-1215.74 854,-1205.74 850.5,-1215.74 857.5,-1215.74"/>
<text text-anchor="middle" x="893" y="-1228.3" font-family="Times,serif" font-size="14.00">version_ch</text>
</g>
<!-- p12 -->
<g id="node10" class="node"><title>p12</title>
<ellipse fill="none" stroke="black" cx="739" cy="-1040" rx="3.25" ry="3.5"/>
<text text-anchor="middle" x="749" y="-1047.3" font-family="Times,serif" font-size="14.00">mix</text>
</g>
<!-- p7&#45;&gt;p12 -->
<g id="edge9" class="edge"><title>p7&#45;&gt;p12</title>
<path fill="none" stroke="black" d="M853.828,-1198.21C852.982,-1186.46 848.439,-1140.21 828,-1110 807.582,-1079.82 769.722,-1057.01 750.638,-1046.84"/>
<polygon fill="black" stroke="black" points="752.172,-1043.69 741.674,-1042.26 748.991,-1049.93 752.172,-1043.69"/>
<text text-anchor="middle" x="883" y="-1124.3" font-family="Times,serif" font-size="14.00">version_ch</text>
</g>
<!-- p8 -->
<g id="node8" class="node"><title>p8</title>
<ellipse fill="none" stroke="black" cx="678" cy="-1202" rx="3.25" ry="3.5"/>
<text text-anchor="middle" x="633" y="-1209.3" font-family="Times,serif" font-size="14.00">groupTuple</text>
</g>
<!-- p5&#45;&gt;p8 -->
<g id="edge6" class="edge"><title>p5&#45;&gt;p8</title>
<path fill="none" stroke="black" d="M678,-1257.94C678,-1245.13 678,-1227.84 678,-1216.11"/>
<polygon fill="black" stroke="black" points="681.5,-1215.75 678,-1205.75 674.5,-1215.75 681.5,-1215.75"/>
</g>
<!-- p6 -->
<g id="node9" class="node"><title>p6</title>
<ellipse fill="black" stroke="black" cx="653" cy="-1202" rx="1.8" ry="1.8"/>
</g>
<!-- p5&#45;&gt;p6 -->
<g id="edge7" class="edge"><title>p5&#45;&gt;p6</title>
<path fill="none" stroke="black" d="M672.075,-1257.94C667.26,-1244.07 660.624,-1224.96 656.583,-1213.32"/>
<polygon fill="black" stroke="black" points="659.881,-1212.15 653.295,-1203.85 653.269,-1214.44 659.881,-1212.15"/>
</g>
<!-- p5&#45;&gt;p7 -->
<g id="edge8" class="edge"><title>p5&#45;&gt;p7</title>
<path fill="none" stroke="black" d="M718.378,-1258.48C758.148,-1242.21 816.488,-1218.35 841.674,-1208.04"/>
<polygon fill="black" stroke="black" points="843.218,-1211.19 851.148,-1204.17 840.568,-1204.71 843.218,-1211.19"/>
</g>
<!-- p4 -->
<g id="node7" class="node"><title>p4</title>
<ellipse fill="black" stroke="black" cx="718" cy="-1350" rx="3.6" ry="3.6"/>
</g>
<!-- p4&#45;&gt;p5 -->
<g id="edge5" class="edge"><title>p4&#45;&gt;p5</title>
<path fill="none" stroke="black" d="M716.669,-1346.6C712.895,-1339.81 701.789,-1319.82 692.443,-1303"/>
<polygon fill="black" stroke="black" points="695.405,-1301.12 687.489,-1294.08 689.286,-1304.52 695.405,-1301.12"/>
<text text-anchor="middle" x="724.5" y="-1316.3" font-family="Times,serif" font-size="14.00">meta</text>
</g>
<!-- p11 -->
<g id="node11" class="node"><title>p11</title>
<ellipse fill="none" stroke="black" cx="623" cy="-1128" rx="195.924" ry="18"/>
<text text-anchor="middle" x="623" y="-1124.3" font-family="Times,serif" font-size="14.00">MAP_BWA_01:SAMTOOLS_MERGE_01</text>
</g>
<!-- p8&#45;&gt;p11 -->
<g id="edge10" class="edge"><title>p8&#45;&gt;p11</title>
<path fill="none" stroke="black" d="M677.499,-1198.46C676.165,-1192.15 672.06,-1175.46 664,-1164 661.251,-1160.09 657.967,-1156.35 654.471,-1152.86"/>
<polygon fill="black" stroke="black" points="656.835,-1150.28 647.102,-1146.09 652.1,-1155.44 656.835,-1150.28"/>
</g>
<!-- p15 -->
<g id="node15" class="node"><title>p15</title>
<ellipse fill="none" stroke="black" cx="538" cy="-952" rx="3.25" ry="3.5"/>
<text text-anchor="middle" x="521" y="-959.3" font-family="Times,serif" font-size="14.00">mix</text>
</g>
<!-- p12&#45;&gt;p15 -->
<g id="edge15" class="edge"><title>p12&#45;&gt;p15</title>
<path fill="none" stroke="black" d="M737.8,-1036.68C735.812,-1033.06 731.504,-1026.05 726,-1022 668.913,-979.951 583.477,-961.109 551.084,-955.184"/>
<polygon fill="black" stroke="black" points="551.627,-951.726 541.178,-953.483 550.442,-958.625 551.627,-951.726"/>
<text text-anchor="middle" x="732" y="-992.3" font-family="Times,serif" font-size="14.00">version_ch</text>
</g>
<!-- p14 -->
<g id="node14" class="node"><title>p14</title>
<ellipse fill="none" stroke="black" cx="506" cy="-1040" rx="211.322" ry="18"/>
<text text-anchor="middle" x="506" y="-1036.3" font-family="Times,serif" font-size="14.00">MAP_BWA_01:SAMBAMBA_MARKDUP_01</text>
</g>
<!-- p11&#45;&gt;p14 -->
<g id="edge13" class="edge"><title>p11&#45;&gt;p14</title>
<path fill="none" stroke="black" d="M599.885,-1110.01C581.937,-1096.82 556.871,-1078.39 537.154,-1063.9"/>
<polygon fill="black" stroke="black" points="539.198,-1061.06 529.067,-1057.96 535.052,-1066.7 539.198,-1061.06"/>
</g>
<!-- p11&#45;&gt;p12 -->
<g id="edge14" class="edge"><title>p11&#45;&gt;p12</title>
<path fill="none" stroke="black" d="M653.75,-1110.04C675.291,-1097.33 704.036,-1078.63 726,-1058 727.936,-1056.18 729.805,-1054.05 731.493,-1051.93"/>
<polygon fill="black" stroke="black" points="734.448,-1053.81 737.381,-1043.63 728.739,-1049.76 734.448,-1053.81"/>
</g>
<!-- p9 -->
<g id="node12" class="node"><title>p9</title>
<ellipse fill="black" stroke="black" cx="624" cy="-1202" rx="3.6" ry="3.6"/>
</g>
<!-- p9&#45;&gt;p11 -->
<g id="edge11" class="edge"><title>p9&#45;&gt;p11</title>
<path fill="none" stroke="black" d="M623.962,-1198.27C623.866,-1191.35 623.605,-1172.58 623.379,-1156.32"/>
<polygon fill="black" stroke="black" points="626.877,-1156.09 623.238,-1146.14 619.877,-1156.19 626.877,-1156.09"/>
<text text-anchor="middle" x="641.5" y="-1168.3" font-family="Times,serif" font-size="14.00">meta</text>
</g>
<!-- p10 -->
<g id="node13" class="node"><title>p10</title>
<ellipse fill="black" stroke="black" cx="531" cy="-1202" rx="3.6" ry="3.6"/>
</g>
<!-- p10&#45;&gt;p11 -->
<g id="edge12" class="edge"><title>p10&#45;&gt;p11</title>
<path fill="none" stroke="black" d="M531.644,-1198.31C533.361,-1191.66 538.639,-1174.25 549,-1164 554.21,-1158.85 560.323,-1154.35 566.765,-1150.45"/>
<polygon fill="black" stroke="black" points="568.645,-1153.41 575.698,-1145.51 565.254,-1147.29 568.645,-1153.41"/>
<text text-anchor="middle" x="584" y="-1168.3" font-family="Times,serif" font-size="14.00">reference</text>
</g>
<!-- p18 -->
<g id="node17" class="node"><title>p18</title>
<ellipse fill="none" stroke="black" cx="273" cy="-952" rx="172.327" ry="18"/>
<text text-anchor="middle" x="273" y="-948.3" font-family="Times,serif" font-size="14.00">MAP_BWA_01:CONTIGS_IN_BAM</text>
</g>
<!-- p14&#45;&gt;p18 -->
<g id="edge17" class="edge"><title>p14&#45;&gt;p18</title>
<path fill="none" stroke="black" d="M460.799,-1022.32C422.574,-1008.21 367.708,-987.957 327.144,-972.984"/>
<polygon fill="black" stroke="black" points="328.273,-969.67 317.679,-969.491 325.849,-976.237 328.273,-969.67"/>
</g>
<!-- p14&#45;&gt;p15 -->
<g id="edge18" class="edge"><title>p14&#45;&gt;p15</title>
<path fill="none" stroke="black" d="M512.476,-1021.6C518.753,-1004.73 528.107,-979.588 533.576,-964.888"/>
<polygon fill="black" stroke="black" points="536.897,-966 537.104,-955.407 530.337,-963.559 536.897,-966"/>
</g>
<!-- p19 -->
<g id="node18" class="node"><title>p19</title>
<ellipse fill="none" stroke="black" cx="538" cy="-878" rx="3.25" ry="3.5"/>
<text text-anchor="middle" x="521" y="-885.3" font-family="Times,serif" font-size="14.00">mix</text>
</g>
<!-- p15&#45;&gt;p19 -->
<g id="edge19" class="edge"><title>p15&#45;&gt;p19</title>
<path fill="none" stroke="black" d="M538,-948.265C538,-939.133 538,-909.282 538,-891.892"/>
<polygon fill="black" stroke="black" points="541.5,-891.737 538,-881.737 534.5,-891.737 541.5,-891.737"/>
<text text-anchor="middle" x="577" y="-904.3" font-family="Times,serif" font-size="14.00">version_ch</text>
</g>
<!-- p13 -->
<g id="node16" class="node"><title>p13</title>
<ellipse fill="black" stroke="black" cx="405" cy="-1128" rx="3.6" ry="3.6"/>
</g>
<!-- p13&#45;&gt;p14 -->
<g id="edge16" class="edge"><title>p13&#45;&gt;p14</title>
<path fill="none" stroke="black" d="M406.669,-1124.42C408.983,-1120.94 413.404,-1114.65 418,-1110 434.768,-1093.03 455.716,-1076.45 472.967,-1063.8"/>
<polygon fill="black" stroke="black" points="475.048,-1066.61 481.104,-1057.92 470.948,-1060.94 475.048,-1066.61"/>
<text text-anchor="middle" x="473.5" y="-1080.3" font-family="Times,serif" font-size="14.00">meta</text>
</g>
<!-- p20 -->
<g id="node21" class="node"><title>p20</title>
<ellipse fill="none" stroke="black" cx="261" cy="-878" rx="3.25" ry="3.5"/>
<text text-anchor="middle" x="228" y="-885.3" font-family="Times,serif" font-size="14.00">splitCsv</text>
</g>
<!-- p18&#45;&gt;p20 -->
<g id="edge22" class="edge"><title>p18&#45;&gt;p20</title>
<path fill="none" stroke="black" d="M270.156,-933.937C267.998,-920.989 265.078,-903.471 263.122,-891.731"/>
<polygon fill="black" stroke="black" points="266.554,-891.037 261.458,-881.748 259.65,-892.188 266.554,-891.037"/>
</g>
<!-- p18&#45;&gt;p19 -->
<g id="edge23" class="edge"><title>p18&#45;&gt;p19</title>
<path fill="none" stroke="black" d="M331.812,-935.021C394.826,-917.9 490.442,-891.922 524.981,-882.537"/>
<polygon fill="black" stroke="black" points="526.036,-885.877 534.769,-879.878 524.201,-879.122 526.036,-885.877"/>
</g>
<!-- p23 -->
<g id="node22" class="node"><title>p23</title>
<ellipse fill="none" stroke="black" cx="517" cy="-744" rx="3.25" ry="3.5"/>
<text text-anchor="middle" x="500" y="-751.3" font-family="Times,serif" font-size="14.00">mix</text>
</g>
<!-- p19&#45;&gt;p23 -->
<g id="edge24" class="edge"><title>p19&#45;&gt;p23</title>
<path fill="none" stroke="black" d="M537.561,-874.243C535.181,-859.279 523.745,-787.397 519.034,-757.788"/>
<polygon fill="black" stroke="black" points="522.464,-757.068 517.436,-747.742 515.551,-758.168 522.464,-757.068"/>
<text text-anchor="middle" x="569" y="-800.3" font-family="Times,serif" font-size="14.00">version_ch</text>
</g>
<!-- p16 -->
<g id="node19" class="node"><title>p16</title>
<ellipse fill="black" stroke="black" cx="213" cy="-1040" rx="3.6" ry="3.6"/>
</g>
<!-- p16&#45;&gt;p18 -->
<g id="edge20" class="edge"><title>p16&#45;&gt;p18</title>
<path fill="none" stroke="black" d="M213.565,-1035.99C215.233,-1027.71 220.735,-1004.1 232,-988 234.739,-984.084 238.017,-980.338 241.509,-976.849"/>
<polygon fill="black" stroke="black" points="243.881,-979.423 248.876,-970.079 239.144,-974.269 243.881,-979.423"/>
<text text-anchor="middle" x="250.5" y="-992.3" font-family="Times,serif" font-size="14.00">meta</text>
</g>
<!-- p17 -->
<g id="node20" class="node"><title>p17</title>
<ellipse fill="black" stroke="black" cx="273" cy="-1040" rx="3.6" ry="3.6"/>
</g>
<!-- p17&#45;&gt;p18 -->
<g id="edge21" class="edge"><title>p17&#45;&gt;p18</title>
<path fill="none" stroke="black" d="M273,-1036.14C273,-1027.5 273,-1001.01 273,-980.227"/>
<polygon fill="black" stroke="black" points="276.5,-980.004 273,-970.004 269.5,-980.004 276.5,-980.004"/>
<text text-anchor="middle" x="308" y="-992.3" font-family="Times,serif" font-size="14.00">reference</text>
</g>
<!-- p22 -->
<g id="node23" class="node"><title>p22</title>
<ellipse fill="none" stroke="black" cx="259" cy="-804" rx="245.042" ry="18"/>
<text text-anchor="middle" x="259" y="-800.3" font-family="Times,serif" font-size="14.00">MAP_BWA_01:GATK4_BASE_RECALIBRATOR_01</text>
</g>
<!-- p20&#45;&gt;p22 -->
<g id="edge25" class="edge"><title>p20&#45;&gt;p22</title>
<path fill="none" stroke="black" d="M260.924,-874.265C260.732,-867.354 260.211,-848.578 259.759,-832.316"/>
<polygon fill="black" stroke="black" points="263.253,-832.042 259.476,-822.143 256.255,-832.236 263.253,-832.042"/>
</g>
<!-- p28 -->
<g id="node26" class="node"><title>p28</title>
<ellipse fill="none" stroke="black" cx="516" cy="-564" rx="3.25" ry="3.5"/>
<text text-anchor="middle" x="499" y="-571.3" font-family="Times,serif" font-size="14.00">mix</text>
</g>
<!-- p23&#45;&gt;p28 -->
<g id="edge29" class="edge"><title>p23&#45;&gt;p28</title>
<path fill="none" stroke="black" d="M516.986,-740.484C516.886,-722.72 516.286,-615.83 516.074,-578.142"/>
<polygon fill="black" stroke="black" points="519.571,-577.661 516.015,-567.681 512.571,-577.7 519.571,-577.661"/>
<text text-anchor="middle" x="556" y="-664.3" font-family="Times,serif" font-size="14.00">version_ch</text>
</g>
<!-- p24 -->
<g id="node25" class="node"><title>p24</title>
<ellipse fill="none" stroke="black" cx="259" cy="-744" rx="3.25" ry="3.5"/>
<text text-anchor="middle" x="240" y="-751.3" font-family="Times,serif" font-size="14.00">map</text>
</g>
<!-- p22&#45;&gt;p24 -->
<g id="edge27" class="edge"><title>p22&#45;&gt;p24</title>
<path fill="none" stroke="black" d="M259,-785.912C259,-776.965 259,-766.187 259,-757.94"/>
<polygon fill="black" stroke="black" points="262.5,-757.691 259,-747.691 255.5,-757.691 262.5,-757.691"/>
</g>
<!-- p22&#45;&gt;p23 -->
<g id="edge28" class="edge"><title>p22&#45;&gt;p23</title>
<path fill="none" stroke="black" d="M331.21,-786.767C391.742,-773.159 473.117,-754.865 504.202,-747.877"/>
<polygon fill="black" stroke="black" points="505.012,-751.282 514.001,-745.674 503.477,-744.453 505.012,-751.282"/>
</g>
<!-- p21 -->
<g id="node24" class="node"><title>p21</title>
<ellipse fill="black" stroke="black" cx="292" cy="-878" rx="3.6" ry="3.6"/>
</g>
<!-- p21&#45;&gt;p22 -->
<g id="edge26" class="edge"><title>p21&#45;&gt;p22</title>
<path fill="none" stroke="black" d="M290.747,-874.265C287.519,-867.222 278.644,-847.859 271.095,-831.39"/>
<polygon fill="black" stroke="black" points="274.205,-829.775 266.857,-822.143 267.842,-832.692 274.205,-829.775"/>
<text text-anchor="middle" x="301.5" y="-844.3" font-family="Times,serif" font-size="14.00">meta</text>
</g>
<!-- p25 -->
<g id="node27" class="node"><title>p25</title>
<ellipse fill="none" stroke="black" cx="259" cy="-698" rx="3.25" ry="3.5"/>
<text text-anchor="middle" x="214" y="-705.3" font-family="Times,serif" font-size="14.00">groupTuple</text>
</g>
<!-- p24&#45;&gt;p25 -->
<g id="edge30" class="edge"><title>p24&#45;&gt;p25</title>
<path fill="none" stroke="black" d="M259,-740.379C259,-734.864 259,-721.742 259,-711.742"/>
<polygon fill="black" stroke="black" points="262.5,-711.552 259,-701.552 255.5,-711.552 262.5,-711.552"/>
</g>
<!-- p33 -->
<g id="node31" class="node"><title>p33</title>
<ellipse fill="none" stroke="black" cx="507" cy="-430" rx="3.25" ry="3.5"/>
<text text-anchor="middle" x="490" y="-437.3" font-family="Times,serif" font-size="14.00">mix</text>
</g>
<!-- p28&#45;&gt;p33 -->
<g id="edge35" class="edge"><title>p28&#45;&gt;p33</title>
<path fill="none" stroke="black" d="M515.812,-560.243C514.792,-545.279 509.891,-473.397 507.872,-443.788"/>
<polygon fill="black" stroke="black" points="511.359,-443.481 507.187,-433.742 504.375,-443.957 511.359,-443.481"/>
<text text-anchor="middle" x="552" y="-486.3" font-family="Times,serif" font-size="14.00">version_ch</text>
</g>
<!-- p27 -->
<g id="node28" class="node"><title>p27</title>
<ellipse fill="none" stroke="black" cx="280" cy="-624" rx="208.923" ry="18"/>
<text text-anchor="middle" x="280" y="-620.3" font-family="Times,serif" font-size="14.00">MAP_BWA_01:GATK4_GATHER_BQSR_01</text>
</g>
<!-- p25&#45;&gt;p27 -->
<g id="edge31" class="edge"><title>p25&#45;&gt;p27</title>
<path fill="none" stroke="black" d="M259.798,-694.265C261.833,-687.288 267.394,-668.219 272.168,-651.852"/>
<polygon fill="black" stroke="black" points="275.56,-652.723 275,-642.143 268.84,-650.763 275.56,-652.723"/>
</g>
<!-- p29 -->
<g id="node30" class="node"><title>p29</title>
<ellipse fill="none" stroke="black" cx="280" cy="-564" rx="3.25" ry="3.5"/>
<text text-anchor="middle" x="261" y="-571.3" font-family="Times,serif" font-size="14.00">map</text>
</g>
<!-- p27&#45;&gt;p29 -->
<g id="edge33" class="edge"><title>p27&#45;&gt;p29</title>
<path fill="none" stroke="black" d="M280,-605.912C280,-596.965 280,-586.187 280,-577.94"/>
<polygon fill="black" stroke="black" points="283.5,-577.691 280,-567.691 276.5,-577.691 283.5,-577.691"/>
</g>
<!-- p27&#45;&gt;p28 -->
<g id="edge34" class="edge"><title>p27&#45;&gt;p28</title>
<path fill="none" stroke="black" d="M345.739,-606.844C400.39,-593.413 473.783,-575.375 503.109,-568.168"/>
<polygon fill="black" stroke="black" points="504.154,-571.516 513.029,-565.73 502.483,-564.718 504.154,-571.516"/>
</g>
<!-- p26 -->
<g id="node29" class="node"><title>p26</title>
<ellipse fill="black" stroke="black" cx="292" cy="-698" rx="3.6" ry="3.6"/>
</g>
<!-- p26&#45;&gt;p27 -->
<g id="edge32" class="edge"><title>p26&#45;&gt;p27</title>
<path fill="none" stroke="black" d="M291.544,-694.265C290.392,-687.354 287.263,-668.578 284.553,-652.316"/>
<polygon fill="black" stroke="black" points="287.954,-651.431 282.857,-642.143 281.049,-652.582 287.954,-651.431"/>
<text text-anchor="middle" x="307.5" y="-664.3" font-family="Times,serif" font-size="14.00">meta</text>
</g>
<!-- p31 -->
<g id="node32" class="node"><title>p31</title>
<ellipse fill="none" stroke="black" cx="281" cy="-490" rx="198.324" ry="18"/>
<text text-anchor="middle" x="281" y="-486.3" font-family="Times,serif" font-size="14.00">MAP_BWA_01:GATK4_APPLY_BQSR_01</text>
</g>
<!-- p29&#45;&gt;p31 -->
<g id="edge36" class="edge"><title>p29&#45;&gt;p31</title>
<path fill="none" stroke="black" d="M280.038,-560.265C280.134,-553.354 280.395,-534.578 280.621,-518.316"/>
<polygon fill="black" stroke="black" points="284.123,-518.191 280.762,-508.143 277.123,-518.093 284.123,-518.191"/>
</g>
<!-- p40 -->
<g id="node36" class="node"><title>p40</title>
<ellipse fill="none" stroke="black" cx="450" cy="-282" rx="3.25" ry="3.5"/>
<text text-anchor="middle" x="433" y="-289.3" font-family="Times,serif" font-size="14.00">mix</text>
</g>
<!-- p33&#45;&gt;p40 -->
<g id="edge41" class="edge"><title>p33&#45;&gt;p40</title>
<path fill="none" stroke="black" d="M506.391,-426.406C503.779,-415.442 493.014,-371.914 479,-338 472.513,-322.303 463.045,-305.124 456.711,-294.215"/>
<polygon fill="black" stroke="black" points="459.616,-292.253 451.501,-285.441 453.597,-295.827 459.616,-292.253"/>
<text text-anchor="middle" x="531" y="-352.3" font-family="Times,serif" font-size="14.00">version_ch</text>
</g>
<!-- p34 -->
<g id="node34" class="node"><title>p34</title>
<ellipse fill="none" stroke="black" cx="239" cy="-430" rx="3.25" ry="3.5"/>
<text text-anchor="middle" x="220" y="-437.3" font-family="Times,serif" font-size="14.00">map</text>
</g>
<!-- p31&#45;&gt;p34 -->
<g id="edge38" class="edge"><title>p31&#45;&gt;p34</title>
<path fill="none" stroke="black" d="M268.626,-471.912C261.469,-462.029 252.696,-449.913 246.561,-441.441"/>
<polygon fill="black" stroke="black" points="249.372,-439.356 240.672,-433.309 243.703,-443.462 249.372,-439.356"/>
</g>
<!-- p32 -->
<g id="node35" class="node"><title>p32</title>
<ellipse fill="black" stroke="black" cx="291" cy="-430" rx="1.8" ry="1.8"/>
</g>
<!-- p31&#45;&gt;p32 -->
<g id="edge39" class="edge"><title>p31&#45;&gt;p32</title>
<path fill="none" stroke="black" d="M283.946,-471.912C285.6,-462.322 287.616,-450.628 289.069,-442.202"/>
<polygon fill="black" stroke="black" points="292.568,-442.506 290.818,-432.056 285.67,-441.316 292.568,-442.506"/>
</g>
<!-- p31&#45;&gt;p33 -->
<g id="edge40" class="edge"><title>p31&#45;&gt;p33</title>
<path fill="none" stroke="black" d="M343.954,-472.844C396.054,-459.473 465.942,-441.537 494.275,-434.266"/>
<polygon fill="black" stroke="black" points="495.339,-437.606 504.155,-431.73 493.599,-430.826 495.339,-437.606"/>
</g>
<!-- p30 -->
<g id="node33" class="node"><title>p30</title>
<ellipse fill="black" stroke="black" cx="313" cy="-564" rx="3.6" ry="3.6"/>
</g>
<!-- p30&#45;&gt;p31 -->
<g id="edge37" class="edge"><title>p30&#45;&gt;p31</title>
<path fill="none" stroke="black" d="M311.785,-560.265C308.654,-553.222 300.048,-533.859 292.729,-517.39"/>
<polygon fill="black" stroke="black" points="295.879,-515.86 288.619,-508.143 289.482,-518.703 295.879,-515.86"/>
<text text-anchor="middle" x="322.5" y="-530.3" font-family="Times,serif" font-size="14.00">meta</text>
</g>
<!-- p37 -->
<g id="node37" class="node"><title>p37</title>
<ellipse fill="none" stroke="black" cx="235" cy="-356" rx="235.394" ry="18"/>
<text text-anchor="middle" x="235" y="-352.3" font-family="Times,serif" font-size="14.00">MAP_BWA_01:SAMTOOLS_BAM_TO_CRAM_01</text>
</g>
<!-- p34&#45;&gt;p37 -->
<g id="edge42" class="edge"><title>p34&#45;&gt;p37</title>
<path fill="none" stroke="black" d="M238.848,-426.265C238.464,-419.354 237.421,-400.578 236.518,-384.316"/>
<polygon fill="black" stroke="black" points="240.002,-383.933 235.952,-374.143 233.013,-384.322 240.002,-383.933"/>
</g>
<!-- p41 -->
<g id="node42" class="node"><title>p41</title>
<ellipse fill="none" stroke="black" cx="450" cy="-222" rx="3.25" ry="3.5"/>
<text text-anchor="middle" x="422" y="-229.3" font-family="Times,serif" font-size="14.00">collect</text>
</g>
<!-- p40&#45;&gt;p41 -->
<g id="edge48" class="edge"><title>p40&#45;&gt;p41</title>
<path fill="none" stroke="black" d="M450,-278.203C450,-270.649 450,-249.48 450,-235.66"/>
<polygon fill="black" stroke="black" points="453.5,-235.636 450,-225.636 446.5,-235.636 453.5,-235.636"/>
<text text-anchor="middle" x="489" y="-248.3" font-family="Times,serif" font-size="14.00">version_ch</text>
</g>
<!-- p39 -->
<g id="node40" class="node"><title>p39</title>
<ellipse fill="black" stroke="black" cx="252" cy="-282" rx="1.8" ry="1.8"/>
</g>
<!-- p37&#45;&gt;p39 -->
<g id="edge45" class="edge"><title>p37&#45;&gt;p39</title>
<path fill="none" stroke="black" d="M239.029,-337.937C242.268,-324.219 246.717,-305.373 249.473,-293.701"/>
<polygon fill="black" stroke="black" points="252.908,-294.386 251.799,-283.849 246.095,-292.777 252.908,-294.386"/>
<text text-anchor="middle" x="266.5" y="-308.3" font-family="Times,serif" font-size="14.00">bams</text>
</g>
<!-- p38 -->
<g id="node41" class="node"><title>p38</title>
<ellipse fill="black" stroke="black" cx="219" cy="-282" rx="1.8" ry="1.8"/>
</g>
<!-- p37&#45;&gt;p38 -->
<g id="edge46" class="edge"><title>p37&#45;&gt;p38</title>
<path fill="none" stroke="black" d="M231.208,-337.937C228.16,-324.219 223.972,-305.373 221.378,-293.701"/>
<polygon fill="black" stroke="black" points="224.775,-292.852 219.189,-283.849 217.941,-294.37 224.775,-292.852"/>
</g>
<!-- p37&#45;&gt;p40 -->
<g id="edge47" class="edge"><title>p37&#45;&gt;p40</title>
<path fill="none" stroke="black" d="M284.595,-338.391C334.511,-321.676 408.167,-297.009 437.389,-287.223"/>
<polygon fill="black" stroke="black" points="438.622,-290.501 446.993,-284.007 436.4,-283.864 438.622,-290.501"/>
</g>
<!-- p35 -->
<g id="node38" class="node"><title>p35</title>
<ellipse fill="black" stroke="black" cx="268" cy="-430" rx="3.6" ry="3.6"/>
</g>
<!-- p35&#45;&gt;p37 -->
<g id="edge43" class="edge"><title>p35&#45;&gt;p37</title>
<path fill="none" stroke="black" d="M266.747,-426.265C263.519,-419.222 254.644,-399.859 247.095,-383.39"/>
<polygon fill="black" stroke="black" points="250.205,-381.775 242.857,-374.143 243.842,-384.692 250.205,-381.775"/>
<text text-anchor="middle" x="277.5" y="-396.3" font-family="Times,serif" font-size="14.00">meta</text>
</g>
<!-- p36 -->
<g id="node39" class="node"><title>p36</title>
<ellipse fill="black" stroke="black" cx="150" cy="-430" rx="3.6" ry="3.6"/>
</g>
<!-- p36&#45;&gt;p37 -->
<g id="edge44" class="edge"><title>p36&#45;&gt;p37</title>
<path fill="none" stroke="black" d="M150.247,-426.324C150.99,-419.707 153.757,-402.368 163,-392 167.474,-386.981 172.828,-382.61 178.57,-378.82"/>
<polygon fill="black" stroke="black" points="180.404,-381.801 187.203,-373.675 176.821,-375.788 180.404,-381.801"/>
<text text-anchor="middle" x="198" y="-396.3" font-family="Times,serif" font-size="14.00">reference</text>
</g>
<!-- p45 -->
<g id="node43" class="node"><title>p45</title>
<ellipse fill="none" stroke="black" cx="513" cy="-148" rx="168.478" ry="18"/>
<text text-anchor="middle" x="513" y="-144.3" font-family="Times,serif" font-size="14.00">MAP_BWA_01:MERGE_VERSION</text>
</g>
<!-- p41&#45;&gt;p45 -->
<g id="edge49" class="edge"><title>p41&#45;&gt;p45</title>
<path fill="none" stroke="black" d="M451.66,-218.574C455.835,-212.529 467.206,-196.392 478,-184 481.067,-180.479 484.41,-176.875 487.772,-173.383"/>
<polygon fill="black" stroke="black" points="490.533,-175.568 495.065,-165.991 485.55,-170.651 490.533,-175.568"/>
</g>
<!-- p47 -->
<g id="node47" class="node"><title>p47</title>
<ellipse fill="none" stroke="black" cx="637" cy="-60" rx="111.186" ry="18"/>
<text text-anchor="middle" x="637" y="-56.3" font-family="Times,serif" font-size="14.00">VERSION_TO_HTML</text>
</g>
<!-- p45&#45;&gt;p47 -->
<g id="edge53" class="edge"><title>p45&#45;&gt;p47</title>
<path fill="none" stroke="black" d="M537.498,-130.009C556.729,-116.672 583.67,-97.9872 604.669,-83.4232"/>
<polygon fill="black" stroke="black" points="606.752,-86.2379 612.974,-77.6629 602.763,-80.4859 606.752,-86.2379"/>
<text text-anchor="middle" x="612.5" y="-100.3" font-family="Times,serif" font-size="14.00">version</text>
</g>
<!-- p42 -->
<g id="node44" class="node"><title>p42</title>
<ellipse fill="black" stroke="black" cx="483" cy="-222" rx="3.6" ry="3.6"/>
</g>
<!-- p42&#45;&gt;p45 -->
<g id="edge50" class="edge"><title>p42&#45;&gt;p45</title>
<path fill="none" stroke="black" d="M482.474,-218.19C481.412,-211.846 479.479,-196.03 484,-184 485.26,-180.648 486.984,-177.385 488.968,-174.284"/>
<polygon fill="black" stroke="black" points="491.938,-176.156 495.081,-166.038 486.314,-171.987 491.938,-176.156"/>
<text text-anchor="middle" x="502.5" y="-188.3" font-family="Times,serif" font-size="14.00">meta</text>
</g>
<!-- p43 -->
<g id="node45" class="node"><title>p43</title>
<ellipse fill="black" stroke="black" cx="543" cy="-222" rx="3.6" ry="3.6"/>
</g>
<!-- p43&#45;&gt;p45 -->
<g id="edge51" class="edge"><title>p43&#45;&gt;p45</title>
<path fill="none" stroke="black" d="M541.861,-218.265C538.926,-211.222 530.858,-191.859 523.996,-175.39"/>
<polygon fill="black" stroke="black" points="527.22,-174.027 520.143,-166.143 520.758,-176.72 527.22,-174.027"/>
<text text-anchor="middle" x="555" y="-188.3" font-family="Times,serif" font-size="14.00">name</text>
</g>
<!-- p44 -->
<g id="node46" class="node"><title>p44</title>
<ellipse fill="black" stroke="black" cx="606" cy="-222" rx="3.6" ry="3.6"/>
</g>
<!-- p44&#45;&gt;p45 -->
<g id="edge52" class="edge"><title>p44&#45;&gt;p45</title>
<path fill="none" stroke="black" d="M604.628,-218.355C601.126,-211.811 591.26,-194.623 579,-184 573.407,-179.153 567.028,-174.729 560.491,-170.778"/>
<polygon fill="black" stroke="black" points="561.963,-167.589 551.539,-165.69 558.504,-173.674 561.963,-167.589"/>
<text text-anchor="middle" x="634" y="-188.3" font-family="Times,serif" font-size="14.00">description</text>
</g>
<!-- p48 -->
<g id="node49" class="node"><title>p48</title>
<ellipse fill="black" stroke="black" cx="637" cy="-2" rx="1.8" ry="1.8"/>
</g>
<!-- p47&#45;&gt;p48 -->
<g id="edge55" class="edge"><title>p47&#45;&gt;p48</title>
<path fill="none" stroke="black" d="M637,-41.8939C637,-32.8876 637,-22.0999 637,-14.1727"/>
<polygon fill="black" stroke="black" points="640.5,-13.9957 637,-3.99575 633.5,-13.9958 640.5,-13.9957"/>
</g>
<!-- p46 -->
<g id="node48" class="node"><title>p46</title>
<ellipse fill="black" stroke="black" cx="704" cy="-148" rx="3.6" ry="3.6"/>
</g>
<!-- p46&#45;&gt;p47 -->
<g id="edge54" class="edge"><title>p46&#45;&gt;p47</title>
<path fill="none" stroke="black" d="M702.067,-144.519C695.438,-136.009 673.113,-107.354 656.451,-85.9664"/>
<polygon fill="black" stroke="black" points="659.071,-83.6354 650.165,-77.8978 653.549,-87.9375 659.071,-83.6354"/>
<text text-anchor="middle" x="694.5" y="-100.3" font-family="Times,serif" font-size="14.00">meta</text>
</g>
</g>
</svg>
