<?xml version="1.0" encoding="UTF-8" standalone="no"?>
<!DOCTYPE svg PUBLIC "-//W3C//DTD SVG 1.1//EN"
 "http://www.w3.org/Graphics/SVG/1.1/DTD/svg11.dtd">
<!-- Generated by graphviz version 2.30.1 (20201013.1554)
 -->
<!-- Title: 20220712rotavirusremapworkflow Pages: 1 -->
<svg width="884pt" height="1021pt"
 viewBox="0.00 0.00 883.60 1020.60" xmlns="http://www.w3.org/2000/svg" xmlns:xlink="http://www.w3.org/1999/xlink">
<g id="graph0" class="graph" transform="scale(1 1) rotate(0) translate(4 1016.6)">
<title>20220712rotavirusremapworkflow</title>
<polygon fill="white" stroke="white" points="-4,5 -4,-1016.6 880.6,-1016.6 880.6,5 -4,5"/>
<!-- p0 -->
<g id="node1" class="node"><title>p0</title>
<ellipse fill="black" stroke="black" cx="296.6" cy="-994" rx="3.6" ry="3.6"/>
<text text-anchor="middle" x="243" y="-1001.4" font-family="Times,serif" font-size="14.00">Channel.fromPath</text>
</g>
<!-- p1 -->
<g id="node2" class="node"><title>p1</title>
<ellipse fill="none" stroke="black" cx="296.6" cy="-948" rx="3.25" ry="3.5"/>
<text text-anchor="middle" x="270.6" y="-955.3" font-family="Times,serif" font-size="14.00">splitCsv</text>
</g>
<!-- p0&#45;&gt;p1 -->
<g id="edge1" class="edge"><title>p0&#45;&gt;p1</title>
<path fill="none" stroke="black" d="M296.6,-990.379C296.6,-984.864 296.6,-971.742 296.6,-961.742"/>
<polygon fill="black" stroke="black" points="300.1,-961.552 296.6,-951.552 293.1,-961.552 300.1,-961.552"/>
</g>
<!-- p5 -->
<g id="node3" class="node"><title>p5</title>
<ellipse fill="none" stroke="black" cx="320.6" cy="-874" rx="211.322" ry="18"/>
<text text-anchor="middle" x="320.6" y="-870.3" font-family="Times,serif" font-size="14.00">MAP_BWA_01:SEQTK_SPLITFASTQ:SEQTK_SPLIT</text>
</g>
<!-- p1&#45;&gt;p5 -->
<g id="edge2" class="edge"><title>p1&#45;&gt;p5</title>
<path fill="none" stroke="black" d="M296.17,-944.223C295.305,-937.948 293.75,-922.262 297.6,-910 298.549,-906.976 299.842,-903.967 301.335,-901.055"/>
<polygon fill="black" stroke="black" points="304.504,-902.573 306.602,-892.188 298.485,-898.998 304.504,-902.573"/>
<text text-anchor="middle" x="310.1" y="-914.3" font-family="Times,serif" font-size="14.00">rows</text>
</g>
<!-- p7 -->
<g id="node9" class="node"><title>p7</title>
<ellipse fill="none" stroke="black" cx="320.6" cy="-800" rx="3.25" ry="3.5"/>
<text text-anchor="middle" x="294.6" y="-807.3" font-family="Times,serif" font-size="14.00">splitCsv</text>
</g>
<!-- p5&#45;&gt;p7 -->
<g id="edge6" class="edge"><title>p5&#45;&gt;p7</title>
<path fill="none" stroke="black" d="M320.6,-855.937C320.6,-843.126 320.6,-825.843 320.6,-814.107"/>
<polygon fill="black" stroke="black" points="324.1,-813.748 320.6,-803.748 317.1,-813.748 324.1,-813.748"/>
</g>
<!-- p6 -->
<g id="node7" class="node"><title>p6</title>
<ellipse fill="none" stroke="black" cx="94.6" cy="-800" rx="3.25" ry="3.5"/>
<text text-anchor="middle" x="80.1" y="-785.3" font-family="Times,serif" font-size="14.00">mix</text>
</g>
<!-- p5&#45;&gt;p6 -->
<g id="edge7" class="edge"><title>p5&#45;&gt;p6</title>
<path fill="none" stroke="black" d="M268.751,-856.482C216.064,-839.696 137.995,-814.825 107.482,-805.104"/>
<polygon fill="black" stroke="black" points="108.36,-801.71 97.7692,-802.01 106.235,-808.38 108.36,-801.71"/>
</g>
<!-- p2 -->
<g id="node4" class="node"><title>p2</title>
<ellipse fill="black" stroke="black" cx="157.6" cy="-800" rx="3.6" ry="3.6"/>
<text text-anchor="middle" x="112" y="-807.4" font-family="Times,serif" font-size="14.00">Channel.empty</text>
</g>
<!-- p8 -->
<g id="node5" class="node"><title>p8</title>
<ellipse fill="none" stroke="black" cx="107.6" cy="-740" rx="3.25" ry="3.5"/>
<text text-anchor="middle" x="93.1" y="-747.3" font-family="Times,serif" font-size="14.00">mix</text>
</g>
<!-- p2&#45;&gt;p8 -->
<g id="edge3" class="edge"><title>p2&#45;&gt;p8</title>
<path fill="none" stroke="black" d="M156.507,-796.444C153.709,-790.103 145.788,-773.342 135.6,-762 130.75,-756.601 124.331,-751.669 118.862,-747.943"/>
<polygon fill="black" stroke="black" points="120.506,-744.841 110.182,-742.46 116.767,-750.759 120.506,-744.841"/>
<text text-anchor="middle" x="176.1" y="-766.3" font-family="Times,serif" font-size="14.00">version_ch</text>
</g>
<!-- p13 -->
<g id="node11" class="node"><title>p13</title>
<ellipse fill="none" stroke="black" cx="126.6" cy="-606" rx="3.25" ry="3.5"/>
<text text-anchor="middle" x="112.1" y="-613.3" font-family="Times,serif" font-size="14.00">mix</text>
</g>
<!-- p8&#45;&gt;p13 -->
<g id="edge10" class="edge"><title>p8&#45;&gt;p13</title>
<path fill="none" stroke="black" d="M107.721,-736.449C108.258,-725.662 110.675,-682.742 116.6,-648 118.269,-638.216 120.971,-627.306 123.147,-619.201"/>
<polygon fill="black" stroke="black" points="126.519,-620.137 125.841,-609.564 119.778,-618.252 126.519,-620.137"/>
<text text-anchor="middle" x="146.1" y="-662.3" font-family="Times,serif" font-size="14.00">version_ch</text>
</g>
<!-- p3 -->
<g id="node6" class="node"><title>p3</title>
<ellipse fill="black" stroke="black" cx="87.6" cy="-874" rx="3.6" ry="3.6"/>
<text text-anchor="middle" x="42" y="-881.4" font-family="Times,serif" font-size="14.00">Channel.empty</text>
</g>
<!-- p3&#45;&gt;p6 -->
<g id="edge4" class="edge"><title>p3&#45;&gt;p6</title>
<path fill="none" stroke="black" d="M87.8659,-870.265C88.7538,-861.133 91.6559,-831.282 93.3466,-813.892"/>
<polygon fill="black" stroke="black" points="96.8497,-814.029 94.3339,-803.737 89.8826,-813.352 96.8497,-814.029"/>
<text text-anchor="middle" x="122.1" y="-826.3" font-family="Times,serif" font-size="14.00">version_ch</text>
</g>
<!-- p6&#45;&gt;p8 -->
<g id="edge8" class="edge"><title>p6&#45;&gt;p8</title>
<path fill="none" stroke="black" d="M94.225,-796.24C93.4732,-789.997 92.1338,-774.376 95.6,-762 96.6313,-758.318 98.4473,-754.598 100.359,-751.333"/>
<polygon fill="black" stroke="black" points="103.259,-753.293 105.96,-743.049 97.4599,-749.373 103.259,-753.293"/>
<text text-anchor="middle" x="115.6" y="-766.3" font-family="Times,serif" font-size="14.00">version</text>
</g>
<!-- p4 -->
<g id="node8" class="node"><title>p4</title>
<ellipse fill="black" stroke="black" cx="344.6" cy="-948" rx="3.6" ry="3.6"/>
</g>
<!-- p4&#45;&gt;p5 -->
<g id="edge5" class="edge"><title>p4&#45;&gt;p5</title>
<path fill="none" stroke="black" d="M343.688,-944.265C341.363,-937.288 335.006,-918.219 329.551,-901.852"/>
<polygon fill="black" stroke="black" points="332.797,-900.523 326.314,-892.143 326.156,-902.737 332.797,-900.523"/>
<text text-anchor="middle" x="351.6" y="-914.3" font-family="Times,serif" font-size="14.00">meta</text>
</g>
<!-- p9 -->
<g id="node10" class="node"><title>p9</title>
<ellipse fill="none" stroke="black" cx="320.6" cy="-740" rx="3.25" ry="3.5"/>
<text text-anchor="middle" x="304.6" y="-747.3" font-family="Times,serif" font-size="14.00">map</text>
</g>
<!-- p7&#45;&gt;p9 -->
<g id="edge9" class="edge"><title>p7&#45;&gt;p9</title>
<path fill="none" stroke="black" d="M320.6,-796.203C320.6,-788.649 320.6,-767.48 320.6,-753.66"/>
<polygon fill="black" stroke="black" points="324.1,-753.636 320.6,-743.636 317.1,-753.636 324.1,-753.636"/>
<text text-anchor="middle" x="338.1" y="-766.3" font-family="Times,serif" font-size="14.00">output</text>
</g>
<!-- p11 -->
<g id="node12" class="node"><title>p11</title>
<ellipse fill="none" stroke="black" cx="313.6" cy="-666" rx="128.533" ry="18"/>
<text text-anchor="middle" x="313.6" y="-662.3" font-family="Times,serif" font-size="14.00">MAP_BWA_01:BWA_MEM_01</text>
</g>
<!-- p9&#45;&gt;p11 -->
<g id="edge11" class="edge"><title>p9&#45;&gt;p11</title>
<path fill="none" stroke="black" d="M320.334,-736.265C319.662,-729.354 317.837,-710.578 316.256,-694.316"/>
<polygon fill="black" stroke="black" points="319.718,-693.757 315.267,-684.143 312.751,-694.435 319.718,-693.757"/>
<text text-anchor="middle" x="340.1" y="-706.3" font-family="Times,serif" font-size="14.00">r1r2_ch</text>
</g>
<!-- p18 -->
<g id="node16" class="node"><title>p18</title>
<ellipse fill="none" stroke="black" cx="266.6" cy="-444" rx="3.25" ry="3.5"/>
<text text-anchor="middle" x="252.1" y="-451.3" font-family="Times,serif" font-size="14.00">mix</text>
</g>
<!-- p13&#45;&gt;p18 -->
<g id="edge16" class="edge"><title>p13&#45;&gt;p18</title>
<path fill="none" stroke="black" d="M126.056,-602.473C123.746,-591.048 115.747,-543.504 135.6,-514 163.845,-472.023 226.097,-453.806 253.366,-447.627"/>
<polygon fill="black" stroke="black" points="254.331,-451.002 263.416,-445.551 252.914,-444.147 254.331,-451.002"/>
<text text-anchor="middle" x="165.1" y="-528.3" font-family="Times,serif" font-size="14.00">version_ch</text>
</g>
<!-- p14 -->
<g id="node14" class="node"><title>p14</title>
<ellipse fill="none" stroke="black" cx="415.6" cy="-606" rx="3.25" ry="3.5"/>
<text text-anchor="middle" x="381.1" y="-613.3" font-family="Times,serif" font-size="14.00">groupTuple</text>
</g>
<!-- p11&#45;&gt;p14 -->
<g id="edge13" class="edge"><title>p11&#45;&gt;p14</title>
<path fill="none" stroke="black" d="M342.829,-648.38C363.282,-636.749 389.487,-621.849 404.218,-613.472"/>
<polygon fill="black" stroke="black" points="406,-616.485 412.962,-608.5 402.539,-610.4 406,-616.485"/>
</g>
<!-- p12 -->
<g id="node15" class="node"><title>p12</title>
<ellipse fill="black" stroke="black" cx="294.6" cy="-606" rx="1.8" ry="1.8"/>
</g>
<!-- p11&#45;&gt;p12 -->
<g id="edge14" class="edge"><title>p11&#45;&gt;p12</title>
<path fill="none" stroke="black" d="M308.002,-647.912C304.784,-638.088 300.843,-626.056 298.07,-617.592"/>
<polygon fill="black" stroke="black" points="301.385,-616.47 294.946,-608.056 294.733,-618.649 301.385,-616.47"/>
</g>
<!-- p11&#45;&gt;p13 -->
<g id="edge15" class="edge"><title>p11&#45;&gt;p13</title>
<path fill="none" stroke="black" d="M262.995,-649.304C220.8,-636.217 163.726,-618.515 138.939,-610.827"/>
<polygon fill="black" stroke="black" points="139.956,-607.478 129.368,-607.859 137.882,-614.164 139.956,-607.478"/>
</g>
<!-- p10 -->
<g id="node13" class="node"><title>p10</title>
<ellipse fill="black" stroke="black" cx="269.6" cy="-740" rx="3.6" ry="3.6"/>
</g>
<!-- p10&#45;&gt;p11 -->
<g id="edge12" class="edge"><title>p10&#45;&gt;p11</title>
<path fill="none" stroke="black" d="M270.526,-736.185C272.678,-729.831 278.386,-713.995 285.6,-702 287.56,-698.741 289.792,-695.45 292.121,-692.259"/>
<polygon fill="black" stroke="black" points="295.053,-694.19 298.392,-684.135 289.511,-689.913 295.053,-694.19"/>
<text text-anchor="middle" x="299.6" y="-706.3" font-family="Times,serif" font-size="14.00">meta</text>
</g>
<!-- p17 -->
<g id="node17" class="node"><title>p17</title>
<ellipse fill="none" stroke="black" cx="368.6" cy="-532" rx="165.128" ry="18"/>
<text text-anchor="middle" x="368.6" y="-528.3" font-family="Times,serif" font-size="14.00">MAP_BWA_01:SAMTOOLS_MERGE_01</text>
</g>
<!-- p14&#45;&gt;p17 -->
<g id="edge17" class="edge"><title>p14&#45;&gt;p17</title>
<path fill="none" stroke="black" d="M417.134,-602.854C421.158,-596.936 431.266,-580.027 424.6,-568 422.094,-563.478 418.733,-559.463 414.896,-555.917"/>
<polygon fill="black" stroke="black" points="417.037,-553.148 407.031,-549.666 412.682,-558.628 417.037,-553.148"/>
</g>
<!-- p21 -->
<g id="node21" class="node"><title>p21</title>
<ellipse fill="none" stroke="black" cx="451.6" cy="-356" rx="3.25" ry="3.5"/>
<text text-anchor="middle" x="437.1" y="-363.3" font-family="Times,serif" font-size="14.00">mix</text>
</g>
<!-- p18&#45;&gt;p21 -->
<g id="edge22" class="edge"><title>p18&#45;&gt;p21</title>
<path fill="none" stroke="black" d="M267.921,-440.211C269.808,-436.496 273.608,-429.937 278.6,-426 329.695,-385.7 407.37,-366.12 438.257,-359.588"/>
<polygon fill="black" stroke="black" points="439.292,-362.951 448.416,-357.565 437.925,-356.086 439.292,-362.951"/>
<text text-anchor="middle" x="365.1" y="-396.3" font-family="Times,serif" font-size="14.00">version_ch</text>
</g>
<!-- p20 -->
<g id="node20" class="node"><title>p20</title>
<ellipse fill="none" stroke="black" cx="470.6" cy="-444" rx="182.451" ry="18"/>
<text text-anchor="middle" x="470.6" y="-440.3" font-family="Times,serif" font-size="14.00">MAP_BWA_01:SAMBAMBA_MARKDUP_01</text>
</g>
<!-- p17&#45;&gt;p20 -->
<g id="edge20" class="edge"><title>p17&#45;&gt;p20</title>
<path fill="none" stroke="black" d="M388.752,-514.009C404.119,-501.052 425.472,-483.049 442.515,-468.68"/>
<polygon fill="black" stroke="black" points="445.101,-471.077 450.49,-461.956 440.589,-465.726 445.101,-471.077"/>
</g>
<!-- p17&#45;&gt;p18 -->
<g id="edge21" class="edge"><title>p17&#45;&gt;p18</title>
<path fill="none" stroke="black" d="M342.48,-514.128C323.548,-501.18 297.976,-482.155 278.6,-462 276.948,-460.281 275.35,-458.319 273.888,-456.352"/>
<polygon fill="black" stroke="black" points="276.532,-454.005 268.092,-447.6 270.695,-457.87 276.532,-454.005"/>
</g>
<!-- p15 -->
<g id="node18" class="node"><title>p15</title>
<ellipse fill="black" stroke="black" cx="317.6" cy="-606" rx="3.6" ry="3.6"/>
</g>
<!-- p15&#45;&gt;p17 -->
<g id="edge18" class="edge"><title>p15&#45;&gt;p17</title>
<path fill="none" stroke="black" d="M318.592,-602.537C321.119,-596.409 328.191,-580.095 336.6,-568 339.032,-564.502 341.789,-560.987 344.639,-557.607"/>
<polygon fill="black" stroke="black" points="347.339,-559.837 351.352,-550.031 342.1,-555.195 347.339,-559.837"/>
<text text-anchor="middle" x="350.6" y="-572.3" font-family="Times,serif" font-size="14.00">meta</text>
</g>
<!-- p16 -->
<g id="node19" class="node"><title>p16</title>
<ellipse fill="black" stroke="black" cx="368.6" cy="-606" rx="3.6" ry="3.6"/>
</g>
<!-- p16&#45;&gt;p17 -->
<g id="edge19" class="edge"><title>p16&#45;&gt;p17</title>
<path fill="none" stroke="black" d="M368.6,-602.265C368.6,-595.354 368.6,-576.578 368.6,-560.316"/>
<polygon fill="black" stroke="black" points="372.1,-560.143 368.6,-550.143 365.1,-560.143 372.1,-560.143"/>
<text text-anchor="middle" x="396.1" y="-572.3" font-family="Times,serif" font-size="14.00">genomeId</text>
</g>
<!-- p24 -->
<g id="node23" class="node"><title>p24</title>
<ellipse fill="none" stroke="black" cx="674.6" cy="-356" rx="201.223" ry="18"/>
<text text-anchor="middle" x="674.6" y="-352.3" font-family="Times,serif" font-size="14.00">MAP_BWA_01:SAMTOOLS_BAM_TO_CRAM_01</text>
</g>
<!-- p20&#45;&gt;p24 -->
<g id="edge24" class="edge"><title>p20&#45;&gt;p24</title>
<path fill="none" stroke="black" d="M509.933,-426.418C542.847,-412.543 589.974,-392.676 625.385,-377.748"/>
<polygon fill="black" stroke="black" points="627.185,-380.787 635.04,-373.677 624.466,-374.337 627.185,-380.787"/>
</g>
<!-- p20&#45;&gt;p21 -->
<g id="edge25" class="edge"><title>p20&#45;&gt;p21</title>
<path fill="none" stroke="black" d="M466.755,-425.597C463.098,-409.046 457.684,-384.54 454.414,-369.737"/>
<polygon fill="black" stroke="black" points="457.765,-368.681 452.19,-359.671 450.93,-370.191 457.765,-368.681"/>
</g>
<!-- p27 -->
<g id="node24" class="node"><title>p27</title>
<ellipse fill="none" stroke="black" cx="550.6" cy="-282" rx="3.25" ry="3.5"/>
<text text-anchor="middle" x="536.1" y="-289.3" font-family="Times,serif" font-size="14.00">mix</text>
</g>
<!-- p21&#45;&gt;p27 -->
<g id="edge26" class="edge"><title>p21&#45;&gt;p27</title>
<path fill="none" stroke="black" d="M453.205,-352.354C455.447,-348.801 459.786,-342.426 464.6,-338 488.132,-316.363 521.198,-297.912 538.68,-288.899"/>
<polygon fill="black" stroke="black" points="540.607,-291.848 547.985,-284.244 537.475,-285.588 540.607,-291.848"/>
<text text-anchor="middle" x="540.1" y="-308.3" font-family="Times,serif" font-size="14.00">version_ch</text>
</g>
<!-- p19 -->
<g id="node22" class="node"><title>p19</title>
<ellipse fill="black" stroke="black" cx="555.6" cy="-532" rx="3.6" ry="3.6"/>
</g>
<!-- p19&#45;&gt;p20 -->
<g id="edge23" class="edge"><title>p19&#45;&gt;p20</title>
<path fill="none" stroke="black" d="M553.862,-528.485C551.469,-525.081 546.96,-518.874 542.6,-514 528.478,-498.213 511.41,-481.756 497.437,-468.875"/>
<polygon fill="black" stroke="black" points="499.776,-466.271 490.031,-462.114 495.056,-471.441 499.776,-466.271"/>
<text text-anchor="middle" x="537.6" y="-484.3" font-family="Times,serif" font-size="14.00">meta</text>
</g>
<!-- p26 -->
<g id="node27" class="node"><title>p26</title>
<ellipse fill="black" stroke="black" cx="690.6" cy="-282" rx="1.8" ry="1.8"/>
</g>
<!-- p24&#45;&gt;p26 -->
<g id="edge29" class="edge"><title>p24&#45;&gt;p26</title>
<path fill="none" stroke="black" d="M678.392,-337.937C681.44,-324.219 685.628,-305.373 688.222,-293.701"/>
<polygon fill="black" stroke="black" points="691.659,-294.37 690.411,-283.849 684.825,-292.852 691.659,-294.37"/>
<text text-anchor="middle" x="700.6" y="-308.3" font-family="Times,serif" font-size="14.00">bams</text>
</g>
<!-- p25 -->
<g id="node28" class="node"><title>p25</title>
<ellipse fill="black" stroke="black" cx="657.6" cy="-282" rx="1.8" ry="1.8"/>
</g>
<!-- p24&#45;&gt;p25 -->
<g id="edge30" class="edge"><title>p24&#45;&gt;p25</title>
<path fill="none" stroke="black" d="M670.571,-337.937C667.332,-324.219 662.883,-305.373 660.127,-293.701"/>
<polygon fill="black" stroke="black" points="663.505,-292.777 657.801,-283.849 656.692,-294.386 663.505,-292.777"/>
</g>
<!-- p24&#45;&gt;p27 -->
<g id="edge31" class="edge"><title>p24&#45;&gt;p27</title>
<path fill="none" stroke="black" d="M645.528,-338.119C618.845,-322.626 580.7,-300.477 561.925,-289.576"/>
<polygon fill="black" stroke="black" points="563.581,-286.49 553.176,-284.496 560.066,-292.544 563.581,-286.49"/>
</g>
<!-- p28 -->
<g id="node29" class="node"><title>p28</title>
<ellipse fill="none" stroke="black" cx="550.6" cy="-222" rx="3.25" ry="3.5"/>
<text text-anchor="middle" x="528.6" y="-229.3" font-family="Times,serif" font-size="14.00">collect</text>
</g>
<!-- p27&#45;&gt;p28 -->
<g id="edge32" class="edge"><title>p27&#45;&gt;p28</title>
<path fill="none" stroke="black" d="M550.6,-278.203C550.6,-270.649 550.6,-249.48 550.6,-235.66"/>
<polygon fill="black" stroke="black" points="554.1,-235.636 550.6,-225.636 547.1,-235.636 554.1,-235.636"/>
<text text-anchor="middle" x="580.1" y="-248.3" font-family="Times,serif" font-size="14.00">version_ch</text>
</g>
<!-- p22 -->
<g id="node25" class="node"><title>p22</title>
<ellipse fill="black" stroke="black" cx="752.6" cy="-444" rx="3.6" ry="3.6"/>
</g>
<!-- p22&#45;&gt;p24 -->
<g id="edge27" class="edge"><title>p22&#45;&gt;p24</title>
<path fill="none" stroke="black" d="M752.054,-440.372C750.267,-432.306 743.921,-407.507 730.6,-392 726.723,-387.487 722.117,-383.366 717.237,-379.663"/>
<polygon fill="black" stroke="black" points="719.054,-376.663 708.845,-373.83 715.059,-382.411 719.054,-376.663"/>
<text text-anchor="middle" x="753.6" y="-396.3" font-family="Times,serif" font-size="14.00">meta</text>
</g>
<!-- p23 -->
<g id="node26" class="node"><title>p23</title>
<ellipse fill="black" stroke="black" cx="674.6" cy="-444" rx="3.6" ry="3.6"/>
</g>
<!-- p23&#45;&gt;p24 -->
<g id="edge28" class="edge"><title>p23&#45;&gt;p24</title>
<path fill="none" stroke="black" d="M674.6,-440.139C674.6,-431.502 674.6,-405.011 674.6,-384.227"/>
<polygon fill="black" stroke="black" points="678.1,-384.004 674.6,-374.004 671.1,-384.004 678.1,-384.004"/>
<text text-anchor="middle" x="702.1" y="-396.3" font-family="Times,serif" font-size="14.00">genomeId</text>
</g>
<!-- p30 -->
<g id="node30" class="node"><title>p30</title>
<ellipse fill="none" stroke="black" cx="566.6" cy="-148" rx="142.481" ry="18"/>
<text text-anchor="middle" x="566.6" y="-144.3" font-family="Times,serif" font-size="14.00">MAP_BWA_01:MERGE_VERSION</text>
</g>
<!-- p28&#45;&gt;p30 -->
<g id="edge33" class="edge"><title>p28&#45;&gt;p30</title>
<path fill="none" stroke="black" d="M551.208,-218.265C552.744,-211.354 556.916,-192.578 560.53,-176.316"/>
<polygon fill="black" stroke="black" points="564.038,-176.664 562.79,-166.143 557.204,-175.145 564.038,-176.664"/>
</g>
<!-- p31 -->
<g id="node32" class="node"><title>p31</title>
<ellipse fill="none" stroke="black" cx="566.6" cy="-60" rx="94.338" ry="18"/>
<text text-anchor="middle" x="566.6" y="-56.3" font-family="Times,serif" font-size="14.00">VERSION_TO_HTML</text>
</g>
<!-- p30&#45;&gt;p31 -->
<g id="edge35" class="edge"><title>p30&#45;&gt;p31</title>
<path fill="none" stroke="black" d="M566.6,-129.597C566.6,-117.746 566.6,-101.817 566.6,-88.2917"/>
<polygon fill="black" stroke="black" points="570.1,-88.084 566.6,-78.084 563.1,-88.084 570.1,-88.084"/>
<text text-anchor="middle" x="586.6" y="-100.3" font-family="Times,serif" font-size="14.00">version</text>
</g>
<!-- p29 -->
<g id="node31" class="node"><title>p29</title>
<ellipse fill="black" stroke="black" cx="583.6" cy="-222" rx="3.6" ry="3.6"/>
</g>
<!-- p29&#45;&gt;p30 -->
<g id="edge34" class="edge"><title>p29&#45;&gt;p30</title>
<path fill="none" stroke="black" d="M582.954,-218.265C581.322,-211.354 576.889,-192.578 573.05,-176.316"/>
<polygon fill="black" stroke="black" points="576.352,-175.071 570.648,-166.143 569.539,-176.68 576.352,-175.071"/>
<text text-anchor="middle" x="593.1" y="-188.3" font-family="Times,serif" font-size="14.00">name</text>
</g>
<!-- p32 -->
<g id="node33" class="node"><title>p32</title>
<ellipse fill="black" stroke="black" cx="566.6" cy="-2" rx="1.8" ry="1.8"/>
</g>
<!-- p31&#45;&gt;p32 -->
<g id="edge36" class="edge"><title>p31&#45;&gt;p32</title>
<path fill="none" stroke="black" d="M566.6,-41.8939C566.6,-32.8876 566.6,-22.0999 566.6,-14.1727"/>
<polygon fill="black" stroke="black" points="570.1,-13.9957 566.6,-3.99575 563.1,-13.9958 570.1,-13.9957"/>
</g>
</g>
</svg>
