<?xml version="1.0" encoding="UTF-8" standalone="no"?>
<!DOCTYPE svg PUBLIC "-//W3C//DTD SVG 1.1//EN"
 "http://www.w3.org/Graphics/SVG/1.1/DTD/svg11.dtd">
<!-- Generated by graphviz version 2.30.1 (20201013.1554)
 -->
<!-- Title: 20220712fastqcworkflow Pages: 1 -->
<svg width="537pt" height="1357pt"
 viewBox="0.00 0.00 537.00 1356.60" xmlns="http://www.w3.org/2000/svg" xmlns:xlink="http://www.w3.org/1999/xlink">
<g id="graph0" class="graph" transform="scale(1 1) rotate(0) translate(4 1352.6)">
<title>20220712fastqcworkflow</title>
<polygon fill="white" stroke="white" points="-4,5 -4,-1352.6 534,-1352.6 534,5 -4,5"/>
<!-- p0 -->
<g id="node1" class="node"><title>p0</title>
<ellipse fill="black" stroke="black" cx="172" cy="-1330" rx="3.6" ry="3.6"/>
<text text-anchor="middle" x="118.4" y="-1337.4" font-family="Times,serif" font-size="14.00">Channel.fromPath</text>
</g>
<!-- p8 -->
<g id="node2" class="node"><title>p8</title>
<ellipse fill="none" stroke="black" cx="172" cy="-1270" rx="3.25" ry="3.5"/>
<text text-anchor="middle" x="145.5" y="-1277.3" font-family="Times,serif" font-size="14.00">splitText</text>
</g>
<!-- p0&#45;&gt;p8 -->
<g id="edge1" class="edge"><title>p0&#45;&gt;p8</title>
<path fill="none" stroke="black" d="M172,-1326.2C172,-1318.65 172,-1297.48 172,-1283.66"/>
<polygon fill="black" stroke="black" points="175.5,-1283.64 172,-1273.64 168.5,-1283.64 175.5,-1283.64"/>
<text text-anchor="middle" x="188" y="-1296.3" font-family="Times,serif" font-size="14.00">fastqs</text>
</g>
<!-- p9 -->
<g id="node13" class="node"><title>p9</title>
<ellipse fill="none" stroke="black" cx="172" cy="-1224" rx="3.25" ry="3.5"/>
<text text-anchor="middle" x="156" y="-1231.3" font-family="Times,serif" font-size="14.00">map</text>
</g>
<!-- p8&#45;&gt;p9 -->
<g id="edge11" class="edge"><title>p8&#45;&gt;p9</title>
<path fill="none" stroke="black" d="M172,-1266.38C172,-1260.86 172,-1247.74 172,-1237.74"/>
<polygon fill="black" stroke="black" points="175.5,-1237.55 172,-1227.55 168.5,-1237.55 175.5,-1237.55"/>
</g>
<!-- p1 -->
<g id="node3" class="node"><title>p1</title>
<ellipse fill="black" stroke="black" cx="330" cy="-998" rx="3.6" ry="3.6"/>
<text text-anchor="middle" x="284.4" y="-1005.4" font-family="Times,serif" font-size="14.00">Channel.empty</text>
</g>
<!-- p4 -->
<g id="node4" class="node"><title>p4</title>
<ellipse fill="none" stroke="black" cx="404" cy="-924" rx="3.25" ry="3.5"/>
<text text-anchor="middle" x="411.5" y="-931.3" font-family="Times,serif" font-size="14.00">mix</text>
</g>
<!-- p1&#45;&gt;p4 -->
<g id="edge2" class="edge"><title>p1&#45;&gt;p4</title>
<path fill="none" stroke="black" d="M329.121,-994.329C327.129,-987.725 323.033,-970.411 331,-960 347.919,-937.89 368.096,-957.828 391,-942 393.373,-940.36 395.502,-938.152 397.317,-935.871"/>
<polygon fill="black" stroke="black" points="400.333,-937.652 402.828,-927.355 394.456,-933.849 400.333,-937.652"/>
<text text-anchor="middle" x="360.5" y="-964.3" font-family="Times,serif" font-size="14.00">version_ch</text>
</g>
<!-- p7 -->
<g id="node8" class="node"><title>p7</title>
<ellipse fill="none" stroke="black" cx="330" cy="-850" rx="3.25" ry="3.5"/>
<text text-anchor="middle" x="315.5" y="-857.3" font-family="Times,serif" font-size="14.00">mix</text>
</g>
<!-- p4&#45;&gt;p7 -->
<g id="edge6" class="edge"><title>p4&#45;&gt;p7</title>
<path fill="none" stroke="black" d="M402.284,-920.465C399.915,-917.04 395.433,-910.807 391,-906 374.524,-888.134 352.948,-869.679 340.366,-859.338"/>
<polygon fill="black" stroke="black" points="342.448,-856.52 332.473,-852.95 338.045,-861.962 342.448,-856.52"/>
<text text-anchor="middle" x="401.5" y="-876.3" font-family="Times,serif" font-size="14.00">version_ch</text>
</g>
<!-- p2 -->
<g id="node5" class="node"><title>p2</title>
<ellipse fill="black" stroke="black" cx="370" cy="-1132" rx="3.6" ry="3.6"/>
</g>
<!-- p3 -->
<g id="node6" class="node"><title>p3</title>
<ellipse fill="none" stroke="black" cx="370" cy="-1058" rx="159.354" ry="18"/>
<text text-anchor="middle" x="370" y="-1054.3" font-family="Times,serif" font-size="14.00">FASTQC_01:WGET_CONTAMINANTS</text>
</g>
<!-- p2&#45;&gt;p3 -->
<g id="edge3" class="edge"><title>p2&#45;&gt;p3</title>
<path fill="none" stroke="black" d="M370,-1128.27C370,-1121.35 370,-1102.58 370,-1086.32"/>
<polygon fill="black" stroke="black" points="373.5,-1086.14 370,-1076.14 366.5,-1086.14 373.5,-1086.14"/>
<text text-anchor="middle" x="384" y="-1098.3" font-family="Times,serif" font-size="14.00">meta</text>
</g>
<!-- p13 -->
<g id="node7" class="node"><title>p13</title>
<ellipse fill="none" stroke="black" cx="172" cy="-998" rx="3.25" ry="3.5"/>
<text text-anchor="middle" x="144.5" y="-1005.3" font-family="Times,serif" font-size="14.00">combine</text>
</g>
<!-- p3&#45;&gt;p13 -->
<g id="edge4" class="edge"><title>p3&#45;&gt;p13</title>
<path fill="none" stroke="black" d="M315.634,-1041.07C270.77,-1027.93 210.44,-1010.26 184.601,-1002.69"/>
<polygon fill="black" stroke="black" points="185.486,-999.303 174.905,-999.851 183.518,-1006.02 185.486,-999.303"/>
</g>
<!-- p3&#45;&gt;p4 -->
<g id="edge5" class="edge"><title>p3&#45;&gt;p4</title>
<path fill="none" stroke="black" d="M374.445,-1039.74C381.403,-1012.73 394.7,-961.108 400.799,-937.428"/>
<polygon fill="black" stroke="black" points="404.206,-938.231 403.311,-927.674 397.427,-936.485 404.206,-938.231"/>
</g>
<!-- p14 -->
<g id="node17" class="node"><title>p14</title>
<ellipse fill="none" stroke="black" cx="94" cy="-924" rx="3.25" ry="3.5"/>
<text text-anchor="middle" x="78" y="-931.3" font-family="Times,serif" font-size="14.00">map</text>
</g>
<!-- p13&#45;&gt;p14 -->
<g id="edge16" class="edge"><title>p13&#45;&gt;p14</title>
<path fill="none" stroke="black" d="M169.527,-995.304C160.408,-988.977 128.053,-965.894 106,-942 104.383,-940.248 102.802,-938.269 101.346,-936.297"/>
<polygon fill="black" stroke="black" points="103.984,-933.946 95.5198,-927.574 98.1634,-937.834 103.984,-933.946"/>
</g>
<!-- p19 -->
<g id="node12" class="node"><title>p19</title>
<ellipse fill="none" stroke="black" cx="330" cy="-670" rx="3.25" ry="3.5"/>
<text text-anchor="middle" x="315.5" y="-677.3" font-family="Times,serif" font-size="14.00">mix</text>
</g>
<!-- p7&#45;&gt;p19 -->
<g id="edge10" class="edge"><title>p7&#45;&gt;p19</title>
<path fill="none" stroke="black" d="M330,-846.484C330,-828.72 330,-721.83 330,-684.142"/>
<polygon fill="black" stroke="black" points="333.5,-683.681 330,-673.681 326.5,-683.681 333.5,-683.681"/>
<text text-anchor="middle" x="359.5" y="-770.3" font-family="Times,serif" font-size="14.00">version_ch</text>
</g>
<!-- p5 -->
<g id="node9" class="node"><title>p5</title>
<ellipse fill="black" stroke="black" cx="249" cy="-998" rx="3.6" ry="3.6"/>
</g>
<!-- p6 -->
<g id="node10" class="node"><title>p6</title>
<ellipse fill="none" stroke="black" cx="249" cy="-924" rx="133.333" ry="18"/>
<text text-anchor="middle" x="249" y="-920.3" font-family="Times,serif" font-size="14.00">FASTQC_01:WGET_ADAPTERS</text>
</g>
<!-- p5&#45;&gt;p6 -->
<g id="edge7" class="edge"><title>p5&#45;&gt;p6</title>
<path fill="none" stroke="black" d="M249,-994.265C249,-987.354 249,-968.578 249,-952.316"/>
<polygon fill="black" stroke="black" points="252.5,-952.143 249,-942.143 245.5,-952.143 252.5,-952.143"/>
<text text-anchor="middle" x="263" y="-964.3" font-family="Times,serif" font-size="14.00">meta</text>
</g>
<!-- p15 -->
<g id="node11" class="node"><title>p15</title>
<ellipse fill="none" stroke="black" cx="136" cy="-850" rx="3.25" ry="3.5"/>
<text text-anchor="middle" x="108.5" y="-857.3" font-family="Times,serif" font-size="14.00">combine</text>
</g>
<!-- p6&#45;&gt;p15 -->
<g id="edge8" class="edge"><title>p6&#45;&gt;p15</title>
<path fill="none" stroke="black" d="M222.792,-906.301C198.831,-891.034 164.552,-869.193 147.112,-858.08"/>
<polygon fill="black" stroke="black" points="148.674,-854.926 138.36,-852.504 144.913,-860.829 148.674,-854.926"/>
</g>
<!-- p6&#45;&gt;p7 -->
<g id="edge9" class="edge"><title>p6&#45;&gt;p7</title>
<path fill="none" stroke="black" d="M268.196,-905.937C284.599,-891.356 307.52,-870.982 320.34,-859.587"/>
<polygon fill="black" stroke="black" points="322.75,-862.128 327.898,-852.868 318.099,-856.896 322.75,-862.128"/>
</g>
<!-- p16 -->
<g id="node18" class="node"><title>p16</title>
<ellipse fill="none" stroke="black" cx="136" cy="-804" rx="3.25" ry="3.5"/>
<text text-anchor="middle" x="120" y="-811.3" font-family="Times,serif" font-size="14.00">map</text>
</g>
<!-- p15&#45;&gt;p16 -->
<g id="edge18" class="edge"><title>p15&#45;&gt;p16</title>
<path fill="none" stroke="black" d="M136,-846.379C136,-840.864 136,-827.742 136,-817.742"/>
<polygon fill="black" stroke="black" points="139.5,-817.552 136,-807.552 132.5,-817.552 139.5,-817.552"/>
</g>
<!-- p24 -->
<g id="node22" class="node"><title>p24</title>
<ellipse fill="none" stroke="black" cx="322" cy="-490" rx="3.25" ry="3.5"/>
<text text-anchor="middle" x="307.5" y="-497.3" font-family="Times,serif" font-size="14.00">mix</text>
</g>
<!-- p19&#45;&gt;p24 -->
<g id="edge23" class="edge"><title>p19&#45;&gt;p24</title>
<path fill="none" stroke="black" d="M329.887,-666.484C329.089,-648.72 324.284,-541.83 322.591,-504.142"/>
<polygon fill="black" stroke="black" points="326.066,-503.513 322.12,-493.681 319.073,-503.828 326.066,-503.513"/>
<text text-anchor="middle" x="356.5" y="-590.3" font-family="Times,serif" font-size="14.00">version_ch</text>
</g>
<!-- p10 -->
<g id="node14" class="node"><title>p10</title>
<ellipse fill="none" stroke="black" cx="172" cy="-1178" rx="3.25" ry="3.5"/>
<text text-anchor="middle" x="155.5" y="-1185.3" font-family="Times,serif" font-size="14.00">filter</text>
</g>
<!-- p9&#45;&gt;p10 -->
<g id="edge12" class="edge"><title>p9&#45;&gt;p10</title>
<path fill="none" stroke="black" d="M172,-1220.38C172,-1214.86 172,-1201.74 172,-1191.74"/>
<polygon fill="black" stroke="black" points="175.5,-1191.55 172,-1181.55 168.5,-1191.55 175.5,-1191.55"/>
</g>
<!-- p11 -->
<g id="node15" class="node"><title>p11</title>
<ellipse fill="none" stroke="black" cx="172" cy="-1132" rx="3.25" ry="3.5"/>
<text text-anchor="middle" x="155.5" y="-1139.3" font-family="Times,serif" font-size="14.00">filter</text>
</g>
<!-- p10&#45;&gt;p11 -->
<g id="edge13" class="edge"><title>p10&#45;&gt;p11</title>
<path fill="none" stroke="black" d="M172,-1174.38C172,-1168.86 172,-1155.74 172,-1145.74"/>
<polygon fill="black" stroke="black" points="175.5,-1145.55 172,-1135.55 168.5,-1145.55 175.5,-1145.55"/>
</g>
<!-- p12 -->
<g id="node16" class="node"><title>p12</title>
<ellipse fill="none" stroke="black" cx="172" cy="-1058" rx="3.25" ry="3.5"/>
<text text-anchor="middle" x="156" y="-1065.3" font-family="Times,serif" font-size="14.00">map</text>
</g>
<!-- p11&#45;&gt;p12 -->
<g id="edge14" class="edge"><title>p11&#45;&gt;p12</title>
<path fill="none" stroke="black" d="M172,-1128.27C172,-1119.13 172,-1089.28 172,-1071.89"/>
<polygon fill="black" stroke="black" points="175.5,-1071.74 172,-1061.74 168.5,-1071.74 175.5,-1071.74"/>
</g>
<!-- p12&#45;&gt;p13 -->
<g id="edge15" class="edge"><title>p12&#45;&gt;p13</title>
<path fill="none" stroke="black" d="M172,-1054.2C172,-1046.65 172,-1025.48 172,-1011.66"/>
<polygon fill="black" stroke="black" points="175.5,-1011.64 172,-1001.64 168.5,-1011.64 175.5,-1011.64"/>
</g>
<!-- p14&#45;&gt;p15 -->
<g id="edge17" class="edge"><title>p14&#45;&gt;p15</title>
<path fill="none" stroke="black" d="M95.3974,-920.604C100.628,-911.637 119.268,-879.683 129.373,-862.36"/>
<polygon fill="black" stroke="black" points="132.539,-863.88 134.554,-853.478 126.492,-860.353 132.539,-863.88"/>
</g>
<!-- p18 -->
<g id="node19" class="node"><title>p18</title>
<ellipse fill="none" stroke="black" cx="162" cy="-730" rx="137.207" ry="18"/>
<text text-anchor="middle" x="162" y="-726.3" font-family="Times,serif" font-size="14.00">FASTQC_01:APPLY_FASTQC_01</text>
</g>
<!-- p16&#45;&gt;p18 -->
<g id="edge19" class="edge"><title>p16&#45;&gt;p18</title>
<path fill="none" stroke="black" d="M135.536,-800.212C134.602,-793.914 132.913,-778.185 137,-766 138.069,-762.814 139.534,-759.667 141.224,-756.643"/>
<polygon fill="black" stroke="black" points="144.304,-758.325 146.793,-748.027 138.425,-754.525 144.304,-758.325"/>
<text text-anchor="middle" x="176" y="-770.3" font-family="Times,serif" font-size="14.00">each_fastq_ch</text>
</g>
<!-- p20 -->
<g id="node21" class="node"><title>p20</title>
<ellipse fill="none" stroke="black" cx="156" cy="-670" rx="3.25" ry="3.5"/>
<text text-anchor="middle" x="140" y="-677.3" font-family="Times,serif" font-size="14.00">map</text>
</g>
<!-- p18&#45;&gt;p20 -->
<g id="edge21" class="edge"><title>p18&#45;&gt;p20</title>
<path fill="none" stroke="black" d="M160.232,-711.912C159.296,-702.858 158.165,-691.93 157.308,-683.647"/>
<polygon fill="black" stroke="black" points="160.789,-683.277 156.278,-673.691 153.826,-683.998 160.789,-683.277"/>
</g>
<!-- p18&#45;&gt;p19 -->
<g id="edge22" class="edge"><title>p18&#45;&gt;p19</title>
<path fill="none" stroke="black" d="M208.351,-712.998C245.392,-700.21 294.746,-683.171 317.519,-675.309"/>
<polygon fill="black" stroke="black" points="318.878,-678.543 327.188,-671.971 316.594,-671.926 318.878,-678.543"/>
</g>
<!-- p17 -->
<g id="node20" class="node"><title>p17</title>
<ellipse fill="black" stroke="black" cx="237" cy="-804" rx="3.6" ry="3.6"/>
</g>
<!-- p17&#45;&gt;p18 -->
<g id="edge20" class="edge"><title>p17&#45;&gt;p18</title>
<path fill="none" stroke="black" d="M235.948,-800.406C233.245,-793.977 225.523,-777.032 215,-766 210.807,-761.604 205.964,-757.479 200.945,-753.712"/>
<polygon fill="black" stroke="black" points="202.612,-750.606 192.416,-747.726 198.59,-756.336 202.612,-750.606"/>
<text text-anchor="middle" x="241" y="-770.3" font-family="Times,serif" font-size="14.00">meta</text>
</g>
<!-- p21 -->
<g id="node23" class="node"><title>p21</title>
<ellipse fill="none" stroke="black" cx="155" cy="-624" rx="3.25" ry="3.5"/>
<text text-anchor="middle" x="133" y="-631.3" font-family="Times,serif" font-size="14.00">collect</text>
</g>
<!-- p20&#45;&gt;p21 -->
<g id="edge24" class="edge"><title>p20&#45;&gt;p21</title>
<path fill="none" stroke="black" d="M155.94,-666.379C155.815,-660.864 155.517,-647.742 155.29,-637.742"/>
<polygon fill="black" stroke="black" points="158.784,-637.47 155.058,-627.552 151.786,-637.629 158.784,-637.47"/>
</g>
<!-- p28 -->
<g id="node27" class="node"><title>p28</title>
<ellipse fill="none" stroke="black" cx="322" cy="-356" rx="3.25" ry="3.5"/>
<text text-anchor="middle" x="307.5" y="-363.3" font-family="Times,serif" font-size="14.00">mix</text>
</g>
<!-- p24&#45;&gt;p28 -->
<g id="edge29" class="edge"><title>p24&#45;&gt;p28</title>
<path fill="none" stroke="black" d="M322,-486.243C322,-471.279 322,-399.397 322,-369.788"/>
<polygon fill="black" stroke="black" points="325.5,-369.742 322,-359.742 318.5,-369.742 325.5,-369.742"/>
<text text-anchor="middle" x="351.5" y="-412.3" font-family="Times,serif" font-size="14.00">version_ch</text>
</g>
<!-- p23 -->
<g id="node24" class="node"><title>p23</title>
<ellipse fill="none" stroke="black" cx="151" cy="-550" rx="151.155" ry="18"/>
<text text-anchor="middle" x="151" y="-546.3" font-family="Times,serif" font-size="14.00">FASTQC_01:COLLECT_TO_FILE_01</text>
</g>
<!-- p21&#45;&gt;p23 -->
<g id="edge25" class="edge"><title>p21&#45;&gt;p23</title>
<path fill="none" stroke="black" d="M154.848,-620.265C154.464,-613.354 153.421,-594.578 152.518,-578.316"/>
<polygon fill="black" stroke="black" points="156.002,-577.933 151.952,-568.143 149.013,-578.322 156.002,-577.933"/>
</g>
<!-- p25 -->
<g id="node26" class="node"><title>p25</title>
<ellipse fill="none" stroke="black" cx="151" cy="-490" rx="3.25" ry="3.5"/>
<text text-anchor="middle" x="135" y="-497.3" font-family="Times,serif" font-size="14.00">map</text>
</g>
<!-- p23&#45;&gt;p25 -->
<g id="edge27" class="edge"><title>p23&#45;&gt;p25</title>
<path fill="none" stroke="black" d="M151,-531.912C151,-522.965 151,-512.187 151,-503.94"/>
<polygon fill="black" stroke="black" points="154.5,-503.691 151,-493.691 147.5,-503.691 154.5,-503.691"/>
</g>
<!-- p23&#45;&gt;p24 -->
<g id="edge28" class="edge"><title>p23&#45;&gt;p24</title>
<path fill="none" stroke="black" d="M198.633,-532.844C236.322,-520.06 286.312,-503.105 309.367,-495.285"/>
<polygon fill="black" stroke="black" points="310.809,-498.492 319.155,-491.965 308.56,-491.863 310.809,-498.492"/>
</g>
<!-- p22 -->
<g id="node25" class="node"><title>p22</title>
<ellipse fill="black" stroke="black" cx="184" cy="-624" rx="3.6" ry="3.6"/>
</g>
<!-- p22&#45;&gt;p23 -->
<g id="edge26" class="edge"><title>p22&#45;&gt;p23</title>
<path fill="none" stroke="black" d="M182.747,-620.265C179.519,-613.222 170.644,-593.859 163.095,-577.39"/>
<polygon fill="black" stroke="black" points="166.205,-575.775 158.857,-568.143 159.842,-578.692 166.205,-575.775"/>
<text text-anchor="middle" x="189" y="-590.3" font-family="Times,serif" font-size="14.00">meta</text>
</g>
<!-- p27 -->
<g id="node28" class="node"><title>p27</title>
<ellipse fill="none" stroke="black" cx="166" cy="-416" rx="112.16" ry="18"/>
<text text-anchor="middle" x="166" y="-412.3" font-family="Times,serif" font-size="14.00">FASTQC_01:MULTIQC_01</text>
</g>
<!-- p25&#45;&gt;p27 -->
<g id="edge30" class="edge"><title>p25&#45;&gt;p27</title>
<path fill="none" stroke="black" d="M151.57,-486.265C153.01,-479.354 156.921,-460.578 160.309,-444.316"/>
<polygon fill="black" stroke="black" points="163.815,-444.647 162.429,-434.143 156.963,-443.219 163.815,-444.647"/>
</g>
<!-- p29 -->
<g id="node31" class="node"><title>p29</title>
<ellipse fill="none" stroke="black" cx="367" cy="-296" rx="3.25" ry="3.5"/>
<text text-anchor="middle" x="345" y="-303.3" font-family="Times,serif" font-size="14.00">collect</text>
</g>
<!-- p28&#45;&gt;p29 -->
<g id="edge34" class="edge"><title>p28&#45;&gt;p29</title>
<path fill="none" stroke="black" d="M323.934,-352.508C329.886,-344.836 348.177,-321.26 358.912,-307.425"/>
<polygon fill="black" stroke="black" points="361.953,-309.214 365.318,-299.168 356.423,-304.923 361.953,-309.214"/>
<text text-anchor="middle" x="379.5" y="-322.3" font-family="Times,serif" font-size="14.00">version_ch</text>
</g>
<!-- p36 -->
<g id="node30" class="node"><title>p36</title>
<ellipse fill="none" stroke="black" cx="246" cy="-60" rx="47.169" ry="18"/>
<text text-anchor="middle" x="246" y="-56.3" font-family="Times,serif" font-size="14.00">PUBLISH</text>
</g>
<!-- p27&#45;&gt;p36 -->
<g id="edge32" class="edge"><title>p27&#45;&gt;p36</title>
<path fill="none" stroke="black" d="M156.819,-398.014C151.562,-386.722 146,-371.379 146,-357 146,-357 146,-357 146,-133 146,-104.42 173.233,-86.0617 199.276,-75.0394"/>
<polygon fill="black" stroke="black" points="200.74,-78.2243 208.764,-71.3052 198.177,-71.7106 200.74,-78.2243"/>
<text text-anchor="middle" x="167.5" y="-262.3" font-family="Times,serif" font-size="14.00">multiqc</text>
</g>
<!-- p27&#45;&gt;p28 -->
<g id="edge33" class="edge"><title>p27&#45;&gt;p28</title>
<path fill="none" stroke="black" d="M208.216,-399.304C242.167,-386.682 287.665,-369.766 309.405,-361.683"/>
<polygon fill="black" stroke="black" points="310.852,-364.879 319.006,-358.113 308.413,-358.318 310.852,-364.879"/>
</g>
<!-- p26 -->
<g id="node29" class="node"><title>p26</title>
<ellipse fill="black" stroke="black" cx="184" cy="-490" rx="3.6" ry="3.6"/>
</g>
<!-- p26&#45;&gt;p27 -->
<g id="edge31" class="edge"><title>p26&#45;&gt;p27</title>
<path fill="none" stroke="black" d="M183.316,-486.265C181.572,-479.288 176.805,-460.219 172.713,-443.852"/>
<polygon fill="black" stroke="black" points="176.107,-442.995 170.286,-434.143 169.316,-444.693 176.107,-442.995"/>
<text text-anchor="middle" x="193" y="-456.3" font-family="Times,serif" font-size="14.00">meta</text>
</g>
<!-- p39 -->
<g id="node38" class="node"><title>p39</title>
<ellipse fill="black" stroke="black" cx="221" cy="-2" rx="1.8" ry="1.8"/>
</g>
<!-- p36&#45;&gt;p39 -->
<g id="edge43" class="edge"><title>p36&#45;&gt;p39</title>
<path fill="none" stroke="black" d="M238.499,-42.1982C234.321,-32.8391 229.251,-21.4816 225.646,-13.4063"/>
<polygon fill="black" stroke="black" points="228.722,-11.7123 221.45,-4.00774 222.33,-14.5659 228.722,-11.7123"/>
</g>
<!-- p38 -->
<g id="node39" class="node"><title>p38</title>
<ellipse fill="black" stroke="black" cx="246" cy="-2" rx="1.8" ry="1.8"/>
</g>
<!-- p36&#45;&gt;p38 -->
<g id="edge44" class="edge"><title>p36&#45;&gt;p38</title>
<path fill="none" stroke="black" d="M246,-41.8939C246,-32.8876 246,-22.0999 246,-14.1727"/>
<polygon fill="black" stroke="black" points="249.5,-13.9957 246,-3.99575 242.5,-13.9958 249.5,-13.9957"/>
</g>
<!-- p37 -->
<g id="node40" class="node"><title>p37</title>
<ellipse fill="black" stroke="black" cx="271" cy="-2" rx="1.8" ry="1.8"/>
</g>
<!-- p36&#45;&gt;p37 -->
<g id="edge45" class="edge"><title>p36&#45;&gt;p37</title>
<path fill="none" stroke="black" d="M253.501,-42.1982C257.679,-32.8391 262.749,-21.4816 266.354,-13.4063"/>
<polygon fill="black" stroke="black" points="269.67,-14.5659 270.55,-4.00774 263.278,-11.7123 269.67,-14.5659"/>
</g>
<!-- p33 -->
<g id="node32" class="node"><title>p33</title>
<ellipse fill="none" stroke="black" cx="307" cy="-222" rx="132.382" ry="18"/>
<text text-anchor="middle" x="307" y="-218.3" font-family="Times,serif" font-size="14.00">FASTQC_01:MERGE_VERSION</text>
</g>
<!-- p29&#45;&gt;p33 -->
<g id="edge35" class="edge"><title>p29&#45;&gt;p33</title>
<path fill="none" stroke="black" d="M368.893,-292.841C373.872,-286.891 386.451,-269.907 379,-258 375.741,-252.792 371.461,-248.339 366.609,-244.536"/>
<polygon fill="black" stroke="black" points="368.234,-241.411 357.984,-238.729 364.325,-247.217 368.234,-241.411"/>
</g>
<!-- p35 -->
<g id="node36" class="node"><title>p35</title>
<ellipse fill="none" stroke="black" cx="399" cy="-134" rx="94.338" ry="18"/>
<text text-anchor="middle" x="399" y="-130.3" font-family="Times,serif" font-size="14.00">VERSION_TO_HTML</text>
</g>
<!-- p33&#45;&gt;p35 -->
<g id="edge39" class="edge"><title>p33&#45;&gt;p35</title>
<path fill="none" stroke="black" d="M325.176,-204.009C338.911,-191.17 357.947,-173.376 373.248,-159.072"/>
<polygon fill="black" stroke="black" points="375.946,-161.341 380.862,-151.956 371.166,-156.228 375.946,-161.341"/>
</g>
<!-- p33&#45;&gt;p36 -->
<g id="edge42" class="edge"><title>p33&#45;&gt;p36</title>
<path fill="none" stroke="black" d="M289.857,-203.942C277.898,-190.901 262.746,-171.842 255,-152 247.037,-131.602 245.042,-106.768 244.896,-88.1991"/>
<polygon fill="black" stroke="black" points="248.397,-88.104 244.992,-78.0711 241.397,-88.0373 248.397,-88.104"/>
<text text-anchor="middle" x="275" y="-130.3" font-family="Times,serif" font-size="14.00">version</text>
</g>
<!-- p30 -->
<g id="node33" class="node"><title>p30</title>
<ellipse fill="black" stroke="black" cx="212" cy="-296" rx="3.6" ry="3.6"/>
</g>
<!-- p30&#45;&gt;p33 -->
<g id="edge36" class="edge"><title>p30&#45;&gt;p33</title>
<path fill="none" stroke="black" d="M213.284,-292.338C216.572,-285.755 225.894,-268.486 238,-258 243.996,-252.806 250.899,-248.145 257.97,-244.049"/>
<polygon fill="black" stroke="black" points="259.845,-247.013 266.961,-239.164 256.503,-240.862 259.845,-247.013"/>
<text text-anchor="middle" x="252" y="-262.3" font-family="Times,serif" font-size="14.00">meta</text>
</g>
<!-- p31 -->
<g id="node34" class="node"><title>p31</title>
<ellipse fill="black" stroke="black" cx="263" cy="-296" rx="3.6" ry="3.6"/>
</g>
<!-- p31&#45;&gt;p33 -->
<g id="edge37" class="edge"><title>p31&#45;&gt;p33</title>
<path fill="none" stroke="black" d="M263.711,-292.159C265.39,-285.752 269.995,-269.816 277,-258 279.054,-254.536 281.459,-251.082 283.998,-247.768"/>
<polygon fill="black" stroke="black" points="286.824,-249.841 290.462,-239.891 281.413,-245.401 286.824,-249.841"/>
<text text-anchor="middle" x="292.5" y="-262.3" font-family="Times,serif" font-size="14.00">name</text>
</g>
<!-- p32 -->
<g id="node35" class="node"><title>p32</title>
<ellipse fill="black" stroke="black" cx="317" cy="-296" rx="3.6" ry="3.6"/>
</g>
<!-- p32&#45;&gt;p33 -->
<g id="edge38" class="edge"><title>p32&#45;&gt;p33</title>
<path fill="none" stroke="black" d="M316.62,-292.265C315.66,-285.354 313.053,-266.578 310.794,-250.316"/>
<polygon fill="black" stroke="black" points="314.223,-249.566 309.381,-240.143 307.29,-250.529 314.223,-249.566"/>
<text text-anchor="middle" x="345.5" y="-262.3" font-family="Times,serif" font-size="14.00">description</text>
</g>
<!-- p35&#45;&gt;p36 -->
<g id="edge41" class="edge"><title>p35&#45;&gt;p36</title>
<path fill="none" stroke="black" d="M365.044,-117.021C341.001,-105.706 308.735,-90.5225 283.861,-78.8169"/>
<polygon fill="black" stroke="black" points="285.261,-75.6074 274.722,-74.5162 282.28,-81.9411 285.261,-75.6074"/>
</g>
<!-- p34 -->
<g id="node37" class="node"><title>p34</title>
<ellipse fill="black" stroke="black" cx="461" cy="-222" rx="3.6" ry="3.6"/>
</g>
<!-- p34&#45;&gt;p35 -->
<g id="edge40" class="edge"><title>p34&#45;&gt;p35</title>
<path fill="none" stroke="black" d="M459.211,-218.519C453.104,-210.047 432.6,-181.607 417.204,-160.251"/>
<polygon fill="black" stroke="black" points="419.869,-157.963 411.182,-151.898 414.191,-162.056 419.869,-157.963"/>
<text text-anchor="middle" x="449" y="-174.3" font-family="Times,serif" font-size="14.00">meta</text>
</g>
</g>
</svg>
