<?xml version="1.0" encoding="UTF-8" standalone="no"?>
<!DOCTYPE svg PUBLIC "-//W3C//DTD SVG 1.1//EN"
 "http://www.w3.org/Graphics/SVG/1.1/DTD/svg11.dtd">
<!-- Generated by graphviz version 2.30.1 (20201013.1554)
 -->
<!-- Title: 20220711hs38mebettyCHAagacodingworkflow Pages: 1 -->
<svg width="1673pt" height="1923pt"
 viewBox="0.00 0.00 1673.00 1922.60" xmlns="http://www.w3.org/2000/svg" xmlns:xlink="http://www.w3.org/1999/xlink">
<g id="graph0" class="graph" transform="scale(1 1) rotate(0) translate(4 1918.6)">
<title>20220711hs38mebettyCHAagacodingworkflow</title>
<polygon fill="white" stroke="white" points="-4,5 -4,-1918.6 1670,-1918.6 1670,5 -4,5"/>
<!-- p0 -->
<g id="node1" class="node"><title>p0</title>
<ellipse fill="black" stroke="black" cx="586" cy="-342" rx="3.6" ry="3.6"/>
<text text-anchor="middle" x="527.9" y="-349.4" font-family="Times,serif" font-size="14.00">Channel.empty</text>
</g>
<!-- p58 -->
<g id="node2" class="node"><title>p58</title>
<ellipse fill="none" stroke="black" cx="870" cy="-254" rx="3.25" ry="3.5"/>
<text text-anchor="middle" x="853" y="-261.3" font-family="Times,serif" font-size="14.00">mix</text>
</g>
<!-- p0&#45;&gt;p58 -->
<g id="edge1" class="edge"><title>p0&#45;&gt;p58</title>
<path fill="none" stroke="black" d="M587.281,-338.369C589.259,-334.593 593.419,-327.685 599,-324 685.094,-267.146 814.996,-257.135 856.648,-255.375"/>
<polygon fill="black" stroke="black" points="856.869,-258.87 866.75,-255.048 856.642,-251.873 856.869,-258.87"/>
<text text-anchor="middle" x="706" y="-294.3" font-family="Times,serif" font-size="14.00">publish_ch</text>
</g>
<!-- p59 -->
<g id="node61" class="node"><title>p59</title>
<ellipse fill="none" stroke="black" cx="1034" cy="-180" rx="3.25" ry="3.5"/>
<text text-anchor="middle" x="1017" y="-187.3" font-family="Times,serif" font-size="14.00">mix</text>
</g>
<!-- p58&#45;&gt;p59 -->
<g id="edge66" class="edge"><title>p58&#45;&gt;p59</title>
<path fill="none" stroke="black" d="M872.144,-251.314C881.243,-244.235 917.772,-216.615 952,-202 975.263,-192.067 1004.31,-185.998 1020.85,-183.087"/>
<polygon fill="black" stroke="black" points="1021.45,-186.535 1030.76,-181.465 1020.32,-179.627 1021.45,-186.535"/>
<text text-anchor="middle" x="991" y="-206.3" font-family="Times,serif" font-size="14.00">publish_ch</text>
</g>
<!-- p1 -->
<g id="node3" class="node"><title>p1</title>
<ellipse fill="black" stroke="black" cx="713" cy="-1896" rx="3.6" ry="3.6"/>
<text text-anchor="middle" x="654.9" y="-1903.4" font-family="Times,serif" font-size="14.00">Channel.empty</text>
</g>
<!-- p2 -->
<g id="node4" class="node"><title>p2</title>
<ellipse fill="black" stroke="black" cx="713" cy="-1822" rx="1.8" ry="1.8"/>
</g>
<!-- p1&#45;&gt;p2 -->
<g id="edge2" class="edge"><title>p1&#45;&gt;p2</title>
<path fill="none" stroke="black" d="M713,-1892.27C713,-1882.79 713,-1851.04 713,-1834.01"/>
<polygon fill="black" stroke="black" points="716.5,-1833.98 713,-1823.98 709.5,-1833.98 716.5,-1833.98"/>
<text text-anchor="middle" x="752" y="-1862.3" font-family="Times,serif" font-size="14.00">version_ch</text>
</g>
<!-- p3 -->
<g id="node5" class="node"><title>p3</title>
<ellipse fill="black" stroke="black" cx="154" cy="-1822" rx="3.6" ry="3.6"/>
<text text-anchor="middle" x="85.4" y="-1829.4" font-family="Times,serif" font-size="14.00">Channel.fromPath</text>
</g>
<!-- p4 -->
<g id="node6" class="node"><title>p4</title>
<ellipse fill="none" stroke="black" cx="155" cy="-1748" rx="3.25" ry="3.5"/>
<text text-anchor="middle" x="119.5" y="-1755.3" font-family="Times,serif" font-size="14.00">splitText</text>
</g>
<!-- p3&#45;&gt;p4 -->
<g id="edge3" class="edge"><title>p3&#45;&gt;p4</title>
<path fill="none" stroke="black" d="M154.038,-1818.27C154.165,-1809.13 154.579,-1779.28 154.821,-1761.89"/>
<polygon fill="black" stroke="black" points="158.323,-1761.78 154.962,-1751.74 151.323,-1761.69 158.323,-1761.78"/>
</g>
<!-- p5 -->
<g id="node7" class="node"><title>p5</title>
<ellipse fill="none" stroke="black" cx="222" cy="-1702" rx="3.25" ry="3.5"/>
<text text-anchor="middle" x="203" y="-1709.3" font-family="Times,serif" font-size="14.00">map</text>
</g>
<!-- p4&#45;&gt;p5 -->
<g id="edge4" class="edge"><title>p4&#45;&gt;p5</title>
<path fill="none" stroke="black" d="M157.545,-1745.33C166.168,-1739.67 194.638,-1720.97 210.706,-1710.42"/>
<polygon fill="black" stroke="black" points="213.015,-1713.09 219.453,-1704.67 209.173,-1707.24 213.015,-1713.09"/>
</g>
<!-- p13 -->
<g id="node8" class="node"><title>p13</title>
<ellipse fill="none" stroke="black" cx="278" cy="-1642" rx="3.25" ry="3.5"/>
<text text-anchor="middle" x="244" y="-1649.3" font-family="Times,serif" font-size="14.00">combine</text>
</g>
<!-- p5&#45;&gt;p13 -->
<g id="edge5" class="edge"><title>p5&#45;&gt;p13</title>
<path fill="none" stroke="black" d="M221.626,-1698.33C220.854,-1691.73 219.788,-1674.43 228,-1664 236.897,-1652.7 252.978,-1647.41 264.502,-1644.98"/>
<polygon fill="black" stroke="black" points="265.36,-1648.38 274.663,-1643.32 264.229,-1641.48 265.36,-1648.38"/>
<text text-anchor="middle" x="285.5" y="-1668.3" font-family="Times,serif" font-size="14.00">capture_bed_ch</text>
</g>
<!-- p14 -->
<g id="node17" class="node"><title>p14</title>
<ellipse fill="none" stroke="black" cx="278" cy="-1592" rx="3.25" ry="3.5"/>
<text text-anchor="middle" x="259" y="-1599.3" font-family="Times,serif" font-size="14.00">map</text>
</g>
<!-- p13&#45;&gt;p14 -->
<g id="edge14" class="edge"><title>p13&#45;&gt;p14</title>
<path fill="none" stroke="black" d="M278,-1638.42C278,-1632.42 278,-1617.2 278,-1606.02"/>
<polygon fill="black" stroke="black" points="281.5,-1605.83 278,-1595.83 274.5,-1605.83 281.5,-1605.83"/>
</g>
<!-- p6 -->
<g id="node9" class="node"><title>p6</title>
<ellipse fill="black" stroke="black" cx="690" cy="-1822" rx="3.6" ry="3.6"/>
<text text-anchor="middle" x="740.9" y="-1829.4" font-family="Times,serif" font-size="14.00">Channel.empty</text>
</g>
<!-- p10 -->
<g id="node10" class="node"><title>p10</title>
<ellipse fill="none" stroke="black" cx="659" cy="-1748" rx="3.25" ry="3.5"/>
<text text-anchor="middle" x="642" y="-1755.3" font-family="Times,serif" font-size="14.00">mix</text>
</g>
<!-- p6&#45;&gt;p10 -->
<g id="edge6" class="edge"><title>p6&#45;&gt;p10</title>
<path fill="none" stroke="black" d="M688.823,-1818.27C684.797,-1808.92 671.422,-1777.85 664.026,-1760.67"/>
<polygon fill="black" stroke="black" points="667.219,-1759.24 660.049,-1751.44 660.789,-1762.01 667.219,-1759.24"/>
<text text-anchor="middle" x="713" y="-1774.3" font-family="Times,serif" font-size="14.00">version_ch</text>
</g>
<!-- p19 -->
<g id="node15" class="node"><title>p19</title>
<ellipse fill="none" stroke="black" cx="327" cy="-1408" rx="3.25" ry="3.5"/>
<text text-anchor="middle" x="310" y="-1415.3" font-family="Times,serif" font-size="14.00">mix</text>
</g>
<!-- p10&#45;&gt;p19 -->
<g id="edge11" class="edge"><title>p10&#45;&gt;p19</title>
<path fill="none" stroke="black" d="M659,-1744.22C659,-1737.27 659,-1718.58 659,-1703 659,-1703 659,-1703 659,-1453 659,-1420.3 402.547,-1411.09 340.429,-1409.34"/>
<polygon fill="black" stroke="black" points="340.374,-1405.84 330.286,-1409.07 340.191,-1412.84 340.374,-1405.84"/>
<text text-anchor="middle" x="698" y="-1588.3" font-family="Times,serif" font-size="14.00">version_ch</text>
</g>
<!-- p7 -->
<g id="node11" class="node"><title>p7</title>
<ellipse fill="black" stroke="black" cx="392" cy="-1896" rx="3.6" ry="3.6"/>
</g>
<!-- p9 -->
<g id="node12" class="node"><title>p9</title>
<ellipse fill="none" stroke="black" cx="422" cy="-1822" rx="245.992" ry="18"/>
<text text-anchor="middle" x="422" y="-1818.3" font-family="Times,serif" font-size="14.00">GATK4_HAPCALLER_DIRECT_01:LINUX_SPLIT2</text>
</g>
<!-- p7&#45;&gt;p9 -->
<g id="edge7" class="edge"><title>p7&#45;&gt;p9</title>
<path fill="none" stroke="black" d="M391.474,-1892.19C390.412,-1885.85 388.479,-1870.03 393,-1858 394.26,-1854.65 395.984,-1851.39 397.968,-1848.28"/>
<polygon fill="black" stroke="black" points="400.938,-1850.16 404.081,-1840.04 395.314,-1845.99 400.938,-1850.16"/>
<text text-anchor="middle" x="411.5" y="-1862.3" font-family="Times,serif" font-size="14.00">meta</text>
</g>
<!-- p11 -->
<g id="node14" class="node"><title>p11</title>
<ellipse fill="none" stroke="black" cx="414" cy="-1748" rx="3.25" ry="3.5"/>
<text text-anchor="middle" x="378.5" y="-1755.3" font-family="Times,serif" font-size="14.00">splitText</text>
</g>
<!-- p9&#45;&gt;p11 -->
<g id="edge9" class="edge"><title>p9&#45;&gt;p11</title>
<path fill="none" stroke="black" d="M420.104,-1803.94C418.665,-1790.99 416.719,-1773.47 415.415,-1761.73"/>
<polygon fill="black" stroke="black" points="418.888,-1761.3 414.305,-1751.75 411.931,-1762.07 418.888,-1761.3"/>
</g>
<!-- p9&#45;&gt;p10 -->
<g id="edge10" class="edge"><title>p9&#45;&gt;p10</title>
<path fill="none" stroke="black" d="M476.67,-1804.39C532.419,-1787.45 615.034,-1762.36 646.348,-1752.84"/>
<polygon fill="black" stroke="black" points="647.615,-1756.12 656.165,-1749.86 645.58,-1749.42 647.615,-1756.12"/>
</g>
<!-- p8 -->
<g id="node13" class="node"><title>p8</title>
<ellipse fill="black" stroke="black" cx="452" cy="-1896" rx="3.6" ry="3.6"/>
</g>
<!-- p8&#45;&gt;p9 -->
<g id="edge8" class="edge"><title>p8&#45;&gt;p9</title>
<path fill="none" stroke="black" d="M450.861,-1892.27C447.926,-1885.22 439.858,-1865.86 432.996,-1849.39"/>
<polygon fill="black" stroke="black" points="436.22,-1848.03 429.143,-1840.14 429.758,-1850.72 436.22,-1848.03"/>
<text text-anchor="middle" x="462.5" y="-1862.3" font-family="Times,serif" font-size="14.00">filein</text>
</g>
<!-- p12 -->
<g id="node16" class="node"><title>p12</title>
<ellipse fill="none" stroke="black" cx="366" cy="-1702" rx="3.25" ry="3.5"/>
<text text-anchor="middle" x="347" y="-1709.3" font-family="Times,serif" font-size="14.00">map</text>
</g>
<!-- p11&#45;&gt;p12 -->
<g id="edge12" class="edge"><title>p11&#45;&gt;p12</title>
<path fill="none" stroke="black" d="M411.938,-1745.11C405.769,-1739.46 387.177,-1722.41 375.623,-1711.82"/>
<polygon fill="black" stroke="black" points="377.738,-1709.01 368.001,-1704.83 373.008,-1714.17 377.738,-1709.01"/>
</g>
<!-- p25 -->
<g id="node23" class="node"><title>p25</title>
<ellipse fill="none" stroke="black" cx="382" cy="-1274" rx="3.25" ry="3.5"/>
<text text-anchor="middle" x="365" y="-1281.3" font-family="Times,serif" font-size="14.00">mix</text>
</g>
<!-- p19&#45;&gt;p25 -->
<g id="edge21" class="edge"><title>p19&#45;&gt;p25</title>
<path fill="none" stroke="black" d="M326.059,-1404.56C321.959,-1393.52 306.588,-1347.39 323,-1316 332.753,-1297.35 355.284,-1285.47 369.51,-1279.54"/>
<polygon fill="black" stroke="black" points="370.924,-1282.75 379.043,-1275.94 368.451,-1276.2 370.924,-1282.75"/>
<text text-anchor="middle" x="362" y="-1330.3" font-family="Times,serif" font-size="14.00">version_ch</text>
</g>
<!-- p12&#45;&gt;p13 -->
<g id="edge13" class="edge"><title>p12&#45;&gt;p13</title>
<path fill="none" stroke="black" d="M365.185,-1698.61C362.831,-1692.06 355.394,-1673.69 343,-1664 327.693,-1652.03 305.354,-1646.78 291.254,-1644.55"/>
<polygon fill="black" stroke="black" points="291.424,-1641.05 281.06,-1643.25 290.535,-1647.99 291.424,-1641.05"/>
<text text-anchor="middle" x="407.5" y="-1668.3" font-family="Times,serif" font-size="14.00">each_bam_list</text>
</g>
<!-- p16 -->
<g id="node18" class="node"><title>p16</title>
<ellipse fill="none" stroke="black" cx="315" cy="-1514" rx="315.308" ry="18"/>
<text text-anchor="middle" x="315" y="-1510.3" font-family="Times,serif" font-size="14.00">GATK4_HAPCALLER_DIRECT_01:GATK4_HAPCALLER_DIRECT</text>
</g>
<!-- p14&#45;&gt;p16 -->
<g id="edge15" class="edge"><title>p14&#45;&gt;p16</title>
<path fill="none" stroke="black" d="M277.387,-1588.26C276.002,-1581.44 273.184,-1563.31 279,-1550 280.603,-1546.33 282.79,-1542.85 285.3,-1539.61"/>
<polygon fill="black" stroke="black" points="287.983,-1541.86 292.055,-1532.08 282.772,-1537.19 287.983,-1541.86"/>
<text text-anchor="middle" x="305" y="-1554.3" font-family="Times,serif" font-size="14.00">row_ch</text>
</g>
<!-- p20 -->
<g id="node20" class="node"><title>p20</title>
<ellipse fill="none" stroke="black" cx="490" cy="-1454" rx="3.25" ry="3.5"/>
<text text-anchor="middle" x="471" y="-1461.3" font-family="Times,serif" font-size="14.00">map</text>
</g>
<!-- p16&#45;&gt;p20 -->
<g id="edge17" class="edge"><title>p16&#45;&gt;p20</title>
<path fill="none" stroke="black" d="M365.617,-1496.22C404.115,-1483.46 454.273,-1466.84 477.36,-1459.19"/>
<polygon fill="black" stroke="black" points="478.765,-1462.41 487.156,-1455.94 476.562,-1455.77 478.765,-1462.41"/>
</g>
<!-- p17 -->
<g id="node21" class="node"><title>p17</title>
<ellipse fill="black" stroke="black" cx="302" cy="-1454" rx="1.8" ry="1.8"/>
</g>
<!-- p16&#45;&gt;p17 -->
<g id="edge18" class="edge"><title>p16&#45;&gt;p17</title>
<path fill="none" stroke="black" d="M311.17,-1495.91C308.994,-1486.2 306.335,-1474.34 304.442,-1465.9"/>
<polygon fill="black" stroke="black" points="307.839,-1465.05 302.237,-1456.06 301.009,-1466.58 307.839,-1465.05"/>
</g>
<!-- p18 -->
<g id="node22" class="node"><title>p18</title>
<ellipse fill="none" stroke="black" cx="327" cy="-1454" rx="3.25" ry="3.5"/>
<text text-anchor="middle" x="308" y="-1461.3" font-family="Times,serif" font-size="14.00">first</text>
</g>
<!-- p16&#45;&gt;p18 -->
<g id="edge19" class="edge"><title>p16&#45;&gt;p18</title>
<path fill="none" stroke="black" d="M318.535,-1495.91C320.409,-1486.86 322.67,-1475.93 324.383,-1467.65"/>
<polygon fill="black" stroke="black" points="327.845,-1468.19 326.443,-1457.69 320.99,-1466.77 327.845,-1468.19"/>
</g>
<!-- p15 -->
<g id="node19" class="node"><title>p15</title>
<ellipse fill="black" stroke="black" cx="353" cy="-1592" rx="3.6" ry="3.6"/>
</g>
<!-- p15&#45;&gt;p16 -->
<g id="edge16" class="edge"><title>p15&#45;&gt;p16</title>
<path fill="none" stroke="black" d="M351.736,-1588.47C348.051,-1581.1 337.012,-1559.02 327.989,-1540.98"/>
<polygon fill="black" stroke="black" points="331.107,-1539.39 323.504,-1532.01 324.846,-1542.52 331.107,-1539.39"/>
<text text-anchor="middle" x="358.5" y="-1554.3" font-family="Times,serif" font-size="14.00">meta</text>
</g>
<!-- p21 -->
<g id="node24" class="node"><title>p21</title>
<ellipse fill="none" stroke="black" cx="705" cy="-1408" rx="3.25" ry="3.5"/>
<text text-anchor="middle" x="660" y="-1415.3" font-family="Times,serif" font-size="14.00">groupTuple</text>
</g>
<!-- p20&#45;&gt;p21 -->
<g id="edge22" class="edge"><title>p20&#45;&gt;p21</title>
<path fill="none" stroke="black" d="M493.039,-1452.38C515.011,-1447.88 649.879,-1420.28 692.264,-1411.61"/>
<polygon fill="black" stroke="black" points="692.975,-1415.03 702.07,-1409.6 691.572,-1408.18 692.975,-1415.03"/>
</g>
<!-- p18&#45;&gt;p19 -->
<g id="edge20" class="edge"><title>p18&#45;&gt;p19</title>
<path fill="none" stroke="black" d="M327,-1450.38C327,-1444.86 327,-1431.74 327,-1421.74"/>
<polygon fill="black" stroke="black" points="330.5,-1421.55 327,-1411.55 323.5,-1421.55 330.5,-1421.55"/>
</g>
<!-- p30 -->
<g id="node29" class="node"><title>p30</title>
<ellipse fill="none" stroke="black" cx="382" cy="-1066" rx="3.25" ry="3.5"/>
<text text-anchor="middle" x="365" y="-1073.3" font-family="Times,serif" font-size="14.00">mix</text>
</g>
<!-- p25&#45;&gt;p30 -->
<g id="edge28" class="edge"><title>p25&#45;&gt;p30</title>
<path fill="none" stroke="black" d="M382,-1270.4C382,-1250.39 382,-1120.81 382,-1079.58"/>
<polygon fill="black" stroke="black" points="385.5,-1079.55 382,-1069.55 378.5,-1079.55 385.5,-1079.55"/>
<text text-anchor="middle" x="421" y="-1194.3" font-family="Times,serif" font-size="14.00">version_ch</text>
</g>
<!-- p23 -->
<g id="node25" class="node"><title>p23</title>
<ellipse fill="none" stroke="black" cx="723" cy="-1334" rx="312.433" ry="18"/>
<text text-anchor="middle" x="723" y="-1330.3" font-family="Times,serif" font-size="14.00">GATK4_HAPCALLER_DIRECT_01:BCFTOOLS_MERGE_BED_01</text>
</g>
<!-- p21&#45;&gt;p23 -->
<g id="edge23" class="edge"><title>p21&#45;&gt;p23</title>
<path fill="none" stroke="black" d="M705.684,-1404.27C707.428,-1397.29 712.195,-1378.22 716.287,-1361.85"/>
<polygon fill="black" stroke="black" points="719.684,-1362.69 718.714,-1352.14 712.893,-1361 719.684,-1362.69"/>
<text text-anchor="middle" x="755" y="-1374.3" font-family="Times,serif" font-size="14.00">bed2vcf_ch</text>
</g>
<!-- p26 -->
<g id="node27" class="node"><title>p26</title>
<ellipse fill="none" stroke="black" cx="735" cy="-1274" rx="3.25" ry="3.5"/>
<text text-anchor="middle" x="716" y="-1281.3" font-family="Times,serif" font-size="14.00">map</text>
</g>
<!-- p23&#45;&gt;p26 -->
<g id="edge25" class="edge"><title>p23&#45;&gt;p26</title>
<path fill="none" stroke="black" d="M726.535,-1315.91C728.409,-1306.86 730.67,-1295.93 732.383,-1287.65"/>
<polygon fill="black" stroke="black" points="735.845,-1288.19 734.443,-1277.69 728.99,-1286.77 735.845,-1288.19"/>
</g>
<!-- p24 -->
<g id="node28" class="node"><title>p24</title>
<ellipse fill="black" stroke="black" cx="710" cy="-1274" rx="1.8" ry="1.8"/>
</g>
<!-- p23&#45;&gt;p24 -->
<g id="edge26" class="edge"><title>p23&#45;&gt;p24</title>
<path fill="none" stroke="black" d="M719.17,-1315.91C716.994,-1306.2 714.335,-1294.34 712.442,-1285.9"/>
<polygon fill="black" stroke="black" points="715.839,-1285.05 710.237,-1276.06 709.009,-1286.58 715.839,-1285.05"/>
</g>
<!-- p23&#45;&gt;p25 -->
<g id="edge27" class="edge"><title>p23&#45;&gt;p25</title>
<path fill="none" stroke="black" d="M628.012,-1316.84C545.512,-1302.81 433.451,-1283.75 395.327,-1277.27"/>
<polygon fill="black" stroke="black" points="395.54,-1273.75 385.095,-1275.53 394.366,-1280.65 395.54,-1273.75"/>
</g>
<!-- p22 -->
<g id="node26" class="node"><title>p22</title>
<ellipse fill="black" stroke="black" cx="663" cy="-1408" rx="3.6" ry="3.6"/>
</g>
<!-- p22&#45;&gt;p23 -->
<g id="edge24" class="edge"><title>p22&#45;&gt;p23</title>
<path fill="none" stroke="black" d="M662.715,-1404.03C662.226,-1397.35 661.887,-1380.9 669,-1370 671.828,-1365.67 675.4,-1361.76 679.354,-1358.26"/>
<polygon fill="black" stroke="black" points="681.603,-1360.94 687.335,-1352.03 677.297,-1355.42 681.603,-1360.94"/>
<text text-anchor="middle" x="687.5" y="-1374.3" font-family="Times,serif" font-size="14.00">meta</text>
</g>
<!-- p27 -->
<g id="node30" class="node"><title>p27</title>
<ellipse fill="none" stroke="black" cx="735" cy="-1228" rx="3.25" ry="3.5"/>
<text text-anchor="middle" x="707" y="-1235.3" font-family="Times,serif" font-size="14.00">collect</text>
</g>
<!-- p26&#45;&gt;p27 -->
<g id="edge29" class="edge"><title>p26&#45;&gt;p27</title>
<path fill="none" stroke="black" d="M735,-1270.38C735,-1264.86 735,-1251.74 735,-1241.74"/>
<polygon fill="black" stroke="black" points="738.5,-1241.55 735,-1231.55 731.5,-1241.55 738.5,-1241.55"/>
</g>
<!-- p50 -->
<g id="node34" class="node"><title>p50</title>
<ellipse fill="none" stroke="black" cx="776" cy="-484" rx="3.25" ry="3.5"/>
<text text-anchor="middle" x="759" y="-491.3" font-family="Times,serif" font-size="14.00">mix</text>
</g>
<!-- p30&#45;&gt;p50 -->
<g id="edge34" class="edge"><title>p30&#45;&gt;p50</title>
<path fill="none" stroke="black" d="M381.608,-1062.35C380.429,-1054.14 377,-1028.43 377,-1007 377,-1007 377,-1007 377,-543 377,-531.669 385.648,-530.607 396,-526 463.775,-495.84 703.042,-487.087 762.532,-485.355"/>
<polygon fill="black" stroke="black" points="762.684,-488.852 772.585,-485.081 762.493,-481.855 762.684,-488.852"/>
<text text-anchor="middle" x="416" y="-778.3" font-family="Times,serif" font-size="14.00">version_ch</text>
</g>
<!-- p29 -->
<g id="node31" class="node"><title>p29</title>
<ellipse fill="none" stroke="black" cx="752" cy="-1154" rx="284.987" ry="18"/>
<text text-anchor="middle" x="752" y="-1150.3" font-family="Times,serif" font-size="14.00">GATK4_HAPCALLER_DIRECT_01:COLLECT_TO_FILE_01</text>
</g>
<!-- p27&#45;&gt;p29 -->
<g id="edge30" class="edge"><title>p27&#45;&gt;p29</title>
<path fill="none" stroke="black" d="M735.646,-1224.27C737.278,-1217.35 741.711,-1198.58 745.55,-1182.32"/>
<polygon fill="black" stroke="black" points="749.061,-1182.68 747.952,-1172.14 742.248,-1181.07 749.061,-1182.68"/>
</g>
<!-- p33 -->
<g id="node33" class="node"><title>p33</title>
<ellipse fill="none" stroke="black" cx="1069" cy="-1066" rx="351.428" ry="18"/>
<text text-anchor="middle" x="1069" y="-1062.3" font-family="Times,serif" font-size="14.00">GATK4_HAPCALLER_DIRECT_01:BCFTOOLS_CONCAT_01:SQRT_FILE</text>
</g>
<!-- p29&#45;&gt;p33 -->
<g id="edge32" class="edge"><title>p29&#45;&gt;p33</title>
<path fill="none" stroke="black" d="M813.497,-1136.32C866.151,-1122.03 942.011,-1101.45 997.39,-1086.43"/>
<polygon fill="black" stroke="black" points="998.399,-1089.78 1007.13,-1083.78 996.566,-1083.02 998.399,-1089.78"/>
<text text-anchor="middle" x="953" y="-1106.3" font-family="Times,serif" font-size="14.00">vcfs</text>
</g>
<!-- p29&#45;&gt;p30 -->
<g id="edge33" class="edge"><title>p29&#45;&gt;p30</title>
<path fill="none" stroke="black" d="M681.098,-1136.52C590.378,-1115.43 439.601,-1080.39 394.88,-1069.99"/>
<polygon fill="black" stroke="black" points="395.587,-1066.56 385.054,-1067.71 394.002,-1073.38 395.587,-1066.56"/>
</g>
<!-- p28 -->
<g id="node32" class="node"><title>p28</title>
<ellipse fill="black" stroke="black" cx="768" cy="-1228" rx="3.6" ry="3.6"/>
</g>
<!-- p28&#45;&gt;p29 -->
<g id="edge31" class="edge"><title>p28&#45;&gt;p29</title>
<path fill="none" stroke="black" d="M767.392,-1224.27C765.856,-1217.35 761.684,-1198.58 758.07,-1182.32"/>
<polygon fill="black" stroke="black" points="761.396,-1181.15 755.81,-1172.14 754.562,-1182.66 761.396,-1181.15"/>
<text text-anchor="middle" x="781.5" y="-1194.3" font-family="Times,serif" font-size="14.00">meta</text>
</g>
<!-- p35 -->
<g id="node38" class="node"><title>p35</title>
<ellipse fill="none" stroke="black" cx="1070" cy="-1006" rx="3.25" ry="3.5"/>
<text text-anchor="middle" x="1034.5" y="-1013.3" font-family="Times,serif" font-size="14.00">splitText</text>
</g>
<!-- p33&#45;&gt;p35 -->
<g id="edge37" class="edge"><title>p33&#45;&gt;p35</title>
<path fill="none" stroke="black" d="M1069.29,-1047.91C1069.45,-1038.96 1069.63,-1028.19 1069.78,-1019.94"/>
<polygon fill="black" stroke="black" points="1073.28,-1019.75 1069.95,-1009.69 1066.28,-1019.63 1073.28,-1019.75"/>
</g>
<!-- p34 -->
<g id="node39" class="node"><title>p34</title>
<ellipse fill="black" stroke="black" cx="1094" cy="-1006" rx="1.8" ry="1.8"/>
</g>
<!-- p33&#45;&gt;p34 -->
<g id="edge38" class="edge"><title>p33&#45;&gt;p34</title>
<path fill="none" stroke="black" d="M1076.37,-1047.91C1080.65,-1037.97 1085.91,-1025.77 1089.56,-1017.29"/>
<polygon fill="black" stroke="black" points="1092.8,-1018.62 1093.54,-1008.06 1086.37,-1015.85 1092.8,-1018.62"/>
</g>
<!-- p51 -->
<g id="node54" class="node"><title>p51</title>
<ellipse fill="none" stroke="black" cx="776" cy="-420" rx="3.25" ry="3.5"/>
<text text-anchor="middle" x="748" y="-427.3" font-family="Times,serif" font-size="14.00">collect</text>
</g>
<!-- p50&#45;&gt;p51 -->
<g id="edge57" class="edge"><title>p50&#45;&gt;p51</title>
<path fill="none" stroke="black" d="M776,-480.336C776,-472.448 776,-448.832 776,-433.881"/>
<polygon fill="black" stroke="black" points="779.5,-433.585 776,-423.585 772.5,-433.585 779.5,-433.585"/>
<text text-anchor="middle" x="815" y="-450.3" font-family="Times,serif" font-size="14.00">version_ch</text>
</g>
<!-- p31 -->
<g id="node35" class="node"><title>p31</title>
<ellipse fill="black" stroke="black" cx="587" cy="-886" rx="3.6" ry="3.6"/>
<text text-anchor="middle" x="528.9" y="-893.4" font-family="Times,serif" font-size="14.00">Channel.empty</text>
</g>
<!-- p40 -->
<g id="node36" class="node"><title>p40</title>
<ellipse fill="none" stroke="black" cx="644" cy="-812" rx="3.25" ry="3.5"/>
<text text-anchor="middle" x="627" y="-819.3" font-family="Times,serif" font-size="14.00">mix</text>
</g>
<!-- p31&#45;&gt;p40 -->
<g id="edge35" class="edge"><title>p31&#45;&gt;p40</title>
<path fill="none" stroke="black" d="M587.466,-882.355C589.015,-874.237 594.666,-849.306 608,-834 614.387,-826.669 623.987,-821.248 631.668,-817.752"/>
<polygon fill="black" stroke="black" points="632.985,-820.995 640.95,-814.009 630.367,-814.503 632.985,-820.995"/>
<text text-anchor="middle" x="647" y="-838.3" font-family="Times,serif" font-size="14.00">version_ch</text>
</g>
<!-- p44 -->
<g id="node45" class="node"><title>p44</title>
<ellipse fill="none" stroke="black" cx="773" cy="-678" rx="3.25" ry="3.5"/>
<text text-anchor="middle" x="756" y="-685.3" font-family="Times,serif" font-size="14.00">mix</text>
</g>
<!-- p40&#45;&gt;p44 -->
<g id="edge45" class="edge"><title>p40&#45;&gt;p44</title>
<path fill="none" stroke="black" d="M643.351,-808.396C640.588,-796.64 630.915,-747.872 653,-720 679.434,-686.639 734.384,-680.283 759.701,-679.17"/>
<polygon fill="black" stroke="black" points="759.795,-682.669 769.715,-678.951 759.641,-675.671 759.795,-682.669"/>
<text text-anchor="middle" x="692" y="-734.3" font-family="Times,serif" font-size="14.00">version_ch</text>
</g>
<!-- p32 -->
<g id="node37" class="node"><title>p32</title>
<ellipse fill="black" stroke="black" cx="1069" cy="-1154" rx="3.6" ry="3.6"/>
</g>
<!-- p32&#45;&gt;p33 -->
<g id="edge36" class="edge"><title>p32&#45;&gt;p33</title>
<path fill="none" stroke="black" d="M1069,-1150.14C1069,-1141.5 1069,-1115.01 1069,-1094.23"/>
<polygon fill="black" stroke="black" points="1072.5,-1094 1069,-1084 1065.5,-1094 1072.5,-1094"/>
<text text-anchor="middle" x="1087.5" y="-1106.3" font-family="Times,serif" font-size="14.00">meta</text>
</g>
<!-- p36 -->
<g id="node40" class="node"><title>p36</title>
<ellipse fill="none" stroke="black" cx="1074" cy="-960" rx="3.25" ry="3.5"/>
<text text-anchor="middle" x="1055" y="-967.3" font-family="Times,serif" font-size="14.00">map</text>
</g>
<!-- p35&#45;&gt;p36 -->
<g id="edge39" class="edge"><title>p35&#45;&gt;p36</title>
<path fill="none" stroke="black" d="M1070.24,-1002.38C1070.74,-996.864 1071.93,-983.742 1072.84,-973.742"/>
<polygon fill="black" stroke="black" points="1076.35,-973.828 1073.77,-963.552 1069.38,-973.194 1076.35,-973.828"/>
</g>
<!-- p38 -->
<g id="node41" class="node"><title>p38</title>
<ellipse fill="none" stroke="black" cx="1074" cy="-886" rx="465.038" ry="18"/>
<text text-anchor="middle" x="1074" y="-882.3" font-family="Times,serif" font-size="14.00">GATK4_HAPCALLER_DIRECT_01:BCFTOOLS_CONCAT_01:BCFTOOL_CONCAT_FILE_LIST_01</text>
</g>
<!-- p36&#45;&gt;p38 -->
<g id="edge40" class="edge"><title>p36&#45;&gt;p38</title>
<path fill="none" stroke="black" d="M1074,-956.265C1074,-949.354 1074,-930.578 1074,-914.316"/>
<polygon fill="black" stroke="black" points="1077.5,-914.143 1074,-904.143 1070.5,-914.143 1077.5,-914.143"/>
<text text-anchor="middle" x="1095.5" y="-926.3" font-family="Times,serif" font-size="14.00">d2_ch</text>
</g>
<!-- p41 -->
<g id="node43" class="node"><title>p41</title>
<ellipse fill="none" stroke="black" cx="1075" cy="-812" rx="3.25" ry="3.5"/>
<text text-anchor="middle" x="1047" y="-819.3" font-family="Times,serif" font-size="14.00">collect</text>
</g>
<!-- p38&#45;&gt;p41 -->
<g id="edge42" class="edge"><title>p38&#45;&gt;p41</title>
<path fill="none" stroke="black" d="M1074.24,-867.937C1074.41,-855.126 1074.65,-837.843 1074.82,-826.107"/>
<polygon fill="black" stroke="black" points="1078.32,-825.796 1074.96,-815.748 1071.32,-825.699 1078.32,-825.796"/>
</g>
<!-- p39 -->
<g id="node44" class="node"><title>p39</title>
<ellipse fill="black" stroke="black" cx="1099" cy="-812" rx="1.8" ry="1.8"/>
</g>
<!-- p38&#45;&gt;p39 -->
<g id="edge43" class="edge"><title>p38&#45;&gt;p39</title>
<path fill="none" stroke="black" d="M1079.92,-867.937C1084.74,-854.069 1091.38,-834.958 1095.42,-823.319"/>
<polygon fill="black" stroke="black" points="1098.73,-824.444 1098.71,-813.849 1092.12,-822.148 1098.73,-824.444"/>
</g>
<!-- p38&#45;&gt;p40 -->
<g id="edge44" class="edge"><title>p38&#45;&gt;p40</title>
<path fill="none" stroke="black" d="M974.809,-868.391C867.119,-850.359 704.175,-823.076 657.137,-815.2"/>
<polygon fill="black" stroke="black" points="657.694,-811.744 647.253,-813.545 656.538,-818.648 657.694,-811.744"/>
</g>
<!-- p37 -->
<g id="node42" class="node"><title>p37</title>
<ellipse fill="black" stroke="black" cx="1014" cy="-960" rx="3.6" ry="3.6"/>
</g>
<!-- p37&#45;&gt;p38 -->
<g id="edge41" class="edge"><title>p37&#45;&gt;p38</title>
<path fill="none" stroke="black" d="M1014.9,-956.47C1017.22,-950.189 1023.86,-933.553 1033,-922 1036.03,-918.165 1039.54,-914.437 1043.19,-910.933"/>
<polygon fill="black" stroke="black" points="1045.71,-913.379 1050.81,-904.091 1041.03,-908.172 1045.71,-913.379"/>
<text text-anchor="middle" x="1051.5" y="-926.3" font-family="Times,serif" font-size="14.00">meta</text>
</g>
<!-- p43 -->
<g id="node46" class="node"><title>p43</title>
<ellipse fill="none" stroke="black" cx="1203" cy="-738" rx="462.139" ry="18"/>
<text text-anchor="middle" x="1203" y="-734.3" font-family="Times,serif" font-size="14.00">GATK4_HAPCALLER_DIRECT_01:BCFTOOLS_CONCAT_01:BCFTOOL_CONCAT_COLLECT_01</text>
</g>
<!-- p41&#45;&gt;p43 -->
<g id="edge46" class="edge"><title>p41&#45;&gt;p43</title>
<path fill="none" stroke="black" d="M1077.67,-809.496C1088.67,-803.312 1131.34,-779.31 1163.86,-761.014"/>
<polygon fill="black" stroke="black" points="1165.73,-763.978 1172.73,-756.025 1162.3,-757.877 1165.73,-763.978"/>
</g>
<!-- p45 -->
<g id="node49" class="node"><title>p45</title>
<ellipse fill="none" stroke="black" cx="773" cy="-618" rx="3.25" ry="3.5"/>
<text text-anchor="middle" x="745" y="-625.3" font-family="Times,serif" font-size="14.00">collect</text>
</g>
<!-- p44&#45;&gt;p45 -->
<g id="edge51" class="edge"><title>p44&#45;&gt;p45</title>
<path fill="none" stroke="black" d="M773,-674.203C773,-666.649 773,-645.48 773,-631.66"/>
<polygon fill="black" stroke="black" points="776.5,-631.636 773,-621.636 769.5,-631.636 776.5,-631.636"/>
<text text-anchor="middle" x="812" y="-644.3" font-family="Times,serif" font-size="14.00">version_ch</text>
</g>
<!-- p61 -->
<g id="node48" class="node"><title>p61</title>
<ellipse fill="none" stroke="black" cx="1203" cy="-60" rx="56.3173" ry="18"/>
<text text-anchor="middle" x="1203" y="-56.3" font-family="Times,serif" font-size="14.00">PUBLISH</text>
</g>
<!-- p43&#45;&gt;p61 -->
<g id="edge48" class="edge"><title>p43&#45;&gt;p61</title>
<path fill="none" stroke="black" d="M1203,-719.996C1203,-708.436 1203,-692.795 1203,-679 1203,-679 1203,-679 1203,-119 1203,-108.977 1203,-97.9796 1203,-88.281"/>
<polygon fill="black" stroke="black" points="1206.5,-88.0039 1203,-78.0039 1199.5,-88.0039 1206.5,-88.0039"/>
<text text-anchor="middle" x="1214" y="-416.3" font-family="Times,serif" font-size="14.00">vcf</text>
</g>
<!-- p43&#45;&gt;p61 -->
<g id="edge49" class="edge"><title>p43&#45;&gt;p61</title>
<path fill="none" stroke="black" d="M1234.38,-719.999C1248.04,-710.131 1261,-696.231 1261,-679 1261,-679 1261,-679 1261,-119 1261,-103.843 1250.97,-91.2634 1239.26,-81.7382"/>
<polygon fill="black" stroke="black" points="1241.11,-78.7528 1230.98,-75.6377 1236.95,-84.3879 1241.11,-78.7528"/>
<text text-anchor="middle" x="1281" y="-416.3" font-family="Times,serif" font-size="14.00">index</text>
</g>
<!-- p43&#45;&gt;p44 -->
<g id="edge50" class="edge"><title>p43&#45;&gt;p44</title>
<path fill="none" stroke="black" d="M1081.5,-720.612C975.042,-706.252 830.593,-686.768 786.395,-680.807"/>
<polygon fill="black" stroke="black" points="786.586,-677.301 776.208,-679.433 785.651,-684.238 786.586,-677.301"/>
</g>
<!-- p42 -->
<g id="node47" class="node"><title>p42</title>
<ellipse fill="black" stroke="black" cx="1203" cy="-812" rx="3.6" ry="3.6"/>
</g>
<!-- p42&#45;&gt;p43 -->
<g id="edge47" class="edge"><title>p42&#45;&gt;p43</title>
<path fill="none" stroke="black" d="M1203,-808.265C1203,-801.354 1203,-782.578 1203,-766.316"/>
<polygon fill="black" stroke="black" points="1206.5,-766.143 1203,-756.143 1199.5,-766.143 1206.5,-766.143"/>
<text text-anchor="middle" x="1221.5" y="-778.3" font-family="Times,serif" font-size="14.00">meta</text>
</g>
<!-- p65 -->
<g id="node63" class="node"><title>p65</title>
<ellipse fill="black" stroke="black" cx="1166" cy="-2" rx="1.8" ry="1.8"/>
</g>
<!-- p61&#45;&gt;p65 -->
<g id="edge69" class="edge"><title>p61&#45;&gt;p65</title>
<path fill="none" stroke="black" d="M1191.9,-42.1982C1185.49,-32.5008 1177.67,-20.6579 1172.31,-12.5438"/>
<polygon fill="black" stroke="black" points="1175.1,-10.4217 1166.67,-4.00774 1169.26,-14.2805 1175.1,-10.4217"/>
</g>
<!-- p64 -->
<g id="node64" class="node"><title>p64</title>
<ellipse fill="black" stroke="black" cx="1191" cy="-2" rx="1.8" ry="1.8"/>
</g>
<!-- p61&#45;&gt;p64 -->
<g id="edge70" class="edge"><title>p61&#45;&gt;p64</title>
<path fill="none" stroke="black" d="M1199.33,-41.8939C1197.38,-32.775 1195.03,-21.8299 1193.33,-13.8767"/>
<polygon fill="black" stroke="black" points="1196.73,-13.0404 1191.21,-3.99575 1189.89,-14.5072 1196.73,-13.0404"/>
</g>
<!-- p63 -->
<g id="node65" class="node"><title>p63</title>
<ellipse fill="black" stroke="black" cx="1216" cy="-2" rx="1.8" ry="1.8"/>
</g>
<!-- p61&#45;&gt;p63 -->
<g id="edge71" class="edge"><title>p61&#45;&gt;p63</title>
<path fill="none" stroke="black" d="M1206.97,-41.8939C1209.09,-32.775 1211.63,-21.8299 1213.48,-13.8767"/>
<polygon fill="black" stroke="black" points="1216.92,-14.5282 1215.77,-3.99575 1210.1,-12.9452 1216.92,-14.5282"/>
</g>
<!-- p62 -->
<g id="node66" class="node"><title>p62</title>
<ellipse fill="black" stroke="black" cx="1241" cy="-2" rx="1.8" ry="1.8"/>
</g>
<!-- p61&#45;&gt;p62 -->
<g id="edge72" class="edge"><title>p61&#45;&gt;p62</title>
<path fill="none" stroke="black" d="M1214.4,-42.1982C1220.98,-32.5008 1229.02,-20.6579 1234.52,-12.5438"/>
<polygon fill="black" stroke="black" points="1237.6,-14.2478 1240.32,-4.00774 1231.8,-10.3172 1237.6,-14.2478"/>
</g>
<!-- p49 -->
<g id="node50" class="node"><title>p49</title>
<ellipse fill="none" stroke="black" cx="790" cy="-544" rx="384.149" ry="18"/>
<text text-anchor="middle" x="790" y="-540.3" font-family="Times,serif" font-size="14.00">GATK4_HAPCALLER_DIRECT_01:BCFTOOLS_CONCAT_01:MERGE_VERSION</text>
</g>
<!-- p45&#45;&gt;p49 -->
<g id="edge52" class="edge"><title>p45&#45;&gt;p49</title>
<path fill="none" stroke="black" d="M773.646,-614.265C775.278,-607.354 779.711,-588.578 783.55,-572.316"/>
<polygon fill="black" stroke="black" points="787.061,-572.68 785.952,-562.143 780.248,-571.071 787.061,-572.68"/>
</g>
<!-- p49&#45;&gt;p50 -->
<g id="edge56" class="edge"><title>p49&#45;&gt;p50</title>
<path fill="none" stroke="black" d="M785.875,-525.912C783.69,-516.858 781.052,-505.93 779.053,-497.647"/>
<polygon fill="black" stroke="black" points="782.398,-496.59 776.649,-487.691 775.594,-498.233 782.398,-496.59"/>
</g>
<!-- p46 -->
<g id="node51" class="node"><title>p46</title>
<ellipse fill="black" stroke="black" cx="721" cy="-618" rx="3.6" ry="3.6"/>
</g>
<!-- p46&#45;&gt;p49 -->
<g id="edge53" class="edge"><title>p46&#45;&gt;p49</title>
<path fill="none" stroke="black" d="M721.577,-614.395C723.114,-607.94 727.828,-590.941 737,-580 740.586,-575.722 744.827,-571.767 749.322,-568.175"/>
<polygon fill="black" stroke="black" points="751.604,-570.842 757.604,-562.11 747.468,-565.195 751.604,-570.842"/>
<text text-anchor="middle" x="755.5" y="-584.3" font-family="Times,serif" font-size="14.00">meta</text>
</g>
<!-- p47 -->
<g id="node52" class="node"><title>p47</title>
<ellipse fill="black" stroke="black" cx="806" cy="-618" rx="3.6" ry="3.6"/>
</g>
<!-- p47&#45;&gt;p49 -->
<g id="edge54" class="edge"><title>p47&#45;&gt;p49</title>
<path fill="none" stroke="black" d="M805.392,-614.265C803.856,-607.354 799.684,-588.578 796.07,-572.316"/>
<polygon fill="black" stroke="black" points="799.396,-571.145 793.81,-562.143 792.562,-572.664 799.396,-571.145"/>
<text text-anchor="middle" x="821" y="-584.3" font-family="Times,serif" font-size="14.00">name</text>
</g>
<!-- p48 -->
<g id="node53" class="node"><title>p48</title>
<ellipse fill="black" stroke="black" cx="869" cy="-618" rx="3.6" ry="3.6"/>
</g>
<!-- p48&#45;&gt;p49 -->
<g id="edge55" class="edge"><title>p48&#45;&gt;p49</title>
<path fill="none" stroke="black" d="M867.805,-614.401C864.747,-607.963 856.093,-590.997 845,-580 840.569,-575.608 835.496,-571.484 830.263,-567.717"/>
<polygon fill="black" stroke="black" points="832.22,-564.815 821.978,-562.104 828.294,-570.61 832.22,-564.815"/>
<text text-anchor="middle" x="897" y="-584.3" font-family="Times,serif" font-size="14.00">description</text>
</g>
<!-- p55 -->
<g id="node55" class="node"><title>p55</title>
<ellipse fill="none" stroke="black" cx="870" cy="-342" rx="261.39" ry="18"/>
<text text-anchor="middle" x="870" y="-338.3" font-family="Times,serif" font-size="14.00">GATK4_HAPCALLER_DIRECT_01:MERGE_VERSION</text>
</g>
<!-- p51&#45;&gt;p55 -->
<g id="edge58" class="edge"><title>p51&#45;&gt;p55</title>
<path fill="none" stroke="black" d="M777.797,-416.561C782.824,-409.848 797.666,-390.751 813,-378 818.279,-373.61 824.16,-369.381 830.084,-365.473"/>
<polygon fill="black" stroke="black" points="832.155,-368.304 838.727,-359.995 828.407,-362.392 832.155,-368.304"/>
</g>
<!-- p57 -->
<g id="node59" class="node"><title>p57</title>
<ellipse fill="none" stroke="black" cx="1034" cy="-254" rx="111.186" ry="18"/>
<text text-anchor="middle" x="1034" y="-250.3" font-family="Times,serif" font-size="14.00">VERSION_TO_HTML</text>
</g>
<!-- p55&#45;&gt;p57 -->
<g id="edge62" class="edge"><title>p55&#45;&gt;p57</title>
<path fill="none" stroke="black" d="M902.401,-324.009C928.568,-310.288 965.528,-290.906 993.62,-276.175"/>
<polygon fill="black" stroke="black" points="995.548,-279.116 1002.78,-271.372 992.297,-272.917 995.548,-279.116"/>
</g>
<!-- p55&#45;&gt;p58 -->
<g id="edge65" class="edge"><title>p55&#45;&gt;p58</title>
<path fill="none" stroke="black" d="M870,-323.597C870,-307.046 870,-282.54 870,-267.737"/>
<polygon fill="black" stroke="black" points="873.5,-267.671 870,-257.671 866.5,-267.671 873.5,-267.671"/>
</g>
<!-- p52 -->
<g id="node56" class="node"><title>p52</title>
<ellipse fill="black" stroke="black" cx="977" cy="-420" rx="3.6" ry="3.6"/>
</g>
<!-- p52&#45;&gt;p55 -->
<g id="edge59" class="edge"><title>p52&#45;&gt;p55</title>
<path fill="none" stroke="black" d="M976.285,-416.404C974.2,-409.289 967.471,-389.261 955,-378 949.17,-372.736 942.44,-368.202 935.371,-364.312"/>
<polygon fill="black" stroke="black" points="936.783,-361.105 926.279,-359.724 933.63,-367.354 936.783,-361.105"/>
<text text-anchor="middle" x="984.5" y="-382.3" font-family="Times,serif" font-size="14.00">meta</text>
</g>
<!-- p53 -->
<g id="node57" class="node"><title>p53</title>
<ellipse fill="black" stroke="black" cx="809" cy="-420" rx="3.6" ry="3.6"/>
</g>
<!-- p53&#45;&gt;p55 -->
<g id="edge60" class="edge"><title>p53&#45;&gt;p55</title>
<path fill="none" stroke="black" d="M809.648,-416.166C811.361,-409.135 816.538,-390.553 826,-378 829.079,-373.915 832.742,-370.036 836.619,-366.45"/>
<polygon fill="black" stroke="black" points="838.914,-369.092 844.245,-359.936 834.368,-363.77 838.914,-369.092"/>
<text text-anchor="middle" x="846" y="-382.3" font-family="Times,serif" font-size="14.00">name</text>
</g>
<!-- p54 -->
<g id="node58" class="node"><title>p54</title>
<ellipse fill="black" stroke="black" cx="872" cy="-420" rx="3.6" ry="3.6"/>
</g>
<!-- p54&#45;&gt;p55 -->
<g id="edge61" class="edge"><title>p54&#45;&gt;p55</title>
<path fill="none" stroke="black" d="M871.924,-416.114C871.727,-408.614 871.181,-387.88 870.721,-370.399"/>
<polygon fill="black" stroke="black" points="874.211,-369.987 870.45,-360.083 867.214,-370.171 874.211,-369.987"/>
<text text-anchor="middle" x="912" y="-382.3" font-family="Times,serif" font-size="14.00">description</text>
</g>
<!-- p57&#45;&gt;p59 -->
<g id="edge64" class="edge"><title>p57&#45;&gt;p59</title>
<path fill="none" stroke="black" d="M1034,-235.937C1034,-223.126 1034,-205.843 1034,-194.107"/>
<polygon fill="black" stroke="black" points="1037.5,-193.748 1034,-183.748 1030.5,-193.748 1037.5,-193.748"/>
</g>
<!-- p56 -->
<g id="node60" class="node"><title>p56</title>
<ellipse fill="black" stroke="black" cx="1154" cy="-342" rx="3.6" ry="3.6"/>
</g>
<!-- p56&#45;&gt;p57 -->
<g id="edge63" class="edge"><title>p56&#45;&gt;p57</title>
<path fill="none" stroke="black" d="M1152.22,-338.371C1149.75,-334.838 1145.02,-328.485 1140,-324 1119.66,-305.817 1094.09,-289.03 1073.17,-276.568"/>
<polygon fill="black" stroke="black" points="1074.91,-273.532 1064.51,-271.5 1071.37,-279.573 1074.91,-273.532"/>
<text text-anchor="middle" x="1133.5" y="-294.3" font-family="Times,serif" font-size="14.00">meta</text>
</g>
<!-- p60 -->
<g id="node62" class="node"><title>p60</title>
<ellipse fill="none" stroke="black" cx="1122" cy="-120" rx="3.25" ry="3.5"/>
<text text-anchor="middle" x="1094" y="-127.3" font-family="Times,serif" font-size="14.00">collect</text>
</g>
<!-- p59&#45;&gt;p60 -->
<g id="edge67" class="edge"><title>p59&#45;&gt;p60</title>
<path fill="none" stroke="black" d="M1036.54,-177.327C1047.43,-170.147 1090.59,-141.705 1111.08,-128.196"/>
<polygon fill="black" stroke="black" points="1113.19,-130.996 1119.62,-122.57 1109.34,-125.151 1113.19,-130.996"/>
<text text-anchor="middle" x="1127" y="-146.3" font-family="Times,serif" font-size="14.00">publish_ch</text>
</g>
<!-- p60&#45;&gt;p61 -->
<g id="edge68" class="edge"><title>p60&#45;&gt;p61</title>
<path fill="none" stroke="black" d="M1124.34,-117.327C1131.48,-112.214 1153.68,-96.3179 1172.68,-82.7111"/>
<polygon fill="black" stroke="black" points="1174.75,-85.5307 1180.85,-76.8631 1170.68,-79.8393 1174.75,-85.5307"/>
</g>
</g>
</svg>
