<?xml version="1.0" encoding="UTF-8" standalone="no"?>
<!DOCTYPE svg PUBLIC "-//W3C//DTD SVG 1.1//EN"
 "http://www.w3.org/Graphics/SVG/1.1/DTD/svg11.dtd">
<!-- Generated by graphviz version 2.30.1 (20201013.1554)
 -->
<!-- Title: 20221121rotavirusplotworkflow Pages: 1 -->
<svg width="1105pt" height="1288pt"
 viewBox="0.00 0.00 1104.60 1288.00" xmlns="http://www.w3.org/2000/svg" xmlns:xlink="http://www.w3.org/1999/xlink">
<g id="graph0" class="graph" transform="scale(1 1) rotate(0) translate(4 1284)">
<title>20221121rotavirusplotworkflow</title>
<polygon fill="white" stroke="white" points="-4,5 -4,-1284 1101.6,-1284 1101.6,5 -4,5"/>
<!-- p0 -->
<g id="node1" class="node"><title>p0</title>
<ellipse fill="black" stroke="black" cx="378.6" cy="-666" rx="3.6" ry="3.6"/>
<text text-anchor="middle" x="320.5" y="-673.4" font-family="Times,serif" font-size="14.00">Channel.empty</text>
</g>
<!-- p23 -->
<g id="node2" class="node"><title>p23</title>
<ellipse fill="none" stroke="black" cx="526.6" cy="-578" rx="3.25" ry="3.5"/>
<text text-anchor="middle" x="536.6" y="-585.3" font-family="Times,serif" font-size="14.00">mix</text>
</g>
<!-- p0&#45;&gt;p23 -->
<g id="edge1" class="edge"><title>p0&#45;&gt;p23</title>
<path fill="none" stroke="black" d="M380.102,-662.232C382.228,-658.542 386.436,-652.012 391.6,-648 438.148,-611.842 467.052,-632.158 513.6,-596 515.878,-594.231 517.969,-591.971 519.778,-589.682"/>
<polygon fill="black" stroke="black" points="522.743,-591.545 525.375,-581.283 516.917,-587.664 522.743,-591.545"/>
<text text-anchor="middle" x="519.6" y="-618.3" font-family="Times,serif" font-size="14.00">version_ch</text>
</g>
<!-- p27 -->
<g id="node27" class="node"><title>p27</title>
<ellipse fill="none" stroke="black" cx="482.6" cy="-504" rx="3.25" ry="3.5"/>
<text text-anchor="middle" x="465.6" y="-511.3" font-family="Times,serif" font-size="14.00">mix</text>
</g>
<!-- p23&#45;&gt;p27 -->
<g id="edge27" class="edge"><title>p23&#45;&gt;p27</title>
<path fill="none" stroke="black" d="M525.136,-574.604C519.656,-565.637 500.128,-533.683 489.542,-516.36"/>
<polygon fill="black" stroke="black" points="492.316,-514.186 484.115,-507.478 486.343,-517.836 492.316,-514.186"/>
<text text-anchor="middle" x="543.6" y="-530.3" font-family="Times,serif" font-size="14.00">version_ch</text>
</g>
<!-- p1 -->
<g id="node3" class="node"><title>p1</title>
<ellipse fill="black" stroke="black" cx="112.6" cy="-578" rx="3.6" ry="3.6"/>
<text text-anchor="middle" x="54.5" y="-585.4" font-family="Times,serif" font-size="14.00">Channel.empty</text>
</g>
<!-- p28 -->
<g id="node4" class="node"><title>p28</title>
<ellipse fill="none" stroke="black" cx="121.6" cy="-504" rx="3.25" ry="3.5"/>
<text text-anchor="middle" x="104.6" y="-511.3" font-family="Times,serif" font-size="14.00">mix</text>
</g>
<!-- p1&#45;&gt;p28 -->
<g id="edge2" class="edge"><title>p1&#45;&gt;p28</title>
<path fill="none" stroke="black" d="M112.942,-574.265C114.083,-565.133 117.815,-535.282 119.989,-517.892"/>
<polygon fill="black" stroke="black" points="123.49,-518.094 121.258,-507.737 116.544,-517.226 123.49,-518.094"/>
<text text-anchor="middle" x="141.1" y="-530.3" font-family="Times,serif" font-size="14.00">to_zip</text>
</g>
<!-- p34 -->
<g id="node31" class="node"><title>p34</title>
<ellipse fill="none" stroke="black" cx="182.6" cy="-282" rx="3.25" ry="3.5"/>
<text text-anchor="middle" x="165.6" y="-289.3" font-family="Times,serif" font-size="14.00">mix</text>
</g>
<!-- p28&#45;&gt;p34 -->
<g id="edge33" class="edge"><title>p28&#45;&gt;p34</title>
<path fill="none" stroke="black" d="M121.528,-500.419C121.194,-485.54 120.564,-409.373 140.6,-352 148.48,-329.434 164.484,-306.332 174.302,-293.409"/>
<polygon fill="black" stroke="black" points="177.144,-295.457 180.576,-285.433 171.642,-291.129 177.144,-295.457"/>
<text text-anchor="middle" x="149.1" y="-410.3" font-family="Times,serif" font-size="14.00">to_zip</text>
</g>
<!-- p2 -->
<g id="node5" class="node"><title>p2</title>
<ellipse fill="black" stroke="black" cx="833.6" cy="-1202" rx="3.6" ry="3.6"/>
<text text-anchor="middle" x="884.5" y="-1209.4" font-family="Times,serif" font-size="14.00">Channel.empty</text>
</g>
<!-- p6 -->
<g id="node6" class="node"><title>p6</title>
<ellipse fill="none" stroke="black" cx="696.6" cy="-1128" rx="3.25" ry="3.5"/>
<text text-anchor="middle" x="679.6" y="-1135.3" font-family="Times,serif" font-size="14.00">mix</text>
</g>
<!-- p2&#45;&gt;p6 -->
<g id="edge3" class="edge"><title>p2&#45;&gt;p6</title>
<path fill="none" stroke="black" d="M832.089,-1198.24C829.954,-1194.57 825.735,-1188.05 820.6,-1184 785.173,-1156.06 733.33,-1139.14 709.478,-1132.39"/>
<polygon fill="black" stroke="black" points="710.153,-1128.95 699.588,-1129.73 708.336,-1135.71 710.153,-1128.95"/>
<text text-anchor="middle" x="831.6" y="-1154.3" font-family="Times,serif" font-size="14.00">version_ch</text>
</g>
<!-- p13 -->
<g id="node11" class="node"><title>p13</title>
<ellipse fill="none" stroke="black" cx="690.6" cy="-948" rx="3.25" ry="3.5"/>
<text text-anchor="middle" x="673.6" y="-955.3" font-family="Times,serif" font-size="14.00">mix</text>
</g>
<!-- p6&#45;&gt;p13 -->
<g id="edge8" class="edge"><title>p6&#45;&gt;p13</title>
<path fill="none" stroke="black" d="M696.515,-1124.48C695.916,-1106.72 692.313,-999.83 691.043,-962.142"/>
<polygon fill="black" stroke="black" points="694.525,-961.557 690.69,-951.681 687.529,-961.793 694.525,-961.557"/>
<text text-anchor="middle" x="732.6" y="-1048.3" font-family="Times,serif" font-size="14.00">version_ch</text>
</g>
<!-- p3 -->
<g id="node7" class="node"><title>p3</title>
<ellipse fill="black" stroke="black" cx="466.6" cy="-1276" rx="3.6" ry="3.6"/>
</g>
<!-- p5 -->
<g id="node8" class="node"><title>p5</title>
<ellipse fill="none" stroke="black" cx="496.6" cy="-1202" rx="315.333" ry="18"/>
<text text-anchor="middle" x="496.6" y="-1198.3" font-family="Times,serif" font-size="14.00">PLOT_WGS_COVERAGE:SAMTOOLS_SAMPLES_01:SQRT_FILE</text>
</g>
<!-- p3&#45;&gt;p5 -->
<g id="edge4" class="edge"><title>p3&#45;&gt;p5</title>
<path fill="none" stroke="black" d="M466.074,-1272.19C465.012,-1265.85 463.079,-1250.03 467.6,-1238 468.86,-1234.65 470.584,-1231.39 472.568,-1228.28"/>
<polygon fill="black" stroke="black" points="475.538,-1230.16 478.681,-1220.04 469.914,-1225.99 475.538,-1230.16"/>
<text text-anchor="middle" x="486.1" y="-1242.3" font-family="Times,serif" font-size="14.00">meta</text>
</g>
<!-- p7 -->
<g id="node10" class="node"><title>p7</title>
<ellipse fill="none" stroke="black" cx="496.6" cy="-1128" rx="3.25" ry="3.5"/>
<text text-anchor="middle" x="461.1" y="-1135.3" font-family="Times,serif" font-size="14.00">splitText</text>
</g>
<!-- p5&#45;&gt;p7 -->
<g id="edge6" class="edge"><title>p5&#45;&gt;p7</title>
<path fill="none" stroke="black" d="M496.6,-1183.94C496.6,-1171.13 496.6,-1153.84 496.6,-1142.11"/>
<polygon fill="black" stroke="black" points="500.1,-1141.75 496.6,-1131.75 493.1,-1141.75 500.1,-1141.75"/>
</g>
<!-- p5&#45;&gt;p6 -->
<g id="edge7" class="edge"><title>p5&#45;&gt;p6</title>
<path fill="none" stroke="black" d="M543.491,-1184.12C589.548,-1167.54 656.778,-1143.34 684.231,-1133.45"/>
<polygon fill="black" stroke="black" points="685.603,-1136.68 693.826,-1130 683.232,-1130.09 685.603,-1136.68"/>
</g>
<!-- p4 -->
<g id="node9" class="node"><title>p4</title>
<ellipse fill="black" stroke="black" cx="526.6" cy="-1276" rx="3.6" ry="3.6"/>
</g>
<!-- p4&#45;&gt;p5 -->
<g id="edge5" class="edge"><title>p4&#45;&gt;p5</title>
<path fill="none" stroke="black" d="M525.461,-1272.27C522.526,-1265.22 514.458,-1245.86 507.596,-1229.39"/>
<polygon fill="black" stroke="black" points="510.82,-1228.03 503.743,-1220.14 504.358,-1230.72 510.82,-1228.03"/>
<text text-anchor="middle" x="537.1" y="-1242.3" font-family="Times,serif" font-size="14.00">filein</text>
</g>
<!-- p8 -->
<g id="node12" class="node"><title>p8</title>
<ellipse fill="none" stroke="black" cx="496.6" cy="-1082" rx="3.25" ry="3.5"/>
<text text-anchor="middle" x="477.6" y="-1089.3" font-family="Times,serif" font-size="14.00">map</text>
</g>
<!-- p7&#45;&gt;p8 -->
<g id="edge9" class="edge"><title>p7&#45;&gt;p8</title>
<path fill="none" stroke="black" d="M496.6,-1124.38C496.6,-1118.86 496.6,-1105.74 496.6,-1095.74"/>
<polygon fill="black" stroke="black" points="500.1,-1095.55 496.6,-1085.55 493.1,-1095.55 500.1,-1095.55"/>
</g>
<!-- p17 -->
<g id="node18" class="node"><title>p17</title>
<ellipse fill="none" stroke="black" cx="690.6" cy="-800" rx="3.25" ry="3.5"/>
<text text-anchor="middle" x="673.6" y="-807.3" font-family="Times,serif" font-size="14.00">mix</text>
</g>
<!-- p13&#45;&gt;p17 -->
<g id="edge16" class="edge"><title>p13&#45;&gt;p17</title>
<path fill="none" stroke="black" d="M690.6,-944.466C690.6,-928.891 690.6,-845.746 690.6,-813.652"/>
<polygon fill="black" stroke="black" points="694.1,-813.604 690.6,-803.604 687.1,-813.604 694.1,-813.604"/>
<text text-anchor="middle" x="729.6" y="-870.3" font-family="Times,serif" font-size="14.00">version_ch</text>
</g>
<!-- p12 -->
<g id="node13" class="node"><title>p12</title>
<ellipse fill="none" stroke="black" cx="349.6" cy="-1008" rx="319.183" ry="18"/>
<text text-anchor="middle" x="349.6" y="-1004.3" font-family="Times,serif" font-size="14.00">PLOT_WGS_COVERAGE:SAMTOOLS_SAMPLES_01:ST_SAMPLE</text>
</g>
<!-- p8&#45;&gt;p12 -->
<g id="edge10" class="edge"><title>p8&#45;&gt;p12</title>
<path fill="none" stroke="black" d="M495.274,-1078.6C491.521,-1072.03 480.149,-1053.6 465.6,-1044 456.66,-1038.1 446.688,-1033.17 436.448,-1029.04"/>
<polygon fill="black" stroke="black" points="437.582,-1025.73 426.99,-1025.48 435.114,-1032.28 437.582,-1025.73"/>
<text text-anchor="middle" x="517.6" y="-1048.3" font-family="Times,serif" font-size="14.00">chunk_ch</text>
</g>
<!-- p14 -->
<g id="node17" class="node"><title>p14</title>
<ellipse fill="none" stroke="black" cx="349.6" cy="-948" rx="3.25" ry="3.5"/>
<text text-anchor="middle" x="321.6" y="-955.3" font-family="Times,serif" font-size="14.00">collect</text>
</g>
<!-- p12&#45;&gt;p14 -->
<g id="edge14" class="edge"><title>p12&#45;&gt;p14</title>
<path fill="none" stroke="black" d="M349.6,-989.912C349.6,-980.965 349.6,-970.187 349.6,-961.94"/>
<polygon fill="black" stroke="black" points="353.1,-961.691 349.6,-951.691 346.1,-961.691 353.1,-961.691"/>
</g>
<!-- p12&#45;&gt;p13 -->
<g id="edge15" class="edge"><title>p12&#45;&gt;p13</title>
<path fill="none" stroke="black" d="M445.041,-990.767C527.526,-976.737 639.294,-957.727 677.311,-951.26"/>
<polygon fill="black" stroke="black" points="678.243,-954.652 687.514,-949.525 677.069,-947.751 678.243,-954.652"/>
</g>
<!-- p9 -->
<g id="node14" class="node"><title>p9</title>
<ellipse fill="black" stroke="black" cx="243.6" cy="-1082" rx="3.6" ry="3.6"/>
</g>
<!-- p9&#45;&gt;p12 -->
<g id="edge11" class="edge"><title>p9&#45;&gt;p12</title>
<path fill="none" stroke="black" d="M244.122,-1078.27C245.548,-1071.52 250.121,-1053.91 260.6,-1044 266.074,-1038.82 272.404,-1034.38 279.114,-1030.58"/>
<polygon fill="black" stroke="black" points="281.161,-1033.46 288.455,-1025.78 277.961,-1027.24 281.161,-1033.46"/>
<text text-anchor="middle" x="279.1" y="-1048.3" font-family="Times,serif" font-size="14.00">meta</text>
</g>
<!-- p10 -->
<g id="node15" class="node"><title>p10</title>
<ellipse fill="black" stroke="black" cx="303.6" cy="-1082" rx="3.6" ry="3.6"/>
</g>
<!-- p10&#45;&gt;p12 -->
<g id="edge12" class="edge"><title>p10&#45;&gt;p12</title>
<path fill="none" stroke="black" d="M302.89,-1078.11C301.451,-1071.6 298.798,-1055.47 304.6,-1044 306.56,-1040.13 309.171,-1036.55 312.15,-1033.29"/>
<polygon fill="black" stroke="black" points="314.755,-1035.64 319.642,-1026.24 309.959,-1030.54 314.755,-1035.64"/>
<text text-anchor="middle" x="339.6" y="-1048.3" font-family="Times,serif" font-size="14.00">reference</text>
</g>
<!-- p11 -->
<g id="node16" class="node"><title>p11</title>
<ellipse fill="black" stroke="black" cx="396.6" cy="-1082" rx="3.6" ry="3.6"/>
</g>
<!-- p11&#45;&gt;p12 -->
<g id="edge13" class="edge"><title>p11&#45;&gt;p12</title>
<path fill="none" stroke="black" d="M395.277,-1078.62C391.956,-1072.68 382.934,-1056.77 374.6,-1044 372.562,-1040.88 370.367,-1037.64 368.155,-1034.45"/>
<polygon fill="black" stroke="black" points="370.984,-1032.39 362.354,-1026.25 365.268,-1036.43 370.984,-1032.39"/>
<text text-anchor="middle" x="423.1" y="-1048.3" font-family="Times,serif" font-size="14.00">references</text>
</g>
<!-- p16 -->
<g id="node19" class="node"><title>p16</title>
<ellipse fill="none" stroke="black" cx="354.6" cy="-874" rx="297.51" ry="18"/>
<text text-anchor="middle" x="354.6" y="-870.3" font-family="Times,serif" font-size="14.00">PLOT_WGS_COVERAGE:SAMTOOLS_SAMPLES_01:DIGEST</text>
</g>
<!-- p14&#45;&gt;p16 -->
<g id="edge17" class="edge"><title>p14&#45;&gt;p16</title>
<path fill="none" stroke="black" d="M349.79,-944.265C350.27,-937.354 351.574,-918.578 352.703,-902.316"/>
<polygon fill="black" stroke="black" points="356.208,-902.361 353.41,-892.143 349.225,-901.876 356.208,-902.361"/>
</g>
<!-- p18 -->
<g id="node22" class="node"><title>p18</title>
<ellipse fill="none" stroke="black" cx="712.6" cy="-740" rx="3.25" ry="3.5"/>
<text text-anchor="middle" x="684.6" y="-747.3" font-family="Times,serif" font-size="14.00">collect</text>
</g>
<!-- p17&#45;&gt;p18 -->
<g id="edge21" class="edge"><title>p17&#45;&gt;p18</title>
<path fill="none" stroke="black" d="M691.545,-796.508C694.344,-789.129 702.724,-767.036 708.029,-753.05"/>
<polygon fill="black" stroke="black" points="711.409,-754.01 711.683,-743.418 704.864,-751.527 711.409,-754.01"/>
<text text-anchor="middle" x="742.6" y="-766.3" font-family="Times,serif" font-size="14.00">version_ch</text>
</g>
<!-- p24 -->
<g id="node21" class="node"><title>p24</title>
<ellipse fill="none" stroke="black" cx="340.6" cy="-770" rx="3.25" ry="3.5"/>
<text text-anchor="middle" x="307.6" y="-777.3" font-family="Times,serif" font-size="14.00">splitCsv</text>
</g>
<!-- p16&#45;&gt;p24 -->
<g id="edge19" class="edge"><title>p16&#45;&gt;p24</title>
<path fill="none" stroke="black" d="M352.225,-855.697C349.424,-835.291 344.835,-801.858 342.343,-783.701"/>
<polygon fill="black" stroke="black" points="345.805,-783.181 340.977,-773.75 338.87,-784.133 345.805,-783.181"/>
<text text-anchor="middle" x="374.6" y="-826.3" font-family="Times,serif" font-size="14.00">output</text>
</g>
<!-- p16&#45;&gt;p17 -->
<g id="edge20" class="edge"><title>p16&#45;&gt;p17</title>
<path fill="none" stroke="black" d="M431.264,-856.572C513.406,-838.97 637.403,-812.399 677.557,-803.795"/>
<polygon fill="black" stroke="black" points="678.444,-807.184 687.489,-801.667 676.977,-800.34 678.444,-807.184"/>
</g>
<!-- p15 -->
<g id="node20" class="node"><title>p15</title>
<ellipse fill="black" stroke="black" cx="382.6" cy="-948" rx="3.6" ry="3.6"/>
</g>
<!-- p15&#45;&gt;p16 -->
<g id="edge18" class="edge"><title>p15&#45;&gt;p16</title>
<path fill="none" stroke="black" d="M381.537,-944.265C378.823,-937.288 371.408,-918.219 365.043,-901.852"/>
<polygon fill="black" stroke="black" points="368.153,-900.194 361.267,-892.143 361.629,-902.732 368.153,-900.194"/>
<text text-anchor="middle" x="393.1" y="-914.3" font-family="Times,serif" font-size="14.00">meta</text>
</g>
<!-- p26 -->
<g id="node28" class="node"><title>p26</title>
<ellipse fill="none" stroke="black" cx="319.6" cy="-578" rx="185.35" ry="18"/>
<text text-anchor="middle" x="319.6" y="-574.3" font-family="Times,serif" font-size="14.00">PLOT_WGS_COVERAGE:PLOT_WGS</text>
</g>
<!-- p24&#45;&gt;p26 -->
<g id="edge28" class="edge"><title>p24&#45;&gt;p26</title>
<path fill="none" stroke="black" d="M339.917,-766.381C337.249,-756.022 327.489,-716.879 323.6,-684 320.498,-657.774 319.625,-627.632 319.452,-606.39"/>
<polygon fill="black" stroke="black" points="322.952,-606.149 319.418,-596.161 315.952,-606.173 322.952,-606.149"/>
</g>
<!-- p22 -->
<g id="node23" class="node"><title>p22</title>
<ellipse fill="none" stroke="black" cx="748.6" cy="-666" rx="348.054" ry="18"/>
<text text-anchor="middle" x="748.6" y="-662.3" font-family="Times,serif" font-size="14.00">PLOT_WGS_COVERAGE:SAMTOOLS_SAMPLES_01:MERGE_VERSION</text>
</g>
<!-- p18&#45;&gt;p22 -->
<g id="edge22" class="edge"><title>p18&#45;&gt;p22</title>
<path fill="none" stroke="black" d="M715.063,-737.351C719.626,-734.165 729.403,-726.704 734.6,-718 738.855,-710.874 741.85,-702.422 743.945,-694.469"/>
<polygon fill="black" stroke="black" points="747.418,-694.98 746.211,-684.454 740.591,-693.436 747.418,-694.98"/>
</g>
<!-- p22&#45;&gt;p23 -->
<g id="edge26" class="edge"><title>p22&#45;&gt;p23</title>
<path fill="none" stroke="black" d="M705.005,-648.112C653.28,-628.074 570.127,-595.862 538.942,-583.781"/>
<polygon fill="black" stroke="black" points="540.054,-580.459 529.465,-580.11 537.526,-586.986 540.054,-580.459"/>
</g>
<!-- p19 -->
<g id="node24" class="node"><title>p19</title>
<ellipse fill="black" stroke="black" cx="781.6" cy="-740" rx="3.6" ry="3.6"/>
</g>
<!-- p19&#45;&gt;p22 -->
<g id="edge23" class="edge"><title>p19&#45;&gt;p22</title>
<path fill="none" stroke="black" d="M780.347,-736.265C777.119,-729.222 768.244,-709.859 760.695,-693.39"/>
<polygon fill="black" stroke="black" points="763.805,-691.775 756.457,-684.143 757.442,-694.692 763.805,-691.775"/>
<text text-anchor="middle" x="790.1" y="-706.3" font-family="Times,serif" font-size="14.00">meta</text>
</g>
<!-- p20 -->
<g id="node25" class="node"><title>p20</title>
<ellipse fill="black" stroke="black" cx="588.6" cy="-740" rx="3.6" ry="3.6"/>
</g>
<!-- p20&#45;&gt;p22 -->
<g id="edge24" class="edge"><title>p20&#45;&gt;p22</title>
<path fill="none" stroke="black" d="M588.63,-736.196C588.865,-729.288 590.471,-711.337 600.6,-702 607.294,-695.829 621.123,-690.443 637.756,-685.867"/>
<polygon fill="black" stroke="black" points="639.031,-689.153 647.84,-683.266 637.283,-682.375 639.031,-689.153"/>
<text text-anchor="middle" x="620.6" y="-706.3" font-family="Times,serif" font-size="14.00">name</text>
</g>
<!-- p21 -->
<g id="node26" class="node"><title>p21</title>
<ellipse fill="black" stroke="black" cx="651.6" cy="-740" rx="3.6" ry="3.6"/>
</g>
<!-- p21&#45;&gt;p22 -->
<g id="edge25" class="edge"><title>p21&#45;&gt;p22</title>
<path fill="none" stroke="black" d="M650.337,-736.368C647.414,-729.851 640.993,-712.723 648.6,-702 652.077,-697.099 656.296,-692.878 661.01,-689.245"/>
<polygon fill="black" stroke="black" points="662.992,-692.13 669.367,-683.668 659.107,-686.307 662.992,-692.13"/>
<text text-anchor="middle" x="689.6" y="-706.3" font-family="Times,serif" font-size="14.00">description</text>
</g>
<!-- p29 -->
<g id="node30" class="node"><title>p29</title>
<ellipse fill="none" stroke="black" cx="482.6" cy="-444" rx="3.25" ry="3.5"/>
<text text-anchor="middle" x="454.6" y="-451.3" font-family="Times,serif" font-size="14.00">collect</text>
</g>
<!-- p27&#45;&gt;p29 -->
<g id="edge32" class="edge"><title>p27&#45;&gt;p29</title>
<path fill="none" stroke="black" d="M482.6,-500.203C482.6,-492.649 482.6,-471.48 482.6,-457.66"/>
<polygon fill="black" stroke="black" points="486.1,-457.636 482.6,-447.636 479.1,-457.636 486.1,-457.636"/>
<text text-anchor="middle" x="521.6" y="-470.3" font-family="Times,serif" font-size="14.00">version_ch</text>
</g>
<!-- p26&#45;&gt;p28 -->
<g id="edge30" class="edge"><title>p26&#45;&gt;p28</title>
<path fill="none" stroke="black" d="M274.175,-560.482C228.631,-543.92 161.439,-519.487 133.978,-509.501"/>
<polygon fill="black" stroke="black" points="134.971,-506.138 124.377,-506.01 132.578,-512.716 134.971,-506.138"/>
</g>
<!-- p26&#45;&gt;p27 -->
<g id="edge31" class="edge"><title>p26&#45;&gt;p27</title>
<path fill="none" stroke="black" d="M357.405,-560.301C393.925,-544.169 447.062,-520.698 470.605,-510.298"/>
<polygon fill="black" stroke="black" points="472.24,-513.402 479.974,-506.16 469.412,-506.999 472.24,-513.402"/>
</g>
<!-- p25 -->
<g id="node29" class="node"><title>p25</title>
<ellipse fill="black" stroke="black" cx="336.6" cy="-666" rx="3.6" ry="3.6"/>
</g>
<!-- p25&#45;&gt;p26 -->
<g id="edge29" class="edge"><title>p25&#45;&gt;p26</title>
<path fill="none" stroke="black" d="M336.034,-662.139C334.319,-653.462 329.042,-626.767 324.926,-605.942"/>
<polygon fill="black" stroke="black" points="328.334,-605.135 322.961,-596.004 321.467,-606.493 328.334,-605.135"/>
<text text-anchor="middle" x="349.1" y="-618.3" font-family="Times,serif" font-size="14.00">meta</text>
</g>
<!-- p33 -->
<g id="node32" class="node"><title>p33</title>
<ellipse fill="none" stroke="black" cx="368.6" cy="-370" rx="219.046" ry="18"/>
<text text-anchor="middle" x="368.6" y="-366.3" font-family="Times,serif" font-size="14.00">PLOT_WGS_COVERAGE:MERGE_VERSION</text>
</g>
<!-- p29&#45;&gt;p33 -->
<g id="edge34" class="edge"><title>p29&#45;&gt;p33</title>
<path fill="none" stroke="black" d="M482.177,-440.249C480.993,-433.461 477.019,-415.761 466.6,-406 460.667,-400.442 453.792,-395.756 446.489,-391.808"/>
<polygon fill="black" stroke="black" points="447.57,-388.44 437.049,-387.191 444.494,-394.728 447.57,-388.44"/>
</g>
<!-- p37 -->
<g id="node36" class="node"><title>p37</title>
<ellipse fill="none" stroke="black" cx="332.6" cy="-208" rx="3.25" ry="3.5"/>
<text text-anchor="middle" x="315.6" y="-215.3" font-family="Times,serif" font-size="14.00">mix</text>
</g>
<!-- p34&#45;&gt;p37 -->
<g id="edge39" class="edge"><title>p34&#45;&gt;p37</title>
<path fill="none" stroke="black" d="M183.815,-278.704C185.823,-275.109 190.157,-268.137 195.6,-264 235.232,-233.881 293.583,-217.806 319.439,-211.801"/>
<polygon fill="black" stroke="black" points="320.276,-215.201 329.297,-209.645 318.78,-208.363 320.276,-215.201"/>
<text text-anchor="middle" x="281.1" y="-234.3" font-family="Times,serif" font-size="14.00">to_zip</text>
</g>
<!-- p33&#45;&gt;p34 -->
<g id="edge38" class="edge"><title>p33&#45;&gt;p34</title>
<path fill="none" stroke="black" d="M305.189,-352.735C270.482,-341.715 228.066,-324.616 195.6,-300 193.302,-298.257 191.202,-296.009 189.392,-293.721"/>
<polygon fill="black" stroke="black" points="192.253,-291.703 183.814,-285.298 186.417,-295.568 192.253,-291.703"/>
</g>
<!-- p36 -->
<g id="node38" class="node"><title>p36</title>
<ellipse fill="none" stroke="black" cx="435.6" cy="-282" rx="231.069" ry="18"/>
<text text-anchor="middle" x="435.6" y="-278.3" font-family="Times,serif" font-size="14.00">PLOT_WGS_COVERAGE:VERSION_TO_HTML</text>
</g>
<!-- p33&#45;&gt;p36 -->
<g id="edge41" class="edge"><title>p33&#45;&gt;p36</title>
<path fill="none" stroke="black" d="M381.837,-352.009C391.592,-339.488 405.019,-322.253 416.015,-308.14"/>
<polygon fill="black" stroke="black" points="418.776,-310.29 422.161,-300.25 413.254,-305.987 418.776,-310.29"/>
<text text-anchor="middle" x="422.1" y="-322.3" font-family="Times,serif" font-size="14.00">xml</text>
</g>
<!-- p30 -->
<g id="node33" class="node"><title>p30</title>
<ellipse fill="black" stroke="black" cx="262.6" cy="-444" rx="3.6" ry="3.6"/>
</g>
<!-- p30&#45;&gt;p33 -->
<g id="edge35" class="edge"><title>p30&#45;&gt;p33</title>
<path fill="none" stroke="black" d="M263.689,-440.285C266.504,-433.58 274.647,-416.055 286.6,-406 292.985,-400.629 300.317,-395.967 307.914,-391.955"/>
<polygon fill="black" stroke="black" points="309.477,-395.087 316.913,-387.54 306.394,-388.803 309.477,-395.087"/>
<text text-anchor="middle" x="305.1" y="-410.3" font-family="Times,serif" font-size="14.00">meta</text>
</g>
<!-- p31 -->
<g id="node34" class="node"><title>p31</title>
<ellipse fill="black" stroke="black" cx="322.6" cy="-444" rx="3.6" ry="3.6"/>
</g>
<!-- p31&#45;&gt;p33 -->
<g id="edge36" class="edge"><title>p31&#45;&gt;p33</title>
<path fill="none" stroke="black" d="M322.964,-440.116C323.886,-433.621 326.741,-417.515 333.6,-406 335.777,-402.345 338.42,-398.796 341.269,-395.447"/>
<polygon fill="black" stroke="black" points="343.91,-397.746 348.164,-388.042 338.787,-392.975 343.91,-397.746"/>
<text text-anchor="middle" x="353.6" y="-410.3" font-family="Times,serif" font-size="14.00">name</text>
</g>
<!-- p32 -->
<g id="node35" class="node"><title>p32</title>
<ellipse fill="black" stroke="black" cx="385.6" cy="-444" rx="3.6" ry="3.6"/>
</g>
<!-- p32&#45;&gt;p33 -->
<g id="edge37" class="edge"><title>p32&#45;&gt;p33</title>
<path fill="none" stroke="black" d="M384.954,-440.265C383.322,-433.354 378.889,-414.578 375.05,-398.316"/>
<polygon fill="black" stroke="black" points="378.352,-397.071 372.648,-388.143 371.539,-398.68 378.352,-397.071"/>
<text text-anchor="middle" x="421.6" y="-410.3" font-family="Times,serif" font-size="14.00">description</text>
</g>
<!-- p38 -->
<g id="node39" class="node"><title>p38</title>
<ellipse fill="none" stroke="black" cx="332.6" cy="-148" rx="3.25" ry="3.5"/>
<text text-anchor="middle" x="304.6" y="-155.3" font-family="Times,serif" font-size="14.00">collect</text>
</g>
<!-- p37&#45;&gt;p38 -->
<g id="edge43" class="edge"><title>p37&#45;&gt;p38</title>
<path fill="none" stroke="black" d="M332.6,-204.203C332.6,-196.649 332.6,-175.48 332.6,-161.66"/>
<polygon fill="black" stroke="black" points="336.1,-161.636 332.6,-151.636 329.1,-161.636 336.1,-161.636"/>
<text text-anchor="middle" x="354.1" y="-174.3" font-family="Times,serif" font-size="14.00">to_zip</text>
</g>
<!-- p35 -->
<g id="node37" class="node"><title>p35</title>
<ellipse fill="black" stroke="black" cx="609.6" cy="-370" rx="3.6" ry="3.6"/>
</g>
<!-- p35&#45;&gt;p36 -->
<g id="edge40" class="edge"><title>p35&#45;&gt;p36</title>
<path fill="none" stroke="black" d="M608.097,-366.234C605.97,-362.546 601.76,-356.017 596.6,-352 568.883,-330.426 533.404,-314.273 502.808,-303.042"/>
<polygon fill="black" stroke="black" points="503.657,-299.629 493.063,-299.568 501.307,-306.223 503.657,-299.629"/>
<text text-anchor="middle" x="587.1" y="-322.3" font-family="Times,serif" font-size="14.00">meta</text>
</g>
<!-- p36&#45;&gt;p37 -->
<g id="edge42" class="edge"><title>p36&#45;&gt;p37</title>
<path fill="none" stroke="black" d="M411.19,-263.937C389.73,-248.935 359.495,-227.8 343.505,-216.623"/>
<polygon fill="black" stroke="black" points="345.194,-213.533 334.993,-210.673 341.184,-219.271 345.194,-213.533"/>
</g>
<!-- p40 -->
<g id="node40" class="node"><title>p40</title>
<ellipse fill="none" stroke="black" cx="348.6" cy="-74" rx="156.93" ry="18"/>
<text text-anchor="middle" x="348.6" y="-70.3" font-family="Times,serif" font-size="14.00">PLOT_WGS_COVERAGE:ZIPIT</text>
</g>
<!-- p38&#45;&gt;p40 -->
<g id="edge44" class="edge"><title>p38&#45;&gt;p40</title>
<path fill="none" stroke="black" d="M333.208,-144.265C334.744,-137.354 338.916,-118.578 342.53,-102.316"/>
<polygon fill="black" stroke="black" points="346.038,-102.664 344.79,-92.1429 339.204,-101.145 346.038,-102.664"/>
</g>
<!-- p41 -->
<g id="node42" class="node"><title>p41</title>
<ellipse fill="black" stroke="black" cx="348.6" cy="-2" rx="1.8" ry="1.8"/>
</g>
<!-- p40&#45;&gt;p41 -->
<g id="edge46" class="edge"><title>p40&#45;&gt;p41</title>
<path fill="none" stroke="black" d="M348.6,-55.6966C348.6,-42.6347 348.6,-25.1104 348.6,-13.9338"/>
<polygon fill="black" stroke="black" points="352.1,-13.8073 348.6,-3.8073 345.1,-13.8073 352.1,-13.8073"/>
<text text-anchor="middle" x="359.6" y="-26.3" font-family="Times,serif" font-size="14.00">zip</text>
</g>
<!-- p39 -->
<g id="node41" class="node"><title>p39</title>
<ellipse fill="black" stroke="black" cx="365.6" cy="-148" rx="3.6" ry="3.6"/>
</g>
<!-- p39&#45;&gt;p40 -->
<g id="edge45" class="edge"><title>p39&#45;&gt;p40</title>
<path fill="none" stroke="black" d="M364.954,-144.265C363.322,-137.354 358.889,-118.578 355.05,-102.316"/>
<polygon fill="black" stroke="black" points="358.352,-101.071 352.648,-92.1429 351.539,-102.68 358.352,-101.071"/>
<text text-anchor="middle" x="379.1" y="-114.3" font-family="Times,serif" font-size="14.00">meta</text>
</g>
</g>
</svg>
