<?xml version="1.0" encoding="UTF-8" standalone="no"?>
<!DOCTYPE svg PUBLIC "-//W3C//DTD SVG 1.1//EN"
 "http://www.w3.org/Graphics/SVG/1.1/DTD/svg11.dtd">
<!-- Generated by graphviz version 2.30.1 (20201013.1554)
 -->
<!-- Title: 20221123hs38meNTS299ultraresworkflow Pages: 1 -->
<svg width="2234pt" height="1810pt"
 viewBox="0.00 0.00 2233.60 1810.00" xmlns="http://www.w3.org/2000/svg" xmlns:xlink="http://www.w3.org/1999/xlink">
<g id="graph0" class="graph" transform="scale(1 1) rotate(0) translate(4 1806)">
<title>20221123hs38meNTS299ultraresworkflow</title>
<polygon fill="white" stroke="white" points="-4,5 -4,-1806 2230.6,-1806 2230.6,5 -4,5"/>
<!-- p0 -->
<g id="node1" class="node"><title>p0</title>
<ellipse fill="black" stroke="black" cx="112.6" cy="-1202" rx="3.6" ry="3.6"/>
<text text-anchor="middle" x="54.5" y="-1209.4" font-family="Times,serif" font-size="14.00">Channel.empty</text>
</g>
<!-- p22 -->
<g id="node2" class="node"><title>p22</title>
<ellipse fill="none" stroke="black" cx="454.6" cy="-1114" rx="3.25" ry="3.5"/>
<text text-anchor="middle" x="437.6" y="-1121.3" font-family="Times,serif" font-size="14.00">mix</text>
</g>
<!-- p0&#45;&gt;p22 -->
<g id="edge1" class="edge"><title>p0&#45;&gt;p22</title>
<path fill="none" stroke="black" d="M113.861,-1198.34C115.814,-1194.52 119.942,-1187.57 125.6,-1184 232.56,-1116.59 394.09,-1113.86 441.241,-1114.61"/>
<polygon fill="black" stroke="black" points="441.281,-1118.11 451.366,-1114.87 441.457,-1111.12 441.281,-1118.11"/>
<text text-anchor="middle" x="230.6" y="-1154.3" font-family="Times,serif" font-size="14.00">version_ch</text>
</g>
<!-- p26 -->
<g id="node25" class="node"><title>p26</title>
<ellipse fill="none" stroke="black" cx="1155.6" cy="-1040" rx="3.25" ry="3.5"/>
<text text-anchor="middle" x="1138.6" y="-1047.3" font-family="Times,serif" font-size="14.00">mix</text>
</g>
<!-- p22&#45;&gt;p26 -->
<g id="edge26" class="edge"><title>p22&#45;&gt;p26</title>
<path fill="none" stroke="black" d="M457.725,-1112.68C503.996,-1107.93 1049.83,-1051.86 1142.32,-1042.36"/>
<polygon fill="black" stroke="black" points="1142.83,-1045.83 1152.42,-1041.33 1142.11,-1038.87 1142.83,-1045.83"/>
<text text-anchor="middle" x="987.6" y="-1066.3" font-family="Times,serif" font-size="14.00">version_ch</text>
</g>
<!-- p1 -->
<g id="node3" class="node"><title>p1</title>
<ellipse fill="black" stroke="black" cx="419.6" cy="-1724" rx="3.6" ry="3.6"/>
<text text-anchor="middle" x="361.5" y="-1731.4" font-family="Times,serif" font-size="14.00">Channel.empty</text>
</g>
<!-- p5 -->
<g id="node4" class="node"><title>p5</title>
<ellipse fill="none" stroke="black" cx="531.6" cy="-1650" rx="3.25" ry="3.5"/>
<text text-anchor="middle" x="514.6" y="-1657.3" font-family="Times,serif" font-size="14.00">mix</text>
</g>
<!-- p1&#45;&gt;p5 -->
<g id="edge2" class="edge"><title>p1&#45;&gt;p5</title>
<path fill="none" stroke="black" d="M421.165,-1720.31C423.363,-1716.71 427.652,-1710.27 432.6,-1706 460.199,-1682.16 499.782,-1663.99 519.49,-1655.79"/>
<polygon fill="black" stroke="black" points="520.93,-1658.98 528.908,-1652.01 518.324,-1652.49 520.93,-1658.98"/>
<text text-anchor="middle" x="523.6" y="-1676.3" font-family="Times,serif" font-size="14.00">version_ch</text>
</g>
<!-- p12 -->
<g id="node9" class="node"><title>p12</title>
<ellipse fill="none" stroke="black" cx="531.6" cy="-1470" rx="3.25" ry="3.5"/>
<text text-anchor="middle" x="514.6" y="-1477.3" font-family="Times,serif" font-size="14.00">mix</text>
</g>
<!-- p5&#45;&gt;p12 -->
<g id="edge7" class="edge"><title>p5&#45;&gt;p12</title>
<path fill="none" stroke="black" d="M531.6,-1646.48C531.6,-1628.72 531.6,-1521.83 531.6,-1484.14"/>
<polygon fill="black" stroke="black" points="535.1,-1483.68 531.6,-1473.68 528.1,-1483.68 535.1,-1483.68"/>
<text text-anchor="middle" x="570.6" y="-1570.3" font-family="Times,serif" font-size="14.00">version_ch</text>
</g>
<!-- p2 -->
<g id="node5" class="node"><title>p2</title>
<ellipse fill="black" stroke="black" cx="698.6" cy="-1798" rx="3.6" ry="3.6"/>
</g>
<!-- p4 -->
<g id="node6" class="node"><title>p4</title>
<ellipse fill="none" stroke="black" cx="728.6" cy="-1724" rx="286.912" ry="18"/>
<text text-anchor="middle" x="728.6" y="-1720.3" font-family="Times,serif" font-size="14.00">ULTRA_RARES_01:SAMTOOLS_SAMPLES_01:SQRT_FILE</text>
</g>
<!-- p2&#45;&gt;p4 -->
<g id="edge3" class="edge"><title>p2&#45;&gt;p4</title>
<path fill="none" stroke="black" d="M698.074,-1794.19C697.012,-1787.85 695.079,-1772.03 699.6,-1760 700.86,-1756.65 702.584,-1753.39 704.568,-1750.28"/>
<polygon fill="black" stroke="black" points="707.538,-1752.16 710.681,-1742.04 701.914,-1747.99 707.538,-1752.16"/>
<text text-anchor="middle" x="718.1" y="-1764.3" font-family="Times,serif" font-size="14.00">meta</text>
</g>
<!-- p6 -->
<g id="node8" class="node"><title>p6</title>
<ellipse fill="none" stroke="black" cx="728.6" cy="-1650" rx="3.25" ry="3.5"/>
<text text-anchor="middle" x="693.1" y="-1657.3" font-family="Times,serif" font-size="14.00">splitText</text>
</g>
<!-- p4&#45;&gt;p6 -->
<g id="edge5" class="edge"><title>p4&#45;&gt;p6</title>
<path fill="none" stroke="black" d="M728.6,-1705.94C728.6,-1693.13 728.6,-1675.84 728.6,-1664.11"/>
<polygon fill="black" stroke="black" points="732.1,-1663.75 728.6,-1653.75 725.1,-1663.75 732.1,-1663.75"/>
</g>
<!-- p4&#45;&gt;p5 -->
<g id="edge6" class="edge"><title>p4&#45;&gt;p5</title>
<path fill="none" stroke="black" d="M682.412,-1706.12C637.047,-1689.54 570.825,-1665.34 543.784,-1655.45"/>
<polygon fill="black" stroke="black" points="544.926,-1652.14 534.332,-1652 542.523,-1658.72 544.926,-1652.14"/>
</g>
<!-- p3 -->
<g id="node7" class="node"><title>p3</title>
<ellipse fill="black" stroke="black" cx="758.6" cy="-1798" rx="3.6" ry="3.6"/>
</g>
<!-- p3&#45;&gt;p4 -->
<g id="edge4" class="edge"><title>p3&#45;&gt;p4</title>
<path fill="none" stroke="black" d="M757.461,-1794.27C754.526,-1787.22 746.458,-1767.86 739.596,-1751.39"/>
<polygon fill="black" stroke="black" points="742.82,-1750.03 735.743,-1742.14 736.358,-1752.72 742.82,-1750.03"/>
<text text-anchor="middle" x="769.1" y="-1764.3" font-family="Times,serif" font-size="14.00">filein</text>
</g>
<!-- p7 -->
<g id="node10" class="node"><title>p7</title>
<ellipse fill="none" stroke="black" cx="728.6" cy="-1604" rx="3.25" ry="3.5"/>
<text text-anchor="middle" x="709.6" y="-1611.3" font-family="Times,serif" font-size="14.00">map</text>
</g>
<!-- p6&#45;&gt;p7 -->
<g id="edge8" class="edge"><title>p6&#45;&gt;p7</title>
<path fill="none" stroke="black" d="M728.6,-1646.38C728.6,-1640.86 728.6,-1627.74 728.6,-1617.74"/>
<polygon fill="black" stroke="black" points="732.1,-1617.55 728.6,-1607.55 725.1,-1617.55 732.1,-1617.55"/>
</g>
<!-- p16 -->
<g id="node16" class="node"><title>p16</title>
<ellipse fill="none" stroke="black" cx="529.6" cy="-1336" rx="3.25" ry="3.5"/>
<text text-anchor="middle" x="512.6" y="-1343.3" font-family="Times,serif" font-size="14.00">mix</text>
</g>
<!-- p12&#45;&gt;p16 -->
<g id="edge15" class="edge"><title>p12&#45;&gt;p16</title>
<path fill="none" stroke="black" d="M531.558,-1466.24C531.331,-1451.28 530.242,-1379.4 529.794,-1349.79"/>
<polygon fill="black" stroke="black" points="533.293,-1349.69 529.642,-1339.74 526.294,-1349.79 533.293,-1349.69"/>
<text text-anchor="middle" x="570.6" y="-1392.3" font-family="Times,serif" font-size="14.00">version_ch</text>
</g>
<!-- p11 -->
<g id="node11" class="node"><title>p11</title>
<ellipse fill="none" stroke="black" cx="851.6" cy="-1530" rx="291.261" ry="18"/>
<text text-anchor="middle" x="851.6" y="-1526.3" font-family="Times,serif" font-size="14.00">ULTRA_RARES_01:SAMTOOLS_SAMPLES_01:ST_SAMPLE</text>
</g>
<!-- p7&#45;&gt;p11 -->
<g id="edge9" class="edge"><title>p7&#45;&gt;p11</title>
<path fill="none" stroke="black" d="M729.17,-1600.23C730.719,-1593.4 735.643,-1575.61 746.6,-1566 752.986,-1560.4 760.298,-1555.69 768.024,-1551.73"/>
<polygon fill="black" stroke="black" points="769.676,-1554.82 777.255,-1547.42 766.713,-1548.48 769.676,-1554.82"/>
<text text-anchor="middle" x="781.6" y="-1570.3" font-family="Times,serif" font-size="14.00">chunk_ch</text>
</g>
<!-- p13 -->
<g id="node15" class="node"><title>p13</title>
<ellipse fill="none" stroke="black" cx="852.6" cy="-1470" rx="3.25" ry="3.5"/>
<text text-anchor="middle" x="824.6" y="-1477.3" font-family="Times,serif" font-size="14.00">collect</text>
</g>
<!-- p11&#45;&gt;p13 -->
<g id="edge13" class="edge"><title>p11&#45;&gt;p13</title>
<path fill="none" stroke="black" d="M851.895,-1511.91C852.049,-1502.96 852.235,-1492.19 852.377,-1483.94"/>
<polygon fill="black" stroke="black" points="855.881,-1483.75 852.554,-1473.69 848.882,-1483.63 855.881,-1483.75"/>
</g>
<!-- p11&#45;&gt;p12 -->
<g id="edge14" class="edge"><title>p11&#45;&gt;p12</title>
<path fill="none" stroke="black" d="M762.462,-1512.84C685.704,-1498.93 581.678,-1480.08 545.038,-1473.44"/>
<polygon fill="black" stroke="black" points="545.508,-1469.96 535.044,-1471.62 544.26,-1476.85 545.508,-1469.96"/>
</g>
<!-- p8 -->
<g id="node12" class="node"><title>p8</title>
<ellipse fill="black" stroke="black" cx="821.6" cy="-1604" rx="3.6" ry="3.6"/>
</g>
<!-- p8&#45;&gt;p11 -->
<g id="edge10" class="edge"><title>p8&#45;&gt;p11</title>
<path fill="none" stroke="black" d="M821.074,-1600.19C820.012,-1593.85 818.079,-1578.03 822.6,-1566 823.86,-1562.65 825.584,-1559.39 827.568,-1556.28"/>
<polygon fill="black" stroke="black" points="830.538,-1558.16 833.681,-1548.04 824.914,-1553.99 830.538,-1558.16"/>
<text text-anchor="middle" x="841.1" y="-1570.3" font-family="Times,serif" font-size="14.00">meta</text>
</g>
<!-- p9 -->
<g id="node13" class="node"><title>p9</title>
<ellipse fill="black" stroke="black" cx="881.6" cy="-1604" rx="3.6" ry="3.6"/>
</g>
<!-- p9&#45;&gt;p11 -->
<g id="edge11" class="edge"><title>p9&#45;&gt;p11</title>
<path fill="none" stroke="black" d="M880.461,-1600.27C877.526,-1593.22 869.458,-1573.86 862.596,-1557.39"/>
<polygon fill="black" stroke="black" points="865.82,-1556.03 858.743,-1548.14 859.358,-1558.72 865.82,-1556.03"/>
<text text-anchor="middle" x="908.6" y="-1570.3" font-family="Times,serif" font-size="14.00">reference</text>
</g>
<!-- p10 -->
<g id="node14" class="node"><title>p10</title>
<ellipse fill="black" stroke="black" cx="974.6" cy="-1604" rx="3.6" ry="3.6"/>
</g>
<!-- p10&#45;&gt;p11 -->
<g id="edge12" class="edge"><title>p10&#45;&gt;p11</title>
<path fill="none" stroke="black" d="M973.315,-1600.25C970.012,-1593.46 960.563,-1575.75 947.6,-1566 940.261,-1560.48 931.963,-1555.76 923.396,-1551.74"/>
<polygon fill="black" stroke="black" points="924.591,-1548.44 914.026,-1547.66 921.793,-1554.86 924.591,-1548.44"/>
<text text-anchor="middle" x="1001.1" y="-1570.3" font-family="Times,serif" font-size="14.00">references</text>
</g>
<!-- p15 -->
<g id="node17" class="node"><title>p15</title>
<ellipse fill="none" stroke="black" cx="895.6" cy="-1396" rx="269.589" ry="18"/>
<text text-anchor="middle" x="895.6" y="-1392.3" font-family="Times,serif" font-size="14.00">ULTRA_RARES_01:SAMTOOLS_SAMPLES_01:DIGEST</text>
</g>
<!-- p13&#45;&gt;p15 -->
<g id="edge16" class="edge"><title>p13&#45;&gt;p15</title>
<path fill="none" stroke="black" d="M854.031,-1466.6C858.088,-1459.81 870.026,-1439.82 880.074,-1423"/>
<polygon fill="black" stroke="black" points="883.277,-1424.46 885.399,-1414.08 877.267,-1420.87 883.277,-1424.46"/>
</g>
<!-- p17 -->
<g id="node20" class="node"><title>p17</title>
<ellipse fill="none" stroke="black" cx="425.6" cy="-1276" rx="3.25" ry="3.5"/>
<text text-anchor="middle" x="397.6" y="-1283.3" font-family="Times,serif" font-size="14.00">collect</text>
</g>
<!-- p16&#45;&gt;p17 -->
<g id="edge20" class="edge"><title>p16&#45;&gt;p17</title>
<path fill="none" stroke="black" d="M527.029,-1333.57C514.664,-1326.67 460.928,-1296.7 437.077,-1283.4"/>
<polygon fill="black" stroke="black" points="438.519,-1280.2 428.081,-1278.38 435.11,-1286.31 438.519,-1280.2"/>
<text text-anchor="middle" x="529.6" y="-1302.3" font-family="Times,serif" font-size="14.00">version_ch</text>
</g>
<!-- p25 -->
<g id="node19" class="node"><title>p25</title>
<ellipse fill="none" stroke="black" cx="1155.6" cy="-1202" rx="362.502" ry="18"/>
<text text-anchor="middle" x="1155.6" y="-1198.3" font-family="Times,serif" font-size="14.00">ULTRA_RARES_01:CHECK_NO_COMMON_SAMPLES_AND_SPLIT_BAMS</text>
</g>
<!-- p15&#45;&gt;p25 -->
<g id="edge18" class="edge"><title>p15&#45;&gt;p25</title>
<path fill="none" stroke="black" d="M918.673,-1377.96C965.411,-1343.45 1071.31,-1265.24 1124.25,-1226.15"/>
<polygon fill="black" stroke="black" points="1126.61,-1228.76 1132.58,-1220 1122.45,-1223.13 1126.61,-1228.76"/>
<text text-anchor="middle" x="1049.6" y="-1302.3" font-family="Times,serif" font-size="14.00">output</text>
</g>
<!-- p15&#45;&gt;p16 -->
<g id="edge19" class="edge"><title>p15&#45;&gt;p16</title>
<path fill="none" stroke="black" d="M796.072,-1379.23C706.493,-1365.03 582.953,-1345.45 542.787,-1339.09"/>
<polygon fill="black" stroke="black" points="543.101,-1335.6 532.677,-1337.49 542.006,-1342.51 543.101,-1335.6"/>
</g>
<!-- p14 -->
<g id="node18" class="node"><title>p14</title>
<ellipse fill="black" stroke="black" cx="895.6" cy="-1470" rx="3.6" ry="3.6"/>
</g>
<!-- p14&#45;&gt;p15 -->
<g id="edge17" class="edge"><title>p14&#45;&gt;p15</title>
<path fill="none" stroke="black" d="M895.6,-1466.27C895.6,-1459.35 895.6,-1440.58 895.6,-1424.32"/>
<polygon fill="black" stroke="black" points="899.1,-1424.14 895.6,-1414.14 892.1,-1424.14 899.1,-1424.14"/>
<text text-anchor="middle" x="914.1" y="-1436.3" font-family="Times,serif" font-size="14.00">meta</text>
</g>
<!-- p33 -->
<g id="node28" class="node"><title>p33</title>
<ellipse fill="none" stroke="black" cx="1483.6" cy="-1114" rx="191.599" ry="18"/>
<text text-anchor="middle" x="1483.6" y="-1110.3" font-family="Times,serif" font-size="14.00">ULTRA_RARES_01:APPLY_ULTRARES</text>
</g>
<!-- p25&#45;&gt;p33 -->
<g id="edge29" class="edge"><title>p25&#45;&gt;p33</title>
<path fill="none" stroke="black" d="M1219.62,-1184.21C1275.05,-1169.68 1355.11,-1148.69 1412.51,-1133.64"/>
<polygon fill="black" stroke="black" points="1413.45,-1137.01 1422.24,-1131.09 1411.68,-1130.24 1413.45,-1137.01"/>
</g>
<!-- p25&#45;&gt;p26 -->
<g id="edge30" class="edge"><title>p25&#45;&gt;p26</title>
<path fill="none" stroke="black" d="M1155.6,-1183.88C1155.6,-1151.59 1155.6,-1082.37 1155.6,-1053.77"/>
<polygon fill="black" stroke="black" points="1159.1,-1053.55 1155.6,-1043.55 1152.1,-1053.55 1159.1,-1053.55"/>
</g>
<!-- p21 -->
<g id="node21" class="node"><title>p21</title>
<ellipse fill="none" stroke="black" cx="454.6" cy="-1202" rx="320.132" ry="18"/>
<text text-anchor="middle" x="454.6" y="-1198.3" font-family="Times,serif" font-size="14.00">ULTRA_RARES_01:SAMTOOLS_SAMPLES_01:MERGE_VERSION</text>
</g>
<!-- p17&#45;&gt;p21 -->
<g id="edge21" class="edge"><title>p17&#45;&gt;p21</title>
<path fill="none" stroke="black" d="M426.565,-1272.6C429.276,-1265.87 437.204,-1246.19 443.94,-1229.47"/>
<polygon fill="black" stroke="black" points="447.231,-1230.66 447.721,-1220.08 440.738,-1228.05 447.231,-1230.66"/>
</g>
<!-- p21&#45;&gt;p22 -->
<g id="edge25" class="edge"><title>p21&#45;&gt;p22</title>
<path fill="none" stroke="black" d="M454.6,-1183.6C454.6,-1167.05 454.6,-1142.54 454.6,-1127.74"/>
<polygon fill="black" stroke="black" points="458.1,-1127.67 454.6,-1117.67 451.1,-1127.67 458.1,-1127.67"/>
</g>
<!-- p18 -->
<g id="node22" class="node"><title>p18</title>
<ellipse fill="black" stroke="black" cx="454.6" cy="-1276" rx="3.6" ry="3.6"/>
</g>
<!-- p18&#45;&gt;p21 -->
<g id="edge22" class="edge"><title>p18&#45;&gt;p21</title>
<path fill="none" stroke="black" d="M454.6,-1272.27C454.6,-1265.35 454.6,-1246.58 454.6,-1230.32"/>
<polygon fill="black" stroke="black" points="458.1,-1230.14 454.6,-1220.14 451.1,-1230.14 458.1,-1230.14"/>
<text text-anchor="middle" x="473.1" y="-1242.3" font-family="Times,serif" font-size="14.00">meta</text>
</g>
<!-- p19 -->
<g id="node23" class="node"><title>p19</title>
<ellipse fill="black" stroke="black" cx="514.6" cy="-1276" rx="3.6" ry="3.6"/>
</g>
<!-- p19&#45;&gt;p21 -->
<g id="edge23" class="edge"><title>p19&#45;&gt;p21</title>
<path fill="none" stroke="black" d="M513.434,-1272.51C510.472,-1266.31 502.204,-1249.84 492.6,-1238 489.581,-1234.28 486.166,-1230.58 482.653,-1227.07"/>
<polygon fill="black" stroke="black" points="485.052,-1224.52 475.398,-1220.16 480.223,-1229.59 485.052,-1224.52"/>
<text text-anchor="middle" x="523.6" y="-1242.3" font-family="Times,serif" font-size="14.00">name</text>
</g>
<!-- p20 -->
<g id="node24" class="node"><title>p20</title>
<ellipse fill="black" stroke="black" cx="577.6" cy="-1276" rx="3.6" ry="3.6"/>
</g>
<!-- p20&#45;&gt;p21 -->
<g id="edge24" class="edge"><title>p20&#45;&gt;p21</title>
<path fill="none" stroke="black" d="M576.083,-1272.26C572.209,-1265.5 561.284,-1247.87 547.6,-1238 540.098,-1232.59 531.66,-1227.91 523.007,-1223.9"/>
<polygon fill="black" stroke="black" points="524.133,-1220.57 513.567,-1219.79 521.343,-1226.99 524.133,-1220.57"/>
<text text-anchor="middle" x="604.6" y="-1242.3" font-family="Times,serif" font-size="14.00">description</text>
</g>
<!-- p34 -->
<g id="node29" class="node"><title>p34</title>
<ellipse fill="none" stroke="black" cx="1254.6" cy="-966" rx="3.25" ry="3.5"/>
<text text-anchor="middle" x="1237.6" y="-973.3" font-family="Times,serif" font-size="14.00">mix</text>
</g>
<!-- p26&#45;&gt;p34 -->
<g id="edge31" class="edge"><title>p26&#45;&gt;p34</title>
<path fill="none" stroke="black" d="M1156.39,-1036.29C1158.46,-1029.6 1164.66,-1012.11 1175.6,-1002 1194.74,-984.31 1224.28,-974.512 1241.29,-970.041"/>
<polygon fill="black" stroke="black" points="1242.56,-973.336 1251.48,-967.617 1240.94,-966.526 1242.56,-973.336"/>
<text text-anchor="middle" x="1214.6" y="-1006.3" font-family="Times,serif" font-size="14.00">version_ch</text>
</g>
<!-- p23 -->
<g id="node26" class="node"><title>p23</title>
<ellipse fill="black" stroke="black" cx="1125.6" cy="-1276" rx="3.6" ry="3.6"/>
</g>
<!-- p23&#45;&gt;p25 -->
<g id="edge27" class="edge"><title>p23&#45;&gt;p25</title>
<path fill="none" stroke="black" d="M1125.07,-1272.19C1124.01,-1265.85 1122.08,-1250.03 1126.6,-1238 1127.86,-1234.65 1129.58,-1231.39 1131.57,-1228.28"/>
<polygon fill="black" stroke="black" points="1134.54,-1230.16 1137.68,-1220.04 1128.91,-1225.99 1134.54,-1230.16"/>
<text text-anchor="middle" x="1145.1" y="-1242.3" font-family="Times,serif" font-size="14.00">meta</text>
</g>
<!-- p24 -->
<g id="node27" class="node"><title>p24</title>
<ellipse fill="black" stroke="black" cx="1185.6" cy="-1276" rx="3.6" ry="3.6"/>
</g>
<!-- p24&#45;&gt;p25 -->
<g id="edge28" class="edge"><title>p24&#45;&gt;p25</title>
<path fill="none" stroke="black" d="M1184.46,-1272.27C1181.53,-1265.22 1173.46,-1245.86 1166.6,-1229.39"/>
<polygon fill="black" stroke="black" points="1169.82,-1228.03 1162.74,-1220.14 1163.36,-1230.72 1169.82,-1228.03"/>
<text text-anchor="middle" x="1188.6" y="-1242.3" font-family="Times,serif" font-size="14.00">vcf</text>
</g>
<!-- p35 -->
<g id="node36" class="node"><title>p35</title>
<ellipse fill="none" stroke="black" cx="1483.6" cy="-1040" rx="3.25" ry="3.5"/>
<text text-anchor="middle" x="1455.6" y="-1047.3" font-family="Times,serif" font-size="14.00">collect</text>
</g>
<!-- p33&#45;&gt;p35 -->
<g id="edge38" class="edge"><title>p33&#45;&gt;p35</title>
<path fill="none" stroke="black" d="M1483.6,-1095.94C1483.6,-1083.13 1483.6,-1065.84 1483.6,-1054.11"/>
<polygon fill="black" stroke="black" points="1487.1,-1053.75 1483.6,-1043.75 1480.1,-1053.75 1487.1,-1053.75"/>
</g>
<!-- p33&#45;&gt;p34 -->
<g id="edge39" class="edge"><title>p33&#45;&gt;p34</title>
<path fill="none" stroke="black" d="M1446.41,-1096.22C1401,-1074.57 1323.35,-1033.71 1267.6,-984 1265.62,-982.232 1263.73,-980.126 1262.03,-978.008"/>
<polygon fill="black" stroke="black" points="1264.79,-975.845 1256.19,-969.668 1259.06,-979.865 1264.79,-975.845"/>
</g>
<!-- p38 -->
<g id="node37" class="node"><title>p38</title>
<ellipse fill="none" stroke="black" cx="1254.6" cy="-878" rx="3.25" ry="3.5"/>
<text text-anchor="middle" x="1237.6" y="-885.3" font-family="Times,serif" font-size="14.00">mix</text>
</g>
<!-- p34&#45;&gt;p38 -->
<g id="edge40" class="edge"><title>p34&#45;&gt;p38</title>
<path fill="none" stroke="black" d="M1254.6,-962.139C1254.6,-951.281 1254.6,-912.206 1254.6,-891.727"/>
<polygon fill="black" stroke="black" points="1258.1,-891.615 1254.6,-881.615 1251.1,-891.615 1258.1,-891.615"/>
<text text-anchor="middle" x="1293.6" y="-918.3" font-family="Times,serif" font-size="14.00">version_ch</text>
</g>
<!-- p27 -->
<g id="node30" class="node"><title>p27</title>
<ellipse fill="black" stroke="black" cx="1539.6" cy="-1336" rx="3.6" ry="3.6"/>
<text text-anchor="middle" x="1471" y="-1343.4" font-family="Times,serif" font-size="14.00">Channel.fromPath</text>
</g>
<!-- p28 -->
<g id="node31" class="node"><title>p28</title>
<ellipse fill="none" stroke="black" cx="1539.6" cy="-1276" rx="3.25" ry="3.5"/>
<text text-anchor="middle" x="1506.6" y="-1283.3" font-family="Times,serif" font-size="14.00">splitCsv</text>
</g>
<!-- p27&#45;&gt;p28 -->
<g id="edge32" class="edge"><title>p27&#45;&gt;p28</title>
<path fill="none" stroke="black" d="M1539.6,-1332.2C1539.6,-1324.65 1539.6,-1303.48 1539.6,-1289.66"/>
<polygon fill="black" stroke="black" points="1543.1,-1289.64 1539.6,-1279.64 1536.1,-1289.64 1543.1,-1289.64"/>
</g>
<!-- p29 -->
<g id="node32" class="node"><title>p29</title>
<ellipse fill="none" stroke="black" cx="1539.6" cy="-1202" rx="3.25" ry="3.5"/>
<text text-anchor="middle" x="1551.6" y="-1209.3" font-family="Times,serif" font-size="14.00">map</text>
</g>
<!-- p28&#45;&gt;p29 -->
<g id="edge33" class="edge"><title>p28&#45;&gt;p29</title>
<path fill="none" stroke="black" d="M1539.6,-1272.27C1539.6,-1263.13 1539.6,-1233.28 1539.6,-1215.89"/>
<polygon fill="black" stroke="black" points="1543.1,-1215.74 1539.6,-1205.74 1536.1,-1215.74 1543.1,-1215.74"/>
</g>
<!-- p29&#45;&gt;p33 -->
<g id="edge34" class="edge"><title>p29&#45;&gt;p33</title>
<path fill="none" stroke="black" d="M1538.4,-1198.69C1536.4,-1195.07 1532.09,-1188.07 1526.6,-1184 1508.3,-1170.42 1491.58,-1184.73 1478.6,-1166 1473.77,-1159.03 1473.23,-1150.19 1474.45,-1141.83"/>
<polygon fill="black" stroke="black" points="1477.88,-1142.56 1476.65,-1132.03 1471.05,-1141.02 1477.88,-1142.56"/>
<text text-anchor="middle" x="1510.6" y="-1154.3" font-family="Times,serif" font-size="14.00">intervals</text>
</g>
<!-- p30 -->
<g id="node33" class="node"><title>p30</title>
<ellipse fill="black" stroke="black" cx="1564.6" cy="-1202" rx="3.6" ry="3.6"/>
</g>
<!-- p30&#45;&gt;p33 -->
<g id="edge35" class="edge"><title>p30&#45;&gt;p33</title>
<path fill="none" stroke="black" d="M1564.07,-1198.36C1562.33,-1190.25 1556.1,-1165.35 1542.6,-1150 1538.47,-1145.3 1533.55,-1141.06 1528.35,-1137.29"/>
<polygon fill="black" stroke="black" points="1530.26,-1134.36 1519.99,-1131.74 1526.39,-1140.19 1530.26,-1134.36"/>
<text text-anchor="middle" x="1571.1" y="-1154.3" font-family="Times,serif" font-size="14.00">meta</text>
</g>
<!-- p31 -->
<g id="node34" class="node"><title>p31</title>
<ellipse fill="black" stroke="black" cx="1624.6" cy="-1202" rx="3.6" ry="3.6"/>
</g>
<!-- p31&#45;&gt;p33 -->
<g id="edge36" class="edge"><title>p31&#45;&gt;p33</title>
<path fill="none" stroke="black" d="M1623.7,-1198.2C1620.8,-1189.64 1610.87,-1163.58 1593.6,-1150 1585.74,-1143.82 1576.77,-1138.72 1567.42,-1134.52"/>
<polygon fill="black" stroke="black" points="1568.55,-1131.19 1557.97,-1130.6 1565.87,-1137.66 1568.55,-1131.19"/>
<text text-anchor="middle" x="1643.6" y="-1154.3" font-family="Times,serif" font-size="14.00">reference</text>
</g>
<!-- p32 -->
<g id="node35" class="node"><title>p32</title>
<ellipse fill="black" stroke="black" cx="1717.6" cy="-1202" rx="3.6" ry="3.6"/>
</g>
<!-- p32&#45;&gt;p33 -->
<g id="edge37" class="edge"><title>p32&#45;&gt;p33</title>
<path fill="none" stroke="black" d="M1716.55,-1198.09C1713.18,-1189.21 1701.75,-1162.32 1682.6,-1150 1669.76,-1141.74 1642.63,-1135.04 1612.41,-1129.81"/>
<polygon fill="black" stroke="black" points="1612.95,-1126.35 1602.51,-1128.16 1611.8,-1133.26 1612.95,-1126.35"/>
<text text-anchor="middle" x="1709.6" y="-1154.3" font-family="Times,serif" font-size="14.00">vcf</text>
</g>
<!-- p37 -->
<g id="node38" class="node"><title>p37</title>
<ellipse fill="none" stroke="black" cx="1490.6" cy="-966" rx="213.247" ry="18"/>
<text text-anchor="middle" x="1490.6" y="-962.3" font-family="Times,serif" font-size="14.00">ULTRA_RARES_01:COLLECT_TO_FILE_01</text>
</g>
<!-- p35&#45;&gt;p37 -->
<g id="edge41" class="edge"><title>p35&#45;&gt;p37</title>
<path fill="none" stroke="black" d="M1483.87,-1036.27C1484.54,-1029.35 1486.36,-1010.58 1487.94,-994.316"/>
<polygon fill="black" stroke="black" points="1491.45,-994.435 1488.93,-984.143 1484.48,-993.757 1491.45,-994.435"/>
</g>
<!-- p60 -->
<g id="node41" class="node"><title>p60</title>
<ellipse fill="none" stroke="black" cx="1345.6" cy="-282" rx="3.25" ry="3.5"/>
<text text-anchor="middle" x="1328.6" y="-289.3" font-family="Times,serif" font-size="14.00">mix</text>
</g>
<!-- p38&#45;&gt;p60 -->
<g id="edge45" class="edge"><title>p38&#45;&gt;p60</title>
<path fill="none" stroke="black" d="M1254.6,-874.341C1254.6,-866.114 1254.6,-840.347 1254.6,-819 1254.6,-819 1254.6,-819 1254.6,-341 1254.6,-304.459 1307.42,-289.93 1332.58,-285.084"/>
<polygon fill="black" stroke="black" points="1333.29,-288.513 1342.57,-283.397 1332.13,-281.61 1333.29,-288.513"/>
<text text-anchor="middle" x="1293.6" y="-590.3" font-family="Times,serif" font-size="14.00">version_ch</text>
</g>
<!-- p41 -->
<g id="node40" class="node"><title>p41</title>
<ellipse fill="none" stroke="black" cx="1725.6" cy="-878" rx="280.188" ry="18"/>
<text text-anchor="middle" x="1725.6" y="-874.3" font-family="Times,serif" font-size="14.00">ULTRA_RARES_01:BCFTOOLS_CONCAT_01:SQRT_FILE</text>
</g>
<!-- p37&#45;&gt;p41 -->
<g id="edge43" class="edge"><title>p37&#45;&gt;p41</title>
<path fill="none" stroke="black" d="M1536.19,-948.316C1574.5,-934.298 1629.37,-914.216 1670.2,-899.273"/>
<polygon fill="black" stroke="black" points="1671.55,-902.507 1679.74,-895.784 1669.14,-895.934 1671.55,-902.507"/>
<text text-anchor="middle" x="1644.6" y="-918.3" font-family="Times,serif" font-size="14.00">vcfs</text>
</g>
<!-- p37&#45;&gt;p38 -->
<g id="edge44" class="edge"><title>p37&#45;&gt;p38</title>
<path fill="none" stroke="black" d="M1444.82,-948.316C1389.67,-928.219 1300.32,-895.66 1267.35,-883.646"/>
<polygon fill="black" stroke="black" points="1268.26,-880.251 1257.66,-880.116 1265.86,-886.828 1268.26,-880.251"/>
</g>
<!-- p36 -->
<g id="node39" class="node"><title>p36</title>
<ellipse fill="black" stroke="black" cx="1516.6" cy="-1040" rx="3.6" ry="3.6"/>
</g>
<!-- p36&#45;&gt;p37 -->
<g id="edge42" class="edge"><title>p36&#45;&gt;p37</title>
<path fill="none" stroke="black" d="M1515.61,-1036.27C1513.09,-1029.29 1506.21,-1010.22 1500.3,-993.852"/>
<polygon fill="black" stroke="black" points="1503.48,-992.36 1496.79,-984.143 1496.9,-994.737 1503.48,-992.36"/>
<text text-anchor="middle" x="1528.1" y="-1006.3" font-family="Times,serif" font-size="14.00">meta</text>
</g>
<!-- p43 -->
<g id="node45" class="node"><title>p43</title>
<ellipse fill="none" stroke="black" cx="1725.6" cy="-818" rx="3.25" ry="3.5"/>
<text text-anchor="middle" x="1690.1" y="-825.3" font-family="Times,serif" font-size="14.00">splitText</text>
</g>
<!-- p41&#45;&gt;p43 -->
<g id="edge48" class="edge"><title>p41&#45;&gt;p43</title>
<path fill="none" stroke="black" d="M1725.6,-859.912C1725.6,-850.965 1725.6,-840.187 1725.6,-831.94"/>
<polygon fill="black" stroke="black" points="1729.1,-831.691 1725.6,-821.691 1722.1,-831.691 1729.1,-831.691"/>
</g>
<!-- p42 -->
<g id="node46" class="node"><title>p42</title>
<ellipse fill="black" stroke="black" cx="1750.6" cy="-818" rx="1.8" ry="1.8"/>
</g>
<!-- p41&#45;&gt;p42 -->
<g id="edge49" class="edge"><title>p41&#45;&gt;p42</title>
<path fill="none" stroke="black" d="M1732.97,-859.912C1737.25,-849.971 1742.51,-837.769 1746.16,-829.291"/>
<polygon fill="black" stroke="black" points="1749.4,-830.625 1750.14,-820.056 1742.97,-827.854 1749.4,-830.625"/>
</g>
<!-- p61 -->
<g id="node62" class="node"><title>p61</title>
<ellipse fill="none" stroke="black" cx="1345.6" cy="-222" rx="3.25" ry="3.5"/>
<text text-anchor="middle" x="1317.6" y="-229.3" font-family="Times,serif" font-size="14.00">collect</text>
</g>
<!-- p60&#45;&gt;p61 -->
<g id="edge68" class="edge"><title>p60&#45;&gt;p61</title>
<path fill="none" stroke="black" d="M1345.6,-278.203C1345.6,-270.649 1345.6,-249.48 1345.6,-235.66"/>
<polygon fill="black" stroke="black" points="1349.1,-235.636 1345.6,-225.636 1342.1,-235.636 1349.1,-235.636"/>
<text text-anchor="middle" x="1384.6" y="-248.3" font-family="Times,serif" font-size="14.00">version_ch</text>
</g>
<!-- p39 -->
<g id="node42" class="node"><title>p39</title>
<ellipse fill="black" stroke="black" cx="1361.6" cy="-698" rx="3.6" ry="3.6"/>
<text text-anchor="middle" x="1303.5" y="-705.4" font-family="Times,serif" font-size="14.00">Channel.empty</text>
</g>
<!-- p48 -->
<g id="node43" class="node"><title>p48</title>
<ellipse fill="none" stroke="black" cx="1361.6" cy="-624" rx="3.25" ry="3.5"/>
<text text-anchor="middle" x="1344.6" y="-631.3" font-family="Times,serif" font-size="14.00">mix</text>
</g>
<!-- p39&#45;&gt;p48 -->
<g id="edge46" class="edge"><title>p39&#45;&gt;p48</title>
<path fill="none" stroke="black" d="M1361.6,-694.265C1361.6,-685.133 1361.6,-655.282 1361.6,-637.892"/>
<polygon fill="black" stroke="black" points="1365.1,-637.737 1361.6,-627.737 1358.1,-637.737 1365.1,-637.737"/>
<text text-anchor="middle" x="1400.6" y="-650.3" font-family="Times,serif" font-size="14.00">version_ch</text>
</g>
<!-- p54 -->
<g id="node52" class="node"><title>p54</title>
<ellipse fill="none" stroke="black" cx="1532.6" cy="-476" rx="3.25" ry="3.5"/>
<text text-anchor="middle" x="1515.6" y="-483.3" font-family="Times,serif" font-size="14.00">mix</text>
</g>
<!-- p48&#45;&gt;p54 -->
<g id="edge56" class="edge"><title>p48&#45;&gt;p54</title>
<path fill="none" stroke="black" d="M1360.4,-620.428C1355.18,-608.811 1335.61,-560.556 1356.6,-532 1395.61,-478.94 1485.58,-475.64 1519.41,-476.391"/>
<polygon fill="black" stroke="black" points="1519.28,-479.888 1529.41,-476.782 1519.55,-472.894 1519.28,-479.888"/>
<text text-anchor="middle" x="1395.6" y="-546.3" font-family="Times,serif" font-size="14.00">version_ch</text>
</g>
<!-- p40 -->
<g id="node44" class="node"><title>p40</title>
<ellipse fill="black" stroke="black" cx="1725.6" cy="-966" rx="3.6" ry="3.6"/>
</g>
<!-- p40&#45;&gt;p41 -->
<g id="edge47" class="edge"><title>p40&#45;&gt;p41</title>
<path fill="none" stroke="black" d="M1725.6,-962.139C1725.6,-953.502 1725.6,-927.011 1725.6,-906.227"/>
<polygon fill="black" stroke="black" points="1729.1,-906.004 1725.6,-896.004 1722.1,-906.004 1729.1,-906.004"/>
<text text-anchor="middle" x="1744.1" y="-918.3" font-family="Times,serif" font-size="14.00">meta</text>
</g>
<!-- p44 -->
<g id="node47" class="node"><title>p44</title>
<ellipse fill="none" stroke="black" cx="1725.6" cy="-772" rx="3.25" ry="3.5"/>
<text text-anchor="middle" x="1706.6" y="-779.3" font-family="Times,serif" font-size="14.00">map</text>
</g>
<!-- p43&#45;&gt;p44 -->
<g id="edge50" class="edge"><title>p43&#45;&gt;p44</title>
<path fill="none" stroke="black" d="M1725.6,-814.379C1725.6,-808.864 1725.6,-795.742 1725.6,-785.742"/>
<polygon fill="black" stroke="black" points="1729.1,-785.552 1725.6,-775.552 1722.1,-785.552 1729.1,-785.552"/>
</g>
<!-- p46 -->
<g id="node48" class="node"><title>p46</title>
<ellipse fill="none" stroke="black" cx="1791.6" cy="-698" rx="394.272" ry="18"/>
<text text-anchor="middle" x="1791.6" y="-694.3" font-family="Times,serif" font-size="14.00">ULTRA_RARES_01:BCFTOOLS_CONCAT_01:BCFTOOL_CONCAT_FILE_LIST_01</text>
</g>
<!-- p44&#45;&gt;p46 -->
<g id="edge51" class="edge"><title>p44&#45;&gt;p46</title>
<path fill="none" stroke="black" d="M1726.46,-768.432C1728.67,-762.063 1735.08,-745.243 1744.6,-734 1748.13,-729.827 1752.26,-725.863 1756.56,-722.204"/>
<polygon fill="black" stroke="black" points="1758.76,-724.925 1764.43,-715.97 1754.42,-719.439 1758.76,-724.925"/>
<text text-anchor="middle" x="1766.1" y="-738.3" font-family="Times,serif" font-size="14.00">d2_ch</text>
</g>
<!-- p49 -->
<g id="node50" class="node"><title>p49</title>
<ellipse fill="none" stroke="black" cx="1795.6" cy="-624" rx="3.25" ry="3.5"/>
<text text-anchor="middle" x="1767.6" y="-631.3" font-family="Times,serif" font-size="14.00">collect</text>
</g>
<!-- p46&#45;&gt;p49 -->
<g id="edge53" class="edge"><title>p46&#45;&gt;p49</title>
<path fill="none" stroke="black" d="M1792.55,-679.937C1793.26,-667.126 1794.22,-649.843 1794.87,-638.107"/>
<polygon fill="black" stroke="black" points="1798.39,-637.927 1795.45,-627.748 1791.4,-637.539 1798.39,-637.927"/>
</g>
<!-- p47 -->
<g id="node51" class="node"><title>p47</title>
<ellipse fill="black" stroke="black" cx="1857.6" cy="-624" rx="1.8" ry="1.8"/>
</g>
<!-- p46&#45;&gt;p47 -->
<g id="edge54" class="edge"><title>p46&#45;&gt;p47</title>
<path fill="none" stroke="black" d="M1807.24,-679.937C1820.64,-665.315 1839.39,-644.866 1849.82,-633.49"/>
<polygon fill="black" stroke="black" points="1852.64,-635.586 1856.82,-625.849 1847.48,-630.856 1852.64,-635.586"/>
</g>
<!-- p46&#45;&gt;p48 -->
<g id="edge55" class="edge"><title>p46&#45;&gt;p48</title>
<path fill="none" stroke="black" d="M1693.22,-680.527C1585.58,-662.503 1422.02,-635.116 1374.79,-627.209"/>
<polygon fill="black" stroke="black" points="1375.31,-623.747 1364.87,-625.547 1374.15,-630.65 1375.31,-623.747"/>
</g>
<!-- p45 -->
<g id="node49" class="node"><title>p45</title>
<ellipse fill="black" stroke="black" cx="1791.6" cy="-772" rx="3.6" ry="3.6"/>
</g>
<!-- p45&#45;&gt;p46 -->
<g id="edge52" class="edge"><title>p45&#45;&gt;p46</title>
<path fill="none" stroke="black" d="M1791.6,-768.265C1791.6,-761.354 1791.6,-742.578 1791.6,-726.316"/>
<polygon fill="black" stroke="black" points="1795.1,-726.143 1791.6,-716.143 1788.1,-726.143 1795.1,-726.143"/>
<text text-anchor="middle" x="1810.1" y="-738.3" font-family="Times,serif" font-size="14.00">meta</text>
</g>
<!-- p51 -->
<g id="node53" class="node"><title>p51</title>
<ellipse fill="none" stroke="black" cx="1834.6" cy="-550" rx="390.898" ry="18"/>
<text text-anchor="middle" x="1834.6" y="-546.3" font-family="Times,serif" font-size="14.00">ULTRA_RARES_01:BCFTOOLS_CONCAT_01:BCFTOOL_CONCAT_COLLECT_01</text>
</g>
<!-- p49&#45;&gt;p51 -->
<g id="edge57" class="edge"><title>p49&#45;&gt;p51</title>
<path fill="none" stroke="black" d="M1796.9,-620.604C1800.58,-613.81 1811.41,-593.821 1820.52,-576.997"/>
<polygon fill="black" stroke="black" points="1823.66,-578.54 1825.35,-568.08 1817.51,-575.206 1823.66,-578.54"/>
</g>
<!-- p55 -->
<g id="node57" class="node"><title>p55</title>
<ellipse fill="none" stroke="black" cx="1532.6" cy="-416" rx="3.25" ry="3.5"/>
<text text-anchor="middle" x="1504.6" y="-423.3" font-family="Times,serif" font-size="14.00">collect</text>
</g>
<!-- p54&#45;&gt;p55 -->
<g id="edge62" class="edge"><title>p54&#45;&gt;p55</title>
<path fill="none" stroke="black" d="M1532.6,-472.203C1532.6,-464.649 1532.6,-443.48 1532.6,-429.66"/>
<polygon fill="black" stroke="black" points="1536.1,-429.636 1532.6,-419.636 1529.1,-429.636 1536.1,-429.636"/>
<text text-anchor="middle" x="1571.6" y="-442.3" font-family="Times,serif" font-size="14.00">version_ch</text>
</g>
<!-- p53 -->
<g id="node55" class="node"><title>p53</title>
<ellipse fill="black" stroke="black" cx="1811.6" cy="-476" rx="1.8" ry="1.8"/>
</g>
<!-- p51&#45;&gt;p53 -->
<g id="edge59" class="edge"><title>p51&#45;&gt;p53</title>
<path fill="none" stroke="black" d="M1826.45,-531.803C1824.01,-526.212 1821.49,-519.92 1819.6,-514 1816.87,-505.454 1814.78,-495.502 1813.42,-488.073"/>
<polygon fill="black" stroke="black" points="1816.83,-487.223 1811.73,-477.932 1809.92,-488.371 1816.83,-487.223"/>
<text text-anchor="middle" x="1830.6" y="-502.3" font-family="Times,serif" font-size="14.00">vcf</text>
</g>
<!-- p52 -->
<g id="node56" class="node"><title>p52</title>
<ellipse fill="black" stroke="black" cx="1856.6" cy="-476" rx="1.8" ry="1.8"/>
</g>
<!-- p51&#45;&gt;p52 -->
<g id="edge60" class="edge"><title>p51&#45;&gt;p52</title>
<path fill="none" stroke="black" d="M1839.81,-531.937C1844.01,-518.219 1849.76,-499.373 1853.33,-487.701"/>
<polygon fill="black" stroke="black" points="1856.77,-488.436 1856.34,-477.849 1850.07,-486.39 1856.77,-488.436"/>
<text text-anchor="middle" x="1870.6" y="-502.3" font-family="Times,serif" font-size="14.00">index</text>
</g>
<!-- p51&#45;&gt;p54 -->
<g id="edge61" class="edge"><title>p51&#45;&gt;p54</title>
<path fill="none" stroke="black" d="M1764.18,-532.21C1691.21,-514.814 1582.74,-488.955 1545.61,-480.102"/>
<polygon fill="black" stroke="black" points="1546.17,-476.637 1535.63,-477.722 1544.55,-483.446 1546.17,-476.637"/>
</g>
<!-- p50 -->
<g id="node54" class="node"><title>p50</title>
<ellipse fill="black" stroke="black" cx="1834.6" cy="-624" rx="3.6" ry="3.6"/>
</g>
<!-- p50&#45;&gt;p51 -->
<g id="edge58" class="edge"><title>p50&#45;&gt;p51</title>
<path fill="none" stroke="black" d="M1834.6,-620.265C1834.6,-613.354 1834.6,-594.578 1834.6,-578.316"/>
<polygon fill="black" stroke="black" points="1838.1,-578.143 1834.6,-568.143 1831.1,-578.143 1838.1,-578.143"/>
<text text-anchor="middle" x="1853.1" y="-590.3" font-family="Times,serif" font-size="14.00">meta</text>
</g>
<!-- p59 -->
<g id="node58" class="node"><title>p59</title>
<ellipse fill="none" stroke="black" cx="1595.6" cy="-342" rx="312.909" ry="18"/>
<text text-anchor="middle" x="1595.6" y="-338.3" font-family="Times,serif" font-size="14.00">ULTRA_RARES_01:BCFTOOLS_CONCAT_01:MERGE_VERSION</text>
</g>
<!-- p55&#45;&gt;p59 -->
<g id="edge63" class="edge"><title>p55&#45;&gt;p59</title>
<path fill="none" stroke="black" d="M1534.26,-412.574C1538.43,-406.529 1549.81,-390.392 1560.6,-378 1563.67,-374.479 1567.01,-370.875 1570.37,-367.383"/>
<polygon fill="black" stroke="black" points="1573.13,-369.568 1577.67,-359.991 1568.15,-364.651 1573.13,-369.568"/>
</g>
<!-- p59&#45;&gt;p60 -->
<g id="edge67" class="edge"><title>p59&#45;&gt;p60</title>
<path fill="none" stroke="black" d="M1524.29,-324.457C1466.2,-310.98 1389.01,-293.072 1358.65,-286.028"/>
<polygon fill="black" stroke="black" points="1359.23,-282.57 1348.7,-283.719 1357.65,-289.389 1359.23,-282.57"/>
</g>
<!-- p56 -->
<g id="node59" class="node"><title>p56</title>
<ellipse fill="black" stroke="black" cx="1565.6" cy="-416" rx="3.6" ry="3.6"/>
</g>
<!-- p56&#45;&gt;p59 -->
<g id="edge64" class="edge"><title>p56&#45;&gt;p59</title>
<path fill="none" stroke="black" d="M1565.07,-412.19C1564.01,-405.846 1562.08,-390.03 1566.6,-378 1567.86,-374.648 1569.58,-371.385 1571.57,-368.284"/>
<polygon fill="black" stroke="black" points="1574.54,-370.156 1577.68,-360.038 1568.91,-365.987 1574.54,-370.156"/>
<text text-anchor="middle" x="1585.1" y="-382.3" font-family="Times,serif" font-size="14.00">meta</text>
</g>
<!-- p57 -->
<g id="node60" class="node"><title>p57</title>
<ellipse fill="black" stroke="black" cx="1625.6" cy="-416" rx="3.6" ry="3.6"/>
</g>
<!-- p57&#45;&gt;p59 -->
<g id="edge65" class="edge"><title>p57&#45;&gt;p59</title>
<path fill="none" stroke="black" d="M1624.46,-412.265C1621.53,-405.222 1613.46,-385.859 1606.6,-369.39"/>
<polygon fill="black" stroke="black" points="1609.82,-368.027 1602.74,-360.143 1603.36,-370.72 1609.82,-368.027"/>
<text text-anchor="middle" x="1637.6" y="-382.3" font-family="Times,serif" font-size="14.00">name</text>
</g>
<!-- p58 -->
<g id="node61" class="node"><title>p58</title>
<ellipse fill="black" stroke="black" cx="1688.6" cy="-416" rx="3.6" ry="3.6"/>
</g>
<!-- p58&#45;&gt;p59 -->
<g id="edge66" class="edge"><title>p58&#45;&gt;p59</title>
<path fill="none" stroke="black" d="M1687.23,-412.355C1683.73,-405.811 1673.86,-388.623 1661.6,-378 1656.07,-373.212 1649.78,-368.835 1643.33,-364.921"/>
<polygon fill="black" stroke="black" points="1644.9,-361.791 1634.48,-359.875 1641.43,-367.871 1644.9,-361.791"/>
<text text-anchor="middle" x="1717.6" y="-382.3" font-family="Times,serif" font-size="14.00">description</text>
</g>
<!-- p65 -->
<g id="node63" class="node"><title>p65</title>
<ellipse fill="none" stroke="black" cx="1408.6" cy="-148" rx="190.15" ry="18"/>
<text text-anchor="middle" x="1408.6" y="-144.3" font-family="Times,serif" font-size="14.00">ULTRA_RARES_01:MERGE_VERSION</text>
</g>
<!-- p61&#45;&gt;p65 -->
<g id="edge69" class="edge"><title>p61&#45;&gt;p65</title>
<path fill="none" stroke="black" d="M1347.26,-218.574C1351.43,-212.529 1362.81,-196.392 1373.6,-184 1376.67,-180.479 1380.01,-176.875 1383.37,-173.383"/>
<polygon fill="black" stroke="black" points="1386.13,-175.568 1390.67,-165.991 1381.15,-170.651 1386.13,-175.568"/>
</g>
<!-- p67 -->
<g id="node67" class="node"><title>p67</title>
<ellipse fill="none" stroke="black" cx="1558.6" cy="-60" rx="111.186" ry="18"/>
<text text-anchor="middle" x="1558.6" y="-56.3" font-family="Times,serif" font-size="14.00">VERSION_TO_HTML</text>
</g>
<!-- p65&#45;&gt;p67 -->
<g id="edge73" class="edge"><title>p65&#45;&gt;p67</title>
<path fill="none" stroke="black" d="M1437.88,-130.214C1461.67,-116.572 1495.4,-97.236 1521.16,-82.4677"/>
<polygon fill="black" stroke="black" points="1522.97,-85.4616 1529.91,-77.4513 1519.49,-79.3889 1522.97,-85.4616"/>
</g>
<!-- p62 -->
<g id="node64" class="node"><title>p62</title>
<ellipse fill="black" stroke="black" cx="1378.6" cy="-222" rx="3.6" ry="3.6"/>
</g>
<!-- p62&#45;&gt;p65 -->
<g id="edge70" class="edge"><title>p62&#45;&gt;p65</title>
<path fill="none" stroke="black" d="M1378.07,-218.19C1377.01,-211.846 1375.08,-196.03 1379.6,-184 1380.86,-180.648 1382.58,-177.385 1384.57,-174.284"/>
<polygon fill="black" stroke="black" points="1387.54,-176.156 1390.68,-166.038 1381.91,-171.987 1387.54,-176.156"/>
<text text-anchor="middle" x="1398.1" y="-188.3" font-family="Times,serif" font-size="14.00">meta</text>
</g>
<!-- p63 -->
<g id="node65" class="node"><title>p63</title>
<ellipse fill="black" stroke="black" cx="1438.6" cy="-222" rx="3.6" ry="3.6"/>
</g>
<!-- p63&#45;&gt;p65 -->
<g id="edge71" class="edge"><title>p63&#45;&gt;p65</title>
<path fill="none" stroke="black" d="M1437.46,-218.265C1434.53,-211.222 1426.46,-191.859 1419.6,-175.39"/>
<polygon fill="black" stroke="black" points="1422.82,-174.027 1415.74,-166.143 1416.36,-176.72 1422.82,-174.027"/>
<text text-anchor="middle" x="1450.6" y="-188.3" font-family="Times,serif" font-size="14.00">name</text>
</g>
<!-- p64 -->
<g id="node66" class="node"><title>p64</title>
<ellipse fill="black" stroke="black" cx="1501.6" cy="-222" rx="3.6" ry="3.6"/>
</g>
<!-- p64&#45;&gt;p65 -->
<g id="edge72" class="edge"><title>p64&#45;&gt;p65</title>
<path fill="none" stroke="black" d="M1500.23,-218.355C1496.73,-211.811 1486.86,-194.623 1474.6,-184 1469.01,-179.153 1462.63,-174.729 1456.09,-170.778"/>
<polygon fill="black" stroke="black" points="1457.56,-167.589 1447.14,-165.69 1454.1,-173.674 1457.56,-167.589"/>
<text text-anchor="middle" x="1530.6" y="-188.3" font-family="Times,serif" font-size="14.00">description</text>
</g>
<!-- p68 -->
<g id="node69" class="node"><title>p68</title>
<ellipse fill="black" stroke="black" cx="1558.6" cy="-2" rx="1.8" ry="1.8"/>
</g>
<!-- p67&#45;&gt;p68 -->
<g id="edge75" class="edge"><title>p67&#45;&gt;p68</title>
<path fill="none" stroke="black" d="M1558.6,-41.8939C1558.6,-32.8876 1558.6,-22.0999 1558.6,-14.1727"/>
<polygon fill="black" stroke="black" points="1562.1,-13.9957 1558.6,-3.99575 1555.1,-13.9958 1562.1,-13.9957"/>
</g>
<!-- p66 -->
<g id="node68" class="node"><title>p66</title>
<ellipse fill="black" stroke="black" cx="1620.6" cy="-148" rx="3.6" ry="3.6"/>
</g>
<!-- p66&#45;&gt;p67 -->
<g id="edge74" class="edge"><title>p66&#45;&gt;p67</title>
<path fill="none" stroke="black" d="M1618.81,-144.519C1612.7,-136.047 1592.2,-107.607 1576.8,-86.2508"/>
<polygon fill="black" stroke="black" points="1579.47,-83.9628 1570.78,-77.8978 1573.79,-88.0564 1579.47,-83.9628"/>
<text text-anchor="middle" x="1614.1" y="-100.3" font-family="Times,serif" font-size="14.00">meta</text>
</g>
</g>
</svg>
