<?xml version="1.0" encoding="UTF-8" standalone="no"?>
<!DOCTYPE svg PUBLIC "-//W3C//DTD SVG 1.1//EN"
 "http://www.w3.org/Graphics/SVG/1.1/DTD/svg11.dtd">
<!-- Generated by graphviz version 2.30.1 (20201013.1554)
 -->
<!-- Title: 20221205hs38mecardiobedworkflow Pages: 1 -->
<svg width="964pt" height="1170pt"
 viewBox="0.00 0.00 963.60 1170.00" xmlns="http://www.w3.org/2000/svg" xmlns:xlink="http://www.w3.org/1999/xlink">
<g id="graph0" class="graph" transform="scale(1 1) rotate(0) translate(4 1166)">
<title>20221205hs38mecardiobedworkflow</title>
<polygon fill="white" stroke="white" points="-4,5 -4,-1166 960.6,-1166 960.6,5 -4,5"/>
<!-- p0 -->
<g id="node1" class="node"><title>p0</title>
<ellipse fill="black" stroke="black" cx="556.6" cy="-700" rx="3.6" ry="3.6"/>
<text text-anchor="middle" x="595" y="-707.4" font-family="Times,serif" font-size="14.00">Channel.empty</text>
</g>
<!-- p22 -->
<g id="node2" class="node"><title>p22</title>
<ellipse fill="none" stroke="black" cx="431.6" cy="-626" rx="3.25" ry="3.5"/>
<text text-anchor="middle" x="417.1" y="-633.3" font-family="Times,serif" font-size="14.00">mix</text>
</g>
<!-- p0&#45;&gt;p22 -->
<g id="edge1" class="edge"><title>p0&#45;&gt;p22</title>
<path fill="none" stroke="black" d="M555.066,-696.272C552.904,-692.628 548.655,-686.148 543.6,-682 512.098,-656.147 466.412,-638.59 444.401,-631.097"/>
<polygon fill="black" stroke="black" points="445.247,-627.691 434.654,-627.92 443.078,-634.347 445.247,-627.691"/>
<text text-anchor="middle" x="545.1" y="-652.3" font-family="Times,serif" font-size="14.00">version_ch</text>
</g>
<!-- p23 -->
<g id="node27" class="node"><title>p23</title>
<ellipse fill="none" stroke="black" cx="431.6" cy="-562" rx="3.25" ry="3.5"/>
<text text-anchor="middle" x="409.6" y="-569.3" font-family="Times,serif" font-size="14.00">collect</text>
</g>
<!-- p22&#45;&gt;p23 -->
<g id="edge28" class="edge"><title>p22&#45;&gt;p23</title>
<path fill="none" stroke="black" d="M431.6,-622.336C431.6,-614.448 431.6,-590.832 431.6,-575.881"/>
<polygon fill="black" stroke="black" points="435.1,-575.585 431.6,-565.585 428.1,-575.585 435.1,-575.585"/>
<text text-anchor="middle" x="461.1" y="-592.3" font-family="Times,serif" font-size="14.00">version_ch</text>
</g>
<!-- p1 -->
<g id="node3" class="node"><title>p1</title>
<ellipse fill="black" stroke="black" cx="87.6" cy="-1084" rx="3.6" ry="3.6"/>
<text text-anchor="middle" x="42" y="-1091.4" font-family="Times,serif" font-size="14.00">Channel.empty</text>
</g>
<!-- p4 -->
<g id="node4" class="node"><title>p4</title>
<ellipse fill="none" stroke="black" cx="282.6" cy="-996" rx="3.25" ry="3.5"/>
<text text-anchor="middle" x="268.1" y="-1003.3" font-family="Times,serif" font-size="14.00">mix</text>
</g>
<!-- p1&#45;&gt;p4 -->
<g id="edge2" class="edge"><title>p1&#45;&gt;p4</title>
<path fill="none" stroke="black" d="M88.9098,-1080.2C90.7848,-1076.47 94.5706,-1069.89 99.6,-1066 154.129,-1023.82 237.268,-1005.15 269.34,-999.223"/>
<polygon fill="black" stroke="black" points="270.221,-1002.62 279.48,-997.473 269.031,-995.725 270.221,-1002.62"/>
<text text-anchor="middle" x="185.1" y="-1036.3" font-family="Times,serif" font-size="14.00">version_ch</text>
</g>
<!-- p8 -->
<g id="node8" class="node"><title>p8</title>
<ellipse fill="none" stroke="black" cx="382.6" cy="-908" rx="3.25" ry="3.5"/>
<text text-anchor="middle" x="368.1" y="-915.3" font-family="Times,serif" font-size="14.00">mix</text>
</g>
<!-- p4&#45;&gt;p8 -->
<g id="edge6" class="edge"><title>p4&#45;&gt;p8</title>
<path fill="none" stroke="black" d="M281.705,-992.347C279.137,-984.208 272.611,-959.222 283.6,-944 303.581,-916.323 347.298,-910.409 369.338,-909.229"/>
<polygon fill="black" stroke="black" points="369.566,-912.724 379.467,-908.952 369.375,-905.726 369.566,-912.724"/>
<text text-anchor="middle" x="313.1" y="-948.3" font-family="Times,serif" font-size="14.00">version_ch</text>
</g>
<!-- p2 -->
<g id="node5" class="node"><title>p2</title>
<ellipse fill="black" stroke="black" cx="356.6" cy="-1158" rx="3.6" ry="3.6"/>
</g>
<!-- p3 -->
<g id="node6" class="node"><title>p3</title>
<ellipse fill="none" stroke="black" cx="356.6" cy="-1084" rx="247.442" ry="18"/>
<text text-anchor="middle" x="356.6" y="-1080.3" font-family="Times,serif" font-size="14.00">CARDIOBED_01:GO_TO_BED_01:GO_DOWNLOAD_OBO_01</text>
</g>
<!-- p2&#45;&gt;p3 -->
<g id="edge3" class="edge"><title>p2&#45;&gt;p3</title>
<path fill="none" stroke="black" d="M356.6,-1154.27C356.6,-1147.35 356.6,-1128.58 356.6,-1112.32"/>
<polygon fill="black" stroke="black" points="360.1,-1112.14 356.6,-1102.14 353.1,-1112.14 360.1,-1112.14"/>
<text text-anchor="middle" x="370.6" y="-1124.3" font-family="Times,serif" font-size="14.00">meta</text>
</g>
<!-- p12 -->
<g id="node7" class="node"><title>p12</title>
<ellipse fill="none" stroke="black" cx="651.6" cy="-908" rx="215.196" ry="18"/>
<text text-anchor="middle" x="651.6" y="-904.3" font-family="Times,serif" font-size="14.00">CARDIOBED_01:GO_TO_BED_01:BED_FOR_GENES</text>
</g>
<!-- p3&#45;&gt;p12 -->
<g id="edge4" class="edge"><title>p3&#45;&gt;p12</title>
<path fill="none" stroke="black" d="M353.144,-1065.94C349.618,-1043.55 346.99,-1004.05 365.6,-978 384.131,-952.056 452.603,-935.006 517.901,-924.346"/>
<polygon fill="black" stroke="black" points="518.597,-927.78 527.925,-922.755 517.499,-920.866 518.597,-927.78"/>
<text text-anchor="middle" x="376.1" y="-992.3" font-family="Times,serif" font-size="14.00">obo</text>
</g>
<!-- p3&#45;&gt;p4 -->
<g id="edge5" class="edge"><title>p3&#45;&gt;p4</title>
<path fill="none" stroke="black" d="M341.98,-1066.01C326.785,-1048.35 303.523,-1021.32 291.106,-1006.89"/>
<polygon fill="black" stroke="black" points="293.65,-1004.48 284.474,-999.178 288.344,-1009.04 293.65,-1004.48"/>
</g>
<!-- p33 -->
<g id="node16" class="node"><title>p33</title>
<ellipse fill="none" stroke="black" cx="599.6" cy="-244" rx="3.25" ry="3.5"/>
<text text-anchor="middle" x="585.1" y="-251.3" font-family="Times,serif" font-size="14.00">mix</text>
</g>
<!-- p12&#45;&gt;p33 -->
<g id="edge15" class="edge"><title>p12&#45;&gt;p33</title>
<path fill="none" stroke="black" d="M629.849,-889.908C615.599,-876.653 599.6,-856.895 599.6,-835 599.6,-835 599.6,-835 599.6,-289 599.6,-278.53 599.6,-266.658 599.6,-257.888"/>
<polygon fill="black" stroke="black" points="603.1,-257.78 599.6,-247.78 596.1,-257.78 603.1,-257.78"/>
<text text-anchor="middle" x="609.6" y="-558.3" font-family="Times,serif" font-size="14.00">bed</text>
</g>
<!-- p34 -->
<g id="node17" class="node"><title>p34</title>
<ellipse fill="none" stroke="black" cx="703.6" cy="-198" rx="3.25" ry="3.5"/>
<text text-anchor="middle" x="689.1" y="-205.3" font-family="Times,serif" font-size="14.00">mix</text>
</g>
<!-- p12&#45;&gt;p34 -->
<g id="edge16" class="edge"><title>p12&#45;&gt;p34</title>
<path fill="none" stroke="black" d="M673.351,-889.908C687.601,-876.653 703.6,-856.895 703.6,-835 703.6,-835 703.6,-835 703.6,-243 703.6,-232.53 703.6,-220.658 703.6,-211.888"/>
<polygon fill="black" stroke="black" points="707.1,-211.78 703.6,-201.78 700.1,-211.78 707.1,-211.78"/>
<text text-anchor="middle" x="718.6" y="-524.3" font-family="Times,serif" font-size="14.00">index</text>
</g>
<!-- p15 -->
<g id="node18" class="node"><title>p15</title>
<ellipse fill="black" stroke="black" cx="629.6" cy="-834" rx="1.8" ry="1.8"/>
</g>
<!-- p12&#45;&gt;p15 -->
<g id="edge17" class="edge"><title>p12&#45;&gt;p15</title>
<path fill="none" stroke="black" d="M646.386,-889.937C642.195,-876.219 636.436,-857.373 632.87,-845.701"/>
<polygon fill="black" stroke="black" points="636.129,-844.39 629.859,-835.849 629.435,-846.436 636.129,-844.39"/>
</g>
<!-- p14 -->
<g id="node19" class="node"><title>p14</title>
<ellipse fill="black" stroke="black" cx="651.6" cy="-834" rx="1.8" ry="1.8"/>
</g>
<!-- p12&#45;&gt;p14 -->
<g id="edge18" class="edge"><title>p12&#45;&gt;p14</title>
<path fill="none" stroke="black" d="M651.6,-889.937C651.6,-876.37 651.6,-857.787 651.6,-846.089"/>
<polygon fill="black" stroke="black" points="655.1,-845.849 651.6,-835.849 648.1,-845.849 655.1,-845.849"/>
</g>
<!-- p13 -->
<g id="node20" class="node"><title>p13</title>
<ellipse fill="black" stroke="black" cx="673.6" cy="-834" rx="1.8" ry="1.8"/>
</g>
<!-- p12&#45;&gt;p13 -->
<g id="edge19" class="edge"><title>p12&#45;&gt;p13</title>
<path fill="none" stroke="black" d="M657.024,-889.927C658.818,-884.231 660.812,-877.847 662.6,-872 665.309,-863.14 668.3,-853.059 670.479,-845.659"/>
<polygon fill="black" stroke="black" points="673.88,-846.498 673.333,-835.917 667.163,-844.529 673.88,-846.498"/>
</g>
<!-- p35 -->
<g id="node21" class="node"><title>p35</title>
<ellipse fill="none" stroke="black" cx="731.6" cy="-152" rx="3.25" ry="3.5"/>
<text text-anchor="middle" x="717.1" y="-159.3" font-family="Times,serif" font-size="14.00">mix</text>
</g>
<!-- p12&#45;&gt;p35 -->
<g id="edge20" class="edge"><title>p12&#45;&gt;p35</title>
<path fill="none" stroke="black" d="M702.322,-890.466C726.235,-879.175 749.6,-861.39 749.6,-835 749.6,-835 749.6,-835 749.6,-197 749.6,-184.929 743.725,-172.29 738.688,-163.671"/>
<polygon fill="black" stroke="black" points="741.62,-161.76 733.261,-155.25 735.736,-165.552 741.62,-161.76"/>
<text text-anchor="middle" x="765.1" y="-480.3" font-family="Times,serif" font-size="14.00">terms</text>
</g>
<!-- p16 -->
<g id="node12" class="node"><title>p16</title>
<ellipse fill="none" stroke="black" cx="382.6" cy="-834" rx="3.25" ry="3.5"/>
<text text-anchor="middle" x="368.1" y="-841.3" font-family="Times,serif" font-size="14.00">mix</text>
</g>
<!-- p12&#45;&gt;p16 -->
<g id="edge21" class="edge"><title>p12&#45;&gt;p16</title>
<path fill="none" stroke="black" d="M590.56,-890.662C526.501,-873.516 430.373,-847.787 395.675,-838.5"/>
<polygon fill="black" stroke="black" points="396.409,-835.073 385.844,-835.868 394.599,-841.835 396.409,-835.073"/>
</g>
<!-- p8&#45;&gt;p16 -->
<g id="edge11" class="edge"><title>p8&#45;&gt;p16</title>
<path fill="none" stroke="black" d="M382.6,-904.265C382.6,-895.133 382.6,-865.282 382.6,-847.892"/>
<polygon fill="black" stroke="black" points="386.1,-847.737 382.6,-837.737 379.1,-847.737 386.1,-847.737"/>
<text text-anchor="middle" x="412.1" y="-860.3" font-family="Times,serif" font-size="14.00">version_ch</text>
</g>
<!-- p5 -->
<g id="node9" class="node"><title>p5</title>
<ellipse fill="black" stroke="black" cx="711.6" cy="-1084" rx="3.6" ry="3.6"/>
</g>
<!-- p7 -->
<g id="node10" class="node"><title>p7</title>
<ellipse fill="none" stroke="black" cx="651.6" cy="-996" rx="230.594" ry="18"/>
<text text-anchor="middle" x="651.6" y="-992.3" font-family="Times,serif" font-size="14.00">CARDIOBED_01:GO_TO_BED_01:GOA_DOWNLOAD_01</text>
</g>
<!-- p5&#45;&gt;p7 -->
<g id="edge7" class="edge"><title>p5&#45;&gt;p7</title>
<path fill="none" stroke="black" d="M710.793,-1080.02C708.474,-1071.8 701.203,-1048.36 689.6,-1032 686.96,-1028.28 683.869,-1024.65 680.61,-1021.23"/>
<polygon fill="black" stroke="black" points="682.919,-1018.6 673.317,-1014.12 678.031,-1023.61 682.919,-1018.6"/>
<text text-anchor="middle" x="712.6" y="-1036.3" font-family="Times,serif" font-size="14.00">meta</text>
</g>
<!-- p7&#45;&gt;p12 -->
<g id="edge9" class="edge"><title>p7&#45;&gt;p12</title>
<path fill="none" stroke="black" d="M651.6,-977.597C651.6,-965.746 651.6,-949.817 651.6,-936.292"/>
<polygon fill="black" stroke="black" points="655.1,-936.084 651.6,-926.084 648.1,-936.084 655.1,-936.084"/>
<text text-anchor="middle" x="661.1" y="-948.3" font-family="Times,serif" font-size="14.00">goa</text>
</g>
<!-- p7&#45;&gt;p8 -->
<g id="edge10" class="edge"><title>p7&#45;&gt;p8</title>
<path fill="none" stroke="black" d="M606.956,-978.319C577.778,-967.74 538.707,-954.179 503.6,-944 470.261,-934.334 460.794,-936.155 427.6,-926 416.272,-922.535 403.682,-917.69 394.707,-914.059"/>
<polygon fill="black" stroke="black" points="395.977,-910.797 385.399,-910.202 393.298,-917.264 395.977,-910.797"/>
</g>
<!-- p6 -->
<g id="node11" class="node"><title>p6</title>
<ellipse fill="black" stroke="black" cx="638.6" cy="-1084" rx="3.6" ry="3.6"/>
</g>
<!-- p6&#45;&gt;p7 -->
<g id="edge8" class="edge"><title>p6&#45;&gt;p7</title>
<path fill="none" stroke="black" d="M638.354,-1080.21C637.738,-1072.47 636.394,-1050.14 639.6,-1032 640.076,-1029.31 640.726,-1026.54 641.479,-1023.8"/>
<polygon fill="black" stroke="black" points="644.847,-1024.76 644.528,-1014.17 638.174,-1022.64 644.847,-1024.76"/>
<text text-anchor="middle" x="664.6" y="-1036.3" font-family="Times,serif" font-size="14.00">reference</text>
</g>
<!-- p17 -->
<g id="node22" class="node"><title>p17</title>
<ellipse fill="none" stroke="black" cx="289.6" cy="-774" rx="3.25" ry="3.5"/>
<text text-anchor="middle" x="267.6" y="-781.3" font-family="Times,serif" font-size="14.00">collect</text>
</g>
<!-- p16&#45;&gt;p17 -->
<g id="edge22" class="edge"><title>p16&#45;&gt;p17</title>
<path fill="none" stroke="black" d="M379.917,-831.327C368.352,-824.114 322.379,-795.443 300.841,-782.011"/>
<polygon fill="black" stroke="black" points="302.455,-778.892 292.118,-776.57 298.751,-784.832 302.455,-778.892"/>
<text text-anchor="middle" x="377.1" y="-800.3" font-family="Times,serif" font-size="14.00">version_ch</text>
</g>
<!-- p9 -->
<g id="node13" class="node"><title>p9</title>
<ellipse fill="black" stroke="black" cx="399.6" cy="-996" rx="3.6" ry="3.6"/>
</g>
<!-- p9&#45;&gt;p12 -->
<g id="edge12" class="edge"><title>p9&#45;&gt;p12</title>
<path fill="none" stroke="black" d="M400.865,-992.136C402.689,-988.338 406.418,-981.684 411.6,-978 447.665,-952.359 493.123,-936.196 534.75,-926.029"/>
<polygon fill="black" stroke="black" points="535.746,-929.391 544.681,-923.698 534.146,-922.576 535.746,-929.391"/>
<text text-anchor="middle" x="485.6" y="-948.3" font-family="Times,serif" font-size="14.00">meta</text>
</g>
<!-- p10 -->
<g id="node14" class="node"><title>p10</title>
<ellipse fill="black" stroke="black" cx="903.6" cy="-996" rx="3.6" ry="3.6"/>
</g>
<!-- p10&#45;&gt;p12 -->
<g id="edge13" class="edge"><title>p10&#45;&gt;p12</title>
<path fill="none" stroke="black" d="M902.167,-992.138C900.119,-988.341 895.999,-981.69 890.6,-978 853.303,-952.511 806.583,-936.331 764.367,-926.109"/>
<polygon fill="black" stroke="black" points="765.124,-922.692 754.59,-923.828 763.533,-929.509 765.124,-922.692"/>
<text text-anchor="middle" x="880.6" y="-948.3" font-family="Times,serif" font-size="14.00">reference</text>
</g>
<!-- p11 -->
<g id="node15" class="node"><title>p11</title>
<ellipse fill="black" stroke="black" cx="952.6" cy="-996" rx="3.6" ry="3.6"/>
</g>
<!-- p11&#45;&gt;p12 -->
<g id="edge14" class="edge"><title>p11&#45;&gt;p12</title>
<path fill="none" stroke="black" d="M951.384,-992.536C947.063,-984.073 931.522,-956.049 909.6,-944 891.989,-934.32 855.485,-927.142 815.339,-921.896"/>
<polygon fill="black" stroke="black" points="815.701,-918.414 805.342,-920.637 814.827,-925.359 815.701,-918.414"/>
<text text-anchor="middle" x="939.6" y="-948.3" font-family="Times,serif" font-size="14.00">gff3</text>
</g>
<!-- p33&#45;&gt;p34 -->
<g id="edge40" class="edge"><title>p33&#45;&gt;p34</title>
<path fill="none" stroke="black" d="M602.6,-241.731C615.592,-236.234 667.417,-214.308 691.359,-204.179"/>
<polygon fill="black" stroke="black" points="692.939,-207.311 700.785,-200.191 690.211,-200.864 692.939,-207.311"/>
</g>
<!-- p34&#45;&gt;p35 -->
<g id="edge41" class="edge"><title>p34&#45;&gt;p35</title>
<path fill="none" stroke="black" d="M705.105,-194.634C708.68,-189.017 717.869,-174.577 724.421,-164.281"/>
<polygon fill="black" stroke="black" points="727.532,-165.912 729.948,-155.596 721.626,-162.154 727.532,-165.912"/>
</g>
<!-- p36 -->
<g id="node37" class="node"><title>p36</title>
<ellipse fill="none" stroke="black" cx="731.6" cy="-92" rx="3.25" ry="3.5"/>
<text text-anchor="middle" x="709.6" y="-99.3" font-family="Times,serif" font-size="14.00">collect</text>
</g>
<!-- p35&#45;&gt;p36 -->
<g id="edge42" class="edge"><title>p35&#45;&gt;p36</title>
<path fill="none" stroke="black" d="M731.6,-148.203C731.6,-140.649 731.6,-119.48 731.6,-105.66"/>
<polygon fill="black" stroke="black" points="735.1,-105.636 731.6,-95.6357 728.1,-105.636 735.1,-105.636"/>
<text text-anchor="middle" x="751.6" y="-118.3" font-family="Times,serif" font-size="14.00">pub_ch</text>
</g>
<!-- p21 -->
<g id="node23" class="node"><title>p21</title>
<ellipse fill="none" stroke="black" cx="318.6" cy="-700" rx="216.146" ry="18"/>
<text text-anchor="middle" x="318.6" y="-696.3" font-family="Times,serif" font-size="14.00">CARDIOBED_01:GO_TO_BED_01:MERGE_VERSION</text>
</g>
<!-- p17&#45;&gt;p21 -->
<g id="edge23" class="edge"><title>p17&#45;&gt;p21</title>
<path fill="none" stroke="black" d="M290.565,-770.604C293.276,-763.873 301.204,-744.19 307.94,-727.465"/>
<polygon fill="black" stroke="black" points="311.231,-728.664 311.721,-718.08 304.738,-726.048 311.231,-728.664"/>
</g>
<!-- p21&#45;&gt;p22 -->
<g id="edge27" class="edge"><title>p21&#45;&gt;p22</title>
<path fill="none" stroke="black" d="M345.093,-682.119C369.067,-666.844 403.193,-645.1 420.547,-634.043"/>
<polygon fill="black" stroke="black" points="422.7,-636.821 429.253,-628.496 418.938,-630.917 422.7,-636.821"/>
</g>
<!-- p18 -->
<g id="node24" class="node"><title>p18</title>
<ellipse fill="black" stroke="black" cx="318.6" cy="-774" rx="3.6" ry="3.6"/>
</g>
<!-- p18&#45;&gt;p21 -->
<g id="edge24" class="edge"><title>p18&#45;&gt;p21</title>
<path fill="none" stroke="black" d="M318.6,-770.265C318.6,-763.354 318.6,-744.578 318.6,-728.316"/>
<polygon fill="black" stroke="black" points="322.1,-728.143 318.6,-718.143 315.1,-728.143 322.1,-728.143"/>
<text text-anchor="middle" x="332.6" y="-740.3" font-family="Times,serif" font-size="14.00">meta</text>
</g>
<!-- p19 -->
<g id="node25" class="node"><title>p19</title>
<ellipse fill="black" stroke="black" cx="369.6" cy="-774" rx="3.6" ry="3.6"/>
</g>
<!-- p19&#45;&gt;p21 -->
<g id="edge25" class="edge"><title>p19&#45;&gt;p21</title>
<path fill="none" stroke="black" d="M368.333,-770.583C365.139,-764.557 356.386,-748.459 347.6,-736 345.262,-732.685 342.694,-729.29 340.082,-725.98"/>
<polygon fill="black" stroke="black" points="342.634,-723.571 333.606,-718.026 337.205,-727.991 342.634,-723.571"/>
<text text-anchor="middle" x="374.1" y="-740.3" font-family="Times,serif" font-size="14.00">name</text>
</g>
<!-- p20 -->
<g id="node26" class="node"><title>p20</title>
<ellipse fill="black" stroke="black" cx="423.6" cy="-774" rx="3.6" ry="3.6"/>
</g>
<!-- p20&#45;&gt;p21 -->
<g id="edge26" class="edge"><title>p20&#45;&gt;p21</title>
<path fill="none" stroke="black" d="M422.035,-770.326C418.052,-763.714 406.896,-746.384 393.6,-736 387.007,-730.851 379.534,-726.234 371.922,-722.172"/>
<polygon fill="black" stroke="black" points="373.472,-719.035 362.967,-717.662 370.324,-725.286 373.472,-719.035"/>
<text text-anchor="middle" x="440.1" y="-740.3" font-family="Times,serif" font-size="14.00">description</text>
</g>
<!-- p27 -->
<g id="node28" class="node"><title>p27</title>
<ellipse fill="none" stroke="black" cx="328.6" cy="-484" rx="150.205" ry="18"/>
<text text-anchor="middle" x="328.6" y="-480.3" font-family="Times,serif" font-size="14.00">CARDIOBED_01:MERGE_VERSION</text>
</g>
<!-- p23&#45;&gt;p27 -->
<g id="edge29" class="edge"><title>p23&#45;&gt;p27</title>
<path fill="none" stroke="black" d="M431.016,-558.411C429.289,-551.313 423.563,-531.325 411.6,-520 405.691,-514.406 398.755,-509.64 391.454,-505.597"/>
<polygon fill="black" stroke="black" points="392.565,-502.237 382.061,-500.854 389.41,-508.486 392.565,-502.237"/>
</g>
<!-- p29 -->
<g id="node32" class="node"><title>p29</title>
<ellipse fill="none" stroke="black" cx="451.6" cy="-396" rx="94.338" ry="18"/>
<text text-anchor="middle" x="451.6" y="-392.3" font-family="Times,serif" font-size="14.00">VERSION_TO_HTML</text>
</g>
<!-- p27&#45;&gt;p29 -->
<g id="edge33" class="edge"><title>p27&#45;&gt;p29</title>
<path fill="none" stroke="black" d="M352.608,-466.214C371.779,-452.81 398.811,-433.91 419.783,-419.246"/>
<polygon fill="black" stroke="black" points="421.881,-422.05 428.071,-413.451 417.87,-416.313 421.881,-422.05"/>
</g>
<!-- p32 -->
<g id="node36" class="node"><title>p32</title>
<ellipse fill="none" stroke="black" cx="538.6" cy="-290" rx="3.25" ry="3.5"/>
<text text-anchor="middle" x="524.1" y="-297.3" font-family="Times,serif" font-size="14.00">mix</text>
</g>
<!-- p27&#45;&gt;p32 -->
<g id="edge38" class="edge"><title>p27&#45;&gt;p32</title>
<path fill="none" stroke="black" d="M327.124,-465.801C326.124,-443.258 327.693,-403.587 347.6,-378 393.832,-318.577 489.862,-298.401 525.185,-292.829"/>
<polygon fill="black" stroke="black" points="525.843,-296.271 535.247,-291.391 524.853,-289.341 525.843,-296.271"/>
</g>
<!-- p24 -->
<g id="node29" class="node"><title>p24</title>
<ellipse fill="black" stroke="black" cx="250.6" cy="-562" rx="3.6" ry="3.6"/>
</g>
<!-- p24&#45;&gt;p27 -->
<g id="edge30" class="edge"><title>p24&#45;&gt;p27</title>
<path fill="none" stroke="black" d="M251.22,-558.077C252.882,-550.844 258.046,-531.836 268.6,-520 272.866,-515.216 277.948,-510.909 283.322,-507.088"/>
<polygon fill="black" stroke="black" points="285.46,-509.872 291.933,-501.485 281.642,-504.005 285.46,-509.872"/>
<text text-anchor="middle" x="282.6" y="-524.3" font-family="Times,serif" font-size="14.00">meta</text>
</g>
<!-- p25 -->
<g id="node30" class="node"><title>p25</title>
<ellipse fill="black" stroke="black" cx="301.6" cy="-562" rx="3.6" ry="3.6"/>
</g>
<!-- p25&#45;&gt;p27 -->
<g id="edge31" class="edge"><title>p25&#45;&gt;p27</title>
<path fill="none" stroke="black" d="M301.122,-558.312C300.044,-551.615 297.871,-533.734 302.6,-520 303.744,-516.679 305.327,-513.411 307.153,-510.288"/>
<polygon fill="black" stroke="black" points="310.094,-512.188 312.779,-501.939 304.288,-508.276 310.094,-512.188"/>
<text text-anchor="middle" x="318.1" y="-524.3" font-family="Times,serif" font-size="14.00">name</text>
</g>
<!-- p26 -->
<g id="node31" class="node"><title>p26</title>
<ellipse fill="black" stroke="black" cx="355.6" cy="-562" rx="3.6" ry="3.6"/>
</g>
<!-- p26&#45;&gt;p27 -->
<g id="edge32" class="edge"><title>p26&#45;&gt;p27</title>
<path fill="none" stroke="black" d="M354.702,-558.471C352.108,-551.169 344.384,-529.428 338.006,-511.476"/>
<polygon fill="black" stroke="black" points="341.288,-510.26 334.643,-502.009 334.692,-512.603 341.288,-510.26"/>
<text text-anchor="middle" x="377.1" y="-524.3" font-family="Times,serif" font-size="14.00">description</text>
</g>
<!-- p31 -->
<g id="node34" class="node"><title>p31</title>
<ellipse fill="none" stroke="black" cx="538.6" cy="-336" rx="3.25" ry="3.5"/>
<text text-anchor="middle" x="524.1" y="-343.3" font-family="Times,serif" font-size="14.00">mix</text>
</g>
<!-- p29&#45;&gt;p31 -->
<g id="edge35" class="edge"><title>p29&#45;&gt;p31</title>
<path fill="none" stroke="black" d="M476.298,-378.535C493.253,-367.231 514.926,-352.782 527.731,-344.246"/>
<polygon fill="black" stroke="black" points="529.723,-347.125 536.102,-338.666 525.84,-341.3 529.723,-347.125"/>
</g>
<!-- p28 -->
<g id="node33" class="node"><title>p28</title>
<ellipse fill="black" stroke="black" cx="500.6" cy="-484" rx="3.6" ry="3.6"/>
</g>
<!-- p28&#45;&gt;p29 -->
<g id="edge34" class="edge"><title>p28&#45;&gt;p29</title>
<path fill="none" stroke="black" d="M499.186,-480.519C494.43,-472.17 478.624,-444.43 466.521,-423.188"/>
<polygon fill="black" stroke="black" points="469.43,-421.224 461.439,-414.268 463.348,-424.689 469.43,-421.224"/>
<text text-anchor="middle" x="494.6" y="-436.3" font-family="Times,serif" font-size="14.00">meta</text>
</g>
<!-- p31&#45;&gt;p32 -->
<g id="edge37" class="edge"><title>p31&#45;&gt;p32</title>
<path fill="none" stroke="black" d="M538.6,-332.379C538.6,-326.864 538.6,-313.742 538.6,-303.742"/>
<polygon fill="black" stroke="black" points="542.1,-303.552 538.6,-293.552 535.1,-303.552 542.1,-303.552"/>
</g>
<!-- p30 -->
<g id="node35" class="node"><title>p30</title>
<ellipse fill="black" stroke="black" cx="567.6" cy="-396" rx="3.6" ry="3.6"/>
<text text-anchor="middle" x="606" y="-403.4" font-family="Times,serif" font-size="14.00">Channel.empty</text>
</g>
<!-- p30&#45;&gt;p31 -->
<g id="edge36" class="edge"><title>p30&#45;&gt;p31</title>
<path fill="none" stroke="black" d="M566.354,-392.508C562.627,-385.054 551.394,-362.589 544.414,-348.628"/>
<polygon fill="black" stroke="black" points="547.412,-346.797 539.809,-339.418 541.151,-349.928 547.412,-346.797"/>
</g>
<!-- p32&#45;&gt;p33 -->
<g id="edge39" class="edge"><title>p32&#45;&gt;p33</title>
<path fill="none" stroke="black" d="M540.917,-287.329C548.692,-281.72 574.191,-263.327 588.893,-252.723"/>
<polygon fill="black" stroke="black" points="591.218,-255.361 597.281,-246.673 587.123,-249.684 591.218,-255.361"/>
</g>
<!-- p38 -->
<g id="node38" class="node"><title>p38</title>
<ellipse fill="none" stroke="black" cx="747.6" cy="-18" rx="96.2631" ry="18"/>
<text text-anchor="middle" x="747.6" y="-14.3" font-family="Times,serif" font-size="14.00">SIMPLE_PUBLISH_01</text>
</g>
<!-- p36&#45;&gt;p38 -->
<g id="edge43" class="edge"><title>p36&#45;&gt;p38</title>
<path fill="none" stroke="black" d="M732.208,-88.2654C733.744,-81.3541 737.916,-62.5781 741.53,-46.3163"/>
<polygon fill="black" stroke="black" points="745.038,-46.6641 743.79,-36.1429 738.204,-45.1455 745.038,-46.6641"/>
</g>
<!-- p37 -->
<g id="node39" class="node"><title>p37</title>
<ellipse fill="black" stroke="black" cx="764.6" cy="-92" rx="3.6" ry="3.6"/>
</g>
<!-- p37&#45;&gt;p38 -->
<g id="edge44" class="edge"><title>p37&#45;&gt;p38</title>
<path fill="none" stroke="black" d="M763.954,-88.2654C762.322,-81.3541 757.889,-62.5781 754.05,-46.3163"/>
<polygon fill="black" stroke="black" points="757.352,-45.071 751.648,-36.1429 750.539,-46.6796 757.352,-45.071"/>
<text text-anchor="middle" x="772.6" y="-58.3" font-family="Times,serif" font-size="14.00">meta</text>
</g>
</g>
</svg>
