<?xml version="1.0" encoding="UTF-8" standalone="no"?>
<!DOCTYPE svg PUBLIC "-//W3C//DTD SVG 1.1//EN"
 "http://www.w3.org/Graphics/SVG/1.1/DTD/svg11.dtd">
<!-- Generated by graphviz version 2.30.1 (20201013.1554)
 -->
<!-- Title: 20221205hs38mecardiobedworkflow Pages: 1 -->
<svg width="1552pt" height="1164pt"
 viewBox="0.00 0.00 1551.60 1164.00" xmlns="http://www.w3.org/2000/svg" xmlns:xlink="http://www.w3.org/1999/xlink">
<g id="graph0" class="graph" transform="scale(1 1) rotate(0) translate(4 1160)">
<title>20221205hs38mecardiobedworkflow</title>
<polygon fill="white" stroke="white" points="-4,5 -4,-1160 1548.6,-1160 1548.6,5 -4,5"/>
<!-- p0 -->
<g id="node1" class="node"><title>p0</title>
<ellipse fill="black" stroke="black" cx="287.6" cy="-990" rx="3.6" ry="3.6"/>
<text text-anchor="middle" x="229.5" y="-997.4" font-family="Times,serif" font-size="14.00">Channel.empty</text>
</g>
<!-- p3 -->
<g id="node2" class="node"><title>p3</title>
<ellipse fill="none" stroke="black" cx="455.6" cy="-902" rx="3.25" ry="3.5"/>
<text text-anchor="middle" x="438.6" y="-909.3" font-family="Times,serif" font-size="14.00">mix</text>
</g>
<!-- p0&#45;&gt;p3 -->
<g id="edge1" class="edge"><title>p0&#45;&gt;p3</title>
<path fill="none" stroke="black" d="M287.452,-986.191C287.164,-977.6 287.534,-951.455 301.6,-938 321.89,-918.592 408.286,-907.836 442.025,-904.311"/>
<polygon fill="black" stroke="black" points="442.792,-907.752 452.399,-903.286 442.104,-900.786 442.792,-907.752"/>
<text text-anchor="middle" x="340.6" y="-942.3" font-family="Times,serif" font-size="14.00">version_ch</text>
</g>
<!-- p25 -->
<g id="node6" class="node"><title>p25</title>
<ellipse fill="none" stroke="black" cx="742.6" cy="-626" rx="3.25" ry="3.5"/>
<text text-anchor="middle" x="725.6" y="-633.3" font-family="Times,serif" font-size="14.00">mix</text>
</g>
<!-- p3&#45;&gt;p25 -->
<g id="edge6" class="edge"><title>p3&#45;&gt;p25</title>
<path fill="none" stroke="black" d="M455.6,-898.253C455.6,-888.695 455.6,-856 455.6,-829 455.6,-829 455.6,-829 455.6,-685 455.6,-628.408 672.706,-626.383 729.262,-626.815"/>
<polygon fill="black" stroke="black" points="729.336,-630.316 739.377,-626.937 729.42,-623.317 729.336,-630.316"/>
<text text-anchor="middle" x="494.6" y="-760.3" font-family="Times,serif" font-size="14.00">version_ch</text>
</g>
<!-- p1 -->
<g id="node3" class="node"><title>p1</title>
<ellipse fill="black" stroke="black" cx="1264.6" cy="-1078" rx="3.6" ry="3.6"/>
</g>
<!-- p2 -->
<g id="node4" class="node"><title>p2</title>
<ellipse fill="none" stroke="black" cx="1264.6" cy="-990" rx="170.402" ry="18"/>
<text text-anchor="middle" x="1264.6" y="-986.3" font-family="Times,serif" font-size="14.00">CARDIOBED_01:CUSTOM_FILES</text>
</g>
<!-- p1&#45;&gt;p2 -->
<g id="edge2" class="edge"><title>p1&#45;&gt;p2</title>
<path fill="none" stroke="black" d="M1264.6,-1074.14C1264.6,-1065.5 1264.6,-1039.01 1264.6,-1018.23"/>
<polygon fill="black" stroke="black" points="1268.1,-1018 1264.6,-1008 1261.1,-1018 1268.1,-1018"/>
<text text-anchor="middle" x="1283.1" y="-1030.3" font-family="Times,serif" font-size="14.00">meta</text>
</g>
<!-- p15 -->
<g id="node5" class="node"><title>p15</title>
<ellipse fill="none" stroke="black" cx="1070.6" cy="-902" rx="258.041" ry="18"/>
<text text-anchor="middle" x="1070.6" y="-898.3" font-family="Times,serif" font-size="14.00">CARDIOBED_01:GO_TO_BED_01:BED_FOR_GENES</text>
</g>
<!-- p2&#45;&gt;p15 -->
<g id="edge3" class="edge"><title>p2&#45;&gt;p15</title>
<path fill="none" stroke="black" d="M1287.5,-971.963C1298.56,-961.685 1307.68,-948.579 1298.6,-938 1291,-929.146 1275.05,-922.509 1254.94,-917.539"/>
<polygon fill="black" stroke="black" points="1255.62,-914.103 1245.09,-915.301 1254.06,-920.929 1255.62,-914.103"/>
<text text-anchor="middle" x="1376.6" y="-942.3" font-family="Times,serif" font-size="14.00">whiteListedGeneList</text>
</g>
<!-- p2&#45;&gt;p15 -->
<g id="edge4" class="edge"><title>p2&#45;&gt;p15</title>
<path fill="none" stroke="black" d="M1194.41,-973.584C1177.87,-968.547 1160.68,-962.102 1145.6,-954 1135.87,-948.775 1135.53,-944.497 1126.6,-938 1120.74,-933.732 1114.35,-929.437 1108.06,-925.388"/>
<polygon fill="black" stroke="black" points="1109.93,-922.425 1099.6,-920.045 1106.19,-928.344 1109.93,-922.425"/>
<text text-anchor="middle" x="1220.1" y="-942.3" font-family="Times,serif" font-size="14.00">blackListedGeneList</text>
</g>
<!-- p2&#45;&gt;p3 -->
<g id="edge5" class="edge"><title>p2&#45;&gt;p3</title>
<path fill="none" stroke="black" d="M1190.94,-973.668C1170.7,-968.448 1149,-961.893 1129.6,-954 1116.32,-948.598 1115.4,-941.875 1101.6,-938 1033.86,-918.976 531.23,-952.066 468.6,-920 466.033,-918.686 463.827,-916.605 462,-914.344"/>
<polygon fill="black" stroke="black" points="464.839,-912.276 456.662,-905.538 458.853,-915.904 464.839,-912.276"/>
</g>
<!-- p36 -->
<g id="node19" class="node"><title>p36</title>
<ellipse fill="none" stroke="black" cx="1017.6" cy="-244" rx="3.25" ry="3.5"/>
<text text-anchor="middle" x="1000.6" y="-251.3" font-family="Times,serif" font-size="14.00">mix</text>
</g>
<!-- p15&#45;&gt;p36 -->
<g id="edge20" class="edge"><title>p15&#45;&gt;p36</title>
<path fill="none" stroke="black" d="M1054.16,-883.894C1042.75,-870.186 1029.6,-849.858 1029.6,-829 1029.6,-829 1029.6,-829 1029.6,-685 1029.6,-615.462 1017.6,-598.538 1017.6,-529 1017.6,-529 1017.6,-529 1017.6,-289 1017.6,-278.53 1017.6,-266.658 1017.6,-257.888"/>
<polygon fill="black" stroke="black" points="1021.1,-257.78 1017.6,-247.78 1014.1,-257.78 1021.1,-257.78"/>
<text text-anchor="middle" x="1032.1" y="-558.3" font-family="Times,serif" font-size="14.00">bed</text>
</g>
<!-- p37 -->
<g id="node20" class="node"><title>p37</title>
<ellipse fill="none" stroke="black" cx="1072.6" cy="-198" rx="3.25" ry="3.5"/>
<text text-anchor="middle" x="1055.6" y="-205.3" font-family="Times,serif" font-size="14.00">mix</text>
</g>
<!-- p15&#45;&gt;p37 -->
<g id="edge21" class="edge"><title>p15&#45;&gt;p37</title>
<path fill="none" stroke="black" d="M1071.34,-883.838C1071.91,-869.253 1072.6,-847.757 1072.6,-829 1072.6,-829 1072.6,-829 1072.6,-243 1072.6,-232.53 1072.6,-220.658 1072.6,-211.888"/>
<polygon fill="black" stroke="black" points="1076.1,-211.78 1072.6,-201.78 1069.1,-211.78 1076.1,-211.78"/>
<text text-anchor="middle" x="1092.6" y="-524.3" font-family="Times,serif" font-size="14.00">index</text>
</g>
<!-- p18 -->
<g id="node21" class="node"><title>p18</title>
<ellipse fill="black" stroke="black" cx="1157.6" cy="-828" rx="1.8" ry="1.8"/>
</g>
<!-- p15&#45;&gt;p18 -->
<g id="edge22" class="edge"><title>p15&#45;&gt;p18</title>
<path fill="none" stroke="black" d="M1116.6,-884.255C1125.7,-879.401 1134.59,-873.368 1141.6,-866 1148.52,-858.724 1152.71,-847.979 1155.06,-839.941"/>
<polygon fill="black" stroke="black" points="1158.5,-840.597 1157.42,-830.057 1151.69,-838.97 1158.5,-840.597"/>
</g>
<!-- p17 -->
<g id="node22" class="node"><title>p17</title>
<ellipse fill="black" stroke="black" cx="975.6" cy="-828" rx="1.8" ry="1.8"/>
</g>
<!-- p15&#45;&gt;p17 -->
<g id="edge23" class="edge"><title>p15&#45;&gt;p17</title>
<path fill="none" stroke="black" d="M1029.12,-884.094C1019.51,-879.092 1009.72,-873.036 1001.6,-866 992.773,-858.354 985.426,-847.101 980.819,-839.015"/>
<polygon fill="black" stroke="black" points="983.853,-837.265 976.094,-830.05 977.66,-840.529 983.853,-837.265"/>
</g>
<!-- p16 -->
<g id="node23" class="node"><title>p16</title>
<ellipse fill="black" stroke="black" cx="999.6" cy="-828" rx="1.8" ry="1.8"/>
</g>
<!-- p15&#45;&gt;p16 -->
<g id="edge24" class="edge"><title>p15&#45;&gt;p16</title>
<path fill="none" stroke="black" d="M1036.97,-884.074C1029.24,-879.041 1021.55,-872.976 1015.6,-866 1009.08,-858.358 1004.85,-847.658 1002.38,-839.729"/>
<polygon fill="black" stroke="black" points="1005.75,-838.802 999.811,-830.031 998.987,-840.593 1005.75,-838.802"/>
</g>
<!-- p38 -->
<g id="node24" class="node"><title>p38</title>
<ellipse fill="none" stroke="black" cx="1107.6" cy="-152" rx="3.25" ry="3.5"/>
<text text-anchor="middle" x="1090.6" y="-159.3" font-family="Times,serif" font-size="14.00">mix</text>
</g>
<!-- p15&#45;&gt;p38 -->
<g id="edge25" class="edge"><title>p15&#45;&gt;p38</title>
<path fill="none" stroke="black" d="M1094.77,-884.074C1110.31,-871.038 1127.6,-851.48 1127.6,-829 1127.6,-829 1127.6,-829 1127.6,-197 1127.6,-184.728 1121.07,-172.118 1115.48,-163.56"/>
<polygon fill="black" stroke="black" points="1118.14,-161.273 1109.45,-155.22 1112.47,-165.374 1118.14,-161.273"/>
<text text-anchor="middle" x="1149.1" y="-480.3" font-family="Times,serif" font-size="14.00">terms</text>
</g>
<!-- p19 -->
<g id="node15" class="node"><title>p19</title>
<ellipse fill="none" stroke="black" cx="857.6" cy="-828" rx="3.25" ry="3.5"/>
<text text-anchor="middle" x="840.6" y="-835.3" font-family="Times,serif" font-size="14.00">mix</text>
</g>
<!-- p15&#45;&gt;p19 -->
<g id="edge26" class="edge"><title>p15&#45;&gt;p19</title>
<path fill="none" stroke="black" d="M1021.2,-884.301C971.733,-867.58 898.936,-842.973 870.06,-833.212"/>
<polygon fill="black" stroke="black" points="871.165,-829.891 860.57,-830.004 868.923,-836.522 871.165,-829.891"/>
</g>
<!-- p26 -->
<g id="node30" class="node"><title>p26</title>
<ellipse fill="none" stroke="black" cx="790.6" cy="-562" rx="3.25" ry="3.5"/>
<text text-anchor="middle" x="762.6" y="-569.3" font-family="Times,serif" font-size="14.00">collect</text>
</g>
<!-- p25&#45;&gt;p26 -->
<g id="edge33" class="edge"><title>p25&#45;&gt;p26</title>
<path fill="none" stroke="black" d="M744.197,-622.937C750.118,-615.289 771.074,-588.221 782.694,-573.212"/>
<polygon fill="black" stroke="black" points="785.594,-575.184 788.948,-565.134 780.058,-570.899 785.594,-575.184"/>
<text text-anchor="middle" x="809.6" y="-592.3" font-family="Times,serif" font-size="14.00">version_ch</text>
</g>
<!-- p4 -->
<g id="node7" class="node"><title>p4</title>
<ellipse fill="black" stroke="black" cx="112.6" cy="-1078" rx="3.6" ry="3.6"/>
<text text-anchor="middle" x="54.5" y="-1085.4" font-family="Times,serif" font-size="14.00">Channel.empty</text>
</g>
<!-- p7 -->
<g id="node8" class="node"><title>p7</title>
<ellipse fill="none" stroke="black" cx="388.6" cy="-990" rx="3.25" ry="3.5"/>
<text text-anchor="middle" x="371.6" y="-997.3" font-family="Times,serif" font-size="14.00">mix</text>
</g>
<!-- p4&#45;&gt;p7 -->
<g id="edge7" class="edge"><title>p4&#45;&gt;p7</title>
<path fill="none" stroke="black" d="M113.732,-1074.37C115.494,-1070.6 119.255,-1063.7 124.6,-1060 146.004,-1045.17 325.368,-1004.92 375.582,-993.85"/>
<polygon fill="black" stroke="black" points="376.552,-997.221 385.57,-991.659 375.052,-990.383 376.552,-997.221"/>
<text text-anchor="middle" x="275.6" y="-1030.3" font-family="Times,serif" font-size="14.00">version_ch</text>
</g>
<!-- p11 -->
<g id="node11" class="node"><title>p11</title>
<ellipse fill="none" stroke="black" cx="481.6" cy="-902" rx="3.25" ry="3.5"/>
<text text-anchor="middle" x="464.6" y="-887.3" font-family="Times,serif" font-size="14.00">mix</text>
</g>
<!-- p7&#45;&gt;p11 -->
<g id="edge11" class="edge"><title>p7&#45;&gt;p11</title>
<path fill="none" stroke="black" d="M387.63,-986.29C384.847,-977.986 377.768,-952.577 389.6,-938 412.021,-910.376 437.35,-938.727 467.6,-920 470.217,-918.38 472.572,-916.098 474.572,-913.73"/>
<polygon fill="black" stroke="black" points="477.522,-915.618 480.32,-905.399 471.76,-911.642 477.522,-915.618"/>
<text text-anchor="middle" x="428.6" y="-942.3" font-family="Times,serif" font-size="14.00">version_ch</text>
</g>
<!-- p5 -->
<g id="node9" class="node"><title>p5</title>
<ellipse fill="black" stroke="black" cx="429.6" cy="-1152" rx="3.6" ry="3.6"/>
</g>
<!-- p6 -->
<g id="node10" class="node"><title>p6</title>
<ellipse fill="none" stroke="black" cx="429.6" cy="-1078" rx="295.586" ry="18"/>
<text text-anchor="middle" x="429.6" y="-1074.3" font-family="Times,serif" font-size="14.00">CARDIOBED_01:GO_TO_BED_01:GO_DOWNLOAD_OBO_01</text>
</g>
<!-- p5&#45;&gt;p6 -->
<g id="edge8" class="edge"><title>p5&#45;&gt;p6</title>
<path fill="none" stroke="black" d="M429.6,-1148.27C429.6,-1141.35 429.6,-1122.58 429.6,-1106.32"/>
<polygon fill="black" stroke="black" points="433.1,-1106.14 429.6,-1096.14 426.1,-1106.14 433.1,-1106.14"/>
<text text-anchor="middle" x="448.1" y="-1118.3" font-family="Times,serif" font-size="14.00">meta</text>
</g>
<!-- p6&#45;&gt;p15 -->
<g id="edge9" class="edge"><title>p6&#45;&gt;p15</title>
<path fill="none" stroke="black" d="M425.177,-1059.79C420.33,-1036.49 415.969,-995.163 438.6,-972 467.669,-942.247 681.65,-923.609 852.69,-913.312"/>
<polygon fill="black" stroke="black" points="853.084,-916.795 862.859,-912.707 852.668,-909.807 853.084,-916.795"/>
<text text-anchor="middle" x="451.6" y="-986.3" font-family="Times,serif" font-size="14.00">obo</text>
</g>
<!-- p6&#45;&gt;p7 -->
<g id="edge10" class="edge"><title>p6&#45;&gt;p7</title>
<path fill="none" stroke="black" d="M421.303,-1059.6C413.179,-1042.56 401.035,-1017.08 394.059,-1002.45"/>
<polygon fill="black" stroke="black" points="397.21,-1000.93 389.747,-993.407 390.892,-1003.94 397.21,-1000.93"/>
</g>
<!-- p11&#45;&gt;p19 -->
<g id="edge16" class="edge"><title>p11&#45;&gt;p19</title>
<path fill="none" stroke="black" d="M484.851,-900.378C517.284,-894.167 782.794,-843.324 844.722,-831.466"/>
<polygon fill="black" stroke="black" points="845.526,-834.876 854.689,-829.557 844.209,-828.001 845.526,-834.876"/>
<text text-anchor="middle" x="784.6" y="-854.3" font-family="Times,serif" font-size="14.00">version_ch</text>
</g>
<!-- p8 -->
<g id="node12" class="node"><title>p8</title>
<ellipse fill="black" stroke="black" cx="748.6" cy="-1078" rx="3.6" ry="3.6"/>
</g>
<!-- p10 -->
<g id="node13" class="node"><title>p10</title>
<ellipse fill="none" stroke="black" cx="749.6" cy="-990" rx="275.363" ry="18"/>
<text text-anchor="middle" x="749.6" y="-986.3" font-family="Times,serif" font-size="14.00">CARDIOBED_01:GO_TO_BED_01:GOA_DOWNLOAD_01</text>
</g>
<!-- p8&#45;&gt;p10 -->
<g id="edge12" class="edge"><title>p8&#45;&gt;p10</title>
<path fill="none" stroke="black" d="M748.633,-1074.14C748.734,-1065.5 749.042,-1039.01 749.283,-1018.23"/>
<polygon fill="black" stroke="black" points="752.786,-1018.04 749.402,-1008 745.786,-1017.96 752.786,-1018.04"/>
<text text-anchor="middle" x="767.1" y="-1030.3" font-family="Times,serif" font-size="14.00">meta</text>
</g>
<!-- p10&#45;&gt;p15 -->
<g id="edge14" class="edge"><title>p10&#45;&gt;p15</title>
<path fill="none" stroke="black" d="M811.492,-972.418C865.114,-958.052 942.712,-937.263 998.999,-922.183"/>
<polygon fill="black" stroke="black" points="1000.14,-925.499 1008.9,-919.531 998.333,-918.738 1000.14,-925.499"/>
<text text-anchor="middle" x="951.6" y="-942.3" font-family="Times,serif" font-size="14.00">goa</text>
</g>
<!-- p10&#45;&gt;p11 -->
<g id="edge15" class="edge"><title>p10&#45;&gt;p11</title>
<path fill="none" stroke="black" d="M697.609,-972.316C633.884,-951.867 529.954,-918.517 494.171,-907.034"/>
<polygon fill="black" stroke="black" points="495.125,-903.664 484.533,-903.941 492.986,-910.329 495.125,-903.664"/>
</g>
<!-- p9 -->
<g id="node14" class="node"><title>p9</title>
<ellipse fill="black" stroke="black" cx="808.6" cy="-1078" rx="3.6" ry="3.6"/>
</g>
<!-- p9&#45;&gt;p10 -->
<g id="edge13" class="edge"><title>p9&#45;&gt;p10</title>
<path fill="none" stroke="black" d="M807.782,-1074.03C805.434,-1065.83 798.094,-1042.44 786.6,-1026 784.022,-1022.31 781.008,-1018.71 777.832,-1015.3"/>
<polygon fill="black" stroke="black" points="780.274,-1012.79 770.729,-1008.2 775.324,-1017.74 780.274,-1012.79"/>
<text text-anchor="middle" x="830.6" y="-1030.3" font-family="Times,serif" font-size="14.00">reference</text>
</g>
<!-- p20 -->
<g id="node25" class="node"><title>p20</title>
<ellipse fill="none" stroke="black" cx="857.6" cy="-764" rx="3.25" ry="3.5"/>
<text text-anchor="middle" x="829.6" y="-771.3" font-family="Times,serif" font-size="14.00">collect</text>
</g>
<!-- p19&#45;&gt;p20 -->
<g id="edge27" class="edge"><title>p19&#45;&gt;p20</title>
<path fill="none" stroke="black" d="M857.6,-824.336C857.6,-816.448 857.6,-792.832 857.6,-777.881"/>
<polygon fill="black" stroke="black" points="861.1,-777.585 857.6,-767.585 854.1,-777.585 861.1,-777.585"/>
<text text-anchor="middle" x="896.6" y="-794.3" font-family="Times,serif" font-size="14.00">version_ch</text>
</g>
<!-- p12 -->
<g id="node16" class="node"><title>p12</title>
<ellipse fill="black" stroke="black" cx="1046.6" cy="-990" rx="3.6" ry="3.6"/>
</g>
<!-- p12&#45;&gt;p15 -->
<g id="edge17" class="edge"><title>p12&#45;&gt;p15</title>
<path fill="none" stroke="black" d="M1044.53,-986.59C1038.41,-979.152 1021.31,-955.968 1029.6,-938 1031.31,-934.282 1033.64,-930.812 1036.32,-927.615"/>
<polygon fill="black" stroke="black" points="1039.05,-929.83 1043.56,-920.242 1034.05,-924.927 1039.05,-929.83"/>
<text text-anchor="middle" x="1048.1" y="-942.3" font-family="Times,serif" font-size="14.00">meta</text>
</g>
<!-- p13 -->
<g id="node17" class="node"><title>p13</title>
<ellipse fill="black" stroke="black" cx="1493.6" cy="-990" rx="3.6" ry="3.6"/>
</g>
<!-- p13&#45;&gt;p15 -->
<g id="edge18" class="edge"><title>p13&#45;&gt;p15</title>
<path fill="none" stroke="black" d="M1492.63,-986.507C1489.16,-977.95 1476.41,-949.655 1455.6,-938 1430.03,-923.68 1377.11,-915.057 1318.47,-909.911"/>
<polygon fill="black" stroke="black" points="1318.5,-906.401 1308.24,-909.052 1317.92,-913.377 1318.5,-906.401"/>
<text text-anchor="middle" x="1508.6" y="-942.3" font-family="Times,serif" font-size="14.00">reference</text>
</g>
<!-- p14 -->
<g id="node18" class="node"><title>p14</title>
<ellipse fill="black" stroke="black" cx="1071.6" cy="-990" rx="3.6" ry="3.6"/>
</g>
<!-- p14&#45;&gt;p15 -->
<g id="edge19" class="edge"><title>p14&#45;&gt;p15</title>
<path fill="none" stroke="black" d="M1071.57,-986.139C1071.47,-977.502 1071.16,-951.011 1070.92,-930.227"/>
<polygon fill="black" stroke="black" points="1074.41,-929.962 1070.8,-920.004 1067.41,-930.044 1074.41,-929.962"/>
<text text-anchor="middle" x="1085.1" y="-942.3" font-family="Times,serif" font-size="14.00">gff3</text>
</g>
<!-- p36&#45;&gt;p37 -->
<g id="edge45" class="edge"><title>p36&#45;&gt;p37</title>
<path fill="none" stroke="black" d="M1019.96,-241.109C1027.17,-235.342 1049.19,-217.726 1062.36,-207.194"/>
<polygon fill="black" stroke="black" points="1064.68,-209.815 1070.31,-200.835 1060.31,-204.349 1064.68,-209.815"/>
</g>
<!-- p37&#45;&gt;p38 -->
<g id="edge46" class="edge"><title>p37&#45;&gt;p38</title>
<path fill="none" stroke="black" d="M1074.29,-194.878C1078.76,-189.258 1091.13,-173.704 1099.47,-163.217"/>
<polygon fill="black" stroke="black" points="1102.36,-165.209 1105.85,-155.205 1096.88,-160.852 1102.36,-165.209"/>
</g>
<!-- p39 -->
<g id="node40" class="node"><title>p39</title>
<ellipse fill="none" stroke="black" cx="1107.6" cy="-92" rx="3.25" ry="3.5"/>
<text text-anchor="middle" x="1079.6" y="-99.3" font-family="Times,serif" font-size="14.00">collect</text>
</g>
<!-- p38&#45;&gt;p39 -->
<g id="edge47" class="edge"><title>p38&#45;&gt;p39</title>
<path fill="none" stroke="black" d="M1107.6,-148.203C1107.6,-140.649 1107.6,-119.48 1107.6,-105.66"/>
<polygon fill="black" stroke="black" points="1111.1,-105.636 1107.6,-95.6357 1104.1,-105.636 1111.1,-105.636"/>
<text text-anchor="middle" x="1133.6" y="-118.3" font-family="Times,serif" font-size="14.00">pub_ch</text>
</g>
<!-- p24 -->
<g id="node26" class="node"><title>p24</title>
<ellipse fill="none" stroke="black" cx="742.6" cy="-686" rx="258.991" ry="18"/>
<text text-anchor="middle" x="742.6" y="-682.3" font-family="Times,serif" font-size="14.00">CARDIOBED_01:GO_TO_BED_01:MERGE_VERSION</text>
</g>
<!-- p20&#45;&gt;p24 -->
<g id="edge28" class="edge"><title>p20&#45;&gt;p24</title>
<path fill="none" stroke="black" d="M856.764,-760.388C854.347,-753.231 846.675,-733.107 833.6,-722 827.202,-716.565 819.868,-711.923 812.2,-707.969"/>
<polygon fill="black" stroke="black" points="813.617,-704.767 803.082,-703.639 810.614,-711.09 813.617,-704.767"/>
</g>
<!-- p24&#45;&gt;p25 -->
<g id="edge32" class="edge"><title>p24&#45;&gt;p25</title>
<path fill="none" stroke="black" d="M742.6,-667.912C742.6,-658.965 742.6,-648.187 742.6,-639.94"/>
<polygon fill="black" stroke="black" points="746.1,-639.691 742.6,-629.691 739.1,-639.691 746.1,-639.691"/>
</g>
<!-- p21 -->
<g id="node27" class="node"><title>p21</title>
<ellipse fill="black" stroke="black" cx="742.6" cy="-764" rx="3.6" ry="3.6"/>
</g>
<!-- p21&#45;&gt;p24 -->
<g id="edge29" class="edge"><title>p21&#45;&gt;p24</title>
<path fill="none" stroke="black" d="M742.6,-760.114C742.6,-752.614 742.6,-731.88 742.6,-714.399"/>
<polygon fill="black" stroke="black" points="746.1,-714.082 742.6,-704.083 739.1,-714.083 746.1,-714.082"/>
<text text-anchor="middle" x="761.1" y="-726.3" font-family="Times,serif" font-size="14.00">meta</text>
</g>
<!-- p22 -->
<g id="node28" class="node"><title>p22</title>
<ellipse fill="black" stroke="black" cx="802.6" cy="-764" rx="3.6" ry="3.6"/>
</g>
<!-- p22&#45;&gt;p24 -->
<g id="edge30" class="edge"><title>p22&#45;&gt;p24</title>
<path fill="none" stroke="black" d="M801.495,-760.224C798.672,-753.326 790.697,-735.024 780.6,-722 777.663,-718.212 774.297,-714.481 770.808,-710.947"/>
<polygon fill="black" stroke="black" points="773.216,-708.407 763.574,-704.017 768.374,-713.462 773.216,-708.407"/>
<text text-anchor="middle" x="809.6" y="-726.3" font-family="Times,serif" font-size="14.00">name</text>
</g>
<!-- p23 -->
<g id="node29" class="node"><title>p23</title>
<ellipse fill="black" stroke="black" cx="637.6" cy="-764" rx="3.6" ry="3.6"/>
</g>
<!-- p23&#45;&gt;p24 -->
<g id="edge31" class="edge"><title>p23&#45;&gt;p24</title>
<path fill="none" stroke="black" d="M638.108,-760.404C639.629,-753.29 644.791,-733.262 656.6,-722 662.054,-716.799 668.383,-712.331 675.087,-708.5"/>
<polygon fill="black" stroke="black" points="677.148,-711.375 684.414,-703.664 673.926,-705.16 677.148,-711.375"/>
<text text-anchor="middle" x="697.6" y="-726.3" font-family="Times,serif" font-size="14.00">description</text>
</g>
<!-- p30 -->
<g id="node31" class="node"><title>p30</title>
<ellipse fill="none" stroke="black" cx="801.6" cy="-484" rx="180.051" ry="18"/>
<text text-anchor="middle" x="801.6" y="-480.3" font-family="Times,serif" font-size="14.00">CARDIOBED_01:MERGE_VERSION</text>
</g>
<!-- p26&#45;&gt;p30 -->
<g id="edge34" class="edge"><title>p26&#45;&gt;p30</title>
<path fill="none" stroke="black" d="M790.966,-558.471C792.013,-551.237 795.112,-529.829 797.696,-511.976"/>
<polygon fill="black" stroke="black" points="801.17,-512.407 799.138,-502.009 794.242,-511.404 801.17,-512.407"/>
</g>
<!-- p32 -->
<g id="node35" class="node"><title>p32</title>
<ellipse fill="none" stroke="black" cx="696.6" cy="-396" rx="111.186" ry="18"/>
<text text-anchor="middle" x="696.6" y="-392.3" font-family="Times,serif" font-size="14.00">VERSION_TO_HTML</text>
</g>
<!-- p30&#45;&gt;p32 -->
<g id="edge38" class="edge"><title>p30&#45;&gt;p32</title>
<path fill="none" stroke="black" d="M780.855,-466.009C765.036,-453.052 743.055,-435.049 725.511,-420.68"/>
<polygon fill="black" stroke="black" points="727.256,-417.584 717.302,-413.956 722.82,-423 727.256,-417.584"/>
</g>
<!-- p35 -->
<g id="node39" class="node"><title>p35</title>
<ellipse fill="none" stroke="black" cx="836.6" cy="-290" rx="3.25" ry="3.5"/>
<text text-anchor="middle" x="819.6" y="-297.3" font-family="Times,serif" font-size="14.00">mix</text>
</g>
<!-- p30&#45;&gt;p35 -->
<g id="edge43" class="edge"><title>p30&#45;&gt;p35</title>
<path fill="none" stroke="black" d="M805.614,-465.754C808.792,-451.828 813.239,-431.704 816.6,-414 824.224,-373.845 831.487,-325.97 834.77,-303.638"/>
<polygon fill="black" stroke="black" points="838.241,-304.092 836.216,-293.693 831.314,-303.085 838.241,-304.092"/>
</g>
<!-- p27 -->
<g id="node32" class="node"><title>p27</title>
<ellipse fill="black" stroke="black" cx="834.6" cy="-562" rx="3.6" ry="3.6"/>
</g>
<!-- p27&#45;&gt;p30 -->
<g id="edge35" class="edge"><title>p27&#45;&gt;p30</title>
<path fill="none" stroke="black" d="M833.502,-558.471C830.331,-551.169 820.891,-529.428 813.096,-511.476"/>
<polygon fill="black" stroke="black" points="816.179,-509.787 808.985,-502.009 809.758,-512.575 816.179,-509.787"/>
<text text-anchor="middle" x="841.1" y="-524.3" font-family="Times,serif" font-size="14.00">meta</text>
</g>
<!-- p28 -->
<g id="node33" class="node"><title>p28</title>
<ellipse fill="black" stroke="black" cx="641.6" cy="-562" rx="3.6" ry="3.6"/>
</g>
<!-- p28&#45;&gt;p30 -->
<g id="edge36" class="edge"><title>p28&#45;&gt;p30</title>
<path fill="none" stroke="black" d="M641.886,-558.317C642.815,-550.979 646.434,-530.434 658.6,-520 666.918,-512.866 676.462,-507.14 686.586,-502.55"/>
<polygon fill="black" stroke="black" points="688.124,-505.702 696.029,-498.647 685.45,-499.233 688.124,-505.702"/>
<text text-anchor="middle" x="678.6" y="-524.3" font-family="Times,serif" font-size="14.00">name</text>
</g>
<!-- p29 -->
<g id="node34" class="node"><title>p29</title>
<ellipse fill="black" stroke="black" cx="704.6" cy="-562" rx="3.6" ry="3.6"/>
</g>
<!-- p29&#45;&gt;p30 -->
<g id="edge37" class="edge"><title>p29&#45;&gt;p30</title>
<path fill="none" stroke="black" d="M703.839,-558.054C702.145,-550.767 698.862,-531.646 707.6,-520 711.743,-514.478 716.857,-509.828 722.541,-505.91"/>
<polygon fill="black" stroke="black" points="724.469,-508.835 731.232,-500.68 720.859,-502.838 724.469,-508.835"/>
<text text-anchor="middle" x="748.6" y="-524.3" font-family="Times,serif" font-size="14.00">description</text>
</g>
<!-- p34 -->
<g id="node37" class="node"><title>p34</title>
<ellipse fill="none" stroke="black" cx="696.6" cy="-336" rx="3.25" ry="3.5"/>
<text text-anchor="middle" x="679.6" y="-343.3" font-family="Times,serif" font-size="14.00">mix</text>
</g>
<!-- p32&#45;&gt;p34 -->
<g id="edge40" class="edge"><title>p32&#45;&gt;p34</title>
<path fill="none" stroke="black" d="M696.6,-377.912C696.6,-368.965 696.6,-358.187 696.6,-349.94"/>
<polygon fill="black" stroke="black" points="700.1,-349.691 696.6,-339.691 693.1,-349.691 700.1,-349.691"/>
</g>
<!-- p31 -->
<g id="node36" class="node"><title>p31</title>
<ellipse fill="black" stroke="black" cx="599.6" cy="-484" rx="3.6" ry="3.6"/>
</g>
<!-- p31&#45;&gt;p32 -->
<g id="edge39" class="edge"><title>p31&#45;&gt;p32</title>
<path fill="none" stroke="black" d="M601.284,-480.435C603.616,-476.975 608.057,-470.704 612.6,-466 628.677,-449.353 648.625,-432.823 665.048,-420.116"/>
<polygon fill="black" stroke="black" points="667.447,-422.688 673.275,-413.84 663.201,-417.123 667.447,-422.688"/>
<text text-anchor="middle" x="669.1" y="-436.3" font-family="Times,serif" font-size="14.00">meta</text>
</g>
<!-- p34&#45;&gt;p35 -->
<g id="edge42" class="edge"><title>p34&#45;&gt;p35</title>
<path fill="none" stroke="black" d="M699.524,-334.081C715.537,-329.048 793.006,-304.701 823.871,-295.001"/>
<polygon fill="black" stroke="black" points="825.201,-298.251 833.692,-291.914 823.103,-291.573 825.201,-298.251"/>
</g>
<!-- p33 -->
<g id="node38" class="node"><title>p33</title>
<ellipse fill="black" stroke="black" cx="563.6" cy="-396" rx="3.6" ry="3.6"/>
<text text-anchor="middle" x="505.5" y="-403.4" font-family="Times,serif" font-size="14.00">Channel.empty</text>
</g>
<!-- p33&#45;&gt;p34 -->
<g id="edge41" class="edge"><title>p33&#45;&gt;p34</title>
<path fill="none" stroke="black" d="M564.891,-392.172C566.744,-388.413 570.506,-381.804 575.6,-378 609.344,-352.802 659.597,-342.428 683.306,-338.75"/>
<polygon fill="black" stroke="black" points="683.842,-342.209 693.267,-337.368 682.881,-335.275 683.842,-342.209"/>
</g>
<!-- p35&#45;&gt;p36 -->
<g id="edge44" class="edge"><title>p35&#45;&gt;p36</title>
<path fill="none" stroke="black" d="M839.742,-288.236C859.478,-283.439 966.729,-257.366 1004.46,-248.194"/>
<polygon fill="black" stroke="black" points="1005.76,-251.48 1014.65,-245.717 1004.11,-244.678 1005.76,-251.48"/>
</g>
<!-- p41 -->
<g id="node41" class="node"><title>p41</title>
<ellipse fill="none" stroke="black" cx="1123.6" cy="-18" rx="116.484" ry="18"/>
<text text-anchor="middle" x="1123.6" y="-14.3" font-family="Times,serif" font-size="14.00">SIMPLE_PUBLISH_01</text>
</g>
<!-- p39&#45;&gt;p41 -->
<g id="edge48" class="edge"><title>p39&#45;&gt;p41</title>
<path fill="none" stroke="black" d="M1108.21,-88.2654C1109.74,-81.3541 1113.92,-62.5781 1117.53,-46.3163"/>
<polygon fill="black" stroke="black" points="1121.04,-46.6641 1119.79,-36.1429 1114.2,-45.1455 1121.04,-46.6641"/>
</g>
<!-- p40 -->
<g id="node42" class="node"><title>p40</title>
<ellipse fill="black" stroke="black" cx="1140.6" cy="-92" rx="3.6" ry="3.6"/>
</g>
<!-- p40&#45;&gt;p41 -->
<g id="edge49" class="edge"><title>p40&#45;&gt;p41</title>
<path fill="none" stroke="black" d="M1139.95,-88.2654C1138.32,-81.3541 1133.89,-62.5781 1130.05,-46.3163"/>
<polygon fill="black" stroke="black" points="1133.35,-45.071 1127.65,-36.1429 1126.54,-46.6796 1133.35,-45.071"/>
<text text-anchor="middle" x="1153.1" y="-58.3" font-family="Times,serif" font-size="14.00">meta</text>
</g>
</g>
</svg>
