<?xml version="1.0" encoding="UTF-8" standalone="no"?>
<!DOCTYPE svg PUBLIC "-//W3C//DTD SVG 1.1//EN"
 "http://www.w3.org/Graphics/SVG/1.1/DTD/svg11.dtd">
<!-- Generated by graphviz version 2.30.1 (20201013.1554)
 -->
<!-- Title: 20220731hs37d5retrocopiesworkflow Pages: 1 -->
<svg width="1417pt" height="1532pt"
 viewBox="0.00 0.00 1417.00 1532.00" xmlns="http://www.w3.org/2000/svg" xmlns:xlink="http://www.w3.org/1999/xlink">
<g id="graph0" class="graph" transform="scale(1 1) rotate(0) translate(4 1528)">
<title>20220731hs37d5retrocopiesworkflow</title>
<polygon fill="white" stroke="white" points="-4,5 -4,-1528 1414,-1528 1414,5 -4,5"/>
<!-- p0 -->
<g id="node1" class="node"><title>p0</title>
<ellipse fill="black" stroke="black" cx="1168" cy="-1446" rx="3.6" ry="3.6"/>
<text text-anchor="middle" x="1218.9" y="-1453.4" font-family="Times,serif" font-size="14.00">Channel.empty</text>
</g>
<!-- p4 -->
<g id="node2" class="node"><title>p4</title>
<ellipse fill="none" stroke="black" cx="1168" cy="-1372" rx="3.25" ry="3.5"/>
<text text-anchor="middle" x="1151" y="-1379.3" font-family="Times,serif" font-size="14.00">mix</text>
</g>
<!-- p0&#45;&gt;p4 -->
<g id="edge1" class="edge"><title>p0&#45;&gt;p4</title>
<path fill="none" stroke="black" d="M1168,-1442.27C1168,-1433.13 1168,-1403.28 1168,-1385.89"/>
<polygon fill="black" stroke="black" points="1171.5,-1385.74 1168,-1375.74 1164.5,-1385.74 1171.5,-1385.74"/>
<text text-anchor="middle" x="1207" y="-1398.3" font-family="Times,serif" font-size="14.00">version_ch</text>
</g>
<!-- p11 -->
<g id="node7" class="node"><title>p11</title>
<ellipse fill="none" stroke="black" cx="1090" cy="-1210" rx="3.25" ry="3.5"/>
<text text-anchor="middle" x="1073" y="-1217.3" font-family="Times,serif" font-size="14.00">mix</text>
</g>
<!-- p4&#45;&gt;p11 -->
<g id="edge6" class="edge"><title>p4&#45;&gt;p11</title>
<path fill="none" stroke="black" d="M1171.19,-1370.55C1196.9,-1366.83 1368.5,-1339.51 1324,-1280 1296.59,-1243.34 1148.62,-1219.39 1103.24,-1212.83"/>
<polygon fill="black" stroke="black" points="1103.57,-1209.34 1093.18,-1211.42 1102.6,-1216.27 1103.57,-1209.34"/>
<text text-anchor="middle" x="1370" y="-1294.3" font-family="Times,serif" font-size="14.00">version_ch</text>
</g>
<!-- p1 -->
<g id="node3" class="node"><title>p1</title>
<ellipse fill="black" stroke="black" cx="917" cy="-1520" rx="3.6" ry="3.6"/>
</g>
<!-- p3 -->
<g id="node4" class="node"><title>p3</title>
<ellipse fill="none" stroke="black" cx="947" cy="-1446" rx="182.926" ry="18"/>
<text text-anchor="middle" x="947" y="-1442.3" font-family="Times,serif" font-size="14.00">VCF_RETROCOPY_01:VCF_TO_BED</text>
</g>
<!-- p1&#45;&gt;p3 -->
<g id="edge2" class="edge"><title>p1&#45;&gt;p3</title>
<path fill="none" stroke="black" d="M916.474,-1516.19C915.412,-1509.85 913.479,-1494.03 918,-1482 919.26,-1478.65 920.984,-1475.39 922.968,-1472.28"/>
<polygon fill="black" stroke="black" points="925.938,-1474.16 929.081,-1464.04 920.314,-1469.99 925.938,-1474.16"/>
<text text-anchor="middle" x="936.5" y="-1486.3" font-family="Times,serif" font-size="14.00">meta</text>
</g>
<!-- p5 -->
<g id="node6" class="node"><title>p5</title>
<ellipse fill="none" stroke="black" cx="848" cy="-1372" rx="3.25" ry="3.5"/>
<text text-anchor="middle" x="815" y="-1379.3" font-family="Times,serif" font-size="14.00">splitCsv</text>
</g>
<!-- p3&#45;&gt;p5 -->
<g id="edge4" class="edge"><title>p3&#45;&gt;p5</title>
<path fill="none" stroke="black" d="M923.789,-1428.12C903.172,-1413.12 873.983,-1391.9 858.536,-1380.66"/>
<polygon fill="black" stroke="black" points="860.459,-1377.73 850.313,-1374.68 856.341,-1383.39 860.459,-1377.73"/>
</g>
<!-- p3&#45;&gt;p4 -->
<g id="edge5" class="edge"><title>p3&#45;&gt;p4</title>
<path fill="none" stroke="black" d="M997.148,-1428.66C1048.64,-1411.89 1125.34,-1386.9 1155.34,-1377.13"/>
<polygon fill="black" stroke="black" points="1156.46,-1380.44 1164.88,-1374.02 1154.29,-1373.79 1156.46,-1380.44"/>
</g>
<!-- p2 -->
<g id="node5" class="node"><title>p2</title>
<ellipse fill="black" stroke="black" cx="977" cy="-1520" rx="3.6" ry="3.6"/>
</g>
<!-- p2&#45;&gt;p3 -->
<g id="edge3" class="edge"><title>p2&#45;&gt;p3</title>
<path fill="none" stroke="black" d="M975.861,-1516.27C972.926,-1509.22 964.858,-1489.86 957.996,-1473.39"/>
<polygon fill="black" stroke="black" points="961.22,-1472.03 954.143,-1464.14 954.758,-1474.72 961.22,-1472.03"/>
<text text-anchor="middle" x="980" y="-1486.3" font-family="Times,serif" font-size="14.00">vcf</text>
</g>
<!-- p6 -->
<g id="node8" class="node"><title>p6</title>
<ellipse fill="none" stroke="black" cx="708" cy="-1298" rx="3.25" ry="3.5"/>
<text text-anchor="middle" x="689" y="-1305.3" font-family="Times,serif" font-size="14.00">map</text>
</g>
<!-- p5&#45;&gt;p6 -->
<g id="edge7" class="edge"><title>p5&#45;&gt;p6</title>
<path fill="none" stroke="black" d="M845.076,-1369.5C828.92,-1361.19 750.212,-1320.71 719.917,-1305.13"/>
<polygon fill="black" stroke="black" points="721.402,-1301.96 710.908,-1300.5 718.2,-1308.18 721.402,-1301.96"/>
</g>
<!-- p16 -->
<g id="node14" class="node"><title>p16</title>
<ellipse fill="none" stroke="black" cx="1088" cy="-1136" rx="3.25" ry="3.5"/>
<text text-anchor="middle" x="1071" y="-1143.3" font-family="Times,serif" font-size="14.00">mix</text>
</g>
<!-- p11&#45;&gt;p16 -->
<g id="edge14" class="edge"><title>p11&#45;&gt;p16</title>
<path fill="none" stroke="black" d="M1089.92,-1206.27C1089.67,-1197.13 1088.84,-1167.28 1088.36,-1149.89"/>
<polygon fill="black" stroke="black" points="1091.85,-1149.64 1088.08,-1139.74 1084.86,-1149.83 1091.85,-1149.64"/>
<text text-anchor="middle" x="1128" y="-1162.3" font-family="Times,serif" font-size="14.00">version_ch</text>
</g>
<!-- p15 -->
<g id="node9" class="node"><title>p15</title>
<ellipse fill="none" stroke="black" cx="818" cy="-1210" rx="213.247" ry="18"/>
<text text-anchor="middle" x="818" y="-1206.3" font-family="Times,serif" font-size="14.00">VCF_RETROCOPY_01:SCAN_RETROCOPY</text>
</g>
<!-- p6&#45;&gt;p15 -->
<g id="edge8" class="edge"><title>p6&#45;&gt;p15</title>
<path fill="none" stroke="black" d="M707.35,-1294.3C705.528,-1286.04 701.238,-1260.74 713,-1246 717.388,-1240.5 722.669,-1235.86 728.498,-1231.94"/>
<polygon fill="black" stroke="black" points="730.549,-1234.79 737.389,-1226.7 726.996,-1228.76 730.549,-1234.79"/>
<text text-anchor="middle" x="739" y="-1250.3" font-family="Times,serif" font-size="14.00">ch2_ch</text>
</g>
<!-- p17 -->
<g id="node18" class="node"><title>p17</title>
<ellipse fill="none" stroke="black" cx="818" cy="-1136" rx="3.25" ry="3.5"/>
<text text-anchor="middle" x="790" y="-1143.3" font-family="Times,serif" font-size="14.00">collect</text>
</g>
<!-- p15&#45;&gt;p17 -->
<g id="edge18" class="edge"><title>p15&#45;&gt;p17</title>
<path fill="none" stroke="black" d="M818,-1191.94C818,-1179.13 818,-1161.84 818,-1150.11"/>
<polygon fill="black" stroke="black" points="821.5,-1149.75 818,-1139.75 814.5,-1149.75 821.5,-1149.75"/>
</g>
<!-- p15&#45;&gt;p16 -->
<g id="edge19" class="edge"><title>p15&#45;&gt;p16</title>
<path fill="none" stroke="black" d="M879.267,-1192.66C943.564,-1175.52 1040.05,-1149.79 1074.88,-1140.5"/>
<polygon fill="black" stroke="black" points="1075.98,-1143.83 1084.74,-1137.87 1074.18,-1137.06 1075.98,-1143.83"/>
</g>
<!-- p7 -->
<g id="node10" class="node"><title>p7</title>
<ellipse fill="black" stroke="black" cx="1134" cy="-1372" rx="3.6" ry="3.6"/>
</g>
<!-- p10 -->
<g id="node11" class="node"><title>p10</title>
<ellipse fill="none" stroke="black" cx="1090" cy="-1298" rx="225.295" ry="18"/>
<text text-anchor="middle" x="1090" y="-1294.3" font-family="Times,serif" font-size="14.00">VCF_RETROCOPY_01:DOWNLOAD_KNOWN</text>
</g>
<!-- p7&#45;&gt;p10 -->
<g id="edge9" class="edge"><title>p7&#45;&gt;p10</title>
<path fill="none" stroke="black" d="M1132.63,-1368.65C1129.2,-1362.78 1119.95,-1347.01 1112,-1334 1110.15,-1330.97 1108.19,-1327.8 1106.23,-1324.66"/>
<polygon fill="black" stroke="black" points="1109.1,-1322.65 1100.83,-1316.04 1103.17,-1326.37 1109.1,-1322.65"/>
<text text-anchor="middle" x="1140.5" y="-1338.3" font-family="Times,serif" font-size="14.00">meta</text>
</g>
<!-- p10&#45;&gt;p15 -->
<g id="edge12" class="edge"><title>p10&#45;&gt;p15</title>
<path fill="none" stroke="black" d="M1037.56,-1280.42C992.495,-1266.17 927.454,-1245.61 879.86,-1230.56"/>
<polygon fill="black" stroke="black" points="880.873,-1227.21 870.283,-1227.53 878.763,-1233.88 880.873,-1227.21"/>
</g>
<!-- p10&#45;&gt;p11 -->
<g id="edge13" class="edge"><title>p10&#45;&gt;p11</title>
<path fill="none" stroke="black" d="M1090,-1279.6C1090,-1263.05 1090,-1238.54 1090,-1223.74"/>
<polygon fill="black" stroke="black" points="1093.5,-1223.67 1090,-1213.67 1086.5,-1223.67 1093.5,-1223.67"/>
</g>
<!-- p8 -->
<g id="node12" class="node"><title>p8</title>
<ellipse fill="black" stroke="black" cx="997" cy="-1372" rx="3.6" ry="3.6"/>
</g>
<!-- p8&#45;&gt;p10 -->
<g id="edge10" class="edge"><title>p8&#45;&gt;p10</title>
<path fill="none" stroke="black" d="M997.723,-1368.31C999.635,-1361.66 1005.42,-1344.25 1016,-1334 1021.27,-1328.9 1027.41,-1324.44 1033.87,-1320.56"/>
<polygon fill="black" stroke="black" points="1035.75,-1323.52 1042.82,-1315.63 1032.37,-1317.39 1035.75,-1323.52"/>
<text text-anchor="middle" x="1051" y="-1338.3" font-family="Times,serif" font-size="14.00">reference</text>
</g>
<!-- p9 -->
<g id="node13" class="node"><title>p9</title>
<ellipse fill="black" stroke="black" cx="1090" cy="-1372" rx="3.6" ry="3.6"/>
</g>
<!-- p9&#45;&gt;p10 -->
<g id="edge11" class="edge"><title>p9&#45;&gt;p10</title>
<path fill="none" stroke="black" d="M1090,-1368.27C1090,-1361.35 1090,-1342.58 1090,-1326.32"/>
<polygon fill="black" stroke="black" points="1093.5,-1326.14 1090,-1316.14 1086.5,-1326.14 1093.5,-1326.14"/>
<text text-anchor="middle" x="1100.5" y="-1338.3" font-family="Times,serif" font-size="14.00">gtf</text>
</g>
<!-- p20 -->
<g id="node19" class="node"><title>p20</title>
<ellipse fill="none" stroke="black" cx="1088" cy="-974" rx="3.25" ry="3.5"/>
<text text-anchor="middle" x="1071" y="-981.3" font-family="Times,serif" font-size="14.00">mix</text>
</g>
<!-- p16&#45;&gt;p20 -->
<g id="edge20" class="edge"><title>p16&#45;&gt;p20</title>
<path fill="none" stroke="black" d="M1088,-1132.49C1088,-1115.99 1088,-1022.78 1088,-988.043"/>
<polygon fill="black" stroke="black" points="1091.5,-987.877 1088,-977.877 1084.5,-987.877 1091.5,-987.877"/>
<text text-anchor="middle" x="1127" y="-1058.3" font-family="Times,serif" font-size="14.00">version_ch</text>
</g>
<!-- p12 -->
<g id="node15" class="node"><title>p12</title>
<ellipse fill="black" stroke="black" cx="758" cy="-1298" rx="3.6" ry="3.6"/>
</g>
<!-- p12&#45;&gt;p15 -->
<g id="edge15" class="edge"><title>p12&#45;&gt;p15</title>
<path fill="none" stroke="black" d="M758.565,-1293.99C760.233,-1285.71 765.735,-1262.1 777,-1246 779.739,-1242.08 783.017,-1238.34 786.509,-1234.85"/>
<polygon fill="black" stroke="black" points="788.881,-1237.42 793.876,-1228.08 784.144,-1232.27 788.881,-1237.42"/>
<text text-anchor="middle" x="795.5" y="-1250.3" font-family="Times,serif" font-size="14.00">meta</text>
</g>
<!-- p13 -->
<g id="node16" class="node"><title>p13</title>
<ellipse fill="black" stroke="black" cx="818" cy="-1298" rx="3.6" ry="3.6"/>
</g>
<!-- p13&#45;&gt;p15 -->
<g id="edge16" class="edge"><title>p13&#45;&gt;p15</title>
<path fill="none" stroke="black" d="M818,-1294.14C818,-1285.5 818,-1259.01 818,-1238.23"/>
<polygon fill="black" stroke="black" points="821.5,-1238 818,-1228 814.5,-1238 821.5,-1238"/>
<text text-anchor="middle" x="853" y="-1250.3" font-family="Times,serif" font-size="14.00">reference</text>
</g>
<!-- p14 -->
<g id="node17" class="node"><title>p14</title>
<ellipse fill="black" stroke="black" cx="843" cy="-1298" rx="3.6" ry="3.6"/>
</g>
<!-- p14&#45;&gt;p15 -->
<g id="edge17" class="edge"><title>p14&#45;&gt;p15</title>
<path fill="none" stroke="black" d="M844.385,-1294.29C846.345,-1290.66 850.226,-1284.2 855,-1280 867.837,-1268.71 880.181,-1276.65 889,-1262 892.668,-1255.91 892.756,-1252.04 889,-1246 886.006,-1241.19 882.134,-1237.02 877.743,-1233.4"/>
<polygon fill="black" stroke="black" points="879.549,-1230.4 869.36,-1227.49 875.515,-1236.12 879.549,-1230.4"/>
<text text-anchor="middle" x="902.5" y="-1250.3" font-family="Times,serif" font-size="14.00">gtf</text>
</g>
<!-- p19 -->
<g id="node20" class="node"><title>p19</title>
<ellipse fill="none" stroke="black" cx="821" cy="-1062" rx="230.119" ry="18"/>
<text text-anchor="middle" x="821" y="-1058.3" font-family="Times,serif" font-size="14.00">VCF_RETROCOPY_01:COLLECT_TO_FILE_01</text>
</g>
<!-- p17&#45;&gt;p19 -->
<g id="edge21" class="edge"><title>p17&#45;&gt;p19</title>
<path fill="none" stroke="black" d="M818.114,-1132.27C818.402,-1125.35 819.184,-1106.58 819.862,-1090.32"/>
<polygon fill="black" stroke="black" points="823.366,-1090.28 820.286,-1080.14 816.372,-1089.99 823.366,-1090.28"/>
</g>
<!-- p41 -->
<g id="node23" class="node"><title>p41</title>
<ellipse fill="none" stroke="black" cx="789" cy="-374" rx="3.25" ry="3.5"/>
<text text-anchor="middle" x="772" y="-381.3" font-family="Times,serif" font-size="14.00">mix</text>
</g>
<!-- p20&#45;&gt;p41 -->
<g id="edge25" class="edge"><title>p20&#45;&gt;p41</title>
<path fill="none" stroke="black" d="M1088.08,-970.341C1088.31,-962.115 1089,-936.35 1089,-915 1089,-915 1089,-915 1089,-437 1089,-377.667 861.103,-374.662 802.571,-374.869"/>
<polygon fill="black" stroke="black" points="802.342,-371.371 792.369,-374.948 802.396,-378.371 802.342,-371.371"/>
<text text-anchor="middle" x="1128" y="-686.3" font-family="Times,serif" font-size="14.00">version_ch</text>
</g>
<!-- p23 -->
<g id="node22" class="node"><title>p23</title>
<ellipse fill="none" stroke="black" cx="562" cy="-974" rx="296.061" ry="18"/>
<text text-anchor="middle" x="562" y="-970.3" font-family="Times,serif" font-size="14.00">VCF_RETROCOPY_01:BCFTOOLS_CONCAT_01:SQRT_FILE</text>
</g>
<!-- p19&#45;&gt;p23 -->
<g id="edge23" class="edge"><title>p19&#45;&gt;p23</title>
<path fill="none" stroke="black" d="M771.062,-1044.42C728.608,-1030.32 667.529,-1010.04 622.344,-995.037"/>
<polygon fill="black" stroke="black" points="623.262,-991.654 612.668,-991.824 621.056,-998.297 623.262,-991.654"/>
<text text-anchor="middle" x="730" y="-1014.3" font-family="Times,serif" font-size="14.00">vcfs</text>
</g>
<!-- p19&#45;&gt;p20 -->
<g id="edge24" class="edge"><title>p19&#45;&gt;p20</title>
<path fill="none" stroke="black" d="M872.48,-1044.42C935.92,-1023.98 1039.7,-990.556 1075.44,-979.044"/>
<polygon fill="black" stroke="black" points="1076.62,-982.341 1085.07,-975.944 1074.48,-975.678 1076.62,-982.341"/>
</g>
<!-- p18 -->
<g id="node21" class="node"><title>p18</title>
<ellipse fill="black" stroke="black" cx="851" cy="-1136" rx="3.6" ry="3.6"/>
</g>
<!-- p18&#45;&gt;p19 -->
<g id="edge22" class="edge"><title>p18&#45;&gt;p19</title>
<path fill="none" stroke="black" d="M849.861,-1132.27C846.926,-1125.22 838.858,-1105.86 831.996,-1089.39"/>
<polygon fill="black" stroke="black" points="835.22,-1088.03 828.143,-1080.14 828.758,-1090.72 835.22,-1088.03"/>
<text text-anchor="middle" x="861.5" y="-1102.3" font-family="Times,serif" font-size="14.00">meta</text>
</g>
<!-- p25 -->
<g id="node27" class="node"><title>p25</title>
<ellipse fill="none" stroke="black" cx="530" cy="-914" rx="3.25" ry="3.5"/>
<text text-anchor="middle" x="494.5" y="-921.3" font-family="Times,serif" font-size="14.00">splitText</text>
</g>
<!-- p23&#45;&gt;p25 -->
<g id="edge28" class="edge"><title>p23&#45;&gt;p25</title>
<path fill="none" stroke="black" d="M552.572,-955.912C547.299,-946.355 540.874,-934.709 536.229,-926.291"/>
<polygon fill="black" stroke="black" points="539.17,-924.374 531.274,-917.309 533.04,-927.756 539.17,-924.374"/>
</g>
<!-- p24 -->
<g id="node28" class="node"><title>p24</title>
<ellipse fill="black" stroke="black" cx="562" cy="-914" rx="1.8" ry="1.8"/>
</g>
<!-- p23&#45;&gt;p24 -->
<g id="edge29" class="edge"><title>p23&#45;&gt;p24</title>
<path fill="none" stroke="black" d="M562,-955.912C562,-946.322 562,-934.628 562,-926.202"/>
<polygon fill="black" stroke="black" points="565.5,-926.056 562,-916.056 558.5,-926.056 565.5,-926.056"/>
</g>
<!-- p42 -->
<g id="node44" class="node"><title>p42</title>
<ellipse fill="none" stroke="black" cx="789" cy="-310" rx="3.25" ry="3.5"/>
<text text-anchor="middle" x="761" y="-317.3" font-family="Times,serif" font-size="14.00">collect</text>
</g>
<!-- p41&#45;&gt;p42 -->
<g id="edge48" class="edge"><title>p41&#45;&gt;p42</title>
<path fill="none" stroke="black" d="M789,-370.336C789,-362.448 789,-338.832 789,-323.881"/>
<polygon fill="black" stroke="black" points="792.5,-323.585 789,-313.585 785.5,-323.585 792.5,-323.585"/>
<text text-anchor="middle" x="828" y="-336.3" font-family="Times,serif" font-size="14.00">version_ch</text>
</g>
<!-- p21 -->
<g id="node24" class="node"><title>p21</title>
<ellipse fill="black" stroke="black" cx="913" cy="-794" rx="3.6" ry="3.6"/>
<text text-anchor="middle" x="963.9" y="-801.4" font-family="Times,serif" font-size="14.00">Channel.empty</text>
</g>
<!-- p30 -->
<g id="node25" class="node"><title>p30</title>
<ellipse fill="none" stroke="black" cx="851" cy="-720" rx="3.25" ry="3.5"/>
<text text-anchor="middle" x="834" y="-727.3" font-family="Times,serif" font-size="14.00">mix</text>
</g>
<!-- p21&#45;&gt;p30 -->
<g id="edge26" class="edge"><title>p21&#45;&gt;p30</title>
<path fill="none" stroke="black" d="M911.205,-790.534C908.747,-787.186 904.164,-781.042 900,-776 886.533,-759.693 870.017,-741.503 860.011,-730.667"/>
<polygon fill="black" stroke="black" points="862.3,-727.988 852.927,-723.049 857.174,-732.755 862.3,-727.988"/>
<text text-anchor="middle" x="924" y="-746.3" font-family="Times,serif" font-size="14.00">version_ch</text>
</g>
<!-- p35 -->
<g id="node34" class="node"><title>p35</title>
<ellipse fill="none" stroke="black" cx="779" cy="-572" rx="3.25" ry="3.5"/>
<text text-anchor="middle" x="762" y="-579.3" font-family="Times,serif" font-size="14.00">mix</text>
</g>
<!-- p30&#45;&gt;p35 -->
<g id="edge36" class="edge"><title>p30&#45;&gt;p35</title>
<path fill="none" stroke="black" d="M850.558,-716.327C848.615,-705.049 840.16,-660.436 823,-628 813.543,-610.125 797.943,-592.392 788.083,-582.077"/>
<polygon fill="black" stroke="black" points="790.503,-579.547 780.982,-574.899 785.526,-584.47 790.503,-579.547"/>
<text text-anchor="middle" x="877" y="-642.3" font-family="Times,serif" font-size="14.00">version_ch</text>
</g>
<!-- p22 -->
<g id="node26" class="node"><title>p22</title>
<ellipse fill="black" stroke="black" cx="562" cy="-1062" rx="3.6" ry="3.6"/>
</g>
<!-- p22&#45;&gt;p23 -->
<g id="edge27" class="edge"><title>p22&#45;&gt;p23</title>
<path fill="none" stroke="black" d="M562,-1058.14C562,-1049.5 562,-1023.01 562,-1002.23"/>
<polygon fill="black" stroke="black" points="565.5,-1002 562,-992.004 558.5,-1002 565.5,-1002"/>
<text text-anchor="middle" x="580.5" y="-1014.3" font-family="Times,serif" font-size="14.00">meta</text>
</g>
<!-- p26 -->
<g id="node29" class="node"><title>p26</title>
<ellipse fill="none" stroke="black" cx="502" cy="-868" rx="3.25" ry="3.5"/>
<text text-anchor="middle" x="483" y="-875.3" font-family="Times,serif" font-size="14.00">map</text>
</g>
<!-- p25&#45;&gt;p26 -->
<g id="edge30" class="edge"><title>p25&#45;&gt;p26</title>
<path fill="none" stroke="black" d="M528.495,-910.634C524.92,-905.017 515.731,-890.577 509.179,-880.281"/>
<polygon fill="black" stroke="black" points="511.974,-878.154 503.652,-871.596 506.068,-881.912 511.974,-878.154"/>
</g>
<!-- p28 -->
<g id="node30" class="node"><title>p28</title>
<ellipse fill="none" stroke="black" cx="481" cy="-794" rx="410.146" ry="18"/>
<text text-anchor="middle" x="481" y="-790.3" font-family="Times,serif" font-size="14.00">VCF_RETROCOPY_01:BCFTOOLS_CONCAT_01:BCFTOOL_CONCAT_FILE_LIST_01</text>
</g>
<!-- p26&#45;&gt;p28 -->
<g id="edge31" class="edge"><title>p26&#45;&gt;p28</title>
<path fill="none" stroke="black" d="M499.565,-865.395C495.089,-862.282 485.678,-854.94 482,-846 478.989,-838.68 477.958,-830.255 477.892,-822.389"/>
<polygon fill="black" stroke="black" points="481.399,-822.298 478.305,-812.165 474.404,-822.016 481.399,-822.298"/>
<text text-anchor="middle" x="503.5" y="-834.3" font-family="Times,serif" font-size="14.00">d2_ch</text>
</g>
<!-- p31 -->
<g id="node32" class="node"><title>p31</title>
<ellipse fill="none" stroke="black" cx="411" cy="-720" rx="3.25" ry="3.5"/>
<text text-anchor="middle" x="383" y="-727.3" font-family="Times,serif" font-size="14.00">collect</text>
</g>
<!-- p28&#45;&gt;p31 -->
<g id="edge33" class="edge"><title>p28&#45;&gt;p31</title>
<path fill="none" stroke="black" d="M464.411,-775.937C450.63,-761.762 431.524,-742.111 420.293,-730.558"/>
<polygon fill="black" stroke="black" points="422.706,-728.019 413.225,-723.289 417.687,-732.899 422.706,-728.019"/>
</g>
<!-- p29 -->
<g id="node33" class="node"><title>p29</title>
<ellipse fill="black" stroke="black" cx="481" cy="-720" rx="1.8" ry="1.8"/>
</g>
<!-- p28&#45;&gt;p29 -->
<g id="edge34" class="edge"><title>p28&#45;&gt;p29</title>
<path fill="none" stroke="black" d="M481,-775.937C481,-762.37 481,-743.787 481,-732.089"/>
<polygon fill="black" stroke="black" points="484.5,-731.849 481,-721.849 477.5,-731.849 484.5,-731.849"/>
</g>
<!-- p28&#45;&gt;p30 -->
<g id="edge35" class="edge"><title>p28&#45;&gt;p30</title>
<path fill="none" stroke="black" d="M566.35,-776.391C657.64,-758.627 795.072,-731.883 837.83,-723.563"/>
<polygon fill="black" stroke="black" points="838.757,-726.948 847.904,-721.602 837.419,-720.077 838.757,-726.948"/>
</g>
<!-- p27 -->
<g id="node31" class="node"><title>p27</title>
<ellipse fill="black" stroke="black" cx="547" cy="-868" rx="3.6" ry="3.6"/>
</g>
<!-- p27&#45;&gt;p28 -->
<g id="edge32" class="edge"><title>p27&#45;&gt;p28</title>
<path fill="none" stroke="black" d="M545.887,-864.462C543.043,-858.161 535.026,-841.486 525,-830 521.558,-826.057 517.627,-822.23 513.564,-818.643"/>
<polygon fill="black" stroke="black" points="515.603,-815.786 505.679,-812.076 511.122,-821.165 515.603,-815.786"/>
<text text-anchor="middle" x="554.5" y="-834.3" font-family="Times,serif" font-size="14.00">meta</text>
</g>
<!-- p33 -->
<g id="node35" class="node"><title>p33</title>
<ellipse fill="none" stroke="black" cx="407" cy="-646" rx="407.271" ry="18"/>
<text text-anchor="middle" x="407" y="-642.3" font-family="Times,serif" font-size="14.00">VCF_RETROCOPY_01:BCFTOOLS_CONCAT_01:BCFTOOL_CONCAT_COLLECT_01</text>
</g>
<!-- p31&#45;&gt;p33 -->
<g id="edge37" class="edge"><title>p31&#45;&gt;p33</title>
<path fill="none" stroke="black" d="M410.848,-716.265C410.464,-709.354 409.421,-690.578 408.518,-674.316"/>
<polygon fill="black" stroke="black" points="412.002,-673.933 407.952,-664.143 405.013,-674.322 412.002,-673.933"/>
</g>
<!-- p36 -->
<g id="node39" class="node"><title>p36</title>
<ellipse fill="none" stroke="black" cx="779" cy="-512" rx="3.25" ry="3.5"/>
<text text-anchor="middle" x="751" y="-519.3" font-family="Times,serif" font-size="14.00">collect</text>
</g>
<!-- p35&#45;&gt;p36 -->
<g id="edge42" class="edge"><title>p35&#45;&gt;p36</title>
<path fill="none" stroke="black" d="M779,-568.203C779,-560.649 779,-539.48 779,-525.66"/>
<polygon fill="black" stroke="black" points="782.5,-525.636 779,-515.636 775.5,-525.636 782.5,-525.636"/>
<text text-anchor="middle" x="818" y="-538.3" font-family="Times,serif" font-size="14.00">version_ch</text>
</g>
<!-- p50 -->
<g id="node37" class="node"><title>p50</title>
<ellipse fill="none" stroke="black" cx="617" cy="-60" rx="56.3173" ry="18"/>
<text text-anchor="middle" x="617" y="-56.3" font-family="Times,serif" font-size="14.00">PUBLISH</text>
</g>
<!-- p33&#45;&gt;p50 -->
<g id="edge39" class="edge"><title>p33&#45;&gt;p50</title>
<path fill="none" stroke="black" d="M393.757,-628.009C384.211,-614.045 373,-593.321 373,-573 373,-573 373,-573 373,-147 373,-108.124 484.569,-82.5006 556.821,-69.983"/>
<polygon fill="black" stroke="black" points="557.464,-73.424 566.739,-68.3037 556.295,-66.5222 557.464,-73.424"/>
<text text-anchor="middle" x="384" y="-370.3" font-family="Times,serif" font-size="14.00">vcf</text>
</g>
<!-- p34 -->
<g id="node38" class="node"><title>p34</title>
<ellipse fill="black" stroke="black" cx="407" cy="-572" rx="1.8" ry="1.8"/>
</g>
<!-- p33&#45;&gt;p34 -->
<g id="edge40" class="edge"><title>p33&#45;&gt;p34</title>
<path fill="none" stroke="black" d="M407,-627.937C407,-614.37 407,-595.787 407,-584.089"/>
<polygon fill="black" stroke="black" points="410.5,-583.849 407,-573.849 403.5,-583.849 410.5,-583.849"/>
<text text-anchor="middle" x="427" y="-598.3" font-family="Times,serif" font-size="14.00">index</text>
</g>
<!-- p33&#45;&gt;p35 -->
<g id="edge41" class="edge"><title>p33&#45;&gt;p35</title>
<path fill="none" stroke="black" d="M492.811,-628.391C584.792,-610.589 723.366,-583.768 766.035,-575.509"/>
<polygon fill="black" stroke="black" points="766.734,-578.939 775.887,-573.602 765.404,-572.067 766.734,-578.939"/>
</g>
<!-- p32 -->
<g id="node36" class="node"><title>p32</title>
<ellipse fill="black" stroke="black" cx="440" cy="-720" rx="3.6" ry="3.6"/>
</g>
<!-- p32&#45;&gt;p33 -->
<g id="edge38" class="edge"><title>p32&#45;&gt;p33</title>
<path fill="none" stroke="black" d="M438.747,-716.265C435.519,-709.222 426.644,-689.859 419.095,-673.39"/>
<polygon fill="black" stroke="black" points="422.205,-671.775 414.857,-664.143 415.842,-674.692 422.205,-671.775"/>
<text text-anchor="middle" x="449.5" y="-686.3" font-family="Times,serif" font-size="14.00">meta</text>
</g>
<!-- p53 -->
<g id="node52" class="node"><title>p53</title>
<ellipse fill="black" stroke="black" cx="592" cy="-2" rx="1.8" ry="1.8"/>
</g>
<!-- p50&#45;&gt;p53 -->
<g id="edge58" class="edge"><title>p50&#45;&gt;p53</title>
<path fill="none" stroke="black" d="M609.363,-41.8939C605.192,-32.5499 600.164,-21.2883 596.595,-13.2932"/>
<polygon fill="black" stroke="black" points="599.717,-11.7003 592.445,-3.99575 593.325,-14.5539 599.717,-11.7003"/>
</g>
<!-- p52 -->
<g id="node53" class="node"><title>p52</title>
<ellipse fill="black" stroke="black" cx="617" cy="-2" rx="1.8" ry="1.8"/>
</g>
<!-- p50&#45;&gt;p52 -->
<g id="edge59" class="edge"><title>p50&#45;&gt;p52</title>
<path fill="none" stroke="black" d="M617,-41.8939C617,-32.8876 617,-22.0999 617,-14.1727"/>
<polygon fill="black" stroke="black" points="620.5,-13.9957 617,-3.99575 613.5,-13.9958 620.5,-13.9957"/>
</g>
<!-- p51 -->
<g id="node54" class="node"><title>p51</title>
<ellipse fill="black" stroke="black" cx="642" cy="-2" rx="1.8" ry="1.8"/>
</g>
<!-- p50&#45;&gt;p51 -->
<g id="edge60" class="edge"><title>p50&#45;&gt;p51</title>
<path fill="none" stroke="black" d="M624.637,-41.8939C628.808,-32.5499 633.836,-21.2883 637.405,-13.2932"/>
<polygon fill="black" stroke="black" points="640.675,-14.5539 641.555,-3.99575 634.283,-11.7003 640.675,-14.5539"/>
</g>
<!-- p40 -->
<g id="node40" class="node"><title>p40</title>
<ellipse fill="none" stroke="black" cx="731" cy="-438" rx="329.281" ry="18"/>
<text text-anchor="middle" x="731" y="-434.3" font-family="Times,serif" font-size="14.00">VCF_RETROCOPY_01:BCFTOOLS_CONCAT_01:MERGE_VERSION</text>
</g>
<!-- p36&#45;&gt;p40 -->
<g id="edge43" class="edge"><title>p36&#45;&gt;p40</title>
<path fill="none" stroke="black" d="M778.432,-508.504C776.944,-502.299 772.517,-485.824 765,-474 762.813,-470.56 760.246,-467.176 757.52,-463.949"/>
<polygon fill="black" stroke="black" points="759.87,-461.332 750.542,-456.308 754.701,-466.052 759.87,-461.332"/>
</g>
<!-- p40&#45;&gt;p41 -->
<g id="edge47" class="edge"><title>p40&#45;&gt;p41</title>
<path fill="none" stroke="black" d="M747.156,-419.73C757.815,-408.335 771.375,-393.84 780.121,-384.491"/>
<polygon fill="black" stroke="black" points="782.7,-386.857 786.976,-377.163 777.589,-382.075 782.7,-386.857"/>
</g>
<!-- p37 -->
<g id="node41" class="node"><title>p37</title>
<ellipse fill="black" stroke="black" cx="812" cy="-512" rx="3.6" ry="3.6"/>
</g>
<!-- p37&#45;&gt;p40 -->
<g id="edge44" class="edge"><title>p37&#45;&gt;p40</title>
<path fill="none" stroke="black" d="M810.406,-508.444C806.368,-502.102 795.191,-485.34 783,-474 778.398,-469.72 773.227,-465.59 767.976,-461.76"/>
<polygon fill="black" stroke="black" points="769.936,-458.859 759.731,-456.009 765.932,-464.601 769.936,-458.859"/>
<text text-anchor="middle" x="815.5" y="-478.3" font-family="Times,serif" font-size="14.00">meta</text>
</g>
<!-- p38 -->
<g id="node42" class="node"><title>p38</title>
<ellipse fill="black" stroke="black" cx="619" cy="-512" rx="3.6" ry="3.6"/>
</g>
<!-- p38&#45;&gt;p40 -->
<g id="edge45" class="edge"><title>p38&#45;&gt;p40</title>
<path fill="none" stroke="black" d="M619.261,-508.255C620.048,-501.482 623.001,-483.814 633,-474 638.363,-468.736 644.57,-464.259 651.206,-460.452"/>
<polygon fill="black" stroke="black" points="653.2,-463.361 660.481,-455.664 649.99,-457.141 653.2,-463.361"/>
<text text-anchor="middle" x="653" y="-478.3" font-family="Times,serif" font-size="14.00">name</text>
</g>
<!-- p39 -->
<g id="node43" class="node"><title>p39</title>
<ellipse fill="black" stroke="black" cx="682" cy="-512" rx="3.6" ry="3.6"/>
</g>
<!-- p39&#45;&gt;p40 -->
<g id="edge46" class="edge"><title>p39&#45;&gt;p40</title>
<path fill="none" stroke="black" d="M680.914,-508.477C678.395,-502.21 672.822,-485.605 679,-474 681.277,-469.722 684.336,-465.874 687.834,-462.435"/>
<polygon fill="black" stroke="black" points="690.141,-465.068 695.526,-455.944 685.626,-459.718 690.141,-465.068"/>
<text text-anchor="middle" x="720" y="-478.3" font-family="Times,serif" font-size="14.00">description</text>
</g>
<!-- p46 -->
<g id="node45" class="node"><title>p46</title>
<ellipse fill="none" stroke="black" cx="661" cy="-236" rx="206.522" ry="18"/>
<text text-anchor="middle" x="661" y="-232.3" font-family="Times,serif" font-size="14.00">VCF_RETROCOPY_01:MERGE_VERSION</text>
</g>
<!-- p42&#45;&gt;p46 -->
<g id="edge49" class="edge"><title>p42&#45;&gt;p46</title>
<path fill="none" stroke="black" d="M788.277,-306.22C786.351,-299.368 780.447,-281.531 769,-272 761.749,-265.963 753.433,-260.959 744.705,-256.814"/>
<polygon fill="black" stroke="black" points="746.052,-253.584 735.486,-252.798 743.256,-260.001 746.052,-253.584"/>
</g>
<!-- p48 -->
<g id="node49" class="node"><title>p48</title>
<ellipse fill="none" stroke="black" cx="513" cy="-148" rx="111.186" ry="18"/>
<text text-anchor="middle" x="513" y="-144.3" font-family="Times,serif" font-size="14.00">VERSION_TO_HTML</text>
</g>
<!-- p46&#45;&gt;p48 -->
<g id="edge53" class="edge"><title>p46&#45;&gt;p48</title>
<path fill="none" stroke="black" d="M631.76,-218.009C608.426,-204.45 575.582,-185.365 550.346,-170.701"/>
<polygon fill="black" stroke="black" points="551.83,-167.515 541.425,-165.517 548.313,-173.568 551.83,-167.515"/>
</g>
<!-- p46&#45;&gt;p50 -->
<g id="edge57" class="edge"><title>p46&#45;&gt;p50</title>
<path fill="none" stroke="black" d="M656.701,-217.999C649.045,-187.723 632.993,-124.245 623.818,-87.9616"/>
<polygon fill="black" stroke="black" points="627.161,-86.9064 621.316,-78.0697 620.375,-88.6226 627.161,-86.9064"/>
<text text-anchor="middle" x="657.5" y="-144.3" font-family="Times,serif" font-size="14.00">xml</text>
</g>
<!-- p43 -->
<g id="node46" class="node"><title>p43</title>
<ellipse fill="black" stroke="black" cx="569" cy="-310" rx="3.6" ry="3.6"/>
</g>
<!-- p43&#45;&gt;p46 -->
<g id="edge50" class="edge"><title>p43&#45;&gt;p46</title>
<path fill="none" stroke="black" d="M569.809,-306.316C571.93,-299.681 578.242,-282.304 589,-272 594.244,-266.977 600.347,-262.546 606.74,-258.675"/>
<polygon fill="black" stroke="black" points="608.556,-261.67 615.583,-253.741 605.145,-255.557 608.556,-261.67"/>
<text text-anchor="middle" x="607.5" y="-276.3" font-family="Times,serif" font-size="14.00">meta</text>
</g>
<!-- p44 -->
<g id="node47" class="node"><title>p44</title>
<ellipse fill="black" stroke="black" cx="629" cy="-310" rx="3.6" ry="3.6"/>
</g>
<!-- p44&#45;&gt;p46 -->
<g id="edge51" class="edge"><title>p44&#45;&gt;p46</title>
<path fill="none" stroke="black" d="M628.783,-306.178C628.403,-299.809 628.073,-283.946 633,-272 634.346,-268.736 636.095,-265.529 638.061,-262.462"/>
<polygon fill="black" stroke="black" points="640.977,-264.404 644.025,-254.257 635.314,-260.289 640.977,-264.404"/>
<text text-anchor="middle" x="653" y="-276.3" font-family="Times,serif" font-size="14.00">name</text>
</g>
<!-- p45 -->
<g id="node48" class="node"><title>p45</title>
<ellipse fill="black" stroke="black" cx="692" cy="-310" rx="3.6" ry="3.6"/>
</g>
<!-- p45&#45;&gt;p46 -->
<g id="edge52" class="edge"><title>p45&#45;&gt;p46</title>
<path fill="none" stroke="black" d="M690.823,-306.265C687.79,-299.222 679.453,-279.859 672.362,-263.39"/>
<polygon fill="black" stroke="black" points="675.55,-261.944 668.381,-254.143 669.121,-264.712 675.55,-261.944"/>
<text text-anchor="middle" x="724" y="-276.3" font-family="Times,serif" font-size="14.00">description</text>
</g>
<!-- p48&#45;&gt;p50 -->
<g id="edge55" class="edge"><title>p48&#45;&gt;p50</title>
<path fill="none" stroke="black" d="M533.547,-130.009C549.521,-116.8 571.838,-98.3456 589.375,-83.8441"/>
<polygon fill="black" stroke="black" points="592.075,-86.1529 597.551,-77.0829 587.614,-80.7583 592.075,-86.1529"/>
</g>
<!-- p47 -->
<g id="node50" class="node"><title>p47</title>
<ellipse fill="black" stroke="black" cx="433" cy="-236" rx="3.6" ry="3.6"/>
</g>
<!-- p47&#45;&gt;p48 -->
<g id="edge54" class="edge"><title>p47&#45;&gt;p48</title>
<path fill="none" stroke="black" d="M434.588,-232.486C436.779,-229.084 440.922,-222.878 445,-218 458.167,-202.252 474.235,-185.837 487.445,-172.97"/>
<polygon fill="black" stroke="black" points="490.076,-175.295 494.849,-165.836 485.219,-170.254 490.076,-175.295"/>
<text text-anchor="middle" x="494.5" y="-188.3" font-family="Times,serif" font-size="14.00">meta</text>
</g>
<!-- p49 -->
<g id="node51" class="node"><title>p49</title>
<ellipse fill="black" stroke="black" cx="710" cy="-148" rx="3.6" ry="3.6"/>
</g>
<!-- p49&#45;&gt;p50 -->
<g id="edge56" class="edge"><title>p49&#45;&gt;p50</title>
<path fill="none" stroke="black" d="M708.721,-144.382C704.696,-136.345 691.562,-111.62 675,-96 669.105,-90.4397 662.181,-85.337 655.209,-80.8483"/>
<polygon fill="black" stroke="black" points="656.789,-77.7124 646.427,-75.5028 653.149,-83.6919 656.789,-77.7124"/>
<text text-anchor="middle" x="707.5" y="-100.3" font-family="Times,serif" font-size="14.00">meta</text>
</g>
</g>
</svg>
