<?xml version="1.0" encoding="UTF-8" standalone="no"?>
<!DOCTYPE svg PUBLIC "-//W3C//DTD SVG 1.1//EN"
 "http://www.w3.org/Graphics/SVG/1.1/DTD/svg11.dtd">
<!-- Generated by graphviz version 2.30.1 (20201013.1554)
 -->
<!-- Title: 20220712rotavirusremapworkflow Pages: 1 -->
<svg width="1072pt" height="2126pt"
 viewBox="0.00 0.00 1071.60 2126.00" xmlns="http://www.w3.org/2000/svg" xmlns:xlink="http://www.w3.org/1999/xlink">
<g id="graph0" class="graph" transform="scale(1 1) rotate(0) translate(4 2122)">
<title>20220712rotavirusremapworkflow</title>
<polygon fill="white" stroke="white" points="-4,5 -4,-2122 1068.6,-2122 1068.6,5 -4,5"/>
<!-- p0 -->
<g id="node1" class="node"><title>p0</title>
<ellipse fill="black" stroke="black" cx="87.6" cy="-1952" rx="3.6" ry="3.6"/>
<text text-anchor="middle" x="42" y="-1959.4" font-family="Times,serif" font-size="14.00">Channel.empty</text>
</g>
<!-- p9 -->
<g id="node2" class="node"><title>p9</title>
<ellipse fill="none" stroke="black" cx="128.6" cy="-1878" rx="3.25" ry="3.5"/>
<text text-anchor="middle" x="114.1" y="-1885.3" font-family="Times,serif" font-size="14.00">mix</text>
</g>
<!-- p0&#45;&gt;p9 -->
<g id="edge1" class="edge"><title>p0&#45;&gt;p9</title>
<path fill="none" stroke="black" d="M86.8039,-1948.41C84.5218,-1940.47 78.7312,-1915.97 88.6,-1900 94.5137,-1890.43 106.358,-1884.99 115.631,-1882.06"/>
<polygon fill="black" stroke="black" points="116.544,-1885.44 125.36,-1879.56 114.804,-1878.66 116.544,-1885.44"/>
<text text-anchor="middle" x="118.1" y="-1904.3" font-family="Times,serif" font-size="14.00">version_ch</text>
</g>
<!-- p14 -->
<g id="node12" class="node"><title>p14</title>
<ellipse fill="none" stroke="black" cx="330.6" cy="-1744" rx="3.25" ry="3.5"/>
<text text-anchor="middle" x="316.1" y="-1751.3" font-family="Times,serif" font-size="14.00">mix</text>
</g>
<!-- p9&#45;&gt;p14 -->
<g id="edge11" class="edge"><title>p9&#45;&gt;p14</title>
<path fill="none" stroke="black" d="M127.875,-1874.33C124.78,-1862.3 113.884,-1812.5 137.6,-1786 161.768,-1759 277.833,-1748.62 317.374,-1745.84"/>
<polygon fill="black" stroke="black" points="317.708,-1749.32 327.459,-1745.18 317.252,-1742.34 317.708,-1749.32"/>
<text text-anchor="middle" x="167.1" y="-1800.3" font-family="Times,serif" font-size="14.00">version_ch</text>
</g>
<!-- p1 -->
<g id="node3" class="node"><title>p1</title>
<ellipse fill="black" stroke="black" cx="98.6" cy="-2040" rx="3.6" ry="3.6"/>
<text text-anchor="middle" x="53" y="-2047.4" font-family="Times,serif" font-size="14.00">Channel.empty</text>
</g>
<!-- p5 -->
<g id="node4" class="node"><title>p5</title>
<ellipse fill="none" stroke="black" cx="169.6" cy="-1952" rx="3.25" ry="3.5"/>
<text text-anchor="middle" x="155.1" y="-1959.3" font-family="Times,serif" font-size="14.00">mix</text>
</g>
<!-- p1&#45;&gt;p5 -->
<g id="edge2" class="edge"><title>p1&#45;&gt;p5</title>
<path fill="none" stroke="black" d="M100.24,-2036.53C102.488,-2033.17 106.696,-2027.02 110.6,-2022 127.564,-2000.19 148.963,-1975.89 160.767,-1962.74"/>
<polygon fill="black" stroke="black" points="163.58,-1964.85 167.691,-1955.09 158.388,-1960.16 163.58,-1964.85"/>
<text text-anchor="middle" x="167.1" y="-1992.3" font-family="Times,serif" font-size="14.00">version_ch</text>
</g>
<!-- p5&#45;&gt;p9 -->
<g id="edge7" class="edge"><title>p5&#45;&gt;p9</title>
<path fill="none" stroke="black" d="M168.853,-1948.52C166.487,-1940.89 158.655,-1917.2 147.6,-1900 144.888,-1895.78 141.321,-1891.59 138.011,-1888.08"/>
<polygon fill="black" stroke="black" points="140.194,-1885.31 130.612,-1880.79 135.283,-1890.3 140.194,-1885.31"/>
<text text-anchor="middle" x="176.6" y="-1904.3" font-family="Times,serif" font-size="14.00">version</text>
</g>
<!-- p2 -->
<g id="node5" class="node"><title>p2</title>
<ellipse fill="black" stroke="black" cx="374.6" cy="-2114" rx="3.6" ry="3.6"/>
</g>
<!-- p4 -->
<g id="node6" class="node"><title>p4</title>
<ellipse fill="none" stroke="black" cx="400.6" cy="-2040" rx="280.163" ry="18"/>
<text text-anchor="middle" x="400.6" y="-2036.3" font-family="Times,serif" font-size="14.00">REMAP_BWA_01:SCATTER_TO_BED:SCATTER_INTERVALS_BY_NS</text>
</g>
<!-- p2&#45;&gt;p4 -->
<g id="edge3" class="edge"><title>p2&#45;&gt;p4</title>
<path fill="none" stroke="black" d="M374.829,-2110.23C375.408,-2103.97 377.213,-2088.32 381.6,-2076 382.634,-2073.1 383.883,-2070.15 385.242,-2067.25"/>
<polygon fill="black" stroke="black" points="388.377,-2068.81 389.826,-2058.31 382.148,-2065.61 388.377,-2068.81"/>
<text text-anchor="middle" x="395.6" y="-2080.3" font-family="Times,serif" font-size="14.00">meta</text>
</g>
<!-- p7 -->
<g id="node8" class="node"><title>p7</title>
<ellipse fill="none" stroke="black" cx="631.6" cy="-1952" rx="262.365" ry="18"/>
<text text-anchor="middle" x="631.6" y="-1948.3" font-family="Times,serif" font-size="14.00">REMAP_BWA_01:SCATTER_TO_BED:INTERVAL_LIST_TO_BED</text>
</g>
<!-- p4&#45;&gt;p7 -->
<g id="edge5" class="edge"><title>p4&#45;&gt;p7</title>
<path fill="none" stroke="black" d="M445.687,-2022.21C483.29,-2008.22 536.993,-1988.22 577.021,-1973.32"/>
<polygon fill="black" stroke="black" points="578.476,-1976.51 586.626,-1969.74 576.033,-1969.95 578.476,-1976.51"/>
</g>
<!-- p4&#45;&gt;p5 -->
<g id="edge6" class="edge"><title>p4&#45;&gt;p5</title>
<path fill="none" stroke="black" d="M355.513,-2022.21C301.491,-2002.1 214.238,-1969.62 182.047,-1957.63"/>
<polygon fill="black" stroke="black" points="183.182,-1954.32 172.589,-1954.11 180.74,-1960.88 183.182,-1954.32"/>
</g>
<!-- p3 -->
<g id="node7" class="node"><title>p3</title>
<ellipse fill="black" stroke="black" cx="425.6" cy="-2114" rx="3.6" ry="3.6"/>
</g>
<!-- p3&#45;&gt;p4 -->
<g id="edge4" class="edge"><title>p3&#45;&gt;p4</title>
<path fill="none" stroke="black" d="M424.65,-2110.27C422.228,-2103.29 415.607,-2084.22 409.924,-2067.85"/>
<polygon fill="black" stroke="black" points="413.139,-2066.44 406.552,-2058.14 406.526,-2068.74 413.139,-2066.44"/>
<text text-anchor="middle" x="443.6" y="-2080.3" font-family="Times,serif" font-size="14.00">reference</text>
</g>
<!-- p16 -->
<g id="node10" class="node"><title>p16</title>
<ellipse fill="none" stroke="black" cx="613.6" cy="-1878" rx="3.25" ry="3.5"/>
<text text-anchor="middle" x="587.6" y="-1885.3" font-family="Times,serif" font-size="14.00">splitCsv</text>
</g>
<!-- p7&#45;&gt;p16 -->
<g id="edge9" class="edge"><title>p7&#45;&gt;p16</title>
<path fill="none" stroke="black" d="M622.978,-1933.94C620.514,-1928.35 618.095,-1922.03 616.6,-1916 614.662,-1908.18 613.902,-1899.18 613.631,-1892.01"/>
<polygon fill="black" stroke="black" points="617.128,-1891.7 613.523,-1881.74 610.128,-1891.78 617.128,-1891.7"/>
<text text-anchor="middle" x="626.6" y="-1904.3" font-family="Times,serif" font-size="14.00">bed</text>
</g>
<!-- p8 -->
<g id="node11" class="node"><title>p8</title>
<ellipse fill="black" stroke="black" cx="648.6" cy="-1878" rx="1.8" ry="1.8"/>
</g>
<!-- p7&#45;&gt;p8 -->
<g id="edge10" class="edge"><title>p7&#45;&gt;p8</title>
<path fill="none" stroke="black" d="M635.629,-1933.94C638.868,-1920.22 643.317,-1901.37 646.073,-1889.7"/>
<polygon fill="black" stroke="black" points="649.508,-1890.39 648.399,-1879.85 642.695,-1888.78 649.508,-1890.39"/>
</g>
<!-- p6 -->
<g id="node9" class="node"><title>p6</title>
<ellipse fill="black" stroke="black" cx="702.6" cy="-2040" rx="3.6" ry="3.6"/>
</g>
<!-- p6&#45;&gt;p7 -->
<g id="edge8" class="edge"><title>p6&#45;&gt;p7</title>
<path fill="none" stroke="black" d="M700.783,-2036.55C698.301,-2033.22 693.691,-2027.1 689.6,-2022 677.682,-2007.14 663.983,-1990.81 652.892,-1977.77"/>
<polygon fill="black" stroke="black" points="655.516,-1975.45 646.363,-1970.11 650.191,-1979.99 655.516,-1975.45"/>
<text text-anchor="middle" x="688.6" y="-1992.3" font-family="Times,serif" font-size="14.00">meta</text>
</g>
<!-- p17 -->
<g id="node20" class="node"><title>p17</title>
<ellipse fill="none" stroke="black" cx="613.6" cy="-1804" rx="3.25" ry="3.5"/>
<text text-anchor="middle" x="597.6" y="-1811.3" font-family="Times,serif" font-size="14.00">map</text>
</g>
<!-- p16&#45;&gt;p17 -->
<g id="edge19" class="edge"><title>p16&#45;&gt;p17</title>
<path fill="none" stroke="black" d="M613.6,-1874.27C613.6,-1865.13 613.6,-1835.28 613.6,-1817.89"/>
<polygon fill="black" stroke="black" points="617.1,-1817.74 613.6,-1807.74 610.1,-1817.74 617.1,-1817.74"/>
</g>
<!-- p65 -->
<g id="node18" class="node"><title>p65</title>
<ellipse fill="none" stroke="black" cx="399.6" cy="-194" rx="3.25" ry="3.5"/>
<text text-anchor="middle" x="385.1" y="-201.3" font-family="Times,serif" font-size="14.00">mix</text>
</g>
<!-- p14&#45;&gt;p65 -->
<g id="edge17" class="edge"><title>p14&#45;&gt;p65</title>
<path fill="none" stroke="black" d="M330.6,-1740.34C330.6,-1732.11 330.6,-1706.35 330.6,-1685 330.6,-1685 330.6,-1685 330.6,-267 330.6,-234.291 368.178,-210.647 387.871,-200.502"/>
<polygon fill="black" stroke="black" points="389.484,-203.61 396.979,-196.123 386.45,-197.302 389.484,-203.61"/>
<text text-anchor="middle" x="360.1" y="-978.3" font-family="Times,serif" font-size="14.00">version_ch</text>
</g>
<!-- p10 -->
<g id="node13" class="node"><title>p10</title>
<ellipse fill="black" stroke="black" cx="335.6" cy="-1878" rx="3.6" ry="3.6"/>
</g>
<!-- p13 -->
<g id="node14" class="node"><title>p13</title>
<ellipse fill="none" stroke="black" cx="386.6" cy="-1804" rx="180.526" ry="18"/>
<text text-anchor="middle" x="386.6" y="-1800.3" font-family="Times,serif" font-size="14.00">REMAP_BWA_01:SAMTOOLS_SAMPLES01</text>
</g>
<!-- p10&#45;&gt;p13 -->
<g id="edge12" class="edge"><title>p10&#45;&gt;p13</title>
<path fill="none" stroke="black" d="M336.592,-1874.54C339.119,-1868.41 346.191,-1852.1 354.6,-1840 357.032,-1836.5 359.789,-1832.99 362.639,-1829.61"/>
<polygon fill="black" stroke="black" points="365.339,-1831.84 369.352,-1822.03 360.1,-1827.19 365.339,-1831.84"/>
<text text-anchor="middle" x="368.6" y="-1844.3" font-family="Times,serif" font-size="14.00">meta</text>
</g>
<!-- p15 -->
<g id="node17" class="node"><title>p15</title>
<ellipse fill="none" stroke="black" cx="401.6" cy="-1744" rx="3.25" ry="3.5"/>
<text text-anchor="middle" x="375.6" y="-1751.3" font-family="Times,serif" font-size="14.00">splitCsv</text>
</g>
<!-- p13&#45;&gt;p15 -->
<g id="edge15" class="edge"><title>p13&#45;&gt;p15</title>
<path fill="none" stroke="black" d="M391.019,-1785.91C393.361,-1776.86 396.187,-1765.93 398.329,-1757.65"/>
<polygon fill="black" stroke="black" points="401.789,-1758.25 400.904,-1747.69 395.012,-1756.5 401.789,-1758.25"/>
</g>
<!-- p13&#45;&gt;p14 -->
<g id="edge16" class="edge"><title>p13&#45;&gt;p14</title>
<path fill="none" stroke="black" d="M370.101,-1785.91C360.162,-1775.62 347.883,-1762.9 339.678,-1754.4"/>
<polygon fill="black" stroke="black" points="341.951,-1751.72 332.487,-1746.95 336.915,-1756.58 341.951,-1751.72"/>
</g>
<!-- p11 -->
<g id="node15" class="node"><title>p11</title>
<ellipse fill="black" stroke="black" cx="386.6" cy="-1878" rx="3.6" ry="3.6"/>
</g>
<!-- p11&#45;&gt;p13 -->
<g id="edge13" class="edge"><title>p11&#45;&gt;p13</title>
<path fill="none" stroke="black" d="M386.6,-1874.27C386.6,-1867.35 386.6,-1848.58 386.6,-1832.32"/>
<polygon fill="black" stroke="black" points="390.1,-1832.14 386.6,-1822.14 383.1,-1832.14 390.1,-1832.14"/>
<text text-anchor="middle" x="411.6" y="-1844.3" font-family="Times,serif" font-size="14.00">reference</text>
</g>
<!-- p12 -->
<g id="node16" class="node"><title>p12</title>
<ellipse fill="black" stroke="black" cx="459.6" cy="-1878" rx="3.6" ry="3.6"/>
</g>
<!-- p12&#45;&gt;p13 -->
<g id="edge14" class="edge"><title>p12&#45;&gt;p13</title>
<path fill="none" stroke="black" d="M458.536,-1874.42C455.805,-1868.01 448.024,-1851.12 437.6,-1840 433.555,-1835.68 428.889,-1831.6 424.056,-1827.86"/>
<polygon fill="black" stroke="black" points="425.993,-1824.94 415.847,-1821.89 421.876,-1830.6 425.993,-1824.94"/>
<text text-anchor="middle" x="464.6" y="-1844.3" font-family="Times,serif" font-size="14.00">bams</text>
</g>
<!-- p20 -->
<g id="node19" class="node"><title>p20</title>
<ellipse fill="none" stroke="black" cx="569.6" cy="-1684" rx="3.25" ry="3.5"/>
<text text-anchor="middle" x="542.1" y="-1691.3" font-family="Times,serif" font-size="14.00">combine</text>
</g>
<!-- p15&#45;&gt;p20 -->
<g id="edge18" class="edge"><title>p15&#45;&gt;p20</title>
<path fill="none" stroke="black" d="M404.273,-1741.89C415.586,-1737.23 460.694,-1718.81 498.6,-1706 518.755,-1699.19 542.527,-1692.41 556.814,-1688.46"/>
<polygon fill="black" stroke="black" points="557.869,-1691.8 566.598,-1685.8 556.03,-1685.05 557.869,-1691.8"/>
<text text-anchor="middle" x="536.1" y="-1710.3" font-family="Times,serif" font-size="14.00">each_sn_bam</text>
</g>
<!-- p66 -->
<g id="node67" class="node"><title>p66</title>
<ellipse fill="none" stroke="black" cx="399.6" cy="-134" rx="3.25" ry="3.5"/>
<text text-anchor="middle" x="377.6" y="-141.3" font-family="Times,serif" font-size="14.00">collect</text>
</g>
<!-- p65&#45;&gt;p66 -->
<g id="edge77" class="edge"><title>p65&#45;&gt;p66</title>
<path fill="none" stroke="black" d="M399.6,-190.203C399.6,-182.649 399.6,-161.48 399.6,-147.66"/>
<polygon fill="black" stroke="black" points="403.1,-147.636 399.6,-137.636 396.1,-147.636 403.1,-147.636"/>
<text text-anchor="middle" x="429.1" y="-160.3" font-family="Times,serif" font-size="14.00">version_ch</text>
</g>
<!-- p22 -->
<g id="node23" class="node"><title>p22</title>
<ellipse fill="none" stroke="black" cx="569.6" cy="-1624" rx="3.25" ry="3.5"/>
<text text-anchor="middle" x="553.6" y="-1631.3" font-family="Times,serif" font-size="14.00">map</text>
</g>
<!-- p20&#45;&gt;p22 -->
<g id="edge23" class="edge"><title>p20&#45;&gt;p22</title>
<path fill="none" stroke="black" d="M569.6,-1680.2C569.6,-1672.65 569.6,-1651.48 569.6,-1637.66"/>
<polygon fill="black" stroke="black" points="573.1,-1637.64 569.6,-1627.64 566.1,-1637.64 573.1,-1637.64"/>
<text text-anchor="middle" x="628.6" y="-1650.3" font-family="Times,serif" font-size="14.00">sample_bam_interval</text>
</g>
<!-- p19 -->
<g id="node21" class="node"><title>p19</title>
<ellipse fill="none" stroke="black" cx="588.6" cy="-1744" rx="3.25" ry="3.5"/>
<text text-anchor="middle" x="574.1" y="-1751.3" font-family="Times,serif" font-size="14.00">mix</text>
</g>
<!-- p17&#45;&gt;p19 -->
<g id="edge20" class="edge"><title>p17&#45;&gt;p19</title>
<path fill="none" stroke="black" d="M612.691,-1800.26C610.607,-1794.07 605.228,-1778.53 599.6,-1766 598.194,-1762.87 596.537,-1759.55 594.942,-1756.5"/>
<polygon fill="black" stroke="black" points="597.846,-1754.51 589.985,-1747.41 591.7,-1757.86 597.846,-1754.51"/>
</g>
<!-- p19&#45;&gt;p20 -->
<g id="edge22" class="edge"><title>p19&#45;&gt;p20</title>
<path fill="none" stroke="black" d="M587.784,-1740.51C585.366,-1733.13 578.129,-1711.04 573.547,-1697.05"/>
<polygon fill="black" stroke="black" points="576.831,-1695.83 570.392,-1687.42 570.179,-1698.01 576.831,-1695.83"/>
<text text-anchor="middle" x="614.6" y="-1710.3" font-family="Times,serif" font-size="14.00">intervals_ch</text>
</g>
<!-- p18 -->
<g id="node22" class="node"><title>p18</title>
<ellipse fill="black" stroke="black" cx="588.6" cy="-1804" rx="3.6" ry="3.6"/>
<text text-anchor="middle" x="615.5" y="-1789.2" font-family="Times,serif" font-size="14.00">Channel.of</text>
</g>
<!-- p18&#45;&gt;p19 -->
<g id="edge21" class="edge"><title>p18&#45;&gt;p19</title>
<path fill="none" stroke="black" d="M588.6,-1800.2C588.6,-1792.65 588.6,-1771.48 588.6,-1757.66"/>
<polygon fill="black" stroke="black" points="592.1,-1757.64 588.6,-1747.64 585.1,-1757.64 592.1,-1757.64"/>
</g>
<!-- p24 -->
<g id="node26" class="node"><title>p24</title>
<ellipse fill="none" stroke="black" cx="636.6" cy="-1550" rx="228.17" ry="18"/>
<text text-anchor="middle" x="636.6" y="-1546.3" font-family="Times,serif" font-size="14.00">REMAP_BWA_01:REMAP_ONE:SAMTOOLS_FASTQ_01</text>
</g>
<!-- p22&#45;&gt;p24 -->
<g id="edge25" class="edge"><title>p22&#45;&gt;p24</title>
<path fill="none" stroke="black" d="M570.448,-1620.43C572.645,-1614.04 579.025,-1597.19 588.6,-1586 592.203,-1581.79 596.409,-1577.8 600.806,-1574.13"/>
<polygon fill="black" stroke="black" points="603.091,-1576.79 608.838,-1567.89 598.795,-1571.26 603.091,-1576.79"/>
<text text-anchor="middle" x="611.1" y="-1590.3" font-family="Times,serif" font-size="14.00">rows_ch</text>
</g>
<!-- p21 -->
<g id="node24" class="node"><title>p21</title>
<ellipse fill="black" stroke="black" cx="384.6" cy="-1550" rx="3.6" ry="3.6"/>
<text text-anchor="middle" x="339" y="-1557.4" font-family="Times,serif" font-size="14.00">Channel.empty</text>
</g>
<!-- p25 -->
<g id="node25" class="node"><title>p25</title>
<ellipse fill="none" stroke="black" cx="384.6" cy="-1476" rx="3.25" ry="3.5"/>
<text text-anchor="middle" x="370.1" y="-1483.3" font-family="Times,serif" font-size="14.00">mix</text>
</g>
<!-- p21&#45;&gt;p25 -->
<g id="edge24" class="edge"><title>p21&#45;&gt;p25</title>
<path fill="none" stroke="black" d="M384.6,-1546.27C384.6,-1537.13 384.6,-1507.28 384.6,-1489.89"/>
<polygon fill="black" stroke="black" points="388.1,-1489.74 384.6,-1479.74 381.1,-1489.74 388.1,-1489.74"/>
<text text-anchor="middle" x="414.1" y="-1502.3" font-family="Times,serif" font-size="14.00">version_ch</text>
</g>
<!-- p31 -->
<g id="node29" class="node"><title>p31</title>
<ellipse fill="none" stroke="black" cx="449.6" cy="-1214" rx="3.25" ry="3.5"/>
<text text-anchor="middle" x="435.1" y="-1221.3" font-family="Times,serif" font-size="14.00">mix</text>
</g>
<!-- p25&#45;&gt;p31 -->
<g id="edge29" class="edge"><title>p25&#45;&gt;p31</title>
<path fill="none" stroke="black" d="M384.208,-1472.16C383.029,-1463.39 379.6,-1435.89 379.6,-1413 379.6,-1413 379.6,-1413 379.6,-1273 379.6,-1243.59 416.702,-1226.26 436.883,-1219.01"/>
<polygon fill="black" stroke="black" points="438.175,-1222.27 446.592,-1215.84 436,-1215.62 438.175,-1222.27"/>
<text text-anchor="middle" x="409.1" y="-1348.3" font-family="Times,serif" font-size="14.00">version_ch</text>
</g>
<!-- p26 -->
<g id="node28" class="node"><title>p26</title>
<ellipse fill="none" stroke="black" cx="835.6" cy="-1476" rx="3.25" ry="3.5"/>
<text text-anchor="middle" x="809.6" y="-1483.3" font-family="Times,serif" font-size="14.00">splitCsv</text>
</g>
<!-- p24&#45;&gt;p26 -->
<g id="edge27" class="edge"><title>p24&#45;&gt;p26</title>
<path fill="none" stroke="black" d="M682.755,-1532.3C728.556,-1515.73 795.768,-1491.41 823.226,-1481.48"/>
<polygon fill="black" stroke="black" points="824.612,-1484.7 832.825,-1478 822.231,-1478.12 824.612,-1484.7"/>
</g>
<!-- p24&#45;&gt;p25 -->
<g id="edge28" class="edge"><title>p24&#45;&gt;p25</title>
<path fill="none" stroke="black" d="M579.102,-1532.57C519.598,-1515.57 430.81,-1490.2 397.682,-1480.74"/>
<polygon fill="black" stroke="black" points="398.208,-1477.25 387.631,-1477.87 396.284,-1483.98 398.208,-1477.25"/>
</g>
<!-- p23 -->
<g id="node27" class="node"><title>p23</title>
<ellipse fill="black" stroke="black" cx="637.6" cy="-1624" rx="3.6" ry="3.6"/>
</g>
<!-- p23&#45;&gt;p24 -->
<g id="edge26" class="edge"><title>p23&#45;&gt;p24</title>
<path fill="none" stroke="black" d="M637.562,-1620.27C637.466,-1613.35 637.205,-1594.58 636.979,-1578.32"/>
<polygon fill="black" stroke="black" points="640.477,-1578.09 636.838,-1568.14 633.477,-1578.19 640.477,-1578.09"/>
<text text-anchor="middle" x="651.6" y="-1590.3" font-family="Times,serif" font-size="14.00">meta</text>
</g>
<!-- p27 -->
<g id="node30" class="node"><title>p27</title>
<ellipse fill="none" stroke="black" cx="786.6" cy="-1412" rx="3.25" ry="3.5"/>
<text text-anchor="middle" x="761.6" y="-1419.3" font-family="Times,serif" font-size="14.00">flatMap</text>
</g>
<!-- p26&#45;&gt;p27 -->
<g id="edge30" class="edge"><title>p26&#45;&gt;p27</title>
<path fill="none" stroke="black" d="M832.893,-1473.89C826.839,-1471.3 812.075,-1464.24 803.6,-1454 796.653,-1445.61 792.194,-1433.98 789.594,-1425.25"/>
<polygon fill="black" stroke="black" points="792.963,-1424.3 787.091,-1415.48 786.182,-1426.04 792.963,-1424.3"/>
<text text-anchor="middle" x="829.1" y="-1442.3" font-family="Times,serif" font-size="14.00">map1_ch</text>
</g>
<!-- p32 -->
<g id="node36" class="node"><title>p32</title>
<ellipse fill="none" stroke="black" cx="885.6" cy="-1382" rx="3.25" ry="3.5"/>
<text text-anchor="middle" x="869.6" y="-1389.3" font-family="Times,serif" font-size="14.00">map</text>
</g>
<!-- p26&#45;&gt;p32 -->
<g id="edge37" class="edge"><title>p26&#45;&gt;p32</title>
<path fill="none" stroke="black" d="M837.608,-1473.21C841.351,-1469.78 849.478,-1461.93 854.6,-1454 866.906,-1434.95 876.449,-1410.2 881.531,-1395.51"/>
<polygon fill="black" stroke="black" points="884.992,-1396.19 884.805,-1385.6 878.345,-1394 884.992,-1396.19"/>
<text text-anchor="middle" x="889.1" y="-1442.3" font-family="Times,serif" font-size="14.00">map1_ch</text>
</g>
<!-- p41 -->
<g id="node47" class="node"><title>p41</title>
<ellipse fill="none" stroke="black" cx="976.6" cy="-1318" rx="3.25" ry="3.5"/>
<text text-anchor="middle" x="960.6" y="-1325.3" font-family="Times,serif" font-size="14.00">map</text>
</g>
<!-- p26&#45;&gt;p41 -->
<g id="edge50" class="edge"><title>p26&#45;&gt;p41</title>
<path fill="none" stroke="black" d="M838.914,-1475.14C851.094,-1475.47 893.951,-1475.03 918.6,-1454 956.954,-1421.27 970.658,-1358.6 974.912,-1331.74"/>
<polygon fill="black" stroke="black" points="978.395,-1332.1 976.308,-1321.72 971.462,-1331.14 978.395,-1332.1"/>
<text text-anchor="middle" x="979.1" y="-1408.3" font-family="Times,serif" font-size="14.00">map1_ch</text>
</g>
<!-- p40 -->
<g id="node35" class="node"><title>p40</title>
<ellipse fill="none" stroke="black" cx="462.6" cy="-952" rx="3.25" ry="3.5"/>
<text text-anchor="middle" x="448.1" y="-959.3" font-family="Times,serif" font-size="14.00">mix</text>
</g>
<!-- p31&#45;&gt;p40 -->
<g id="edge36" class="edge"><title>p31&#45;&gt;p40</title>
<path fill="none" stroke="black" d="M449.6,-1210.22C449.6,-1203.27 449.6,-1184.58 449.6,-1169 449.6,-1169 449.6,-1169 449.6,-1025 449.6,-1003.8 455.126,-979.638 458.972,-965.388"/>
<polygon fill="black" stroke="black" points="462.428,-966.036 461.826,-955.458 455.7,-964.102 462.428,-966.036"/>
<text text-anchor="middle" x="479.1" y="-1100.3" font-family="Times,serif" font-size="14.00">version_ch</text>
</g>
<!-- p28 -->
<g id="node31" class="node"><title>p28</title>
<ellipse fill="none" stroke="black" cx="673.6" cy="-1352" rx="3.25" ry="3.5"/>
<text text-anchor="middle" x="639.1" y="-1359.3" font-family="Times,serif" font-size="14.00">groupTuple</text>
</g>
<!-- p27&#45;&gt;p28 -->
<g id="edge31" class="edge"><title>p27&#45;&gt;p28</title>
<path fill="none" stroke="black" d="M783.807,-1409.57C770.249,-1402.61 710.92,-1372.16 685.371,-1359.04"/>
<polygon fill="black" stroke="black" points="686.79,-1355.84 676.296,-1354.38 683.594,-1362.06 686.79,-1355.84"/>
</g>
<!-- p30 -->
<g id="node32" class="node"><title>p30</title>
<ellipse fill="none" stroke="black" cx="645.6" cy="-1274" rx="237.319" ry="18"/>
<text text-anchor="middle" x="645.6" y="-1270.3" font-family="Times,serif" font-size="14.00">REMAP_BWA_01:REMAP_ONE:SORT_UNPAIRED_FASTQ</text>
</g>
<!-- p28&#45;&gt;p30 -->
<g id="edge32" class="edge"><title>p28&#45;&gt;p30</title>
<path fill="none" stroke="black" d="M671.04,-1349.61C665.368,-1346.36 651.83,-1337.66 646.6,-1326 643.36,-1318.78 642.261,-1310.38 642.202,-1302.51"/>
<polygon fill="black" stroke="black" points="645.71,-1302.42 642.663,-1292.27 638.717,-1302.1 645.71,-1302.42"/>
<text text-anchor="middle" x="675.6" y="-1314.3" font-family="Times,serif" font-size="14.00">umap1_ch</text>
</g>
<!-- p33 -->
<g id="node34" class="node"><title>p33</title>
<ellipse fill="none" stroke="black" cx="683.6" cy="-1214" rx="3.25" ry="3.5"/>
<text text-anchor="middle" x="667.1" y="-1221.3" font-family="Times,serif" font-size="14.00">filter</text>
</g>
<!-- p30&#45;&gt;p33 -->
<g id="edge34" class="edge"><title>p30&#45;&gt;p33</title>
<path fill="none" stroke="black" d="M656.796,-1255.91C663.199,-1246.14 671.034,-1234.18 676.576,-1225.72"/>
<polygon fill="black" stroke="black" points="679.534,-1227.59 682.087,-1217.31 673.679,-1223.76 679.534,-1227.59"/>
</g>
<!-- p30&#45;&gt;p31 -->
<g id="edge35" class="edge"><title>p30&#45;&gt;p31</title>
<path fill="none" stroke="black" d="M589.697,-1256.46C545.558,-1243.4 487.353,-1226.17 462.138,-1218.71"/>
<polygon fill="black" stroke="black" points="462.992,-1215.31 452.41,-1215.83 461.005,-1222.03 462.992,-1215.31"/>
</g>
<!-- p35 -->
<g id="node40" class="node"><title>p35</title>
<ellipse fill="none" stroke="black" cx="643.6" cy="-1214" rx="3.25" ry="3.5"/>
<text text-anchor="middle" x="627.1" y="-1221.3" font-family="Times,serif" font-size="14.00">filter</text>
</g>
<!-- p30&#45;&gt;p35 -->
<g id="edge41" class="edge"><title>p30&#45;&gt;p35</title>
<path fill="none" stroke="black" d="M645.011,-1255.91C644.702,-1246.96 644.331,-1236.19 644.046,-1227.94"/>
<polygon fill="black" stroke="black" points="647.535,-1227.56 643.693,-1217.69 640.54,-1227.81 647.535,-1227.56"/>
</g>
<!-- p29 -->
<g id="node33" class="node"><title>p29</title>
<ellipse fill="black" stroke="black" cx="726.6" cy="-1352" rx="3.6" ry="3.6"/>
</g>
<!-- p29&#45;&gt;p30 -->
<g id="edge33" class="edge"><title>p29&#45;&gt;p30</title>
<path fill="none" stroke="black" d="M725.657,-1348.09C723.201,-1340.87 716,-1321.9 704.6,-1310 700.221,-1305.43 695.116,-1301.25 689.776,-1297.49"/>
<polygon fill="black" stroke="black" points="691.551,-1294.47 681.262,-1291.94 687.729,-1300.33 691.551,-1294.47"/>
<text text-anchor="middle" x="729.6" y="-1314.3" font-family="Times,serif" font-size="14.00">meta</text>
</g>
<!-- p34 -->
<g id="node38" class="node"><title>p34</title>
<ellipse fill="none" stroke="black" cx="691.6" cy="-1168" rx="3.25" ry="3.5"/>
<text text-anchor="middle" x="675.6" y="-1175.3" font-family="Times,serif" font-size="14.00">map</text>
</g>
<!-- p33&#45;&gt;p34 -->
<g id="edge39" class="edge"><title>p33&#45;&gt;p34</title>
<path fill="none" stroke="black" d="M684.076,-1210.38C685.09,-1204.8 687.518,-1191.45 689.344,-1181.41"/>
<polygon fill="black" stroke="black" points="692.791,-1182.02 691.136,-1171.55 685.904,-1180.76 692.791,-1182.02"/>
</g>
<!-- p50 -->
<g id="node46" class="node"><title>p50</title>
<ellipse fill="none" stroke="black" cx="463.6" cy="-638" rx="3.25" ry="3.5"/>
<text text-anchor="middle" x="449.1" y="-645.3" font-family="Times,serif" font-size="14.00">mix</text>
</g>
<!-- p40&#45;&gt;p50 -->
<g id="edge49" class="edge"><title>p40&#45;&gt;p50</title>
<path fill="none" stroke="black" d="M462.6,-948.341C462.6,-940.114 462.6,-914.347 462.6,-893 462.6,-893 462.6,-893 462.6,-697 462.6,-681.488 462.962,-663.645 463.25,-651.892"/>
<polygon fill="black" stroke="black" points="466.755,-651.748 463.522,-641.659 459.758,-651.563 466.755,-651.748"/>
<text text-anchor="middle" x="492.1" y="-798.3" font-family="Times,serif" font-size="14.00">version_ch</text>
</g>
<!-- p45 -->
<g id="node37" class="node"><title>p45</title>
<ellipse fill="none" stroke="black" cx="911.6" cy="-832" rx="3.25" ry="3.5"/>
<text text-anchor="middle" x="897.1" y="-839.3" font-family="Times,serif" font-size="14.00">mix</text>
</g>
<!-- p32&#45;&gt;p45 -->
<g id="edge38" class="edge"><title>p32&#45;&gt;p45</title>
<path fill="none" stroke="black" d="M887.306,-1378.78C893.09,-1371.02 911.6,-1344.21 911.6,-1319 911.6,-1319 911.6,-1319 911.6,-891 911.6,-875.49 911.6,-857.647 911.6,-845.893"/>
<polygon fill="black" stroke="black" points="915.1,-845.659 911.6,-835.659 908.1,-845.659 915.1,-845.659"/>
<text text-anchor="middle" x="937.6" y="-1134.3" font-family="Times,serif" font-size="14.00">single_ch</text>
</g>
<!-- p46 -->
<g id="node49" class="node"><title>p46</title>
<ellipse fill="none" stroke="black" cx="711.6" cy="-772" rx="3.25" ry="3.5"/>
<text text-anchor="middle" x="697.1" y="-779.3" font-family="Times,serif" font-size="14.00">mix</text>
</g>
<!-- p45&#45;&gt;p46 -->
<g id="edge55" class="edge"><title>p45&#45;&gt;p46</title>
<path fill="none" stroke="black" d="M908.773,-830.18C888.508,-824.303 765.001,-788.486 724.471,-776.733"/>
<polygon fill="black" stroke="black" points="725.191,-773.297 714.612,-773.873 723.241,-780.02 725.191,-773.297"/>
</g>
<!-- p37 -->
<g id="node39" class="node"><title>p37</title>
<ellipse fill="none" stroke="black" cx="702.6" cy="-1104" rx="3.25" ry="3.5"/>
<text text-anchor="middle" x="688.1" y="-1111.3" font-family="Times,serif" font-size="14.00">join</text>
</g>
<!-- p34&#45;&gt;p37 -->
<g id="edge40" class="edge"><title>p34&#45;&gt;p37</title>
<path fill="none" stroke="black" d="M693.261,-1164.96C696.052,-1161.38 701.574,-1153.63 703.6,-1146 706.047,-1136.79 705.661,-1126 704.736,-1117.8"/>
<polygon fill="black" stroke="black" points="708.154,-1117 703.168,-1107.65 701.236,-1118.07 708.154,-1117"/>
<text text-anchor="middle" x="748.1" y="-1134.3" font-family="Times,serif" font-size="14.00">unmap3_R1_ch</text>
</g>
<!-- p39 -->
<g id="node42" class="node"><title>p39</title>
<ellipse fill="none" stroke="black" cx="680.6" cy="-1026" rx="203.148" ry="18"/>
<text text-anchor="middle" x="680.6" y="-1022.3" font-family="Times,serif" font-size="14.00">REMAP_BWA_01:REMAP_ONE:JOIN_UNPAIRED</text>
</g>
<!-- p37&#45;&gt;p39 -->
<g id="edge44" class="edge"><title>p37&#45;&gt;p39</title>
<path fill="none" stroke="black" d="M701.868,-1100.47C699.764,-1093.2 693.519,-1071.63 688.336,-1053.73"/>
<polygon fill="black" stroke="black" points="691.666,-1052.64 685.524,-1044.01 684.942,-1054.59 691.666,-1052.64"/>
</g>
<!-- p36 -->
<g id="node41" class="node"><title>p36</title>
<ellipse fill="none" stroke="black" cx="631.6" cy="-1168" rx="3.25" ry="3.5"/>
<text text-anchor="middle" x="615.6" y="-1175.3" font-family="Times,serif" font-size="14.00">map</text>
</g>
<!-- p35&#45;&gt;p36 -->
<g id="edge42" class="edge"><title>p35&#45;&gt;p36</title>
<path fill="none" stroke="black" d="M642.885,-1210.38C641.364,-1204.8 637.723,-1191.45 634.984,-1181.41"/>
<polygon fill="black" stroke="black" points="638.304,-1180.28 632.296,-1171.55 631.551,-1182.12 638.304,-1180.28"/>
</g>
<!-- p36&#45;&gt;p37 -->
<g id="edge43" class="edge"><title>p36&#45;&gt;p37</title>
<path fill="none" stroke="black" d="M629.288,-1165.18C622.446,-1159.56 603.336,-1142.19 612.6,-1130 614.982,-1126.87 665.519,-1114.11 689.798,-1108.12"/>
<polygon fill="black" stroke="black" points="690.824,-1111.48 699.706,-1105.7 689.161,-1104.68 690.824,-1111.48"/>
<text text-anchor="middle" x="656.1" y="-1134.3" font-family="Times,serif" font-size="14.00">unmap3_R2_ch</text>
</g>
<!-- p42 -->
<g id="node44" class="node"><title>p42</title>
<ellipse fill="none" stroke="black" cx="746.6" cy="-952" rx="3.25" ry="3.5"/>
<text text-anchor="middle" x="730.6" y="-959.3" font-family="Times,serif" font-size="14.00">map</text>
</g>
<!-- p39&#45;&gt;p42 -->
<g id="edge46" class="edge"><title>p39&#45;&gt;p42</title>
<path fill="none" stroke="black" d="M696.241,-1007.94C709.106,-993.902 726.892,-974.499 737.522,-962.904"/>
<polygon fill="black" stroke="black" points="740.325,-965.025 744.502,-955.289 735.165,-960.295 740.325,-965.025"/>
</g>
<!-- p43 -->
<g id="node45" class="node"><title>p43</title>
<ellipse fill="none" stroke="black" cx="693.6" cy="-922" rx="3.25" ry="3.5"/>
<text text-anchor="middle" x="677.6" y="-929.3" font-family="Times,serif" font-size="14.00">map</text>
</g>
<!-- p39&#45;&gt;p43 -->
<g id="edge47" class="edge"><title>p39&#45;&gt;p43</title>
<path fill="none" stroke="black" d="M682.805,-1007.7C685.406,-987.291 689.667,-953.858 691.981,-935.701"/>
<polygon fill="black" stroke="black" points="695.457,-936.112 693.25,-925.75 688.513,-935.227 695.457,-936.112"/>
</g>
<!-- p39&#45;&gt;p40 -->
<g id="edge48" class="edge"><title>p39&#45;&gt;p40</title>
<path fill="none" stroke="black" d="M630.586,-1008.48C579.99,-991.771 505.128,-967.046 475.421,-957.235"/>
<polygon fill="black" stroke="black" points="476.25,-953.822 465.657,-954.01 474.055,-960.469 476.25,-953.822"/>
</g>
<!-- p38 -->
<g id="node43" class="node"><title>p38</title>
<ellipse fill="black" stroke="black" cx="659.6" cy="-1104" rx="3.6" ry="3.6"/>
</g>
<!-- p38&#45;&gt;p39 -->
<g id="edge45" class="edge"><title>p38&#45;&gt;p39</title>
<path fill="none" stroke="black" d="M659.224,-1100.34C658.381,-1093.72 656.701,-1075.99 660.6,-1062 661.437,-1059 662.589,-1055.98 663.92,-1053.04"/>
<polygon fill="black" stroke="black" points="667.088,-1054.54 668.62,-1044.05 660.885,-1051.29 667.088,-1054.54"/>
<text text-anchor="middle" x="674.6" y="-1066.3" font-family="Times,serif" font-size="14.00">meta</text>
</g>
<!-- p44 -->
<g id="node48" class="node"><title>p44</title>
<ellipse fill="none" stroke="black" cx="943.6" cy="-892" rx="3.25" ry="3.5"/>
<text text-anchor="middle" x="929.1" y="-899.3" font-family="Times,serif" font-size="14.00">mix</text>
</g>
<!-- p42&#45;&gt;p44 -->
<g id="edge52" class="edge"><title>p42&#45;&gt;p44</title>
<path fill="none" stroke="black" d="M749.385,-950.18C769.346,-944.303 891,-908.486 930.922,-896.733"/>
<polygon fill="black" stroke="black" points="932.029,-900.055 940.633,-893.873 930.052,-893.34 932.029,-900.055"/>
<text text-anchor="middle" x="893.1" y="-918.3" font-family="Times,serif" font-size="14.00">bam2_ch</text>
</g>
<!-- p43&#45;&gt;p46 -->
<g id="edge53" class="edge"><title>p43&#45;&gt;p46</title>
<path fill="none" stroke="black" d="M693.912,-918.431C695.833,-902.643 706.083,-818.359 710.04,-785.825"/>
<polygon fill="black" stroke="black" points="713.546,-785.989 711.279,-775.64 706.597,-785.144 713.546,-785.989"/>
<text text-anchor="middle" x="731.1" y="-858.3" font-family="Times,serif" font-size="14.00">single2_ch</text>
</g>
<!-- p55 -->
<g id="node54" class="node"><title>p55</title>
<ellipse fill="none" stroke="black" cx="545.6" cy="-476" rx="3.25" ry="3.5"/>
<text text-anchor="middle" x="531.1" y="-483.3" font-family="Times,serif" font-size="14.00">mix</text>
</g>
<!-- p50&#45;&gt;p55 -->
<g id="edge61" class="edge"><title>p50&#45;&gt;p55</title>
<path fill="none" stroke="black" d="M463.213,-634.285C461.709,-622.838 457.078,-577.642 472.6,-546 486.587,-517.488 517.615,-494.624 534.362,-483.801"/>
<polygon fill="black" stroke="black" points="536.304,-486.715 542.981,-478.489 532.632,-480.756 536.304,-486.715"/>
<text text-anchor="middle" x="502.1" y="-560.3" font-family="Times,serif" font-size="14.00">version_ch</text>
</g>
<!-- p41&#45;&gt;p44 -->
<g id="edge51" class="edge"><title>p41&#45;&gt;p44</title>
<path fill="none" stroke="black" d="M977.196,-1314.29C979.348,-1304.23 986.6,-1268.14 986.6,-1238 986.6,-1238 986.6,-1238 986.6,-951 986.6,-929.24 966.828,-910.321 954.098,-900.396"/>
<polygon fill="black" stroke="black" points="956.068,-897.501 945.912,-894.482 951.968,-903.175 956.068,-897.501"/>
<text text-anchor="middle" x="1008.1" y="-1134.3" font-family="Times,serif" font-size="14.00">r1r2_ch</text>
</g>
<!-- p44&#45;&gt;p45 -->
<g id="edge54" class="edge"><title>p44&#45;&gt;p45</title>
<path fill="none" stroke="black" d="M942.571,-888.605C939.974,-882.632 932.846,-866.644 925.6,-854 923.616,-850.538 921.272,-846.882 919.075,-843.608"/>
<polygon fill="black" stroke="black" points="921.764,-841.344 913.172,-835.145 916.023,-845.349 921.764,-841.344"/>
</g>
<!-- p48 -->
<g id="node50" class="node"><title>p48</title>
<ellipse fill="none" stroke="black" cx="686.6" cy="-698" rx="195.449" ry="18"/>
<text text-anchor="middle" x="686.6" y="-694.3" font-family="Times,serif" font-size="14.00">REMAP_BWA_01:REMAP_ONE:BWA_MEM_01</text>
</g>
<!-- p46&#45;&gt;p48 -->
<g id="edge56" class="edge"><title>p46&#45;&gt;p48</title>
<path fill="none" stroke="black" d="M710.768,-768.604C708.453,-761.936 701.724,-742.557 695.952,-725.935"/>
<polygon fill="black" stroke="black" points="699.117,-724.379 692.531,-716.08 692.504,-726.675 699.117,-724.379"/>
</g>
<!-- p51 -->
<g id="node52" class="node"><title>p51</title>
<ellipse fill="none" stroke="black" cx="752.6" cy="-638" rx="3.25" ry="3.5"/>
<text text-anchor="middle" x="718.1" y="-645.3" font-family="Times,serif" font-size="14.00">groupTuple</text>
</g>
<!-- p48&#45;&gt;p51 -->
<g id="edge58" class="edge"><title>p48&#45;&gt;p51</title>
<path fill="none" stroke="black" d="M706.045,-679.912C718.137,-669.286 733.167,-656.077 742.822,-647.593"/>
<polygon fill="black" stroke="black" points="745.174,-650.185 750.376,-640.955 740.554,-644.927 745.174,-650.185"/>
</g>
<!-- p49 -->
<g id="node53" class="node"><title>p49</title>
<ellipse fill="black" stroke="black" cx="684.6" cy="-638" rx="1.8" ry="1.8"/>
</g>
<!-- p48&#45;&gt;p49 -->
<g id="edge59" class="edge"><title>p48&#45;&gt;p49</title>
<path fill="none" stroke="black" d="M686.011,-679.912C685.68,-670.322 685.277,-658.628 684.986,-650.202"/>
<polygon fill="black" stroke="black" points="688.479,-649.93 684.636,-640.056 681.483,-650.171 688.479,-649.93"/>
</g>
<!-- p48&#45;&gt;p50 -->
<g id="edge60" class="edge"><title>p48&#45;&gt;p50</title>
<path fill="none" stroke="black" d="M624.778,-680.921C573.578,-667.604 504.81,-649.718 476.55,-642.368"/>
<polygon fill="black" stroke="black" points="477.412,-638.976 466.853,-639.846 475.65,-645.751 477.412,-638.976"/>
</g>
<!-- p47 -->
<g id="node51" class="node"><title>p47</title>
<ellipse fill="black" stroke="black" cx="668.6" cy="-772" rx="3.6" ry="3.6"/>
</g>
<!-- p47&#45;&gt;p48 -->
<g id="edge57" class="edge"><title>p47&#45;&gt;p48</title>
<path fill="none" stroke="black" d="M668.285,-768.255C667.655,-762.045 666.55,-746.485 669.6,-734 670.291,-731.17 671.232,-728.3 672.319,-725.484"/>
<polygon fill="black" stroke="black" points="675.558,-726.814 676.424,-716.255 669.162,-723.969 675.558,-726.814"/>
<text text-anchor="middle" x="683.6" y="-738.3" font-family="Times,serif" font-size="14.00">meta</text>
</g>
<!-- p54 -->
<g id="node55" class="node"><title>p54</title>
<ellipse fill="none" stroke="black" cx="772.6" cy="-564" rx="232.044" ry="18"/>
<text text-anchor="middle" x="772.6" y="-560.3" font-family="Times,serif" font-size="14.00">REMAP_BWA_01:REMAP_ONE:SAMTOOLS_MERGE_01</text>
</g>
<!-- p51&#45;&gt;p54 -->
<g id="edge62" class="edge"><title>p51&#45;&gt;p54</title>
<path fill="none" stroke="black" d="M753.31,-634.545C754.442,-630.628 756.718,-622.718 758.6,-616 760.804,-608.131 763.168,-599.569 765.314,-591.748"/>
<polygon fill="black" stroke="black" points="768.714,-592.581 767.977,-582.012 761.962,-590.734 768.714,-592.581"/>
</g>
<!-- p59 -->
<g id="node59" class="node"><title>p59</title>
<ellipse fill="none" stroke="black" cx="612.6" cy="-402" rx="3.25" ry="3.5"/>
<text text-anchor="middle" x="598.1" y="-409.3" font-family="Times,serif" font-size="14.00">mix</text>
</g>
<!-- p55&#45;&gt;p59 -->
<g id="edge67" class="edge"><title>p55&#45;&gt;p59</title>
<path fill="none" stroke="black" d="M547.183,-472.482C549.368,-469.074 553.504,-462.863 557.6,-458 572.281,-440.572 591.505,-422.222 602.905,-411.738"/>
<polygon fill="black" stroke="black" points="605.308,-414.283 610.368,-404.975 600.607,-409.096 605.308,-414.283"/>
<text text-anchor="middle" x="619.1" y="-428.3" font-family="Times,serif" font-size="14.00">version_ch</text>
</g>
<!-- p57 -->
<g id="node58" class="node"><title>p57</title>
<ellipse fill="none" stroke="black" cx="815.6" cy="-476" rx="248.392" ry="18"/>
<text text-anchor="middle" x="815.6" y="-472.3" font-family="Times,serif" font-size="14.00">REMAP_BWA_01:REMAP_ONE:SAMBAMBA_MARKDUP_01</text>
</g>
<!-- p54&#45;&gt;p57 -->
<g id="edge65" class="edge"><title>p54&#45;&gt;p57</title>
<path fill="none" stroke="black" d="M781.095,-546.009C787.181,-533.839 795.492,-517.215 802.433,-503.334"/>
<polygon fill="black" stroke="black" points="805.633,-504.759 806.975,-494.25 799.372,-501.629 805.633,-504.759"/>
</g>
<!-- p54&#45;&gt;p55 -->
<g id="edge66" class="edge"><title>p54&#45;&gt;p55</title>
<path fill="none" stroke="black" d="M681.317,-547.41C640.606,-537.17 593.78,-520.565 557.6,-494 555.423,-492.402 553.495,-490.287 551.855,-488.095"/>
<polygon fill="black" stroke="black" points="554.767,-486.144 546.642,-479.344 548.753,-489.727 554.767,-486.144"/>
</g>
<!-- p52 -->
<g id="node56" class="node"><title>p52</title>
<ellipse fill="black" stroke="black" cx="805.6" cy="-638" rx="3.6" ry="3.6"/>
</g>
<!-- p52&#45;&gt;p54 -->
<g id="edge63" class="edge"><title>p52&#45;&gt;p54</title>
<path fill="none" stroke="black" d="M804.347,-634.265C801.119,-627.222 792.244,-607.859 784.695,-591.39"/>
<polygon fill="black" stroke="black" points="787.805,-589.775 780.457,-582.143 781.442,-592.692 787.805,-589.775"/>
<text text-anchor="middle" x="809.6" y="-604.3" font-family="Times,serif" font-size="14.00">meta</text>
</g>
<!-- p53 -->
<g id="node57" class="node"><title>p53</title>
<ellipse fill="black" stroke="black" cx="707.6" cy="-638" rx="3.6" ry="3.6"/>
</g>
<!-- p53&#45;&gt;p54 -->
<g id="edge64" class="edge"><title>p53&#45;&gt;p54</title>
<path fill="none" stroke="black" d="M706.432,-634.43C703.724,-628.055 697.754,-611.224 704.6,-600 707.495,-595.253 711.263,-591.123 715.54,-587.535"/>
<polygon fill="black" stroke="black" points="717.645,-590.331 723.71,-581.644 713.552,-584.653 717.645,-590.331"/>
<text text-anchor="middle" x="729.6" y="-604.3" font-family="Times,serif" font-size="14.00">reference</text>
</g>
<!-- p58 -->
<g id="node61" class="node"><title>p58</title>
<ellipse fill="black" stroke="black" cx="815.6" cy="-402" rx="1.8" ry="1.8"/>
</g>
<!-- p57&#45;&gt;p58 -->
<g id="edge69" class="edge"><title>p57&#45;&gt;p58</title>
<path fill="none" stroke="black" d="M815.6,-457.937C815.6,-444.37 815.6,-425.787 815.6,-414.089"/>
<polygon fill="black" stroke="black" points="819.1,-413.849 815.6,-403.849 812.1,-413.849 819.1,-413.849"/>
<text text-anchor="middle" x="830.6" y="-428.3" font-family="Times,serif" font-size="14.00">bams</text>
</g>
<!-- p57&#45;&gt;p59 -->
<g id="edge70" class="edge"><title>p57&#45;&gt;p59</title>
<path fill="none" stroke="black" d="M768.517,-458.301C721.795,-441.729 653.232,-417.411 625.222,-407.477"/>
<polygon fill="black" stroke="black" points="626.026,-404.048 615.431,-404.004 623.686,-410.646 626.026,-404.048"/>
</g>
<!-- p60 -->
<g id="node62" class="node"><title>p60</title>
<ellipse fill="none" stroke="black" cx="612.6" cy="-342" rx="3.25" ry="3.5"/>
<text text-anchor="middle" x="590.6" y="-349.3" font-family="Times,serif" font-size="14.00">collect</text>
</g>
<!-- p59&#45;&gt;p60 -->
<g id="edge71" class="edge"><title>p59&#45;&gt;p60</title>
<path fill="none" stroke="black" d="M612.6,-398.203C612.6,-390.649 612.6,-369.48 612.6,-355.66"/>
<polygon fill="black" stroke="black" points="616.1,-355.636 612.6,-345.636 609.1,-355.636 616.1,-355.636"/>
<text text-anchor="middle" x="642.1" y="-368.3" font-family="Times,serif" font-size="14.00">version_ch</text>
</g>
<!-- p56 -->
<g id="node60" class="node"><title>p56</title>
<ellipse fill="black" stroke="black" cx="1026.6" cy="-564" rx="3.6" ry="3.6"/>
</g>
<!-- p56&#45;&gt;p57 -->
<g id="edge68" class="edge"><title>p56&#45;&gt;p57</title>
<path fill="none" stroke="black" d="M1025.14,-560.181C1023.06,-556.432 1018.9,-549.835 1013.6,-546 981.392,-522.682 940.622,-506.701 904.46,-496.041"/>
<polygon fill="black" stroke="black" points="904.97,-492.547 894.393,-493.174 903.052,-499.279 904.97,-492.547"/>
<text text-anchor="middle" x="992.6" y="-516.3" font-family="Times,serif" font-size="14.00">meta</text>
</g>
<!-- p64 -->
<g id="node63" class="node"><title>p64</title>
<ellipse fill="none" stroke="black" cx="574.6" cy="-268" rx="215.172" ry="18"/>
<text text-anchor="middle" x="574.6" y="-264.3" font-family="Times,serif" font-size="14.00">REMAP_BWA_01:REMAP_ONE:MERGE_VERSIONB</text>
</g>
<!-- p60&#45;&gt;p64 -->
<g id="edge72" class="edge"><title>p60&#45;&gt;p64</title>
<path fill="none" stroke="black" d="M611.905,-338.578C610.126,-332.54 605.087,-316.418 598.6,-304 596.982,-300.902 595.139,-297.751 593.211,-294.672"/>
<polygon fill="black" stroke="black" points="596.102,-292.699 587.665,-286.291 590.265,-296.562 596.102,-292.699"/>
</g>
<!-- p64&#45;&gt;p65 -->
<g id="edge76" class="edge"><title>p64&#45;&gt;p65</title>
<path fill="none" stroke="black" d="M534.012,-250.301C494.444,-234.021 436.706,-210.266 411.791,-200.016"/>
<polygon fill="black" stroke="black" points="412.999,-196.728 402.42,-196.16 410.336,-203.202 412.999,-196.728"/>
<text text-anchor="middle" x="507.6" y="-220.3" font-family="Times,serif" font-size="14.00">version</text>
</g>
<!-- p61 -->
<g id="node64" class="node"><title>p61</title>
<ellipse fill="black" stroke="black" cx="645.6" cy="-342" rx="3.6" ry="3.6"/>
</g>
<!-- p61&#45;&gt;p64 -->
<g id="edge73" class="edge"><title>p61&#45;&gt;p64</title>
<path fill="none" stroke="black" d="M643.932,-338.519C639.726,-332.349 628.195,-315.948 616.6,-304 612.894,-300.181 608.797,-296.357 604.658,-292.712"/>
<polygon fill="black" stroke="black" points="606.622,-289.788 596.738,-285.973 602.086,-295.119 606.622,-289.788"/>
<text text-anchor="middle" x="644.6" y="-308.3" font-family="Times,serif" font-size="14.00">meta</text>
</g>
<!-- p62 -->
<g id="node65" class="node"><title>p62</title>
<ellipse fill="black" stroke="black" cx="482.6" cy="-342" rx="3.6" ry="3.6"/>
</g>
<!-- p62&#45;&gt;p64 -->
<g id="edge74" class="edge"><title>p62&#45;&gt;p64</title>
<path fill="none" stroke="black" d="M482.909,-338.303C483.808,-331.639 486.995,-314.2 496.6,-304 501.386,-298.918 507.045,-294.522 513.097,-290.731"/>
<polygon fill="black" stroke="black" points="515.198,-293.565 522.187,-285.602 511.757,-287.468 515.198,-293.565"/>
<text text-anchor="middle" x="512.1" y="-308.3" font-family="Times,serif" font-size="14.00">name</text>
</g>
<!-- p63 -->
<g id="node66" class="node"><title>p63</title>
<ellipse fill="black" stroke="black" cx="536.6" cy="-342" rx="3.6" ry="3.6"/>
</g>
<!-- p63&#45;&gt;p64 -->
<g id="edge75" class="edge"><title>p63&#45;&gt;p64</title>
<path fill="none" stroke="black" d="M535.597,-338.518C533.268,-332.346 528.094,-315.939 533.6,-304 535.408,-300.08 537.895,-296.436 540.758,-293.097"/>
<polygon fill="black" stroke="black" points="543.387,-295.417 547.979,-285.869 538.435,-290.47 543.387,-295.417"/>
<text text-anchor="middle" x="564.1" y="-308.3" font-family="Times,serif" font-size="14.00">description</text>
</g>
<!-- p70 -->
<g id="node68" class="node"><title>p70</title>
<ellipse fill="none" stroke="black" cx="457.6" cy="-60" rx="159.329" ry="18"/>
<text text-anchor="middle" x="457.6" y="-56.3" font-family="Times,serif" font-size="14.00">REMAP_BWA_01:MERGE_VERSIONA</text>
</g>
<!-- p66&#45;&gt;p70 -->
<g id="edge78" class="edge"><title>p66&#45;&gt;p70</title>
<path fill="none" stroke="black" d="M401.32,-130.624C405.631,-124.694 417.29,-108.797 427.6,-96 430.255,-92.7049 433.093,-89.2778 435.925,-85.9139"/>
<polygon fill="black" stroke="black" points="438.615,-88.1536 442.434,-78.2711 433.286,-83.6149 438.615,-88.1536"/>
</g>
<!-- p71 -->
<g id="node72" class="node"><title>p71</title>
<ellipse fill="black" stroke="black" cx="457.6" cy="-2" rx="1.8" ry="1.8"/>
</g>
<!-- p70&#45;&gt;p71 -->
<g id="edge82" class="edge"><title>p70&#45;&gt;p71</title>
<path fill="none" stroke="black" d="M457.6,-41.8939C457.6,-32.8876 457.6,-22.0999 457.6,-14.1727"/>
<polygon fill="black" stroke="black" points="461.1,-13.9957 457.6,-3.99575 454.1,-13.9958 461.1,-13.9957"/>
</g>
<!-- p67 -->
<g id="node69" class="node"><title>p67</title>
<ellipse fill="black" stroke="black" cx="432.6" cy="-134" rx="3.6" ry="3.6"/>
</g>
<!-- p67&#45;&gt;p70 -->
<g id="edge79" class="edge"><title>p67&#45;&gt;p70</title>
<path fill="none" stroke="black" d="M432.153,-130.218C431.253,-123.931 429.63,-108.223 433.6,-96 434.624,-92.8467 436.03,-89.7205 437.651,-86.7093"/>
<polygon fill="black" stroke="black" points="440.691,-88.4495 442.997,-78.1087 434.745,-84.7542 440.691,-88.4495"/>
<text text-anchor="middle" x="447.6" y="-100.3" font-family="Times,serif" font-size="14.00">meta</text>
</g>
<!-- p68 -->
<g id="node70" class="node"><title>p68</title>
<ellipse fill="black" stroke="black" cx="483.6" cy="-134" rx="3.6" ry="3.6"/>
</g>
<!-- p68&#45;&gt;p70 -->
<g id="edge80" class="edge"><title>p68&#45;&gt;p70</title>
<path fill="none" stroke="black" d="M482.613,-130.265C480.093,-123.288 473.207,-104.219 467.297,-87.8523"/>
<polygon fill="black" stroke="black" points="470.479,-86.3597 463.79,-78.1429 463.895,-88.7372 470.479,-86.3597"/>
<text text-anchor="middle" x="492.1" y="-100.3" font-family="Times,serif" font-size="14.00">name</text>
</g>
<!-- p69 -->
<g id="node71" class="node"><title>p69</title>
<ellipse fill="black" stroke="black" cx="537.6" cy="-134" rx="3.6" ry="3.6"/>
</g>
<!-- p69&#45;&gt;p70 -->
<g id="edge81" class="edge"><title>p69&#45;&gt;p70</title>
<path fill="none" stroke="black" d="M536.245,-130.416C532.796,-124.009 523.135,-107.111 511.6,-96 507.006,-91.575 501.775,-87.3829 496.42,-83.5399"/>
<polygon fill="black" stroke="black" points="498.215,-80.5282 487.977,-77.8049 494.282,-86.3189 498.215,-80.5282"/>
<text text-anchor="middle" x="555.1" y="-100.3" font-family="Times,serif" font-size="14.00">description</text>
</g>
</g>
</svg>
