<?xml version="1.0" encoding="UTF-8" standalone="no"?>
<!DOCTYPE svg PUBLIC "-//W3C//DTD SVG 1.1//EN"
 "http://www.w3.org/Graphics/SVG/1.1/DTD/svg11.dtd">
<!-- Generated by graphviz version 2.30.1 (20201013.1554)
 -->
<!-- Title: 20230530nts299genmedvsgnomadhs38meworkflow Pages: 1 -->
<svg width="629pt" height="853pt"
 viewBox="0.00 0.00 629.00 852.60" xmlns="http://www.w3.org/2000/svg" xmlns:xlink="http://www.w3.org/1999/xlink">
<g id="graph0" class="graph" transform="scale(1 1) rotate(0) translate(4 848.6)">
<title>20230530nts299genmedvsgnomadhs38meworkflow</title>
<polygon fill="white" stroke="white" points="-4,5 -4,-848.6 626,-848.6 626,5 -4,5"/>
<!-- p0 -->
<g id="node1" class="node"><title>p0</title>
<ellipse fill="black" stroke="black" cx="144.6" cy="-826" rx="3.6" ry="3.6"/>
<text text-anchor="middle" x="91" y="-833.4" font-family="Times,serif" font-size="14.00">Channel.fromPath</text>
</g>
<!-- p2 -->
<g id="node2" class="node"><title>p2</title>
<ellipse fill="none" stroke="black" cx="144.6" cy="-766" rx="3.25" ry="3.5"/>
<text text-anchor="middle" x="118.6" y="-773.3" font-family="Times,serif" font-size="14.00">splitCsv</text>
</g>
<!-- p0&#45;&gt;p2 -->
<g id="edge1" class="edge"><title>p0&#45;&gt;p2</title>
<path fill="none" stroke="black" d="M144.6,-822.203C144.6,-814.649 144.6,-793.48 144.6,-779.66"/>
<polygon fill="black" stroke="black" points="148.1,-779.636 144.6,-769.636 141.1,-779.636 148.1,-779.636"/>
<text text-anchor="middle" x="154.6" y="-792.3" font-family="Times,serif" font-size="14.00">bed</text>
</g>
<!-- p3 -->
<g id="node5" class="node"><title>p3</title>
<ellipse fill="none" stroke="black" cx="144.6" cy="-720" rx="3.25" ry="3.5"/>
<text text-anchor="middle" x="128.6" y="-727.3" font-family="Times,serif" font-size="14.00">map</text>
</g>
<!-- p2&#45;&gt;p3 -->
<g id="edge3" class="edge"><title>p2&#45;&gt;p3</title>
<path fill="none" stroke="black" d="M144.6,-762.379C144.6,-756.864 144.6,-743.742 144.6,-733.742"/>
<polygon fill="black" stroke="black" points="148.1,-733.552 144.6,-723.552 141.1,-733.552 148.1,-733.552"/>
</g>
<!-- p1 -->
<g id="node3" class="node"><title>p1</title>
<ellipse fill="black" stroke="black" cx="87.6" cy="-600" rx="3.6" ry="3.6"/>
<text text-anchor="middle" x="42" y="-607.4" font-family="Times,serif" font-size="14.00">Channel.empty</text>
</g>
<!-- p11 -->
<g id="node4" class="node"><title>p11</title>
<ellipse fill="none" stroke="black" cx="87.6" cy="-526" rx="3.25" ry="3.5"/>
<text text-anchor="middle" x="73.1" y="-533.3" font-family="Times,serif" font-size="14.00">mix</text>
</g>
<!-- p1&#45;&gt;p11 -->
<g id="edge2" class="edge"><title>p1&#45;&gt;p11</title>
<path fill="none" stroke="black" d="M87.6,-596.265C87.6,-587.133 87.6,-557.282 87.6,-539.892"/>
<polygon fill="black" stroke="black" points="91.1001,-539.737 87.6,-529.737 84.1001,-539.737 91.1001,-539.737"/>
<text text-anchor="middle" x="117.1" y="-552.3" font-family="Times,serif" font-size="14.00">version_ch</text>
</g>
<!-- p16 -->
<g id="node15" class="node"><title>p16</title>
<ellipse fill="none" stroke="black" cx="312.6" cy="-378" rx="3.25" ry="3.5"/>
<text text-anchor="middle" x="298.1" y="-385.3" font-family="Times,serif" font-size="14.00">mix</text>
</g>
<!-- p11&#45;&gt;p16 -->
<g id="edge14" class="edge"><title>p11&#45;&gt;p16</title>
<path fill="none" stroke="black" d="M86.7928,-522.366C83.3263,-510.48 70.8803,-461.233 93.6,-434 120.513,-401.741 255.876,-384.945 299.224,-380.333"/>
<polygon fill="black" stroke="black" points="299.747,-383.798 309.341,-379.304 299.039,-376.834 299.747,-383.798"/>
<text text-anchor="middle" x="123.1" y="-448.3" font-family="Times,serif" font-size="14.00">version_ch</text>
</g>
<!-- p4 -->
<g id="node6" class="node"><title>p4</title>
<ellipse fill="none" stroke="black" cx="144.6" cy="-674" rx="3.25" ry="3.5"/>
<text text-anchor="middle" x="110.1" y="-681.3" font-family="Times,serif" font-size="14.00">groupTuple</text>
</g>
<!-- p3&#45;&gt;p4 -->
<g id="edge4" class="edge"><title>p3&#45;&gt;p4</title>
<path fill="none" stroke="black" d="M144.6,-716.379C144.6,-710.864 144.6,-697.742 144.6,-687.742"/>
<polygon fill="black" stroke="black" points="148.1,-687.552 144.6,-677.552 141.1,-687.552 148.1,-687.552"/>
</g>
<!-- p10 -->
<g id="node7" class="node"><title>p10</title>
<ellipse fill="none" stroke="black" cx="315.6" cy="-600" rx="200.273" ry="18"/>
<text text-anchor="middle" x="315.6" y="-596.3" font-family="Times,serif" font-size="14.00">AF_FREQ_GNOMAD_VS_VCF:PLOT_INTERVAL</text>
</g>
<!-- p4&#45;&gt;p10 -->
<g id="edge5" class="edge"><title>p4&#45;&gt;p10</title>
<path fill="none" stroke="black" d="M145.576,-670.554C148.373,-663.871 157.1,-645.188 170.6,-636 180.905,-628.987 192.461,-623.374 204.432,-618.882"/>
<polygon fill="black" stroke="black" points="205.813,-622.108 214.107,-615.515 203.512,-615.497 205.813,-622.108"/>
<text text-anchor="middle" x="201.1" y="-640.3" font-family="Times,serif" font-size="14.00">interval_ch</text>
</g>
<!-- p12 -->
<g id="node13" class="node"><title>p12</title>
<ellipse fill="none" stroke="black" cx="315.6" cy="-526" rx="3.25" ry="3.5"/>
<text text-anchor="middle" x="293.6" y="-533.3" font-family="Times,serif" font-size="14.00">collect</text>
</g>
<!-- p10&#45;&gt;p12 -->
<g id="edge11" class="edge"><title>p10&#45;&gt;p12</title>
<path fill="none" stroke="black" d="M315.6,-581.937C315.6,-569.126 315.6,-551.843 315.6,-540.107"/>
<polygon fill="black" stroke="black" points="319.1,-539.748 315.6,-529.748 312.1,-539.748 319.1,-539.748"/>
</g>
<!-- p13 -->
<g id="node14" class="node"><title>p13</title>
<ellipse fill="none" stroke="black" cx="340.6" cy="-526" rx="3.25" ry="3.5"/>
<text text-anchor="middle" x="318.6" y="-511.3" font-family="Times,serif" font-size="14.00">collect</text>
</g>
<!-- p10&#45;&gt;p13 -->
<g id="edge12" class="edge"><title>p10&#45;&gt;p13</title>
<path fill="none" stroke="black" d="M321.525,-581.937C326.068,-568.851 332.233,-551.098 336.309,-539.358"/>
<polygon fill="black" stroke="black" points="339.672,-540.343 339.646,-529.748 333.059,-538.047 339.672,-540.343"/>
</g>
<!-- p10&#45;&gt;p11 -->
<g id="edge13" class="edge"><title>p10&#45;&gt;p11</title>
<path fill="none" stroke="black" d="M263.578,-582.572C210.441,-565.792 131.494,-540.861 100.631,-531.115"/>
<polygon fill="black" stroke="black" points="101.396,-527.686 90.806,-528.012 99.2879,-534.361 101.396,-527.686"/>
</g>
<!-- p5 -->
<g id="node8" class="node"><title>p5</title>
<ellipse fill="black" stroke="black" cx="228.6" cy="-674" rx="3.6" ry="3.6"/>
</g>
<!-- p5&#45;&gt;p10 -->
<g id="edge6" class="edge"><title>p5&#45;&gt;p10</title>
<path fill="none" stroke="black" d="M229.178,-670.323C230.731,-663.706 235.572,-646.364 245.6,-636 250.424,-631.014 256.109,-626.624 262.119,-622.792"/>
<polygon fill="black" stroke="black" points="264.211,-625.624 271.095,-617.571 260.691,-619.574 264.211,-625.624"/>
<text text-anchor="middle" x="259.6" y="-640.3" font-family="Times,serif" font-size="14.00">meta</text>
</g>
<!-- p6 -->
<g id="node9" class="node"><title>p6</title>
<ellipse fill="black" stroke="black" cx="279.6" cy="-674" rx="3.6" ry="3.6"/>
</g>
<!-- p6&#45;&gt;p10 -->
<g id="edge7" class="edge"><title>p6&#45;&gt;p10</title>
<path fill="none" stroke="black" d="M278.994,-670.158C277.768,-663.748 275.522,-647.806 280.6,-636 282.115,-632.477 284.166,-629.119 286.519,-625.975"/>
<polygon fill="black" stroke="black" points="289.371,-628.03 293.295,-618.188 284.09,-623.435 289.371,-628.03"/>
<text text-anchor="middle" x="305.6" y="-640.3" font-family="Times,serif" font-size="14.00">reference</text>
</g>
<!-- p7 -->
<g id="node10" class="node"><title>p7</title>
<ellipse fill="black" stroke="black" cx="352.6" cy="-674" rx="3.6" ry="3.6"/>
</g>
<!-- p7&#45;&gt;p10 -->
<g id="edge8" class="edge"><title>p7&#45;&gt;p10</title>
<path fill="none" stroke="black" d="M351.369,-670.604C347.878,-663.81 337.605,-643.821 328.96,-626.997"/>
<polygon fill="black" stroke="black" points="332.061,-625.375 324.377,-618.08 325.835,-628.574 332.061,-625.375"/>
<text text-anchor="middle" x="365.1" y="-640.3" font-family="Times,serif" font-size="14.00">gnomad</text>
</g>
<!-- p8 -->
<g id="node11" class="node"><title>p8</title>
<ellipse fill="black" stroke="black" cx="420.6" cy="-674" rx="3.6" ry="3.6"/>
</g>
<!-- p8&#45;&gt;p10 -->
<g id="edge9" class="edge"><title>p8&#45;&gt;p10</title>
<path fill="none" stroke="black" d="M419.113,-670.318C415.322,-663.689 404.663,-646.323 391.6,-636 385.047,-630.821 377.603,-626.203 370,-622.155"/>
<polygon fill="black" stroke="black" points="371.553,-619.018 361.045,-617.665 368.416,-625.276 371.553,-619.018"/>
<text text-anchor="middle" x="416.1" y="-640.3" font-family="Times,serif" font-size="14.00">vcf</text>
</g>
<!-- p9 -->
<g id="node12" class="node"><title>p9</title>
<ellipse fill="black" stroke="black" cx="460.6" cy="-674" rx="3.6" ry="3.6"/>
</g>
<!-- p9&#45;&gt;p10 -->
<g id="edge10" class="edge"><title>p9&#45;&gt;p10</title>
<path fill="none" stroke="black" d="M459.206,-670.605C455.269,-664.051 443.385,-645.667 428.6,-636 419.094,-629.785 408.422,-624.622 397.531,-620.346"/>
<polygon fill="black" stroke="black" points="398.521,-616.981 387.928,-616.813 396.104,-623.551 398.521,-616.981"/>
<text text-anchor="middle" x="479.1" y="-640.3" font-family="Times,serif" font-size="14.00">sample2pop</text>
</g>
<!-- p15 -->
<g id="node16" class="node"><title>p15</title>
<ellipse fill="none" stroke="black" cx="318.6" cy="-452" rx="156.93" ry="18"/>
<text text-anchor="middle" x="318.6" y="-448.3" font-family="Times,serif" font-size="14.00">AF_FREQ_GNOMAD_VS_VCF:ZIP_IT</text>
</g>
<!-- p12&#45;&gt;p15 -->
<g id="edge15" class="edge"><title>p12&#45;&gt;p15</title>
<path fill="none" stroke="black" d="M315.714,-522.265C316.002,-515.354 316.784,-496.578 317.462,-480.316"/>
<polygon fill="black" stroke="black" points="320.966,-480.28 317.886,-470.143 313.972,-479.988 320.966,-480.28"/>
</g>
<!-- p13&#45;&gt;p15 -->
<g id="edge16" class="edge"><title>p13&#45;&gt;p15</title>
<path fill="none" stroke="black" d="M339.764,-522.265C337.633,-515.288 331.806,-496.219 326.805,-479.852"/>
<polygon fill="black" stroke="black" points="330.108,-478.684 323.838,-470.143 323.413,-480.729 330.108,-478.684"/>
</g>
<!-- p17 -->
<g id="node20" class="node"><title>p17</title>
<ellipse fill="none" stroke="black" cx="312.6" cy="-318" rx="3.25" ry="3.5"/>
<text text-anchor="middle" x="290.6" y="-325.3" font-family="Times,serif" font-size="14.00">collect</text>
</g>
<!-- p16&#45;&gt;p17 -->
<g id="edge21" class="edge"><title>p16&#45;&gt;p17</title>
<path fill="none" stroke="black" d="M312.6,-374.203C312.6,-366.649 312.6,-345.48 312.6,-331.66"/>
<polygon fill="black" stroke="black" points="316.1,-331.636 312.6,-321.636 309.1,-331.636 316.1,-331.636"/>
<text text-anchor="middle" x="342.1" y="-344.3" font-family="Times,serif" font-size="14.00">version_ch</text>
</g>
<!-- p23 -->
<g id="node18" class="node"><title>p23</title>
<ellipse fill="none" stroke="black" cx="540.6" cy="-378" rx="3.25" ry="3.5"/>
<text text-anchor="middle" x="526.1" y="-385.3" font-family="Times,serif" font-size="14.00">mix</text>
</g>
<!-- p15&#45;&gt;p23 -->
<g id="edge18" class="edge"><title>p15&#45;&gt;p23</title>
<path fill="none" stroke="black" d="M368.421,-434.842C420.106,-418.079 497.525,-392.97 527.81,-383.148"/>
<polygon fill="black" stroke="black" points="529.02,-386.435 537.452,-380.021 526.86,-379.777 529.02,-386.435"/>
<text text-anchor="middle" x="483.1" y="-404.3" font-family="Times,serif" font-size="14.00">zip</text>
</g>
<!-- p25 -->
<g id="node19" class="node"><title>p25</title>
<ellipse fill="none" stroke="black" cx="175.6" cy="-138" rx="3.25" ry="3.5"/>
<text text-anchor="middle" x="161.1" y="-145.3" font-family="Times,serif" font-size="14.00">mix</text>
</g>
<!-- p15&#45;&gt;p25 -->
<g id="edge19" class="edge"><title>p15&#45;&gt;p25</title>
<path fill="none" stroke="black" d="M232.013,-436.954C175.289,-425.213 111.6,-406.015 111.6,-379 111.6,-379 111.6,-379 111.6,-183 111.6,-158.445 143.987,-146.559 162.682,-141.744"/>
<polygon fill="black" stroke="black" points="163.522,-145.143 172.513,-139.538 161.989,-138.312 163.522,-145.143"/>
<text text-anchor="middle" x="121.1" y="-284.3" font-family="Times,serif" font-size="14.00">pdf</text>
</g>
<!-- p15&#45;&gt;p16 -->
<g id="edge20" class="edge"><title>p15&#45;&gt;p16</title>
<path fill="none" stroke="black" d="M317.178,-433.937C316.099,-420.989 314.639,-403.471 313.661,-391.731"/>
<polygon fill="black" stroke="black" points="317.147,-391.423 312.829,-381.748 310.172,-392.004 317.147,-391.423"/>
</g>
<!-- p14 -->
<g id="node17" class="node"><title>p14</title>
<ellipse fill="black" stroke="black" cx="272.6" cy="-526" rx="3.6" ry="3.6"/>
</g>
<!-- p14&#45;&gt;p15 -->
<g id="edge17" class="edge"><title>p14&#45;&gt;p15</title>
<path fill="none" stroke="black" d="M273.071,-522.124C274.226,-515.644 277.63,-499.568 284.6,-488 286.704,-484.508 289.218,-481.092 291.915,-477.847"/>
<polygon fill="black" stroke="black" points="294.737,-479.945 298.861,-470.186 289.551,-475.243 294.737,-479.945"/>
<text text-anchor="middle" x="298.6" y="-492.3" font-family="Times,serif" font-size="14.00">meta</text>
</g>
<!-- p24 -->
<g id="node25" class="node"><title>p24</title>
<ellipse fill="none" stroke="black" cx="344.6" cy="-184" rx="3.25" ry="3.5"/>
<text text-anchor="middle" x="330.1" y="-191.3" font-family="Times,serif" font-size="14.00">mix</text>
</g>
<!-- p23&#45;&gt;p24 -->
<g id="edge28" class="edge"><title>p23&#45;&gt;p24</title>
<path fill="none" stroke="black" d="M542.048,-374.512C550.946,-358.863 596.573,-273.191 557.6,-226 531.956,-194.95 400.492,-187.164 357.921,-185.443"/>
<polygon fill="black" stroke="black" points="357.896,-181.94 347.779,-185.084 357.649,-188.936 357.896,-181.94"/>
</g>
<!-- p26 -->
<g id="node27" class="node"><title>p26</title>
<ellipse fill="none" stroke="black" cx="175.6" cy="-92" rx="3.25" ry="3.5"/>
<text text-anchor="middle" x="153.6" y="-99.3" font-family="Times,serif" font-size="14.00">collect</text>
</g>
<!-- p25&#45;&gt;p26 -->
<g id="edge30" class="edge"><title>p25&#45;&gt;p26</title>
<path fill="none" stroke="black" d="M175.6,-134.379C175.6,-128.864 175.6,-115.742 175.6,-105.742"/>
<polygon fill="black" stroke="black" points="179.1,-105.552 175.6,-95.5518 172.1,-105.552 179.1,-105.552"/>
</g>
<!-- p21 -->
<g id="node21" class="node"><title>p21</title>
<ellipse fill="none" stroke="black" cx="344.6" cy="-244" rx="204.598" ry="18"/>
<text text-anchor="middle" x="344.6" y="-240.3" font-family="Times,serif" font-size="14.00">AF_FREQ_GNOMAD_VS_VCF:MERGE_VERSION</text>
</g>
<!-- p17&#45;&gt;p21 -->
<g id="edge22" class="edge"><title>p17&#45;&gt;p21</title>
<path fill="none" stroke="black" d="M313.665,-314.604C316.656,-307.873 325.405,-288.19 332.838,-271.465"/>
<polygon fill="black" stroke="black" points="336.146,-272.64 337.009,-262.08 329.749,-269.797 336.146,-272.64"/>
</g>
<!-- p21&#45;&gt;p24 -->
<g id="edge26" class="edge"><title>p21&#45;&gt;p24</title>
<path fill="none" stroke="black" d="M344.6,-225.912C344.6,-216.965 344.6,-206.187 344.6,-197.94"/>
<polygon fill="black" stroke="black" points="348.1,-197.691 344.6,-187.691 341.1,-197.691 348.1,-197.691"/>
</g>
<!-- p18 -->
<g id="node22" class="node"><title>p18</title>
<ellipse fill="black" stroke="black" cx="345.6" cy="-318" rx="3.6" ry="3.6"/>
</g>
<!-- p18&#45;&gt;p21 -->
<g id="edge23" class="edge"><title>p18&#45;&gt;p21</title>
<path fill="none" stroke="black" d="M345.562,-314.265C345.466,-307.354 345.205,-288.578 344.979,-272.316"/>
<polygon fill="black" stroke="black" points="348.477,-272.093 344.838,-262.143 341.477,-272.191 348.477,-272.093"/>
<text text-anchor="middle" x="359.6" y="-284.3" font-family="Times,serif" font-size="14.00">meta</text>
</g>
<!-- p19 -->
<g id="node23" class="node"><title>p19</title>
<ellipse fill="black" stroke="black" cx="396.6" cy="-318" rx="3.6" ry="3.6"/>
</g>
<!-- p19&#45;&gt;p21 -->
<g id="edge24" class="edge"><title>p19&#45;&gt;p21</title>
<path fill="none" stroke="black" d="M395.346,-314.573C392.182,-308.527 383.49,-292.386 374.6,-280 372.133,-276.562 369.405,-273.051 366.629,-269.644"/>
<polygon fill="black" stroke="black" points="369.284,-267.363 360.166,-261.966 363.928,-271.871 369.284,-267.363"/>
<text text-anchor="middle" x="401.1" y="-284.3" font-family="Times,serif" font-size="14.00">name</text>
</g>
<!-- p20 -->
<g id="node24" class="node"><title>p20</title>
<ellipse fill="black" stroke="black" cx="236.6" cy="-318" rx="3.6" ry="3.6"/>
</g>
<!-- p20&#45;&gt;p21 -->
<g id="edge25" class="edge"><title>p20&#45;&gt;p21</title>
<path fill="none" stroke="black" d="M237.443,-314.268C239.657,-307.525 246.257,-289.919 257.6,-280 263.718,-274.65 270.759,-270.055 278.129,-266.125"/>
<polygon fill="black" stroke="black" points="280.151,-269.033 287.597,-261.496 277.076,-262.744 280.151,-269.033"/>
<text text-anchor="middle" x="288.1" y="-284.3" font-family="Times,serif" font-size="14.00">description</text>
</g>
<!-- p24&#45;&gt;p25 -->
<g id="edge29" class="edge"><title>p24&#45;&gt;p25</title>
<path fill="none" stroke="black" d="M341.667,-182.236C323.317,-177.459 223.949,-151.588 188.321,-142.312"/>
<polygon fill="black" stroke="black" points="189.173,-138.917 178.614,-139.785 187.41,-145.691 189.173,-138.917"/>
</g>
<!-- p22 -->
<g id="node26" class="node"><title>p22</title>
<ellipse fill="black" stroke="black" cx="540.6" cy="-452" rx="3.6" ry="3.6"/>
<text text-anchor="middle" x="579" y="-459.4" font-family="Times,serif" font-size="14.00">Channel.empty</text>
</g>
<!-- p22&#45;&gt;p23 -->
<g id="edge27" class="edge"><title>p22&#45;&gt;p23</title>
<path fill="none" stroke="black" d="M540.6,-448.265C540.6,-439.133 540.6,-409.282 540.6,-391.892"/>
<polygon fill="black" stroke="black" points="544.1,-391.737 540.6,-381.737 537.1,-391.737 544.1,-391.737"/>
</g>
<!-- p28 -->
<g id="node28" class="node"><title>p28</title>
<ellipse fill="none" stroke="black" cx="191.6" cy="-18" rx="96.2631" ry="18"/>
<text text-anchor="middle" x="191.6" y="-14.3" font-family="Times,serif" font-size="14.00">SIMPLE_PUBLISH_01</text>
</g>
<!-- p26&#45;&gt;p28 -->
<g id="edge31" class="edge"><title>p26&#45;&gt;p28</title>
<path fill="none" stroke="black" d="M176.208,-88.2654C177.744,-81.3541 181.916,-62.5781 185.53,-46.3163"/>
<polygon fill="black" stroke="black" points="189.038,-46.6641 187.79,-36.1429 182.204,-45.1455 189.038,-46.6641"/>
</g>
<!-- p27 -->
<g id="node29" class="node"><title>p27</title>
<ellipse fill="black" stroke="black" cx="208.6" cy="-92" rx="3.6" ry="3.6"/>
</g>
<!-- p27&#45;&gt;p28 -->
<g id="edge32" class="edge"><title>p27&#45;&gt;p28</title>
<path fill="none" stroke="black" d="M207.954,-88.2654C206.322,-81.3541 201.889,-62.5781 198.05,-46.3163"/>
<polygon fill="black" stroke="black" points="201.352,-45.071 195.648,-36.1429 194.539,-46.6796 201.352,-45.071"/>
<text text-anchor="middle" x="217.6" y="-58.3" font-family="Times,serif" font-size="14.00">meta</text>
</g>
</g>
</svg>
