<?xml version="1.0" encoding="UTF-8" standalone="no"?>
<!DOCTYPE svg PUBLIC "-//W3C//DTD SVG 1.1//EN"
 "http://www.w3.org/Graphics/SVG/1.1/DTD/svg11.dtd">
<!-- Generated by graphviz version 2.30.1 (20201013.1554)
 -->
<!-- Title: 20220805rotavirusbcftoolscallworkflow Pages: 1 -->
<svg width="1247pt" height="2152pt"
 viewBox="0.00 0.00 1247.00 2152.00" xmlns="http://www.w3.org/2000/svg" xmlns:xlink="http://www.w3.org/1999/xlink">
<g id="graph0" class="graph" transform="scale(1 1) rotate(0) translate(4 2148)">
<title>20220805rotavirusbcftoolscallworkflow</title>
<polygon fill="white" stroke="white" points="-4,5 -4,-2148 1244,-2148 1244,5 -4,5"/>
<!-- p0 -->
<g id="node1" class="node"><title>p0</title>
<ellipse fill="black" stroke="black" cx="935" cy="-1530" rx="3.6" ry="3.6"/>
<text text-anchor="middle" x="996.4" y="-1537.4" font-family="Times,serif" font-size="14.00">Channel.fromPath</text>
</g>
<!-- p24 -->
<g id="node2" class="node"><title>p24</title>
<ellipse fill="none" stroke="black" cx="925" cy="-1442" rx="3.25" ry="3.5"/>
<text text-anchor="middle" x="889.5" y="-1449.3" font-family="Times,serif" font-size="14.00">splitText</text>
</g>
<!-- p0&#45;&gt;p24 -->
<g id="edge1" class="edge"><title>p0&#45;&gt;p24</title>
<path fill="none" stroke="black" d="M934.667,-1526.14C933.405,-1515.28 928.861,-1476.21 926.48,-1455.73"/>
<polygon fill="black" stroke="black" points="929.936,-1455.14 925.304,-1445.61 922.983,-1455.95 929.936,-1455.14"/>
<text text-anchor="middle" x="947" y="-1482.3" font-family="Times,serif" font-size="14.00">beds</text>
</g>
<!-- p25 -->
<g id="node28" class="node"><title>p25</title>
<ellipse fill="none" stroke="black" cx="667" cy="-1368" rx="3.25" ry="3.5"/>
<text text-anchor="middle" x="648" y="-1375.3" font-family="Times,serif" font-size="14.00">map</text>
</g>
<!-- p24&#45;&gt;p25 -->
<g id="edge28" class="edge"><title>p24&#45;&gt;p25</title>
<path fill="none" stroke="black" d="M922.103,-1440.19C897.811,-1433.41 727.791,-1385.97 679.666,-1372.53"/>
<polygon fill="black" stroke="black" points="680.448,-1369.12 669.875,-1369.8 678.567,-1375.86 680.448,-1369.12"/>
</g>
<!-- p1 -->
<g id="node3" class="node"><title>p1</title>
<ellipse fill="black" stroke="black" cx="221" cy="-1530" rx="3.6" ry="3.6"/>
<text text-anchor="middle" x="162.9" y="-1537.4" font-family="Times,serif" font-size="14.00">Channel.empty</text>
</g>
<!-- p23 -->
<g id="node4" class="node"><title>p23</title>
<ellipse fill="none" stroke="black" cx="414" cy="-1442" rx="3.25" ry="3.5"/>
<text text-anchor="middle" x="424" y="-1449.3" font-family="Times,serif" font-size="14.00">mix</text>
</g>
<!-- p1&#45;&gt;p23 -->
<g id="edge2" class="edge"><title>p1&#45;&gt;p23</title>
<path fill="none" stroke="black" d="M222.445,-1526.15C224.505,-1522.38 228.64,-1515.75 234,-1512 297.721,-1467.47 337.279,-1504.53 401,-1460 403.364,-1458.35 405.49,-1456.13 407.304,-1453.85"/>
<polygon fill="black" stroke="black" points="410.315,-1455.64 412.823,-1445.35 404.443,-1451.83 410.315,-1455.64"/>
<text text-anchor="middle" x="405" y="-1482.3" font-family="Times,serif" font-size="14.00">version_ch</text>
</g>
<!-- p31 -->
<g id="node27" class="node"><title>p31</title>
<ellipse fill="none" stroke="black" cx="225" cy="-1368" rx="3.25" ry="3.5"/>
<text text-anchor="middle" x="208" y="-1375.3" font-family="Times,serif" font-size="14.00">mix</text>
</g>
<!-- p23&#45;&gt;p31 -->
<g id="edge27" class="edge"><title>p23&#45;&gt;p31</title>
<path fill="none" stroke="black" d="M412.823,-1438.65C410.867,-1434.99 406.602,-1427.92 401,-1424 348.209,-1387.07 269.651,-1374.21 238.463,-1370.4"/>
<polygon fill="black" stroke="black" points="238.532,-1366.89 228.211,-1369.28 237.77,-1373.85 238.532,-1366.89"/>
<text text-anchor="middle" x="406" y="-1394.3" font-family="Times,serif" font-size="14.00">version_ch</text>
</g>
<!-- p2 -->
<g id="node5" class="node"><title>p2</title>
<ellipse fill="black" stroke="black" cx="802" cy="-2066" rx="3.6" ry="3.6"/>
<text text-anchor="middle" x="852.9" y="-2073.4" font-family="Times,serif" font-size="14.00">Channel.empty</text>
</g>
<!-- p6 -->
<g id="node6" class="node"><title>p6</title>
<ellipse fill="none" stroke="black" cx="665" cy="-1992" rx="3.25" ry="3.5"/>
<text text-anchor="middle" x="648" y="-1999.3" font-family="Times,serif" font-size="14.00">mix</text>
</g>
<!-- p2&#45;&gt;p6 -->
<g id="edge3" class="edge"><title>p2&#45;&gt;p6</title>
<path fill="none" stroke="black" d="M800.489,-2062.24C798.354,-2058.57 794.135,-2052.05 789,-2048 753.573,-2020.06 701.73,-2003.14 677.878,-1996.39"/>
<polygon fill="black" stroke="black" points="678.553,-1992.95 667.988,-1993.73 676.736,-1999.71 678.553,-1992.95"/>
<text text-anchor="middle" x="801" y="-2018.3" font-family="Times,serif" font-size="14.00">version_ch</text>
</g>
<!-- p13 -->
<g id="node11" class="node"><title>p13</title>
<ellipse fill="none" stroke="black" cx="627" cy="-1812" rx="3.25" ry="3.5"/>
<text text-anchor="middle" x="610" y="-1819.3" font-family="Times,serif" font-size="14.00">mix</text>
</g>
<!-- p6&#45;&gt;p13 -->
<g id="edge8" class="edge"><title>p6&#45;&gt;p13</title>
<path fill="none" stroke="black" d="M664.922,-1988.33C664.448,-1974.16 661.439,-1906.53 646,-1854 642.932,-1843.56 637.614,-1832.4 633.383,-1824.37"/>
<polygon fill="black" stroke="black" points="636.375,-1822.55 628.475,-1815.49 630.249,-1825.93 636.375,-1822.55"/>
<text text-anchor="middle" x="699" y="-1912.3" font-family="Times,serif" font-size="14.00">version_ch</text>
</g>
<!-- p3 -->
<g id="node7" class="node"><title>p3</title>
<ellipse fill="black" stroke="black" cx="448" cy="-2140" rx="3.6" ry="3.6"/>
</g>
<!-- p5 -->
<g id="node8" class="node"><title>p5</title>
<ellipse fill="none" stroke="black" cx="478" cy="-2066" rx="302.335" ry="18"/>
<text text-anchor="middle" x="478" y="-2062.3" font-family="Times,serif" font-size="14.00">BCFTOOLS_CALL_01:SAMTOOLS_SAMPLES_01:SQRT_FILE</text>
</g>
<!-- p3&#45;&gt;p5 -->
<g id="edge4" class="edge"><title>p3&#45;&gt;p5</title>
<path fill="none" stroke="black" d="M447.474,-2136.19C446.412,-2129.85 444.479,-2114.03 449,-2102 450.26,-2098.65 451.984,-2095.39 453.968,-2092.28"/>
<polygon fill="black" stroke="black" points="456.938,-2094.16 460.081,-2084.04 451.314,-2089.99 456.938,-2094.16"/>
<text text-anchor="middle" x="467.5" y="-2106.3" font-family="Times,serif" font-size="14.00">meta</text>
</g>
<!-- p7 -->
<g id="node10" class="node"><title>p7</title>
<ellipse fill="none" stroke="black" cx="478" cy="-1992" rx="3.25" ry="3.5"/>
<text text-anchor="middle" x="442.5" y="-1999.3" font-family="Times,serif" font-size="14.00">splitText</text>
</g>
<!-- p5&#45;&gt;p7 -->
<g id="edge6" class="edge"><title>p5&#45;&gt;p7</title>
<path fill="none" stroke="black" d="M478,-2047.94C478,-2035.13 478,-2017.84 478,-2006.11"/>
<polygon fill="black" stroke="black" points="481.5,-2005.75 478,-1995.75 474.5,-2005.75 481.5,-2005.75"/>
</g>
<!-- p5&#45;&gt;p6 -->
<g id="edge7" class="edge"><title>p5&#45;&gt;p6</title>
<path fill="none" stroke="black" d="M521.843,-2048.12C564.339,-2031.76 626.115,-2007.97 652.402,-1997.85"/>
<polygon fill="black" stroke="black" points="653.929,-2001.01 662.004,-1994.15 651.414,-1994.48 653.929,-2001.01"/>
</g>
<!-- p4 -->
<g id="node9" class="node"><title>p4</title>
<ellipse fill="black" stroke="black" cx="508" cy="-2140" rx="3.6" ry="3.6"/>
</g>
<!-- p4&#45;&gt;p5 -->
<g id="edge5" class="edge"><title>p4&#45;&gt;p5</title>
<path fill="none" stroke="black" d="M506.861,-2136.27C503.926,-2129.22 495.858,-2109.86 488.996,-2093.39"/>
<polygon fill="black" stroke="black" points="492.22,-2092.03 485.143,-2084.14 485.758,-2094.72 492.22,-2092.03"/>
<text text-anchor="middle" x="518.5" y="-2106.3" font-family="Times,serif" font-size="14.00">filein</text>
</g>
<!-- p8 -->
<g id="node12" class="node"><title>p8</title>
<ellipse fill="none" stroke="black" cx="478" cy="-1946" rx="3.25" ry="3.5"/>
<text text-anchor="middle" x="459" y="-1953.3" font-family="Times,serif" font-size="14.00">map</text>
</g>
<!-- p7&#45;&gt;p8 -->
<g id="edge9" class="edge"><title>p7&#45;&gt;p8</title>
<path fill="none" stroke="black" d="M478,-1988.38C478,-1982.86 478,-1969.74 478,-1959.74"/>
<polygon fill="black" stroke="black" points="481.5,-1959.55 478,-1949.55 474.5,-1959.55 481.5,-1959.55"/>
</g>
<!-- p17 -->
<g id="node18" class="node"><title>p17</title>
<ellipse fill="none" stroke="black" cx="627" cy="-1664" rx="3.25" ry="3.5"/>
<text text-anchor="middle" x="610" y="-1671.3" font-family="Times,serif" font-size="14.00">mix</text>
</g>
<!-- p13&#45;&gt;p17 -->
<g id="edge16" class="edge"><title>p13&#45;&gt;p17</title>
<path fill="none" stroke="black" d="M627,-1808.47C627,-1792.89 627,-1709.75 627,-1677.65"/>
<polygon fill="black" stroke="black" points="630.5,-1677.6 627,-1667.6 623.5,-1677.6 630.5,-1677.6"/>
<text text-anchor="middle" x="666" y="-1734.3" font-family="Times,serif" font-size="14.00">version_ch</text>
</g>
<!-- p12 -->
<g id="node13" class="node"><title>p12</title>
<ellipse fill="none" stroke="black" cx="331" cy="-1872" rx="306.184" ry="18"/>
<text text-anchor="middle" x="331" y="-1868.3" font-family="Times,serif" font-size="14.00">BCFTOOLS_CALL_01:SAMTOOLS_SAMPLES_01:ST_SAMPLE</text>
</g>
<!-- p8&#45;&gt;p12 -->
<g id="edge10" class="edge"><title>p8&#45;&gt;p12</title>
<path fill="none" stroke="black" d="M476.674,-1942.6C472.921,-1936.03 461.549,-1917.6 447,-1908 438.06,-1902.1 428.088,-1897.17 417.848,-1893.04"/>
<polygon fill="black" stroke="black" points="418.982,-1889.73 408.39,-1889.48 416.514,-1896.28 418.982,-1889.73"/>
<text text-anchor="middle" x="499" y="-1912.3" font-family="Times,serif" font-size="14.00">chunk_ch</text>
</g>
<!-- p14 -->
<g id="node17" class="node"><title>p14</title>
<ellipse fill="none" stroke="black" cx="331" cy="-1812" rx="3.25" ry="3.5"/>
<text text-anchor="middle" x="303" y="-1819.3" font-family="Times,serif" font-size="14.00">collect</text>
</g>
<!-- p12&#45;&gt;p14 -->
<g id="edge14" class="edge"><title>p12&#45;&gt;p14</title>
<path fill="none" stroke="black" d="M331,-1853.91C331,-1844.96 331,-1834.19 331,-1825.94"/>
<polygon fill="black" stroke="black" points="334.5,-1825.69 331,-1815.69 327.5,-1825.69 334.5,-1825.69"/>
</g>
<!-- p12&#45;&gt;p13 -->
<g id="edge15" class="edge"><title>p12&#45;&gt;p13</title>
<path fill="none" stroke="black" d="M414.635,-1854.61C484.973,-1840.83 579.401,-1822.33 613.781,-1815.59"/>
<polygon fill="black" stroke="black" points="614.702,-1818.98 623.842,-1813.62 613.356,-1812.11 614.702,-1818.98"/>
</g>
<!-- p9 -->
<g id="node14" class="node"><title>p9</title>
<ellipse fill="black" stroke="black" cx="225" cy="-1946" rx="3.6" ry="3.6"/>
</g>
<!-- p9&#45;&gt;p12 -->
<g id="edge11" class="edge"><title>p9&#45;&gt;p12</title>
<path fill="none" stroke="black" d="M225.522,-1942.27C226.948,-1935.52 231.521,-1917.91 242,-1908 247.474,-1902.82 253.804,-1898.38 260.514,-1894.58"/>
<polygon fill="black" stroke="black" points="262.561,-1897.46 269.855,-1889.78 259.361,-1891.24 262.561,-1897.46"/>
<text text-anchor="middle" x="260.5" y="-1912.3" font-family="Times,serif" font-size="14.00">meta</text>
</g>
<!-- p10 -->
<g id="node15" class="node"><title>p10</title>
<ellipse fill="black" stroke="black" cx="285" cy="-1946" rx="3.6" ry="3.6"/>
</g>
<!-- p10&#45;&gt;p12 -->
<g id="edge12" class="edge"><title>p10&#45;&gt;p12</title>
<path fill="none" stroke="black" d="M284.29,-1942.11C282.851,-1935.6 280.198,-1919.47 286,-1908 287.96,-1904.13 290.571,-1900.55 293.55,-1897.29"/>
<polygon fill="black" stroke="black" points="296.155,-1899.64 301.042,-1890.24 291.359,-1894.54 296.155,-1899.64"/>
<text text-anchor="middle" x="321" y="-1912.3" font-family="Times,serif" font-size="14.00">reference</text>
</g>
<!-- p11 -->
<g id="node16" class="node"><title>p11</title>
<ellipse fill="black" stroke="black" cx="378" cy="-1946" rx="3.6" ry="3.6"/>
</g>
<!-- p11&#45;&gt;p12 -->
<g id="edge13" class="edge"><title>p11&#45;&gt;p12</title>
<path fill="none" stroke="black" d="M376.677,-1942.62C373.356,-1936.68 364.334,-1920.77 356,-1908 353.962,-1904.88 351.767,-1901.64 349.555,-1898.45"/>
<polygon fill="black" stroke="black" points="352.384,-1896.39 343.754,-1890.25 346.668,-1900.43 352.384,-1896.39"/>
<text text-anchor="middle" x="404.5" y="-1912.3" font-family="Times,serif" font-size="14.00">references</text>
</g>
<!-- p16 -->
<g id="node19" class="node"><title>p16</title>
<ellipse fill="none" stroke="black" cx="305" cy="-1738" rx="284.512" ry="18"/>
<text text-anchor="middle" x="305" y="-1734.3" font-family="Times,serif" font-size="14.00">BCFTOOLS_CALL_01:SAMTOOLS_SAMPLES_01:DIGEST</text>
</g>
<!-- p14&#45;&gt;p16 -->
<g id="edge17" class="edge"><title>p14&#45;&gt;p16</title>
<path fill="none" stroke="black" d="M330.135,-1808.6C327.727,-1801.94 320.729,-1782.56 314.726,-1765.93"/>
<polygon fill="black" stroke="black" points="317.856,-1764.3 311.168,-1756.08 311.272,-1766.67 317.856,-1764.3"/>
</g>
<!-- p18 -->
<g id="node22" class="node"><title>p18</title>
<ellipse fill="none" stroke="black" cx="639" cy="-1604" rx="3.25" ry="3.5"/>
<text text-anchor="middle" x="611" y="-1611.3" font-family="Times,serif" font-size="14.00">collect</text>
</g>
<!-- p17&#45;&gt;p18 -->
<g id="edge21" class="edge"><title>p17&#45;&gt;p18</title>
<path fill="none" stroke="black" d="M627.516,-1660.51C629.013,-1653.27 633.44,-1631.87 636.339,-1617.86"/>
<polygon fill="black" stroke="black" points="639.847,-1618.18 638.445,-1607.68 632.992,-1616.76 639.847,-1618.18"/>
<text text-anchor="middle" x="674" y="-1630.3" font-family="Times,serif" font-size="14.00">version_ch</text>
</g>
<!-- p26 -->
<g id="node21" class="node"><title>p26</title>
<ellipse fill="none" stroke="black" cx="299" cy="-1664" rx="3.25" ry="3.5"/>
<text text-anchor="middle" x="266" y="-1671.3" font-family="Times,serif" font-size="14.00">splitCsv</text>
</g>
<!-- p16&#45;&gt;p26 -->
<g id="edge19" class="edge"><title>p16&#45;&gt;p26</title>
<path fill="none" stroke="black" d="M303.578,-1719.94C302.499,-1706.99 301.039,-1689.47 300.061,-1677.73"/>
<polygon fill="black" stroke="black" points="303.547,-1677.42 299.229,-1667.75 296.572,-1678 303.547,-1677.42"/>
<text text-anchor="middle" x="326" y="-1690.3" font-family="Times,serif" font-size="14.00">output</text>
</g>
<!-- p16&#45;&gt;p17 -->
<g id="edge20" class="edge"><title>p16&#45;&gt;p17</title>
<path fill="none" stroke="black" d="M378.47,-1720.57C457.019,-1703.01 575.506,-1676.51 614.25,-1667.85"/>
<polygon fill="black" stroke="black" points="615.023,-1671.26 624.018,-1665.67 613.496,-1664.43 615.023,-1671.26"/>
</g>
<!-- p15 -->
<g id="node20" class="node"><title>p15</title>
<ellipse fill="black" stroke="black" cx="279" cy="-1812" rx="3.6" ry="3.6"/>
</g>
<!-- p15&#45;&gt;p16 -->
<g id="edge18" class="edge"><title>p15&#45;&gt;p16</title>
<path fill="none" stroke="black" d="M278.143,-1808.21C276.358,-1801.89 272.741,-1786.14 277,-1774 278.169,-1770.67 279.803,-1767.42 281.701,-1764.32"/>
<polygon fill="black" stroke="black" points="284.619,-1766.26 287.58,-1756.09 278.921,-1762.19 284.619,-1766.26"/>
<text text-anchor="middle" x="295.5" y="-1778.3" font-family="Times,serif" font-size="14.00">meta</text>
</g>
<!-- p27 -->
<g id="node30" class="node"><title>p27</title>
<ellipse fill="none" stroke="black" cx="240" cy="-1604" rx="3.25" ry="3.5"/>
<text text-anchor="middle" x="221" y="-1611.3" font-family="Times,serif" font-size="14.00">map</text>
</g>
<!-- p26&#45;&gt;p27 -->
<g id="edge30" class="edge"><title>p26&#45;&gt;p27</title>
<path fill="none" stroke="black" d="M297.037,-1661.07C289.689,-1653.85 263.504,-1628.11 249.309,-1614.15"/>
<polygon fill="black" stroke="black" points="251.616,-1611.51 242.031,-1607 246.709,-1616.5 251.616,-1611.51"/>
</g>
<!-- p22 -->
<g id="node23" class="node"><title>p22</title>
<ellipse fill="none" stroke="black" cx="578" cy="-1530" rx="335.055" ry="18"/>
<text text-anchor="middle" x="578" y="-1526.3" font-family="Times,serif" font-size="14.00">BCFTOOLS_CALL_01:SAMTOOLS_SAMPLES_01:MERGE_VERSION</text>
</g>
<!-- p18&#45;&gt;p22 -->
<g id="edge22" class="edge"><title>p18&#45;&gt;p22</title>
<path fill="none" stroke="black" d="M641.69,-1601.47C646.631,-1598.47 657.012,-1591.32 661,-1582 663.797,-1575.46 664.932,-1571.93 661,-1566 657.866,-1561.28 653.954,-1557.19 649.55,-1553.65"/>
<polygon fill="black" stroke="black" points="651.369,-1550.65 641.149,-1547.86 647.396,-1556.42 651.369,-1550.65"/>
</g>
<!-- p22&#45;&gt;p23 -->
<g id="edge26" class="edge"><title>p22&#45;&gt;p23</title>
<path fill="none" stroke="black" d="M545.599,-1512.01C508.697,-1492.66 450.328,-1462.05 425.64,-1449.1"/>
<polygon fill="black" stroke="black" points="426.949,-1445.84 416.468,-1444.29 423.699,-1452.04 426.949,-1445.84"/>
</g>
<!-- p19 -->
<g id="node24" class="node"><title>p19</title>
<ellipse fill="black" stroke="black" cx="455" cy="-1604" rx="3.6" ry="3.6"/>
</g>
<!-- p19&#45;&gt;p22 -->
<g id="edge23" class="edge"><title>p19&#45;&gt;p22</title>
<path fill="none" stroke="black" d="M456.44,-1600.26C460.124,-1593.49 470.559,-1575.83 484,-1566 491.433,-1560.57 499.806,-1555.88 508.413,-1551.87"/>
<polygon fill="black" stroke="black" points="510.039,-1554.98 517.811,-1547.78 507.245,-1548.57 510.039,-1554.98"/>
<text text-anchor="middle" x="502.5" y="-1570.3" font-family="Times,serif" font-size="14.00">meta</text>
</g>
<!-- p20 -->
<g id="node25" class="node"><title>p20</title>
<ellipse fill="black" stroke="black" cx="515" cy="-1604" rx="3.6" ry="3.6"/>
</g>
<!-- p20&#45;&gt;p22 -->
<g id="edge24" class="edge"><title>p20&#45;&gt;p22</title>
<path fill="none" stroke="black" d="M515.877,-1600.45C518.141,-1594.12 524.662,-1577.39 534,-1566 537.243,-1562.04 541.002,-1558.24 544.93,-1554.69"/>
<polygon fill="black" stroke="black" points="547.219,-1557.34 552.6,-1548.22 542.702,-1551.99 547.219,-1557.34"/>
<text text-anchor="middle" x="554" y="-1570.3" font-family="Times,serif" font-size="14.00">name</text>
</g>
<!-- p21 -->
<g id="node26" class="node"><title>p21</title>
<ellipse fill="black" stroke="black" cx="578" cy="-1604" rx="3.6" ry="3.6"/>
</g>
<!-- p21&#45;&gt;p22 -->
<g id="edge25" class="edge"><title>p21&#45;&gt;p22</title>
<path fill="none" stroke="black" d="M578,-1600.27C578,-1593.35 578,-1574.58 578,-1558.32"/>
<polygon fill="black" stroke="black" points="581.5,-1558.14 578,-1548.14 574.5,-1558.14 581.5,-1558.14"/>
<text text-anchor="middle" x="619" y="-1570.3" font-family="Times,serif" font-size="14.00">description</text>
</g>
<!-- p37 -->
<g id="node35" class="node"><title>p37</title>
<ellipse fill="none" stroke="black" cx="225" cy="-1174" rx="3.25" ry="3.5"/>
<text text-anchor="middle" x="208" y="-1181.3" font-family="Times,serif" font-size="14.00">mix</text>
</g>
<!-- p31&#45;&gt;p37 -->
<g id="edge36" class="edge"><title>p31&#45;&gt;p37</title>
<path fill="none" stroke="black" d="M225,-1364.29C225,-1344.88 225,-1226.8 225,-1187.62"/>
<polygon fill="black" stroke="black" points="228.5,-1187.62 225,-1177.62 221.5,-1187.62 228.5,-1187.62"/>
<text text-anchor="middle" x="264" y="-1274.3" font-family="Times,serif" font-size="14.00">version_ch</text>
</g>
<!-- p33 -->
<g id="node29" class="node"><title>p33</title>
<ellipse fill="none" stroke="black" cx="562" cy="-1308" rx="3.25" ry="3.5"/>
<text text-anchor="middle" x="528" y="-1315.3" font-family="Times,serif" font-size="14.00">combine</text>
</g>
<!-- p25&#45;&gt;p33 -->
<g id="edge29" class="edge"><title>p25&#45;&gt;p33</title>
<path fill="none" stroke="black" d="M664.404,-1365.57C651.864,-1358.64 597.174,-1328.43 573.261,-1315.22"/>
<polygon fill="black" stroke="black" points="574.95,-1312.16 564.505,-1310.38 571.566,-1318.28 574.95,-1312.16"/>
<text text-anchor="middle" x="661" y="-1334.3" font-family="Times,serif" font-size="14.00">each_bed</text>
</g>
<!-- p36 -->
<g id="node36" class="node"><title>p36</title>
<ellipse fill="none" stroke="black" cx="469" cy="-1234" rx="200.273" ry="18"/>
<text text-anchor="middle" x="469" y="-1230.3" font-family="Times,serif" font-size="14.00">BCFTOOLS_CALL_01:CALL_INTERVAL</text>
</g>
<!-- p33&#45;&gt;p36 -->
<g id="edge38" class="edge"><title>p33&#45;&gt;p36</title>
<path fill="none" stroke="black" d="M561.031,-1304.32C558.518,-1297.7 551.195,-1280.35 540,-1270 534.589,-1265 528.329,-1260.55 521.814,-1256.66"/>
<polygon fill="black" stroke="black" points="523.27,-1253.46 512.827,-1251.68 519.878,-1259.59 523.27,-1253.46"/>
<text text-anchor="middle" x="603" y="-1274.3" font-family="Times,serif" font-size="14.00">ref_bams_bed</text>
</g>
<!-- p28 -->
<g id="node31" class="node"><title>p28</title>
<ellipse fill="none" stroke="black" cx="196" cy="-1530" rx="3.25" ry="3.5"/>
<text text-anchor="middle" x="151" y="-1515.3" font-family="Times,serif" font-size="14.00">groupTuple</text>
</g>
<!-- p27&#45;&gt;p28 -->
<g id="edge31" class="edge"><title>p27&#45;&gt;p28</title>
<path fill="none" stroke="black" d="M238.536,-1600.6C233.056,-1591.64 213.528,-1559.68 202.942,-1542.36"/>
<polygon fill="black" stroke="black" points="205.716,-1540.19 197.515,-1533.48 199.743,-1543.84 205.716,-1540.19"/>
</g>
<!-- p30 -->
<g id="node32" class="node"><title>p30</title>
<ellipse fill="none" stroke="black" cx="196" cy="-1442" rx="195.924" ry="18"/>
<text text-anchor="middle" x="196" y="-1438.3" font-family="Times,serif" font-size="14.00">BCFTOOLS_CALL_01:SPLIT_PER_REF</text>
</g>
<!-- p28&#45;&gt;p30 -->
<g id="edge32" class="edge"><title>p28&#45;&gt;p30</title>
<path fill="none" stroke="black" d="M196,-1526.14C196,-1517.5 196,-1491.01 196,-1470.23"/>
<polygon fill="black" stroke="black" points="199.5,-1470 196,-1460 192.5,-1470 199.5,-1470"/>
<text text-anchor="middle" x="230" y="-1482.3" font-family="Times,serif" font-size="14.00">ref2bams</text>
</g>
<!-- p32 -->
<g id="node34" class="node"><title>p32</title>
<ellipse fill="none" stroke="black" cx="413" cy="-1368" rx="3.25" ry="3.5"/>
<text text-anchor="middle" x="380" y="-1375.3" font-family="Times,serif" font-size="14.00">splitCsv</text>
</g>
<!-- p30&#45;&gt;p32 -->
<g id="edge34" class="edge"><title>p30&#45;&gt;p32</title>
<path fill="none" stroke="black" d="M236.032,-1424.37C262.443,-1413.74 297.954,-1400.11 330,-1390 354.382,-1382.3 383.472,-1375.47 399.935,-1371.81"/>
<polygon fill="black" stroke="black" points="401.069,-1375.15 410.099,-1369.61 399.584,-1368.31 401.069,-1375.15"/>
</g>
<!-- p30&#45;&gt;p31 -->
<g id="edge35" class="edge"><title>p30&#45;&gt;p31</title>
<path fill="none" stroke="black" d="M202.873,-1423.94C208.143,-1410.85 215.294,-1393.1 220.023,-1381.36"/>
<polygon fill="black" stroke="black" points="223.403,-1382.33 223.893,-1371.75 216.91,-1379.72 223.403,-1382.33"/>
</g>
<!-- p29 -->
<g id="node33" class="node"><title>p29</title>
<ellipse fill="black" stroke="black" cx="136" cy="-1530" rx="3.6" ry="3.6"/>
</g>
<!-- p29&#45;&gt;p30 -->
<g id="edge33" class="edge"><title>p29&#45;&gt;p30</title>
<path fill="none" stroke="black" d="M136.565,-1525.99C138.233,-1517.71 143.735,-1494.1 155,-1478 157.739,-1474.08 161.017,-1470.34 164.509,-1466.85"/>
<polygon fill="black" stroke="black" points="166.881,-1469.42 171.876,-1460.08 162.144,-1464.27 166.881,-1469.42"/>
<text text-anchor="middle" x="173.5" y="-1482.3" font-family="Times,serif" font-size="14.00">meta</text>
</g>
<!-- p32&#45;&gt;p33 -->
<g id="edge37" class="edge"><title>p32&#45;&gt;p33</title>
<path fill="none" stroke="black" d="M415.843,-1365.89C432.397,-1359.45 516.727,-1326.62 549.216,-1313.98"/>
<polygon fill="black" stroke="black" points="550.83,-1317.1 558.879,-1310.21 548.291,-1310.58 550.83,-1317.1"/>
</g>
<!-- p41 -->
<g id="node40" class="node"><title>p41</title>
<ellipse fill="none" stroke="black" cx="211" cy="-1040" rx="3.25" ry="3.5"/>
<text text-anchor="middle" x="194" y="-1047.3" font-family="Times,serif" font-size="14.00">mix</text>
</g>
<!-- p37&#45;&gt;p41 -->
<g id="edge43" class="edge"><title>p37&#45;&gt;p41</title>
<path fill="none" stroke="black" d="M224.647,-1170.48C223.561,-1162.69 220.212,-1138.29 218,-1118 215.546,-1095.5 213.288,-1069.24 212.032,-1053.93"/>
<polygon fill="black" stroke="black" points="215.497,-1053.35 211.207,-1043.66 208.52,-1053.91 215.497,-1053.35"/>
<text text-anchor="middle" x="257" y="-1096.3" font-family="Times,serif" font-size="14.00">version_ch</text>
</g>
<!-- p38 -->
<g id="node39" class="node"><title>p38</title>
<ellipse fill="none" stroke="black" cx="524" cy="-1174" rx="3.25" ry="3.5"/>
<text text-anchor="middle" x="479" y="-1181.3" font-family="Times,serif" font-size="14.00">groupTuple</text>
</g>
<!-- p36&#45;&gt;p38 -->
<g id="edge41" class="edge"><title>p36&#45;&gt;p38</title>
<path fill="none" stroke="black" d="M485.204,-1215.91C494.966,-1205.62 507.026,-1192.9 515.084,-1184.4"/>
<polygon fill="black" stroke="black" points="517.805,-1186.62 522.146,-1176.95 512.726,-1181.8 517.805,-1186.62"/>
</g>
<!-- p36&#45;&gt;p37 -->
<g id="edge42" class="edge"><title>p36&#45;&gt;p37</title>
<path fill="none" stroke="black" d="M401.68,-1217C344.904,-1203.5 268.206,-1185.27 237.996,-1178.09"/>
<polygon fill="black" stroke="black" points="238.628,-1174.64 228.089,-1175.73 237.009,-1181.45 238.628,-1174.64"/>
</g>
<!-- p34 -->
<g id="node37" class="node"><title>p34</title>
<ellipse fill="black" stroke="black" cx="409" cy="-1308" rx="3.6" ry="3.6"/>
</g>
<!-- p34&#45;&gt;p36 -->
<g id="edge39" class="edge"><title>p34&#45;&gt;p36</title>
<path fill="none" stroke="black" d="M409.902,-1304.47C412.222,-1298.19 418.86,-1281.55 428,-1270 431.034,-1266.16 434.537,-1262.44 438.192,-1258.93"/>
<polygon fill="black" stroke="black" points="440.707,-1261.38 445.805,-1252.09 436.028,-1256.17 440.707,-1261.38"/>
<text text-anchor="middle" x="446.5" y="-1274.3" font-family="Times,serif" font-size="14.00">meta</text>
</g>
<!-- p35 -->
<g id="node38" class="node"><title>p35</title>
<ellipse fill="black" stroke="black" cx="469" cy="-1308" rx="3.6" ry="3.6"/>
</g>
<!-- p35&#45;&gt;p36 -->
<g id="edge40" class="edge"><title>p35&#45;&gt;p36</title>
<path fill="none" stroke="black" d="M469,-1304.27C469,-1297.35 469,-1278.58 469,-1262.32"/>
<polygon fill="black" stroke="black" points="472.5,-1262.14 469,-1252.14 465.5,-1262.14 472.5,-1262.14"/>
<text text-anchor="middle" x="504" y="-1274.3" font-family="Times,serif" font-size="14.00">reference</text>
</g>
<!-- p40 -->
<g id="node41" class="node"><title>p40</title>
<ellipse fill="none" stroke="black" cx="538" cy="-1100" rx="232.994" ry="18"/>
<text text-anchor="middle" x="538" y="-1096.3" font-family="Times,serif" font-size="14.00">BCFTOOLS_CALL_01:BCFTOOL_MERGE_BED</text>
</g>
<!-- p38&#45;&gt;p40 -->
<g id="edge44" class="edge"><title>p38&#45;&gt;p40</title>
<path fill="none" stroke="black" d="M524.532,-1170.27C525.876,-1163.35 529.526,-1144.58 532.689,-1128.32"/>
<polygon fill="black" stroke="black" points="536.194,-1128.63 534.667,-1118.14 529.322,-1127.29 536.194,-1128.63"/>
</g>
<!-- p45 -->
<g id="node44" class="node"><title>p45</title>
<ellipse fill="none" stroke="black" cx="225" cy="-878" rx="3.25" ry="3.5"/>
<text text-anchor="middle" x="208" y="-885.3" font-family="Times,serif" font-size="14.00">mix</text>
</g>
<!-- p41&#45;&gt;p45 -->
<g id="edge48" class="edge"><title>p41&#45;&gt;p45</title>
<path fill="none" stroke="black" d="M211.22,-1036.49C212.664,-1019.99 220.82,-926.776 223.859,-892.043"/>
<polygon fill="black" stroke="black" points="227.363,-892.144 224.748,-881.877 220.39,-891.534 227.363,-892.144"/>
<text text-anchor="middle" x="258" y="-962.3" font-family="Times,serif" font-size="14.00">version_ch</text>
</g>
<!-- p42 -->
<g id="node43" class="node"><title>p42</title>
<ellipse fill="none" stroke="black" cx="538" cy="-1040" rx="3.25" ry="3.5"/>
<text text-anchor="middle" x="510" y="-1047.3" font-family="Times,serif" font-size="14.00">collect</text>
</g>
<!-- p40&#45;&gt;p42 -->
<g id="edge46" class="edge"><title>p40&#45;&gt;p42</title>
<path fill="none" stroke="black" d="M538,-1081.91C538,-1072.96 538,-1062.19 538,-1053.94"/>
<polygon fill="black" stroke="black" points="541.5,-1053.69 538,-1043.69 534.5,-1053.69 541.5,-1053.69"/>
</g>
<!-- p40&#45;&gt;p41 -->
<g id="edge47" class="edge"><title>p40&#45;&gt;p41</title>
<path fill="none" stroke="black" d="M449.509,-1083.3C370.325,-1069.26 261.173,-1049.9 224,-1043.31"/>
<polygon fill="black" stroke="black" points="224.478,-1039.84 214.02,-1041.54 223.255,-1046.73 224.478,-1039.84"/>
</g>
<!-- p39 -->
<g id="node42" class="node"><title>p39</title>
<ellipse fill="black" stroke="black" cx="486" cy="-1174" rx="3.6" ry="3.6"/>
</g>
<!-- p39&#45;&gt;p40 -->
<g id="edge45" class="edge"><title>p39&#45;&gt;p40</title>
<path fill="none" stroke="black" d="M485.348,-1170.08C484.046,-1163.5 481.752,-1147.25 488,-1136 490.352,-1131.77 493.459,-1127.93 496.976,-1124.48"/>
<polygon fill="black" stroke="black" points="499.309,-1127.09 504.66,-1117.94 494.775,-1121.76 499.309,-1127.09"/>
<text text-anchor="middle" x="506.5" y="-1140.3" font-family="Times,serif" font-size="14.00">meta</text>
</g>
<!-- p44 -->
<g id="node45" class="node"><title>p44</title>
<ellipse fill="none" stroke="black" cx="536" cy="-966" rx="229.145" ry="18"/>
<text text-anchor="middle" x="536" y="-962.3" font-family="Times,serif" font-size="14.00">BCFTOOLS_CALL_01:COLLECT_TO_FILE_01</text>
</g>
<!-- p42&#45;&gt;p44 -->
<g id="edge49" class="edge"><title>p42&#45;&gt;p44</title>
<path fill="none" stroke="black" d="M537.924,-1036.27C537.732,-1029.35 537.211,-1010.58 536.759,-994.316"/>
<polygon fill="black" stroke="black" points="540.253,-994.042 536.476,-984.143 533.255,-994.236 540.253,-994.042"/>
</g>
<!-- p67 -->
<g id="node48" class="node"><title>p67</title>
<ellipse fill="none" stroke="black" cx="320" cy="-282" rx="3.25" ry="3.5"/>
<text text-anchor="middle" x="303" y="-289.3" font-family="Times,serif" font-size="14.00">mix</text>
</g>
<!-- p45&#45;&gt;p67 -->
<g id="edge53" class="edge"><title>p45&#45;&gt;p67</title>
<path fill="none" stroke="black" d="M225,-874.341C225,-866.114 225,-840.347 225,-819 225,-819 225,-819 225,-341 225,-303.137 280.652,-289.256 306.766,-284.827"/>
<polygon fill="black" stroke="black" points="307.454,-288.264 316.839,-283.349 306.437,-281.338 307.454,-288.264"/>
<text text-anchor="middle" x="264" y="-590.3" font-family="Times,serif" font-size="14.00">version_ch</text>
</g>
<!-- p48 -->
<g id="node47" class="node"><title>p48</title>
<ellipse fill="none" stroke="black" cx="774" cy="-878" rx="295.586" ry="18"/>
<text text-anchor="middle" x="774" y="-874.3" font-family="Times,serif" font-size="14.00">BCFTOOLS_CALL_01:BCFTOOLS_CONCAT_01:SQRT_FILE</text>
</g>
<!-- p44&#45;&gt;p48 -->
<g id="edge51" class="edge"><title>p44&#45;&gt;p48</title>
<path fill="none" stroke="black" d="M582.171,-948.316C620.966,-934.298 676.542,-914.216 717.896,-899.273"/>
<polygon fill="black" stroke="black" points="719.336,-902.474 727.552,-895.784 716.957,-895.891 719.336,-902.474"/>
<text text-anchor="middle" x="692" y="-918.3" font-family="Times,serif" font-size="14.00">vcfs</text>
</g>
<!-- p44&#45;&gt;p45 -->
<g id="edge52" class="edge"><title>p44&#45;&gt;p45</title>
<path fill="none" stroke="black" d="M476.404,-948.52C401.285,-927.748 277.177,-893.428 237.563,-882.474"/>
<polygon fill="black" stroke="black" points="238.41,-879.077 227.839,-879.785 236.545,-885.824 238.41,-879.077"/>
</g>
<!-- p43 -->
<g id="node46" class="node"><title>p43</title>
<ellipse fill="black" stroke="black" cx="486" cy="-1040" rx="3.6" ry="3.6"/>
</g>
<!-- p43&#45;&gt;p44 -->
<g id="edge50" class="edge"><title>p43&#45;&gt;p44</title>
<path fill="none" stroke="black" d="M486.215,-1036.08C486.814,-1029.52 488.954,-1013.29 496,-1002 498.373,-998.199 501.284,-994.58 504.446,-991.211"/>
<polygon fill="black" stroke="black" points="506.882,-993.724 511.651,-984.263 502.023,-988.685 506.882,-993.724"/>
<text text-anchor="middle" x="514.5" y="-1006.3" font-family="Times,serif" font-size="14.00">meta</text>
</g>
<!-- p50 -->
<g id="node52" class="node"><title>p50</title>
<ellipse fill="none" stroke="black" cx="786" cy="-818" rx="3.25" ry="3.5"/>
<text text-anchor="middle" x="750.5" y="-825.3" font-family="Times,serif" font-size="14.00">splitText</text>
</g>
<!-- p48&#45;&gt;p50 -->
<g id="edge56" class="edge"><title>p48&#45;&gt;p50</title>
<path fill="none" stroke="black" d="M777.535,-859.912C779.409,-850.858 781.67,-839.93 783.383,-831.647"/>
<polygon fill="black" stroke="black" points="786.845,-832.193 785.443,-821.691 779.99,-830.774 786.845,-832.193"/>
</g>
<!-- p49 -->
<g id="node53" class="node"><title>p49</title>
<ellipse fill="black" stroke="black" cx="761" cy="-818" rx="1.8" ry="1.8"/>
</g>
<!-- p48&#45;&gt;p49 -->
<g id="edge57" class="edge"><title>p48&#45;&gt;p49</title>
<path fill="none" stroke="black" d="M770.17,-859.912C767.994,-850.205 765.335,-838.342 763.442,-829.896"/>
<polygon fill="black" stroke="black" points="766.839,-829.049 761.237,-820.056 760.009,-830.58 766.839,-829.049"/>
</g>
<!-- p68 -->
<g id="node69" class="node"><title>p68</title>
<ellipse fill="none" stroke="black" cx="320" cy="-222" rx="3.25" ry="3.5"/>
<text text-anchor="middle" x="292" y="-229.3" font-family="Times,serif" font-size="14.00">collect</text>
</g>
<!-- p67&#45;&gt;p68 -->
<g id="edge76" class="edge"><title>p67&#45;&gt;p68</title>
<path fill="none" stroke="black" d="M320,-278.203C320,-270.649 320,-249.48 320,-235.66"/>
<polygon fill="black" stroke="black" points="323.5,-235.636 320,-225.636 316.5,-235.636 323.5,-235.636"/>
<text text-anchor="middle" x="359" y="-248.3" font-family="Times,serif" font-size="14.00">version_ch</text>
</g>
<!-- p46 -->
<g id="node49" class="node"><title>p46</title>
<ellipse fill="black" stroke="black" cx="336" cy="-698" rx="3.6" ry="3.6"/>
<text text-anchor="middle" x="277.9" y="-705.4" font-family="Times,serif" font-size="14.00">Channel.empty</text>
</g>
<!-- p55 -->
<g id="node50" class="node"><title>p55</title>
<ellipse fill="none" stroke="black" cx="336" cy="-624" rx="3.25" ry="3.5"/>
<text text-anchor="middle" x="319" y="-631.3" font-family="Times,serif" font-size="14.00">mix</text>
</g>
<!-- p46&#45;&gt;p55 -->
<g id="edge54" class="edge"><title>p46&#45;&gt;p55</title>
<path fill="none" stroke="black" d="M336,-694.265C336,-685.133 336,-655.282 336,-637.892"/>
<polygon fill="black" stroke="black" points="339.5,-637.737 336,-627.737 332.5,-637.737 339.5,-637.737"/>
<text text-anchor="middle" x="375" y="-650.3" font-family="Times,serif" font-size="14.00">version_ch</text>
</g>
<!-- p61 -->
<g id="node59" class="node"><title>p61</title>
<ellipse fill="none" stroke="black" cx="711" cy="-476" rx="3.25" ry="3.5"/>
<text text-anchor="middle" x="694" y="-483.3" font-family="Times,serif" font-size="14.00">mix</text>
</g>
<!-- p55&#45;&gt;p61 -->
<g id="edge64" class="edge"><title>p55&#45;&gt;p61</title>
<path fill="none" stroke="black" d="M335.024,-620.328C330.81,-608.277 315.427,-558.421 339,-532 387.793,-477.311 637.148,-476.245 697.726,-476.81"/>
<polygon fill="black" stroke="black" points="697.813,-480.311 707.858,-476.94 697.903,-473.312 697.813,-480.311"/>
<text text-anchor="middle" x="378" y="-546.3" font-family="Times,serif" font-size="14.00">version_ch</text>
</g>
<!-- p47 -->
<g id="node51" class="node"><title>p47</title>
<ellipse fill="black" stroke="black" cx="787" cy="-966" rx="3.6" ry="3.6"/>
</g>
<!-- p47&#45;&gt;p48 -->
<g id="edge55" class="edge"><title>p47&#45;&gt;p48</title>
<path fill="none" stroke="black" d="M786.567,-962.139C785.256,-953.462 781.221,-926.767 778.073,-905.942"/>
<polygon fill="black" stroke="black" points="781.526,-905.368 776.57,-896.004 774.604,-906.415 781.526,-905.368"/>
<text text-anchor="middle" x="800.5" y="-918.3" font-family="Times,serif" font-size="14.00">meta</text>
</g>
<!-- p51 -->
<g id="node54" class="node"><title>p51</title>
<ellipse fill="none" stroke="black" cx="786" cy="-772" rx="3.25" ry="3.5"/>
<text text-anchor="middle" x="767" y="-779.3" font-family="Times,serif" font-size="14.00">map</text>
</g>
<!-- p50&#45;&gt;p51 -->
<g id="edge58" class="edge"><title>p50&#45;&gt;p51</title>
<path fill="none" stroke="black" d="M786,-814.379C786,-808.864 786,-795.742 786,-785.742"/>
<polygon fill="black" stroke="black" points="789.5,-785.552 786,-775.552 782.5,-785.552 789.5,-785.552"/>
</g>
<!-- p53 -->
<g id="node55" class="node"><title>p53</title>
<ellipse fill="none" stroke="black" cx="773" cy="-698" rx="409.196" ry="18"/>
<text text-anchor="middle" x="773" y="-694.3" font-family="Times,serif" font-size="14.00">BCFTOOLS_CALL_01:BCFTOOLS_CONCAT_01:BCFTOOL_CONCAT_FILE_LIST_01</text>
</g>
<!-- p51&#45;&gt;p53 -->
<g id="edge59" class="edge"><title>p51&#45;&gt;p53</title>
<path fill="none" stroke="black" d="M785.506,-768.265C784.258,-761.354 780.868,-742.578 777.932,-726.316"/>
<polygon fill="black" stroke="black" points="781.316,-725.362 776.095,-716.143 774.428,-726.606 781.316,-725.362"/>
<text text-anchor="middle" x="804.5" y="-738.3" font-family="Times,serif" font-size="14.00">d2_ch</text>
</g>
<!-- p56 -->
<g id="node57" class="node"><title>p56</title>
<ellipse fill="none" stroke="black" cx="774" cy="-624" rx="3.25" ry="3.5"/>
<text text-anchor="middle" x="746" y="-631.3" font-family="Times,serif" font-size="14.00">collect</text>
</g>
<!-- p53&#45;&gt;p56 -->
<g id="edge61" class="edge"><title>p53&#45;&gt;p56</title>
<path fill="none" stroke="black" d="M773.237,-679.937C773.415,-667.126 773.655,-649.843 773.818,-638.107"/>
<polygon fill="black" stroke="black" points="777.323,-637.796 773.962,-627.748 770.323,-637.699 777.323,-637.796"/>
</g>
<!-- p54 -->
<g id="node58" class="node"><title>p54</title>
<ellipse fill="black" stroke="black" cx="798" cy="-624" rx="1.8" ry="1.8"/>
</g>
<!-- p53&#45;&gt;p54 -->
<g id="edge62" class="edge"><title>p53&#45;&gt;p54</title>
<path fill="none" stroke="black" d="M778.925,-679.937C783.74,-666.069 790.376,-646.958 794.417,-635.319"/>
<polygon fill="black" stroke="black" points="797.731,-636.444 797.705,-625.849 791.119,-634.148 797.731,-636.444"/>
</g>
<!-- p53&#45;&gt;p55 -->
<g id="edge63" class="edge"><title>p53&#45;&gt;p55</title>
<path fill="none" stroke="black" d="M673.017,-680.527C563.397,-662.466 396.709,-635.002 349.107,-627.16"/>
<polygon fill="black" stroke="black" points="349.421,-623.664 338.985,-625.492 348.283,-630.571 349.421,-623.664"/>
</g>
<!-- p52 -->
<g id="node56" class="node"><title>p52</title>
<ellipse fill="black" stroke="black" cx="726" cy="-772" rx="3.6" ry="3.6"/>
</g>
<!-- p52&#45;&gt;p53 -->
<g id="edge60" class="edge"><title>p52&#45;&gt;p53</title>
<path fill="none" stroke="black" d="M726.565,-768.125C727.929,-761.648 731.832,-745.578 739,-734 741.146,-730.534 743.687,-727.134 746.398,-723.898"/>
<polygon fill="black" stroke="black" points="749.219,-725.999 753.361,-716.247 744.042,-721.287 749.219,-725.999"/>
<text text-anchor="middle" x="757.5" y="-738.3" font-family="Times,serif" font-size="14.00">meta</text>
</g>
<!-- p58 -->
<g id="node60" class="node"><title>p58</title>
<ellipse fill="none" stroke="black" cx="833" cy="-550" rx="406.296" ry="18"/>
<text text-anchor="middle" x="833" y="-546.3" font-family="Times,serif" font-size="14.00">BCFTOOLS_CALL_01:BCFTOOLS_CONCAT_01:BCFTOOL_CONCAT_COLLECT_01</text>
</g>
<!-- p56&#45;&gt;p58 -->
<g id="edge65" class="edge"><title>p56&#45;&gt;p58</title>
<path fill="none" stroke="black" d="M775.702,-620.923C781.093,-614.344 798.268,-593.385 812.42,-576.114"/>
<polygon fill="black" stroke="black" points="815.429,-577.965 819.06,-568.012 810.014,-573.528 815.429,-577.965"/>
</g>
<!-- p62 -->
<g id="node64" class="node"><title>p62</title>
<ellipse fill="none" stroke="black" cx="711" cy="-416" rx="3.25" ry="3.5"/>
<text text-anchor="middle" x="683" y="-423.3" font-family="Times,serif" font-size="14.00">collect</text>
</g>
<!-- p61&#45;&gt;p62 -->
<g id="edge70" class="edge"><title>p61&#45;&gt;p62</title>
<path fill="none" stroke="black" d="M711,-472.203C711,-464.649 711,-443.48 711,-429.66"/>
<polygon fill="black" stroke="black" points="714.5,-429.636 711,-419.636 707.5,-429.636 714.5,-429.636"/>
<text text-anchor="middle" x="750" y="-442.3" font-family="Times,serif" font-size="14.00">version_ch</text>
</g>
<!-- p60 -->
<g id="node62" class="node"><title>p60</title>
<ellipse fill="black" stroke="black" cx="810" cy="-476" rx="1.8" ry="1.8"/>
</g>
<!-- p58&#45;&gt;p60 -->
<g id="edge67" class="edge"><title>p58&#45;&gt;p60</title>
<path fill="none" stroke="black" d="M824.852,-531.803C822.414,-526.212 819.889,-519.92 818,-514 815.273,-505.454 813.179,-495.502 811.819,-488.073"/>
<polygon fill="black" stroke="black" points="815.226,-487.223 810.134,-477.932 808.321,-488.371 815.226,-487.223"/>
<text text-anchor="middle" x="829" y="-502.3" font-family="Times,serif" font-size="14.00">vcf</text>
</g>
<!-- p59 -->
<g id="node63" class="node"><title>p59</title>
<ellipse fill="black" stroke="black" cx="855" cy="-476" rx="1.8" ry="1.8"/>
</g>
<!-- p58&#45;&gt;p59 -->
<g id="edge68" class="edge"><title>p58&#45;&gt;p59</title>
<path fill="none" stroke="black" d="M838.214,-531.937C842.405,-518.219 848.164,-499.373 851.73,-487.701"/>
<polygon fill="black" stroke="black" points="855.165,-488.436 854.741,-477.849 848.471,-486.39 855.165,-488.436"/>
<text text-anchor="middle" x="868" y="-502.3" font-family="Times,serif" font-size="14.00">index</text>
</g>
<!-- p58&#45;&gt;p61 -->
<g id="edge69" class="edge"><title>p58&#45;&gt;p61</title>
<path fill="none" stroke="black" d="M804.088,-531.937C777.946,-516.509 740.813,-494.594 722.343,-483.694"/>
<polygon fill="black" stroke="black" points="723.911,-480.556 713.52,-478.487 720.353,-486.584 723.911,-480.556"/>
</g>
<!-- p57 -->
<g id="node61" class="node"><title>p57</title>
<ellipse fill="black" stroke="black" cx="833" cy="-624" rx="3.6" ry="3.6"/>
</g>
<!-- p57&#45;&gt;p58 -->
<g id="edge66" class="edge"><title>p57&#45;&gt;p58</title>
<path fill="none" stroke="black" d="M833,-620.265C833,-613.354 833,-594.578 833,-578.316"/>
<polygon fill="black" stroke="black" points="836.5,-578.143 833,-568.143 829.5,-578.143 836.5,-578.143"/>
<text text-anchor="middle" x="851.5" y="-590.3" font-family="Times,serif" font-size="14.00">meta</text>
</g>
<!-- p66 -->
<g id="node65" class="node"><title>p66</title>
<ellipse fill="none" stroke="black" cx="582" cy="-342" rx="328.306" ry="18"/>
<text text-anchor="middle" x="582" y="-338.3" font-family="Times,serif" font-size="14.00">BCFTOOLS_CALL_01:BCFTOOLS_CONCAT_01:MERGE_VERSION</text>
</g>
<!-- p62&#45;&gt;p66 -->
<g id="edge71" class="edge"><title>p62&#45;&gt;p66</title>
<path fill="none" stroke="black" d="M710.278,-412.218C708.356,-405.361 702.46,-387.516 691,-378 684.223,-372.373 676.525,-367.645 668.429,-363.674"/>
<polygon fill="black" stroke="black" points="669.703,-360.409 659.147,-359.504 666.835,-366.794 669.703,-360.409"/>
</g>
<!-- p66&#45;&gt;p67 -->
<g id="edge75" class="edge"><title>p66&#45;&gt;p67</title>
<path fill="none" stroke="black" d="M507.272,-324.457C445.856,-310.861 364.067,-292.755 332.848,-285.844"/>
<polygon fill="black" stroke="black" points="333.53,-282.411 323.01,-283.666 332.017,-289.245 333.53,-282.411"/>
</g>
<!-- p63 -->
<g id="node66" class="node"><title>p63</title>
<ellipse fill="black" stroke="black" cx="491" cy="-416" rx="3.6" ry="3.6"/>
</g>
<!-- p63&#45;&gt;p66 -->
<g id="edge72" class="edge"><title>p63&#45;&gt;p66</title>
<path fill="none" stroke="black" d="M491.647,-412.312C493.372,-405.67 498.666,-388.275 509,-378 513.888,-373.139 519.583,-368.857 525.596,-365.109"/>
<polygon fill="black" stroke="black" points="527.618,-367.985 534.576,-359.995 524.154,-361.902 527.618,-367.985"/>
<text text-anchor="middle" x="527.5" y="-382.3" font-family="Times,serif" font-size="14.00">meta</text>
</g>
<!-- p64 -->
<g id="node67" class="node"><title>p64</title>
<ellipse fill="black" stroke="black" cx="551" cy="-416" rx="3.6" ry="3.6"/>
</g>
<!-- p64&#45;&gt;p66 -->
<g id="edge73" class="edge"><title>p64&#45;&gt;p66</title>
<path fill="none" stroke="black" d="M550.459,-412.185C549.368,-405.83 547.379,-389.992 552,-378 553.276,-374.689 555.01,-371.474 557.006,-368.422"/>
<polygon fill="black" stroke="black" points="559.905,-370.391 563.156,-360.308 554.326,-366.163 559.905,-370.391"/>
<text text-anchor="middle" x="572" y="-382.3" font-family="Times,serif" font-size="14.00">name</text>
</g>
<!-- p65 -->
<g id="node68" class="node"><title>p65</title>
<ellipse fill="black" stroke="black" cx="614" cy="-416" rx="3.6" ry="3.6"/>
</g>
<!-- p65&#45;&gt;p66 -->
<g id="edge74" class="edge"><title>p65&#45;&gt;p66</title>
<path fill="none" stroke="black" d="M612.785,-412.265C609.654,-405.222 601.048,-385.859 593.729,-369.39"/>
<polygon fill="black" stroke="black" points="596.879,-367.86 589.619,-360.143 590.482,-370.703 596.879,-367.86"/>
<text text-anchor="middle" x="646" y="-382.3" font-family="Times,serif" font-size="14.00">description</text>
</g>
<!-- p72 -->
<g id="node70" class="node"><title>p72</title>
<ellipse fill="none" stroke="black" cx="383" cy="-148" rx="206.048" ry="18"/>
<text text-anchor="middle" x="383" y="-144.3" font-family="Times,serif" font-size="14.00">BCFTOOLS_CALL_01:MERGE_VERSION</text>
</g>
<!-- p68&#45;&gt;p72 -->
<g id="edge77" class="edge"><title>p68&#45;&gt;p72</title>
<path fill="none" stroke="black" d="M321.66,-218.574C325.835,-212.529 337.206,-196.392 348,-184 351.067,-180.479 354.41,-176.875 357.772,-173.383"/>
<polygon fill="black" stroke="black" points="360.533,-175.568 365.065,-165.991 355.55,-170.651 360.533,-175.568"/>
</g>
<!-- p74 -->
<g id="node74" class="node"><title>p74</title>
<ellipse fill="none" stroke="black" cx="546" cy="-60" rx="111.186" ry="18"/>
<text text-anchor="middle" x="546" y="-56.3" font-family="Times,serif" font-size="14.00">VERSION_TO_HTML</text>
</g>
<!-- p72&#45;&gt;p74 -->
<g id="edge81" class="edge"><title>p72&#45;&gt;p74</title>
<path fill="none" stroke="black" d="M414.815,-130.214C440.869,-116.468 477.877,-96.9423 505.947,-82.1324"/>
<polygon fill="black" stroke="black" points="507.883,-85.0679 515.095,-77.3059 504.617,-78.8768 507.883,-85.0679"/>
</g>
<!-- p69 -->
<g id="node71" class="node"><title>p69</title>
<ellipse fill="black" stroke="black" cx="353" cy="-222" rx="3.6" ry="3.6"/>
</g>
<!-- p69&#45;&gt;p72 -->
<g id="edge78" class="edge"><title>p69&#45;&gt;p72</title>
<path fill="none" stroke="black" d="M352.474,-218.19C351.412,-211.846 349.479,-196.03 354,-184 355.26,-180.648 356.984,-177.385 358.968,-174.284"/>
<polygon fill="black" stroke="black" points="361.938,-176.156 365.081,-166.038 356.314,-171.987 361.938,-176.156"/>
<text text-anchor="middle" x="372.5" y="-188.3" font-family="Times,serif" font-size="14.00">meta</text>
</g>
<!-- p70 -->
<g id="node72" class="node"><title>p70</title>
<ellipse fill="black" stroke="black" cx="413" cy="-222" rx="3.6" ry="3.6"/>
</g>
<!-- p70&#45;&gt;p72 -->
<g id="edge79" class="edge"><title>p70&#45;&gt;p72</title>
<path fill="none" stroke="black" d="M411.861,-218.265C408.926,-211.222 400.858,-191.859 393.996,-175.39"/>
<polygon fill="black" stroke="black" points="397.22,-174.027 390.143,-166.143 390.758,-176.72 397.22,-174.027"/>
<text text-anchor="middle" x="425" y="-188.3" font-family="Times,serif" font-size="14.00">name</text>
</g>
<!-- p71 -->
<g id="node73" class="node"><title>p71</title>
<ellipse fill="black" stroke="black" cx="476" cy="-222" rx="3.6" ry="3.6"/>
</g>
<!-- p71&#45;&gt;p72 -->
<g id="edge80" class="edge"><title>p71&#45;&gt;p72</title>
<path fill="none" stroke="black" d="M474.628,-218.355C471.126,-211.811 461.26,-194.623 449,-184 443.407,-179.153 437.028,-174.729 430.491,-170.778"/>
<polygon fill="black" stroke="black" points="431.963,-167.589 421.539,-165.69 428.504,-173.674 431.963,-167.589"/>
<text text-anchor="middle" x="505" y="-188.3" font-family="Times,serif" font-size="14.00">description</text>
</g>
<!-- p75 -->
<g id="node76" class="node"><title>p75</title>
<ellipse fill="black" stroke="black" cx="546" cy="-2" rx="1.8" ry="1.8"/>
</g>
<!-- p74&#45;&gt;p75 -->
<g id="edge83" class="edge"><title>p74&#45;&gt;p75</title>
<path fill="none" stroke="black" d="M546,-41.8939C546,-32.8876 546,-22.0999 546,-14.1727"/>
<polygon fill="black" stroke="black" points="549.5,-13.9957 546,-3.99575 542.5,-13.9958 549.5,-13.9957"/>
</g>
<!-- p73 -->
<g id="node75" class="node"><title>p73</title>
<ellipse fill="black" stroke="black" cx="611" cy="-148" rx="3.6" ry="3.6"/>
</g>
<!-- p73&#45;&gt;p74 -->
<g id="edge82" class="edge"><title>p73&#45;&gt;p74</title>
<path fill="none" stroke="black" d="M609.125,-144.519C602.693,-136.009 581.035,-107.354 564.87,-85.9664"/>
<polygon fill="black" stroke="black" points="567.593,-83.7651 558.772,-77.8978 562.009,-87.9859 567.593,-83.7651"/>
<text text-anchor="middle" x="603.5" y="-100.3" font-family="Times,serif" font-size="14.00">meta</text>
</g>
</g>
</svg>
