<?xml version="1.0" encoding="UTF-8" standalone="no"?>
<!DOCTYPE svg PUBLIC "-//W3C//DTD SVG 1.1//EN"
 "http://www.w3.org/Graphics/SVG/1.1/DTD/svg11.dtd">
<!-- Generated by graphviz version 2.30.1 (20201013.1554)
 -->
<!-- Title: 20220629gazoductestpihatcasectrlworkflow Pages: 1 -->
<svg width="1883pt" height="1219pt"
 viewBox="0.00 0.00 1883.00 1218.60" xmlns="http://www.w3.org/2000/svg" xmlns:xlink="http://www.w3.org/1999/xlink">
<g id="graph0" class="graph" transform="scale(1 1) rotate(0) translate(4 1214.6)">
<title>20220629gazoductestpihatcasectrlworkflow</title>
<polygon fill="white" stroke="white" points="-4,5 -4,-1214.6 1880,-1214.6 1880,5 -4,5"/>
<!-- p0 -->
<g id="node1" class="node"><title>p0</title>
<ellipse fill="black" stroke="black" cx="525.6" cy="-646" rx="3.6" ry="3.6"/>
<text text-anchor="middle" x="480" y="-653.4" font-family="Times,serif" font-size="14.00">Channel.empty</text>
</g>
<!-- p25 -->
<g id="node2" class="node"><title>p25</title>
<ellipse fill="none" stroke="black" cx="897.6" cy="-558" rx="3.25" ry="3.5"/>
<text text-anchor="middle" x="883.1" y="-565.3" font-family="Times,serif" font-size="14.00">mix</text>
</g>
<!-- p0&#45;&gt;p25 -->
<g id="edge1" class="edge"><title>p0&#45;&gt;p25</title>
<path fill="none" stroke="black" d="M526.727,-642.576C528.614,-638.805 532.786,-631.596 538.6,-628 598.818,-590.755 826.782,-566.018 884.339,-560.279"/>
<polygon fill="black" stroke="black" points="884.714,-563.759 894.327,-559.305 884.035,-556.792 884.714,-563.759"/>
<text text-anchor="middle" x="677.1" y="-598.3" font-family="Times,serif" font-size="14.00">version_ch</text>
</g>
<!-- p54 -->
<g id="node28" class="node"><title>p54</title>
<ellipse fill="none" stroke="black" cx="1338.6" cy="-254" rx="3.25" ry="3.5"/>
<text text-anchor="middle" x="1324.1" y="-261.3" font-family="Times,serif" font-size="14.00">mix</text>
</g>
<!-- p25&#45;&gt;p54 -->
<g id="edge31" class="edge"><title>p25&#45;&gt;p54</title>
<path fill="none" stroke="black" d="M900.228,-555.798C913.936,-549.328 976.6,-517.224 976.6,-471 976.6,-471 976.6,-471 976.6,-313 976.6,-276.974 1259.73,-259.306 1325.2,-255.702"/>
<polygon fill="black" stroke="black" points="1325.67,-259.182 1335.47,-255.156 1325.3,-252.192 1325.67,-259.182"/>
<text text-anchor="middle" x="1006.1" y="-388.3" font-family="Times,serif" font-size="14.00">version_ch</text>
</g>
<!-- p1 -->
<g id="node3" class="node"><title>p1</title>
<ellipse fill="black" stroke="black" cx="87.6" cy="-1030" rx="3.6" ry="3.6"/>
<text text-anchor="middle" x="42" y="-1037.4" font-family="Times,serif" font-size="14.00">Channel.empty</text>
</g>
<!-- p7 -->
<g id="node4" class="node"><title>p7</title>
<ellipse fill="none" stroke="black" cx="430.6" cy="-942" rx="3.25" ry="3.5"/>
<text text-anchor="middle" x="416.1" y="-949.3" font-family="Times,serif" font-size="14.00">mix</text>
</g>
<!-- p1&#45;&gt;p7 -->
<g id="edge2" class="edge"><title>p1&#45;&gt;p7</title>
<path fill="none" stroke="black" d="M88.8607,-1026.34C90.813,-1022.52 94.941,-1015.56 100.6,-1012 207.892,-944.429 369.908,-941.808 417.2,-942.6"/>
<polygon fill="black" stroke="black" points="417.269,-946.102 427.356,-942.862 417.45,-939.105 417.269,-946.102"/>
<text text-anchor="middle" x="196.1" y="-982.3" font-family="Times,serif" font-size="14.00">version_ch</text>
</g>
<!-- p13 -->
<g id="node11" class="node"><title>p13</title>
<ellipse fill="none" stroke="black" cx="821.6" cy="-868" rx="3.25" ry="3.5"/>
<text text-anchor="middle" x="807.1" y="-875.3" font-family="Times,serif" font-size="14.00">mix</text>
</g>
<!-- p7&#45;&gt;p13 -->
<g id="edge10" class="edge"><title>p7&#45;&gt;p13</title>
<path fill="none" stroke="black" d="M431.845,-938.542C433.92,-934.726 438.472,-927.455 444.6,-924 509.015,-887.683 748.503,-872.849 808.103,-869.675"/>
<polygon fill="black" stroke="black" points="808.368,-873.166 818.176,-869.161 808.011,-866.175 808.368,-873.166"/>
<text text-anchor="middle" x="608.1" y="-894.3" font-family="Times,serif" font-size="14.00">version_ch</text>
</g>
<!-- p2 -->
<g id="node5" class="node"><title>p2</title>
<ellipse fill="black" stroke="black" cx="392.6" cy="-1118" rx="3.6" ry="3.6"/>
</g>
<!-- p5 -->
<g id="node6" class="node"><title>p5</title>
<ellipse fill="none" stroke="black" cx="443.6" cy="-1030" rx="334.106" ry="18"/>
<text text-anchor="middle" x="443.6" y="-1026.3" font-family="Times,serif" font-size="14.00">PIHAT_CASES_CONTROLS_01:VCF_INTER_CASES_CONTROLS_01:INTER_CASES</text>
</g>
<!-- p2&#45;&gt;p5 -->
<g id="edge3" class="edge"><title>p2&#45;&gt;p5</title>
<path fill="none" stroke="black" d="M393.272,-1114.06C395.213,-1105.96 401.35,-1082.77 411.6,-1066 413.713,-1062.54 416.197,-1059.12 418.83,-1055.85"/>
<polygon fill="black" stroke="black" points="421.652,-1057.94 425.559,-1048.09 416.363,-1053.35 421.652,-1057.94"/>
<text text-anchor="middle" x="425.6" y="-1070.3" font-family="Times,serif" font-size="14.00">meta</text>
</g>
<!-- p15 -->
<g id="node9" class="node"><title>p15</title>
<ellipse fill="none" stroke="black" cx="1148.6" cy="-942" rx="298.46" ry="18"/>
<text text-anchor="middle" x="1148.6" y="-938.3" font-family="Times,serif" font-size="14.00">PIHAT_CASES_CONTROLS_01:VCF_INTER_CASES_CONTROLS_01:UNIQ</text>
</g>
<!-- p5&#45;&gt;p15 -->
<g id="edge6" class="edge"><title>p5&#45;&gt;p15</title>
<path fill="none" stroke="black" d="M567.544,-1013.23C690.859,-997.961 879.72,-974.92 1008.43,-959.435"/>
<polygon fill="black" stroke="black" points="1008.85,-962.909 1018.36,-958.24 1008.02,-955.959 1008.85,-962.909"/>
</g>
<!-- p5&#45;&gt;p15 -->
<g id="edge7" class="edge"><title>p5&#45;&gt;p15</title>
<path fill="none" stroke="black" d="M576.196,-1013.48C702.379,-998.308 891.11,-975.291 1016.97,-959.725"/>
<polygon fill="black" stroke="black" points="1017.56,-963.178 1027.06,-958.477 1016.7,-956.231 1017.56,-963.178"/>
</g>
<!-- p6 -->
<g id="node10" class="node"><title>p6</title>
<ellipse fill="black" stroke="black" cx="455.6" cy="-942" rx="1.8" ry="1.8"/>
</g>
<!-- p5&#45;&gt;p6 -->
<g id="edge8" class="edge"><title>p5&#45;&gt;p6</title>
<path fill="none" stroke="black" d="M446.028,-1011.6C448.412,-994.516 451.977,-968.965 454.017,-954.348"/>
<polygon fill="black" stroke="black" points="457.532,-954.483 455.447,-944.095 450.599,-953.516 457.532,-954.483"/>
</g>
<!-- p5&#45;&gt;p7 -->
<g id="edge9" class="edge"><title>p5&#45;&gt;p7</title>
<path fill="none" stroke="black" d="M440.969,-1011.6C438.467,-995.046 434.763,-970.54 432.525,-955.737"/>
<polygon fill="black" stroke="black" points="435.959,-955.036 431.004,-945.671 429.038,-956.082 435.959,-955.036"/>
</g>
<!-- p3 -->
<g id="node7" class="node"><title>p3</title>
<ellipse fill="black" stroke="black" cx="443.6" cy="-1118" rx="3.6" ry="3.6"/>
</g>
<!-- p3&#45;&gt;p5 -->
<g id="edge4" class="edge"><title>p3&#45;&gt;p5</title>
<path fill="none" stroke="black" d="M443.6,-1114.14C443.6,-1105.5 443.6,-1079.01 443.6,-1058.23"/>
<polygon fill="black" stroke="black" points="447.1,-1058 443.6,-1048 440.1,-1058 447.1,-1058"/>
<text text-anchor="middle" x="452.1" y="-1070.3" font-family="Times,serif" font-size="14.00">vcf</text>
</g>
<!-- p4 -->
<g id="node8" class="node"><title>p4</title>
<ellipse fill="black" stroke="black" cx="483.6" cy="-1118" rx="3.6" ry="3.6"/>
</g>
<!-- p4&#45;&gt;p5 -->
<g id="edge5" class="edge"><title>p4&#45;&gt;p5</title>
<path fill="none" stroke="black" d="M482.473,-1114.21C479.335,-1106.47 470.164,-1084.14 461.6,-1066 460.272,-1063.19 458.846,-1060.27 457.401,-1057.37"/>
<polygon fill="black" stroke="black" points="460.459,-1055.66 452.807,-1048.33 454.219,-1058.83 460.459,-1055.66"/>
<text text-anchor="middle" x="491.1" y="-1070.3" font-family="Times,serif" font-size="14.00">samples</text>
</g>
<!-- p35 -->
<g id="node19" class="node"><title>p35</title>
<ellipse fill="none" stroke="black" cx="1223.6" cy="-868" rx="3.25" ry="3.5"/>
<text text-anchor="middle" x="1196.1" y="-875.3" font-family="Times,serif" font-size="14.00">combine</text>
</g>
<!-- p15&#45;&gt;p35 -->
<g id="edge20" class="edge"><title>p15&#45;&gt;p35</title>
<path fill="none" stroke="black" d="M1176.75,-923.972C1184.29,-918.719 1192.14,-912.572 1198.6,-906 1206.14,-898.337 1212.84,-888.12 1217.41,-880.365"/>
<polygon fill="black" stroke="black" points="1220.5,-882.005 1222.3,-871.564 1214.38,-878.606 1220.5,-882.005"/>
<text text-anchor="middle" x="1234.1" y="-894.3" font-family="Times,serif" font-size="14.00">samples</text>
</g>
<!-- p18 -->
<g id="node20" class="node"><title>p18</title>
<ellipse fill="black" stroke="black" cx="1100.6" cy="-868" rx="1.8" ry="1.8"/>
</g>
<!-- p15&#45;&gt;p18 -->
<g id="edge21" class="edge"><title>p15&#45;&gt;p18</title>
<path fill="none" stroke="black" d="M1124.02,-923.876C1118.19,-918.742 1112.53,-912.678 1108.6,-906 1103.93,-898.073 1101.97,-887.75 1101.16,-880.023"/>
<polygon fill="black" stroke="black" points="1104.65,-879.781 1100.59,-869.995 1097.67,-880.177 1104.65,-879.781"/>
<text text-anchor="middle" x="1132.6" y="-894.3" font-family="Times,serif" font-size="14.00">vcf_only</text>
</g>
<!-- p17 -->
<g id="node21" class="node"><title>p17</title>
<ellipse fill="black" stroke="black" cx="1171.6" cy="-868" rx="1.8" ry="1.8"/>
</g>
<!-- p15&#45;&gt;p17 -->
<g id="edge22" class="edge"><title>p15&#45;&gt;p17</title>
<path fill="none" stroke="black" d="M1154.05,-923.937C1158.43,-910.219 1164.45,-891.373 1168.18,-879.701"/>
<polygon fill="black" stroke="black" points="1171.62,-880.44 1171.33,-869.849 1164.95,-878.31 1171.62,-880.44"/>
<text text-anchor="middle" x="1180.1" y="-894.3" font-family="Times,serif" font-size="14.00">cases</text>
</g>
<!-- p16 -->
<g id="node22" class="node"><title>p16</title>
<ellipse fill="black" stroke="black" cx="1307.6" cy="-868" rx="1.8" ry="1.8"/>
</g>
<!-- p15&#45;&gt;p16 -->
<g id="edge23" class="edge"><title>p15&#45;&gt;p16</title>
<path fill="none" stroke="black" d="M1215.65,-924.414C1230.86,-919.47 1246.63,-913.359 1260.6,-906 1275.39,-898.207 1290.17,-885.582 1299.1,-877.285"/>
<polygon fill="black" stroke="black" points="1301.79,-879.55 1306.55,-870.082 1296.92,-874.518 1301.79,-879.55"/>
<text text-anchor="middle" x="1306.6" y="-894.3" font-family="Times,serif" font-size="14.00">controls</text>
</g>
<!-- p19 -->
<g id="node17" class="node"><title>p19</title>
<ellipse fill="none" stroke="black" cx="979.6" cy="-794" rx="3.25" ry="3.5"/>
<text text-anchor="middle" x="965.1" y="-801.3" font-family="Times,serif" font-size="14.00">mix</text>
</g>
<!-- p15&#45;&gt;p19 -->
<g id="edge24" class="edge"><title>p15&#45;&gt;p19</title>
<path fill="none" stroke="black" d="M1123.47,-923.967C1115.67,-918.436 1107.14,-912.139 1099.6,-906 1056.1,-870.583 1008.24,-823.686 988.68,-804.15"/>
<polygon fill="black" stroke="black" points="991.029,-801.549 981.496,-796.927 986.066,-806.485 991.029,-801.549"/>
</g>
<!-- p13&#45;&gt;p19 -->
<g id="edge18" class="edge"><title>p13&#45;&gt;p19</title>
<path fill="none" stroke="black" d="M824.342,-865.75C841.423,-857.967 933.588,-815.967 967.268,-800.62"/>
<polygon fill="black" stroke="black" points="969.134,-803.616 976.782,-796.284 966.231,-797.246 969.134,-803.616"/>
<text text-anchor="middle" x="930.1" y="-834.3" font-family="Times,serif" font-size="14.00">version_ch</text>
</g>
<!-- p8 -->
<g id="node12" class="node"><title>p8</title>
<ellipse fill="black" stroke="black" cx="1097.6" cy="-1118" rx="3.6" ry="3.6"/>
</g>
<!-- p11 -->
<g id="node13" class="node"><title>p11</title>
<ellipse fill="none" stroke="black" cx="1148.6" cy="-1030" rx="352.378" ry="18"/>
<text text-anchor="middle" x="1148.6" y="-1026.3" font-family="Times,serif" font-size="14.00">PIHAT_CASES_CONTROLS_01:VCF_INTER_CASES_CONTROLS_01:INTER_CONTROLS</text>
</g>
<!-- p8&#45;&gt;p11 -->
<g id="edge11" class="edge"><title>p8&#45;&gt;p11</title>
<path fill="none" stroke="black" d="M1098.27,-1114.06C1100.21,-1105.96 1106.35,-1082.77 1116.6,-1066 1118.71,-1062.54 1121.2,-1059.12 1123.83,-1055.85"/>
<polygon fill="black" stroke="black" points="1126.65,-1057.94 1130.56,-1048.09 1121.36,-1053.35 1126.65,-1057.94"/>
<text text-anchor="middle" x="1130.6" y="-1070.3" font-family="Times,serif" font-size="14.00">meta</text>
</g>
<!-- p11&#45;&gt;p15 -->
<g id="edge14" class="edge"><title>p11&#45;&gt;p15</title>
<path fill="none" stroke="black" d="M1143.05,-1011.6C1141.78,-999.746 1141.52,-983.817 1142.27,-970.292"/>
<polygon fill="black" stroke="black" points="1145.78,-970.332 1143.09,-960.084 1138.8,-969.772 1145.78,-970.332"/>
</g>
<!-- p11&#45;&gt;p15 -->
<g id="edge15" class="edge"><title>p11&#45;&gt;p15</title>
<path fill="none" stroke="black" d="M1154.15,-1011.6C1155.42,-999.746 1155.68,-983.817 1154.93,-970.292"/>
<polygon fill="black" stroke="black" points="1158.4,-969.772 1154.11,-960.084 1151.42,-970.332 1158.4,-969.772"/>
</g>
<!-- p12 -->
<g id="node16" class="node"><title>p12</title>
<ellipse fill="black" stroke="black" cx="1467.6" cy="-942" rx="1.8" ry="1.8"/>
</g>
<!-- p11&#45;&gt;p12 -->
<g id="edge16" class="edge"><title>p11&#45;&gt;p12</title>
<path fill="none" stroke="black" d="M1316.47,-1014.1C1364.35,-1004.02 1414.59,-987.373 1455.6,-960 1458.34,-958.172 1460.65,-955.492 1462.49,-952.797"/>
<polygon fill="black" stroke="black" points="1465.67,-954.268 1467.29,-943.798 1459.49,-950.973 1465.67,-954.268"/>
</g>
<!-- p11&#45;&gt;p13 -->
<g id="edge17" class="edge"><title>p11&#45;&gt;p13</title>
<path fill="none" stroke="black" d="M1013.89,-1013.36C942.82,-1002.36 865.314,-985.076 840.6,-960 819.882,-938.979 819.068,-901.553 820.294,-881.887"/>
<polygon fill="black" stroke="black" points="823.8,-881.981 821.227,-871.703 816.829,-881.342 823.8,-881.981"/>
</g>
<!-- p9 -->
<g id="node14" class="node"><title>p9</title>
<ellipse fill="black" stroke="black" cx="1148.6" cy="-1118" rx="3.6" ry="3.6"/>
</g>
<!-- p9&#45;&gt;p11 -->
<g id="edge12" class="edge"><title>p9&#45;&gt;p11</title>
<path fill="none" stroke="black" d="M1148.6,-1114.14C1148.6,-1105.5 1148.6,-1079.01 1148.6,-1058.23"/>
<polygon fill="black" stroke="black" points="1152.1,-1058 1148.6,-1048 1145.1,-1058 1152.1,-1058"/>
<text text-anchor="middle" x="1157.1" y="-1070.3" font-family="Times,serif" font-size="14.00">vcf</text>
</g>
<!-- p10 -->
<g id="node15" class="node"><title>p10</title>
<ellipse fill="black" stroke="black" cx="1188.6" cy="-1118" rx="3.6" ry="3.6"/>
</g>
<!-- p10&#45;&gt;p11 -->
<g id="edge13" class="edge"><title>p10&#45;&gt;p11</title>
<path fill="none" stroke="black" d="M1187.47,-1114.21C1184.33,-1106.47 1175.16,-1084.14 1166.6,-1066 1165.27,-1063.19 1163.85,-1060.27 1162.4,-1057.37"/>
<polygon fill="black" stroke="black" points="1165.46,-1055.66 1157.81,-1048.33 1159.22,-1058.83 1165.46,-1055.66"/>
<text text-anchor="middle" x="1196.1" y="-1070.3" font-family="Times,serif" font-size="14.00">samples</text>
</g>
<!-- p20 -->
<g id="node23" class="node"><title>p20</title>
<ellipse fill="none" stroke="black" cx="979.6" cy="-720" rx="3.25" ry="3.5"/>
<text text-anchor="middle" x="957.6" y="-727.3" font-family="Times,serif" font-size="14.00">collect</text>
</g>
<!-- p19&#45;&gt;p20 -->
<g id="edge25" class="edge"><title>p19&#45;&gt;p20</title>
<path fill="none" stroke="black" d="M979.6,-790.265C979.6,-781.133 979.6,-751.282 979.6,-733.892"/>
<polygon fill="black" stroke="black" points="983.1,-733.737 979.6,-723.737 976.1,-733.737 983.1,-733.737"/>
<text text-anchor="middle" x="1009.1" y="-746.3" font-family="Times,serif" font-size="14.00">version_ch</text>
</g>
<!-- p14 -->
<g id="node18" class="node"><title>p14</title>
<ellipse fill="black" stroke="black" cx="1523.6" cy="-1030" rx="3.6" ry="3.6"/>
</g>
<!-- p14&#45;&gt;p15 -->
<g id="edge19" class="edge"><title>p14&#45;&gt;p15</title>
<path fill="none" stroke="black" d="M1522.34,-1026.57C1520.24,-1022.8 1515.65,-1015.59 1509.6,-1012 1463.23,-984.496 1408.15,-967.631 1355.15,-957.379"/>
<polygon fill="black" stroke="black" points="1355.75,-953.931 1345.28,-955.54 1354.47,-960.813 1355.75,-953.931"/>
<text text-anchor="middle" x="1488.6" y="-982.3" font-family="Times,serif" font-size="14.00">meta</text>
</g>
<!-- p38 -->
<g id="node39" class="node"><title>p38</title>
<ellipse fill="none" stroke="black" cx="1269.6" cy="-794" rx="253.216" ry="18"/>
<text text-anchor="middle" x="1269.6" y="-790.3" font-family="Times,serif" font-size="14.00">PIHAT_CASES_CONTROLS_01:PIHAT01:PLINK_PER_CONTIG</text>
</g>
<!-- p35&#45;&gt;p38 -->
<g id="edge41" class="edge"><title>p35&#45;&gt;p38</title>
<path fill="none" stroke="black" d="M1222.53,-864.487C1220.06,-858.244 1214.58,-841.69 1220.6,-830 1222.73,-825.862 1225.6,-822.105 1228.89,-818.721"/>
<polygon fill="black" stroke="black" points="1231.44,-821.14 1236.63,-811.907 1226.81,-815.885 1231.44,-821.14"/>
<text text-anchor="middle" x="1247.1" y="-834.3" font-family="Times,serif" font-size="14.00">ctgvcf_ch</text>
</g>
<!-- p24 -->
<g id="node24" class="node"><title>p24</title>
<ellipse fill="none" stroke="black" cx="897.6" cy="-646" rx="349.979" ry="18"/>
<text text-anchor="middle" x="897.6" y="-642.3" font-family="Times,serif" font-size="14.00">PIHAT_CASES_CONTROLS_01:VCF_INTER_CASES_CONTROLS_01:MERGE_VERSION</text>
</g>
<!-- p20&#45;&gt;p24 -->
<g id="edge26" class="edge"><title>p20&#45;&gt;p24</title>
<path fill="none" stroke="black" d="M978.668,-716.362C976.253,-709.834 969.23,-692.679 958.6,-682 954.078,-677.457 948.845,-673.305 943.383,-669.575"/>
<polygon fill="black" stroke="black" points="945.003,-666.458 934.681,-664.066 941.258,-672.372 945.003,-666.458"/>
</g>
<!-- p24&#45;&gt;p25 -->
<g id="edge30" class="edge"><title>p24&#45;&gt;p25</title>
<path fill="none" stroke="black" d="M897.6,-627.597C897.6,-611.046 897.6,-586.54 897.6,-571.737"/>
<polygon fill="black" stroke="black" points="901.1,-571.671 897.6,-561.671 894.1,-571.671 901.1,-571.671"/>
</g>
<!-- p21 -->
<g id="node25" class="node"><title>p21</title>
<ellipse fill="black" stroke="black" cx="882.6" cy="-720" rx="3.6" ry="3.6"/>
</g>
<!-- p21&#45;&gt;p24 -->
<g id="edge27" class="edge"><title>p21&#45;&gt;p24</title>
<path fill="none" stroke="black" d="M882.349,-716.27C881.852,-710.089 880.999,-694.586 883.6,-682 884.164,-679.27 884.928,-676.48 885.81,-673.725"/>
<polygon fill="black" stroke="black" points="889.194,-674.664 889.372,-664.071 882.626,-672.241 889.194,-674.664"/>
<text text-anchor="middle" x="897.6" y="-686.3" font-family="Times,serif" font-size="14.00">meta</text>
</g>
<!-- p22 -->
<g id="node26" class="node"><title>p22</title>
<ellipse fill="black" stroke="black" cx="933.6" cy="-720" rx="3.6" ry="3.6"/>
</g>
<!-- p22&#45;&gt;p24 -->
<g id="edge28" class="edge"><title>p22&#45;&gt;p24</title>
<path fill="none" stroke="black" d="M932.402,-716.604C929.037,-709.873 919.195,-690.19 910.833,-673.465"/>
<polygon fill="black" stroke="black" points="913.743,-671.459 906.14,-664.08 907.482,-674.59 913.743,-671.459"/>
<text text-anchor="middle" x="939.1" y="-686.3" font-family="Times,serif" font-size="14.00">name</text>
</g>
<!-- p23 -->
<g id="node27" class="node"><title>p23</title>
<ellipse fill="black" stroke="black" cx="798.6" cy="-720" rx="3.6" ry="3.6"/>
</g>
<!-- p23&#45;&gt;p24 -->
<g id="edge29" class="edge"><title>p23&#45;&gt;p24</title>
<path fill="none" stroke="black" d="M799.305,-716.289C801.174,-709.594 806.866,-692.089 817.6,-682 822.992,-676.932 829.237,-672.524 835.812,-668.709"/>
<polygon fill="black" stroke="black" points="837.743,-671.647 844.935,-663.868 834.461,-665.464 837.743,-671.647"/>
<text text-anchor="middle" x="848.1" y="-686.3" font-family="Times,serif" font-size="14.00">description</text>
</g>
<!-- p61 -->
<g id="node57" class="node"><title>p61</title>
<ellipse fill="none" stroke="black" cx="1523.6" cy="-194" rx="3.25" ry="3.5"/>
<text text-anchor="middle" x="1509.1" y="-201.3" font-family="Times,serif" font-size="14.00">mix</text>
</g>
<!-- p54&#45;&gt;p61 -->
<g id="edge62" class="edge"><title>p54&#45;&gt;p61</title>
<path fill="none" stroke="black" d="M1341.51,-252.089C1361,-245.977 1473.12,-210.827 1511.06,-198.933"/>
<polygon fill="black" stroke="black" points="1512.34,-202.198 1520.84,-195.866 1510.25,-195.518 1512.34,-202.198"/>
<text text-anchor="middle" x="1483.1" y="-220.3" font-family="Times,serif" font-size="14.00">version_ch</text>
</g>
<!-- p26 -->
<g id="node29" class="node"><title>p26</title>
<ellipse fill="black" stroke="black" cx="1794.6" cy="-1118" rx="3.6" ry="3.6"/>
<text text-anchor="middle" x="1833" y="-1125.4" font-family="Times,serif" font-size="14.00">Channel.empty</text>
</g>
<!-- p32 -->
<g id="node30" class="node"><title>p32</title>
<ellipse fill="none" stroke="black" cx="1573.6" cy="-1030" rx="3.25" ry="3.5"/>
<text text-anchor="middle" x="1559.1" y="-1037.3" font-family="Times,serif" font-size="14.00">mix</text>
</g>
<!-- p26&#45;&gt;p32 -->
<g id="edge32" class="edge"><title>p26&#45;&gt;p32</title>
<path fill="none" stroke="black" d="M1793.15,-1114.17C1791.07,-1110.41 1786.93,-1103.79 1781.6,-1100 1717.86,-1054.58 1622.24,-1037.6 1587.14,-1032.68"/>
<polygon fill="black" stroke="black" points="1587.21,-1029.16 1576.85,-1031.36 1586.32,-1036.11 1587.21,-1029.16"/>
<text text-anchor="middle" x="1780.1" y="-1070.3" font-family="Times,serif" font-size="14.00">version_ch</text>
</g>
<!-- p40 -->
<g id="node37" class="node"><title>p40</title>
<ellipse fill="none" stroke="black" cx="1549.6" cy="-646" rx="3.25" ry="3.5"/>
<text text-anchor="middle" x="1535.1" y="-653.3" font-family="Times,serif" font-size="14.00">mix</text>
</g>
<!-- p32&#45;&gt;p40 -->
<g id="edge38" class="edge"><title>p32&#45;&gt;p40</title>
<path fill="none" stroke="black" d="M1573.6,-1026.32C1573.6,-1015.75 1573.6,-975.847 1573.6,-943 1573.6,-943 1573.6,-943 1573.6,-719 1573.6,-696.765 1563.17,-672.559 1556.06,-658.641"/>
<polygon fill="black" stroke="black" points="1559.02,-656.757 1551.17,-649.64 1552.87,-660.098 1559.02,-656.757"/>
<text text-anchor="middle" x="1603.1" y="-834.3" font-family="Times,serif" font-size="14.00">version_ch</text>
</g>
<!-- p27 -->
<g id="node31" class="node"><title>p27</title>
<ellipse fill="black" stroke="black" cx="1817.6" cy="-1192" rx="3.6" ry="3.6"/>
<text text-anchor="middle" x="1772" y="-1199.4" font-family="Times,serif" font-size="14.00">Channel.empty</text>
</g>
<!-- p28 -->
<g id="node32" class="node"><title>p28</title>
<ellipse fill="black" stroke="black" cx="1817.6" cy="-1118" rx="1.8" ry="1.8"/>
</g>
<!-- p27&#45;&gt;p28 -->
<g id="edge33" class="edge"><title>p27&#45;&gt;p28</title>
<path fill="none" stroke="black" d="M1817.6,-1188.27C1817.6,-1178.79 1817.6,-1147.04 1817.6,-1130.01"/>
<polygon fill="black" stroke="black" points="1821.1,-1129.98 1817.6,-1119.98 1814.1,-1129.98 1821.1,-1129.98"/>
<text text-anchor="middle" x="1834.6" y="-1158.3" font-family="Times,serif" font-size="14.00">to_zip</text>
</g>
<!-- p29 -->
<g id="node33" class="node"><title>p29</title>
<ellipse fill="black" stroke="black" cx="1522.6" cy="-1192" rx="3.6" ry="3.6"/>
</g>
<!-- p31 -->
<g id="node34" class="node"><title>p31</title>
<ellipse fill="none" stroke="black" cx="1548.6" cy="-1118" rx="224.345" ry="18"/>
<text text-anchor="middle" x="1548.6" y="-1114.3" font-family="Times,serif" font-size="14.00">PIHAT_CASES_CONTROLS_01:PIHAT01:VCF_TO_BED</text>
</g>
<!-- p29&#45;&gt;p31 -->
<g id="edge34" class="edge"><title>p29&#45;&gt;p31</title>
<path fill="none" stroke="black" d="M1522.71,-1188.22C1523.04,-1181.95 1524.26,-1166.27 1528.6,-1154 1529.64,-1151.06 1530.92,-1148.08 1532.34,-1145.17"/>
<polygon fill="black" stroke="black" points="1535.5,-1146.68 1537.14,-1136.21 1529.33,-1143.37 1535.5,-1146.68"/>
<text text-anchor="middle" x="1542.6" y="-1158.3" font-family="Times,serif" font-size="14.00">meta</text>
</g>
<!-- p33 -->
<g id="node36" class="node"><title>p33</title>
<ellipse fill="none" stroke="black" cx="1548.6" cy="-1030" rx="3.25" ry="3.5"/>
<text text-anchor="middle" x="1567.6" y="-1015.3" font-family="Times,serif" font-size="14.00">splitCsv</text>
</g>
<!-- p31&#45;&gt;p33 -->
<g id="edge36" class="edge"><title>p31&#45;&gt;p33</title>
<path fill="none" stroke="black" d="M1548.6,-1099.6C1548.6,-1083.05 1548.6,-1058.54 1548.6,-1043.74"/>
<polygon fill="black" stroke="black" points="1552.1,-1043.67 1548.6,-1033.67 1545.1,-1043.67 1552.1,-1043.67"/>
</g>
<!-- p31&#45;&gt;p32 -->
<g id="edge37" class="edge"><title>p31&#45;&gt;p32</title>
<path fill="none" stroke="black" d="M1554.1,-1099.95C1555.9,-1094.25 1557.87,-1087.87 1559.6,-1082 1563.43,-1068.97 1567.51,-1053.98 1570.27,-1043.64"/>
<polygon fill="black" stroke="black" points="1573.7,-1044.34 1572.88,-1033.77 1566.94,-1042.55 1573.7,-1044.34"/>
</g>
<!-- p30 -->
<g id="node35" class="node"><title>p30</title>
<ellipse fill="black" stroke="black" cx="1573.6" cy="-1192" rx="3.6" ry="3.6"/>
</g>
<!-- p30&#45;&gt;p31 -->
<g id="edge35" class="edge"><title>p30&#45;&gt;p31</title>
<path fill="none" stroke="black" d="M1572.65,-1188.27C1570.23,-1181.29 1563.61,-1162.22 1557.92,-1145.85"/>
<polygon fill="black" stroke="black" points="1561.14,-1144.44 1554.55,-1136.14 1554.53,-1146.74 1561.14,-1144.44"/>
<text text-anchor="middle" x="1574.1" y="-1158.3" font-family="Times,serif" font-size="14.00">vcf</text>
</g>
<!-- p34 -->
<g id="node38" class="node"><title>p34</title>
<ellipse fill="none" stroke="black" cx="1516.6" cy="-942" rx="3.25" ry="3.5"/>
<text text-anchor="middle" x="1500.6" y="-949.3" font-family="Times,serif" font-size="14.00">map</text>
</g>
<!-- p33&#45;&gt;p34 -->
<g id="edge39" class="edge"><title>p33&#45;&gt;p34</title>
<path fill="none" stroke="black" d="M1548.04,-1026.17C1546.44,-1018.34 1541.53,-995.795 1534.6,-978 1531.42,-969.842 1526.92,-961.083 1523.21,-954.368"/>
<polygon fill="black" stroke="black" points="1526.11,-952.393 1518.1,-945.464 1520.04,-955.879 1526.11,-952.393"/>
</g>
<!-- p48 -->
<g id="node44" class="node"><title>p48</title>
<ellipse fill="none" stroke="black" cx="1387.6" cy="-470" rx="3.25" ry="3.5"/>
<text text-anchor="middle" x="1373.1" y="-477.3" font-family="Times,serif" font-size="14.00">mix</text>
</g>
<!-- p40&#45;&gt;p48 -->
<g id="edge47" class="edge"><title>p40&#45;&gt;p48</title>
<path fill="none" stroke="black" d="M1549.76,-642.102C1550.73,-623.988 1554.95,-526.42 1535.6,-506 1499.71,-468.134 1469.11,-504.468 1419.6,-488 1412.29,-485.568 1404.65,-481.57 1398.66,-478.063"/>
<polygon fill="black" stroke="black" points="1400.46,-475.055 1390.12,-472.722 1396.75,-480.991 1400.46,-475.055"/>
<text text-anchor="middle" x="1579.1" y="-554.3" font-family="Times,serif" font-size="14.00">version_ch</text>
</g>
<!-- p34&#45;&gt;p35 -->
<g id="edge40" class="edge"><title>p34&#45;&gt;p35</title>
<path fill="none" stroke="black" d="M1513.83,-939.584C1507.54,-936.413 1491.62,-928.657 1477.6,-924 1387.97,-894.229 1275.1,-876.372 1236.92,-870.85"/>
<polygon fill="black" stroke="black" points="1237.08,-867.338 1226.69,-869.411 1236.1,-874.27 1237.08,-867.338"/>
</g>
<!-- p41 -->
<g id="node42" class="node"><title>p41</title>
<ellipse fill="none" stroke="black" cx="1269.6" cy="-720" rx="3.25" ry="3.5"/>
<text text-anchor="middle" x="1253.6" y="-727.3" font-family="Times,serif" font-size="14.00">map</text>
</g>
<!-- p38&#45;&gt;p41 -->
<g id="edge44" class="edge"><title>p38&#45;&gt;p41</title>
<path fill="none" stroke="black" d="M1269.6,-775.937C1269.6,-763.126 1269.6,-745.843 1269.6,-734.107"/>
<polygon fill="black" stroke="black" points="1273.1,-733.748 1269.6,-723.748 1266.1,-733.748 1273.1,-733.748"/>
</g>
<!-- p39 -->
<g id="node43" class="node"><title>p39</title>
<ellipse fill="none" stroke="black" cx="1294.6" cy="-720" rx="3.25" ry="3.5"/>
<text text-anchor="middle" x="1272.6" y="-705.3" font-family="Times,serif" font-size="14.00">collect</text>
</g>
<!-- p38&#45;&gt;p39 -->
<g id="edge45" class="edge"><title>p38&#45;&gt;p39</title>
<path fill="none" stroke="black" d="M1275.52,-775.937C1280.07,-762.851 1286.23,-745.098 1290.31,-733.358"/>
<polygon fill="black" stroke="black" points="1293.67,-734.343 1293.65,-723.748 1287.06,-732.047 1293.67,-734.343"/>
</g>
<!-- p36 -->
<g id="node40" class="node"><title>p36</title>
<ellipse fill="black" stroke="black" cx="1284.6" cy="-868" rx="3.6" ry="3.6"/>
</g>
<!-- p36&#45;&gt;p38 -->
<g id="edge42" class="edge"><title>p36&#45;&gt;p38</title>
<path fill="none" stroke="black" d="M1284.03,-864.265C1282.59,-857.354 1278.68,-838.578 1275.29,-822.316"/>
<polygon fill="black" stroke="black" points="1278.64,-821.219 1273.17,-812.143 1271.78,-822.647 1278.64,-821.219"/>
<text text-anchor="middle" x="1294.6" y="-834.3" font-family="Times,serif" font-size="14.00">meta</text>
</g>
<!-- p37 -->
<g id="node41" class="node"><title>p37</title>
<ellipse fill="black" stroke="black" cx="1077.6" cy="-868" rx="3.6" ry="3.6"/>
</g>
<!-- p37&#45;&gt;p38 -->
<g id="edge43" class="edge"><title>p37&#45;&gt;p38</title>
<path fill="none" stroke="black" d="M1080.57,-865.634C1091.58,-860.592 1131.14,-842.669 1164.6,-830 1178.32,-824.804 1193.21,-819.593 1207.33,-814.838"/>
<polygon fill="black" stroke="black" points="1208.59,-818.109 1216.97,-811.625 1206.37,-811.468 1208.59,-818.109"/>
<text text-anchor="middle" x="1189.6" y="-834.3" font-family="Times,serif" font-size="14.00">reference</text>
</g>
<!-- p42 -->
<g id="node45" class="node"><title>p42</title>
<ellipse fill="none" stroke="black" cx="1269.6" cy="-646" rx="3.25" ry="3.5"/>
<text text-anchor="middle" x="1284.6" y="-653.3" font-family="Times,serif" font-size="14.00">collect</text>
</g>
<!-- p41&#45;&gt;p42 -->
<g id="edge48" class="edge"><title>p41&#45;&gt;p42</title>
<path fill="none" stroke="black" d="M1269.6,-716.265C1269.6,-707.133 1269.6,-677.282 1269.6,-659.892"/>
<polygon fill="black" stroke="black" points="1273.1,-659.737 1269.6,-649.737 1266.1,-659.737 1273.1,-659.737"/>
</g>
<!-- p39&#45;&gt;p40 -->
<g id="edge46" class="edge"><title>p39&#45;&gt;p40</title>
<path fill="none" stroke="black" d="M1297.46,-718.191C1321.47,-711.412 1489.52,-663.965 1537.08,-650.535"/>
<polygon fill="black" stroke="black" points="1538.09,-653.888 1546.76,-647.802 1536.18,-647.151 1538.09,-653.888"/>
</g>
<!-- p49 -->
<g id="node52" class="node"><title>p49</title>
<ellipse fill="none" stroke="black" cx="1342.6" cy="-392" rx="3.25" ry="3.5"/>
<text text-anchor="middle" x="1320.6" y="-399.3" font-family="Times,serif" font-size="14.00">collect</text>
</g>
<!-- p48&#45;&gt;p49 -->
<g id="edge56" class="edge"><title>p48&#45;&gt;p49</title>
<path fill="none" stroke="black" d="M1386.1,-466.471C1380.39,-456.83 1359.78,-422.017 1349.11,-403.991"/>
<polygon fill="black" stroke="black" points="1352.07,-402.132 1343.97,-395.311 1346.05,-405.699 1352.07,-402.132"/>
<text text-anchor="middle" x="1396.1" y="-422.3" font-family="Times,serif" font-size="14.00">version_ch</text>
</g>
<!-- p44 -->
<g id="node46" class="node"><title>p44</title>
<ellipse fill="none" stroke="black" cx="1262.6" cy="-558" rx="250.317" ry="18"/>
<text text-anchor="middle" x="1262.6" y="-554.3" font-family="Times,serif" font-size="14.00">PIHAT_CASES_CONTROLS_01:PIHAT01:MERGE_PIHAT_VCF</text>
</g>
<!-- p42&#45;&gt;p44 -->
<g id="edge49" class="edge"><title>p42&#45;&gt;p44</title>
<path fill="none" stroke="black" d="M1269.37,-642.139C1268.66,-633.502 1266.51,-607.011 1264.82,-586.227"/>
<polygon fill="black" stroke="black" points="1268.28,-585.687 1263.98,-576.004 1261.31,-586.255 1268.28,-585.687"/>
</g>
<!-- p47 -->
<g id="node48" class="node"><title>p47</title>
<ellipse fill="black" stroke="black" cx="1141.6" cy="-470" rx="1.8" ry="1.8"/>
</g>
<!-- p44&#45;&gt;p47 -->
<g id="edge51" class="edge"><title>p44&#45;&gt;p47</title>
<path fill="none" stroke="black" d="M1185.34,-540.843C1175.07,-536.095 1165.41,-529.95 1157.6,-522 1146.99,-511.202 1143.41,-493.457 1142.2,-482.003"/>
<polygon fill="black" stroke="black" points="1145.69,-481.63 1141.6,-471.856 1138.7,-482.046 1145.69,-481.63"/>
<text text-anchor="middle" x="1185.1" y="-510.3" font-family="Times,serif" font-size="14.00">pihat_png</text>
</g>
<!-- p46 -->
<g id="node49" class="node"><title>p46</title>
<ellipse fill="black" stroke="black" cx="1219.6" cy="-470" rx="1.8" ry="1.8"/>
</g>
<!-- p44&#45;&gt;p46 -->
<g id="edge52" class="edge"><title>p44&#45;&gt;p46</title>
<path fill="none" stroke="black" d="M1235,-539.823C1229.22,-534.829 1223.89,-528.845 1220.6,-522 1214.56,-509.427 1215.57,-493.021 1217.25,-482.257"/>
<polygon fill="black" stroke="black" points="1220.7,-482.847 1219.24,-472.353 1213.84,-481.466 1220.7,-482.847"/>
<text text-anchor="middle" x="1246.6" y="-510.3" font-family="Times,serif" font-size="14.00">pihat_pdf</text>
</g>
<!-- p58 -->
<g id="node50" class="node"><title>p58</title>
<ellipse fill="none" stroke="black" cx="1642.6" cy="-470" rx="213.247" ry="18"/>
<text text-anchor="middle" x="1642.6" y="-466.3" font-family="Times,serif" font-size="14.00">PIHAT_CASES_CONTROLS_01:REMOVE_SAMPLES</text>
</g>
<!-- p44&#45;&gt;p58 -->
<g id="edge53" class="edge"><title>p44&#45;&gt;p58</title>
<path fill="none" stroke="black" d="M1334.52,-540.723C1399.3,-526.063 1494.41,-504.538 1561.79,-489.289"/>
<polygon fill="black" stroke="black" points="1562.96,-492.613 1571.94,-486.992 1561.41,-485.786 1562.96,-492.613"/>
<text text-anchor="middle" x="1535.6" y="-510.3" font-family="Times,serif" font-size="14.00">removed_samples</text>
</g>
<!-- p45 -->
<g id="node51" class="node"><title>p45</title>
<ellipse fill="black" stroke="black" cx="1294.6" cy="-470" rx="1.8" ry="1.8"/>
</g>
<!-- p44&#45;&gt;p45 -->
<g id="edge54" class="edge"><title>p44&#45;&gt;p45</title>
<path fill="none" stroke="black" d="M1269.08,-539.597C1275.5,-522.339 1285.14,-496.431 1290.55,-481.895"/>
<polygon fill="black" stroke="black" points="1293.99,-482.688 1294.19,-472.095 1287.42,-480.247 1293.99,-482.688"/>
<text text-anchor="middle" x="1320.6" y="-510.3" font-family="Times,serif" font-size="14.00">plink_genome</text>
</g>
<!-- p44&#45;&gt;p48 -->
<g id="edge55" class="edge"><title>p44&#45;&gt;p48</title>
<path fill="none" stroke="black" d="M1333.44,-540.644C1344.37,-535.905 1354.91,-529.816 1363.6,-522 1374.93,-511.815 1381.36,-495.155 1384.65,-483.664"/>
<polygon fill="black" stroke="black" points="1388.09,-484.319 1387.08,-473.773 1381.3,-482.648 1388.09,-484.319"/>
</g>
<!-- p43 -->
<g id="node47" class="node"><title>p43</title>
<ellipse fill="black" stroke="black" cx="1295.6" cy="-646" rx="3.6" ry="3.6"/>
</g>
<!-- p43&#45;&gt;p44 -->
<g id="edge50" class="edge"><title>p43&#45;&gt;p44</title>
<path fill="none" stroke="black" d="M1294.65,-642.519C1291.47,-634.245 1280.99,-606.926 1272.87,-585.761"/>
<polygon fill="black" stroke="black" points="1276.08,-584.35 1269.23,-576.268 1269.54,-586.858 1276.08,-584.35"/>
<text text-anchor="middle" x="1296.6" y="-598.3" font-family="Times,serif" font-size="14.00">meta</text>
</g>
<!-- p60 -->
<g id="node61" class="node"><title>p60</title>
<ellipse fill="black" stroke="black" cx="1709.6" cy="-392" rx="1.8" ry="1.8"/>
</g>
<!-- p58&#45;&gt;p60 -->
<g id="edge66" class="edge"><title>p58&#45;&gt;p60</title>
<path fill="none" stroke="black" d="M1668.51,-451.8C1675.23,-446.588 1682.11,-440.504 1687.6,-434 1695.44,-424.71 1701.67,-412.173 1705.47,-403.417"/>
<polygon fill="black" stroke="black" points="1708.72,-404.698 1709.2,-394.114 1702.23,-402.089 1708.72,-404.698"/>
<text text-anchor="middle" x="1712.1" y="-422.3" font-family="Times,serif" font-size="14.00">cases</text>
</g>
<!-- p59 -->
<g id="node62" class="node"><title>p59</title>
<ellipse fill="black" stroke="black" cx="1642.6" cy="-392" rx="1.8" ry="1.8"/>
</g>
<!-- p58&#45;&gt;p59 -->
<g id="edge67" class="edge"><title>p58&#45;&gt;p59</title>
<path fill="none" stroke="black" d="M1642.6,-451.754C1642.6,-437.149 1642.6,-416.642 1642.6,-404.119"/>
<polygon fill="black" stroke="black" points="1646.1,-403.917 1642.6,-393.917 1639.1,-403.917 1646.1,-403.917"/>
<text text-anchor="middle" x="1664.6" y="-422.3" font-family="Times,serif" font-size="14.00">controls</text>
</g>
<!-- p58&#45;&gt;p61 -->
<g id="edge68" class="edge"><title>p58&#45;&gt;p61</title>
<path fill="none" stroke="black" d="M1630.31,-451.798C1620.93,-436.961 1609.6,-414.577 1609.6,-393 1609.6,-393 1609.6,-393 1609.6,-253 1609.6,-218.342 1561,-203.014 1536.87,-197.541"/>
<polygon fill="black" stroke="black" points="1537.36,-194.07 1526.87,-195.526 1535.98,-200.932 1537.36,-194.07"/>
</g>
<!-- p53 -->
<g id="node53" class="node"><title>p53</title>
<ellipse fill="none" stroke="black" cx="1338.6" cy="-314" rx="243.118" ry="18"/>
<text text-anchor="middle" x="1338.6" y="-310.3" font-family="Times,serif" font-size="14.00">PIHAT_CASES_CONTROLS_01:PIHAT01:MERGE_VERSION</text>
</g>
<!-- p49&#45;&gt;p53 -->
<g id="edge57" class="edge"><title>p49&#45;&gt;p53</title>
<path fill="none" stroke="black" d="M1342.47,-388.471C1342.09,-381.271 1340.97,-360.029 1340.03,-342.226"/>
<polygon fill="black" stroke="black" points="1343.52,-341.811 1339.5,-332.009 1336.53,-342.179 1343.52,-341.811"/>
</g>
<!-- p53&#45;&gt;p54 -->
<g id="edge61" class="edge"><title>p53&#45;&gt;p54</title>
<path fill="none" stroke="black" d="M1338.6,-295.912C1338.6,-286.965 1338.6,-276.187 1338.6,-267.94"/>
<polygon fill="black" stroke="black" points="1342.1,-267.691 1338.6,-257.691 1335.1,-267.691 1342.1,-267.691"/>
</g>
<!-- p50 -->
<g id="node54" class="node"><title>p50</title>
<ellipse fill="black" stroke="black" cx="1371.6" cy="-392" rx="3.6" ry="3.6"/>
</g>
<!-- p50&#45;&gt;p53 -->
<g id="edge58" class="edge"><title>p50&#45;&gt;p53</title>
<path fill="none" stroke="black" d="M1370.5,-388.471C1367.33,-381.169 1357.89,-359.428 1350.1,-341.476"/>
<polygon fill="black" stroke="black" points="1353.18,-339.787 1345.99,-332.009 1346.76,-342.575 1353.18,-339.787"/>
<text text-anchor="middle" x="1374.6" y="-354.3" font-family="Times,serif" font-size="14.00">meta</text>
</g>
<!-- p51 -->
<g id="node55" class="node"><title>p51</title>
<ellipse fill="black" stroke="black" cx="1422.6" cy="-392" rx="3.6" ry="3.6"/>
</g>
<!-- p51&#45;&gt;p53 -->
<g id="edge59" class="edge"><title>p51&#45;&gt;p53</title>
<path fill="none" stroke="black" d="M1421.24,-388.545C1417.41,-381.791 1405.93,-362.6 1392.6,-350 1387.96,-345.619 1382.71,-341.452 1377.34,-337.62"/>
<polygon fill="black" stroke="black" points="1379.13,-334.605 1368.89,-331.893 1375.21,-340.4 1379.13,-334.605"/>
<text text-anchor="middle" x="1422.1" y="-354.3" font-family="Times,serif" font-size="14.00">name</text>
</g>
<!-- p52 -->
<g id="node56" class="node"><title>p52</title>
<ellipse fill="black" stroke="black" cx="1262.6" cy="-392" rx="3.6" ry="3.6"/>
</g>
<!-- p52&#45;&gt;p53 -->
<g id="edge60" class="edge"><title>p52&#45;&gt;p53</title>
<path fill="none" stroke="black" d="M1262.8,-388.072C1263.43,-380.826 1265.96,-361.793 1275.6,-350 1279.41,-345.346 1284,-341.206 1288.96,-337.551"/>
<polygon fill="black" stroke="black" points="1291.16,-340.292 1297.56,-331.853 1287.29,-334.456 1291.16,-340.292"/>
<text text-anchor="middle" x="1306.1" y="-354.3" font-family="Times,serif" font-size="14.00">description</text>
</g>
<!-- p62 -->
<g id="node63" class="node"><title>p62</title>
<ellipse fill="none" stroke="black" cx="1523.6" cy="-134" rx="3.25" ry="3.5"/>
<text text-anchor="middle" x="1501.6" y="-141.3" font-family="Times,serif" font-size="14.00">collect</text>
</g>
<!-- p61&#45;&gt;p62 -->
<g id="edge69" class="edge"><title>p61&#45;&gt;p62</title>
<path fill="none" stroke="black" d="M1523.6,-190.203C1523.6,-182.649 1523.6,-161.48 1523.6,-147.66"/>
<polygon fill="black" stroke="black" points="1527.1,-147.636 1523.6,-137.636 1520.1,-147.636 1527.1,-147.636"/>
<text text-anchor="middle" x="1553.1" y="-160.3" font-family="Times,serif" font-size="14.00">version_ch</text>
</g>
<!-- p55 -->
<g id="node58" class="node"><title>p55</title>
<ellipse fill="black" stroke="black" cx="1630.6" cy="-558" rx="3.6" ry="3.6"/>
</g>
<!-- p55&#45;&gt;p58 -->
<g id="edge63" class="edge"><title>p55&#45;&gt;p58</title>
<path fill="none" stroke="black" d="M1630.38,-554.211C1629.83,-546.485 1628.63,-524.179 1631.6,-506 1632.04,-503.323 1632.63,-500.567 1633.32,-497.834"/>
<polygon fill="black" stroke="black" points="1636.69,-498.79 1636.12,-488.21 1629.97,-496.837 1636.69,-498.79"/>
<text text-anchor="middle" x="1645.6" y="-510.3" font-family="Times,serif" font-size="14.00">meta</text>
</g>
<!-- p56 -->
<g id="node59" class="node"><title>p56</title>
<ellipse fill="black" stroke="black" cx="1681.6" cy="-558" rx="3.6" ry="3.6"/>
</g>
<!-- p56&#45;&gt;p58 -->
<g id="edge64" class="edge"><title>p56&#45;&gt;p58</title>
<path fill="none" stroke="black" d="M1680.45,-554.217C1677.26,-546.506 1667.96,-524.234 1659.6,-506 1658.29,-503.144 1656.9,-500.171 1655.49,-497.218"/>
<polygon fill="black" stroke="black" points="1658.55,-495.504 1651.06,-488.017 1652.25,-498.545 1658.55,-495.504"/>
<text text-anchor="middle" x="1680.1" y="-510.3" font-family="Times,serif" font-size="14.00">cases</text>
</g>
<!-- p57 -->
<g id="node60" class="node"><title>p57</title>
<ellipse fill="black" stroke="black" cx="1733.6" cy="-558" rx="3.6" ry="3.6"/>
</g>
<!-- p57&#45;&gt;p58 -->
<g id="edge65" class="edge"><title>p57&#45;&gt;p58</title>
<path fill="none" stroke="black" d="M1732.31,-554.394C1728.25,-546.389 1715.04,-521.749 1698.6,-506 1693.98,-501.576 1688.72,-497.418 1683.31,-493.62"/>
<polygon fill="black" stroke="black" points="1685.03,-490.563 1674.76,-487.963 1681.17,-496.4 1685.03,-490.563"/>
<text text-anchor="middle" x="1733.6" y="-510.3" font-family="Times,serif" font-size="14.00">controls</text>
</g>
<!-- p66 -->
<g id="node64" class="node"><title>p66</title>
<ellipse fill="none" stroke="black" cx="1581.6" cy="-60" rx="206.048" ry="18"/>
<text text-anchor="middle" x="1581.6" y="-56.3" font-family="Times,serif" font-size="14.00">PIHAT_CASES_CONTROLS_01:MERGE_VERSION</text>
</g>
<!-- p62&#45;&gt;p66 -->
<g id="edge70" class="edge"><title>p62&#45;&gt;p66</title>
<path fill="none" stroke="black" d="M1525.23,-130.605C1529.32,-124.63 1540.43,-108.638 1550.6,-96 1553.29,-92.6563 1556.19,-89.2008 1559.1,-85.8222"/>
<polygon fill="black" stroke="black" points="1561.85,-87.9936 1565.82,-78.1675 1556.59,-83.3781 1561.85,-87.9936"/>
</g>
<!-- p67 -->
<g id="node68" class="node"><title>p67</title>
<ellipse fill="black" stroke="black" cx="1581.6" cy="-2" rx="1.8" ry="1.8"/>
</g>
<!-- p66&#45;&gt;p67 -->
<g id="edge74" class="edge"><title>p66&#45;&gt;p67</title>
<path fill="none" stroke="black" d="M1581.6,-41.8939C1581.6,-32.8876 1581.6,-22.0999 1581.6,-14.1727"/>
<polygon fill="black" stroke="black" points="1585.1,-13.9957 1581.6,-3.99575 1578.1,-13.9958 1585.1,-13.9957"/>
</g>
<!-- p63 -->
<g id="node65" class="node"><title>p63</title>
<ellipse fill="black" stroke="black" cx="1556.6" cy="-134" rx="3.6" ry="3.6"/>
</g>
<!-- p63&#45;&gt;p66 -->
<g id="edge71" class="edge"><title>p63&#45;&gt;p66</title>
<path fill="none" stroke="black" d="M1556.15,-130.218C1555.25,-123.931 1553.63,-108.223 1557.6,-96 1558.62,-92.8467 1560.03,-89.7205 1561.65,-86.7093"/>
<polygon fill="black" stroke="black" points="1564.69,-88.4495 1567,-78.1087 1558.75,-84.7542 1564.69,-88.4495"/>
<text text-anchor="middle" x="1571.6" y="-100.3" font-family="Times,serif" font-size="14.00">meta</text>
</g>
<!-- p64 -->
<g id="node66" class="node"><title>p64</title>
<ellipse fill="black" stroke="black" cx="1607.6" cy="-134" rx="3.6" ry="3.6"/>
</g>
<!-- p64&#45;&gt;p66 -->
<g id="edge72" class="edge"><title>p64&#45;&gt;p66</title>
<path fill="none" stroke="black" d="M1606.61,-130.265C1604.09,-123.288 1597.21,-104.219 1591.3,-87.8523"/>
<polygon fill="black" stroke="black" points="1594.48,-86.3597 1587.79,-78.1429 1587.9,-88.7372 1594.48,-86.3597"/>
<text text-anchor="middle" x="1615.1" y="-100.3" font-family="Times,serif" font-size="14.00">name</text>
</g>
<!-- p65 -->
<g id="node67" class="node"><title>p65</title>
<ellipse fill="black" stroke="black" cx="1661.6" cy="-134" rx="3.6" ry="3.6"/>
</g>
<!-- p65&#45;&gt;p66 -->
<g id="edge73" class="edge"><title>p65&#45;&gt;p66</title>
<path fill="none" stroke="black" d="M1660.16,-130.427C1656.51,-124.045 1646.34,-107.2 1634.6,-96 1630.05,-91.6537 1624.89,-87.5051 1619.62,-83.6823"/>
<polygon fill="black" stroke="black" points="1621.54,-80.7575 1611.32,-77.9616 1617.57,-86.5201 1621.54,-80.7575"/>
<text text-anchor="middle" x="1678.1" y="-100.3" font-family="Times,serif" font-size="14.00">description</text>
</g>
</g>
</svg>
