<?xml version="1.0" encoding="UTF-8" standalone="no"?>
<!DOCTYPE svg PUBLIC "-//W3C//DTD SVG 1.1//EN"
 "http://www.w3.org/Graphics/SVG/1.1/DTD/svg11.dtd">
<!-- Generated by graphviz version 2.30.1 (20201013.1554)
 -->
<!-- Title: 20220824hs37d5somaliervcfworkflow Pages: 1 -->
<svg width="1181pt" height="545pt"
 viewBox="0.00 0.00 1180.60 544.60" xmlns="http://www.w3.org/2000/svg" xmlns:xlink="http://www.w3.org/1999/xlink">
<g id="graph0" class="graph" transform="scale(1 1) rotate(0) translate(4 540.6)">
<title>20220824hs37d5somaliervcfworkflow</title>
<polygon fill="white" stroke="white" points="-4,5 -4,-540.6 1177.6,-540.6 1177.6,5 -4,5"/>
<!-- p0 -->
<g id="node1" class="node"><title>p0</title>
<ellipse fill="black" stroke="black" cx="112.6" cy="-518" rx="3.6" ry="3.6"/>
<text text-anchor="middle" x="54.5" y="-525.4" font-family="Times,serif" font-size="14.00">Channel.empty</text>
</g>
<!-- p1 -->
<g id="node2" class="node"><title>p1</title>
<ellipse fill="black" stroke="black" cx="112.6" cy="-444" rx="1.8" ry="1.8"/>
</g>
<!-- p0&#45;&gt;p1 -->
<g id="edge1" class="edge"><title>p0&#45;&gt;p1</title>
<path fill="none" stroke="black" d="M112.6,-514.265C112.6,-504.793 112.6,-473.037 112.6,-456.008"/>
<polygon fill="black" stroke="black" points="116.1,-455.98 112.6,-445.98 109.1,-455.98 116.1,-455.98"/>
<text text-anchor="middle" x="151.6" y="-484.3" font-family="Times,serif" font-size="14.00">publish_ch</text>
</g>
<!-- p2 -->
<g id="node3" class="node"><title>p2</title>
<ellipse fill="black" stroke="black" cx="135.6" cy="-444" rx="3.6" ry="3.6"/>
<text text-anchor="middle" x="77.5" y="-451.4" font-family="Times,serif" font-size="14.00">Channel.empty</text>
</g>
<!-- p5 -->
<g id="node4" class="node"><title>p5</title>
<ellipse fill="none" stroke="black" cx="294.6" cy="-356" rx="3.25" ry="3.5"/>
<text text-anchor="middle" x="277.6" y="-363.3" font-family="Times,serif" font-size="14.00">mix</text>
</g>
<!-- p2&#45;&gt;p5 -->
<g id="edge2" class="edge"><title>p2&#45;&gt;p5</title>
<path fill="none" stroke="black" d="M137.125,-440.261C139.277,-436.604 143.514,-430.11 148.6,-426 191.517,-391.314 254.747,-369.176 281.684,-360.796"/>
<polygon fill="black" stroke="black" points="282.948,-364.071 291.526,-357.854 280.943,-357.364 282.948,-364.071"/>
<text text-anchor="middle" x="240.6" y="-396.3" font-family="Times,serif" font-size="14.00">version_ch</text>
</g>
<!-- p10 -->
<g id="node8" class="node"><title>p10</title>
<ellipse fill="none" stroke="black" cx="667.6" cy="-268" rx="3.25" ry="3.5"/>
<text text-anchor="middle" x="650.6" y="-275.3" font-family="Times,serif" font-size="14.00">mix</text>
</g>
<!-- p5&#45;&gt;p10 -->
<g id="edge6" class="edge"><title>p5&#45;&gt;p10</title>
<path fill="none" stroke="black" d="M293.546,-352.217C290.523,-343.705 282.826,-317.759 295.6,-304 320.478,-277.204 590.089,-270.459 654.048,-269.231"/>
<polygon fill="black" stroke="black" points="654.256,-272.728 664.192,-269.051 654.132,-265.729 654.256,-272.728"/>
<text text-anchor="middle" x="334.6" y="-308.3" font-family="Times,serif" font-size="14.00">version_ch</text>
</g>
<!-- p3 -->
<g id="node5" class="node"><title>p3</title>
<ellipse fill="black" stroke="black" cx="387.6" cy="-518" rx="3.6" ry="3.6"/>
</g>
<!-- p4 -->
<g id="node6" class="node"><title>p4</title>
<ellipse fill="none" stroke="black" cx="387.6" cy="-444" rx="230.119" ry="18"/>
<text text-anchor="middle" x="387.6" y="-440.3" font-family="Times,serif" font-size="14.00">SOMALIER_VCF_01:DOWNLOAD_SOMALIER</text>
</g>
<!-- p3&#45;&gt;p4 -->
<g id="edge3" class="edge"><title>p3&#45;&gt;p4</title>
<path fill="none" stroke="black" d="M387.6,-514.265C387.6,-507.354 387.6,-488.578 387.6,-472.316"/>
<polygon fill="black" stroke="black" points="391.1,-472.143 387.6,-462.143 384.1,-472.143 391.1,-472.143"/>
<text text-anchor="middle" x="406.1" y="-484.3" font-family="Times,serif" font-size="14.00">meta</text>
</g>
<!-- p15 -->
<g id="node7" class="node"><title>p15</title>
<ellipse fill="none" stroke="black" cx="931.6" cy="-268" rx="200.273" ry="18"/>
<text text-anchor="middle" x="931.6" y="-264.3" font-family="Times,serif" font-size="14.00">SOMALIER_VCF_01:APPLY_SOMALIER</text>
</g>
<!-- p4&#45;&gt;p15 -->
<g id="edge4" class="edge"><title>p4&#45;&gt;p15</title>
<path fill="none" stroke="black" d="M385.129,-425.636C382.866,-402.154 382.861,-360.619 406.6,-338 432.822,-313.016 625.713,-292.644 770.135,-280.674"/>
<polygon fill="black" stroke="black" points="770.766,-284.133 780.446,-279.826 770.193,-277.157 770.766,-284.133"/>
</g>
<!-- p4&#45;&gt;p5 -->
<g id="edge5" class="edge"><title>p4&#45;&gt;p5</title>
<path fill="none" stroke="black" d="M369.226,-426.009C349.772,-408.02 319.798,-380.301 304.429,-366.089"/>
<polygon fill="black" stroke="black" points="306.413,-363.157 296.695,-358.937 301.661,-368.296 306.413,-363.157"/>
</g>
<!-- p16 -->
<g id="node18" class="node"><title>p16</title>
<ellipse fill="black" stroke="black" cx="931.6" cy="-194" rx="1.8" ry="1.8"/>
</g>
<!-- p15&#45;&gt;p16 -->
<g id="edge17" class="edge"><title>p15&#45;&gt;p16</title>
<path fill="none" stroke="black" d="M931.6,-249.937C931.6,-236.37 931.6,-217.787 931.6,-206.089"/>
<polygon fill="black" stroke="black" points="935.1,-205.849 931.6,-195.849 928.1,-205.849 935.1,-205.849"/>
<text text-anchor="middle" x="942.6" y="-220.3" font-family="Times,serif" font-size="14.00">zip</text>
</g>
<!-- p17 -->
<g id="node13" class="node"><title>p17</title>
<ellipse fill="none" stroke="black" cx="777.6" cy="-194" rx="3.25" ry="3.5"/>
<text text-anchor="middle" x="760.6" y="-201.3" font-family="Times,serif" font-size="14.00">mix</text>
</g>
<!-- p15&#45;&gt;p17 -->
<g id="edge18" class="edge"><title>p15&#45;&gt;p17</title>
<path fill="none" stroke="black" d="M895.494,-250.119C861.432,-234.194 812.33,-211.237 789.771,-200.691"/>
<polygon fill="black" stroke="black" points="790.963,-197.384 780.422,-196.319 787.999,-203.725 790.963,-197.384"/>
</g>
<!-- p10&#45;&gt;p17 -->
<g id="edge12" class="edge"><title>p10&#45;&gt;p17</title>
<path fill="none" stroke="black" d="M669.024,-264.799C671.344,-261.335 676.224,-254.538 681.6,-250 708.585,-227.222 746.321,-208.795 765.451,-200.216"/>
<polygon fill="black" stroke="black" points="766.919,-203.395 774.694,-196.197 764.128,-196.975 766.919,-203.395"/>
<text text-anchor="middle" x="771.6" y="-220.3" font-family="Times,serif" font-size="14.00">version_ch</text>
</g>
<!-- p6 -->
<g id="node9" class="node"><title>p6</title>
<ellipse fill="black" stroke="black" cx="659.6" cy="-444" rx="3.6" ry="3.6"/>
</g>
<!-- p8 -->
<g id="node10" class="node"><title>p8</title>
<ellipse fill="none" stroke="black" cx="680.6" cy="-356" rx="264.29" ry="18"/>
<text text-anchor="middle" x="680.6" y="-352.3" font-family="Times,serif" font-size="14.00">SOMALIER_VCF_01:SOMALIER_DOWNLOAD_SITES</text>
</g>
<!-- p6&#45;&gt;p8 -->
<g id="edge7" class="edge"><title>p6&#45;&gt;p8</title>
<path fill="none" stroke="black" d="M659.175,-440.166C658.102,-432.326 655.698,-409.756 660.6,-392 661.43,-388.994 662.577,-385.974 663.906,-383.035"/>
<polygon fill="black" stroke="black" points="667.073,-384.531 668.602,-374.047 660.869,-381.289 667.073,-384.531"/>
<text text-anchor="middle" x="679.1" y="-396.3" font-family="Times,serif" font-size="14.00">meta</text>
</g>
<!-- p8&#45;&gt;p15 -->
<g id="edge9" class="edge"><title>p8&#45;&gt;p15</title>
<path fill="none" stroke="black" d="M729.591,-338.214C770.841,-324.081 829.923,-303.838 873.542,-288.892"/>
<polygon fill="black" stroke="black" points="874.834,-292.15 883.159,-285.597 872.565,-285.528 874.834,-292.15"/>
</g>
<!-- p9 -->
<g id="node12" class="node"><title>p9</title>
<ellipse fill="black" stroke="black" cx="692.6" cy="-268" rx="1.8" ry="1.8"/>
</g>
<!-- p8&#45;&gt;p9 -->
<g id="edge10" class="edge"><title>p8&#45;&gt;p9</title>
<path fill="none" stroke="black" d="M683.028,-337.597C685.412,-320.516 688.977,-294.965 691.017,-280.348"/>
<polygon fill="black" stroke="black" points="694.532,-280.483 692.447,-270.095 687.599,-279.516 694.532,-280.483"/>
</g>
<!-- p8&#45;&gt;p10 -->
<g id="edge11" class="edge"><title>p8&#45;&gt;p10</title>
<path fill="none" stroke="black" d="M677.969,-337.597C675.467,-321.046 671.763,-296.54 669.525,-281.737"/>
<polygon fill="black" stroke="black" points="672.959,-281.036 668.004,-271.671 666.038,-282.082 672.959,-281.036"/>
</g>
<!-- p7 -->
<g id="node11" class="node"><title>p7</title>
<ellipse fill="black" stroke="black" cx="719.6" cy="-444" rx="3.6" ry="3.6"/>
</g>
<!-- p7&#45;&gt;p8 -->
<g id="edge8" class="edge"><title>p7&#45;&gt;p8</title>
<path fill="none" stroke="black" d="M718.451,-440.217C715.257,-432.506 705.956,-410.234 697.6,-392 696.291,-389.144 694.897,-386.171 693.492,-383.218"/>
<polygon fill="black" stroke="black" points="696.551,-381.504 689.055,-374.017 690.246,-384.545 696.551,-381.504"/>
<text text-anchor="middle" x="739.6" y="-396.3" font-family="Times,serif" font-size="14.00">reference</text>
</g>
<!-- p18 -->
<g id="node19" class="node"><title>p18</title>
<ellipse fill="none" stroke="black" cx="777.6" cy="-134" rx="3.25" ry="3.5"/>
<text text-anchor="middle" x="749.6" y="-141.3" font-family="Times,serif" font-size="14.00">collect</text>
</g>
<!-- p17&#45;&gt;p18 -->
<g id="edge19" class="edge"><title>p17&#45;&gt;p18</title>
<path fill="none" stroke="black" d="M777.6,-190.203C777.6,-182.649 777.6,-161.48 777.6,-147.66"/>
<polygon fill="black" stroke="black" points="781.1,-147.636 777.6,-137.636 774.1,-147.636 781.1,-147.636"/>
<text text-anchor="middle" x="816.6" y="-160.3" font-family="Times,serif" font-size="14.00">version_ch</text>
</g>
<!-- p11 -->
<g id="node14" class="node"><title>p11</title>
<ellipse fill="black" stroke="black" cx="966.6" cy="-356" rx="3.6" ry="3.6"/>
</g>
<!-- p11&#45;&gt;p15 -->
<g id="edge13" class="edge"><title>p11&#45;&gt;p15</title>
<path fill="none" stroke="black" d="M964.901,-352.449C962.553,-349.005 958.093,-342.751 953.6,-338 945.154,-329.069 937.846,-331.117 932.6,-320 929.184,-312.761 928.056,-304.275 928.025,-296.326"/>
<polygon fill="black" stroke="black" points="931.521,-296.496 928.518,-286.336 924.53,-296.151 931.521,-296.496"/>
<text text-anchor="middle" x="951.1" y="-308.3" font-family="Times,serif" font-size="14.00">meta</text>
</g>
<!-- p12 -->
<g id="node15" class="node"><title>p12</title>
<ellipse fill="black" stroke="black" cx="991.6" cy="-356" rx="3.6" ry="3.6"/>
</g>
<!-- p12&#45;&gt;p15 -->
<g id="edge14" class="edge"><title>p12&#45;&gt;p15</title>
<path fill="none" stroke="black" d="M990.793,-352.019C988.474,-343.803 981.203,-320.361 969.6,-304 966.96,-300.278 963.869,-296.653 960.61,-293.233"/>
<polygon fill="black" stroke="black" points="962.919,-290.596 953.317,-286.118 958.031,-295.607 962.919,-290.596"/>
<text text-anchor="middle" x="1013.6" y="-308.3" font-family="Times,serif" font-size="14.00">reference</text>
</g>
<!-- p13 -->
<g id="node16" class="node"><title>p13</title>
<ellipse fill="black" stroke="black" cx="1084.6" cy="-356" rx="3.6" ry="3.6"/>
</g>
<!-- p13&#45;&gt;p15 -->
<g id="edge15" class="edge"><title>p13&#45;&gt;p15</title>
<path fill="none" stroke="black" d="M1083.66,-352.18C1080.63,-343.561 1070.29,-317.34 1052.6,-304 1044.2,-297.665 1034.68,-292.475 1024.76,-288.223"/>
<polygon fill="black" stroke="black" points="1025.74,-284.846 1015.15,-284.428 1023.17,-291.357 1025.74,-284.846"/>
<text text-anchor="middle" x="1077.6" y="-308.3" font-family="Times,serif" font-size="14.00">vcf</text>
</g>
<!-- p14 -->
<g id="node17" class="node"><title>p14</title>
<ellipse fill="black" stroke="black" cx="1129.6" cy="-356" rx="3.6" ry="3.6"/>
</g>
<!-- p14&#45;&gt;p15 -->
<g id="edge16" class="edge"><title>p14&#45;&gt;p15</title>
<path fill="none" stroke="black" d="M1128.42,-352.122C1124.65,-343.335 1112.02,-316.682 1092.6,-304 1081.23,-296.573 1068.54,-290.698 1055.41,-286.053"/>
<polygon fill="black" stroke="black" points="1056.38,-282.687 1045.79,-282.884 1054.19,-289.336 1056.38,-282.687"/>
<text text-anchor="middle" x="1140.6" y="-308.3" font-family="Times,serif" font-size="14.00">pedigree</text>
</g>
<!-- p22 -->
<g id="node20" class="node"><title>p22</title>
<ellipse fill="none" stroke="black" cx="840.6" cy="-60" rx="198.349" ry="18"/>
<text text-anchor="middle" x="840.6" y="-56.3" font-family="Times,serif" font-size="14.00">SOMALIER_VCF_01:MERGE_VERSION</text>
</g>
<!-- p18&#45;&gt;p22 -->
<g id="edge20" class="edge"><title>p18&#45;&gt;p22</title>
<path fill="none" stroke="black" d="M779.173,-130.557C783.134,-124.472 793.965,-108.25 804.6,-96 807.639,-92.499 810.97,-88.9419 814.339,-85.5032"/>
<polygon fill="black" stroke="black" points="817.038,-87.7563 821.679,-78.2322 812.112,-82.7832 817.038,-87.7563"/>
</g>
<!-- p23 -->
<g id="node24" class="node"><title>p23</title>
<ellipse fill="black" stroke="black" cx="840.6" cy="-2" rx="1.8" ry="1.8"/>
</g>
<!-- p22&#45;&gt;p23 -->
<g id="edge24" class="edge"><title>p22&#45;&gt;p23</title>
<path fill="none" stroke="black" d="M840.6,-41.8939C840.6,-32.8876 840.6,-22.0999 840.6,-14.1727"/>
<polygon fill="black" stroke="black" points="844.1,-13.9957 840.6,-3.99575 837.1,-13.9958 844.1,-13.9957"/>
</g>
<!-- p19 -->
<g id="node21" class="node"><title>p19</title>
<ellipse fill="black" stroke="black" cx="810.6" cy="-134" rx="3.6" ry="3.6"/>
</g>
<!-- p19&#45;&gt;p22 -->
<g id="edge21" class="edge"><title>p19&#45;&gt;p22</title>
<path fill="none" stroke="black" d="M810.074,-130.19C809.012,-123.846 807.079,-108.03 811.6,-96 812.86,-92.6482 814.584,-89.3851 816.568,-86.2844"/>
<polygon fill="black" stroke="black" points="819.538,-88.1557 822.681,-78.0376 813.914,-83.9874 819.538,-88.1557"/>
<text text-anchor="middle" x="830.1" y="-100.3" font-family="Times,serif" font-size="14.00">meta</text>
</g>
<!-- p20 -->
<g id="node22" class="node"><title>p20</title>
<ellipse fill="black" stroke="black" cx="870.6" cy="-134" rx="3.6" ry="3.6"/>
</g>
<!-- p20&#45;&gt;p22 -->
<g id="edge22" class="edge"><title>p20&#45;&gt;p22</title>
<path fill="none" stroke="black" d="M869.461,-130.265C866.526,-123.222 858.458,-103.859 851.596,-87.3898"/>
<polygon fill="black" stroke="black" points="854.82,-86.0275 847.743,-78.1429 848.358,-88.7198 854.82,-86.0275"/>
<text text-anchor="middle" x="881.6" y="-100.3" font-family="Times,serif" font-size="14.00">name</text>
</g>
<!-- p21 -->
<g id="node23" class="node"><title>p21</title>
<ellipse fill="black" stroke="black" cx="933.6" cy="-134" rx="3.6" ry="3.6"/>
</g>
<!-- p21&#45;&gt;p22 -->
<g id="edge23" class="edge"><title>p21&#45;&gt;p22</title>
<path fill="none" stroke="black" d="M932.148,-130.364C928.45,-123.839 918.079,-106.693 905.6,-96 899.979,-91.184 893.587,-86.7597 887.057,-82.7955"/>
<polygon fill="black" stroke="black" points="888.544,-79.6136 878.126,-77.6814 885.065,-85.6881 888.544,-79.6136"/>
<text text-anchor="middle" x="960.6" y="-100.3" font-family="Times,serif" font-size="14.00">description</text>
</g>
</g>
</svg>
