<?xml version="1.0" encoding="UTF-8" standalone="no"?>
<!DOCTYPE svg PUBLIC "-//W3C//DTD SVG 1.1//EN"
 "http://www.w3.org/Graphics/SVG/1.1/DTD/svg11.dtd">
<!-- Generated by graphviz version 2.30.1 (20201013.1554)
 -->
<!-- Title: 20220712rotavirusremapworkflow Pages: 1 -->
<svg width="634pt" height="947pt"
 viewBox="0.00 0.00 633.60 946.60" xmlns="http://www.w3.org/2000/svg" xmlns:xlink="http://www.w3.org/1999/xlink">
<g id="graph0" class="graph" transform="scale(1 1) rotate(0) translate(4 942.6)">
<title>20220712rotavirusremapworkflow</title>
<polygon fill="white" stroke="white" points="-4,5 -4,-942.6 630.6,-942.6 630.6,5 -4,5"/>
<!-- p0 -->
<g id="node1" class="node"><title>p0</title>
<ellipse fill="black" stroke="black" cx="593.6" cy="-920" rx="3.6" ry="3.6"/>
<text text-anchor="middle" x="540" y="-927.4" font-family="Times,serif" font-size="14.00">Channel.fromPath</text>
</g>
<!-- p2 -->
<g id="node2" class="node"><title>p2</title>
<ellipse fill="none" stroke="black" cx="593.6" cy="-860" rx="3.25" ry="3.5"/>
<text text-anchor="middle" x="567.6" y="-867.3" font-family="Times,serif" font-size="14.00">splitCsv</text>
</g>
<!-- p0&#45;&gt;p2 -->
<g id="edge1" class="edge"><title>p0&#45;&gt;p2</title>
<path fill="none" stroke="black" d="M593.6,-916.203C593.6,-908.649 593.6,-887.48 593.6,-873.66"/>
<polygon fill="black" stroke="black" points="597.1,-873.636 593.6,-863.636 590.1,-873.636 597.1,-873.636"/>
<text text-anchor="middle" x="609.6" y="-886.3" font-family="Times,serif" font-size="14.00">fastqs</text>
</g>
<!-- p3 -->
<g id="node5" class="node"><title>p3</title>
<ellipse fill="none" stroke="black" cx="593.6" cy="-786" rx="3.25" ry="3.5"/>
<text text-anchor="middle" x="568.6" y="-793.3" font-family="Times,serif" font-size="14.00">flatMap</text>
</g>
<!-- p2&#45;&gt;p3 -->
<g id="edge3" class="edge"><title>p2&#45;&gt;p3</title>
<path fill="none" stroke="black" d="M593.6,-856.265C593.6,-847.133 593.6,-817.282 593.6,-799.892"/>
<polygon fill="black" stroke="black" points="597.1,-799.737 593.6,-789.737 590.1,-799.737 597.1,-799.737"/>
</g>
<!-- p1 -->
<g id="node3" class="node"><title>p1</title>
<ellipse fill="black" stroke="black" cx="87.6" cy="-786" rx="3.6" ry="3.6"/>
<text text-anchor="middle" x="42" y="-793.4" font-family="Times,serif" font-size="14.00">Channel.empty</text>
</g>
<!-- p6 -->
<g id="node4" class="node"><title>p6</title>
<ellipse fill="none" stroke="black" cx="257.6" cy="-698" rx="3.25" ry="3.5"/>
<text text-anchor="middle" x="243.1" y="-705.3" font-family="Times,serif" font-size="14.00">mix</text>
</g>
<!-- p1&#45;&gt;p6 -->
<g id="edge2" class="edge"><title>p1&#45;&gt;p6</title>
<path fill="none" stroke="black" d="M89.1088,-782.241C91.2419,-778.56 95.4583,-772.04 100.6,-768 147.293,-731.309 216.529,-709.907 244.838,-702.242"/>
<polygon fill="black" stroke="black" points="245.932,-705.574 254.737,-699.681 244.179,-698.797 245.932,-705.574"/>
<text text-anchor="middle" x="187.1" y="-738.3" font-family="Times,serif" font-size="14.00">version_ch</text>
</g>
<!-- p10 -->
<g id="node9" class="node"><title>p10</title>
<ellipse fill="none" stroke="black" cx="257.6" cy="-624" rx="3.25" ry="3.5"/>
<text text-anchor="middle" x="243.1" y="-631.3" font-family="Times,serif" font-size="14.00">mix</text>
</g>
<!-- p6&#45;&gt;p10 -->
<g id="edge8" class="edge"><title>p6&#45;&gt;p10</title>
<path fill="none" stroke="black" d="M257.6,-694.265C257.6,-685.133 257.6,-655.282 257.6,-637.892"/>
<polygon fill="black" stroke="black" points="261.1,-637.737 257.6,-627.737 254.1,-637.737 261.1,-637.737"/>
<text text-anchor="middle" x="287.1" y="-650.3" font-family="Times,serif" font-size="14.00">version_ch</text>
</g>
<!-- p9 -->
<g id="node6" class="node"><title>p9</title>
<ellipse fill="none" stroke="black" cx="472.6" cy="-698" rx="73.1654" ry="18"/>
<text text-anchor="middle" x="472.6" y="-694.3" font-family="Times,serif" font-size="14.00">FASTMAP:BWA</text>
</g>
<!-- p3&#45;&gt;p9 -->
<g id="edge4" class="edge"><title>p3&#45;&gt;p9</title>
<path fill="none" stroke="black" d="M592.542,-782.256C589.171,-773.853 577.879,-748.189 560.6,-734 551.558,-726.575 540.744,-720.574 529.842,-715.778"/>
<polygon fill="black" stroke="black" points="530.861,-712.414 520.28,-711.869 528.212,-718.893 530.861,-712.414"/>
<text text-anchor="middle" x="598.6" y="-738.3" font-family="Times,serif" font-size="14.00">fastq_ch</text>
</g>
<!-- p11 -->
<g id="node12" class="node"><title>p11</title>
<ellipse fill="none" stroke="black" cx="478.6" cy="-624" rx="3.25" ry="3.5"/>
<text text-anchor="middle" x="444.1" y="-631.3" font-family="Times,serif" font-size="14.00">groupTuple</text>
</g>
<!-- p9&#45;&gt;p11 -->
<g id="edge11" class="edge"><title>p9&#45;&gt;p11</title>
<path fill="none" stroke="black" d="M474.022,-679.937C475.101,-666.989 476.561,-649.471 477.539,-637.731"/>
<polygon fill="black" stroke="black" points="481.028,-638.004 478.371,-627.748 474.053,-637.423 481.028,-638.004"/>
</g>
<!-- p9&#45;&gt;p10 -->
<g id="edge12" class="edge"><title>p9&#45;&gt;p10</title>
<path fill="none" stroke="black" d="M431.319,-683.125C400.752,-672.856 358.085,-658.536 320.6,-646 303.034,-640.125 282.704,-633.354 269.997,-629.124"/>
<polygon fill="black" stroke="black" points="271.083,-625.797 260.489,-625.961 268.873,-632.439 271.083,-625.797"/>
</g>
<!-- p4 -->
<g id="node7" class="node"><title>p4</title>
<ellipse fill="black" stroke="black" cx="278.6" cy="-860" rx="3.6" ry="3.6"/>
</g>
<!-- p5 -->
<g id="node8" class="node"><title>p5</title>
<ellipse fill="none" stroke="black" cx="278.6" cy="-786" rx="168.478" ry="18"/>
<text text-anchor="middle" x="278.6" y="-782.3" font-family="Times,serif" font-size="14.00">FASTMAP:COMPILE_FASTQ_SPLITTER</text>
</g>
<!-- p4&#45;&gt;p5 -->
<g id="edge5" class="edge"><title>p4&#45;&gt;p5</title>
<path fill="none" stroke="black" d="M278.6,-856.265C278.6,-849.354 278.6,-830.578 278.6,-814.316"/>
<polygon fill="black" stroke="black" points="282.1,-814.143 278.6,-804.143 275.1,-814.143 282.1,-814.143"/>
<text text-anchor="middle" x="292.6" y="-826.3" font-family="Times,serif" font-size="14.00">meta</text>
</g>
<!-- p5&#45;&gt;p9 -->
<g id="edge6" class="edge"><title>p5&#45;&gt;p9</title>
<path fill="none" stroke="black" d="M316.005,-768.418C348.412,-754.052 395.309,-733.263 429.327,-718.183"/>
<polygon fill="black" stroke="black" points="430.834,-721.343 438.558,-714.091 427.998,-714.944 430.834,-721.343"/>
</g>
<!-- p5&#45;&gt;p6 -->
<g id="edge7" class="edge"><title>p5&#45;&gt;p6</title>
<path fill="none" stroke="black" d="M274.35,-767.597C270.309,-751.046 264.325,-726.54 260.71,-711.737"/>
<polygon fill="black" stroke="black" points="264.025,-710.555 258.252,-701.671 257.224,-712.216 264.025,-710.555"/>
</g>
<!-- p15 -->
<g id="node13" class="node"><title>p15</title>
<ellipse fill="none" stroke="black" cx="276.6" cy="-490" rx="3.25" ry="3.5"/>
<text text-anchor="middle" x="262.1" y="-497.3" font-family="Times,serif" font-size="14.00">mix</text>
</g>
<!-- p10&#45;&gt;p15 -->
<g id="edge13" class="edge"><title>p10&#45;&gt;p15</title>
<path fill="none" stroke="black" d="M257.662,-620.446C257.956,-609.643 259.473,-566.671 265.6,-532 267.337,-522.169 270.316,-511.261 272.736,-503.17"/>
<polygon fill="black" stroke="black" points="276.099,-504.144 275.747,-493.555 269.418,-502.052 276.099,-504.144"/>
<text text-anchor="middle" x="295.1" y="-546.3" font-family="Times,serif" font-size="14.00">version_ch</text>
</g>
<!-- p7 -->
<g id="node10" class="node"><title>p7</title>
<ellipse fill="black" stroke="black" cx="469.6" cy="-786" rx="3.6" ry="3.6"/>
</g>
<!-- p7&#45;&gt;p9 -->
<g id="edge9" class="edge"><title>p7&#45;&gt;p9</title>
<path fill="none" stroke="black" d="M469.618,-782.235C469.675,-774.57 469.894,-752.407 470.6,-734 470.698,-731.446 470.818,-728.787 470.949,-726.128"/>
<polygon fill="black" stroke="black" points="474.447,-726.259 471.495,-716.084 467.458,-725.879 474.447,-726.259"/>
<text text-anchor="middle" x="484.6" y="-738.3" font-family="Times,serif" font-size="14.00">meta</text>
</g>
<!-- p8 -->
<g id="node11" class="node"><title>p8</title>
<ellipse fill="black" stroke="black" cx="520.6" cy="-786" rx="3.6" ry="3.6"/>
</g>
<!-- p8&#45;&gt;p9 -->
<g id="edge10" class="edge"><title>p8&#45;&gt;p9</title>
<path fill="none" stroke="black" d="M519.626,-782.126C516.881,-774.184 508.62,-751.375 498.6,-734 496.712,-730.725 494.571,-727.397 492.348,-724.159"/>
<polygon fill="black" stroke="black" points="495.079,-721.963 486.388,-715.904 489.403,-726.06 495.079,-721.963"/>
<text text-anchor="middle" x="531.6" y="-738.3" font-family="Times,serif" font-size="14.00">reference</text>
</g>
<!-- p14 -->
<g id="node14" class="node"><title>p14</title>
<ellipse fill="none" stroke="black" cx="469.6" cy="-550" rx="135.258" ry="18"/>
<text text-anchor="middle" x="469.6" y="-546.3" font-family="Times,serif" font-size="14.00">FASTMAP:SAMTOOLS_MERGE</text>
</g>
<!-- p11&#45;&gt;p14 -->
<g id="edge14" class="edge"><title>p11&#45;&gt;p14</title>
<path fill="none" stroke="black" d="M478.34,-620.304C477.745,-614.192 476.208,-598.822 474.6,-586 474.279,-583.442 473.929,-580.781 473.568,-578.12"/>
<polygon fill="black" stroke="black" points="477.014,-577.491 472.158,-568.074 470.082,-578.463 477.014,-577.491"/>
</g>
<!-- p21 -->
<g id="node18" class="node"><title>p21</title>
<ellipse fill="none" stroke="black" cx="318.6" cy="-296" rx="3.25" ry="3.5"/>
<text text-anchor="middle" x="304.1" y="-303.3" font-family="Times,serif" font-size="14.00">mix</text>
</g>
<!-- p15&#45;&gt;p21 -->
<g id="edge19" class="edge"><title>p15&#45;&gt;p21</title>
<path fill="none" stroke="black" d="M276.714,-486.337C277.37,-472.222 281.158,-404.809 295.6,-352 299.851,-336.457 307.438,-319.477 312.731,-308.557"/>
<polygon fill="black" stroke="black" points="315.949,-309.947 317.308,-299.44 309.693,-306.807 315.949,-309.947"/>
<text text-anchor="middle" x="314.1" y="-410.3" font-family="Times,serif" font-size="14.00">version_ch</text>
</g>
<!-- p16 -->
<g id="node17" class="node"><title>p16</title>
<ellipse fill="none" stroke="black" cx="469.6" cy="-490" rx="3.25" ry="3.5"/>
<text text-anchor="middle" x="453.6" y="-497.3" font-family="Times,serif" font-size="14.00">map</text>
</g>
<!-- p14&#45;&gt;p16 -->
<g id="edge17" class="edge"><title>p14&#45;&gt;p16</title>
<path fill="none" stroke="black" d="M469.6,-531.912C469.6,-522.965 469.6,-512.187 469.6,-503.94"/>
<polygon fill="black" stroke="black" points="473.1,-503.691 469.6,-493.691 466.1,-503.691 473.1,-503.691"/>
</g>
<!-- p14&#45;&gt;p15 -->
<g id="edge18" class="edge"><title>p14&#45;&gt;p15</title>
<path fill="none" stroke="black" d="M417.371,-533.304C373.823,-520.217 314.917,-502.515 289.335,-494.827"/>
<polygon fill="black" stroke="black" points="290.041,-491.385 279.457,-491.859 288.026,-498.089 290.041,-491.385"/>
</g>
<!-- p12 -->
<g id="node15" class="node"><title>p12</title>
<ellipse fill="black" stroke="black" cx="372.6" cy="-624" rx="3.6" ry="3.6"/>
</g>
<!-- p12&#45;&gt;p14 -->
<g id="edge15" class="edge"><title>p12&#45;&gt;p14</title>
<path fill="none" stroke="black" d="M372.895,-620.289C373.761,-613.595 376.879,-596.09 386.6,-586 392.169,-580.219 398.841,-575.349 405.951,-571.258"/>
<polygon fill="black" stroke="black" points="407.881,-574.199 415.14,-566.481 404.653,-567.988 407.881,-574.199"/>
<text text-anchor="middle" x="400.6" y="-590.3" font-family="Times,serif" font-size="14.00">meta</text>
</g>
<!-- p13 -->
<g id="node16" class="node"><title>p13</title>
<ellipse fill="black" stroke="black" cx="423.6" cy="-624" rx="3.6" ry="3.6"/>
</g>
<!-- p13&#45;&gt;p14 -->
<g id="edge16" class="edge"><title>p13&#45;&gt;p14</title>
<path fill="none" stroke="black" d="M422.534,-620.487C420.061,-614.244 414.584,-597.69 420.6,-586 422.844,-581.64 425.91,-577.702 429.423,-574.179"/>
<polygon fill="black" stroke="black" points="431.851,-576.707 437.139,-567.526 427.28,-571.406 431.851,-576.707"/>
<text text-anchor="middle" x="445.6" y="-590.3" font-family="Times,serif" font-size="14.00">reference</text>
</g>
<!-- p17 -->
<g id="node19" class="node"><title>p17</title>
<ellipse fill="none" stroke="black" cx="469.6" cy="-444" rx="3.25" ry="3.5"/>
<text text-anchor="middle" x="447.6" y="-451.3" font-family="Times,serif" font-size="14.00">collect</text>
</g>
<!-- p16&#45;&gt;p17 -->
<g id="edge20" class="edge"><title>p16&#45;&gt;p17</title>
<path fill="none" stroke="black" d="M469.6,-486.379C469.6,-480.864 469.6,-467.742 469.6,-457.742"/>
<polygon fill="black" stroke="black" points="473.1,-457.552 469.6,-447.552 466.1,-457.552 473.1,-457.552"/>
</g>
<!-- p22 -->
<g id="node23" class="node"><title>p22</title>
<ellipse fill="none" stroke="black" cx="318.6" cy="-236" rx="3.25" ry="3.5"/>
<text text-anchor="middle" x="296.6" y="-243.3" font-family="Times,serif" font-size="14.00">collect</text>
</g>
<!-- p21&#45;&gt;p22 -->
<g id="edge25" class="edge"><title>p21&#45;&gt;p22</title>
<path fill="none" stroke="black" d="M318.6,-292.203C318.6,-284.649 318.6,-263.48 318.6,-249.66"/>
<polygon fill="black" stroke="black" points="322.1,-249.636 318.6,-239.636 315.1,-249.636 322.1,-249.636"/>
<text text-anchor="middle" x="348.1" y="-262.3" font-family="Times,serif" font-size="14.00">version_ch</text>
</g>
<!-- p19 -->
<g id="node20" class="node"><title>p19</title>
<ellipse fill="none" stroke="black" cx="450.6" cy="-370" rx="145.38" ry="18"/>
<text text-anchor="middle" x="450.6" y="-366.3" font-family="Times,serif" font-size="14.00">FASTMAP:COLLECT_TO_FILE_01</text>
</g>
<!-- p17&#45;&gt;p19 -->
<g id="edge21" class="edge"><title>p17&#45;&gt;p19</title>
<path fill="none" stroke="black" d="M468.878,-440.265C467.037,-433.288 462.005,-414.219 457.686,-397.852"/>
<polygon fill="black" stroke="black" points="461.06,-396.919 455.124,-388.143 454.291,-398.705 461.06,-396.919"/>
</g>
<!-- p20 -->
<g id="node22" class="node"><title>p20</title>
<ellipse fill="black" stroke="black" cx="450.6" cy="-296" rx="1.8" ry="1.8"/>
</g>
<!-- p19&#45;&gt;p20 -->
<g id="edge23" class="edge"><title>p19&#45;&gt;p20</title>
<path fill="none" stroke="black" d="M450.6,-351.937C450.6,-338.37 450.6,-319.787 450.6,-308.089"/>
<polygon fill="black" stroke="black" points="454.1,-307.849 450.6,-297.849 447.1,-307.849 454.1,-307.849"/>
<text text-anchor="middle" x="465.6" y="-322.3" font-family="Times,serif" font-size="14.00">bams</text>
</g>
<!-- p19&#45;&gt;p21 -->
<g id="edge24" class="edge"><title>p19&#45;&gt;p21</title>
<path fill="none" stroke="black" d="M419.985,-352.301C391.208,-336.604 349.689,-313.958 329.907,-303.168"/>
<polygon fill="black" stroke="black" points="331.487,-300.043 321.032,-298.327 328.135,-306.188 331.487,-300.043"/>
</g>
<!-- p18 -->
<g id="node21" class="node"><title>p18</title>
<ellipse fill="black" stroke="black" cx="426.6" cy="-444" rx="3.6" ry="3.6"/>
</g>
<!-- p18&#45;&gt;p19 -->
<g id="edge22" class="edge"><title>p18&#45;&gt;p19</title>
<path fill="none" stroke="black" d="M426.286,-440.223C425.675,-433.948 424.705,-418.262 428.6,-406 429.6,-402.853 430.95,-399.708 432.494,-396.664"/>
<polygon fill="black" stroke="black" points="435.563,-398.348 437.543,-387.94 429.504,-394.842 435.563,-398.348"/>
<text text-anchor="middle" x="442.6" y="-410.3" font-family="Times,serif" font-size="14.00">meta</text>
</g>
<!-- p26 -->
<g id="node24" class="node"><title>p26</title>
<ellipse fill="none" stroke="black" cx="376.6" cy="-162" rx="126.608" ry="18"/>
<text text-anchor="middle" x="376.6" y="-158.3" font-family="Times,serif" font-size="14.00">FASTMAP:MERGE_VERSION</text>
</g>
<!-- p22&#45;&gt;p26 -->
<g id="edge26" class="edge"><title>p22&#45;&gt;p26</title>
<path fill="none" stroke="black" d="M320.32,-232.624C324.631,-226.694 336.29,-210.797 346.6,-198 349.311,-194.635 352.214,-191.132 355.106,-187.699"/>
<polygon fill="black" stroke="black" points="357.918,-189.796 361.741,-179.915 352.59,-185.255 357.918,-189.796"/>
</g>
<!-- p28 -->
<g id="node28" class="node"><title>p28</title>
<ellipse fill="none" stroke="black" cx="479.6" cy="-74" rx="137.183" ry="18"/>
<text text-anchor="middle" x="479.6" y="-70.3" font-family="Times,serif" font-size="14.00">FASTMAP:VERSION_TO_HTML</text>
</g>
<!-- p26&#45;&gt;p28 -->
<g id="edge30" class="edge"><title>p26&#45;&gt;p28</title>
<path fill="none" stroke="black" d="M396.949,-144.009C412.467,-131.052 434.03,-113.049 451.24,-98.6796"/>
<polygon fill="black" stroke="black" points="453.86,-101.051 459.293,-91.9555 449.373,-95.6781 453.86,-101.051"/>
</g>
<!-- p23 -->
<g id="node25" class="node"><title>p23</title>
<ellipse fill="black" stroke="black" cx="351.6" cy="-236" rx="3.6" ry="3.6"/>
</g>
<!-- p23&#45;&gt;p26 -->
<g id="edge27" class="edge"><title>p23&#45;&gt;p26</title>
<path fill="none" stroke="black" d="M351.153,-232.218C350.253,-225.931 348.63,-210.223 352.6,-198 353.624,-194.847 355.03,-191.72 356.651,-188.709"/>
<polygon fill="black" stroke="black" points="359.691,-190.449 361.997,-180.109 353.745,-186.754 359.691,-190.449"/>
<text text-anchor="middle" x="366.6" y="-202.3" font-family="Times,serif" font-size="14.00">meta</text>
</g>
<!-- p24 -->
<g id="node26" class="node"><title>p24</title>
<ellipse fill="black" stroke="black" cx="402.6" cy="-236" rx="3.6" ry="3.6"/>
</g>
<!-- p24&#45;&gt;p26 -->
<g id="edge28" class="edge"><title>p24&#45;&gt;p26</title>
<path fill="none" stroke="black" d="M401.613,-232.265C399.093,-225.288 392.207,-206.219 386.297,-189.852"/>
<polygon fill="black" stroke="black" points="389.479,-188.36 382.79,-180.143 382.895,-190.737 389.479,-188.36"/>
<text text-anchor="middle" x="411.1" y="-202.3" font-family="Times,serif" font-size="14.00">name</text>
</g>
<!-- p25 -->
<g id="node27" class="node"><title>p25</title>
<ellipse fill="black" stroke="black" cx="456.6" cy="-236" rx="3.6" ry="3.6"/>
</g>
<!-- p25&#45;&gt;p26 -->
<g id="edge29" class="edge"><title>p25&#45;&gt;p26</title>
<path fill="none" stroke="black" d="M455.245,-232.416C451.796,-226.009 442.135,-209.111 430.6,-198 425.953,-193.524 420.655,-189.287 415.236,-185.407"/>
<polygon fill="black" stroke="black" points="416.938,-182.334 406.696,-179.624 413.013,-188.13 416.938,-182.334"/>
<text text-anchor="middle" x="474.1" y="-202.3" font-family="Times,serif" font-size="14.00">description</text>
</g>
<!-- p29 -->
<g id="node30" class="node"><title>p29</title>
<ellipse fill="black" stroke="black" cx="479.6" cy="-2" rx="1.8" ry="1.8"/>
</g>
<!-- p28&#45;&gt;p29 -->
<g id="edge32" class="edge"><title>p28&#45;&gt;p29</title>
<path fill="none" stroke="black" d="M479.6,-55.6966C479.6,-42.6347 479.6,-25.1104 479.6,-13.9338"/>
<polygon fill="black" stroke="black" points="483.1,-13.8073 479.6,-3.8073 476.1,-13.8073 483.1,-13.8073"/>
<text text-anchor="middle" x="492.6" y="-26.3" font-family="Times,serif" font-size="14.00">html</text>
</g>
<!-- p27 -->
<g id="node29" class="node"><title>p27</title>
<ellipse fill="black" stroke="black" cx="524.6" cy="-162" rx="3.6" ry="3.6"/>
</g>
<!-- p27&#45;&gt;p28 -->
<g id="edge31" class="edge"><title>p27&#45;&gt;p28</title>
<path fill="none" stroke="black" d="M523.302,-158.519C518.933,-150.17 504.418,-122.43 493.303,-101.188"/>
<polygon fill="black" stroke="black" points="496.373,-99.5053 488.635,-92.2676 490.171,-102.751 496.373,-99.5053"/>
<text text-anchor="middle" x="520.6" y="-114.3" font-family="Times,serif" font-size="14.00">meta</text>
</g>
</g>
</svg>
