<?xml version="1.0" encoding="UTF-8" standalone="no"?>
<!DOCTYPE svg PUBLIC "-//W3C//DTD SVG 1.1//EN"
 "http://www.w3.org/Graphics/SVG/1.1/DTD/svg11.dtd">
<!-- Generated by graphviz version 2.30.1 (20201013.1554)
 -->
<!-- Title: 20221020hs37d5cmpbuildworkflow Pages: 1 -->
<svg width="1356pt" height="1270pt"
 viewBox="0.00 0.00 1356.00 1270.00" xmlns="http://www.w3.org/2000/svg" xmlns:xlink="http://www.w3.org/1999/xlink">
<g id="graph0" class="graph" transform="scale(1 1) rotate(0) translate(4 1266)">
<title>20221020hs37d5cmpbuildworkflow</title>
<polygon fill="white" stroke="white" points="-4,5 -4,-1266 1353,-1266 1353,5 -4,5"/>
<!-- p0 -->
<g id="node1" class="node"><title>p0</title>
<ellipse fill="black" stroke="black" cx="757" cy="-620" rx="3.6" ry="3.6"/>
<text text-anchor="middle" x="807.9" y="-627.4" font-family="Times,serif" font-size="14.00">Channel.empty</text>
</g>
<!-- p25 -->
<g id="node2" class="node"><title>p25</title>
<ellipse fill="none" stroke="black" cx="400" cy="-532" rx="3.25" ry="3.5"/>
<text text-anchor="middle" x="383" y="-539.3" font-family="Times,serif" font-size="14.00">mix</text>
</g>
<!-- p0&#45;&gt;p25 -->
<g id="edge1" class="edge"><title>p0&#45;&gt;p25</title>
<path fill="none" stroke="black" d="M755.887,-616.554C754.018,-612.753 749.87,-605.503 744,-602 712.503,-583.202 450.908,-566.202 418,-550 414.488,-548.271 411.197,-545.621 408.414,-542.924"/>
<polygon fill="black" stroke="black" points="410.843,-540.386 401.601,-535.206 405.595,-545.019 410.843,-540.386"/>
<text text-anchor="middle" x="690" y="-572.3" font-family="Times,serif" font-size="14.00">version_ch</text>
</g>
<!-- p30 -->
<g id="node28" class="node"><title>p30</title>
<ellipse fill="none" stroke="black" cx="396" cy="-444" rx="3.25" ry="3.5"/>
<text text-anchor="middle" x="379" y="-451.3" font-family="Times,serif" font-size="14.00">mix</text>
</g>
<!-- p25&#45;&gt;p30 -->
<g id="edge29" class="edge"><title>p25&#45;&gt;p30</title>
<path fill="none" stroke="black" d="M399.724,-528.457C399.111,-522.691 397.641,-508.18 397,-496 396.32,-483.066 396.09,-468.265 396.019,-457.952"/>
<polygon fill="black" stroke="black" points="399.518,-457.757 395.99,-447.766 392.518,-457.776 399.518,-457.757"/>
<text text-anchor="middle" x="436" y="-484.3" font-family="Times,serif" font-size="14.00">version_ch</text>
</g>
<!-- p1 -->
<g id="node3" class="node"><title>p1</title>
<ellipse fill="black" stroke="black" cx="1162" cy="-1110" rx="3.6" ry="3.6"/>
</g>
<!-- p4 -->
<g id="node4" class="node"><title>p4</title>
<ellipse fill="none" stroke="black" cx="1162" cy="-1036" rx="186.3" ry="18"/>
<text text-anchor="middle" x="1162" y="-1032.3" font-family="Times,serif" font-size="14.00">COMPARE_MAPPING:REFERENCES</text>
</g>
<!-- p1&#45;&gt;p4 -->
<g id="edge2" class="edge"><title>p1&#45;&gt;p4</title>
<path fill="none" stroke="black" d="M1162,-1106.27C1162,-1099.35 1162,-1080.58 1162,-1064.32"/>
<polygon fill="black" stroke="black" points="1165.5,-1064.14 1162,-1054.14 1158.5,-1064.14 1165.5,-1064.14"/>
<text text-anchor="middle" x="1180.5" y="-1076.3" font-family="Times,serif" font-size="14.00">meta</text>
</g>
<!-- p14 -->
<g id="node7" class="node"><title>p14</title>
<ellipse fill="none" stroke="black" cx="988" cy="-948" rx="306.184" ry="18"/>
<text text-anchor="middle" x="988" y="-944.3" font-family="Times,serif" font-size="14.00">COMPARE_MAPPING:SAMTOOLS_SAMPLES_01:ST_SAMPLE</text>
</g>
<!-- p4&#45;&gt;p14 -->
<g id="edge5" class="edge"><title>p4&#45;&gt;p14</title>
<path fill="none" stroke="black" d="M1131.93,-1018.1C1113.39,-1007.88 1089.03,-994.774 1067,-984 1057.4,-979.305 1047.03,-974.513 1037.05,-970.042"/>
<polygon fill="black" stroke="black" points="1038.21,-966.726 1027.65,-965.866 1035.37,-973.124 1038.21,-966.726"/>
<text text-anchor="middle" x="1135.5" y="-988.3" font-family="Times,serif" font-size="14.00">references</text>
</g>
<!-- p2 -->
<g id="node5" class="node"><title>p2</title>
<ellipse fill="black" stroke="black" cx="1222" cy="-1110" rx="3.6" ry="3.6"/>
</g>
<!-- p2&#45;&gt;p4 -->
<g id="edge3" class="edge"><title>p2&#45;&gt;p4</title>
<path fill="none" stroke="black" d="M1220.83,-1106.51C1217.87,-1100.31 1209.6,-1083.84 1200,-1072 1196.98,-1068.28 1193.57,-1064.58 1190.05,-1061.07"/>
<polygon fill="black" stroke="black" points="1192.45,-1058.52 1182.8,-1054.16 1187.62,-1063.59 1192.45,-1058.52"/>
<text text-anchor="middle" x="1250.5" y="-1076.3" font-family="Times,serif" font-size="14.00">reference1</text>
</g>
<!-- p3 -->
<g id="node6" class="node"><title>p3</title>
<ellipse fill="black" stroke="black" cx="1060" cy="-1110" rx="3.6" ry="3.6"/>
</g>
<!-- p3&#45;&gt;p4 -->
<g id="edge4" class="edge"><title>p3&#45;&gt;p4</title>
<path fill="none" stroke="black" d="M1060.7,-1106.28C1062.55,-1099.56 1068.2,-1082.02 1079,-1072 1084.81,-1066.62 1091.56,-1061.99 1098.66,-1058.04"/>
<polygon fill="black" stroke="black" points="1100.48,-1061.04 1107.8,-1053.39 1097.3,-1054.81 1100.48,-1061.04"/>
<text text-anchor="middle" x="1118.5" y="-1076.3" font-family="Times,serif" font-size="14.00">reference2</text>
</g>
<!-- p16 -->
<g id="node18" class="node"><title>p16</title>
<ellipse fill="none" stroke="black" cx="1005" cy="-888" rx="3.25" ry="3.5"/>
<text text-anchor="middle" x="977" y="-895.3" font-family="Times,serif" font-size="14.00">collect</text>
</g>
<!-- p14&#45;&gt;p16 -->
<g id="edge16" class="edge"><title>p14&#45;&gt;p16</title>
<path fill="none" stroke="black" d="M993.009,-929.912C995.693,-920.752 998.941,-909.673 1001.38,-901.355"/>
<polygon fill="black" stroke="black" points="1004.76,-902.272 1004.21,-891.691 998.04,-900.303 1004.76,-902.272"/>
</g>
<!-- p15 -->
<g id="node14" class="node"><title>p15</title>
<ellipse fill="none" stroke="black" cx="648" cy="-888" rx="3.25" ry="3.5"/>
<text text-anchor="middle" x="631" y="-895.3" font-family="Times,serif" font-size="14.00">mix</text>
</g>
<!-- p14&#45;&gt;p15 -->
<g id="edge17" class="edge"><title>p14&#45;&gt;p15</title>
<path fill="none" stroke="black" d="M893.291,-930.844C811.032,-916.811 699.3,-897.751 661.288,-891.267"/>
<polygon fill="black" stroke="black" points="661.532,-887.758 651.086,-889.526 660.355,-894.658 661.532,-887.758"/>
</g>
<!-- p5 -->
<g id="node8" class="node"><title>p5</title>
<ellipse fill="black" stroke="black" cx="630" cy="-1184" rx="3.6" ry="3.6"/>
<text text-anchor="middle" x="571.9" y="-1191.4" font-family="Times,serif" font-size="14.00">Channel.empty</text>
</g>
<!-- p9 -->
<g id="node9" class="node"><title>p9</title>
<ellipse fill="none" stroke="black" cx="648" cy="-1110" rx="3.25" ry="3.5"/>
<text text-anchor="middle" x="631" y="-1117.3" font-family="Times,serif" font-size="14.00">mix</text>
</g>
<!-- p5&#45;&gt;p9 -->
<g id="edge6" class="edge"><title>p5&#45;&gt;p9</title>
<path fill="none" stroke="black" d="M630.684,-1180.27C632.978,-1171.09 640.502,-1140.99 644.84,-1123.64"/>
<polygon fill="black" stroke="black" points="648.286,-1124.29 647.316,-1113.74 641.495,-1122.59 648.286,-1124.29"/>
<text text-anchor="middle" x="682" y="-1136.3" font-family="Times,serif" font-size="14.00">version_ch</text>
</g>
<!-- p9&#45;&gt;p15 -->
<g id="edge11" class="edge"><title>p9&#45;&gt;p15</title>
<path fill="none" stroke="black" d="M648,-1106.22C648,-1084.76 648,-945.267 648,-901.867"/>
<polygon fill="black" stroke="black" points="651.5,-901.719 648,-891.72 644.5,-901.72 651.5,-901.719"/>
<text text-anchor="middle" x="687" y="-988.3" font-family="Times,serif" font-size="14.00">version_ch</text>
</g>
<!-- p6 -->
<g id="node10" class="node"><title>p6</title>
<ellipse fill="black" stroke="black" cx="924" cy="-1258" rx="3.6" ry="3.6"/>
</g>
<!-- p8 -->
<g id="node11" class="node"><title>p8</title>
<ellipse fill="none" stroke="black" cx="954" cy="-1184" rx="302.335" ry="18"/>
<text text-anchor="middle" x="954" y="-1180.3" font-family="Times,serif" font-size="14.00">COMPARE_MAPPING:SAMTOOLS_SAMPLES_01:SQRT_FILE</text>
</g>
<!-- p6&#45;&gt;p8 -->
<g id="edge7" class="edge"><title>p6&#45;&gt;p8</title>
<path fill="none" stroke="black" d="M923.474,-1254.19C922.412,-1247.85 920.479,-1232.03 925,-1220 926.26,-1216.65 927.984,-1213.39 929.968,-1210.28"/>
<polygon fill="black" stroke="black" points="932.938,-1212.16 936.081,-1202.04 927.314,-1207.99 932.938,-1212.16"/>
<text text-anchor="middle" x="943.5" y="-1224.3" font-family="Times,serif" font-size="14.00">meta</text>
</g>
<!-- p10 -->
<g id="node13" class="node"><title>p10</title>
<ellipse fill="none" stroke="black" cx="954" cy="-1110" rx="3.25" ry="3.5"/>
<text text-anchor="middle" x="918.5" y="-1117.3" font-family="Times,serif" font-size="14.00">splitText</text>
</g>
<!-- p8&#45;&gt;p10 -->
<g id="edge9" class="edge"><title>p8&#45;&gt;p10</title>
<path fill="none" stroke="black" d="M954,-1165.94C954,-1153.13 954,-1135.84 954,-1124.11"/>
<polygon fill="black" stroke="black" points="957.5,-1123.75 954,-1113.75 950.5,-1123.75 957.5,-1123.75"/>
</g>
<!-- p8&#45;&gt;p9 -->
<g id="edge10" class="edge"><title>p8&#45;&gt;p9</title>
<path fill="none" stroke="black" d="M883.797,-1166.48C809.929,-1149.1 699.213,-1123.05 661.293,-1114.13"/>
<polygon fill="black" stroke="black" points="661.631,-1110.61 651.095,-1111.73 660.028,-1117.43 661.631,-1110.61"/>
</g>
<!-- p7 -->
<g id="node12" class="node"><title>p7</title>
<ellipse fill="black" stroke="black" cx="984" cy="-1258" rx="3.6" ry="3.6"/>
</g>
<!-- p7&#45;&gt;p8 -->
<g id="edge8" class="edge"><title>p7&#45;&gt;p8</title>
<path fill="none" stroke="black" d="M982.861,-1254.27C979.926,-1247.22 971.858,-1227.86 964.996,-1211.39"/>
<polygon fill="black" stroke="black" points="968.22,-1210.03 961.143,-1202.14 961.758,-1212.72 968.22,-1210.03"/>
<text text-anchor="middle" x="994.5" y="-1224.3" font-family="Times,serif" font-size="14.00">filein</text>
</g>
<!-- p11 -->
<g id="node15" class="node"><title>p11</title>
<ellipse fill="none" stroke="black" cx="954" cy="-1036" rx="3.25" ry="3.5"/>
<text text-anchor="middle" x="935" y="-1043.3" font-family="Times,serif" font-size="14.00">map</text>
</g>
<!-- p10&#45;&gt;p11 -->
<g id="edge12" class="edge"><title>p10&#45;&gt;p11</title>
<path fill="none" stroke="black" d="M954,-1106.27C954,-1097.13 954,-1067.28 954,-1049.89"/>
<polygon fill="black" stroke="black" points="957.5,-1049.74 954,-1039.74 950.5,-1049.74 957.5,-1049.74"/>
</g>
<!-- p19 -->
<g id="node19" class="node"><title>p19</title>
<ellipse fill="none" stroke="black" cx="638" cy="-754" rx="3.25" ry="3.5"/>
<text text-anchor="middle" x="621" y="-761.3" font-family="Times,serif" font-size="14.00">mix</text>
</g>
<!-- p15&#45;&gt;p19 -->
<g id="edge18" class="edge"><title>p15&#45;&gt;p19</title>
<path fill="none" stroke="black" d="M647.791,-884.243C646.657,-869.279 641.212,-797.397 638.969,-767.788"/>
<polygon fill="black" stroke="black" points="642.453,-767.449 638.208,-757.742 635.473,-767.978 642.453,-767.449"/>
<text text-anchor="middle" x="683" y="-810.3" font-family="Times,serif" font-size="14.00">version_ch</text>
</g>
<!-- p11&#45;&gt;p14 -->
<g id="edge13" class="edge"><title>p11&#45;&gt;p14</title>
<path fill="none" stroke="black" d="M955.499,-1032.41C957.588,-1028.91 961.616,-1022.61 966,-1018 974.949,-1008.6 983.315,-1011.67 989,-1000 992.506,-992.804 993.412,-984.331 993.116,-976.381"/>
<polygon fill="black" stroke="black" points="996.596,-975.999 992.153,-966.381 989.628,-976.67 996.596,-975.999"/>
<text text-anchor="middle" x="1028" y="-988.3" font-family="Times,serif" font-size="14.00">chunk_ch</text>
</g>
<!-- p12 -->
<g id="node16" class="node"><title>p12</title>
<ellipse fill="black" stroke="black" cx="858" cy="-1036" rx="3.6" ry="3.6"/>
</g>
<!-- p12&#45;&gt;p14 -->
<g id="edge14" class="edge"><title>p12&#45;&gt;p14</title>
<path fill="none" stroke="black" d="M857.768,-1032.24C857.219,-1023.79 856.76,-998.02 870,-984 875.094,-978.606 880.976,-974.032 887.339,-970.153"/>
<polygon fill="black" stroke="black" points="889.175,-973.139 896.286,-965.285 885.83,-966.99 889.175,-973.139"/>
<text text-anchor="middle" x="888.5" y="-988.3" font-family="Times,serif" font-size="14.00">meta</text>
</g>
<!-- p13 -->
<g id="node17" class="node"><title>p13</title>
<ellipse fill="black" stroke="black" cx="918" cy="-1036" rx="3.6" ry="3.6"/>
</g>
<!-- p13&#45;&gt;p14 -->
<g id="edge15" class="edge"><title>p13&#45;&gt;p14</title>
<path fill="none" stroke="black" d="M916.877,-1032.41C913.614,-1024.45 904.982,-999.913 915,-984 917.948,-979.317 921.717,-975.246 925.983,-971.71"/>
<polygon fill="black" stroke="black" points="928.016,-974.559 934.131,-965.907 923.955,-968.858 928.016,-974.559"/>
<text text-anchor="middle" x="950" y="-988.3" font-family="Times,serif" font-size="14.00">reference</text>
</g>
<!-- p18 -->
<g id="node20" class="node"><title>p18</title>
<ellipse fill="none" stroke="black" cx="1019" cy="-814" rx="284.512" ry="18"/>
<text text-anchor="middle" x="1019" y="-810.3" font-family="Times,serif" font-size="14.00">COMPARE_MAPPING:SAMTOOLS_SAMPLES_01:DIGEST</text>
</g>
<!-- p16&#45;&gt;p18 -->
<g id="edge19" class="edge"><title>p16&#45;&gt;p18</title>
<path fill="none" stroke="black" d="M1005.53,-884.265C1006.88,-877.354 1010.53,-858.578 1013.69,-842.316"/>
<polygon fill="black" stroke="black" points="1017.19,-842.627 1015.67,-832.143 1010.32,-841.291 1017.19,-842.627"/>
</g>
<!-- p20 -->
<g id="node23" class="node"><title>p20</title>
<ellipse fill="none" stroke="black" cx="607" cy="-694" rx="3.25" ry="3.5"/>
<text text-anchor="middle" x="579" y="-701.3" font-family="Times,serif" font-size="14.00">collect</text>
</g>
<!-- p19&#45;&gt;p20 -->
<g id="edge23" class="edge"><title>p19&#45;&gt;p20</title>
<path fill="none" stroke="black" d="M636.668,-750.508C632.684,-743.054 620.677,-720.589 613.215,-706.628"/>
<polygon fill="black" stroke="black" points="616.093,-704.588 608.293,-697.418 609.92,-707.888 616.093,-704.588"/>
<text text-anchor="middle" x="666" y="-720.3" font-family="Times,serif" font-size="14.00">version_ch</text>
</g>
<!-- p45 -->
<g id="node22" class="node"><title>p45</title>
<ellipse fill="none" stroke="black" cx="827" cy="-356" rx="141.056" ry="18"/>
<text text-anchor="middle" x="827" y="-352.3" font-family="Times,serif" font-size="14.00">COMPARE_MAPPING:JOIN</text>
</g>
<!-- p18&#45;&gt;p45 -->
<g id="edge21" class="edge"><title>p18&#45;&gt;p45</title>
<path fill="none" stroke="black" d="M1021.27,-795.776C1022.59,-784.255 1024,-768.745 1024,-755 1024,-755 1024,-755 1024,-443 1024,-402.751 989.033,-381.151 948.563,-369.631"/>
<polygon fill="black" stroke="black" points="949.3,-366.206 938.739,-367.05 947.521,-372.976 949.3,-366.206"/>
<text text-anchor="middle" x="1048" y="-616.3" font-family="Times,serif" font-size="14.00">output</text>
</g>
<!-- p18&#45;&gt;p19 -->
<g id="edge22" class="edge"><title>p18&#45;&gt;p19</title>
<path fill="none" stroke="black" d="M915.393,-797.228C821.738,-782.971 692.423,-763.285 651.188,-757.008"/>
<polygon fill="black" stroke="black" points="651.616,-753.532 641.203,-755.488 650.562,-760.453 651.616,-753.532"/>
</g>
<!-- p17 -->
<g id="node21" class="node"><title>p17</title>
<ellipse fill="black" stroke="black" cx="967" cy="-888" rx="3.6" ry="3.6"/>
</g>
<!-- p17&#45;&gt;p18 -->
<g id="edge20" class="edge"><title>p17&#45;&gt;p18</title>
<path fill="none" stroke="black" d="M966.348,-884.078C965.046,-877.504 962.752,-861.247 969,-850 971.352,-845.765 974.459,-841.927 977.976,-838.478"/>
<polygon fill="black" stroke="black" points="980.309,-841.088 985.66,-831.944 975.775,-835.756 980.309,-841.088"/>
<text text-anchor="middle" x="987.5" y="-854.3" font-family="Times,serif" font-size="14.00">meta</text>
</g>
<!-- p47 -->
<g id="node48" class="node"><title>p47</title>
<ellipse fill="black" stroke="black" cx="814" cy="-282" rx="1.8" ry="1.8"/>
</g>
<!-- p45&#45;&gt;p47 -->
<g id="edge54" class="edge"><title>p45&#45;&gt;p47</title>
<path fill="none" stroke="black" d="M823.919,-337.937C821.442,-324.219 818.04,-305.373 815.932,-293.701"/>
<polygon fill="black" stroke="black" points="819.375,-293.068 814.153,-283.849 812.486,-294.312 819.375,-293.068"/>
</g>
<!-- p46 -->
<g id="node49" class="node"><title>p46</title>
<ellipse fill="black" stroke="black" cx="839" cy="-282" rx="1.8" ry="1.8"/>
</g>
<!-- p45&#45;&gt;p46 -->
<g id="edge55" class="edge"><title>p45&#45;&gt;p46</title>
<path fill="none" stroke="black" d="M829.844,-337.937C832.105,-324.37 835.202,-305.787 837.152,-294.089"/>
<polygon fill="black" stroke="black" points="840.667,-294.289 838.858,-283.849 833.762,-293.138 840.667,-294.289"/>
</g>
<!-- p24 -->
<g id="node24" class="node"><title>p24</title>
<ellipse fill="none" stroke="black" cx="400" cy="-620" rx="335.055" ry="18"/>
<text text-anchor="middle" x="400" y="-616.3" font-family="Times,serif" font-size="14.00">COMPARE_MAPPING:SAMTOOLS_SAMPLES_01:MERGE_VERSION</text>
</g>
<!-- p20&#45;&gt;p24 -->
<g id="edge24" class="edge"><title>p20&#45;&gt;p24</title>
<path fill="none" stroke="black" d="M604.477,-691.351C595.675,-685.661 565.37,-666.625 538,-656 522.398,-649.943 505.396,-644.642 488.824,-640.12"/>
<polygon fill="black" stroke="black" points="489.695,-636.73 479.131,-637.548 487.899,-643.496 489.695,-636.73"/>
</g>
<!-- p24&#45;&gt;p25 -->
<g id="edge28" class="edge"><title>p24&#45;&gt;p25</title>
<path fill="none" stroke="black" d="M400,-601.597C400,-585.046 400,-560.54 400,-545.737"/>
<polygon fill="black" stroke="black" points="403.5,-545.671 400,-535.671 396.5,-545.671 403.5,-545.671"/>
</g>
<!-- p21 -->
<g id="node25" class="node"><title>p21</title>
<ellipse fill="black" stroke="black" cx="340" cy="-694" rx="3.6" ry="3.6"/>
</g>
<!-- p21&#45;&gt;p24 -->
<g id="edge25" class="edge"><title>p21&#45;&gt;p24</title>
<path fill="none" stroke="black" d="M340.902,-690.47C343.222,-684.189 349.86,-667.553 359,-656 362.034,-652.165 365.537,-648.437 369.192,-644.933"/>
<polygon fill="black" stroke="black" points="371.707,-647.379 376.805,-638.091 367.028,-642.172 371.707,-647.379"/>
<text text-anchor="middle" x="377.5" y="-660.3" font-family="Times,serif" font-size="14.00">meta</text>
</g>
<!-- p22 -->
<g id="node26" class="node"><title>p22</title>
<ellipse fill="black" stroke="black" cx="400" cy="-694" rx="3.6" ry="3.6"/>
</g>
<!-- p22&#45;&gt;p24 -->
<g id="edge26" class="edge"><title>p22&#45;&gt;p24</title>
<path fill="none" stroke="black" d="M400,-690.265C400,-683.354 400,-664.578 400,-648.316"/>
<polygon fill="black" stroke="black" points="403.5,-648.143 400,-638.143 396.5,-648.143 403.5,-648.143"/>
<text text-anchor="middle" x="420" y="-660.3" font-family="Times,serif" font-size="14.00">name</text>
</g>
<!-- p23 -->
<g id="node27" class="node"><title>p23</title>
<ellipse fill="black" stroke="black" cx="463" cy="-694" rx="3.6" ry="3.6"/>
</g>
<!-- p23&#45;&gt;p24 -->
<g id="edge27" class="edge"><title>p23&#45;&gt;p24</title>
<path fill="none" stroke="black" d="M461.862,-690.483C458.962,-684.231 450.825,-667.657 441,-656 437.849,-652.261 434.276,-648.59 430.585,-645.115"/>
<polygon fill="black" stroke="black" points="432.733,-642.342 422.939,-638.3 428.075,-647.567 432.733,-642.342"/>
<text text-anchor="middle" x="493" y="-660.3" font-family="Times,serif" font-size="14.00">description</text>
</g>
<!-- p35 -->
<g id="node34" class="node"><title>p35</title>
<ellipse fill="none" stroke="black" cx="489" cy="-356" rx="3.25" ry="3.5"/>
<text text-anchor="middle" x="472" y="-363.3" font-family="Times,serif" font-size="14.00">mix</text>
</g>
<!-- p30&#45;&gt;p35 -->
<g id="edge35" class="edge"><title>p30&#45;&gt;p35</title>
<path fill="none" stroke="black" d="M395.121,-440.359C392.599,-432.252 386.192,-407.351 397,-392 415.086,-366.311 454.642,-359.468 475.504,-357.652"/>
<polygon fill="black" stroke="black" points="475.943,-361.132 485.718,-357.047 475.529,-354.144 475.943,-361.132"/>
<text text-anchor="middle" x="436" y="-396.3" font-family="Times,serif" font-size="14.00">version_ch</text>
</g>
<!-- p26 -->
<g id="node29" class="node"><title>p26</title>
<ellipse fill="black" stroke="black" cx="43" cy="-620" rx="3.6" ry="3.6"/>
</g>
<!-- p28 -->
<g id="node30" class="node"><title>p28</title>
<ellipse fill="none" stroke="black" cx="145" cy="-532" rx="145.38" ry="18"/>
<text text-anchor="middle" x="145" y="-528.3" font-family="Times,serif" font-size="14.00">COMPARE_MAPPING:LIFT2</text>
</g>
<!-- p26&#45;&gt;p28 -->
<g id="edge30" class="edge"><title>p26&#45;&gt;p28</title>
<path fill="none" stroke="black" d="M44.665,-616.416C46.9751,-612.935 51.3915,-606.639 56,-602 72.9328,-584.954 94.1179,-568.374 111.571,-555.739"/>
<polygon fill="black" stroke="black" points="113.693,-558.525 119.804,-549.869 109.629,-552.825 113.693,-558.525"/>
<text text-anchor="middle" x="112.5" y="-572.3" font-family="Times,serif" font-size="14.00">meta</text>
</g>
<!-- p40 -->
<g id="node32" class="node"><title>p40</title>
<ellipse fill="none" stroke="black" cx="827" cy="-444" rx="168.478" ry="18"/>
<text text-anchor="middle" x="827" y="-440.3" font-family="Times,serif" font-size="14.00">COMPARE_MAPPING:GET_VCF1</text>
</g>
<!-- p28&#45;&gt;p40 -->
<g id="edge32" class="edge"><title>p28&#45;&gt;p40</title>
<path fill="none" stroke="black" d="M256.846,-520.438C321.779,-514.017 405.098,-505.283 479,-496 562.732,-485.482 657.48,-471.457 726.947,-460.776"/>
<polygon fill="black" stroke="black" points="727.658,-464.208 737.008,-459.226 726.592,-457.29 727.658,-464.208"/>
</g>
<!-- p29 -->
<g id="node33" class="node"><title>p29</title>
<ellipse fill="black" stroke="black" cx="145" cy="-444" rx="1.8" ry="1.8"/>
</g>
<!-- p28&#45;&gt;p29 -->
<g id="edge33" class="edge"><title>p28&#45;&gt;p29</title>
<path fill="none" stroke="black" d="M145,-513.597C145,-496.516 145,-470.965 145,-456.348"/>
<polygon fill="black" stroke="black" points="148.5,-456.095 145,-446.095 141.5,-456.095 148.5,-456.095"/>
</g>
<!-- p28&#45;&gt;p30 -->
<g id="edge34" class="edge"><title>p28&#45;&gt;p30</title>
<path fill="none" stroke="black" d="M191.917,-514.925C251.059,-494.661 349.161,-461.048 383.594,-449.251"/>
<polygon fill="black" stroke="black" points="384.883,-452.509 393.209,-445.956 382.614,-445.887 384.883,-452.509"/>
</g>
<!-- p27 -->
<g id="node31" class="node"><title>p27</title>
<ellipse fill="black" stroke="black" cx="5" cy="-620" rx="3.6" ry="3.6"/>
</g>
<!-- p27&#45;&gt;p28 -->
<g id="edge31" class="edge"><title>p27&#45;&gt;p28</title>
<path fill="none" stroke="black" d="M6.41953,-616.229C10.8999,-607.748 25.6009,-581.884 45,-568 53.818,-561.689 63.8778,-556.429 74.1399,-552.069"/>
<polygon fill="black" stroke="black" points="75.5896,-555.26 83.5913,-548.315 73.0055,-548.754 75.5896,-555.26"/>
<text text-anchor="middle" x="59" y="-572.3" font-family="Times,serif" font-size="14.00">row</text>
</g>
<!-- p40&#45;&gt;p45 -->
<g id="edge46" class="edge"><title>p40&#45;&gt;p45</title>
<path fill="none" stroke="black" d="M821.496,-426.009C820.193,-414.19 819.912,-398.171 820.654,-384.542"/>
<polygon fill="black" stroke="black" points="824.168,-384.495 821.468,-374.25 817.19,-383.943 824.168,-384.495"/>
</g>
<!-- p40&#45;&gt;p45 -->
<g id="edge47" class="edge"><title>p40&#45;&gt;p45</title>
<path fill="none" stroke="black" d="M832.504,-426.009C833.807,-414.19 834.088,-398.171 833.346,-384.542"/>
<polygon fill="black" stroke="black" points="836.81,-383.943 832.532,-374.25 829.832,-384.495 836.81,-383.943"/>
</g>
<!-- p41 -->
<g id="node39" class="node"><title>p41</title>
<ellipse fill="none" stroke="black" cx="590" cy="-282" rx="3.25" ry="3.5"/>
<text text-anchor="middle" x="573" y="-289.3" font-family="Times,serif" font-size="14.00">mix</text>
</g>
<!-- p40&#45;&gt;p41 -->
<g id="edge48" class="edge"><title>p40&#45;&gt;p41</title>
<path fill="none" stroke="black" d="M770.537,-426.897C739.98,-415.929 703.233,-398.826 677,-374 651.441,-349.812 665.961,-327.756 640,-304 629.503,-294.394 613.975,-288.811 603.014,-285.849"/>
<polygon fill="black" stroke="black" points="603.623,-282.398 593.091,-283.544 602.039,-289.216 603.623,-282.398"/>
</g>
<!-- p35&#45;&gt;p41 -->
<g id="edge41" class="edge"><title>p35&#45;&gt;p41</title>
<path fill="none" stroke="black" d="M491.497,-353.22C503.56,-344.621 556.166,-307.119 579.168,-290.722"/>
<polygon fill="black" stroke="black" points="581.48,-293.372 587.591,-284.718 577.416,-287.672 581.48,-293.372"/>
<text text-anchor="middle" x="600" y="-308.3" font-family="Times,serif" font-size="14.00">version_ch</text>
</g>
<!-- p31 -->
<g id="node35" class="node"><title>p31</title>
<ellipse fill="black" stroke="black" cx="833" cy="-620" rx="3.6" ry="3.6"/>
</g>
<!-- p33 -->
<g id="node36" class="node"><title>p33</title>
<ellipse fill="none" stroke="black" cx="573" cy="-532" rx="145.38" ry="18"/>
<text text-anchor="middle" x="573" y="-528.3" font-family="Times,serif" font-size="14.00">COMPARE_MAPPING:LIFT1</text>
</g>
<!-- p31&#45;&gt;p33 -->
<g id="edge36" class="edge"><title>p31&#45;&gt;p33</title>
<path fill="none" stroke="black" d="M832.302,-616.082C830.005,-607.179 821.796,-580.229 804,-568 793.754,-560.959 740.343,-552.635 687.46,-545.871"/>
<polygon fill="black" stroke="black" points="687.613,-542.363 677.253,-544.584 686.737,-549.308 687.613,-542.363"/>
<text text-anchor="middle" x="837.5" y="-572.3" font-family="Times,serif" font-size="14.00">meta</text>
</g>
<!-- p33&#45;&gt;p40 -->
<g id="edge38" class="edge"><title>p33&#45;&gt;p40</title>
<path fill="none" stroke="black" d="M618.287,-514.884C647.072,-504.714 685.157,-491.393 719,-480 734.247,-474.867 750.75,-469.45 766.158,-464.45"/>
<polygon fill="black" stroke="black" points="767.665,-467.642 776.101,-461.233 765.51,-460.982 767.665,-467.642"/>
</g>
<!-- p34 -->
<g id="node38" class="node"><title>p34</title>
<ellipse fill="black" stroke="black" cx="519" cy="-444" rx="1.8" ry="1.8"/>
</g>
<!-- p33&#45;&gt;p34 -->
<g id="edge39" class="edge"><title>p33&#45;&gt;p34</title>
<path fill="none" stroke="black" d="M561.797,-513.811C552.799,-499.916 539.911,-479.808 529,-462 527.547,-459.628 526.008,-457.049 524.586,-454.633"/>
<polygon fill="black" stroke="black" points="527.579,-452.818 519.53,-445.928 521.526,-456.334 527.579,-452.818"/>
</g>
<!-- p33&#45;&gt;p35 -->
<g id="edge40" class="edge"><title>p33&#45;&gt;p35</title>
<path fill="none" stroke="black" d="M551.135,-514.162C536.383,-501.504 517.868,-482.82 508,-462 493.421,-431.24 489.982,-390.542 489.202,-370.019"/>
<polygon fill="black" stroke="black" points="492.696,-369.677 488.983,-359.754 485.697,-369.826 492.696,-369.677"/>
</g>
<!-- p33&#45;&gt;p45 -->
<g id="edge53" class="edge"><title>p33&#45;&gt;p45</title>
<path fill="none" stroke="black" d="M570.829,-513.766C568.954,-490.815 569.339,-450.298 591,-426 618.488,-395.164 658.917,-377.781 698.576,-368.087"/>
<polygon fill="black" stroke="black" points="699.398,-371.489 708.362,-365.843 697.833,-364.667 699.398,-371.489"/>
<text text-anchor="middle" x="620" y="-440.3" font-family="Times,serif" font-size="14.00">chain21</text>
</g>
<!-- p32 -->
<g id="node37" class="node"><title>p32</title>
<ellipse fill="black" stroke="black" cx="782" cy="-620" rx="3.6" ry="3.6"/>
</g>
<!-- p32&#45;&gt;p33 -->
<g id="edge37" class="edge"><title>p32&#45;&gt;p33</title>
<path fill="none" stroke="black" d="M781.689,-616.129C780.577,-607.363 775.969,-580.763 760,-568 748.068,-558.464 720.349,-551.25 689.807,-545.924"/>
<polygon fill="black" stroke="black" points="690.247,-542.45 679.809,-544.261 689.099,-549.355 690.247,-542.45"/>
<text text-anchor="middle" x="786" y="-572.3" font-family="Times,serif" font-size="14.00">row</text>
</g>
<!-- p48 -->
<g id="node44" class="node"><title>p48</title>
<ellipse fill="none" stroke="black" cx="590" cy="-222" rx="3.25" ry="3.5"/>
<text text-anchor="middle" x="562" y="-229.3" font-family="Times,serif" font-size="14.00">collect</text>
</g>
<!-- p41&#45;&gt;p48 -->
<g id="edge49" class="edge"><title>p41&#45;&gt;p48</title>
<path fill="none" stroke="black" d="M590,-278.203C590,-270.649 590,-249.48 590,-235.66"/>
<polygon fill="black" stroke="black" points="593.5,-235.636 590,-225.636 586.5,-235.636 593.5,-235.636"/>
<text text-anchor="middle" x="629" y="-248.3" font-family="Times,serif" font-size="14.00">version_ch</text>
</g>
<!-- p36 -->
<g id="node40" class="node"><title>p36</title>
<ellipse fill="black" stroke="black" cx="972" cy="-532" rx="3.6" ry="3.6"/>
</g>
<!-- p36&#45;&gt;p40 -->
<g id="edge42" class="edge"><title>p36&#45;&gt;p40</title>
<path fill="none" stroke="black" d="M970.988,-528.197C967.751,-519.625 956.803,-493.525 939,-480 930.493,-473.537 920.77,-468.253 910.688,-463.936"/>
<polygon fill="black" stroke="black" points="911.938,-460.667 901.352,-460.238 909.36,-467.175 911.938,-460.667"/>
<text text-anchor="middle" x="972.5" y="-484.3" font-family="Times,serif" font-size="14.00">meta</text>
</g>
<!-- p37 -->
<g id="node41" class="node"><title>p37</title>
<ellipse fill="black" stroke="black" cx="740" cy="-532" rx="3.6" ry="3.6"/>
</g>
<!-- p37&#45;&gt;p40 -->
<g id="edge43" class="edge"><title>p37&#45;&gt;p40</title>
<path fill="none" stroke="black" d="M738.239,-528.837C732.373,-521.357 714.499,-496.157 726,-480 730.049,-474.312 735.09,-469.539 740.743,-465.536"/>
<polygon fill="black" stroke="black" points="742.731,-468.423 749.419,-460.206 739.067,-462.458 742.731,-468.423"/>
<text text-anchor="middle" x="741.5" y="-484.3" font-family="Times,serif" font-size="14.00">vcf1</text>
</g>
<!-- p38 -->
<g id="node42" class="node"><title>p38</title>
<ellipse fill="black" stroke="black" cx="768" cy="-532" rx="3.6" ry="3.6"/>
</g>
<!-- p38&#45;&gt;p40 -->
<g id="edge44" class="edge"><title>p38&#45;&gt;p40</title>
<path fill="none" stroke="black" d="M766.924,-528.437C763.799,-520.557 755.52,-496.238 765,-480 767.696,-475.382 771.252,-471.325 775.3,-467.771"/>
<polygon fill="black" stroke="black" points="777.699,-470.346 783.594,-461.543 773.496,-464.749 777.699,-470.346"/>
<text text-anchor="middle" x="804.5" y="-484.3" font-family="Times,serif" font-size="14.00">reference1</text>
</g>
<!-- p39 -->
<g id="node43" class="node"><title>p39</title>
<ellipse fill="black" stroke="black" cx="870" cy="-532" rx="3.6" ry="3.6"/>
</g>
<!-- p39&#45;&gt;p40 -->
<g id="edge45" class="edge"><title>p39&#45;&gt;p40</title>
<path fill="none" stroke="black" d="M868.935,-528.176C865.955,-520.361 857.152,-497.847 848,-480 846.48,-477.036 844.811,-473.981 843.098,-470.968"/>
<polygon fill="black" stroke="black" points="846.02,-469.033 837.934,-462.188 839.986,-472.582 846.02,-469.033"/>
<text text-anchor="middle" x="895.5" y="-484.3" font-family="Times,serif" font-size="14.00">reference2</text>
</g>
<!-- p52 -->
<g id="node50" class="node"><title>p52</title>
<ellipse fill="none" stroke="black" cx="653" cy="-148" rx="206.048" ry="18"/>
<text text-anchor="middle" x="653" y="-144.3" font-family="Times,serif" font-size="14.00">COMPARE_MAPPING:MERGE_VERSION</text>
</g>
<!-- p48&#45;&gt;p52 -->
<g id="edge56" class="edge"><title>p48&#45;&gt;p52</title>
<path fill="none" stroke="black" d="M591.66,-218.574C595.835,-212.529 607.206,-196.392 618,-184 621.067,-180.479 624.41,-176.875 627.772,-173.383"/>
<polygon fill="black" stroke="black" points="630.533,-175.568 635.065,-165.991 625.55,-170.651 630.533,-175.568"/>
</g>
<!-- p42 -->
<g id="node45" class="node"><title>p42</title>
<ellipse fill="black" stroke="black" cx="1057" cy="-444" rx="3.6" ry="3.6"/>
</g>
<!-- p42&#45;&gt;p45 -->
<g id="edge50" class="edge"><title>p42&#45;&gt;p45</title>
<path fill="none" stroke="black" d="M1056.7,-440.116C1055.62,-431.312 1051.09,-404.616 1035,-392 1020.98,-381 987.54,-373.305 951.484,-367.992"/>
<polygon fill="black" stroke="black" points="951.649,-364.48 941.259,-366.555 950.675,-371.412 951.649,-364.48"/>
<text text-anchor="middle" x="1065.5" y="-396.3" font-family="Times,serif" font-size="14.00">meta</text>
</g>
<!-- p43 -->
<g id="node46" class="node"><title>p43</title>
<ellipse fill="black" stroke="black" cx="1117" cy="-444" rx="3.6" ry="3.6"/>
</g>
<!-- p43&#45;&gt;p45 -->
<g id="edge51" class="edge"><title>p43&#45;&gt;p45</title>
<path fill="none" stroke="black" d="M1116.31,-440.068C1114.04,-431.127 1105.9,-404.077 1088,-392 1067.26,-378.006 1016.54,-369.581 965.275,-364.52"/>
<polygon fill="black" stroke="black" points="965.308,-361.008 955.023,-363.552 964.65,-367.977 965.308,-361.008"/>
<text text-anchor="middle" x="1142.5" y="-396.3" font-family="Times,serif" font-size="14.00">reference1</text>
</g>
<!-- p44 -->
<g id="node47" class="node"><title>p44</title>
<ellipse fill="black" stroke="black" cx="542" cy="-444" rx="3.6" ry="3.6"/>
</g>
<!-- p44&#45;&gt;p45 -->
<g id="edge52" class="edge"><title>p44&#45;&gt;p45</title>
<path fill="none" stroke="black" d="M540.116,-440.739C533.847,-432.938 514.817,-406.817 528,-392 539.344,-379.251 616.939,-370.401 690.231,-364.789"/>
<polygon fill="black" stroke="black" points="690.826,-368.255 700.537,-364.019 690.304,-361.274 690.826,-368.255"/>
<text text-anchor="middle" x="567.5" y="-396.3" font-family="Times,serif" font-size="14.00">reference2</text>
</g>
<!-- p54 -->
<g id="node54" class="node"><title>p54</title>
<ellipse fill="none" stroke="black" cx="816" cy="-60" rx="217.596" ry="18"/>
<text text-anchor="middle" x="816" y="-56.3" font-family="Times,serif" font-size="14.00">COMPARE_MAPPING:VERSION_TO_HTML</text>
</g>
<!-- p52&#45;&gt;p54 -->
<g id="edge60" class="edge"><title>p52&#45;&gt;p54</title>
<path fill="none" stroke="black" d="M684.815,-130.214C710.536,-116.644 746.933,-97.4404 774.866,-82.7025"/>
<polygon fill="black" stroke="black" points="776.776,-85.6523 783.987,-77.8902 773.509,-79.4611 776.776,-85.6523"/>
</g>
<!-- p49 -->
<g id="node51" class="node"><title>p49</title>
<ellipse fill="black" stroke="black" cx="623" cy="-222" rx="3.6" ry="3.6"/>
</g>
<!-- p49&#45;&gt;p52 -->
<g id="edge57" class="edge"><title>p49&#45;&gt;p52</title>
<path fill="none" stroke="black" d="M622.474,-218.19C621.412,-211.846 619.479,-196.03 624,-184 625.26,-180.648 626.984,-177.385 628.968,-174.284"/>
<polygon fill="black" stroke="black" points="631.938,-176.156 635.081,-166.038 626.314,-171.987 631.938,-176.156"/>
<text text-anchor="middle" x="642.5" y="-188.3" font-family="Times,serif" font-size="14.00">meta</text>
</g>
<!-- p50 -->
<g id="node52" class="node"><title>p50</title>
<ellipse fill="black" stroke="black" cx="683" cy="-222" rx="3.6" ry="3.6"/>
</g>
<!-- p50&#45;&gt;p52 -->
<g id="edge58" class="edge"><title>p50&#45;&gt;p52</title>
<path fill="none" stroke="black" d="M681.861,-218.265C678.926,-211.222 670.858,-191.859 663.996,-175.39"/>
<polygon fill="black" stroke="black" points="667.22,-174.027 660.143,-166.143 660.758,-176.72 667.22,-174.027"/>
<text text-anchor="middle" x="695" y="-188.3" font-family="Times,serif" font-size="14.00">name</text>
</g>
<!-- p51 -->
<g id="node53" class="node"><title>p51</title>
<ellipse fill="black" stroke="black" cx="746" cy="-222" rx="3.6" ry="3.6"/>
</g>
<!-- p51&#45;&gt;p52 -->
<g id="edge59" class="edge"><title>p51&#45;&gt;p52</title>
<path fill="none" stroke="black" d="M744.628,-218.355C741.126,-211.811 731.26,-194.623 719,-184 713.407,-179.153 707.028,-174.729 700.491,-170.778"/>
<polygon fill="black" stroke="black" points="701.963,-167.589 691.539,-165.69 698.504,-173.674 701.963,-167.589"/>
<text text-anchor="middle" x="775" y="-188.3" font-family="Times,serif" font-size="14.00">description</text>
</g>
<!-- p55 -->
<g id="node56" class="node"><title>p55</title>
<ellipse fill="black" stroke="black" cx="816" cy="-2" rx="1.8" ry="1.8"/>
</g>
<!-- p54&#45;&gt;p55 -->
<g id="edge62" class="edge"><title>p54&#45;&gt;p55</title>
<path fill="none" stroke="black" d="M816,-41.8939C816,-32.8876 816,-22.0999 816,-14.1727"/>
<polygon fill="black" stroke="black" points="819.5,-13.9957 816,-3.99575 812.5,-13.9958 819.5,-13.9957"/>
</g>
<!-- p53 -->
<g id="node55" class="node"><title>p53</title>
<ellipse fill="black" stroke="black" cx="881" cy="-148" rx="3.6" ry="3.6"/>
</g>
<!-- p53&#45;&gt;p54 -->
<g id="edge61" class="edge"><title>p53&#45;&gt;p54</title>
<path fill="none" stroke="black" d="M879.125,-144.519C872.73,-136.058 851.282,-107.68 835.148,-86.3338"/>
<polygon fill="black" stroke="black" points="837.873,-84.135 829.051,-78.2676 832.289,-88.3557 837.873,-84.135"/>
<text text-anchor="middle" x="873.5" y="-100.3" font-family="Times,serif" font-size="14.00">meta</text>
</g>
</g>
</svg>
