<?xml version="1.0" encoding="UTF-8" standalone="no"?>
<!DOCTYPE svg PUBLIC "-//W3C//DTD SVG 1.1//EN"
 "http://www.w3.org/Graphics/SVG/1.1/DTD/svg11.dtd">
<!-- Generated by graphviz version 2.30.1 (20201013.1554)
 -->
<!-- Title: 20220712rotavirusstdepthworkflow Pages: 1 -->
<svg width="735pt" height="876pt"
 viewBox="0.00 0.00 735.00 876.00" xmlns="http://www.w3.org/2000/svg" xmlns:xlink="http://www.w3.org/1999/xlink">
<g id="graph0" class="graph" transform="scale(1 1) rotate(0) translate(4 872)">
<title>20220712rotavirusstdepthworkflow</title>
<polygon fill="white" stroke="white" points="-4,5 -4,-872 732,-872 732,5 -4,5"/>
<!-- p0 -->
<g id="node1" class="node"><title>p0</title>
<ellipse fill="black" stroke="black" cx="519" cy="-790" rx="3.6" ry="3.6"/>
<text text-anchor="middle" x="569.9" y="-797.4" font-family="Times,serif" font-size="14.00">Channel.empty</text>
</g>
<!-- p4 -->
<g id="node2" class="node"><title>p4</title>
<ellipse fill="none" stroke="black" cx="503" cy="-716" rx="3.25" ry="3.5"/>
<text text-anchor="middle" x="486" y="-723.3" font-family="Times,serif" font-size="14.00">mix</text>
</g>
<!-- p0&#45;&gt;p4 -->
<g id="edge1" class="edge"><title>p0&#45;&gt;p4</title>
<path fill="none" stroke="black" d="M518.392,-786.265C516.353,-777.088 509.665,-746.99 505.809,-729.638"/>
<polygon fill="black" stroke="black" points="509.194,-728.74 503.608,-719.737 502.361,-730.258 509.194,-728.74"/>
<text text-anchor="middle" x="550" y="-742.3" font-family="Times,serif" font-size="14.00">version_ch</text>
</g>
<!-- p9 -->
<g id="node7" class="node"><title>p9</title>
<ellipse fill="none" stroke="black" cx="503" cy="-536" rx="3.25" ry="3.5"/>
<text text-anchor="middle" x="486" y="-543.3" font-family="Times,serif" font-size="14.00">mix</text>
</g>
<!-- p4&#45;&gt;p9 -->
<g id="edge6" class="edge"><title>p4&#45;&gt;p9</title>
<path fill="none" stroke="black" d="M503,-712.484C503,-694.72 503,-587.83 503,-550.142"/>
<polygon fill="black" stroke="black" points="506.5,-549.681 503,-539.681 499.5,-549.681 506.5,-549.681"/>
<text text-anchor="middle" x="542" y="-636.3" font-family="Times,serif" font-size="14.00">version_ch</text>
</g>
<!-- p1 -->
<g id="node3" class="node"><title>p1</title>
<ellipse fill="black" stroke="black" cx="218" cy="-864" rx="3.6" ry="3.6"/>
</g>
<!-- p3 -->
<g id="node4" class="node"><title>p3</title>
<ellipse fill="none" stroke="black" cx="248" cy="-790" rx="248.392" ry="18"/>
<text text-anchor="middle" x="248" y="-786.3" font-family="Times,serif" font-size="14.00">SAMTOOLS_DEPTH_01:SAMTOOLS_SAMPLES02</text>
</g>
<!-- p1&#45;&gt;p3 -->
<g id="edge2" class="edge"><title>p1&#45;&gt;p3</title>
<path fill="none" stroke="black" d="M217.474,-860.19C216.412,-853.846 214.479,-838.03 219,-826 220.26,-822.648 221.984,-819.385 223.968,-816.284"/>
<polygon fill="black" stroke="black" points="226.938,-818.156 230.081,-808.038 221.314,-813.987 226.938,-818.156"/>
<text text-anchor="middle" x="237.5" y="-830.3" font-family="Times,serif" font-size="14.00">meta</text>
</g>
<!-- p5 -->
<g id="node6" class="node"><title>p5</title>
<ellipse fill="none" stroke="black" cx="248" cy="-716" rx="3.25" ry="3.5"/>
<text text-anchor="middle" x="215" y="-723.3" font-family="Times,serif" font-size="14.00">splitCsv</text>
</g>
<!-- p3&#45;&gt;p5 -->
<g id="edge4" class="edge"><title>p3&#45;&gt;p5</title>
<path fill="none" stroke="black" d="M248,-771.937C248,-759.126 248,-741.843 248,-730.107"/>
<polygon fill="black" stroke="black" points="251.5,-729.748 248,-719.748 244.5,-729.748 251.5,-729.748"/>
</g>
<!-- p3&#45;&gt;p4 -->
<g id="edge5" class="edge"><title>p3&#45;&gt;p4</title>
<path fill="none" stroke="black" d="M306.502,-772.482C367,-755.4 457.157,-729.944 490.238,-720.603"/>
<polygon fill="black" stroke="black" points="491.269,-723.949 499.942,-717.864 489.367,-717.213 491.269,-723.949"/>
</g>
<!-- p2 -->
<g id="node5" class="node"><title>p2</title>
<ellipse fill="black" stroke="black" cx="278" cy="-864" rx="3.6" ry="3.6"/>
</g>
<!-- p2&#45;&gt;p3 -->
<g id="edge3" class="edge"><title>p2&#45;&gt;p3</title>
<path fill="none" stroke="black" d="M276.861,-860.265C273.926,-853.222 265.858,-833.859 258.996,-817.39"/>
<polygon fill="black" stroke="black" points="262.22,-816.027 255.143,-808.143 255.758,-818.72 262.22,-816.027"/>
<text text-anchor="middle" x="284" y="-830.3" font-family="Times,serif" font-size="14.00">row</text>
</g>
<!-- p6 -->
<g id="node8" class="node"><title>p6</title>
<ellipse fill="none" stroke="black" cx="248" cy="-670" rx="3.25" ry="3.5"/>
<text text-anchor="middle" x="229" y="-677.3" font-family="Times,serif" font-size="14.00">map</text>
</g>
<!-- p5&#45;&gt;p6 -->
<g id="edge7" class="edge"><title>p5&#45;&gt;p6</title>
<path fill="none" stroke="black" d="M248,-712.379C248,-706.864 248,-693.742 248,-683.742"/>
<polygon fill="black" stroke="black" points="251.5,-683.552 248,-673.552 244.5,-683.552 251.5,-683.552"/>
</g>
<!-- p14 -->
<g id="node12" class="node"><title>p14</title>
<ellipse fill="none" stroke="black" cx="505" cy="-356" rx="3.25" ry="3.5"/>
<text text-anchor="middle" x="488" y="-363.3" font-family="Times,serif" font-size="14.00">mix</text>
</g>
<!-- p9&#45;&gt;p14 -->
<g id="edge12" class="edge"><title>p9&#45;&gt;p14</title>
<path fill="none" stroke="black" d="M503.028,-532.484C503.228,-514.72 504.429,-407.83 504.852,-370.142"/>
<polygon fill="black" stroke="black" points="508.357,-369.719 504.97,-359.681 501.358,-369.641 508.357,-369.719"/>
<text text-anchor="middle" x="543" y="-456.3" font-family="Times,serif" font-size="14.00">version_ch</text>
</g>
<!-- p8 -->
<g id="node9" class="node"><title>p8</title>
<ellipse fill="none" stroke="black" cx="264" cy="-596" rx="180.051" ry="18"/>
<text text-anchor="middle" x="264" y="-592.3" font-family="Times,serif" font-size="14.00">SAMTOOLS_DEPTH_01:ST_DEPTH</text>
</g>
<!-- p6&#45;&gt;p8 -->
<g id="edge8" class="edge"><title>p6&#45;&gt;p8</title>
<path fill="none" stroke="black" d="M248.608,-666.265C250.144,-659.354 254.316,-640.578 257.93,-624.316"/>
<polygon fill="black" stroke="black" points="261.438,-624.664 260.19,-614.143 254.604,-623.145 261.438,-624.664"/>
</g>
<!-- p10 -->
<g id="node11" class="node"><title>p10</title>
<ellipse fill="none" stroke="black" cx="264" cy="-536" rx="3.25" ry="3.5"/>
<text text-anchor="middle" x="245" y="-543.3" font-family="Times,serif" font-size="14.00">map</text>
</g>
<!-- p8&#45;&gt;p10 -->
<g id="edge10" class="edge"><title>p8&#45;&gt;p10</title>
<path fill="none" stroke="black" d="M264,-577.912C264,-568.965 264,-558.187 264,-549.94"/>
<polygon fill="black" stroke="black" points="267.5,-549.691 264,-539.691 260.5,-549.691 267.5,-549.691"/>
</g>
<!-- p8&#45;&gt;p9 -->
<g id="edge11" class="edge"><title>p8&#45;&gt;p9</title>
<path fill="none" stroke="black" d="M329.308,-579.151C384.937,-565.651 460.445,-547.327 490.198,-540.107"/>
<polygon fill="black" stroke="black" points="491.064,-543.498 499.956,-537.739 489.413,-536.696 491.064,-543.498"/>
</g>
<!-- p7 -->
<g id="node10" class="node"><title>p7</title>
<ellipse fill="black" stroke="black" cx="281" cy="-670" rx="3.6" ry="3.6"/>
</g>
<!-- p7&#45;&gt;p8 -->
<g id="edge9" class="edge"><title>p7&#45;&gt;p8</title>
<path fill="none" stroke="black" d="M280.354,-666.265C278.722,-659.354 274.289,-640.578 270.45,-624.316"/>
<polygon fill="black" stroke="black" points="273.752,-623.071 268.048,-614.143 266.939,-624.68 273.752,-623.071"/>
<text text-anchor="middle" x="294.5" y="-636.3" font-family="Times,serif" font-size="14.00">meta</text>
</g>
<!-- p11 -->
<g id="node13" class="node"><title>p11</title>
<ellipse fill="none" stroke="black" cx="259" cy="-490" rx="3.25" ry="3.5"/>
<text text-anchor="middle" x="231" y="-497.3" font-family="Times,serif" font-size="14.00">collect</text>
</g>
<!-- p10&#45;&gt;p11 -->
<g id="edge13" class="edge"><title>p10&#45;&gt;p11</title>
<path fill="none" stroke="black" d="M263.702,-532.379C263.075,-526.864 261.584,-513.742 260.448,-503.742"/>
<polygon fill="black" stroke="black" points="263.897,-503.093 259.29,-493.552 256.942,-503.883 263.897,-503.093"/>
</g>
<!-- p15 -->
<g id="node17" class="node"><title>p15</title>
<ellipse fill="none" stroke="black" cx="546" cy="-296" rx="3.25" ry="3.5"/>
<text text-anchor="middle" x="518" y="-303.3" font-family="Times,serif" font-size="14.00">collect</text>
</g>
<!-- p14&#45;&gt;p15 -->
<g id="edge18" class="edge"><title>p14&#45;&gt;p15</title>
<path fill="none" stroke="black" d="M506.762,-352.508C512.185,-344.836 528.85,-321.26 538.631,-307.425"/>
<polygon fill="black" stroke="black" points="541.553,-309.354 544.468,-299.168 535.837,-305.313 541.553,-309.354"/>
<text text-anchor="middle" x="570" y="-322.3" font-family="Times,serif" font-size="14.00">version_ch</text>
</g>
<!-- p13 -->
<g id="node14" class="node"><title>p13</title>
<ellipse fill="none" stroke="black" cx="255" cy="-416" rx="221.445" ry="18"/>
<text text-anchor="middle" x="255" y="-412.3" font-family="Times,serif" font-size="14.00">SAMTOOLS_DEPTH_01:CONCAT_FILES_01</text>
</g>
<!-- p11&#45;&gt;p13 -->
<g id="edge14" class="edge"><title>p11&#45;&gt;p13</title>
<path fill="none" stroke="black" d="M258.848,-486.265C258.464,-479.354 257.421,-460.578 256.518,-444.316"/>
<polygon fill="black" stroke="black" points="260.002,-443.933 255.952,-434.143 253.013,-444.322 260.002,-443.933"/>
</g>
<!-- p22 -->
<g id="node16" class="node"><title>p22</title>
<ellipse fill="none" stroke="black" cx="433" cy="-60" rx="56.3173" ry="18"/>
<text text-anchor="middle" x="433" y="-56.3" font-family="Times,serif" font-size="14.00">PUBLISH</text>
</g>
<!-- p13&#45;&gt;p22 -->
<g id="edge16" class="edge"><title>p13&#45;&gt;p22</title>
<path fill="none" stroke="black" d="M248.655,-398.002C244.951,-386.576 241,-371.088 241,-357 241,-357 241,-357 241,-133 241,-104.118 318.132,-82.9237 374.62,-71.2744"/>
<polygon fill="black" stroke="black" points="375.435,-74.6806 384.55,-69.2797 374.057,-67.8177 375.435,-74.6806"/>
<text text-anchor="middle" x="265" y="-262.3" font-family="Times,serif" font-size="14.00">output</text>
</g>
<!-- p13&#45;&gt;p14 -->
<g id="edge17" class="edge"><title>p13&#45;&gt;p14</title>
<path fill="none" stroke="black" d="M324.639,-398.844C382.792,-385.352 460.977,-367.213 491.759,-360.072"/>
<polygon fill="black" stroke="black" points="492.903,-363.4 501.853,-357.73 491.321,-356.581 492.903,-363.4"/>
</g>
<!-- p12 -->
<g id="node15" class="node"><title>p12</title>
<ellipse fill="black" stroke="black" cx="288" cy="-490" rx="3.6" ry="3.6"/>
</g>
<!-- p12&#45;&gt;p13 -->
<g id="edge15" class="edge"><title>p12&#45;&gt;p13</title>
<path fill="none" stroke="black" d="M286.747,-486.265C283.519,-479.222 274.644,-459.859 267.095,-443.39"/>
<polygon fill="black" stroke="black" points="270.205,-441.775 262.857,-434.143 263.842,-444.692 270.205,-441.775"/>
<text text-anchor="middle" x="297.5" y="-456.3" font-family="Times,serif" font-size="14.00">meta</text>
</g>
<!-- p23 -->
<g id="node24" class="node"><title>p23</title>
<ellipse fill="black" stroke="black" cx="433" cy="-2" rx="1.8" ry="1.8"/>
</g>
<!-- p22&#45;&gt;p23 -->
<g id="edge27" class="edge"><title>p22&#45;&gt;p23</title>
<path fill="none" stroke="black" d="M433,-41.8939C433,-32.8876 433,-22.0999 433,-14.1727"/>
<polygon fill="black" stroke="black" points="436.5,-13.9957 433,-3.99575 429.5,-13.9958 436.5,-13.9957"/>
</g>
<!-- p19 -->
<g id="node18" class="node"><title>p19</title>
<ellipse fill="none" stroke="black" cx="485" cy="-222" rx="215.172" ry="18"/>
<text text-anchor="middle" x="485" y="-218.3" font-family="Times,serif" font-size="14.00">SAMTOOLS_DEPTH_01:MERGE_VERSION</text>
</g>
<!-- p15&#45;&gt;p19 -->
<g id="edge19" class="edge"><title>p15&#45;&gt;p19</title>
<path fill="none" stroke="black" d="M548.69,-293.466C553.631,-290.473 564.012,-283.32 568,-274 570.797,-267.462 571.932,-263.925 568,-258 564.676,-252.991 560.48,-248.698 555.747,-245.017"/>
<polygon fill="black" stroke="black" points="557.592,-242.041 547.336,-239.385 553.697,-247.857 557.592,-242.041"/>
</g>
<!-- p21 -->
<g id="node22" class="node"><title>p21</title>
<ellipse fill="none" stroke="black" cx="616" cy="-134" rx="111.186" ry="18"/>
<text text-anchor="middle" x="616" y="-130.3" font-family="Times,serif" font-size="14.00">VERSION_TO_HTML</text>
</g>
<!-- p19&#45;&gt;p21 -->
<g id="edge23" class="edge"><title>p19&#45;&gt;p21</title>
<path fill="none" stroke="black" d="M510.881,-204.009C531.288,-190.613 559.912,-171.821 582.139,-157.229"/>
<polygon fill="black" stroke="black" points="584.179,-160.077 590.618,-151.663 580.338,-154.225 584.179,-160.077"/>
</g>
<!-- p19&#45;&gt;p22 -->
<g id="edge26" class="edge"><title>p19&#45;&gt;p22</title>
<path fill="none" stroke="black" d="M471.269,-203.984C461.334,-190.669 448.547,-171.242 442,-152 434.99,-131.395 432.907,-106.762 432.484,-88.3236"/>
<polygon fill="black" stroke="black" points="435.984,-88.2319 432.402,-78.2607 428.984,-88.2888 435.984,-88.2319"/>
<text text-anchor="middle" x="468.5" y="-130.3" font-family="Times,serif" font-size="14.00">version</text>
</g>
<!-- p16 -->
<g id="node19" class="node"><title>p16</title>
<ellipse fill="black" stroke="black" cx="362" cy="-296" rx="3.6" ry="3.6"/>
</g>
<!-- p16&#45;&gt;p19 -->
<g id="edge20" class="edge"><title>p16&#45;&gt;p19</title>
<path fill="none" stroke="black" d="M363.44,-292.257C367.124,-285.487 377.559,-267.826 391,-258 398.721,-252.356 407.456,-247.523 416.414,-243.412"/>
<polygon fill="black" stroke="black" points="417.987,-246.546 425.797,-239.386 415.227,-240.113 417.987,-246.546"/>
<text text-anchor="middle" x="409.5" y="-262.3" font-family="Times,serif" font-size="14.00">meta</text>
</g>
<!-- p17 -->
<g id="node20" class="node"><title>p17</title>
<ellipse fill="black" stroke="black" cx="422" cy="-296" rx="3.6" ry="3.6"/>
</g>
<!-- p17&#45;&gt;p19 -->
<g id="edge21" class="edge"><title>p17&#45;&gt;p19</title>
<path fill="none" stroke="black" d="M422.877,-292.451C425.141,-286.124 431.662,-269.393 441,-258 444.243,-254.044 448.002,-250.241 451.93,-246.694"/>
<polygon fill="black" stroke="black" points="454.219,-249.342 459.6,-240.215 449.702,-243.994 454.219,-249.342"/>
<text text-anchor="middle" x="461" y="-262.3" font-family="Times,serif" font-size="14.00">name</text>
</g>
<!-- p18 -->
<g id="node21" class="node"><title>p18</title>
<ellipse fill="black" stroke="black" cx="485" cy="-296" rx="3.6" ry="3.6"/>
</g>
<!-- p18&#45;&gt;p19 -->
<g id="edge22" class="edge"><title>p18&#45;&gt;p19</title>
<path fill="none" stroke="black" d="M485,-292.265C485,-285.354 485,-266.578 485,-250.316"/>
<polygon fill="black" stroke="black" points="488.5,-250.143 485,-240.143 481.5,-250.143 488.5,-250.143"/>
<text text-anchor="middle" x="526" y="-262.3" font-family="Times,serif" font-size="14.00">description</text>
</g>
<!-- p21&#45;&gt;p22 -->
<g id="edge25" class="edge"><title>p21&#45;&gt;p22</title>
<path fill="none" stroke="black" d="M575.84,-117.199C546.504,-105.657 506.758,-90.0196 476.64,-78.1699"/>
<polygon fill="black" stroke="black" points="477.813,-74.8701 467.225,-74.4658 475.25,-81.3841 477.813,-74.8701"/>
</g>
<!-- p20 -->
<g id="node23" class="node"><title>p20</title>
<ellipse fill="black" stroke="black" cx="722" cy="-222" rx="3.6" ry="3.6"/>
</g>
<!-- p20&#45;&gt;p21 -->
<g id="edge24" class="edge"><title>p20&#45;&gt;p21</title>
<path fill="none" stroke="black" d="M720.349,-218.402C718.055,-214.904 713.657,-208.59 709,-204 691.403,-186.657 669.27,-170.065 651.011,-157.498"/>
<polygon fill="black" stroke="black" points="652.638,-154.374 642.395,-151.667 648.715,-160.171 652.638,-154.374"/>
<text text-anchor="middle" x="705.5" y="-174.3" font-family="Times,serif" font-size="14.00">meta</text>
</g>
</g>
</svg>
