<?xml version="1.0" encoding="UTF-8" standalone="no"?>
<!DOCTYPE svg PUBLIC "-//W3C//DTD SVG 1.1//EN"
 "http://www.w3.org/Graphics/SVG/1.1/DTD/svg11.dtd">
<!-- Generated by graphviz version 2.30.1 (20201013.1554)
 -->
<!-- Title: 20220802rotavirusdeepvariantworkflow Pages: 1 -->
<svg width="1039pt" height="2196pt"
 viewBox="0.00 0.00 1038.60 2196.00" xmlns="http://www.w3.org/2000/svg" xmlns:xlink="http://www.w3.org/1999/xlink">
<g id="graph0" class="graph" transform="scale(1 1) rotate(0) translate(4 2192)">
<title>20220802rotavirusdeepvariantworkflow</title>
<polygon fill="white" stroke="white" points="-4,5 -4,-2192 1035.6,-2192 1035.6,5 -4,5"/>
<!-- p0 -->
<g id="node1" class="node"><title>p0</title>
<ellipse fill="black" stroke="black" cx="103.6" cy="-1856" rx="3.6" ry="3.6"/>
<text text-anchor="middle" x="50" y="-1863.4" font-family="Times,serif" font-size="14.00">Channel.fromPath</text>
</g>
<!-- p24 -->
<g id="node2" class="node"><title>p24</title>
<ellipse fill="none" stroke="black" cx="103.6" cy="-1782" rx="3.25" ry="3.5"/>
<text text-anchor="middle" x="77.1" y="-1789.3" font-family="Times,serif" font-size="14.00">splitText</text>
</g>
<!-- p0&#45;&gt;p24 -->
<g id="edge1" class="edge"><title>p0&#45;&gt;p24</title>
<path fill="none" stroke="black" d="M103.6,-1852.27C103.6,-1843.13 103.6,-1813.28 103.6,-1795.89"/>
<polygon fill="black" stroke="black" points="107.1,-1795.74 103.6,-1785.74 100.1,-1795.74 107.1,-1795.74"/>
<text text-anchor="middle" x="116.1" y="-1822.3" font-family="Times,serif" font-size="14.00">beds</text>
</g>
<!-- p25 -->
<g id="node28" class="node"><title>p25</title>
<ellipse fill="none" stroke="black" cx="173.6" cy="-1708" rx="3.25" ry="3.5"/>
<text text-anchor="middle" x="157.6" y="-1715.3" font-family="Times,serif" font-size="14.00">map</text>
</g>
<!-- p24&#45;&gt;p25 -->
<g id="edge28" class="edge"><title>p24&#45;&gt;p25</title>
<path fill="none" stroke="black" d="M105.164,-1778.47C107.328,-1775.04 111.44,-1768.81 115.6,-1764 130.923,-1746.29 151.247,-1728.03 163.32,-1717.64"/>
<polygon fill="black" stroke="black" points="165.857,-1720.08 171.231,-1710.95 161.336,-1714.73 165.857,-1720.08"/>
</g>
<!-- p1 -->
<g id="node3" class="node"><title>p1</title>
<ellipse fill="black" stroke="black" cx="788.6" cy="-1574" rx="3.6" ry="3.6"/>
<text text-anchor="middle" x="827" y="-1581.4" font-family="Times,serif" font-size="14.00">Channel.empty</text>
</g>
<!-- p23 -->
<g id="node4" class="node"><title>p23</title>
<ellipse fill="none" stroke="black" cx="500.6" cy="-1500" rx="3.25" ry="3.5"/>
<text text-anchor="middle" x="486.1" y="-1507.3" font-family="Times,serif" font-size="14.00">mix</text>
</g>
<!-- p1&#45;&gt;p23 -->
<g id="edge2" class="edge"><title>p1&#45;&gt;p23</title>
<path fill="none" stroke="black" d="M787.47,-1570.58C785.579,-1566.82 781.401,-1559.62 775.6,-1556 687.809,-1501.24 556.271,-1499.5 514.112,-1500.48"/>
<polygon fill="black" stroke="black" points="513.764,-1496.99 503.888,-1500.83 514.001,-1503.99 513.764,-1496.99"/>
<text text-anchor="middle" x="764.1" y="-1526.3" font-family="Times,serif" font-size="14.00">version_ch</text>
</g>
<!-- p33 -->
<g id="node27" class="node"><title>p33</title>
<ellipse fill="none" stroke="black" cx="487.6" cy="-1320" rx="3.25" ry="3.5"/>
<text text-anchor="middle" x="473.1" y="-1327.3" font-family="Times,serif" font-size="14.00">mix</text>
</g>
<!-- p23&#45;&gt;p33 -->
<g id="edge27" class="edge"><title>p23&#45;&gt;p33</title>
<path fill="none" stroke="black" d="M500.416,-1496.48C499.119,-1478.72 491.312,-1371.83 488.56,-1334.14"/>
<polygon fill="black" stroke="black" points="492.015,-1333.4 487.796,-1323.68 485.034,-1333.91 492.015,-1333.4"/>
<text text-anchor="middle" x="525.1" y="-1420.3" font-family="Times,serif" font-size="14.00">version_ch</text>
</g>
<!-- p2 -->
<g id="node5" class="node"><title>p2</title>
<ellipse fill="black" stroke="black" cx="719.6" cy="-2110" rx="3.6" ry="3.6"/>
<text text-anchor="middle" x="758" y="-2117.4" font-family="Times,serif" font-size="14.00">Channel.empty</text>
</g>
<!-- p6 -->
<g id="node6" class="node"><title>p6</title>
<ellipse fill="none" stroke="black" cx="615.6" cy="-2036" rx="3.25" ry="3.5"/>
<text text-anchor="middle" x="601.1" y="-2043.3" font-family="Times,serif" font-size="14.00">mix</text>
</g>
<!-- p2&#45;&gt;p6 -->
<g id="edge3" class="edge"><title>p2&#45;&gt;p6</title>
<path fill="none" stroke="black" d="M718.011,-2106.34C715.788,-2102.76 711.469,-2096.36 706.6,-2092 681.567,-2069.56 646.1,-2051.21 627.711,-2042.49"/>
<polygon fill="black" stroke="black" points="628.922,-2039.2 618.374,-2038.21 626.001,-2045.56 628.922,-2039.2"/>
<text text-anchor="middle" x="710.1" y="-2062.3" font-family="Times,serif" font-size="14.00">version_ch</text>
</g>
<!-- p13 -->
<g id="node11" class="node"><title>p13</title>
<ellipse fill="none" stroke="black" cx="610.6" cy="-1856" rx="3.25" ry="3.5"/>
<text text-anchor="middle" x="596.1" y="-1863.3" font-family="Times,serif" font-size="14.00">mix</text>
</g>
<!-- p6&#45;&gt;p13 -->
<g id="edge8" class="edge"><title>p6&#45;&gt;p13</title>
<path fill="none" stroke="black" d="M615.529,-2032.48C615.03,-2014.72 612.028,-1907.83 610.969,-1870.14"/>
<polygon fill="black" stroke="black" points="614.455,-1869.58 610.675,-1859.68 607.458,-1869.78 614.455,-1869.58"/>
<text text-anchor="middle" x="643.1" y="-1956.3" font-family="Times,serif" font-size="14.00">version_ch</text>
</g>
<!-- p3 -->
<g id="node7" class="node"><title>p3</title>
<ellipse fill="black" stroke="black" cx="434.6" cy="-2184" rx="3.6" ry="3.6"/>
</g>
<!-- p5 -->
<g id="node8" class="node"><title>p5</title>
<ellipse fill="none" stroke="black" cx="459.6" cy="-2110" rx="238.293" ry="18"/>
<text text-anchor="middle" x="459.6" y="-2106.3" font-family="Times,serif" font-size="14.00">DEEPVARIANT_01:SAMTOOLS_SAMPLES_01:SQRT_FILE</text>
</g>
<!-- p3&#45;&gt;p5 -->
<g id="edge4" class="edge"><title>p3&#45;&gt;p5</title>
<path fill="none" stroke="black" d="M434.153,-2180.22C433.253,-2173.93 431.63,-2158.22 435.6,-2146 436.624,-2142.85 438.03,-2139.72 439.651,-2136.71"/>
<polygon fill="black" stroke="black" points="442.691,-2138.45 444.997,-2128.11 436.745,-2134.75 442.691,-2138.45"/>
<text text-anchor="middle" x="449.6" y="-2150.3" font-family="Times,serif" font-size="14.00">meta</text>
</g>
<!-- p7 -->
<g id="node10" class="node"><title>p7</title>
<ellipse fill="none" stroke="black" cx="459.6" cy="-2036" rx="3.25" ry="3.5"/>
<text text-anchor="middle" x="433.1" y="-2043.3" font-family="Times,serif" font-size="14.00">splitText</text>
</g>
<!-- p5&#45;&gt;p7 -->
<g id="edge6" class="edge"><title>p5&#45;&gt;p7</title>
<path fill="none" stroke="black" d="M459.6,-2091.94C459.6,-2079.13 459.6,-2061.84 459.6,-2050.11"/>
<polygon fill="black" stroke="black" points="463.1,-2049.75 459.6,-2039.75 456.1,-2049.75 463.1,-2049.75"/>
</g>
<!-- p5&#45;&gt;p6 -->
<g id="edge7" class="edge"><title>p5&#45;&gt;p6</title>
<path fill="none" stroke="black" d="M496.175,-2092.12C530.838,-2076.12 580.878,-2053.03 603.585,-2042.55"/>
<polygon fill="black" stroke="black" points="605.128,-2045.69 612.741,-2038.32 602.195,-2039.33 605.128,-2045.69"/>
</g>
<!-- p4 -->
<g id="node9" class="node"><title>p4</title>
<ellipse fill="black" stroke="black" cx="485.6" cy="-2184" rx="3.6" ry="3.6"/>
</g>
<!-- p4&#45;&gt;p5 -->
<g id="edge5" class="edge"><title>p4&#45;&gt;p5</title>
<path fill="none" stroke="black" d="M484.613,-2180.27C482.093,-2173.29 475.207,-2154.22 469.297,-2137.85"/>
<polygon fill="black" stroke="black" points="472.479,-2136.36 465.79,-2128.14 465.895,-2138.74 472.479,-2136.36"/>
<text text-anchor="middle" x="492.6" y="-2150.3" font-family="Times,serif" font-size="14.00">filein</text>
</g>
<!-- p8 -->
<g id="node12" class="node"><title>p8</title>
<ellipse fill="none" stroke="black" cx="459.6" cy="-1990" rx="3.25" ry="3.5"/>
<text text-anchor="middle" x="443.6" y="-1997.3" font-family="Times,serif" font-size="14.00">map</text>
</g>
<!-- p7&#45;&gt;p8 -->
<g id="edge9" class="edge"><title>p7&#45;&gt;p8</title>
<path fill="none" stroke="black" d="M459.6,-2032.38C459.6,-2026.86 459.6,-2013.74 459.6,-2003.74"/>
<polygon fill="black" stroke="black" points="463.1,-2003.55 459.6,-1993.55 456.1,-2003.55 463.1,-2003.55"/>
</g>
<!-- p17 -->
<g id="node18" class="node"><title>p17</title>
<ellipse fill="none" stroke="black" cx="603.6" cy="-1708" rx="3.25" ry="3.5"/>
<text text-anchor="middle" x="589.1" y="-1715.3" font-family="Times,serif" font-size="14.00">mix</text>
</g>
<!-- p13&#45;&gt;p17 -->
<g id="edge16" class="edge"><title>p13&#45;&gt;p17</title>
<path fill="none" stroke="black" d="M610.479,-1852.47C609.732,-1836.89 605.745,-1753.75 604.207,-1721.65"/>
<polygon fill="black" stroke="black" points="607.7,-1721.42 603.725,-1711.6 600.708,-1721.76 607.7,-1721.42"/>
<text text-anchor="middle" x="637.1" y="-1778.3" font-family="Times,serif" font-size="14.00">version_ch</text>
</g>
<!-- p12 -->
<g id="node13" class="node"><title>p12</title>
<ellipse fill="none" stroke="black" cx="344.6" cy="-1916" rx="243.118" ry="18"/>
<text text-anchor="middle" x="344.6" y="-1912.3" font-family="Times,serif" font-size="14.00">DEEPVARIANT_01:SAMTOOLS_SAMPLES_01:ST_SAMPLE</text>
</g>
<!-- p8&#45;&gt;p12 -->
<g id="edge10" class="edge"><title>p8&#45;&gt;p12</title>
<path fill="none" stroke="black" d="M458.353,-1986.66C454.827,-1980.26 444.153,-1962.22 430.6,-1952 423.494,-1946.64 415.452,-1941.96 407.209,-1937.93"/>
<polygon fill="black" stroke="black" points="408.404,-1934.62 397.856,-1933.64 405.486,-1940.99 408.404,-1934.62"/>
<text text-anchor="middle" x="473.1" y="-1956.3" font-family="Times,serif" font-size="14.00">chunk_ch</text>
</g>
<!-- p14 -->
<g id="node17" class="node"><title>p14</title>
<ellipse fill="none" stroke="black" cx="344.6" cy="-1856" rx="3.25" ry="3.5"/>
<text text-anchor="middle" x="322.6" y="-1863.3" font-family="Times,serif" font-size="14.00">collect</text>
</g>
<!-- p12&#45;&gt;p14 -->
<g id="edge14" class="edge"><title>p12&#45;&gt;p14</title>
<path fill="none" stroke="black" d="M344.6,-1897.91C344.6,-1888.96 344.6,-1878.19 344.6,-1869.94"/>
<polygon fill="black" stroke="black" points="348.1,-1869.69 344.6,-1859.69 341.1,-1869.69 348.1,-1869.69"/>
</g>
<!-- p12&#45;&gt;p13 -->
<g id="edge15" class="edge"><title>p12&#45;&gt;p13</title>
<path fill="none" stroke="black" d="M418.696,-1898.84C481.117,-1885.23 565.23,-1866.89 597.368,-1859.89"/>
<polygon fill="black" stroke="black" points="598.474,-1863.23 607.499,-1857.68 596.983,-1856.39 598.474,-1863.23"/>
</g>
<!-- p9 -->
<g id="node14" class="node"><title>p9</title>
<ellipse fill="black" stroke="black" cx="257.6" cy="-1990" rx="3.6" ry="3.6"/>
</g>
<!-- p9&#45;&gt;p12 -->
<g id="edge11" class="edge"><title>p9&#45;&gt;p12</title>
<path fill="none" stroke="black" d="M258.178,-1986.32C259.731,-1979.71 264.572,-1962.36 274.6,-1952 279.361,-1947.08 284.96,-1942.74 290.882,-1938.94"/>
<polygon fill="black" stroke="black" points="292.868,-1941.84 299.731,-1933.77 289.332,-1935.8 292.868,-1941.84"/>
<text text-anchor="middle" x="288.6" y="-1956.3" font-family="Times,serif" font-size="14.00">meta</text>
</g>
<!-- p10 -->
<g id="node15" class="node"><title>p10</title>
<ellipse fill="black" stroke="black" cx="308.6" cy="-1990" rx="3.6" ry="3.6"/>
</g>
<!-- p10&#45;&gt;p12 -->
<g id="edge12" class="edge"><title>p10&#45;&gt;p12</title>
<path fill="none" stroke="black" d="M307.994,-1986.16C306.768,-1979.75 304.522,-1963.81 309.6,-1952 311.115,-1948.48 313.166,-1945.12 315.519,-1941.98"/>
<polygon fill="black" stroke="black" points="318.371,-1944.03 322.295,-1934.19 313.09,-1939.43 318.371,-1944.03"/>
<text text-anchor="middle" x="334.6" y="-1956.3" font-family="Times,serif" font-size="14.00">reference</text>
</g>
<!-- p11 -->
<g id="node16" class="node"><title>p11</title>
<ellipse fill="black" stroke="black" cx="381.6" cy="-1990" rx="3.6" ry="3.6"/>
</g>
<!-- p11&#45;&gt;p12 -->
<g id="edge13" class="edge"><title>p11&#45;&gt;p12</title>
<path fill="none" stroke="black" d="M380.369,-1986.6C376.878,-1979.81 366.605,-1959.82 357.96,-1943"/>
<polygon fill="black" stroke="black" points="361.061,-1941.37 353.377,-1934.08 354.835,-1944.57 361.061,-1941.37"/>
<text text-anchor="middle" x="399.1" y="-1956.3" font-family="Times,serif" font-size="14.00">references</text>
</g>
<!-- p16 -->
<g id="node19" class="node"><title>p16</title>
<ellipse fill="none" stroke="black" cx="349.6" cy="-1782" rx="224.32" ry="18"/>
<text text-anchor="middle" x="349.6" y="-1778.3" font-family="Times,serif" font-size="14.00">DEEPVARIANT_01:SAMTOOLS_SAMPLES_01:DIGEST</text>
</g>
<!-- p14&#45;&gt;p16 -->
<g id="edge17" class="edge"><title>p14&#45;&gt;p16</title>
<path fill="none" stroke="black" d="M344.79,-1852.27C345.27,-1845.35 346.574,-1826.58 347.703,-1810.32"/>
<polygon fill="black" stroke="black" points="351.208,-1810.36 348.41,-1800.14 344.225,-1809.88 351.208,-1810.36"/>
</g>
<!-- p18 -->
<g id="node22" class="node"><title>p18</title>
<ellipse fill="none" stroke="black" cx="603.6" cy="-1648" rx="3.25" ry="3.5"/>
<text text-anchor="middle" x="581.6" y="-1655.3" font-family="Times,serif" font-size="14.00">collect</text>
</g>
<!-- p17&#45;&gt;p18 -->
<g id="edge21" class="edge"><title>p17&#45;&gt;p18</title>
<path fill="none" stroke="black" d="M603.6,-1704.2C603.6,-1696.65 603.6,-1675.48 603.6,-1661.66"/>
<polygon fill="black" stroke="black" points="607.1,-1661.64 603.6,-1651.64 600.1,-1661.64 607.1,-1661.64"/>
<text text-anchor="middle" x="633.1" y="-1674.3" font-family="Times,serif" font-size="14.00">version_ch</text>
</g>
<!-- p26 -->
<g id="node21" class="node"><title>p26</title>
<ellipse fill="none" stroke="black" cx="296.6" cy="-1708" rx="3.25" ry="3.5"/>
<text text-anchor="middle" x="270.6" y="-1715.3" font-family="Times,serif" font-size="14.00">splitCsv</text>
</g>
<!-- p16&#45;&gt;p26 -->
<g id="edge19" class="edge"><title>p16&#45;&gt;p26</title>
<path fill="none" stroke="black" d="M337.04,-1763.94C326.915,-1750.18 312.996,-1731.27 304.409,-1719.61"/>
<polygon fill="black" stroke="black" points="307.032,-1717.27 298.285,-1711.29 301.394,-1721.42 307.032,-1717.27"/>
<text text-anchor="middle" x="341.1" y="-1734.3" font-family="Times,serif" font-size="14.00">output</text>
</g>
<!-- p16&#45;&gt;p17 -->
<g id="edge20" class="edge"><title>p16&#45;&gt;p17</title>
<path fill="none" stroke="black" d="M407.554,-1764.57C467.796,-1747.5 557.816,-1721.98 590.854,-1712.61"/>
<polygon fill="black" stroke="black" points="591.879,-1715.96 600.545,-1709.87 589.97,-1709.23 591.879,-1715.96"/>
</g>
<!-- p15 -->
<g id="node20" class="node"><title>p15</title>
<ellipse fill="black" stroke="black" cx="377.6" cy="-1856" rx="3.6" ry="3.6"/>
</g>
<!-- p15&#45;&gt;p16 -->
<g id="edge18" class="edge"><title>p15&#45;&gt;p16</title>
<path fill="none" stroke="black" d="M376.537,-1852.27C373.823,-1845.29 366.408,-1826.22 360.043,-1809.85"/>
<polygon fill="black" stroke="black" points="363.153,-1808.19 356.267,-1800.14 356.629,-1810.73 363.153,-1808.19"/>
<text text-anchor="middle" x="383.6" y="-1822.3" font-family="Times,serif" font-size="14.00">meta</text>
</g>
<!-- p27 -->
<g id="node29" class="node"><title>p27</title>
<ellipse fill="none" stroke="black" cx="212.6" cy="-1648" rx="3.25" ry="3.5"/>
<text text-anchor="middle" x="185.1" y="-1655.3" font-family="Times,serif" font-size="14.00">combine</text>
</g>
<!-- p26&#45;&gt;p27 -->
<g id="edge30" class="edge"><title>p26&#45;&gt;p27</title>
<path fill="none" stroke="black" d="M294.492,-1704.78C288.613,-1698.66 271.363,-1681.29 254.6,-1670 245.118,-1663.61 233.419,-1657.92 224.779,-1654.08"/>
<polygon fill="black" stroke="black" points="225.96,-1650.78 215.388,-1650.1 223.228,-1657.22 225.96,-1650.78"/>
</g>
<!-- p22 -->
<g id="node23" class="node"><title>p22</title>
<ellipse fill="none" stroke="black" cx="500.6" cy="-1574" rx="266.215" ry="18"/>
<text text-anchor="middle" x="500.6" y="-1570.3" font-family="Times,serif" font-size="14.00">DEEPVARIANT_01:SAMTOOLS_SAMPLES_01:MERGE_VERSION</text>
</g>
<!-- p18&#45;&gt;p22 -->
<g id="edge22" class="edge"><title>p18&#45;&gt;p22</title>
<path fill="none" stroke="black" d="M602.988,-1644.28C601.344,-1637.55 596.22,-1619.98 585.6,-1610 579.958,-1604.7 573.401,-1600.15 566.479,-1596.26"/>
<polygon fill="black" stroke="black" points="568.052,-1593.13 557.558,-1591.67 564.852,-1599.36 568.052,-1593.13"/>
</g>
<!-- p22&#45;&gt;p23 -->
<g id="edge26" class="edge"><title>p22&#45;&gt;p23</title>
<path fill="none" stroke="black" d="M500.6,-1555.94C500.6,-1543.13 500.6,-1525.84 500.6,-1514.11"/>
<polygon fill="black" stroke="black" points="504.1,-1513.75 500.6,-1503.75 497.1,-1513.75 504.1,-1513.75"/>
</g>
<!-- p19 -->
<g id="node24" class="node"><title>p19</title>
<ellipse fill="black" stroke="black" cx="422.6" cy="-1648" rx="3.6" ry="3.6"/>
</g>
<!-- p19&#45;&gt;p22 -->
<g id="edge23" class="edge"><title>p19&#45;&gt;p22</title>
<path fill="none" stroke="black" d="M423.3,-1644.36C425.144,-1637.84 430.691,-1620.68 440.6,-1610 444.905,-1605.36 449.968,-1601.15 455.297,-1597.39"/>
<polygon fill="black" stroke="black" points="457.339,-1600.23 463.818,-1591.85 453.526,-1594.36 457.339,-1600.23"/>
<text text-anchor="middle" x="454.6" y="-1614.3" font-family="Times,serif" font-size="14.00">meta</text>
</g>
<!-- p20 -->
<g id="node25" class="node"><title>p20</title>
<ellipse fill="black" stroke="black" cx="473.6" cy="-1648" rx="3.6" ry="3.6"/>
</g>
<!-- p20&#45;&gt;p22 -->
<g id="edge24" class="edge"><title>p20&#45;&gt;p22</title>
<path fill="none" stroke="black" d="M473.12,-1644.21C472.152,-1637.9 470.399,-1622.15 474.6,-1610 475.689,-1606.85 477.171,-1603.75 478.88,-1600.78"/>
<polygon fill="black" stroke="black" points="481.893,-1602.57 484.518,-1592.3 476.065,-1598.69 481.893,-1602.57"/>
<text text-anchor="middle" x="490.1" y="-1614.3" font-family="Times,serif" font-size="14.00">name</text>
</g>
<!-- p21 -->
<g id="node26" class="node"><title>p21</title>
<ellipse fill="black" stroke="black" cx="527.6" cy="-1648" rx="3.6" ry="3.6"/>
</g>
<!-- p21&#45;&gt;p22 -->
<g id="edge25" class="edge"><title>p21&#45;&gt;p22</title>
<path fill="none" stroke="black" d="M526.575,-1644.27C523.958,-1637.29 516.807,-1618.22 510.67,-1601.85"/>
<polygon fill="black" stroke="black" points="513.817,-1600.28 507.029,-1592.14 507.263,-1602.74 513.817,-1600.28"/>
<text text-anchor="middle" x="551.1" y="-1614.3" font-family="Times,serif" font-size="14.00">description</text>
</g>
<!-- p40 -->
<g id="node36" class="node"><title>p40</title>
<ellipse fill="none" stroke="black" cx="484.6" cy="-1086" rx="3.25" ry="3.5"/>
<text text-anchor="middle" x="470.1" y="-1093.3" font-family="Times,serif" font-size="14.00">mix</text>
</g>
<!-- p33&#45;&gt;p40 -->
<g id="edge38" class="edge"><title>p33&#45;&gt;p40</title>
<path fill="none" stroke="black" d="M487.6,-1316.22C487.6,-1309.27 487.6,-1290.58 487.6,-1275 487.6,-1275 487.6,-1275 487.6,-1145 487.6,-1129.47 486.514,-1111.63 485.649,-1099.88"/>
<polygon fill="black" stroke="black" points="489.117,-1099.35 484.835,-1089.66 482.139,-1099.9 489.117,-1099.35"/>
<text text-anchor="middle" x="517.1" y="-1220.3" font-family="Times,serif" font-size="14.00">version_ch</text>
</g>
<!-- p25&#45;&gt;p27 -->
<g id="edge29" class="edge"><title>p25&#45;&gt;p27</title>
<path fill="none" stroke="black" d="M175.276,-1704.51C180.384,-1696.91 195.977,-1673.72 205.315,-1659.83"/>
<polygon fill="black" stroke="black" points="208.467,-1661.42 211.142,-1651.17 202.658,-1657.51 208.467,-1661.42"/>
<text text-anchor="middle" x="224.6" y="-1674.3" font-family="Times,serif" font-size="14.00">each_bed</text>
</g>
<!-- p28 -->
<g id="node30" class="node"><title>p28</title>
<ellipse fill="none" stroke="black" cx="212.6" cy="-1574" rx="3.25" ry="3.5"/>
<text text-anchor="middle" x="196.6" y="-1581.3" font-family="Times,serif" font-size="14.00">map</text>
</g>
<!-- p27&#45;&gt;p28 -->
<g id="edge31" class="edge"><title>p27&#45;&gt;p28</title>
<path fill="none" stroke="black" d="M212.6,-1644.27C212.6,-1635.13 212.6,-1605.28 212.6,-1587.89"/>
<polygon fill="black" stroke="black" points="216.1,-1587.74 212.6,-1577.74 209.1,-1587.74 216.1,-1587.74"/>
</g>
<!-- p29 -->
<g id="node31" class="node"><title>p29</title>
<ellipse fill="none" stroke="black" cx="212.6" cy="-1500" rx="3.25" ry="3.5"/>
<text text-anchor="middle" x="196.6" y="-1507.3" font-family="Times,serif" font-size="14.00">map</text>
</g>
<!-- p28&#45;&gt;p29 -->
<g id="edge32" class="edge"><title>p28&#45;&gt;p29</title>
<path fill="none" stroke="black" d="M212.6,-1570.27C212.6,-1561.13 212.6,-1531.28 212.6,-1513.89"/>
<polygon fill="black" stroke="black" points="216.1,-1513.74 212.6,-1503.74 209.1,-1513.74 216.1,-1513.74"/>
</g>
<!-- p30 -->
<g id="node32" class="node"><title>p30</title>
<ellipse fill="none" stroke="black" cx="219.6" cy="-1454" rx="3.25" ry="3.5"/>
<text text-anchor="middle" x="203.6" y="-1461.3" font-family="Times,serif" font-size="14.00">map</text>
</g>
<!-- p29&#45;&gt;p30 -->
<g id="edge33" class="edge"><title>p29&#45;&gt;p30</title>
<path fill="none" stroke="black" d="M213.017,-1496.38C213.894,-1490.86 215.982,-1477.74 217.573,-1467.74"/>
<polygon fill="black" stroke="black" points="221.079,-1467.98 219.194,-1457.55 214.166,-1466.88 221.079,-1467.98"/>
</g>
<!-- p32 -->
<g id="node33" class="node"><title>p32</title>
<ellipse fill="none" stroke="black" cx="262.6" cy="-1380" rx="191.599" ry="18"/>
<text text-anchor="middle" x="262.6" y="-1376.3" font-family="Times,serif" font-size="14.00">DEEPVARIANT_01:DEEP_VARIANT_CALL_01</text>
</g>
<!-- p30&#45;&gt;p32 -->
<g id="edge34" class="edge"><title>p30&#45;&gt;p32</title>
<path fill="none" stroke="black" d="M220.699,-1450.61C223.47,-1444.64 231.055,-1428.65 238.6,-1416 240.429,-1412.93 242.426,-1409.77 244.461,-1406.66"/>
<polygon fill="black" stroke="black" points="247.505,-1408.41 250.193,-1398.16 241.701,-1404.5 247.505,-1408.41"/>
<text text-anchor="middle" x="248.6" y="-1420.3" font-family="Times,serif" font-size="14.00">ch1</text>
</g>
<!-- p34 -->
<g id="node35" class="node"><title>p34</title>
<ellipse fill="none" stroke="black" cx="262.6" cy="-1320" rx="3.25" ry="3.5"/>
<text text-anchor="middle" x="246.6" y="-1327.3" font-family="Times,serif" font-size="14.00">map</text>
</g>
<!-- p32&#45;&gt;p34 -->
<g id="edge36" class="edge"><title>p32&#45;&gt;p34</title>
<path fill="none" stroke="black" d="M262.6,-1361.91C262.6,-1352.96 262.6,-1342.19 262.6,-1333.94"/>
<polygon fill="black" stroke="black" points="266.1,-1333.69 262.6,-1323.69 259.1,-1333.69 266.1,-1333.69"/>
</g>
<!-- p32&#45;&gt;p33 -->
<g id="edge37" class="edge"><title>p32&#45;&gt;p33</title>
<path fill="none" stroke="black" d="M324.976,-1362.92C376.856,-1349.55 446.611,-1331.57 474.895,-1324.27"/>
<polygon fill="black" stroke="black" points="475.95,-1327.62 484.76,-1321.73 474.203,-1320.84 475.95,-1327.62"/>
</g>
<!-- p31 -->
<g id="node34" class="node"><title>p31</title>
<ellipse fill="black" stroke="black" cx="262.6" cy="-1454" rx="3.6" ry="3.6"/>
</g>
<!-- p31&#45;&gt;p32 -->
<g id="edge35" class="edge"><title>p31&#45;&gt;p32</title>
<path fill="none" stroke="black" d="M262.6,-1450.27C262.6,-1443.35 262.6,-1424.58 262.6,-1408.32"/>
<polygon fill="black" stroke="black" points="266.1,-1408.14 262.6,-1398.14 259.1,-1408.14 266.1,-1408.14"/>
<text text-anchor="middle" x="276.6" y="-1420.3" font-family="Times,serif" font-size="14.00">meta</text>
</g>
<!-- p35 -->
<g id="node37" class="node"><title>p35</title>
<ellipse fill="none" stroke="black" cx="262.6" cy="-1274" rx="3.25" ry="3.5"/>
<text text-anchor="middle" x="246.6" y="-1281.3" font-family="Times,serif" font-size="14.00">map</text>
</g>
<!-- p34&#45;&gt;p35 -->
<g id="edge39" class="edge"><title>p34&#45;&gt;p35</title>
<path fill="none" stroke="black" d="M262.6,-1316.38C262.6,-1310.86 262.6,-1297.74 262.6,-1287.74"/>
<polygon fill="black" stroke="black" points="266.1,-1287.55 262.6,-1277.55 259.1,-1287.55 266.1,-1287.55"/>
</g>
<!-- p45 -->
<g id="node43" class="node"><title>p45</title>
<ellipse fill="none" stroke="black" cx="277.6" cy="-878" rx="3.25" ry="3.5"/>
<text text-anchor="middle" x="263.1" y="-885.3" font-family="Times,serif" font-size="14.00">mix</text>
</g>
<!-- p40&#45;&gt;p45 -->
<g id="edge46" class="edge"><title>p40&#45;&gt;p45</title>
<path fill="none" stroke="black" d="M485.369,-1082.55C490.528,-1065.58 518.49,-964.644 470.6,-914 450.562,-892.809 369.18,-901.811 340.6,-896 322.948,-892.411 302.921,-886.723 290.278,-882.927"/>
<polygon fill="black" stroke="black" points="291.045,-879.501 280.458,-879.91 288.989,-886.192 291.045,-879.501"/>
<text text-anchor="middle" x="528.1" y="-1006.3" font-family="Times,serif" font-size="14.00">version_ch</text>
</g>
<!-- p36 -->
<g id="node38" class="node"><title>p36</title>
<ellipse fill="none" stroke="black" cx="262.6" cy="-1224" rx="3.25" ry="3.5"/>
<text text-anchor="middle" x="228.1" y="-1231.3" font-family="Times,serif" font-size="14.00">groupTuple</text>
</g>
<!-- p35&#45;&gt;p36 -->
<g id="edge40" class="edge"><title>p35&#45;&gt;p36</title>
<path fill="none" stroke="black" d="M262.6,-1270.42C262.6,-1264.42 262.6,-1249.2 262.6,-1238.02"/>
<polygon fill="black" stroke="black" points="266.1,-1237.83 262.6,-1227.83 259.1,-1237.83 266.1,-1237.83"/>
</g>
<!-- p38 -->
<g id="node39" class="node"><title>p38</title>
<ellipse fill="none" stroke="black" cx="268.6" cy="-1146" rx="191.125" ry="18"/>
<text text-anchor="middle" x="268.6" y="-1142.3" font-family="Times,serif" font-size="14.00">DEEPVARIANT_01:GLNEXUS_GENOTYPE_01</text>
</g>
<!-- p36&#45;&gt;p38 -->
<g id="edge41" class="edge"><title>p36&#45;&gt;p38</title>
<path fill="none" stroke="black" d="M262.558,-1220.4C262.475,-1213.92 262.394,-1196.47 263.6,-1182 263.814,-1179.43 264.093,-1176.76 264.408,-1174.1"/>
<polygon fill="black" stroke="black" points="267.896,-1174.42 265.755,-1164.04 260.958,-1173.49 267.896,-1174.42"/>
<text text-anchor="middle" x="273.6" y="-1186.3" font-family="Times,serif" font-size="14.00">ch3</text>
</g>
<!-- p41 -->
<g id="node41" class="node"><title>p41</title>
<ellipse fill="none" stroke="black" cx="274.6" cy="-1086" rx="3.25" ry="3.5"/>
<text text-anchor="middle" x="258.6" y="-1093.3" font-family="Times,serif" font-size="14.00">map</text>
</g>
<!-- p38&#45;&gt;p41 -->
<g id="edge43" class="edge"><title>p38&#45;&gt;p41</title>
<path fill="none" stroke="black" d="M270.368,-1127.91C271.304,-1118.86 272.435,-1107.93 273.292,-1099.65"/>
<polygon fill="black" stroke="black" points="276.774,-1100 274.322,-1089.69 269.811,-1099.28 276.774,-1100"/>
</g>
<!-- p38&#45;&gt;p40 -->
<g id="edge44" class="edge"><title>p38&#45;&gt;p40</title>
<path fill="none" stroke="black" d="M328.768,-1128.84C378.13,-1115.59 444.199,-1097.85 471.723,-1090.46"/>
<polygon fill="black" stroke="black" points="472.708,-1093.82 481.458,-1087.84 470.892,-1087.06 472.708,-1093.82"/>
</g>
<!-- p39 -->
<g id="node42" class="node"><title>p39</title>
<ellipse fill="black" stroke="black" cx="249.6" cy="-1086" rx="1.8" ry="1.8"/>
</g>
<!-- p38&#45;&gt;p39 -->
<g id="edge45" class="edge"><title>p38&#45;&gt;p39</title>
<path fill="none" stroke="black" d="M263.002,-1127.91C259.784,-1118.09 255.843,-1106.06 253.07,-1097.59"/>
<polygon fill="black" stroke="black" points="256.385,-1096.47 249.946,-1088.06 249.733,-1098.65 256.385,-1096.47"/>
</g>
<!-- p37 -->
<g id="node40" class="node"><title>p37</title>
<ellipse fill="black" stroke="black" cx="305.6" cy="-1224" rx="3.6" ry="3.6"/>
</g>
<!-- p37&#45;&gt;p38 -->
<g id="edge42" class="edge"><title>p37&#45;&gt;p38</title>
<path fill="none" stroke="black" d="M304.369,-1220.47C300.814,-1213.17 290.229,-1191.43 281.49,-1173.48"/>
<polygon fill="black" stroke="black" points="284.405,-1171.47 276.88,-1164.01 278.111,-1174.53 284.405,-1171.47"/>
<text text-anchor="middle" x="306.6" y="-1186.3" font-family="Times,serif" font-size="14.00">meta</text>
</g>
<!-- p42 -->
<g id="node44" class="node"><title>p42</title>
<ellipse fill="none" stroke="black" cx="274.6" cy="-1040" rx="3.25" ry="3.5"/>
<text text-anchor="middle" x="252.6" y="-1047.3" font-family="Times,serif" font-size="14.00">collect</text>
</g>
<!-- p41&#45;&gt;p42 -->
<g id="edge47" class="edge"><title>p41&#45;&gt;p42</title>
<path fill="none" stroke="black" d="M274.6,-1082.38C274.6,-1076.86 274.6,-1063.74 274.6,-1053.74"/>
<polygon fill="black" stroke="black" points="278.1,-1053.55 274.6,-1043.55 271.1,-1053.55 278.1,-1053.55"/>
</g>
<!-- p67 -->
<g id="node48" class="node"><title>p67</title>
<ellipse fill="none" stroke="black" cx="311.6" cy="-282" rx="3.25" ry="3.5"/>
<text text-anchor="middle" x="297.1" y="-289.3" font-family="Times,serif" font-size="14.00">mix</text>
</g>
<!-- p45&#45;&gt;p67 -->
<g id="edge52" class="edge"><title>p45&#45;&gt;p67</title>
<path fill="none" stroke="black" d="M275.234,-875.531C266.095,-869.655 233.6,-846.806 233.6,-819 233.6,-819 233.6,-819 233.6,-341 233.6,-308.97 276.477,-292.553 298.651,-286.204"/>
<polygon fill="black" stroke="black" points="299.827,-289.515 308.638,-283.632 298.081,-282.737 299.827,-289.515"/>
<text text-anchor="middle" x="263.1" y="-590.3" font-family="Times,serif" font-size="14.00">version_ch</text>
</g>
<!-- p44 -->
<g id="node45" class="node"><title>p44</title>
<ellipse fill="none" stroke="black" cx="277.6" cy="-966" rx="178.601" ry="18"/>
<text text-anchor="middle" x="277.6" y="-962.3" font-family="Times,serif" font-size="14.00">DEEPVARIANT_01:COLLECT_TO_FILE_01</text>
</g>
<!-- p42&#45;&gt;p44 -->
<g id="edge48" class="edge"><title>p42&#45;&gt;p44</title>
<path fill="none" stroke="black" d="M274.714,-1036.27C275.002,-1029.35 275.784,-1010.58 276.462,-994.316"/>
<polygon fill="black" stroke="black" points="279.966,-994.28 276.886,-984.143 272.972,-993.988 279.966,-994.28"/>
</g>
<!-- p48 -->
<g id="node47" class="node"><title>p48</title>
<ellipse fill="none" stroke="black" cx="580.6" cy="-878" rx="231.069" ry="18"/>
<text text-anchor="middle" x="580.6" y="-874.3" font-family="Times,serif" font-size="14.00">DEEPVARIANT_01:BCFTOOLS_CONCAT_01:SQRT_FILE</text>
</g>
<!-- p44&#45;&gt;p48 -->
<g id="edge50" class="edge"><title>p44&#45;&gt;p48</title>
<path fill="none" stroke="black" d="M334.237,-948.925C384.869,-934.554 459.157,-913.469 512.908,-898.213"/>
<polygon fill="black" stroke="black" points="514.031,-901.533 522.695,-895.435 512.119,-894.799 514.031,-901.533"/>
<text text-anchor="middle" x="467.6" y="-918.3" font-family="Times,serif" font-size="14.00">vcfs</text>
</g>
<!-- p44&#45;&gt;p45 -->
<g id="edge51" class="edge"><title>p44&#45;&gt;p45</title>
<path fill="none" stroke="black" d="M277.6,-947.597C277.6,-931.046 277.6,-906.54 277.6,-891.737"/>
<polygon fill="black" stroke="black" points="281.1,-891.671 277.6,-881.671 274.1,-891.671 281.1,-891.671"/>
</g>
<!-- p43 -->
<g id="node46" class="node"><title>p43</title>
<ellipse fill="black" stroke="black" cx="307.6" cy="-1040" rx="3.6" ry="3.6"/>
</g>
<!-- p43&#45;&gt;p44 -->
<g id="edge49" class="edge"><title>p43&#45;&gt;p44</title>
<path fill="none" stroke="black" d="M306.461,-1036.27C303.526,-1029.22 295.458,-1009.86 288.596,-993.39"/>
<polygon fill="black" stroke="black" points="291.82,-992.027 284.743,-984.143 285.358,-994.72 291.82,-992.027"/>
<text text-anchor="middle" x="313.6" y="-1006.3" font-family="Times,serif" font-size="14.00">meta</text>
</g>
<!-- p50 -->
<g id="node52" class="node"><title>p50</title>
<ellipse fill="none" stroke="black" cx="581.6" cy="-818" rx="3.25" ry="3.5"/>
<text text-anchor="middle" x="555.1" y="-825.3" font-family="Times,serif" font-size="14.00">splitText</text>
</g>
<!-- p48&#45;&gt;p50 -->
<g id="edge55" class="edge"><title>p48&#45;&gt;p50</title>
<path fill="none" stroke="black" d="M580.895,-859.912C581.049,-850.965 581.235,-840.187 581.377,-831.94"/>
<polygon fill="black" stroke="black" points="584.881,-831.75 581.554,-821.691 577.882,-831.629 584.881,-831.75"/>
</g>
<!-- p49 -->
<g id="node53" class="node"><title>p49</title>
<ellipse fill="black" stroke="black" cx="605.6" cy="-818" rx="1.8" ry="1.8"/>
</g>
<!-- p48&#45;&gt;p49 -->
<g id="edge56" class="edge"><title>p48&#45;&gt;p49</title>
<path fill="none" stroke="black" d="M587.966,-859.912C592.251,-849.971 597.51,-837.769 601.164,-829.291"/>
<polygon fill="black" stroke="black" points="604.401,-830.625 605.145,-820.056 597.972,-827.854 604.401,-830.625"/>
</g>
<!-- p68 -->
<g id="node69" class="node"><title>p68</title>
<ellipse fill="none" stroke="black" cx="311.6" cy="-222" rx="3.25" ry="3.5"/>
<text text-anchor="middle" x="289.6" y="-229.3" font-family="Times,serif" font-size="14.00">collect</text>
</g>
<!-- p67&#45;&gt;p68 -->
<g id="edge75" class="edge"><title>p67&#45;&gt;p68</title>
<path fill="none" stroke="black" d="M311.6,-278.203C311.6,-270.649 311.6,-249.48 311.6,-235.66"/>
<polygon fill="black" stroke="black" points="315.1,-235.636 311.6,-225.636 308.1,-235.636 315.1,-235.636"/>
<text text-anchor="middle" x="341.1" y="-248.3" font-family="Times,serif" font-size="14.00">version_ch</text>
</g>
<!-- p46 -->
<g id="node49" class="node"><title>p46</title>
<ellipse fill="black" stroke="black" cx="284.6" cy="-698" rx="3.6" ry="3.6"/>
<text text-anchor="middle" x="239" y="-705.4" font-family="Times,serif" font-size="14.00">Channel.empty</text>
</g>
<!-- p55 -->
<g id="node50" class="node"><title>p55</title>
<ellipse fill="none" stroke="black" cx="307.6" cy="-624" rx="3.25" ry="3.5"/>
<text text-anchor="middle" x="293.1" y="-631.3" font-family="Times,serif" font-size="14.00">mix</text>
</g>
<!-- p46&#45;&gt;p55 -->
<g id="edge53" class="edge"><title>p46&#45;&gt;p55</title>
<path fill="none" stroke="black" d="M285.474,-694.265C288.432,-685.005 298.194,-654.446 303.712,-637.172"/>
<polygon fill="black" stroke="black" points="307.113,-638.028 306.822,-627.437 300.445,-635.898 307.113,-638.028"/>
<text text-anchor="middle" x="331.1" y="-650.3" font-family="Times,serif" font-size="14.00">version_ch</text>
</g>
<!-- p61 -->
<g id="node59" class="node"><title>p61</title>
<ellipse fill="none" stroke="black" cx="651.6" cy="-476" rx="3.25" ry="3.5"/>
<text text-anchor="middle" x="637.1" y="-483.3" font-family="Times,serif" font-size="14.00">mix</text>
</g>
<!-- p55&#45;&gt;p61 -->
<g id="edge63" class="edge"><title>p55&#45;&gt;p61</title>
<path fill="none" stroke="black" d="M306.845,-620.304C303.619,-608.149 292.24,-557.907 316.6,-532 366.252,-479.195 567.469,-493.935 638.6,-480 638.708,-479.979 638.816,-479.957 638.925,-479.936"/>
<polygon fill="black" stroke="black" points="639.634,-483.364 648.617,-477.748 638.092,-476.536 639.634,-483.364"/>
<text text-anchor="middle" x="346.1" y="-546.3" font-family="Times,serif" font-size="14.00">version_ch</text>
</g>
<!-- p47 -->
<g id="node51" class="node"><title>p47</title>
<ellipse fill="black" stroke="black" cx="580.6" cy="-966" rx="3.6" ry="3.6"/>
</g>
<!-- p47&#45;&gt;p48 -->
<g id="edge54" class="edge"><title>p47&#45;&gt;p48</title>
<path fill="none" stroke="black" d="M580.6,-962.139C580.6,-953.502 580.6,-927.011 580.6,-906.227"/>
<polygon fill="black" stroke="black" points="584.1,-906.004 580.6,-896.004 577.1,-906.004 584.1,-906.004"/>
<text text-anchor="middle" x="594.6" y="-918.3" font-family="Times,serif" font-size="14.00">meta</text>
</g>
<!-- p51 -->
<g id="node54" class="node"><title>p51</title>
<ellipse fill="none" stroke="black" cx="618.6" cy="-772" rx="3.25" ry="3.5"/>
<text text-anchor="middle" x="602.6" y="-779.3" font-family="Times,serif" font-size="14.00">map</text>
</g>
<!-- p50&#45;&gt;p51 -->
<g id="edge57" class="edge"><title>p50&#45;&gt;p51</title>
<path fill="none" stroke="black" d="M583.385,-814.878C588.159,-809.2 601.461,-793.382 610.28,-782.894"/>
<polygon fill="black" stroke="black" points="612.989,-785.111 616.746,-775.205 607.631,-780.606 612.989,-785.111"/>
</g>
<!-- p53 -->
<g id="node55" class="node"><title>p53</title>
<ellipse fill="none" stroke="black" cx="631.6" cy="-698" rx="324.457" ry="18"/>
<text text-anchor="middle" x="631.6" y="-694.3" font-family="Times,serif" font-size="14.00">DEEPVARIANT_01:BCFTOOLS_CONCAT_01:BCFTOOL_CONCAT_FILE_LIST_01</text>
</g>
<!-- p51&#45;&gt;p53 -->
<g id="edge58" class="edge"><title>p51&#45;&gt;p53</title>
<path fill="none" stroke="black" d="M619.094,-768.265C620.342,-761.354 623.732,-742.578 626.668,-726.316"/>
<polygon fill="black" stroke="black" points="630.172,-726.606 628.505,-716.143 623.284,-725.362 630.172,-726.606"/>
<text text-anchor="middle" x="641.6" y="-738.3" font-family="Times,serif" font-size="14.00">d2_ch</text>
</g>
<!-- p56 -->
<g id="node57" class="node"><title>p56</title>
<ellipse fill="none" stroke="black" cx="668.6" cy="-624" rx="3.25" ry="3.5"/>
<text text-anchor="middle" x="646.6" y="-631.3" font-family="Times,serif" font-size="14.00">collect</text>
</g>
<!-- p53&#45;&gt;p56 -->
<g id="edge60" class="edge"><title>p53&#45;&gt;p56</title>
<path fill="none" stroke="black" d="M640.368,-679.937C647.292,-666.464 656.759,-648.043 662.777,-636.332"/>
<polygon fill="black" stroke="black" points="665.966,-637.783 667.424,-627.289 659.74,-634.583 665.966,-637.783"/>
</g>
<!-- p54 -->
<g id="node58" class="node"><title>p54</title>
<ellipse fill="black" stroke="black" cx="631.6" cy="-624" rx="1.8" ry="1.8"/>
</g>
<!-- p53&#45;&gt;p54 -->
<g id="edge61" class="edge"><title>p53&#45;&gt;p54</title>
<path fill="none" stroke="black" d="M631.6,-679.937C631.6,-666.37 631.6,-647.787 631.6,-636.089"/>
<polygon fill="black" stroke="black" points="635.1,-635.849 631.6,-625.849 628.1,-635.849 635.1,-635.849"/>
</g>
<!-- p53&#45;&gt;p55 -->
<g id="edge62" class="edge"><title>p53&#45;&gt;p55</title>
<path fill="none" stroke="black" d="M556.861,-680.391C477.774,-662.817 359.139,-636.453 320.36,-627.836"/>
<polygon fill="black" stroke="black" points="321.105,-624.416 310.584,-625.663 319.586,-631.249 321.105,-624.416"/>
</g>
<!-- p52 -->
<g id="node56" class="node"><title>p52</title>
<ellipse fill="black" stroke="black" cx="580.6" cy="-772" rx="3.6" ry="3.6"/>
</g>
<!-- p52&#45;&gt;p53 -->
<g id="edge59" class="edge"><title>p52&#45;&gt;p53</title>
<path fill="none" stroke="black" d="M580.7,-768.074C581.047,-761.492 582.607,-745.221 589.6,-734 592.038,-730.088 595.062,-726.401 598.363,-722.994"/>
<polygon fill="black" stroke="black" points="600.951,-725.368 605.909,-716.005 596.194,-720.232 600.951,-725.368"/>
<text text-anchor="middle" x="603.6" y="-738.3" font-family="Times,serif" font-size="14.00">meta</text>
</g>
<!-- p58 -->
<g id="node60" class="node"><title>p58</title>
<ellipse fill="none" stroke="black" cx="707.6" cy="-550" rx="323.032" ry="18"/>
<text text-anchor="middle" x="707.6" y="-546.3" font-family="Times,serif" font-size="14.00">DEEPVARIANT_01:BCFTOOLS_CONCAT_01:BCFTOOL_CONCAT_COLLECT_01</text>
</g>
<!-- p56&#45;&gt;p58 -->
<g id="edge64" class="edge"><title>p56&#45;&gt;p58</title>
<path fill="none" stroke="black" d="M669.898,-620.604C673.578,-613.81 684.405,-593.821 693.518,-576.997"/>
<polygon fill="black" stroke="black" points="696.663,-578.54 698.348,-568.08 690.508,-575.206 696.663,-578.54"/>
</g>
<!-- p62 -->
<g id="node64" class="node"><title>p62</title>
<ellipse fill="none" stroke="black" cx="651.6" cy="-416" rx="3.25" ry="3.5"/>
<text text-anchor="middle" x="629.6" y="-423.3" font-family="Times,serif" font-size="14.00">collect</text>
</g>
<!-- p61&#45;&gt;p62 -->
<g id="edge69" class="edge"><title>p61&#45;&gt;p62</title>
<path fill="none" stroke="black" d="M651.6,-472.203C651.6,-464.649 651.6,-443.48 651.6,-429.66"/>
<polygon fill="black" stroke="black" points="655.1,-429.636 651.6,-419.636 648.1,-429.636 655.1,-429.636"/>
<text text-anchor="middle" x="681.1" y="-442.3" font-family="Times,serif" font-size="14.00">version_ch</text>
</g>
<!-- p60 -->
<g id="node62" class="node"><title>p60</title>
<ellipse fill="black" stroke="black" cx="707.6" cy="-476" rx="1.8" ry="1.8"/>
</g>
<!-- p58&#45;&gt;p60 -->
<g id="edge66" class="edge"><title>p58&#45;&gt;p60</title>
<path fill="none" stroke="black" d="M707.6,-531.937C707.6,-518.37 707.6,-499.787 707.6,-488.089"/>
<polygon fill="black" stroke="black" points="711.1,-487.849 707.6,-477.849 704.1,-487.849 711.1,-487.849"/>
<text text-anchor="middle" x="716.1" y="-502.3" font-family="Times,serif" font-size="14.00">vcf</text>
</g>
<!-- p59 -->
<g id="node63" class="node"><title>p59</title>
<ellipse fill="black" stroke="black" cx="628.6" cy="-476" rx="1.8" ry="1.8"/>
</g>
<!-- p58&#45;&gt;p59 -->
<g id="edge67" class="edge"><title>p58&#45;&gt;p59</title>
<path fill="none" stroke="black" d="M654.599,-532.073C646.51,-527.381 639.055,-521.455 633.6,-514 628.174,-506.585 627.224,-496.037 627.457,-488.1"/>
<polygon fill="black" stroke="black" points="630.951,-488.327 628.413,-478.041 623.982,-487.664 630.951,-488.327"/>
<text text-anchor="middle" x="648.6" y="-502.3" font-family="Times,serif" font-size="14.00">index</text>
</g>
<!-- p58&#45;&gt;p61 -->
<g id="edge68" class="edge"><title>p58&#45;&gt;p61</title>
<path fill="none" stroke="black" d="M694.329,-531.937C683.522,-518.043 668.623,-498.887 659.575,-487.254"/>
<polygon fill="black" stroke="black" points="662.282,-485.034 653.38,-479.289 656.757,-489.331 662.282,-485.034"/>
</g>
<!-- p57 -->
<g id="node61" class="node"><title>p57</title>
<ellipse fill="black" stroke="black" cx="707.6" cy="-624" rx="3.6" ry="3.6"/>
</g>
<!-- p57&#45;&gt;p58 -->
<g id="edge65" class="edge"><title>p57&#45;&gt;p58</title>
<path fill="none" stroke="black" d="M707.6,-620.265C707.6,-613.354 707.6,-594.578 707.6,-578.316"/>
<polygon fill="black" stroke="black" points="711.1,-578.143 707.6,-568.143 704.1,-578.143 711.1,-578.143"/>
<text text-anchor="middle" x="721.6" y="-590.3" font-family="Times,serif" font-size="14.00">meta</text>
</g>
<!-- p66 -->
<g id="node65" class="node"><title>p66</title>
<ellipse fill="none" stroke="black" cx="521.6" cy="-342" rx="259.465" ry="18"/>
<text text-anchor="middle" x="521.6" y="-338.3" font-family="Times,serif" font-size="14.00">DEEPVARIANT_01:BCFTOOLS_CONCAT_01:MERGE_VERSION</text>
</g>
<!-- p62&#45;&gt;p66 -->
<g id="edge70" class="edge"><title>p62&#45;&gt;p66</title>
<path fill="none" stroke="black" d="M650.783,-412.61C648.425,-406.068 640.976,-387.712 628.6,-378 621.182,-372.179 612.761,-367.309 603.977,-363.238"/>
<polygon fill="black" stroke="black" points="605.289,-359.993 594.719,-359.279 602.537,-366.429 605.289,-359.993"/>
</g>
<!-- p66&#45;&gt;p67 -->
<g id="edge74" class="edge"><title>p66&#45;&gt;p67</title>
<path fill="none" stroke="black" d="M461.703,-324.457C413.98,-311.276 350.909,-293.857 324.302,-286.508"/>
<polygon fill="black" stroke="black" points="325.181,-283.12 314.61,-283.831 323.318,-289.867 325.181,-283.12"/>
</g>
<!-- p63 -->
<g id="node66" class="node"><title>p63</title>
<ellipse fill="black" stroke="black" cx="470.6" cy="-416" rx="3.6" ry="3.6"/>
</g>
<!-- p63&#45;&gt;p66 -->
<g id="edge71" class="edge"><title>p63&#45;&gt;p66</title>
<path fill="none" stroke="black" d="M471.592,-412.537C474.119,-406.409 481.191,-390.095 489.6,-378 492.032,-374.502 494.789,-370.987 497.639,-367.607"/>
<polygon fill="black" stroke="black" points="500.339,-369.837 504.352,-360.031 495.1,-365.195 500.339,-369.837"/>
<text text-anchor="middle" x="503.6" y="-382.3" font-family="Times,serif" font-size="14.00">meta</text>
</g>
<!-- p64 -->
<g id="node67" class="node"><title>p64</title>
<ellipse fill="black" stroke="black" cx="521.6" cy="-416" rx="3.6" ry="3.6"/>
</g>
<!-- p64&#45;&gt;p66 -->
<g id="edge72" class="edge"><title>p64&#45;&gt;p66</title>
<path fill="none" stroke="black" d="M521.6,-412.265C521.6,-405.354 521.6,-386.578 521.6,-370.316"/>
<polygon fill="black" stroke="black" points="525.1,-370.143 521.6,-360.143 518.1,-370.143 525.1,-370.143"/>
<text text-anchor="middle" x="537.1" y="-382.3" font-family="Times,serif" font-size="14.00">name</text>
</g>
<!-- p65 -->
<g id="node68" class="node"><title>p65</title>
<ellipse fill="black" stroke="black" cx="575.6" cy="-416" rx="3.6" ry="3.6"/>
</g>
<!-- p65&#45;&gt;p66 -->
<g id="edge73" class="edge"><title>p65&#45;&gt;p66</title>
<path fill="none" stroke="black" d="M574.37,-412.556C571.262,-406.469 562.687,-390.242 553.6,-378 551.06,-374.579 548.24,-371.111 545.356,-367.754"/>
<polygon fill="black" stroke="black" points="547.884,-365.33 538.614,-360.2 542.661,-369.991 547.884,-365.33"/>
<text text-anchor="middle" x="594.1" y="-382.3" font-family="Times,serif" font-size="14.00">description</text>
</g>
<!-- p72 -->
<g id="node70" class="node"><title>p72</title>
<ellipse fill="none" stroke="black" cx="369.6" cy="-148" rx="159.329" ry="18"/>
<text text-anchor="middle" x="369.6" y="-144.3" font-family="Times,serif" font-size="14.00">DEEPVARIANT_01:MERGE_VERSION</text>
</g>
<!-- p68&#45;&gt;p72 -->
<g id="edge76" class="edge"><title>p68&#45;&gt;p72</title>
<path fill="none" stroke="black" d="M313.32,-218.624C317.631,-212.694 329.29,-196.797 339.6,-184 342.255,-180.705 345.093,-177.278 347.925,-173.914"/>
<polygon fill="black" stroke="black" points="350.615,-176.154 354.434,-166.271 345.286,-171.615 350.615,-176.154"/>
</g>
<!-- p74 -->
<g id="node74" class="node"><title>p74</title>
<ellipse fill="none" stroke="black" cx="496.6" cy="-60" rx="94.338" ry="18"/>
<text text-anchor="middle" x="496.6" y="-56.3" font-family="Times,serif" font-size="14.00">VERSION_TO_HTML</text>
</g>
<!-- p72&#45;&gt;p74 -->
<g id="edge80" class="edge"><title>p72&#45;&gt;p74</title>
<path fill="none" stroke="black" d="M394.388,-130.214C414.183,-116.81 442.094,-97.9097 463.749,-83.2457"/>
<polygon fill="black" stroke="black" points="465.988,-85.9565 472.306,-77.4513 462.063,-80.1603 465.988,-85.9565"/>
</g>
<!-- p69 -->
<g id="node71" class="node"><title>p69</title>
<ellipse fill="black" stroke="black" cx="344.6" cy="-222" rx="3.6" ry="3.6"/>
</g>
<!-- p69&#45;&gt;p72 -->
<g id="edge77" class="edge"><title>p69&#45;&gt;p72</title>
<path fill="none" stroke="black" d="M344.153,-218.218C343.253,-211.931 341.63,-196.223 345.6,-184 346.624,-180.847 348.03,-177.72 349.651,-174.709"/>
<polygon fill="black" stroke="black" points="352.691,-176.449 354.997,-166.109 346.745,-172.754 352.691,-176.449"/>
<text text-anchor="middle" x="359.6" y="-188.3" font-family="Times,serif" font-size="14.00">meta</text>
</g>
<!-- p70 -->
<g id="node72" class="node"><title>p70</title>
<ellipse fill="black" stroke="black" cx="395.6" cy="-222" rx="3.6" ry="3.6"/>
</g>
<!-- p70&#45;&gt;p72 -->
<g id="edge78" class="edge"><title>p70&#45;&gt;p72</title>
<path fill="none" stroke="black" d="M394.613,-218.265C392.093,-211.288 385.207,-192.219 379.297,-175.852"/>
<polygon fill="black" stroke="black" points="382.479,-174.36 375.79,-166.143 375.895,-176.737 382.479,-174.36"/>
<text text-anchor="middle" x="404.1" y="-188.3" font-family="Times,serif" font-size="14.00">name</text>
</g>
<!-- p71 -->
<g id="node73" class="node"><title>p71</title>
<ellipse fill="black" stroke="black" cx="449.6" cy="-222" rx="3.6" ry="3.6"/>
</g>
<!-- p71&#45;&gt;p72 -->
<g id="edge79" class="edge"><title>p71&#45;&gt;p72</title>
<path fill="none" stroke="black" d="M448.245,-218.416C444.796,-212.009 435.135,-195.111 423.6,-184 419.006,-179.575 413.775,-175.383 408.42,-171.54"/>
<polygon fill="black" stroke="black" points="410.215,-168.528 399.977,-165.805 406.282,-174.319 410.215,-168.528"/>
<text text-anchor="middle" x="467.1" y="-188.3" font-family="Times,serif" font-size="14.00">description</text>
</g>
<!-- p75 -->
<g id="node76" class="node"><title>p75</title>
<ellipse fill="black" stroke="black" cx="496.6" cy="-2" rx="1.8" ry="1.8"/>
</g>
<!-- p74&#45;&gt;p75 -->
<g id="edge82" class="edge"><title>p74&#45;&gt;p75</title>
<path fill="none" stroke="black" d="M496.6,-41.8939C496.6,-32.8876 496.6,-22.0999 496.6,-14.1727"/>
<polygon fill="black" stroke="black" points="500.1,-13.9957 496.6,-3.99575 493.1,-13.9958 500.1,-13.9957"/>
</g>
<!-- p73 -->
<g id="node75" class="node"><title>p73</title>
<ellipse fill="black" stroke="black" cx="550.6" cy="-148" rx="3.6" ry="3.6"/>
</g>
<!-- p73&#45;&gt;p74 -->
<g id="edge81" class="edge"><title>p73&#45;&gt;p74</title>
<path fill="none" stroke="black" d="M549.042,-144.519C543.746,-136.085 526.023,-107.859 512.634,-86.5359"/>
<polygon fill="black" stroke="black" points="515.492,-84.5055 507.21,-77.8978 509.564,-88.228 515.492,-84.5055"/>
<text text-anchor="middle" x="542.6" y="-100.3" font-family="Times,serif" font-size="14.00">meta</text>
</g>
</g>
</svg>
