<?xml version="1.0" encoding="UTF-8" standalone="no"?>
<!DOCTYPE svg PUBLIC "-//W3C//DTD SVG 1.1//EN"
 "http://www.w3.org/Graphics/SVG/1.1/DTD/svg11.dtd">
<!-- Generated by graphviz version 2.30.1 (20201013.1554)
 -->
<!-- Title: 20230301hs37d5largesvcnrghigvreportsworkflow Pages: 1 -->
<svg width="1097pt" height="1708pt"
 viewBox="0.00 0.00 1097.00 1708.00" xmlns="http://www.w3.org/2000/svg" xmlns:xlink="http://www.w3.org/1999/xlink">
<g id="graph0" class="graph" transform="scale(1 1) rotate(0) translate(4 1704)">
<title>20230301hs37d5largesvcnrghigvreportsworkflow</title>
<polygon fill="white" stroke="white" points="-4,5 -4,-1704 1094,-1704 1094,5 -4,5"/>
<!-- p0 -->
<g id="node1" class="node"><title>p0</title>
<ellipse fill="black" stroke="black" cx="473" cy="-1100" rx="3.6" ry="3.6"/>
<text text-anchor="middle" x="414.9" y="-1107.4" font-family="Times,serif" font-size="14.00">Channel.empty</text>
</g>
<!-- p22 -->
<g id="node2" class="node"><title>p22</title>
<ellipse fill="none" stroke="black" cx="647" cy="-1012" rx="3.25" ry="3.5"/>
<text text-anchor="middle" x="657" y="-1019.3" font-family="Times,serif" font-size="14.00">mix</text>
</g>
<!-- p0&#45;&gt;p22 -->
<g id="edge1" class="edge"><title>p0&#45;&gt;p22</title>
<path fill="none" stroke="black" d="M474.296,-1096.18C476.155,-1092.43 479.923,-1085.83 485,-1082 541.008,-1039.78 577.196,-1071.14 634,-1030 636.336,-1028.31 638.45,-1026.08 640.263,-1023.79"/>
<polygon fill="black" stroke="black" points="643.258,-1025.61 645.807,-1015.33 637.402,-1021.78 643.258,-1025.61"/>
<text text-anchor="middle" x="638" y="-1052.3" font-family="Times,serif" font-size="14.00">version_ch</text>
</g>
<!-- p25 -->
<g id="node25" class="node"><title>p25</title>
<ellipse fill="none" stroke="black" cx="629" cy="-924" rx="3.25" ry="3.5"/>
<text text-anchor="middle" x="612" y="-931.3" font-family="Times,serif" font-size="14.00">mix</text>
</g>
<!-- p22&#45;&gt;p25 -->
<g id="edge26" class="edge"><title>p22&#45;&gt;p25</title>
<path fill="none" stroke="black" d="M646.481,-1008.52C644.323,-998.21 635.977,-958.336 631.644,-937.635"/>
<polygon fill="black" stroke="black" points="635.031,-936.73 629.557,-927.659 628.18,-938.164 635.031,-936.73"/>
<text text-anchor="middle" x="678" y="-964.3" font-family="Times,serif" font-size="14.00">version_ch</text>
</g>
<!-- p1 -->
<g id="node3" class="node"><title>p1</title>
<ellipse fill="black" stroke="black" cx="576" cy="-1622" rx="3.6" ry="3.6"/>
<text text-anchor="middle" x="626.9" y="-1629.4" font-family="Times,serif" font-size="14.00">Channel.empty</text>
</g>
<!-- p5 -->
<g id="node4" class="node"><title>p5</title>
<ellipse fill="none" stroke="black" cx="576" cy="-1548" rx="3.25" ry="3.5"/>
<text text-anchor="middle" x="559" y="-1555.3" font-family="Times,serif" font-size="14.00">mix</text>
</g>
<!-- p1&#45;&gt;p5 -->
<g id="edge2" class="edge"><title>p1&#45;&gt;p5</title>
<path fill="none" stroke="black" d="M576,-1618.27C576,-1609.13 576,-1579.28 576,-1561.89"/>
<polygon fill="black" stroke="black" points="579.5,-1561.74 576,-1551.74 572.5,-1561.74 579.5,-1561.74"/>
<text text-anchor="middle" x="615" y="-1574.3" font-family="Times,serif" font-size="14.00">version_ch</text>
</g>
<!-- p12 -->
<g id="node9" class="node"><title>p12</title>
<ellipse fill="none" stroke="black" cx="561" cy="-1368" rx="3.25" ry="3.5"/>
<text text-anchor="middle" x="544" y="-1375.3" font-family="Times,serif" font-size="14.00">mix</text>
</g>
<!-- p5&#45;&gt;p12 -->
<g id="edge7" class="edge"><title>p5&#45;&gt;p12</title>
<path fill="none" stroke="black" d="M575.788,-1544.48C574.284,-1526.64 565.204,-1418.89 562.066,-1381.65"/>
<polygon fill="black" stroke="black" points="565.553,-1381.35 561.226,-1371.68 558.578,-1381.94 565.553,-1381.35"/>
<text text-anchor="middle" x="609" y="-1468.3" font-family="Times,serif" font-size="14.00">version_ch</text>
</g>
<!-- p2 -->
<g id="node5" class="node"><title>p2</title>
<ellipse fill="black" stroke="black" cx="260" cy="-1696" rx="3.6" ry="3.6"/>
</g>
<!-- p4 -->
<g id="node6" class="node"><title>p4</title>
<ellipse fill="none" stroke="black" cx="290" cy="-1622" rx="264.29" ry="18"/>
<text text-anchor="middle" x="290" y="-1618.3" font-family="Times,serif" font-size="14.00">IGVREPORTS:SAMTOOLS_SAMPLES_01:SQRT_FILE</text>
</g>
<!-- p2&#45;&gt;p4 -->
<g id="edge3" class="edge"><title>p2&#45;&gt;p4</title>
<path fill="none" stroke="black" d="M259.474,-1692.19C258.412,-1685.85 256.479,-1670.03 261,-1658 262.26,-1654.65 263.984,-1651.39 265.968,-1648.28"/>
<polygon fill="black" stroke="black" points="268.938,-1650.16 272.081,-1640.04 263.314,-1645.99 268.938,-1650.16"/>
<text text-anchor="middle" x="279.5" y="-1662.3" font-family="Times,serif" font-size="14.00">meta</text>
</g>
<!-- p6 -->
<g id="node8" class="node"><title>p6</title>
<ellipse fill="none" stroke="black" cx="288" cy="-1548" rx="3.25" ry="3.5"/>
<text text-anchor="middle" x="252.5" y="-1555.3" font-family="Times,serif" font-size="14.00">splitText</text>
</g>
<!-- p4&#45;&gt;p6 -->
<g id="edge5" class="edge"><title>p4&#45;&gt;p6</title>
<path fill="none" stroke="black" d="M289.526,-1603.94C289.17,-1591.13 288.69,-1573.84 288.364,-1562.11"/>
<polygon fill="black" stroke="black" points="291.853,-1561.65 288.076,-1551.75 284.855,-1561.84 291.853,-1561.65"/>
</g>
<!-- p4&#45;&gt;p5 -->
<g id="edge6" class="edge"><title>p4&#45;&gt;p5</title>
<path fill="none" stroke="black" d="M355.614,-1604.48C424.353,-1587.18 527.231,-1561.28 563.108,-1552.25"/>
<polygon fill="black" stroke="black" points="564.264,-1555.56 573.107,-1549.73 562.555,-1548.78 564.264,-1555.56"/>
</g>
<!-- p3 -->
<g id="node7" class="node"><title>p3</title>
<ellipse fill="black" stroke="black" cx="320" cy="-1696" rx="3.6" ry="3.6"/>
</g>
<!-- p3&#45;&gt;p4 -->
<g id="edge4" class="edge"><title>p3&#45;&gt;p4</title>
<path fill="none" stroke="black" d="M318.861,-1692.27C315.926,-1685.22 307.858,-1665.86 300.996,-1649.39"/>
<polygon fill="black" stroke="black" points="304.22,-1648.03 297.143,-1640.14 297.758,-1650.72 304.22,-1648.03"/>
<text text-anchor="middle" x="329.5" y="-1662.3" font-family="Times,serif" font-size="14.00">filein</text>
</g>
<!-- p7 -->
<g id="node10" class="node"><title>p7</title>
<ellipse fill="none" stroke="black" cx="283" cy="-1502" rx="3.25" ry="3.5"/>
<text text-anchor="middle" x="264" y="-1509.3" font-family="Times,serif" font-size="14.00">map</text>
</g>
<!-- p6&#45;&gt;p7 -->
<g id="edge8" class="edge"><title>p6&#45;&gt;p7</title>
<path fill="none" stroke="black" d="M287.702,-1544.38C287.075,-1538.86 285.584,-1525.74 284.448,-1515.74"/>
<polygon fill="black" stroke="black" points="287.897,-1515.09 283.29,-1505.55 280.942,-1515.88 287.897,-1515.09"/>
</g>
<!-- p16 -->
<g id="node16" class="node"><title>p16</title>
<ellipse fill="none" stroke="black" cx="561" cy="-1234" rx="3.25" ry="3.5"/>
<text text-anchor="middle" x="544" y="-1241.3" font-family="Times,serif" font-size="14.00">mix</text>
</g>
<!-- p12&#45;&gt;p16 -->
<g id="edge15" class="edge"><title>p12&#45;&gt;p16</title>
<path fill="none" stroke="black" d="M561,-1364.24C561,-1349.28 561,-1277.4 561,-1247.79"/>
<polygon fill="black" stroke="black" points="564.5,-1247.74 561,-1237.74 557.5,-1247.74 564.5,-1247.74"/>
<text text-anchor="middle" x="600" y="-1290.3" font-family="Times,serif" font-size="14.00">version_ch</text>
</g>
<!-- p11 -->
<g id="node11" class="node"><title>p11</title>
<ellipse fill="none" stroke="black" cx="282" cy="-1428" rx="268.139" ry="18"/>
<text text-anchor="middle" x="282" y="-1424.3" font-family="Times,serif" font-size="14.00">IGVREPORTS:SAMTOOLS_SAMPLES_01:ST_SAMPLE</text>
</g>
<!-- p7&#45;&gt;p11 -->
<g id="edge9" class="edge"><title>p7&#45;&gt;p11</title>
<path fill="none" stroke="black" d="M282.962,-1498.27C282.866,-1491.35 282.605,-1472.58 282.379,-1456.32"/>
<polygon fill="black" stroke="black" points="285.877,-1456.09 282.238,-1446.14 278.877,-1456.19 285.877,-1456.09"/>
<text text-anchor="middle" x="317" y="-1468.3" font-family="Times,serif" font-size="14.00">chunk_ch</text>
</g>
<!-- p13 -->
<g id="node15" class="node"><title>p13</title>
<ellipse fill="none" stroke="black" cx="282" cy="-1368" rx="3.25" ry="3.5"/>
<text text-anchor="middle" x="254" y="-1375.3" font-family="Times,serif" font-size="14.00">collect</text>
</g>
<!-- p11&#45;&gt;p13 -->
<g id="edge13" class="edge"><title>p11&#45;&gt;p13</title>
<path fill="none" stroke="black" d="M282,-1409.91C282,-1400.96 282,-1390.19 282,-1381.94"/>
<polygon fill="black" stroke="black" points="285.5,-1381.69 282,-1371.69 278.5,-1381.69 285.5,-1381.69"/>
</g>
<!-- p11&#45;&gt;p12 -->
<g id="edge14" class="edge"><title>p11&#45;&gt;p12</title>
<path fill="none" stroke="black" d="M360.088,-1410.77C426.123,-1397.04 515.095,-1378.54 548.035,-1371.7"/>
<polygon fill="black" stroke="black" points="548.928,-1375.08 558.006,-1369.62 547.503,-1368.23 548.928,-1375.08"/>
</g>
<!-- p8 -->
<g id="node12" class="node"><title>p8</title>
<ellipse fill="black" stroke="black" cx="375" cy="-1502" rx="3.6" ry="3.6"/>
</g>
<!-- p8&#45;&gt;p11 -->
<g id="edge10" class="edge"><title>p8&#45;&gt;p11</title>
<path fill="none" stroke="black" d="M374.031,-1498.32C371.518,-1491.7 364.195,-1474.35 353,-1464 347.658,-1459.06 341.489,-1454.67 335.064,-1450.81"/>
<polygon fill="black" stroke="black" points="336.637,-1447.68 326.197,-1445.87 333.231,-1453.79 336.637,-1447.68"/>
<text text-anchor="middle" x="383.5" y="-1468.3" font-family="Times,serif" font-size="14.00">meta</text>
</g>
<!-- p9 -->
<g id="node13" class="node"><title>p9</title>
<ellipse fill="black" stroke="black" cx="435" cy="-1502" rx="3.6" ry="3.6"/>
</g>
<!-- p9&#45;&gt;p11 -->
<g id="edge11" class="edge"><title>p9&#45;&gt;p11</title>
<path fill="none" stroke="black" d="M433.811,-1498.58C430.432,-1491.97 420.101,-1473.45 406,-1464 396.967,-1457.94 386.892,-1452.93 376.498,-1448.77"/>
<polygon fill="black" stroke="black" points="377.476,-1445.4 366.883,-1445.19 375.034,-1451.96 377.476,-1445.4"/>
<text text-anchor="middle" x="456" y="-1468.3" font-family="Times,serif" font-size="14.00">reference</text>
</g>
<!-- p10 -->
<g id="node14" class="node"><title>p10</title>
<ellipse fill="black" stroke="black" cx="182" cy="-1502" rx="3.6" ry="3.6"/>
</g>
<!-- p10&#45;&gt;p11 -->
<g id="edge12" class="edge"><title>p10&#45;&gt;p11</title>
<path fill="none" stroke="black" d="M182.702,-1498.29C184.565,-1491.58 190.243,-1474.06 201,-1464 206.46,-1458.89 212.783,-1454.46 219.442,-1450.63"/>
<polygon fill="black" stroke="black" points="221.455,-1453.52 228.679,-1445.77 218.199,-1447.33 221.455,-1453.52"/>
<text text-anchor="middle" x="239.5" y="-1468.3" font-family="Times,serif" font-size="14.00">references</text>
</g>
<!-- p15 -->
<g id="node17" class="node"><title>p15</title>
<ellipse fill="none" stroke="black" cx="246" cy="-1294" rx="246.467" ry="18"/>
<text text-anchor="middle" x="246" y="-1290.3" font-family="Times,serif" font-size="14.00">IGVREPORTS:SAMTOOLS_SAMPLES_01:DIGEST</text>
</g>
<!-- p13&#45;&gt;p15 -->
<g id="edge16" class="edge"><title>p13&#45;&gt;p15</title>
<path fill="none" stroke="black" d="M281.161,-1364.23C279.221,-1357.96 274.116,-1342.3 268,-1330 266.498,-1326.98 264.806,-1323.89 263.044,-1320.85"/>
<polygon fill="black" stroke="black" points="265.869,-1318.76 257.671,-1312.05 259.894,-1322.41 265.869,-1318.76"/>
</g>
<!-- p17 -->
<g id="node20" class="node"><title>p17</title>
<ellipse fill="none" stroke="black" cx="756" cy="-1174" rx="3.25" ry="3.5"/>
<text text-anchor="middle" x="728" y="-1181.3" font-family="Times,serif" font-size="14.00">collect</text>
</g>
<!-- p16&#45;&gt;p17 -->
<g id="edge20" class="edge"><title>p16&#45;&gt;p17</title>
<path fill="none" stroke="black" d="M564.063,-1232.09C584.7,-1225.95 703.818,-1190.52 743.295,-1178.78"/>
<polygon fill="black" stroke="black" points="744.5,-1182.07 753.087,-1175.87 742.504,-1175.36 744.5,-1182.07"/>
<text text-anchor="middle" x="720" y="-1200.3" font-family="Times,serif" font-size="14.00">version_ch</text>
</g>
<!-- p37 -->
<g id="node19" class="node"><title>p37</title>
<ellipse fill="none" stroke="black" cx="265" cy="-924" rx="194.474" ry="18"/>
<text text-anchor="middle" x="265" y="-920.3" font-family="Times,serif" font-size="14.00">IGVREPORTS:PREPARE_IGVREPORTS</text>
</g>
<!-- p15&#45;&gt;p37 -->
<g id="edge18" class="edge"><title>p15&#45;&gt;p37</title>
<path fill="none" stroke="black" d="M202.526,-1276.19C186.418,-1266.91 172,-1253.45 172,-1235 172,-1235 172,-1235 172,-1011 172,-982.92 195.137,-961.456 218.33,-946.995"/>
<polygon fill="black" stroke="black" points="220.326,-949.881 227.173,-941.796 216.779,-943.846 220.326,-949.881"/>
<text text-anchor="middle" x="196" y="-1140.3" font-family="Times,serif" font-size="14.00">output</text>
</g>
<!-- p15&#45;&gt;p16 -->
<g id="edge19" class="edge"><title>p15&#45;&gt;p16</title>
<path fill="none" stroke="black" d="M332.492,-1277.07C408.089,-1263.16 511.289,-1244.15 547.658,-1237.46"/>
<polygon fill="black" stroke="black" points="548.379,-1240.88 557.58,-1235.63 547.111,-1234 548.379,-1240.88"/>
</g>
<!-- p14 -->
<g id="node18" class="node"><title>p14</title>
<ellipse fill="black" stroke="black" cx="230" cy="-1368" rx="3.6" ry="3.6"/>
</g>
<!-- p14&#45;&gt;p15 -->
<g id="edge17" class="edge"><title>p14&#45;&gt;p15</title>
<path fill="none" stroke="black" d="M229.727,-1364.27C229.185,-1358.08 228.246,-1342.55 231,-1330 231.624,-1327.15 232.478,-1324.25 233.464,-1321.4"/>
<polygon fill="black" stroke="black" points="236.75,-1322.6 237.182,-1312.02 230.243,-1320.02 236.75,-1322.6"/>
<text text-anchor="middle" x="249.5" y="-1334.3" font-family="Times,serif" font-size="14.00">meta</text>
</g>
<!-- p39 -->
<g id="node41" class="node"><title>p39</title>
<ellipse fill="none" stroke="black" cx="358" cy="-836" rx="3.25" ry="3.5"/>
<text text-anchor="middle" x="325" y="-843.3" font-family="Times,serif" font-size="14.00">splitCsv</text>
</g>
<!-- p37&#45;&gt;p39 -->
<g id="edge44" class="edge"><title>p37&#45;&gt;p39</title>
<path fill="none" stroke="black" d="M287.135,-905.97C303.834,-892.647 326.882,-873.217 345,-854 346.822,-852.067 348.641,-849.888 350.315,-847.75"/>
<polygon fill="black" stroke="black" points="353.233,-849.69 356.299,-839.549 347.578,-845.565 353.233,-849.69"/>
</g>
<!-- p38 -->
<g id="node37" class="node"><title>p38</title>
<ellipse fill="none" stroke="black" cx="390" cy="-674" rx="3.25" ry="3.5"/>
<text text-anchor="middle" x="373" y="-681.3" font-family="Times,serif" font-size="14.00">mix</text>
</g>
<!-- p37&#45;&gt;p38 -->
<g id="edge45" class="edge"><title>p37&#45;&gt;p38</title>
<path fill="none" stroke="black" d="M252.36,-905.887C243.315,-892.52 231.905,-873.072 227,-854 218.337,-820.313 240.739,-730.318 241,-730 275.753,-687.675 346.264,-677.919 376.132,-675.672"/>
<polygon fill="black" stroke="black" points="376.688,-679.146 386.474,-675.086 376.292,-672.157 376.688,-679.146"/>
</g>
<!-- p21 -->
<g id="node21" class="node"><title>p21</title>
<ellipse fill="none" stroke="black" cx="792" cy="-1100" rx="297.51" ry="18"/>
<text text-anchor="middle" x="792" y="-1096.3" font-family="Times,serif" font-size="14.00">IGVREPORTS:SAMTOOLS_SAMPLES_01:MERGE_VERSION</text>
</g>
<!-- p17&#45;&gt;p21 -->
<g id="edge21" class="edge"><title>p17&#45;&gt;p21</title>
<path fill="none" stroke="black" d="M758.463,-1171.35C763.026,-1168.16 772.803,-1160.7 778,-1152 782.255,-1144.87 785.25,-1136.42 787.345,-1128.47"/>
<polygon fill="black" stroke="black" points="790.818,-1128.98 789.611,-1118.45 783.991,-1127.44 790.818,-1128.98"/>
</g>
<!-- p21&#45;&gt;p22 -->
<g id="edge25" class="edge"><title>p21&#45;&gt;p22</title>
<path fill="none" stroke="black" d="M763.353,-1082.01C731.157,-1062.91 680.479,-1032.86 658.172,-1019.63"/>
<polygon fill="black" stroke="black" points="659.907,-1016.59 649.521,-1014.49 656.336,-1022.61 659.907,-1016.59"/>
</g>
<!-- p18 -->
<g id="node22" class="node"><title>p18</title>
<ellipse fill="black" stroke="black" cx="825" cy="-1174" rx="3.6" ry="3.6"/>
</g>
<!-- p18&#45;&gt;p21 -->
<g id="edge22" class="edge"><title>p18&#45;&gt;p21</title>
<path fill="none" stroke="black" d="M823.747,-1170.27C820.519,-1163.22 811.644,-1143.86 804.095,-1127.39"/>
<polygon fill="black" stroke="black" points="807.205,-1125.78 799.857,-1118.14 800.842,-1128.69 807.205,-1125.78"/>
<text text-anchor="middle" x="833.5" y="-1140.3" font-family="Times,serif" font-size="14.00">meta</text>
</g>
<!-- p19 -->
<g id="node23" class="node"><title>p19</title>
<ellipse fill="black" stroke="black" cx="632" cy="-1174" rx="3.6" ry="3.6"/>
</g>
<!-- p19&#45;&gt;p21 -->
<g id="edge23" class="edge"><title>p19&#45;&gt;p21</title>
<path fill="none" stroke="black" d="M632.03,-1170.2C632.265,-1163.29 633.871,-1145.34 644,-1136 650.88,-1129.66 665.294,-1124.15 682.544,-1119.49"/>
<polygon fill="black" stroke="black" points="683.558,-1122.84 692.389,-1116.99 681.835,-1116.06 683.558,-1122.84"/>
<text text-anchor="middle" x="664" y="-1140.3" font-family="Times,serif" font-size="14.00">name</text>
</g>
<!-- p20 -->
<g id="node24" class="node"><title>p20</title>
<ellipse fill="black" stroke="black" cx="695" cy="-1174" rx="3.6" ry="3.6"/>
</g>
<!-- p20&#45;&gt;p21 -->
<g id="edge24" class="edge"><title>p20&#45;&gt;p21</title>
<path fill="none" stroke="black" d="M693.737,-1170.37C690.814,-1163.85 684.393,-1146.72 692,-1136 695.546,-1131 699.862,-1126.71 704.688,-1123.03"/>
<polygon fill="black" stroke="black" points="706.821,-1125.82 713.245,-1117.39 702.969,-1119.97 706.821,-1125.82"/>
<text text-anchor="middle" x="733" y="-1140.3" font-family="Times,serif" font-size="14.00">description</text>
</g>
<!-- p29 -->
<g id="node28" class="node"><title>p29</title>
<ellipse fill="none" stroke="black" cx="853" cy="-836" rx="3.25" ry="3.5"/>
<text text-anchor="middle" x="836" y="-843.3" font-family="Times,serif" font-size="14.00">mix</text>
</g>
<!-- p25&#45;&gt;p29 -->
<g id="edge30" class="edge"><title>p25&#45;&gt;p29</title>
<path fill="none" stroke="black" d="M630.182,-920.66C632.146,-917.004 636.421,-909.95 642,-906 703.025,-862.793 730.976,-877.378 802,-854 815.253,-849.637 830.42,-844.573 840.746,-841.113"/>
<polygon fill="black" stroke="black" points="841.871,-844.428 850.238,-837.929 839.644,-837.791 841.871,-844.428"/>
<text text-anchor="middle" x="760" y="-876.3" font-family="Times,serif" font-size="14.00">version_ch</text>
</g>
<!-- p23 -->
<g id="node26" class="node"><title>p23</title>
<ellipse fill="black" stroke="black" cx="431" cy="-1100" rx="3.6" ry="3.6"/>
</g>
<!-- p24 -->
<g id="node27" class="node"><title>p24</title>
<ellipse fill="none" stroke="black" cx="499" cy="-1012" rx="126.608" ry="18"/>
<text text-anchor="middle" x="499" y="-1008.3" font-family="Times,serif" font-size="14.00">IGVREPORTS:COMPILE</text>
</g>
<!-- p23&#45;&gt;p24 -->
<g id="edge27" class="edge"><title>p23&#45;&gt;p24</title>
<path fill="none" stroke="black" d="M430.202,-1096.41C427.916,-1088.46 422.115,-1063.96 432,-1048 435.187,-1042.85 439.401,-1038.43 444.168,-1034.62"/>
<polygon fill="black" stroke="black" points="446.375,-1037.35 452.629,-1028.8 442.407,-1031.59 446.375,-1037.35"/>
<text text-anchor="middle" x="450.5" y="-1052.3" font-family="Times,serif" font-size="14.00">meta</text>
</g>
<!-- p24&#45;&gt;p37 -->
<g id="edge28" class="edge"><title>p24&#45;&gt;p37</title>
<path fill="none" stroke="black" d="M459.693,-994.813C434.247,-984.495 400.324,-971.039 370,-960 355.843,-954.846 340.508,-949.566 326.045,-944.721"/>
<polygon fill="black" stroke="black" points="326.791,-941.28 316.197,-941.443 324.58,-947.922 326.791,-941.28"/>
</g>
<!-- p24&#45;&gt;p25 -->
<g id="edge29" class="edge"><title>p24&#45;&gt;p25</title>
<path fill="none" stroke="black" d="M532.24,-994.586C556.214,-981.933 588.677,-963.076 614,-942 616.435,-939.973 618.822,-937.54 620.951,-935.156"/>
<polygon fill="black" stroke="black" points="623.842,-937.148 627.429,-927.178 618.408,-932.735 623.842,-937.148"/>
</g>
<!-- p33 -->
<g id="node33" class="node"><title>p33</title>
<ellipse fill="none" stroke="black" cx="599" cy="-748" rx="3.25" ry="3.5"/>
<text text-anchor="middle" x="582" y="-755.3" font-family="Times,serif" font-size="14.00">mix</text>
</g>
<!-- p29&#45;&gt;p33 -->
<g id="edge35" class="edge"><title>p29&#45;&gt;p33</title>
<path fill="none" stroke="black" d="M852.768,-832.108C851.894,-823.279 847.979,-796.521 832,-784 797.42,-756.904 656.835,-750.638 612.477,-749.322"/>
<polygon fill="black" stroke="black" points="612.435,-745.82 602.348,-749.062 612.255,-752.818 612.435,-745.82"/>
<text text-anchor="middle" x="882" y="-788.3" font-family="Times,serif" font-size="14.00">version_ch</text>
</g>
<!-- p26 -->
<g id="node29" class="node"><title>p26</title>
<ellipse fill="black" stroke="black" cx="823" cy="-1012" rx="3.6" ry="3.6"/>
</g>
<!-- p28 -->
<g id="node30" class="node"><title>p28</title>
<ellipse fill="none" stroke="black" cx="853" cy="-924" rx="202.198" ry="18"/>
<text text-anchor="middle" x="853" y="-920.3" font-family="Times,serif" font-size="14.00">IGVREPORTS:DOWNLOAD_CYTOBAND</text>
</g>
<!-- p26&#45;&gt;p28 -->
<g id="edge31" class="edge"><title>p26&#45;&gt;p28</title>
<path fill="none" stroke="black" d="M822.416,-1008.11C820.934,-1000.14 817.584,-977.267 824,-960 825.247,-956.644 826.963,-953.377 828.943,-950.275"/>
<polygon fill="black" stroke="black" points="831.913,-952.146 835.049,-942.026 826.286,-947.981 831.913,-952.146"/>
<text text-anchor="middle" x="842.5" y="-964.3" font-family="Times,serif" font-size="14.00">meta</text>
</g>
<!-- p43 -->
<g id="node32" class="node"><title>p43</title>
<ellipse fill="none" stroke="black" cx="388" cy="-748" rx="137.183" ry="18"/>
<text text-anchor="middle" x="388" y="-744.3" font-family="Times,serif" font-size="14.00">IGVREPORTS:IGVREPORT</text>
</g>
<!-- p28&#45;&gt;p43 -->
<g id="edge33" class="edge"><title>p28&#45;&gt;p43</title>
<path fill="none" stroke="black" d="M849.728,-905.712C844.263,-881.924 830.893,-839.597 802,-818 777.781,-799.896 610.914,-776.26 496.568,-761.878"/>
<polygon fill="black" stroke="black" points="496.721,-758.369 486.363,-760.601 495.852,-765.315 496.721,-758.369"/>
</g>
<!-- p28&#45;&gt;p29 -->
<g id="edge34" class="edge"><title>p28&#45;&gt;p29</title>
<path fill="none" stroke="black" d="M853,-905.597C853,-889.046 853,-864.54 853,-849.737"/>
<polygon fill="black" stroke="black" points="856.5,-849.671 853,-839.671 849.5,-849.671 856.5,-849.671"/>
</g>
<!-- p27 -->
<g id="node31" class="node"><title>p27</title>
<ellipse fill="black" stroke="black" cx="883" cy="-1012" rx="3.6" ry="3.6"/>
</g>
<!-- p27&#45;&gt;p28 -->
<g id="edge32" class="edge"><title>p27&#45;&gt;p28</title>
<path fill="none" stroke="black" d="M882.002,-1008.14C878.961,-999.422 869.578,-972.523 862.299,-951.657"/>
<polygon fill="black" stroke="black" points="865.53,-950.293 858.932,-942.004 858.921,-952.599 865.53,-950.293"/>
<text text-anchor="middle" x="905" y="-964.3" font-family="Times,serif" font-size="14.00">reference</text>
</g>
<!-- p50 -->
<g id="node46" class="node"><title>p50</title>
<ellipse fill="none" stroke="black" cx="453" cy="-674" rx="3.25" ry="3.5"/>
<text text-anchor="middle" x="425" y="-681.3" font-family="Times,serif" font-size="14.00">collect</text>
</g>
<!-- p43&#45;&gt;p50 -->
<g id="edge51" class="edge"><title>p43&#45;&gt;p50</title>
<path fill="none" stroke="black" d="M403.404,-729.937C416.074,-715.902 433.591,-696.499 444.059,-684.904"/>
<polygon fill="black" stroke="black" points="446.831,-687.057 450.934,-677.289 441.635,-682.366 446.831,-687.057"/>
</g>
<!-- p44 -->
<g id="node42" class="node"><title>p44</title>
<ellipse fill="none" stroke="black" cx="357" cy="-614" rx="3.25" ry="3.5"/>
<text text-anchor="middle" x="340" y="-621.3" font-family="Times,serif" font-size="14.00">mix</text>
</g>
<!-- p43&#45;&gt;p44 -->
<g id="edge52" class="edge"><title>p43&#45;&gt;p44</title>
<path fill="none" stroke="black" d="M383.947,-729.743C377.604,-702.731 365.48,-651.108 359.919,-627.428"/>
<polygon fill="black" stroke="black" points="363.322,-626.609 357.628,-617.674 356.507,-628.209 363.322,-626.609"/>
</g>
<!-- p33&#45;&gt;p38 -->
<g id="edge40" class="edge"><title>p33&#45;&gt;p38</title>
<path fill="none" stroke="black" d="M596.046,-745.982C574.687,-738.624 443.583,-693.459 402.38,-679.265"/>
<polygon fill="black" stroke="black" points="403.443,-675.929 392.848,-675.981 401.163,-682.547 403.443,-675.929"/>
<text text-anchor="middle" x="533" y="-700.3" font-family="Times,serif" font-size="14.00">version_ch</text>
</g>
<!-- p30 -->
<g id="node34" class="node"><title>p30</title>
<ellipse fill="black" stroke="black" cx="602" cy="-924" rx="3.6" ry="3.6"/>
</g>
<!-- p32 -->
<g id="node35" class="node"><title>p32</title>
<ellipse fill="none" stroke="black" cx="599" cy="-836" rx="193.999" ry="18"/>
<text text-anchor="middle" x="599" y="-832.3" font-family="Times,serif" font-size="14.00">IGVREPORTS:DOWNLOAD_REFGENE</text>
</g>
<!-- p30&#45;&gt;p32 -->
<g id="edge36" class="edge"><title>p30&#45;&gt;p32</title>
<path fill="none" stroke="black" d="M601.9,-920.139C601.599,-911.502 600.675,-885.011 599.95,-864.227"/>
<polygon fill="black" stroke="black" points="603.44,-863.876 599.593,-854.004 596.444,-864.12 603.44,-863.876"/>
<text text-anchor="middle" x="618.5" y="-876.3" font-family="Times,serif" font-size="14.00">meta</text>
</g>
<!-- p32&#45;&gt;p43 -->
<g id="edge38" class="edge"><title>p32&#45;&gt;p43</title>
<path fill="none" stroke="black" d="M558.067,-818.316C523.633,-804.282 474.288,-784.17 437.612,-769.221"/>
<polygon fill="black" stroke="black" points="438.684,-765.879 428.103,-765.345 436.042,-772.361 438.684,-765.879"/>
</g>
<!-- p32&#45;&gt;p33 -->
<g id="edge39" class="edge"><title>p32&#45;&gt;p33</title>
<path fill="none" stroke="black" d="M599,-817.597C599,-801.046 599,-776.54 599,-761.737"/>
<polygon fill="black" stroke="black" points="602.5,-761.671 599,-751.671 595.5,-761.671 602.5,-761.671"/>
</g>
<!-- p31 -->
<g id="node36" class="node"><title>p31</title>
<ellipse fill="black" stroke="black" cx="509" cy="-924" rx="3.6" ry="3.6"/>
</g>
<!-- p31&#45;&gt;p32 -->
<g id="edge37" class="edge"><title>p31&#45;&gt;p32</title>
<path fill="none" stroke="black" d="M509.174,-920.313C509.843,-912.076 512.913,-886.84 526,-872 530.497,-866.901 535.901,-862.479 541.709,-858.66"/>
<polygon fill="black" stroke="black" points="543.625,-861.594 550.449,-853.489 540.06,-855.569 543.625,-861.594"/>
<text text-anchor="middle" x="561" y="-876.3" font-family="Times,serif" font-size="14.00">reference</text>
</g>
<!-- p38&#45;&gt;p44 -->
<g id="edge46" class="edge"><title>p38&#45;&gt;p44</title>
<path fill="none" stroke="black" d="M388.582,-670.508C384.299,-662.98 371.302,-640.138 363.379,-626.212"/>
<polygon fill="black" stroke="black" points="366.363,-624.379 358.376,-617.418 360.279,-627.841 366.363,-624.379"/>
<text text-anchor="middle" x="416" y="-640.3" font-family="Times,serif" font-size="14.00">version_ch</text>
</g>
<!-- p34 -->
<g id="node38" class="node"><title>p34</title>
<ellipse fill="black" stroke="black" cx="205" cy="-1012" rx="3.6" ry="3.6"/>
</g>
<!-- p34&#45;&gt;p37 -->
<g id="edge41" class="edge"><title>p34&#45;&gt;p37</title>
<path fill="none" stroke="black" d="M205.565,-1007.99C207.233,-999.707 212.735,-976.104 224,-960 226.739,-956.084 230.017,-952.338 233.509,-948.849"/>
<polygon fill="black" stroke="black" points="235.881,-951.423 240.876,-942.079 231.144,-946.269 235.881,-951.423"/>
<text text-anchor="middle" x="242.5" y="-964.3" font-family="Times,serif" font-size="14.00">meta</text>
</g>
<!-- p35 -->
<g id="node39" class="node"><title>p35</title>
<ellipse fill="black" stroke="black" cx="265" cy="-1012" rx="3.6" ry="3.6"/>
</g>
<!-- p35&#45;&gt;p37 -->
<g id="edge42" class="edge"><title>p35&#45;&gt;p37</title>
<path fill="none" stroke="black" d="M265,-1008.14C265,-999.502 265,-973.011 265,-952.227"/>
<polygon fill="black" stroke="black" points="268.5,-952.004 265,-942.004 261.5,-952.004 268.5,-952.004"/>
<text text-anchor="middle" x="300" y="-964.3" font-family="Times,serif" font-size="14.00">reference</text>
</g>
<!-- p36 -->
<g id="node40" class="node"><title>p36</title>
<ellipse fill="black" stroke="black" cx="351" cy="-1012" rx="3.6" ry="3.6"/>
</g>
<!-- p36&#45;&gt;p37 -->
<g id="edge43" class="edge"><title>p36&#45;&gt;p37</title>
<path fill="none" stroke="black" d="M350.939,-1008.32C350.617,-1000.12 348.596,-974.972 336,-960 331.82,-955.031 326.764,-950.704 321.298,-946.951"/>
<polygon fill="black" stroke="black" points="322.792,-943.762 312.438,-941.517 319.132,-949.729 322.792,-943.762"/>
<text text-anchor="middle" x="355" y="-964.3" font-family="Times,serif" font-size="14.00">vcf</text>
</g>
<!-- p39&#45;&gt;p43 -->
<g id="edge47" class="edge"><title>p39&#45;&gt;p43</title>
<path fill="none" stroke="black" d="M358.865,-832.519C361.752,-824.245 371.282,-796.926 378.665,-775.761"/>
<polygon fill="black" stroke="black" points="381.987,-776.862 381.976,-766.268 375.378,-774.557 381.987,-776.862"/>
</g>
<!-- p45 -->
<g id="node47" class="node"><title>p45</title>
<ellipse fill="none" stroke="black" cx="353" cy="-554" rx="3.25" ry="3.5"/>
<text text-anchor="middle" x="325" y="-561.3" font-family="Times,serif" font-size="14.00">collect</text>
</g>
<!-- p44&#45;&gt;p45 -->
<g id="edge53" class="edge"><title>p44&#45;&gt;p45</title>
<path fill="none" stroke="black" d="M356.807,-610.203C356.286,-602.649 354.826,-581.48 353.873,-567.66"/>
<polygon fill="black" stroke="black" points="357.362,-567.371 353.182,-557.636 350.378,-567.853 357.362,-567.371"/>
<text text-anchor="middle" x="394" y="-580.3" font-family="Times,serif" font-size="14.00">version_ch</text>
</g>
<!-- p40 -->
<g id="node43" class="node"><title>p40</title>
<ellipse fill="black" stroke="black" cx="383" cy="-836" rx="3.6" ry="3.6"/>
</g>
<!-- p40&#45;&gt;p43 -->
<g id="edge48" class="edge"><title>p40&#45;&gt;p43</title>
<path fill="none" stroke="black" d="M383.166,-832.139C383.669,-823.502 385.209,-797.011 386.417,-776.227"/>
<polygon fill="black" stroke="black" points="389.925,-776.19 387.011,-766.004 382.937,-775.784 389.925,-776.19"/>
<text text-anchor="middle" x="403.5" y="-788.3" font-family="Times,serif" font-size="14.00">meta</text>
</g>
<!-- p41 -->
<g id="node44" class="node"><title>p41</title>
<ellipse fill="black" stroke="black" cx="240" cy="-836" rx="3.6" ry="3.6"/>
</g>
<!-- p41&#45;&gt;p43 -->
<g id="edge49" class="edge"><title>p41&#45;&gt;p43</title>
<path fill="none" stroke="black" d="M240.421,-832.188C241.859,-823.59 247.385,-797.423 263,-784 271.724,-776.501 281.938,-770.601 292.703,-765.96"/>
<polygon fill="black" stroke="black" points="294.252,-769.112 302.28,-762.198 291.693,-762.596 294.252,-769.112"/>
<text text-anchor="middle" x="298" y="-788.3" font-family="Times,serif" font-size="14.00">reference</text>
</g>
<!-- p42 -->
<g id="node45" class="node"><title>p42</title>
<ellipse fill="black" stroke="black" cx="333" cy="-836" rx="3.6" ry="3.6"/>
</g>
<!-- p42&#45;&gt;p43 -->
<g id="edge50" class="edge"><title>p42&#45;&gt;p43</title>
<path fill="none" stroke="black" d="M332.967,-831.982C333.012,-823.67 334.062,-800.006 344,-784 346.568,-779.864 349.805,-776.011 353.354,-772.488"/>
<polygon fill="black" stroke="black" points="355.806,-774.991 360.96,-765.735 351.158,-769.757 355.806,-774.991"/>
<text text-anchor="middle" x="355" y="-788.3" font-family="Times,serif" font-size="14.00">vcf</text>
</g>
<!-- p54 -->
<g id="node53" class="node"><title>p54</title>
<ellipse fill="none" stroke="black" cx="547" cy="-614" rx="3.25" ry="3.5"/>
<text text-anchor="middle" x="530" y="-621.3" font-family="Times,serif" font-size="14.00">mix</text>
</g>
<!-- p50&#45;&gt;p54 -->
<g id="edge59" class="edge"><title>p50&#45;&gt;p54</title>
<path fill="none" stroke="black" d="M455.129,-671.129C461.74,-665.38 482.637,-647.652 502,-636 512.596,-629.624 525.445,-623.8 534.696,-619.912"/>
<polygon fill="black" stroke="black" points="536.094,-623.122 544.05,-616.125 533.467,-616.633 536.094,-623.122"/>
<text text-anchor="middle" x="522.5" y="-640.3" font-family="Times,serif" font-size="14.00">htmls</text>
</g>
<!-- p49 -->
<g id="node48" class="node"><title>p49</title>
<ellipse fill="none" stroke="black" cx="352" cy="-480" rx="167.528" ry="18"/>
<text text-anchor="middle" x="352" y="-476.3" font-family="Times,serif" font-size="14.00">IGVREPORTS:MERGE_VERSION</text>
</g>
<!-- p45&#45;&gt;p49 -->
<g id="edge54" class="edge"><title>p45&#45;&gt;p49</title>
<path fill="none" stroke="black" d="M352.962,-550.265C352.866,-543.354 352.605,-524.578 352.379,-508.316"/>
<polygon fill="black" stroke="black" points="355.877,-508.093 352.238,-498.143 348.877,-508.191 355.877,-508.093"/>
</g>
<!-- p52 -->
<g id="node52" class="node"><title>p52</title>
<ellipse fill="none" stroke="black" cx="285" cy="-392" rx="111.186" ry="18"/>
<text text-anchor="middle" x="285" y="-388.3" font-family="Times,serif" font-size="14.00">VERSION_TO_HTML</text>
</g>
<!-- p49&#45;&gt;p52 -->
<g id="edge58" class="edge"><title>p49&#45;&gt;p52</title>
<path fill="none" stroke="black" d="M338.763,-462.009C328.944,-449.406 315.405,-432.027 304.37,-417.863"/>
<polygon fill="black" stroke="black" points="307.116,-415.693 298.21,-409.956 301.594,-419.995 307.116,-415.693"/>
</g>
<!-- p55 -->
<g id="node57" class="node"><title>p55</title>
<ellipse fill="none" stroke="black" cx="418" cy="-392" rx="3.25" ry="3.5"/>
<text text-anchor="middle" x="428" y="-399.3" font-family="Times,serif" font-size="14.00">mix</text>
</g>
<!-- p49&#45;&gt;p55 -->
<g id="edge64" class="edge"><title>p49&#45;&gt;p55</title>
<path fill="none" stroke="black" d="M365.079,-461.994C375.812,-448.033 391.401,-427.744 405,-410 406.616,-407.891 408.343,-405.635 409.994,-403.477"/>
<polygon fill="black" stroke="black" points="412.858,-405.493 416.15,-395.422 407.297,-401.242 412.858,-405.493"/>
</g>
<!-- p46 -->
<g id="node49" class="node"><title>p46</title>
<ellipse fill="black" stroke="black" cx="385" cy="-554" rx="3.6" ry="3.6"/>
</g>
<!-- p46&#45;&gt;p49 -->
<g id="edge55" class="edge"><title>p46&#45;&gt;p49</title>
<path fill="none" stroke="black" d="M383.747,-550.265C380.519,-543.222 371.644,-523.859 364.095,-507.39"/>
<polygon fill="black" stroke="black" points="367.205,-505.775 359.857,-498.143 360.842,-508.692 367.205,-505.775"/>
<text text-anchor="middle" x="393.5" y="-520.3" font-family="Times,serif" font-size="14.00">meta</text>
</g>
<!-- p47 -->
<g id="node50" class="node"><title>p47</title>
<ellipse fill="black" stroke="black" cx="445" cy="-554" rx="3.6" ry="3.6"/>
</g>
<!-- p47&#45;&gt;p49 -->
<g id="edge56" class="edge"><title>p47&#45;&gt;p49</title>
<path fill="none" stroke="black" d="M443.468,-550.373C439.574,-543.869 428.7,-526.767 416,-516 410.355,-511.214 403.953,-506.789 397.432,-502.81"/>
<polygon fill="black" stroke="black" points="398.938,-499.638 388.528,-497.669 395.438,-505.7 398.938,-499.638"/>
<text text-anchor="middle" x="450" y="-520.3" font-family="Times,serif" font-size="14.00">name</text>
</g>
<!-- p48 -->
<g id="node51" class="node"><title>p48</title>
<ellipse fill="black" stroke="black" cx="255" cy="-554" rx="3.6" ry="3.6"/>
</g>
<!-- p48&#45;&gt;p49 -->
<g id="edge57" class="edge"><title>p48&#45;&gt;p49</title>
<path fill="none" stroke="black" d="M255.04,-550.294C255.284,-543.609 256.816,-526.127 266,-516 270.988,-510.5 276.966,-505.846 283.415,-501.912"/>
<polygon fill="black" stroke="black" points="285.35,-504.843 292.453,-496.981 281.998,-498.698 285.35,-504.843"/>
<text text-anchor="middle" x="307" y="-520.3" font-family="Times,serif" font-size="14.00">description</text>
</g>
<!-- p56 -->
<g id="node55" class="node"><title>p56</title>
<ellipse fill="none" stroke="black" cx="365" cy="-332" rx="3.25" ry="3.5"/>
<text text-anchor="middle" x="348" y="-339.3" font-family="Times,serif" font-size="14.00">mix</text>
</g>
<!-- p52&#45;&gt;p56 -->
<g id="edge61" class="edge"><title>p52&#45;&gt;p56</title>
<path fill="none" stroke="black" d="M308.139,-374.224C323.402,-363.158 342.674,-349.186 354.406,-340.681"/>
<polygon fill="black" stroke="black" points="356.688,-343.35 362.729,-334.646 352.579,-337.682 356.688,-343.35"/>
</g>
<!-- p54&#45;&gt;p55 -->
<g id="edge63" class="edge"><title>p54&#45;&gt;p55</title>
<path fill="none" stroke="black" d="M547.463,-610.229C549.976,-594.292 560.685,-513.233 528,-462 504.666,-425.424 454.248,-404.846 430.656,-396.883"/>
<polygon fill="black" stroke="black" points="431.639,-393.523 421.049,-393.851 429.532,-400.199 431.639,-393.523"/>
</g>
<!-- p51 -->
<g id="node54" class="node"><title>p51</title>
<ellipse fill="black" stroke="black" cx="163" cy="-480" rx="3.6" ry="3.6"/>
</g>
<!-- p51&#45;&gt;p52 -->
<g id="edge60" class="edge"><title>p51&#45;&gt;p52</title>
<path fill="none" stroke="black" d="M164.431,-476.338C166.443,-472.768 170.383,-466.372 175,-462 195.051,-443.011 221.1,-426.396 242.816,-414.231"/>
<polygon fill="black" stroke="black" points="244.738,-417.169 251.827,-409.295 241.375,-411.029 244.738,-417.169"/>
<text text-anchor="middle" x="236.5" y="-432.3" font-family="Times,serif" font-size="14.00">meta</text>
</g>
<!-- p57 -->
<g id="node58" class="node"><title>p57</title>
<ellipse fill="none" stroke="black" cx="365" cy="-272" rx="3.25" ry="3.5"/>
<text text-anchor="middle" x="337" y="-279.3" font-family="Times,serif" font-size="14.00">collect</text>
</g>
<!-- p56&#45;&gt;p57 -->
<g id="edge66" class="edge"><title>p56&#45;&gt;p57</title>
<path fill="none" stroke="black" d="M365,-328.203C365,-320.649 365,-299.48 365,-285.66"/>
<polygon fill="black" stroke="black" points="368.5,-285.636 365,-275.636 361.5,-285.636 368.5,-285.636"/>
<text text-anchor="middle" x="383" y="-298.3" font-family="Times,serif" font-size="14.00">tozip</text>
</g>
<!-- p53 -->
<g id="node56" class="node"><title>p53</title>
<ellipse fill="black" stroke="black" cx="547" cy="-674" rx="3.6" ry="3.6"/>
<text text-anchor="middle" x="488.9" y="-659.2" font-family="Times,serif" font-size="14.00">Channel.empty</text>
</g>
<!-- p53&#45;&gt;p54 -->
<g id="edge62" class="edge"><title>p53&#45;&gt;p54</title>
<path fill="none" stroke="black" d="M547,-670.203C547,-662.649 547,-641.48 547,-627.66"/>
<polygon fill="black" stroke="black" points="550.5,-627.636 547,-617.636 543.5,-627.636 550.5,-627.636"/>
</g>
<!-- p55&#45;&gt;p56 -->
<g id="edge65" class="edge"><title>p55&#45;&gt;p56</title>
<path fill="none" stroke="black" d="M416.238,-388.506C413.818,-385.127 409.277,-378.946 405,-374 395.17,-362.632 383.007,-350.398 374.69,-342.281"/>
<polygon fill="black" stroke="black" points="376.896,-339.547 367.265,-335.133 372.042,-344.59 376.896,-339.547"/>
</g>
<!-- p59 -->
<g id="node59" class="node"><title>p59</title>
<ellipse fill="none" stroke="black" cx="382" cy="-198" rx="87.613" ry="18"/>
<text text-anchor="middle" x="382" y="-194.3" font-family="Times,serif" font-size="14.00">SIMPLE_ZIP_01</text>
</g>
<!-- p57&#45;&gt;p59 -->
<g id="edge67" class="edge"><title>p57&#45;&gt;p59</title>
<path fill="none" stroke="black" d="M365.646,-268.265C367.278,-261.354 371.711,-242.578 375.55,-226.316"/>
<polygon fill="black" stroke="black" points="379.061,-226.68 377.952,-216.143 372.248,-225.071 379.061,-226.68"/>
</g>
<!-- p62 -->
<g id="node61" class="node"><title>p62</title>
<ellipse fill="none" stroke="black" cx="301" cy="-138" rx="3.25" ry="3.5"/>
<text text-anchor="middle" x="284" y="-145.3" font-family="Times,serif" font-size="14.00">mix</text>
</g>
<!-- p59&#45;&gt;p62 -->
<g id="edge69" class="edge"><title>p59&#45;&gt;p62</title>
<path fill="none" stroke="black" d="M359.005,-180.535C343.378,-169.345 323.444,-155.071 311.48,-146.504"/>
<polygon fill="black" stroke="black" points="313.494,-143.642 303.326,-140.666 309.419,-149.333 313.494,-143.642"/>
</g>
<!-- p60 -->
<g id="node62" class="node"><title>p60</title>
<ellipse fill="black" stroke="black" cx="382" cy="-138" rx="1.8" ry="1.8"/>
</g>
<!-- p59&#45;&gt;p60 -->
<g id="edge70" class="edge"><title>p59&#45;&gt;p60</title>
<path fill="none" stroke="black" d="M382,-179.912C382,-170.322 382,-158.628 382,-150.202"/>
<polygon fill="black" stroke="black" points="385.5,-150.056 382,-140.056 378.5,-150.056 385.5,-150.056"/>
</g>
<!-- p58 -->
<g id="node60" class="node"><title>p58</title>
<ellipse fill="black" stroke="black" cx="398" cy="-272" rx="3.6" ry="3.6"/>
</g>
<!-- p58&#45;&gt;p59 -->
<g id="edge68" class="edge"><title>p58&#45;&gt;p59</title>
<path fill="none" stroke="black" d="M397.392,-268.265C395.856,-261.354 391.684,-242.578 388.07,-226.316"/>
<polygon fill="black" stroke="black" points="391.396,-225.145 385.81,-216.143 384.562,-226.664 391.396,-225.145"/>
<text text-anchor="middle" x="411.5" y="-238.3" font-family="Times,serif" font-size="14.00">meta</text>
</g>
<!-- p63 -->
<g id="node64" class="node"><title>p63</title>
<ellipse fill="none" stroke="black" cx="301" cy="-92" rx="3.25" ry="3.5"/>
<text text-anchor="middle" x="273" y="-99.3" font-family="Times,serif" font-size="14.00">collect</text>
</g>
<!-- p62&#45;&gt;p63 -->
<g id="edge72" class="edge"><title>p62&#45;&gt;p63</title>
<path fill="none" stroke="black" d="M301,-134.379C301,-128.864 301,-115.742 301,-105.742"/>
<polygon fill="black" stroke="black" points="304.5,-105.552 301,-95.5518 297.5,-105.552 304.5,-105.552"/>
</g>
<!-- p61 -->
<g id="node63" class="node"><title>p61</title>
<ellipse fill="black" stroke="black" cx="273" cy="-198" rx="3.6" ry="3.6"/>
<text text-anchor="middle" x="214.9" y="-205.4" font-family="Times,serif" font-size="14.00">Channel.empty</text>
</g>
<!-- p61&#45;&gt;p62 -->
<g id="edge71" class="edge"><title>p61&#45;&gt;p62</title>
<path fill="none" stroke="black" d="M274.203,-194.508C277.801,-187.054 288.647,-164.589 295.386,-150.628"/>
<polygon fill="black" stroke="black" points="298.637,-151.946 299.833,-141.418 292.333,-148.902 298.637,-151.946"/>
</g>
<!-- p65 -->
<g id="node65" class="node"><title>p65</title>
<ellipse fill="none" stroke="black" cx="317" cy="-18" rx="116.484" ry="18"/>
<text text-anchor="middle" x="317" y="-14.3" font-family="Times,serif" font-size="14.00">SIMPLE_PUBLISH_01</text>
</g>
<!-- p63&#45;&gt;p65 -->
<g id="edge73" class="edge"><title>p63&#45;&gt;p65</title>
<path fill="none" stroke="black" d="M301.608,-88.2654C303.144,-81.3541 307.316,-62.5781 310.93,-46.3163"/>
<polygon fill="black" stroke="black" points="314.438,-46.6641 313.19,-36.1429 307.604,-45.1455 314.438,-46.6641"/>
</g>
<!-- p64 -->
<g id="node66" class="node"><title>p64</title>
<ellipse fill="black" stroke="black" cx="334" cy="-92" rx="3.6" ry="3.6"/>
</g>
<!-- p64&#45;&gt;p65 -->
<g id="edge74" class="edge"><title>p64&#45;&gt;p65</title>
<path fill="none" stroke="black" d="M333.354,-88.2654C331.722,-81.3541 327.289,-62.5781 323.45,-46.3163"/>
<polygon fill="black" stroke="black" points="326.752,-45.071 321.048,-36.1429 319.939,-46.6796 326.752,-45.071"/>
<text text-anchor="middle" x="346.5" y="-58.3" font-family="Times,serif" font-size="14.00">meta</text>
</g>
</g>
</svg>
