<?xml version="1.0" encoding="UTF-8" standalone="no"?>
<!DOCTYPE svg PUBLIC "-//W3C//DTD SVG 1.1//EN"
 "http://www.w3.org/Graphics/SVG/1.1/DTD/svg11.dtd">
<!-- Generated by graphviz version 2.30.1 (20201013.1554)
 -->
<!-- Title: 20220712rotavirusremapworkflow Pages: 1 -->
<svg width="1910pt" height="2086pt"
 viewBox="0.00 0.00 1909.60 2086.00" xmlns="http://www.w3.org/2000/svg" xmlns:xlink="http://www.w3.org/1999/xlink">
<g id="graph0" class="graph" transform="scale(1 1) rotate(0) translate(4 2082)">
<title>20220712rotavirusremapworkflow</title>
<polygon fill="white" stroke="white" points="-4,5 -4,-2082 1906.6,-2082 1906.6,5 -4,5"/>
<!-- p0 -->
<g id="node1" class="node"><title>p0</title>
<ellipse fill="black" stroke="black" cx="87.6" cy="-1396" rx="3.6" ry="3.6"/>
<text text-anchor="middle" x="42" y="-1403.4" font-family="Times,serif" font-size="14.00">Channel.empty</text>
</g>
<!-- p22 -->
<g id="node2" class="node"><title>p22</title>
<ellipse fill="none" stroke="black" cx="441.6" cy="-1322" rx="3.25" ry="3.5"/>
<text text-anchor="middle" x="427.1" y="-1329.3" font-family="Times,serif" font-size="14.00">mix</text>
</g>
<!-- p0&#45;&gt;p22 -->
<g id="edge1" class="edge"><title>p0&#45;&gt;p22</title>
<path fill="none" stroke="black" d="M88.6862,-1392.3C90.3916,-1388.45 94.0829,-1381.44 99.6,-1378 156.283,-1342.64 372.197,-1327.23 428.244,-1323.77"/>
<polygon fill="black" stroke="black" points="428.7,-1327.25 438.477,-1323.17 428.288,-1320.27 428.7,-1327.25"/>
<text text-anchor="middle" x="250.1" y="-1348.3" font-family="Times,serif" font-size="14.00">version_ch</text>
</g>
<!-- p27 -->
<g id="node26" class="node"><title>p27</title>
<ellipse fill="none" stroke="black" cx="568.6" cy="-1248" rx="3.25" ry="3.5"/>
<text text-anchor="middle" x="554.1" y="-1255.3" font-family="Times,serif" font-size="14.00">mix</text>
</g>
<!-- p22&#45;&gt;p27 -->
<g id="edge26" class="edge"><title>p22&#45;&gt;p27</title>
<path fill="none" stroke="black" d="M444.253,-1319.5C458.779,-1311.26 529.054,-1271.42 557.053,-1255.55"/>
<polygon fill="black" stroke="black" points="558.989,-1258.47 565.962,-1250.5 555.537,-1252.38 558.989,-1258.47"/>
<text text-anchor="middle" x="535.1" y="-1288.3" font-family="Times,serif" font-size="14.00">version_ch</text>
</g>
<!-- p1 -->
<g id="node3" class="node"><title>p1</title>
<ellipse fill="black" stroke="black" cx="1430.6" cy="-1562" rx="3.6" ry="3.6"/>
<text text-anchor="middle" x="1377" y="-1569.4" font-family="Times,serif" font-size="14.00">Channel.fromPath</text>
</g>
<!-- p31 -->
<g id="node4" class="node"><title>p31</title>
<ellipse fill="none" stroke="black" cx="1430.6" cy="-1484" rx="3.25" ry="3.5"/>
<text text-anchor="middle" x="1404.6" y="-1491.3" font-family="Times,serif" font-size="14.00">splitCsv</text>
</g>
<!-- p1&#45;&gt;p31 -->
<g id="edge2" class="edge"><title>p1&#45;&gt;p31</title>
<path fill="none" stroke="black" d="M1430.6,-1558.11C1430.6,-1548.29 1430.6,-1515.77 1430.6,-1497.58"/>
<polygon fill="black" stroke="black" points="1434.1,-1497.57 1430.6,-1487.57 1427.1,-1497.57 1434.1,-1497.57"/>
<text text-anchor="middle" x="1444.1" y="-1524.3" font-family="Times,serif" font-size="14.00">bed3</text>
</g>
<!-- p32 -->
<g id="node36" class="node"><title>p32</title>
<ellipse fill="none" stroke="black" cx="1430.6" cy="-1396" rx="3.25" ry="3.5"/>
<text text-anchor="middle" x="1439.6" y="-1403.3" font-family="Times,serif" font-size="14.00">map</text>
</g>
<!-- p31&#45;&gt;p32 -->
<g id="edge37" class="edge"><title>p31&#45;&gt;p32</title>
<path fill="none" stroke="black" d="M1430.6,-1480.14C1430.6,-1469.28 1430.6,-1430.21 1430.6,-1409.73"/>
<polygon fill="black" stroke="black" points="1434.1,-1409.61 1430.6,-1399.61 1427.1,-1409.61 1434.1,-1409.61"/>
</g>
<!-- p2 -->
<g id="node5" class="node"><title>p2</title>
<ellipse fill="black" stroke="black" cx="356.6" cy="-2000" rx="3.6" ry="3.6"/>
<text text-anchor="middle" x="311" y="-2007.4" font-family="Times,serif" font-size="14.00">Channel.empty</text>
</g>
<!-- p6 -->
<g id="node6" class="node"><title>p6</title>
<ellipse fill="none" stroke="black" cx="423.6" cy="-1926" rx="3.25" ry="3.5"/>
<text text-anchor="middle" x="409.1" y="-1933.3" font-family="Times,serif" font-size="14.00">mix</text>
</g>
<!-- p2&#45;&gt;p6 -->
<g id="edge3" class="edge"><title>p2&#45;&gt;p6</title>
<path fill="none" stroke="black" d="M358.36,-1996.5C360.777,-1993.12 365.315,-1986.94 369.6,-1982 384.249,-1965.11 402.775,-1946.84 413.88,-1936.19"/>
<polygon fill="black" stroke="black" points="416.6,-1938.43 421.444,-1929.01 411.781,-1933.35 416.6,-1938.43"/>
<text text-anchor="middle" x="431.1" y="-1952.3" font-family="Times,serif" font-size="14.00">version_ch</text>
</g>
<!-- p11 -->
<g id="node11" class="node"><title>p11</title>
<ellipse fill="none" stroke="black" cx="423.6" cy="-1746" rx="3.25" ry="3.5"/>
<text text-anchor="middle" x="409.1" y="-1753.3" font-family="Times,serif" font-size="14.00">mix</text>
</g>
<!-- p6&#45;&gt;p11 -->
<g id="edge8" class="edge"><title>p6&#45;&gt;p11</title>
<path fill="none" stroke="black" d="M423.6,-1922.48C423.6,-1904.72 423.6,-1797.83 423.6,-1760.14"/>
<polygon fill="black" stroke="black" points="427.1,-1759.68 423.6,-1749.68 420.1,-1759.68 427.1,-1759.68"/>
<text text-anchor="middle" x="453.1" y="-1846.3" font-family="Times,serif" font-size="14.00">version_ch</text>
</g>
<!-- p3 -->
<g id="node7" class="node"><title>p3</title>
<ellipse fill="black" stroke="black" cx="711.6" cy="-2074" rx="3.6" ry="3.6"/>
</g>
<!-- p5 -->
<g id="node8" class="node"><title>p5</title>
<ellipse fill="none" stroke="black" cx="737.6" cy="-2000" rx="359.127" ry="18"/>
<text text-anchor="middle" x="737.6" y="-1996.3" font-family="Times,serif" font-size="14.00">GRAPHTYPER_GENOTYPE_BAMS_01:SAMTOOLS_DEPTH_01:SAMTOOLS_SAMPLES02</text>
</g>
<!-- p3&#45;&gt;p5 -->
<g id="edge4" class="edge"><title>p3&#45;&gt;p5</title>
<path fill="none" stroke="black" d="M711.829,-2070.23C712.408,-2063.97 714.213,-2048.32 718.6,-2036 719.634,-2033.1 720.883,-2030.15 722.242,-2027.25"/>
<polygon fill="black" stroke="black" points="725.377,-2028.81 726.826,-2018.31 719.148,-2025.61 725.377,-2028.81"/>
<text text-anchor="middle" x="732.6" y="-2040.3" font-family="Times,serif" font-size="14.00">meta</text>
</g>
<!-- p7 -->
<g id="node10" class="node"><title>p7</title>
<ellipse fill="none" stroke="black" cx="737.6" cy="-1926" rx="3.25" ry="3.5"/>
<text text-anchor="middle" x="711.6" y="-1933.3" font-family="Times,serif" font-size="14.00">splitCsv</text>
</g>
<!-- p5&#45;&gt;p7 -->
<g id="edge6" class="edge"><title>p5&#45;&gt;p7</title>
<path fill="none" stroke="black" d="M737.6,-1981.94C737.6,-1969.13 737.6,-1951.84 737.6,-1940.11"/>
<polygon fill="black" stroke="black" points="741.1,-1939.75 737.6,-1929.75 734.1,-1939.75 741.1,-1939.75"/>
</g>
<!-- p5&#45;&gt;p6 -->
<g id="edge7" class="edge"><title>p5&#45;&gt;p6</title>
<path fill="none" stroke="black" d="M664.773,-1982.3C588.604,-1964.84 474.907,-1938.76 436.674,-1930"/>
<polygon fill="black" stroke="black" points="437.013,-1926.48 426.483,-1927.66 435.448,-1933.31 437.013,-1926.48"/>
</g>
<!-- p4 -->
<g id="node9" class="node"><title>p4</title>
<ellipse fill="black" stroke="black" cx="762.6" cy="-2074" rx="3.6" ry="3.6"/>
</g>
<!-- p4&#45;&gt;p5 -->
<g id="edge5" class="edge"><title>p4&#45;&gt;p5</title>
<path fill="none" stroke="black" d="M761.65,-2070.27C759.228,-2063.29 752.607,-2044.22 746.924,-2027.85"/>
<polygon fill="black" stroke="black" points="750.139,-2026.44 743.552,-2018.14 743.526,-2028.74 750.139,-2026.44"/>
<text text-anchor="middle" x="766.1" y="-2040.3" font-family="Times,serif" font-size="14.00">row</text>
</g>
<!-- p8 -->
<g id="node12" class="node"><title>p8</title>
<ellipse fill="none" stroke="black" cx="737.6" cy="-1880" rx="3.25" ry="3.5"/>
<text text-anchor="middle" x="721.6" y="-1887.3" font-family="Times,serif" font-size="14.00">map</text>
</g>
<!-- p7&#45;&gt;p8 -->
<g id="edge9" class="edge"><title>p7&#45;&gt;p8</title>
<path fill="none" stroke="black" d="M737.6,-1922.38C737.6,-1916.86 737.6,-1903.74 737.6,-1893.74"/>
<polygon fill="black" stroke="black" points="741.1,-1893.55 737.6,-1883.55 734.1,-1893.55 741.1,-1893.55"/>
</g>
<!-- p16 -->
<g id="node16" class="node"><title>p16</title>
<ellipse fill="none" stroke="black" cx="423.6" cy="-1562" rx="3.25" ry="3.5"/>
<text text-anchor="middle" x="409.1" y="-1569.3" font-family="Times,serif" font-size="14.00">mix</text>
</g>
<!-- p11&#45;&gt;p16 -->
<g id="edge14" class="edge"><title>p11&#45;&gt;p16</title>
<path fill="none" stroke="black" d="M423.6,-1742.43C423.6,-1724.19 423.6,-1614.01 423.6,-1575.93"/>
<polygon fill="black" stroke="black" points="427.1,-1575.74 423.6,-1565.74 420.1,-1575.74 427.1,-1575.74"/>
<text text-anchor="middle" x="453.1" y="-1666.3" font-family="Times,serif" font-size="14.00">version_ch</text>
</g>
<!-- p10 -->
<g id="node13" class="node"><title>p10</title>
<ellipse fill="none" stroke="black" cx="753.6" cy="-1806" rx="302.335" ry="18"/>
<text text-anchor="middle" x="753.6" y="-1802.3" font-family="Times,serif" font-size="14.00">GRAPHTYPER_GENOTYPE_BAMS_01:SAMTOOLS_DEPTH_01:ST_DEPTH</text>
</g>
<!-- p8&#45;&gt;p10 -->
<g id="edge10" class="edge"><title>p8&#45;&gt;p10</title>
<path fill="none" stroke="black" d="M738.208,-1876.27C739.744,-1869.35 743.916,-1850.58 747.53,-1834.32"/>
<polygon fill="black" stroke="black" points="751.038,-1834.66 749.79,-1824.14 744.204,-1833.15 751.038,-1834.66"/>
</g>
<!-- p12 -->
<g id="node15" class="node"><title>p12</title>
<ellipse fill="none" stroke="black" cx="753.6" cy="-1746" rx="3.25" ry="3.5"/>
<text text-anchor="middle" x="737.6" y="-1753.3" font-family="Times,serif" font-size="14.00">map</text>
</g>
<!-- p10&#45;&gt;p12 -->
<g id="edge12" class="edge"><title>p10&#45;&gt;p12</title>
<path fill="none" stroke="black" d="M753.6,-1787.91C753.6,-1778.96 753.6,-1768.19 753.6,-1759.94"/>
<polygon fill="black" stroke="black" points="757.1,-1759.69 753.6,-1749.69 750.1,-1759.69 757.1,-1759.69"/>
</g>
<!-- p10&#45;&gt;p11 -->
<g id="edge13" class="edge"><title>p10&#45;&gt;p11</title>
<path fill="none" stroke="black" d="M661.677,-1788.84C581.837,-1774.81 473.391,-1755.75 436.497,-1749.27"/>
<polygon fill="black" stroke="black" points="437.05,-1745.81 426.595,-1747.53 435.838,-1752.7 437.05,-1745.81"/>
</g>
<!-- p9 -->
<g id="node14" class="node"><title>p9</title>
<ellipse fill="black" stroke="black" cx="770.6" cy="-1880" rx="3.6" ry="3.6"/>
</g>
<!-- p9&#45;&gt;p10 -->
<g id="edge11" class="edge"><title>p9&#45;&gt;p10</title>
<path fill="none" stroke="black" d="M769.954,-1876.27C768.322,-1869.35 763.889,-1850.58 760.05,-1834.32"/>
<polygon fill="black" stroke="black" points="763.352,-1833.07 757.648,-1824.14 756.539,-1834.68 763.352,-1833.07"/>
<text text-anchor="middle" x="779.6" y="-1846.3" font-family="Times,serif" font-size="14.00">meta</text>
</g>
<!-- p13 -->
<g id="node17" class="node"><title>p13</title>
<ellipse fill="none" stroke="black" cx="753.6" cy="-1700" rx="3.25" ry="3.5"/>
<text text-anchor="middle" x="731.6" y="-1707.3" font-family="Times,serif" font-size="14.00">collect</text>
</g>
<!-- p12&#45;&gt;p13 -->
<g id="edge15" class="edge"><title>p12&#45;&gt;p13</title>
<path fill="none" stroke="black" d="M753.6,-1742.38C753.6,-1736.86 753.6,-1723.74 753.6,-1713.74"/>
<polygon fill="black" stroke="black" points="757.1,-1713.55 753.6,-1703.55 750.1,-1713.55 757.1,-1713.55"/>
</g>
<!-- p17 -->
<g id="node21" class="node"><title>p17</title>
<ellipse fill="none" stroke="black" cx="386.6" cy="-1484" rx="3.25" ry="3.5"/>
<text text-anchor="middle" x="364.6" y="-1491.3" font-family="Times,serif" font-size="14.00">collect</text>
</g>
<!-- p16&#45;&gt;p17 -->
<g id="edge20" class="edge"><title>p16&#45;&gt;p17</title>
<path fill="none" stroke="black" d="M422.369,-1558.47C417.72,-1548.92 401.046,-1514.67 392.201,-1496.51"/>
<polygon fill="black" stroke="black" points="395.249,-1494.77 387.725,-1487.31 388.955,-1497.83 395.249,-1494.77"/>
<text text-anchor="middle" x="440.1" y="-1524.3" font-family="Times,serif" font-size="14.00">version_ch</text>
</g>
<!-- p15 -->
<g id="node18" class="node"><title>p15</title>
<ellipse fill="none" stroke="black" cx="786.6" cy="-1626" rx="335.055" ry="18"/>
<text text-anchor="middle" x="786.6" y="-1622.3" font-family="Times,serif" font-size="14.00">GRAPHTYPER_GENOTYPE_BAMS_01:SAMTOOLS_DEPTH_01:CONCAT_FILES_01</text>
</g>
<!-- p13&#45;&gt;p15 -->
<g id="edge16" class="edge"><title>p13&#45;&gt;p15</title>
<path fill="none" stroke="black" d="M754.698,-1696.6C757.783,-1689.87 766.805,-1670.19 774.47,-1653.47"/>
<polygon fill="black" stroke="black" points="777.787,-1654.63 778.772,-1644.08 771.423,-1651.71 777.787,-1654.63"/>
</g>
<!-- p24 -->
<g id="node20" class="node"><title>p24</title>
<ellipse fill="none" stroke="black" cx="865.6" cy="-1484" rx="323.032" ry="18"/>
<text text-anchor="middle" x="865.6" y="-1480.3" font-family="Times,serif" font-size="14.00">GRAPHTYPER_GENOTYPE_BAMS_01:CONVERT_TO_MOSDEPTH_SUMMARY</text>
</g>
<!-- p15&#45;&gt;p24 -->
<g id="edge18" class="edge"><title>p15&#45;&gt;p24</title>
<path fill="none" stroke="black" d="M792.966,-1607.91C798.685,-1593.24 807.69,-1571.73 817.6,-1554 825.989,-1538.99 836.822,-1523.19 846.074,-1510.49"/>
<polygon fill="black" stroke="black" points="849.039,-1512.37 852.176,-1502.25 843.413,-1508.2 849.039,-1512.37"/>
<text text-anchor="middle" x="835.1" y="-1558.3" font-family="Times,serif" font-size="14.00">output</text>
</g>
<!-- p15&#45;&gt;p16 -->
<g id="edge19" class="edge"><title>p15&#45;&gt;p16</title>
<path fill="none" stroke="black" d="M691.226,-1608.71C602.139,-1593.49 477.014,-1572.12 436.678,-1565.23"/>
<polygon fill="black" stroke="black" points="437.161,-1561.77 426.714,-1563.53 435.982,-1568.67 437.161,-1561.77"/>
</g>
<!-- p14 -->
<g id="node19" class="node"><title>p14</title>
<ellipse fill="black" stroke="black" cx="786.6" cy="-1700" rx="3.6" ry="3.6"/>
</g>
<!-- p14&#45;&gt;p15 -->
<g id="edge17" class="edge"><title>p14&#45;&gt;p15</title>
<path fill="none" stroke="black" d="M786.6,-1696.27C786.6,-1689.35 786.6,-1670.58 786.6,-1654.32"/>
<polygon fill="black" stroke="black" points="790.1,-1654.14 786.6,-1644.14 783.1,-1654.14 790.1,-1654.14"/>
<text text-anchor="middle" x="800.6" y="-1666.3" font-family="Times,serif" font-size="14.00">meta</text>
</g>
<!-- p26 -->
<g id="node28" class="node"><title>p26</title>
<ellipse fill="none" stroke="black" cx="1100.6" cy="-1396" rx="308.584" ry="18"/>
<text text-anchor="middle" x="1100.6" y="-1392.3" font-family="Times,serif" font-size="14.00">GRAPHTYPER_GENOTYPE_BAMS_01:COVERAGE_DIVIDE_READLENGTH</text>
</g>
<!-- p24&#45;&gt;p26 -->
<g id="edge28" class="edge"><title>p24&#45;&gt;p26</title>
<path fill="none" stroke="black" d="M911.748,-1466.11C949.986,-1452.12 1004.45,-1432.19 1045.07,-1417.32"/>
<polygon fill="black" stroke="black" points="1046.37,-1420.57 1054.56,-1413.85 1043.96,-1414 1046.37,-1420.57"/>
<text text-anchor="middle" x="1030.6" y="-1436.3" font-family="Times,serif" font-size="14.00">summary</text>
</g>
<!-- p21 -->
<g id="node22" class="node"><title>p21</title>
<ellipse fill="none" stroke="black" cx="441.6" cy="-1396" rx="332.156" ry="18"/>
<text text-anchor="middle" x="441.6" y="-1392.3" font-family="Times,serif" font-size="14.00">GRAPHTYPER_GENOTYPE_BAMS_01:SAMTOOLS_DEPTH_01:MERGE_VERSION</text>
</g>
<!-- p17&#45;&gt;p21 -->
<g id="edge21" class="edge"><title>p17&#45;&gt;p21</title>
<path fill="none" stroke="black" d="M387.686,-1480.57C391.078,-1473.08 401.946,-1449.76 413.6,-1432 415.687,-1428.82 417.998,-1425.58 420.37,-1422.42"/>
<polygon fill="black" stroke="black" points="423.295,-1424.36 426.686,-1414.32 417.776,-1420.05 423.295,-1424.36"/>
</g>
<!-- p21&#45;&gt;p22 -->
<g id="edge25" class="edge"><title>p21&#45;&gt;p22</title>
<path fill="none" stroke="black" d="M441.6,-1377.94C441.6,-1365.13 441.6,-1347.84 441.6,-1336.11"/>
<polygon fill="black" stroke="black" points="445.1,-1335.75 441.6,-1325.75 438.1,-1335.75 445.1,-1335.75"/>
</g>
<!-- p18 -->
<g id="node23" class="node"><title>p18</title>
<ellipse fill="black" stroke="black" cx="415.6" cy="-1484" rx="3.6" ry="3.6"/>
</g>
<!-- p18&#45;&gt;p21 -->
<g id="edge22" class="edge"><title>p18&#45;&gt;p21</title>
<path fill="none" stroke="black" d="M415.449,-1480.15C415.122,-1472.26 414.795,-1449.57 420.6,-1432 421.591,-1429 422.873,-1425.99 424.315,-1423.05"/>
<polygon fill="black" stroke="black" points="427.509,-1424.51 429.305,-1414.07 421.39,-1421.11 427.509,-1424.51"/>
<text text-anchor="middle" x="434.6" y="-1436.3" font-family="Times,serif" font-size="14.00">meta</text>
</g>
<!-- p19 -->
<g id="node24" class="node"><title>p19</title>
<ellipse fill="black" stroke="black" cx="466.6" cy="-1484" rx="3.6" ry="3.6"/>
</g>
<!-- p19&#45;&gt;p21 -->
<g id="edge23" class="edge"><title>p19&#45;&gt;p21</title>
<path fill="none" stroke="black" d="M465.768,-1480.14C463.234,-1471.42 455.415,-1444.52 449.349,-1423.66"/>
<polygon fill="black" stroke="black" points="452.695,-1422.63 446.543,-1414 445.974,-1424.58 452.695,-1422.63"/>
<text text-anchor="middle" x="472.1" y="-1436.3" font-family="Times,serif" font-size="14.00">name</text>
</g>
<!-- p20 -->
<g id="node25" class="node"><title>p20</title>
<ellipse fill="black" stroke="black" cx="520.6" cy="-1484" rx="3.6" ry="3.6"/>
</g>
<!-- p20&#45;&gt;p21 -->
<g id="edge24" class="edge"><title>p20&#45;&gt;p21</title>
<path fill="none" stroke="black" d="M519.613,-1480.41C516.485,-1472.46 506.137,-1447.97 491.6,-1432 487.81,-1427.84 483.44,-1423.9 478.894,-1420.26"/>
<polygon fill="black" stroke="black" points="480.714,-1417.25 470.608,-1414.07 476.525,-1422.86 480.714,-1417.25"/>
<text text-anchor="middle" x="534.1" y="-1436.3" font-family="Times,serif" font-size="14.00">description</text>
</g>
<!-- p30 -->
<g id="node31" class="node"><title>p30</title>
<ellipse fill="none" stroke="black" cx="876.6" cy="-1160" rx="3.25" ry="3.5"/>
<text text-anchor="middle" x="862.1" y="-1167.3" font-family="Times,serif" font-size="14.00">mix</text>
</g>
<!-- p27&#45;&gt;p30 -->
<g id="edge32" class="edge"><title>p27&#45;&gt;p30</title>
<path fill="none" stroke="black" d="M569.605,-1244.6C571.299,-1240.87 575.086,-1233.71 580.6,-1230 674.415,-1166.83 818.629,-1161.07 863.086,-1160.87"/>
<polygon fill="black" stroke="black" points="863.335,-1164.37 873.354,-1160.92 863.373,-1157.37 863.335,-1164.37"/>
<text text-anchor="middle" x="677.1" y="-1200.3" font-family="Times,serif" font-size="14.00">version_ch</text>
</g>
<!-- p23 -->
<g id="node27" class="node"><title>p23</title>
<ellipse fill="black" stroke="black" cx="865.6" cy="-1562" rx="3.6" ry="3.6"/>
</g>
<!-- p23&#45;&gt;p24 -->
<g id="edge27" class="edge"><title>p23&#45;&gt;p24</title>
<path fill="none" stroke="black" d="M865.6,-1558.11C865.6,-1550.61 865.6,-1529.88 865.6,-1512.4"/>
<polygon fill="black" stroke="black" points="869.1,-1512.08 865.6,-1502.08 862.1,-1512.08 869.1,-1512.08"/>
<text text-anchor="middle" x="879.6" y="-1524.3" font-family="Times,serif" font-size="14.00">meta</text>
</g>
<!-- p33 -->
<g id="node30" class="node"><title>p33</title>
<ellipse fill="none" stroke="black" cx="1190.6" cy="-1322" rx="3.25" ry="3.5"/>
<text text-anchor="middle" x="1163.1" y="-1329.3" font-family="Times,serif" font-size="14.00">combine</text>
</g>
<!-- p26&#45;&gt;p33 -->
<g id="edge30" class="edge"><title>p26&#45;&gt;p33</title>
<path fill="none" stroke="black" d="M1121.93,-1377.94C1140.33,-1363.21 1166.12,-1342.58 1180.28,-1331.25"/>
<polygon fill="black" stroke="black" points="1182.64,-1333.85 1188.26,-1324.87 1178.27,-1328.38 1182.64,-1333.85"/>
</g>
<!-- p26&#45;&gt;p27 -->
<g id="edge31" class="edge"><title>p26&#45;&gt;p27</title>
<path fill="none" stroke="black" d="M918.318,-1381.47C812.192,-1366.25 680.134,-1334.04 580.6,-1266 578.371,-1264.48 576.42,-1262.39 574.776,-1260.21"/>
<polygon fill="black" stroke="black" points="577.685,-1258.25 569.612,-1251.39 571.644,-1261.79 577.685,-1258.25"/>
</g>
<!-- p25 -->
<g id="node29" class="node"><title>p25</title>
<ellipse fill="black" stroke="black" cx="1210.6" cy="-1484" rx="3.6" ry="3.6"/>
</g>
<!-- p25&#45;&gt;p26 -->
<g id="edge29" class="edge"><title>p25&#45;&gt;p26</title>
<path fill="none" stroke="black" d="M1208.96,-1480.39C1206.68,-1476.87 1202.3,-1470.54 1197.6,-1466 1179.43,-1448.44 1156.48,-1431.92 1137.48,-1419.44"/>
<polygon fill="black" stroke="black" points="1139.35,-1416.49 1129.05,-1414.01 1135.55,-1422.37 1139.35,-1416.49"/>
<text text-anchor="middle" x="1189.6" y="-1436.3" font-family="Times,serif" font-size="14.00">meta</text>
</g>
<!-- p34 -->
<g id="node37" class="node"><title>p34</title>
<ellipse fill="none" stroke="black" cx="1190.6" cy="-1248" rx="3.25" ry="3.5"/>
<text text-anchor="middle" x="1199.6" y="-1255.3" font-family="Times,serif" font-size="14.00">map</text>
</g>
<!-- p33&#45;&gt;p34 -->
<g id="edge39" class="edge"><title>p33&#45;&gt;p34</title>
<path fill="none" stroke="black" d="M1190.6,-1318.27C1190.6,-1309.13 1190.6,-1279.28 1190.6,-1261.89"/>
<polygon fill="black" stroke="black" points="1194.1,-1261.74 1190.6,-1251.74 1187.1,-1261.74 1194.1,-1261.74"/>
</g>
<!-- p37 -->
<g id="node35" class="node"><title>p37</title>
<ellipse fill="none" stroke="black" cx="914.6" cy="-1086" rx="3.25" ry="3.5"/>
<text text-anchor="middle" x="900.1" y="-1093.3" font-family="Times,serif" font-size="14.00">mix</text>
</g>
<!-- p30&#45;&gt;p37 -->
<g id="edge36" class="edge"><title>p30&#45;&gt;p37</title>
<path fill="none" stroke="black" d="M877.864,-1156.6C882.597,-1147.64 899.462,-1115.68 908.604,-1098.36"/>
<polygon fill="black" stroke="black" points="911.72,-1099.96 913.292,-1089.48 905.529,-1096.69 911.72,-1099.96"/>
<text text-anchor="middle" x="933.1" y="-1112.3" font-family="Times,serif" font-size="14.00">version_ch</text>
</g>
<!-- p28 -->
<g id="node32" class="node"><title>p28</title>
<ellipse fill="black" stroke="black" cx="879.6" cy="-1322" rx="3.6" ry="3.6"/>
</g>
<!-- p29 -->
<g id="node33" class="node"><title>p29</title>
<ellipse fill="none" stroke="black" cx="879.6" cy="-1248" rx="289.312" ry="18"/>
<text text-anchor="middle" x="879.6" y="-1244.3" font-family="Times,serif" font-size="14.00">GRAPHTYPER_GENOTYPE_BAMS_01:GRAPHTYPER_DOWNLOAD_01</text>
</g>
<!-- p28&#45;&gt;p29 -->
<g id="edge33" class="edge"><title>p28&#45;&gt;p29</title>
<path fill="none" stroke="black" d="M879.6,-1318.27C879.6,-1311.35 879.6,-1292.58 879.6,-1276.32"/>
<polygon fill="black" stroke="black" points="883.1,-1276.14 879.6,-1266.14 876.1,-1276.14 883.1,-1276.14"/>
<text text-anchor="middle" x="893.6" y="-1288.3" font-family="Times,serif" font-size="14.00">meta</text>
</g>
<!-- p36 -->
<g id="node34" class="node"><title>p36</title>
<ellipse fill="none" stroke="black" cx="1183.6" cy="-1160" rx="284.987" ry="18"/>
<text text-anchor="middle" x="1183.6" y="-1156.3" font-family="Times,serif" font-size="14.00">GRAPHTYPER_GENOTYPE_BAMS_01:GRAPHTYPER_GENOTYPE_01</text>
</g>
<!-- p29&#45;&gt;p36 -->
<g id="edge34" class="edge"><title>p29&#45;&gt;p36</title>
<path fill="none" stroke="black" d="M938.575,-1230.32C989.127,-1216.02 1061.99,-1195.4 1115.11,-1180.38"/>
<polygon fill="black" stroke="black" points="1116.12,-1183.73 1124.79,-1177.64 1114.21,-1176.99 1116.12,-1183.73"/>
</g>
<!-- p29&#45;&gt;p30 -->
<g id="edge35" class="edge"><title>p29&#45;&gt;p30</title>
<path fill="none" stroke="black" d="M878.993,-1229.6C878.416,-1213.05 877.561,-1188.54 877.044,-1173.74"/>
<polygon fill="black" stroke="black" points="880.54,-1173.54 876.693,-1163.67 873.544,-1173.79 880.54,-1173.54"/>
</g>
<!-- p38 -->
<g id="node39" class="node"><title>p38</title>
<ellipse fill="none" stroke="black" cx="1183.6" cy="-1086" rx="3.25" ry="3.5"/>
<text text-anchor="middle" x="1167.6" y="-1093.3" font-family="Times,serif" font-size="14.00">map</text>
</g>
<!-- p36&#45;&gt;p38 -->
<g id="edge42" class="edge"><title>p36&#45;&gt;p38</title>
<path fill="none" stroke="black" d="M1183.6,-1141.94C1183.6,-1129.13 1183.6,-1111.84 1183.6,-1100.11"/>
<polygon fill="black" stroke="black" points="1187.1,-1099.75 1183.6,-1089.75 1180.1,-1099.75 1187.1,-1099.75"/>
</g>
<!-- p36&#45;&gt;p37 -->
<g id="edge43" class="edge"><title>p36&#45;&gt;p37</title>
<path fill="none" stroke="black" d="M1121.55,-1142.39C1057.43,-1125.23 961.997,-1099.69 927.57,-1090.47"/>
<polygon fill="black" stroke="black" points="928.382,-1087.07 917.817,-1087.86 926.572,-1093.83 928.382,-1087.07"/>
</g>
<!-- p42 -->
<g id="node40" class="node"><title>p42</title>
<ellipse fill="none" stroke="black" cx="940.6" cy="-878" rx="3.25" ry="3.5"/>
<text text-anchor="middle" x="926.1" y="-885.3" font-family="Times,serif" font-size="14.00">mix</text>
</g>
<!-- p37&#45;&gt;p42 -->
<g id="edge44" class="edge"><title>p37&#45;&gt;p42</title>
<path fill="none" stroke="black" d="M914.929,-1082.4C917.454,-1062.39 933.808,-932.81 939.012,-891.578"/>
<polygon fill="black" stroke="black" points="942.499,-891.906 940.279,-881.546 935.554,-891.029 942.499,-891.906"/>
<text text-anchor="middle" x="955.1" y="-1006.3" font-family="Times,serif" font-size="14.00">version_ch</text>
</g>
<!-- p32&#45;&gt;p33 -->
<g id="edge38" class="edge"><title>p32&#45;&gt;p33</title>
<path fill="none" stroke="black" d="M1429.45,-1392.61C1427.54,-1388.88 1423.33,-1381.73 1417.6,-1378 1346.8,-1331.84 1240.82,-1324.38 1203.87,-1323.21"/>
<polygon fill="black" stroke="black" points="1203.92,-1319.71 1193.85,-1323 1203.78,-1326.71 1203.92,-1319.71"/>
<text text-anchor="middle" x="1424.6" y="-1348.3" font-family="Times,serif" font-size="14.00">each_interval_ch</text>
</g>
<!-- p34&#45;&gt;p36 -->
<g id="edge40" class="edge"><title>p34&#45;&gt;p36</title>
<path fill="none" stroke="black" d="M1190.37,-1244.14C1189.66,-1235.5 1187.51,-1209.01 1185.82,-1188.23"/>
<polygon fill="black" stroke="black" points="1189.28,-1187.69 1184.98,-1178 1182.31,-1188.25 1189.28,-1187.69"/>
</g>
<!-- p35 -->
<g id="node38" class="node"><title>p35</title>
<ellipse fill="black" stroke="black" cx="1216.6" cy="-1248" rx="3.6" ry="3.6"/>
</g>
<!-- p35&#45;&gt;p36 -->
<g id="edge41" class="edge"><title>p35&#45;&gt;p36</title>
<path fill="none" stroke="black" d="M1215.65,-1244.52C1212.47,-1236.25 1201.99,-1208.93 1193.87,-1187.76"/>
<polygon fill="black" stroke="black" points="1197.08,-1186.35 1190.23,-1178.27 1190.54,-1188.86 1197.08,-1186.35"/>
<text text-anchor="middle" x="1217.6" y="-1200.3" font-family="Times,serif" font-size="14.00">meta</text>
</g>
<!-- p39 -->
<g id="node41" class="node"><title>p39</title>
<ellipse fill="none" stroke="black" cx="1183.6" cy="-1040" rx="3.25" ry="3.5"/>
<text text-anchor="middle" x="1161.6" y="-1047.3" font-family="Times,serif" font-size="14.00">collect</text>
</g>
<!-- p38&#45;&gt;p39 -->
<g id="edge45" class="edge"><title>p38&#45;&gt;p39</title>
<path fill="none" stroke="black" d="M1183.6,-1082.38C1183.6,-1076.86 1183.6,-1063.74 1183.6,-1053.74"/>
<polygon fill="black" stroke="black" points="1187.1,-1053.55 1183.6,-1043.55 1180.1,-1053.55 1187.1,-1053.55"/>
</g>
<!-- p64 -->
<g id="node45" class="node"><title>p64</title>
<ellipse fill="none" stroke="black" cx="1037.6" cy="-282" rx="3.25" ry="3.5"/>
<text text-anchor="middle" x="1023.1" y="-289.3" font-family="Times,serif" font-size="14.00">mix</text>
</g>
<!-- p42&#45;&gt;p64 -->
<g id="edge50" class="edge"><title>p42&#45;&gt;p64</title>
<path fill="none" stroke="black" d="M940.6,-874.341C940.6,-866.114 940.6,-840.347 940.6,-819 940.6,-819 940.6,-819 940.6,-341 940.6,-302.38 997.941,-288.86 1024.45,-284.674"/>
<polygon fill="black" stroke="black" points="1024.94,-288.14 1034.37,-283.324 1023.99,-281.204 1024.94,-288.14"/>
<text text-anchor="middle" x="970.1" y="-590.3" font-family="Times,serif" font-size="14.00">version_ch</text>
</g>
<!-- p41 -->
<g id="node42" class="node"><title>p41</title>
<ellipse fill="none" stroke="black" cx="1199.6" cy="-966" rx="257.066" ry="18"/>
<text text-anchor="middle" x="1199.6" y="-962.3" font-family="Times,serif" font-size="14.00">GRAPHTYPER_GENOTYPE_BAMS_01:COLLECT_TO_FILE_X1</text>
</g>
<!-- p39&#45;&gt;p41 -->
<g id="edge46" class="edge"><title>p39&#45;&gt;p41</title>
<path fill="none" stroke="black" d="M1184.21,-1036.27C1185.74,-1029.35 1189.92,-1010.58 1193.53,-994.316"/>
<polygon fill="black" stroke="black" points="1197.04,-994.664 1195.79,-984.143 1190.2,-993.145 1197.04,-994.664"/>
</g>
<!-- p45 -->
<g id="node44" class="node"><title>p45</title>
<ellipse fill="none" stroke="black" cx="1453.6" cy="-878" rx="308.584" ry="18"/>
<text text-anchor="middle" x="1453.6" y="-874.3" font-family="Times,serif" font-size="14.00">GRAPHTYPER_GENOTYPE_BAMS_01:BCFTOOLS_CONCAT_01:SQRT_FILE</text>
</g>
<!-- p41&#45;&gt;p45 -->
<g id="edge48" class="edge"><title>p41&#45;&gt;p45</title>
<path fill="none" stroke="black" d="M1248.87,-948.316C1290.45,-934.239 1350.09,-914.047 1394.28,-899.084"/>
<polygon fill="black" stroke="black" points="1395.68,-902.306 1404.03,-895.784 1393.43,-895.676 1395.68,-902.306"/>
<text text-anchor="middle" x="1360.6" y="-918.3" font-family="Times,serif" font-size="14.00">vcfs</text>
</g>
<!-- p41&#45;&gt;p42 -->
<g id="edge49" class="edge"><title>p41&#45;&gt;p42</title>
<path fill="none" stroke="black" d="M1149.36,-948.316C1088.04,-927.957 988.206,-894.808 953.205,-883.186"/>
<polygon fill="black" stroke="black" points="954.028,-879.771 943.435,-879.941 951.822,-886.414 954.028,-879.771"/>
</g>
<!-- p40 -->
<g id="node43" class="node"><title>p40</title>
<ellipse fill="black" stroke="black" cx="1216.6" cy="-1040" rx="3.6" ry="3.6"/>
</g>
<!-- p40&#45;&gt;p41 -->
<g id="edge47" class="edge"><title>p40&#45;&gt;p41</title>
<path fill="none" stroke="black" d="M1215.95,-1036.27C1214.32,-1029.35 1209.89,-1010.58 1206.05,-994.316"/>
<polygon fill="black" stroke="black" points="1209.35,-993.071 1203.65,-984.143 1202.54,-994.68 1209.35,-993.071"/>
<text text-anchor="middle" x="1225.6" y="-1006.3" font-family="Times,serif" font-size="14.00">meta</text>
</g>
<!-- p47 -->
<g id="node49" class="node"><title>p47</title>
<ellipse fill="none" stroke="black" cx="1440.6" cy="-818" rx="3.25" ry="3.5"/>
<text text-anchor="middle" x="1414.1" y="-825.3" font-family="Times,serif" font-size="14.00">splitText</text>
</g>
<!-- p45&#45;&gt;p47 -->
<g id="edge53" class="edge"><title>p45&#45;&gt;p47</title>
<path fill="none" stroke="black" d="M1449.77,-859.912C1447.74,-850.858 1445.29,-839.93 1443.43,-831.647"/>
<polygon fill="black" stroke="black" points="1446.81,-830.683 1441.2,-821.691 1439.98,-832.214 1446.81,-830.683"/>
</g>
<!-- p46 -->
<g id="node50" class="node"><title>p46</title>
<ellipse fill="black" stroke="black" cx="1465.6" cy="-818" rx="1.8" ry="1.8"/>
</g>
<!-- p45&#45;&gt;p46 -->
<g id="edge54" class="edge"><title>p45&#45;&gt;p46</title>
<path fill="none" stroke="black" d="M1457.14,-859.912C1459.14,-850.205 1461.6,-838.342 1463.35,-829.896"/>
<polygon fill="black" stroke="black" points="1466.78,-830.558 1465.38,-820.056 1459.93,-829.14 1466.78,-830.558"/>
</g>
<!-- p65 -->
<g id="node66" class="node"><title>p65</title>
<ellipse fill="none" stroke="black" cx="1037.6" cy="-222" rx="3.25" ry="3.5"/>
<text text-anchor="middle" x="1015.6" y="-229.3" font-family="Times,serif" font-size="14.00">collect</text>
</g>
<!-- p64&#45;&gt;p65 -->
<g id="edge73" class="edge"><title>p64&#45;&gt;p65</title>
<path fill="none" stroke="black" d="M1037.6,-278.203C1037.6,-270.649 1037.6,-249.48 1037.6,-235.66"/>
<polygon fill="black" stroke="black" points="1041.1,-235.636 1037.6,-225.636 1034.1,-235.636 1041.1,-235.636"/>
<text text-anchor="middle" x="1067.1" y="-248.3" font-family="Times,serif" font-size="14.00">version_ch</text>
</g>
<!-- p43 -->
<g id="node46" class="node"><title>p43</title>
<ellipse fill="black" stroke="black" cx="1034.6" cy="-698" rx="3.6" ry="3.6"/>
<text text-anchor="middle" x="989" y="-705.4" font-family="Times,serif" font-size="14.00">Channel.empty</text>
</g>
<!-- p52 -->
<g id="node47" class="node"><title>p52</title>
<ellipse fill="none" stroke="black" cx="1034.6" cy="-624" rx="3.25" ry="3.5"/>
<text text-anchor="middle" x="1020.1" y="-631.3" font-family="Times,serif" font-size="14.00">mix</text>
</g>
<!-- p43&#45;&gt;p52 -->
<g id="edge51" class="edge"><title>p43&#45;&gt;p52</title>
<path fill="none" stroke="black" d="M1034.6,-694.265C1034.6,-685.133 1034.6,-655.282 1034.6,-637.892"/>
<polygon fill="black" stroke="black" points="1038.1,-637.737 1034.6,-627.737 1031.1,-637.737 1038.1,-637.737"/>
<text text-anchor="middle" x="1064.1" y="-650.3" font-family="Times,serif" font-size="14.00">version_ch</text>
</g>
<!-- p58 -->
<g id="node56" class="node"><title>p58</title>
<ellipse fill="none" stroke="black" cx="1247.6" cy="-476" rx="3.25" ry="3.5"/>
<text text-anchor="middle" x="1233.1" y="-483.3" font-family="Times,serif" font-size="14.00">mix</text>
</g>
<!-- p52&#45;&gt;p58 -->
<g id="edge61" class="edge"><title>p52&#45;&gt;p58</title>
<path fill="none" stroke="black" d="M1033.54,-620.401C1028.94,-608.664 1011.91,-559.967 1033.6,-532 1058.79,-499.514 1191.81,-482.871 1234.44,-478.315"/>
<polygon fill="black" stroke="black" points="1234.8,-481.797 1244.39,-477.3 1234.09,-474.833 1234.8,-481.797"/>
<text text-anchor="middle" x="1063.1" y="-546.3" font-family="Times,serif" font-size="14.00">version_ch</text>
</g>
<!-- p44 -->
<g id="node48" class="node"><title>p44</title>
<ellipse fill="black" stroke="black" cx="1478.6" cy="-966" rx="3.6" ry="3.6"/>
</g>
<!-- p44&#45;&gt;p45 -->
<g id="edge52" class="edge"><title>p44&#45;&gt;p45</title>
<path fill="none" stroke="black" d="M1477.77,-962.139C1475.23,-953.422 1467.41,-926.523 1461.35,-905.657"/>
<polygon fill="black" stroke="black" points="1464.7,-904.629 1458.54,-896.004 1457.97,-906.583 1464.7,-904.629"/>
<text text-anchor="middle" x="1481.6" y="-918.3" font-family="Times,serif" font-size="14.00">meta</text>
</g>
<!-- p48 -->
<g id="node51" class="node"><title>p48</title>
<ellipse fill="none" stroke="black" cx="1440.6" cy="-772" rx="3.25" ry="3.5"/>
<text text-anchor="middle" x="1424.6" y="-779.3" font-family="Times,serif" font-size="14.00">map</text>
</g>
<!-- p47&#45;&gt;p48 -->
<g id="edge55" class="edge"><title>p47&#45;&gt;p48</title>
<path fill="none" stroke="black" d="M1440.6,-814.379C1440.6,-808.864 1440.6,-795.742 1440.6,-785.742"/>
<polygon fill="black" stroke="black" points="1444.1,-785.552 1440.6,-775.552 1437.1,-785.552 1444.1,-785.552"/>
</g>
<!-- p50 -->
<g id="node52" class="node"><title>p50</title>
<ellipse fill="none" stroke="black" cx="1468.6" cy="-698" rx="401.972" ry="18"/>
<text text-anchor="middle" x="1468.6" y="-694.3" font-family="Times,serif" font-size="14.00">GRAPHTYPER_GENOTYPE_BAMS_01:BCFTOOLS_CONCAT_01:BCFTOOL_CONCAT_FILE_LIST_01</text>
</g>
<!-- p48&#45;&gt;p50 -->
<g id="edge56" class="edge"><title>p48&#45;&gt;p50</title>
<path fill="none" stroke="black" d="M1440.1,-768.201C1439.1,-761.88 1437.29,-746.107 1441.6,-734 1442.73,-730.819 1444.27,-727.697 1446.05,-724.709"/>
<polygon fill="black" stroke="black" points="1449.11,-726.436 1451.9,-716.216 1443.35,-722.462 1449.11,-726.436"/>
<text text-anchor="middle" x="1458.6" y="-738.3" font-family="Times,serif" font-size="14.00">d2_ch</text>
</g>
<!-- p53 -->
<g id="node54" class="node"><title>p53</title>
<ellipse fill="none" stroke="black" cx="1468.6" cy="-624" rx="3.25" ry="3.5"/>
<text text-anchor="middle" x="1446.6" y="-631.3" font-family="Times,serif" font-size="14.00">collect</text>
</g>
<!-- p50&#45;&gt;p53 -->
<g id="edge58" class="edge"><title>p50&#45;&gt;p53</title>
<path fill="none" stroke="black" d="M1468.6,-679.937C1468.6,-667.126 1468.6,-649.843 1468.6,-638.107"/>
<polygon fill="black" stroke="black" points="1472.1,-637.748 1468.6,-627.748 1465.1,-637.748 1472.1,-637.748"/>
</g>
<!-- p51 -->
<g id="node55" class="node"><title>p51</title>
<ellipse fill="black" stroke="black" cx="1524.6" cy="-624" rx="1.8" ry="1.8"/>
</g>
<!-- p50&#45;&gt;p51 -->
<g id="edge59" class="edge"><title>p50&#45;&gt;p51</title>
<path fill="none" stroke="black" d="M1481.87,-679.937C1493.13,-665.466 1508.82,-645.287 1517.72,-633.844"/>
<polygon fill="black" stroke="black" points="1520.56,-635.892 1523.94,-625.849 1515.04,-631.594 1520.56,-635.892"/>
</g>
<!-- p50&#45;&gt;p52 -->
<g id="edge60" class="edge"><title>p50&#45;&gt;p52</title>
<path fill="none" stroke="black" d="M1369.3,-680.527C1260.44,-662.466 1094.89,-635.002 1047.62,-627.16"/>
<polygon fill="black" stroke="black" points="1048,-623.676 1037.56,-625.492 1046.86,-630.581 1048,-623.676"/>
</g>
<!-- p49 -->
<g id="node53" class="node"><title>p49</title>
<ellipse fill="black" stroke="black" cx="1497.6" cy="-772" rx="3.6" ry="3.6"/>
</g>
<!-- p49&#45;&gt;p50 -->
<g id="edge57" class="edge"><title>p49&#45;&gt;p50</title>
<path fill="none" stroke="black" d="M1496.5,-768.265C1493.69,-761.288 1486.01,-742.219 1479.42,-725.852"/>
<polygon fill="black" stroke="black" points="1482.49,-724.111 1475.5,-716.143 1475.99,-726.726 1482.49,-724.111"/>
<text text-anchor="middle" x="1502.6" y="-738.3" font-family="Times,serif" font-size="14.00">meta</text>
</g>
<!-- p55 -->
<g id="node57" class="node"><title>p55</title>
<ellipse fill="none" stroke="black" cx="1501.6" cy="-550" rx="400.047" ry="18"/>
<text text-anchor="middle" x="1501.6" y="-546.3" font-family="Times,serif" font-size="14.00">GRAPHTYPER_GENOTYPE_BAMS_01:BCFTOOLS_CONCAT_01:BCFTOOL_CONCAT_COLLECT_01</text>
</g>
<!-- p53&#45;&gt;p55 -->
<g id="edge62" class="edge"><title>p53&#45;&gt;p55</title>
<path fill="none" stroke="black" d="M1469.7,-620.604C1472.78,-613.873 1481.8,-594.19 1489.47,-577.465"/>
<polygon fill="black" stroke="black" points="1492.79,-578.629 1493.77,-568.08 1486.42,-575.712 1492.79,-578.629"/>
</g>
<!-- p59 -->
<g id="node61" class="node"><title>p59</title>
<ellipse fill="none" stroke="black" cx="1247.6" cy="-416" rx="3.25" ry="3.5"/>
<text text-anchor="middle" x="1225.6" y="-423.3" font-family="Times,serif" font-size="14.00">collect</text>
</g>
<!-- p58&#45;&gt;p59 -->
<g id="edge67" class="edge"><title>p58&#45;&gt;p59</title>
<path fill="none" stroke="black" d="M1247.6,-472.203C1247.6,-464.649 1247.6,-443.48 1247.6,-429.66"/>
<polygon fill="black" stroke="black" points="1251.1,-429.636 1247.6,-419.636 1244.1,-429.636 1251.1,-429.636"/>
<text text-anchor="middle" x="1277.1" y="-442.3" font-family="Times,serif" font-size="14.00">version_ch</text>
</g>
<!-- p57 -->
<g id="node59" class="node"><title>p57</title>
<ellipse fill="black" stroke="black" cx="1481.6" cy="-476" rx="1.8" ry="1.8"/>
</g>
<!-- p55&#45;&gt;p57 -->
<g id="edge64" class="edge"><title>p55&#45;&gt;p57</title>
<path fill="none" stroke="black" d="M1490.23,-531.876C1487.17,-526.392 1484.25,-520.144 1482.6,-514 1480.33,-505.528 1480.19,-495.572 1480.56,-488.122"/>
<polygon fill="black" stroke="black" points="1484.07,-488.209 1481.47,-477.938 1477.1,-487.59 1484.07,-488.209"/>
<text text-anchor="middle" x="1491.1" y="-502.3" font-family="Times,serif" font-size="14.00">vcf</text>
</g>
<!-- p56 -->
<g id="node60" class="node"><title>p56</title>
<ellipse fill="black" stroke="black" cx="1521.6" cy="-476" rx="1.8" ry="1.8"/>
</g>
<!-- p55&#45;&gt;p56 -->
<g id="edge65" class="edge"><title>p55&#45;&gt;p56</title>
<path fill="none" stroke="black" d="M1506.34,-531.937C1510.15,-518.219 1515.39,-499.373 1518.63,-487.701"/>
<polygon fill="black" stroke="black" points="1522.06,-488.421 1521.36,-477.849 1515.32,-486.548 1522.06,-488.421"/>
<text text-anchor="middle" x="1530.6" y="-502.3" font-family="Times,serif" font-size="14.00">index</text>
</g>
<!-- p55&#45;&gt;p58 -->
<g id="edge66" class="edge"><title>p55&#45;&gt;p58</title>
<path fill="none" stroke="black" d="M1442.05,-532.119C1381.98,-515.093 1293.57,-490.03 1260.61,-480.688"/>
<polygon fill="black" stroke="black" points="1261.19,-477.214 1250.61,-477.854 1259.28,-483.949 1261.19,-477.214"/>
</g>
<!-- p54 -->
<g id="node58" class="node"><title>p54</title>
<ellipse fill="black" stroke="black" cx="1501.6" cy="-624" rx="3.6" ry="3.6"/>
</g>
<!-- p54&#45;&gt;p55 -->
<g id="edge63" class="edge"><title>p54&#45;&gt;p55</title>
<path fill="none" stroke="black" d="M1501.6,-620.265C1501.6,-613.354 1501.6,-594.578 1501.6,-578.316"/>
<polygon fill="black" stroke="black" points="1505.1,-578.143 1501.6,-568.143 1498.1,-578.143 1505.1,-578.143"/>
<text text-anchor="middle" x="1515.6" y="-590.3" font-family="Times,serif" font-size="14.00">meta</text>
</g>
<!-- p63 -->
<g id="node62" class="node"><title>p63</title>
<ellipse fill="none" stroke="black" cx="1305.6" cy="-342" rx="336.505" ry="18"/>
<text text-anchor="middle" x="1305.6" y="-338.3" font-family="Times,serif" font-size="14.00">GRAPHTYPER_GENOTYPE_BAMS_01:BCFTOOLS_CONCAT_01:MERGE_VERSION</text>
</g>
<!-- p59&#45;&gt;p63 -->
<g id="edge68" class="edge"><title>p59&#45;&gt;p63</title>
<path fill="none" stroke="black" d="M1249.32,-412.624C1253.63,-406.694 1265.29,-390.797 1275.6,-378 1278.25,-374.705 1281.09,-371.278 1283.93,-367.914"/>
<polygon fill="black" stroke="black" points="1286.62,-370.154 1290.43,-360.271 1281.29,-365.615 1286.62,-370.154"/>
</g>
<!-- p63&#45;&gt;p64 -->
<g id="edge72" class="edge"><title>p63&#45;&gt;p64</title>
<path fill="none" stroke="black" d="M1229.16,-324.457C1166.34,-310.861 1082.68,-292.755 1050.74,-285.844"/>
<polygon fill="black" stroke="black" points="1051.19,-282.361 1040.68,-283.666 1049.71,-289.202 1051.19,-282.361"/>
</g>
<!-- p60 -->
<g id="node63" class="node"><title>p60</title>
<ellipse fill="black" stroke="black" cx="1280.6" cy="-416" rx="3.6" ry="3.6"/>
</g>
<!-- p60&#45;&gt;p63 -->
<g id="edge69" class="edge"><title>p60&#45;&gt;p63</title>
<path fill="none" stroke="black" d="M1280.15,-412.218C1279.25,-405.931 1277.63,-390.223 1281.6,-378 1282.62,-374.847 1284.03,-371.72 1285.65,-368.709"/>
<polygon fill="black" stroke="black" points="1288.69,-370.449 1291,-360.109 1282.75,-366.754 1288.69,-370.449"/>
<text text-anchor="middle" x="1295.6" y="-382.3" font-family="Times,serif" font-size="14.00">meta</text>
</g>
<!-- p61 -->
<g id="node64" class="node"><title>p61</title>
<ellipse fill="black" stroke="black" cx="1331.6" cy="-416" rx="3.6" ry="3.6"/>
</g>
<!-- p61&#45;&gt;p63 -->
<g id="edge70" class="edge"><title>p61&#45;&gt;p63</title>
<path fill="none" stroke="black" d="M1330.61,-412.265C1328.09,-405.288 1321.21,-386.219 1315.3,-369.852"/>
<polygon fill="black" stroke="black" points="1318.48,-368.36 1311.79,-360.143 1311.9,-370.737 1318.48,-368.36"/>
<text text-anchor="middle" x="1340.1" y="-382.3" font-family="Times,serif" font-size="14.00">name</text>
</g>
<!-- p62 -->
<g id="node65" class="node"><title>p62</title>
<ellipse fill="black" stroke="black" cx="1385.6" cy="-416" rx="3.6" ry="3.6"/>
</g>
<!-- p62&#45;&gt;p63 -->
<g id="edge71" class="edge"><title>p62&#45;&gt;p63</title>
<path fill="none" stroke="black" d="M1384.25,-412.416C1380.8,-406.009 1371.14,-389.111 1359.6,-378 1355.06,-373.626 1349.9,-369.479 1344.6,-365.673"/>
<polygon fill="black" stroke="black" points="1346.49,-362.724 1336.26,-359.986 1342.55,-368.509 1346.49,-362.724"/>
<text text-anchor="middle" x="1403.1" y="-382.3" font-family="Times,serif" font-size="14.00">description</text>
</g>
<!-- p69 -->
<g id="node67" class="node"><title>p69</title>
<ellipse fill="none" stroke="black" cx="1095.6" cy="-148" rx="237.344" ry="18"/>
<text text-anchor="middle" x="1095.6" y="-144.3" font-family="Times,serif" font-size="14.00">GRAPHTYPER_GENOTYPE_BAMS_01:MERGE_VERSION</text>
</g>
<!-- p65&#45;&gt;p69 -->
<g id="edge74" class="edge"><title>p65&#45;&gt;p69</title>
<path fill="none" stroke="black" d="M1039.32,-218.624C1043.63,-212.694 1055.29,-196.797 1065.6,-184 1068.25,-180.705 1071.09,-177.278 1073.93,-173.914"/>
<polygon fill="black" stroke="black" points="1076.62,-176.154 1080.43,-166.271 1071.29,-171.615 1076.62,-176.154"/>
</g>
<!-- p71 -->
<g id="node71" class="node"><title>p71</title>
<ellipse fill="none" stroke="black" cx="1281.6" cy="-60" rx="94.338" ry="18"/>
<text text-anchor="middle" x="1281.6" y="-56.3" font-family="Times,serif" font-size="14.00">VERSION_TO_HTML</text>
</g>
<!-- p69&#45;&gt;p71 -->
<g id="edge78" class="edge"><title>p69&#45;&gt;p71</title>
<path fill="none" stroke="black" d="M1132.35,-130.009C1162.8,-115.93 1206.13,-95.893 1238.27,-81.0339"/>
<polygon fill="black" stroke="black" points="1239.83,-84.1693 1247.44,-76.7956 1236.89,-77.8156 1239.83,-84.1693"/>
</g>
<!-- p66 -->
<g id="node68" class="node"><title>p66</title>
<ellipse fill="black" stroke="black" cx="1070.6" cy="-222" rx="3.6" ry="3.6"/>
</g>
<!-- p66&#45;&gt;p69 -->
<g id="edge75" class="edge"><title>p66&#45;&gt;p69</title>
<path fill="none" stroke="black" d="M1070.15,-218.218C1069.25,-211.931 1067.63,-196.223 1071.6,-184 1072.62,-180.847 1074.03,-177.72 1075.65,-174.709"/>
<polygon fill="black" stroke="black" points="1078.69,-176.449 1081,-166.109 1072.75,-172.754 1078.69,-176.449"/>
<text text-anchor="middle" x="1085.6" y="-188.3" font-family="Times,serif" font-size="14.00">meta</text>
</g>
<!-- p67 -->
<g id="node69" class="node"><title>p67</title>
<ellipse fill="black" stroke="black" cx="1121.6" cy="-222" rx="3.6" ry="3.6"/>
</g>
<!-- p67&#45;&gt;p69 -->
<g id="edge76" class="edge"><title>p67&#45;&gt;p69</title>
<path fill="none" stroke="black" d="M1120.61,-218.265C1118.09,-211.288 1111.21,-192.219 1105.3,-175.852"/>
<polygon fill="black" stroke="black" points="1108.48,-174.36 1101.79,-166.143 1101.9,-176.737 1108.48,-174.36"/>
<text text-anchor="middle" x="1130.1" y="-188.3" font-family="Times,serif" font-size="14.00">name</text>
</g>
<!-- p68 -->
<g id="node70" class="node"><title>p68</title>
<ellipse fill="black" stroke="black" cx="1175.6" cy="-222" rx="3.6" ry="3.6"/>
</g>
<!-- p68&#45;&gt;p69 -->
<g id="edge77" class="edge"><title>p68&#45;&gt;p69</title>
<path fill="none" stroke="black" d="M1174.25,-218.416C1170.8,-212.009 1161.14,-195.111 1149.6,-184 1145.06,-179.626 1139.9,-175.479 1134.6,-171.673"/>
<polygon fill="black" stroke="black" points="1136.49,-168.724 1126.26,-165.986 1132.55,-174.509 1136.49,-168.724"/>
<text text-anchor="middle" x="1193.1" y="-188.3" font-family="Times,serif" font-size="14.00">description</text>
</g>
<!-- p72 -->
<g id="node73" class="node"><title>p72</title>
<ellipse fill="black" stroke="black" cx="1281.6" cy="-2" rx="1.8" ry="1.8"/>
</g>
<!-- p71&#45;&gt;p72 -->
<g id="edge80" class="edge"><title>p71&#45;&gt;p72</title>
<path fill="none" stroke="black" d="M1281.6,-41.8939C1281.6,-32.8876 1281.6,-22.0999 1281.6,-14.1727"/>
<polygon fill="black" stroke="black" points="1285.1,-13.9957 1281.6,-3.99575 1278.1,-13.9958 1285.1,-13.9957"/>
</g>
<!-- p70 -->
<g id="node72" class="node"><title>p70</title>
<ellipse fill="black" stroke="black" cx="1354.6" cy="-148" rx="3.6" ry="3.6"/>
</g>
<!-- p70&#45;&gt;p71 -->
<g id="edge79" class="edge"><title>p70&#45;&gt;p71</title>
<path fill="none" stroke="black" d="M1352.8,-144.542C1350.33,-141.202 1345.73,-135.067 1341.6,-130 1329.38,-115.026 1315.22,-98.6902 1303.72,-85.674"/>
<polygon fill="black" stroke="black" points="1306.2,-83.1973 1296.95,-78.0405 1300.97,-87.8434 1306.2,-83.1973"/>
<text text-anchor="middle" x="1339.6" y="-100.3" font-family="Times,serif" font-size="14.00">meta</text>
</g>
</g>
</svg>
