<?xml version="1.0" encoding="UTF-8" standalone="no"?>
<!DOCTYPE svg PUBLIC "-//W3C//DTD SVG 1.1//EN"
 "http://www.w3.org/Graphics/SVG/1.1/DTD/svg11.dtd">
<!-- Generated by graphviz version 2.30.1 (20201013.1554)
 -->
<!-- Title: 20220712rotavirusststatsworkflow Pages: 1 -->
<svg width="1021pt" height="1232pt"
 viewBox="0.00 0.00 1020.60 1232.00" xmlns="http://www.w3.org/2000/svg" xmlns:xlink="http://www.w3.org/1999/xlink">
<g id="graph0" class="graph" transform="scale(1 1) rotate(0) translate(4 1228)">
<title>20220712rotavirusststatsworkflow</title>
<polygon fill="white" stroke="white" points="-4,5 -4,-1228 1017.6,-1228 1017.6,5 -4,5"/>
<!-- p0 -->
<g id="node1" class="node"><title>p0</title>
<ellipse fill="black" stroke="black" cx="87.6" cy="-610" rx="3.6" ry="3.6"/>
<text text-anchor="middle" x="42" y="-617.4" font-family="Times,serif" font-size="14.00">Channel.empty</text>
</g>
<!-- p22 -->
<g id="node2" class="node"><title>p22</title>
<ellipse fill="none" stroke="black" cx="393.6" cy="-536" rx="3.25" ry="3.5"/>
<text text-anchor="middle" x="379.1" y="-543.3" font-family="Times,serif" font-size="14.00">mix</text>
</g>
<!-- p0&#45;&gt;p22 -->
<g id="edge1" class="edge"><title>p0&#45;&gt;p22</title>
<path fill="none" stroke="black" d="M88.725,-606.573C90.6093,-602.798 94.7781,-595.584 100.6,-592 148.851,-562.301 328.88,-543.173 379.991,-538.257"/>
<polygon fill="black" stroke="black" points="380.605,-541.715 390.236,-537.299 379.953,-534.745 380.605,-541.715"/>
<text text-anchor="middle" x="250.1" y="-562.3" font-family="Times,serif" font-size="14.00">version_ch</text>
</g>
<!-- p27 -->
<g id="node25" class="node"><title>p27</title>
<ellipse fill="none" stroke="black" cx="544.6" cy="-476" rx="3.25" ry="3.5"/>
<text text-anchor="middle" x="530.1" y="-483.3" font-family="Times,serif" font-size="14.00">mix</text>
</g>
<!-- p22&#45;&gt;p27 -->
<g id="edge26" class="edge"><title>p22&#45;&gt;p27</title>
<path fill="none" stroke="black" d="M396.482,-533.893C413.402,-527.394 500.198,-494.055 532.484,-481.654"/>
<polygon fill="black" stroke="black" points="533.849,-484.879 541.929,-478.026 531.339,-478.344 533.849,-484.879"/>
<text text-anchor="middle" x="517.1" y="-502.3" font-family="Times,serif" font-size="14.00">version_ch</text>
</g>
<!-- p1 -->
<g id="node3" class="node"><title>p1</title>
<ellipse fill="black" stroke="black" cx="430.6" cy="-1146" rx="3.6" ry="3.6"/>
<text text-anchor="middle" x="385" y="-1153.4" font-family="Times,serif" font-size="14.00">Channel.empty</text>
</g>
<!-- p5 -->
<g id="node4" class="node"><title>p5</title>
<ellipse fill="none" stroke="black" cx="430.6" cy="-1072" rx="3.25" ry="3.5"/>
<text text-anchor="middle" x="416.1" y="-1079.3" font-family="Times,serif" font-size="14.00">mix</text>
</g>
<!-- p1&#45;&gt;p5 -->
<g id="edge2" class="edge"><title>p1&#45;&gt;p5</title>
<path fill="none" stroke="black" d="M430.6,-1142.27C430.6,-1133.13 430.6,-1103.28 430.6,-1085.89"/>
<polygon fill="black" stroke="black" points="434.1,-1085.74 430.6,-1075.74 427.1,-1085.74 434.1,-1085.74"/>
<text text-anchor="middle" x="460.1" y="-1098.3" font-family="Times,serif" font-size="14.00">version_ch</text>
</g>
<!-- p12 -->
<g id="node9" class="node"><title>p12</title>
<ellipse fill="none" stroke="black" cx="429.6" cy="-892" rx="3.25" ry="3.5"/>
<text text-anchor="middle" x="415.1" y="-899.3" font-family="Times,serif" font-size="14.00">mix</text>
</g>
<!-- p5&#45;&gt;p12 -->
<g id="edge7" class="edge"><title>p5&#45;&gt;p12</title>
<path fill="none" stroke="black" d="M430.586,-1068.48C430.486,-1050.72 429.886,-943.83 429.674,-906.142"/>
<polygon fill="black" stroke="black" points="433.171,-905.661 429.615,-895.681 426.171,-905.7 433.171,-905.661"/>
<text text-anchor="middle" x="460.1" y="-992.3" font-family="Times,serif" font-size="14.00">version_ch</text>
</g>
<!-- p2 -->
<g id="node5" class="node"><title>p2</title>
<ellipse fill="black" stroke="black" cx="681.6" cy="-1220" rx="3.6" ry="3.6"/>
</g>
<!-- p4 -->
<g id="node6" class="node"><title>p4</title>
<ellipse fill="none" stroke="black" cx="707.6" cy="-1146" rx="255.141" ry="18"/>
<text text-anchor="middle" x="707.6" y="-1142.3" font-family="Times,serif" font-size="14.00">SAMTOOLS_STATS_01:SAMTOOLS_SAMPLES_01:SQRT_FILE</text>
</g>
<!-- p2&#45;&gt;p4 -->
<g id="edge3" class="edge"><title>p2&#45;&gt;p4</title>
<path fill="none" stroke="black" d="M681.829,-1216.23C682.408,-1209.97 684.213,-1194.32 688.6,-1182 689.634,-1179.1 690.883,-1176.15 692.242,-1173.25"/>
<polygon fill="black" stroke="black" points="695.377,-1174.81 696.826,-1164.31 689.148,-1171.61 695.377,-1174.81"/>
<text text-anchor="middle" x="702.6" y="-1186.3" font-family="Times,serif" font-size="14.00">meta</text>
</g>
<!-- p6 -->
<g id="node8" class="node"><title>p6</title>
<ellipse fill="none" stroke="black" cx="708.6" cy="-1072" rx="3.25" ry="3.5"/>
<text text-anchor="middle" x="682.1" y="-1079.3" font-family="Times,serif" font-size="14.00">splitText</text>
</g>
<!-- p4&#45;&gt;p6 -->
<g id="edge5" class="edge"><title>p4&#45;&gt;p6</title>
<path fill="none" stroke="black" d="M707.837,-1127.94C708.015,-1115.13 708.255,-1097.84 708.418,-1086.11"/>
<polygon fill="black" stroke="black" points="711.923,-1085.8 708.562,-1075.75 704.923,-1085.7 711.923,-1085.8"/>
</g>
<!-- p4&#45;&gt;p5 -->
<g id="edge6" class="edge"><title>p4&#45;&gt;p5</title>
<path fill="none" stroke="black" d="M644.051,-1128.48C578.044,-1111.32 479.535,-1085.72 443.992,-1076.48"/>
<polygon fill="black" stroke="black" points="444.481,-1072.99 433.922,-1073.86 442.72,-1079.77 444.481,-1072.99"/>
</g>
<!-- p3 -->
<g id="node7" class="node"><title>p3</title>
<ellipse fill="black" stroke="black" cx="732.6" cy="-1220" rx="3.6" ry="3.6"/>
</g>
<!-- p3&#45;&gt;p4 -->
<g id="edge4" class="edge"><title>p3&#45;&gt;p4</title>
<path fill="none" stroke="black" d="M731.65,-1216.27C729.228,-1209.29 722.607,-1190.22 716.924,-1173.85"/>
<polygon fill="black" stroke="black" points="720.139,-1172.44 713.552,-1164.14 713.526,-1174.74 720.139,-1172.44"/>
<text text-anchor="middle" x="739.6" y="-1186.3" font-family="Times,serif" font-size="14.00">filein</text>
</g>
<!-- p7 -->
<g id="node10" class="node"><title>p7</title>
<ellipse fill="none" stroke="black" cx="712.6" cy="-1026" rx="3.25" ry="3.5"/>
<text text-anchor="middle" x="696.6" y="-1033.3" font-family="Times,serif" font-size="14.00">map</text>
</g>
<!-- p6&#45;&gt;p7 -->
<g id="edge8" class="edge"><title>p6&#45;&gt;p7</title>
<path fill="none" stroke="black" d="M708.838,-1068.38C709.34,-1062.86 710.533,-1049.74 711.442,-1039.74"/>
<polygon fill="black" stroke="black" points="714.948,-1039.83 712.368,-1029.55 707.977,-1039.19 714.948,-1039.83"/>
</g>
<!-- p16 -->
<g id="node16" class="node"><title>p16</title>
<ellipse fill="none" stroke="black" cx="423.6" cy="-744" rx="3.25" ry="3.5"/>
<text text-anchor="middle" x="409.1" y="-751.3" font-family="Times,serif" font-size="14.00">mix</text>
</g>
<!-- p12&#45;&gt;p16 -->
<g id="edge15" class="edge"><title>p12&#45;&gt;p16</title>
<path fill="none" stroke="black" d="M429.496,-888.466C428.856,-872.891 425.439,-789.746 424.12,-757.652"/>
<polygon fill="black" stroke="black" points="427.615,-757.452 423.707,-747.604 420.621,-757.739 427.615,-757.452"/>
<text text-anchor="middle" x="457.1" y="-814.3" font-family="Times,serif" font-size="14.00">version_ch</text>
</g>
<!-- p11 -->
<g id="node11" class="node"><title>p11</title>
<ellipse fill="none" stroke="black" cx="717.6" cy="-952" rx="259.465" ry="18"/>
<text text-anchor="middle" x="717.6" y="-948.3" font-family="Times,serif" font-size="14.00">SAMTOOLS_STATS_01:SAMTOOLS_SAMPLES_01:ST_SAMPLE</text>
</g>
<!-- p7&#45;&gt;p11 -->
<g id="edge9" class="edge"><title>p7&#45;&gt;p11</title>
<path fill="none" stroke="black" d="M712.79,-1022.27C713.27,-1015.35 714.574,-996.578 715.703,-980.316"/>
<polygon fill="black" stroke="black" points="719.208,-980.361 716.41,-970.143 712.225,-979.876 719.208,-980.361"/>
<text text-anchor="middle" x="742.1" y="-992.3" font-family="Times,serif" font-size="14.00">chunk_ch</text>
</g>
<!-- p13 -->
<g id="node15" class="node"><title>p13</title>
<ellipse fill="none" stroke="black" cx="733.6" cy="-892" rx="3.25" ry="3.5"/>
<text text-anchor="middle" x="711.6" y="-899.3" font-family="Times,serif" font-size="14.00">collect</text>
</g>
<!-- p11&#45;&gt;p13 -->
<g id="edge13" class="edge"><title>p11&#45;&gt;p13</title>
<path fill="none" stroke="black" d="M722.314,-933.912C724.841,-924.752 727.897,-913.673 730.192,-905.355"/>
<polygon fill="black" stroke="black" points="733.572,-906.261 732.858,-895.691 726.824,-904.4 733.572,-906.261"/>
</g>
<!-- p11&#45;&gt;p12 -->
<g id="edge14" class="edge"><title>p11&#45;&gt;p12</title>
<path fill="none" stroke="black" d="M637.376,-934.844C568.897,-921.053 476.303,-902.406 442.572,-895.613"/>
<polygon fill="black" stroke="black" points="443.194,-892.167 432.7,-893.624 441.812,-899.03 443.194,-892.167"/>
</g>
<!-- p8 -->
<g id="node12" class="node"><title>p8</title>
<ellipse fill="black" stroke="black" cx="793.6" cy="-1026" rx="3.6" ry="3.6"/>
</g>
<!-- p8&#45;&gt;p11 -->
<g id="edge10" class="edge"><title>p8&#45;&gt;p11</title>
<path fill="none" stroke="black" d="M792.554,-1022.4C789.864,-1015.96 782.17,-998.987 771.6,-988 767.432,-983.668 762.63,-979.61 757.645,-975.903"/>
<polygon fill="black" stroke="black" points="759.372,-972.841 749.162,-970.01 755.378,-978.59 759.372,-972.841"/>
<text text-anchor="middle" x="797.6" y="-992.3" font-family="Times,serif" font-size="14.00">meta</text>
</g>
<!-- p9 -->
<g id="node13" class="node"><title>p9</title>
<ellipse fill="black" stroke="black" cx="566.6" cy="-1026" rx="3.6" ry="3.6"/>
</g>
<!-- p9&#45;&gt;p11 -->
<g id="edge11" class="edge"><title>p9&#45;&gt;p11</title>
<path fill="none" stroke="black" d="M567.764,-1022.19C570.778,-1015.25 579.524,-997.249 592.6,-988 601.175,-981.935 610.77,-976.918 620.731,-972.769"/>
<polygon fill="black" stroke="black" points="622.3,-975.915 630.371,-969.051 619.781,-969.384 622.3,-975.915"/>
<text text-anchor="middle" x="617.6" y="-992.3" font-family="Times,serif" font-size="14.00">reference</text>
</g>
<!-- p10 -->
<g id="node14" class="node"><title>p10</title>
<ellipse fill="black" stroke="black" cx="639.6" cy="-1026" rx="3.6" ry="3.6"/>
</g>
<!-- p10&#45;&gt;p11 -->
<g id="edge12" class="edge"><title>p10&#45;&gt;p11</title>
<path fill="none" stroke="black" d="M640.13,-1022.35C641.561,-1015.81 646.052,-998.615 655.6,-988 659.831,-983.296 664.849,-979.074 670.17,-975.329"/>
<polygon fill="black" stroke="black" points="672.193,-978.189 678.711,-969.836 668.407,-972.301 672.193,-978.189"/>
<text text-anchor="middle" x="683.1" y="-992.3" font-family="Times,serif" font-size="14.00">references</text>
</g>
<!-- p15 -->
<g id="node17" class="node"><title>p15</title>
<ellipse fill="none" stroke="black" cx="742.6" cy="-818" rx="241.168" ry="18"/>
<text text-anchor="middle" x="742.6" y="-814.3" font-family="Times,serif" font-size="14.00">SAMTOOLS_STATS_01:SAMTOOLS_SAMPLES_01:DIGEST</text>
</g>
<!-- p13&#45;&gt;p15 -->
<g id="edge16" class="edge"><title>p13&#45;&gt;p15</title>
<path fill="none" stroke="black" d="M733.942,-888.265C734.806,-881.354 737.153,-862.578 739.185,-846.316"/>
<polygon fill="black" stroke="black" points="742.69,-846.5 740.457,-836.143 735.744,-845.632 742.69,-846.5"/>
</g>
<!-- p17 -->
<g id="node20" class="node"><title>p17</title>
<ellipse fill="none" stroke="black" cx="397.6" cy="-684" rx="3.25" ry="3.5"/>
<text text-anchor="middle" x="375.6" y="-691.3" font-family="Times,serif" font-size="14.00">collect</text>
</g>
<!-- p16&#45;&gt;p17 -->
<g id="edge20" class="edge"><title>p16&#45;&gt;p17</title>
<path fill="none" stroke="black" d="M422.483,-740.508C419.142,-733.054 409.071,-710.589 402.813,-696.628"/>
<polygon fill="black" stroke="black" points="405.968,-695.112 398.684,-687.418 399.581,-697.975 405.968,-695.112"/>
<text text-anchor="middle" x="444.1" y="-710.3" font-family="Times,serif" font-size="14.00">version_ch</text>
</g>
<!-- p23 -->
<g id="node19" class="node"><title>p23</title>
<ellipse fill="none" stroke="black" cx="746.6" cy="-744" rx="3.25" ry="3.5"/>
<text text-anchor="middle" x="720.6" y="-751.3" font-family="Times,serif" font-size="14.00">splitCsv</text>
</g>
<!-- p15&#45;&gt;p23 -->
<g id="edge18" class="edge"><title>p15&#45;&gt;p23</title>
<path fill="none" stroke="black" d="M743.548,-799.937C744.26,-787.126 745.22,-769.843 745.872,-758.107"/>
<polygon fill="black" stroke="black" points="749.387,-757.927 746.447,-747.748 742.398,-757.539 749.387,-757.927"/>
<text text-anchor="middle" x="763.1" y="-770.3" font-family="Times,serif" font-size="14.00">output</text>
</g>
<!-- p15&#45;&gt;p16 -->
<g id="edge19" class="edge"><title>p15&#45;&gt;p16</title>
<path fill="none" stroke="black" d="M670.612,-800.752C593.016,-783.238 475.397,-756.691 436.552,-747.923"/>
<polygon fill="black" stroke="black" points="437.096,-744.458 426.57,-745.67 435.554,-751.286 437.096,-744.458"/>
</g>
<!-- p14 -->
<g id="node18" class="node"><title>p14</title>
<ellipse fill="black" stroke="black" cx="699.6" cy="-892" rx="3.6" ry="3.6"/>
</g>
<!-- p14&#45;&gt;p15 -->
<g id="edge17" class="edge"><title>p14&#45;&gt;p15</title>
<path fill="none" stroke="black" d="M699.353,-888.113C698.927,-881.613 698.609,-865.497 704.6,-854 706.558,-850.242 709.089,-846.679 711.912,-843.366"/>
<polygon fill="black" stroke="black" points="714.479,-845.747 718.904,-836.12 709.442,-840.886 714.479,-845.747"/>
<text text-anchor="middle" x="718.6" y="-858.3" font-family="Times,serif" font-size="14.00">meta</text>
</g>
<!-- p24 -->
<g id="node26" class="node"><title>p24</title>
<ellipse fill="none" stroke="black" cx="758.6" cy="-684" rx="3.25" ry="3.5"/>
<text text-anchor="middle" x="742.6" y="-691.3" font-family="Times,serif" font-size="14.00">map</text>
</g>
<!-- p23&#45;&gt;p24 -->
<g id="edge27" class="edge"><title>p23&#45;&gt;p24</title>
<path fill="none" stroke="black" d="M747.116,-740.508C748.613,-733.27 753.04,-711.875 755.939,-697.86"/>
<polygon fill="black" stroke="black" points="759.447,-698.183 758.045,-687.681 752.592,-696.765 759.447,-698.183"/>
</g>
<!-- p21 -->
<g id="node21" class="node"><title>p21</title>
<ellipse fill="none" stroke="black" cx="393.6" cy="-610" rx="284.037" ry="18"/>
<text text-anchor="middle" x="393.6" y="-606.3" font-family="Times,serif" font-size="14.00">SAMTOOLS_STATS_01:SAMTOOLS_SAMPLES_01:MERGE_VERSION</text>
</g>
<!-- p17&#45;&gt;p21 -->
<g id="edge21" class="edge"><title>p17&#45;&gt;p21</title>
<path fill="none" stroke="black" d="M397.448,-680.265C397.064,-673.354 396.021,-654.578 395.118,-638.316"/>
<polygon fill="black" stroke="black" points="398.602,-637.933 394.552,-628.143 391.613,-638.322 398.602,-637.933"/>
</g>
<!-- p21&#45;&gt;p22 -->
<g id="edge25" class="edge"><title>p21&#45;&gt;p22</title>
<path fill="none" stroke="black" d="M393.6,-591.937C393.6,-579.126 393.6,-561.843 393.6,-550.107"/>
<polygon fill="black" stroke="black" points="397.1,-549.748 393.6,-539.748 390.1,-549.748 397.1,-549.748"/>
</g>
<!-- p18 -->
<g id="node22" class="node"><title>p18</title>
<ellipse fill="black" stroke="black" cx="426.6" cy="-684" rx="3.6" ry="3.6"/>
</g>
<!-- p18&#45;&gt;p21 -->
<g id="edge22" class="edge"><title>p18&#45;&gt;p21</title>
<path fill="none" stroke="black" d="M425.347,-680.265C422.119,-673.222 413.244,-653.859 405.695,-637.39"/>
<polygon fill="black" stroke="black" points="408.805,-635.775 401.457,-628.143 402.442,-638.692 408.805,-635.775"/>
<text text-anchor="middle" x="431.6" y="-650.3" font-family="Times,serif" font-size="14.00">meta</text>
</g>
<!-- p19 -->
<g id="node23" class="node"><title>p19</title>
<ellipse fill="black" stroke="black" cx="477.6" cy="-684" rx="3.6" ry="3.6"/>
</g>
<!-- p19&#45;&gt;p21 -->
<g id="edge23" class="edge"><title>p19&#45;&gt;p21</title>
<path fill="none" stroke="black" d="M476.105,-680.413C472.307,-674.001 461.727,-657.091 449.6,-646 444.825,-641.633 439.434,-637.491 433.93,-633.686"/>
<polygon fill="black" stroke="black" points="435.543,-630.558 425.261,-628.001 431.704,-636.412 435.543,-630.558"/>
<text text-anchor="middle" x="479.1" y="-650.3" font-family="Times,serif" font-size="14.00">name</text>
</g>
<!-- p20 -->
<g id="node24" class="node"><title>p20</title>
<ellipse fill="black" stroke="black" cx="317.6" cy="-684" rx="3.6" ry="3.6"/>
</g>
<!-- p20&#45;&gt;p21 -->
<g id="edge24" class="edge"><title>p20&#45;&gt;p21</title>
<path fill="none" stroke="black" d="M317.883,-680.354C318.706,-673.808 321.644,-656.616 330.6,-646 334.476,-641.405 339.117,-637.302 344.098,-633.668"/>
<polygon fill="black" stroke="black" points="346.297,-636.411 352.728,-627.991 342.45,-630.563 346.297,-636.411"/>
<text text-anchor="middle" x="361.1" y="-650.3" font-family="Times,serif" font-size="14.00">description</text>
</g>
<!-- p32 -->
<g id="node30" class="node"><title>p32</title>
<ellipse fill="none" stroke="black" cx="560.6" cy="-342" rx="3.25" ry="3.5"/>
<text text-anchor="middle" x="546.1" y="-349.3" font-family="Times,serif" font-size="14.00">mix</text>
</g>
<!-- p27&#45;&gt;p32 -->
<g id="edge32" class="edge"><title>p27&#45;&gt;p32</title>
<path fill="none" stroke="black" d="M544.785,-472.459C545.583,-461.711 548.897,-418.929 553.6,-384 554.89,-374.419 556.745,-363.647 558.222,-355.549"/>
<polygon fill="black" stroke="black" points="561.688,-356.055 560.094,-345.581 554.808,-354.762 561.688,-356.055"/>
<text text-anchor="middle" x="583.1" y="-398.3" font-family="Times,serif" font-size="14.00">version_ch</text>
</g>
<!-- p26 -->
<g id="node27" class="node"><title>p26</title>
<ellipse fill="none" stroke="black" cx="839.6" cy="-610" rx="143.931" ry="18"/>
<text text-anchor="middle" x="839.6" y="-606.3" font-family="Times,serif" font-size="14.00">SAMTOOLS_STATS_01:ST_STATS</text>
</g>
<!-- p24&#45;&gt;p26 -->
<g id="edge28" class="edge"><title>p24&#45;&gt;p26</title>
<path fill="none" stroke="black" d="M760.602,-681.22C767.786,-674.835 792.895,-652.515 812.902,-634.732"/>
<polygon fill="black" stroke="black" points="815.396,-637.197 820.545,-627.938 810.746,-631.965 815.396,-637.197"/>
</g>
<!-- p28 -->
<g id="node29" class="node"><title>p28</title>
<ellipse fill="none" stroke="black" cx="839.6" cy="-536" rx="3.25" ry="3.5"/>
<text text-anchor="middle" x="823.6" y="-543.3" font-family="Times,serif" font-size="14.00">map</text>
</g>
<!-- p26&#45;&gt;p28 -->
<g id="edge30" class="edge"><title>p26&#45;&gt;p28</title>
<path fill="none" stroke="black" d="M839.6,-591.937C839.6,-579.126 839.6,-561.843 839.6,-550.107"/>
<polygon fill="black" stroke="black" points="843.1,-549.748 839.6,-539.748 836.1,-549.748 843.1,-549.748"/>
</g>
<!-- p26&#45;&gt;p27 -->
<g id="edge31" class="edge"><title>p26&#45;&gt;p27</title>
<path fill="none" stroke="black" d="M802.835,-592.549C736.201,-562.733 598.517,-501.125 556.826,-482.471"/>
<polygon fill="black" stroke="black" points="558.004,-479.163 547.446,-478.274 555.145,-485.553 558.004,-479.163"/>
</g>
<!-- p25 -->
<g id="node28" class="node"><title>p25</title>
<ellipse fill="black" stroke="black" cx="839.6" cy="-684" rx="3.6" ry="3.6"/>
</g>
<!-- p25&#45;&gt;p26 -->
<g id="edge29" class="edge"><title>p25&#45;&gt;p26</title>
<path fill="none" stroke="black" d="M839.6,-680.265C839.6,-673.354 839.6,-654.578 839.6,-638.316"/>
<polygon fill="black" stroke="black" points="843.1,-638.143 839.6,-628.143 836.1,-638.143 843.1,-638.143"/>
<text text-anchor="middle" x="853.6" y="-650.3" font-family="Times,serif" font-size="14.00">meta</text>
</g>
<!-- p29 -->
<g id="node31" class="node"><title>p29</title>
<ellipse fill="none" stroke="black" cx="839.6" cy="-476" rx="3.25" ry="3.5"/>
<text text-anchor="middle" x="817.6" y="-483.3" font-family="Times,serif" font-size="14.00">collect</text>
</g>
<!-- p28&#45;&gt;p29 -->
<g id="edge33" class="edge"><title>p28&#45;&gt;p29</title>
<path fill="none" stroke="black" d="M839.6,-532.203C839.6,-524.649 839.6,-503.48 839.6,-489.66"/>
<polygon fill="black" stroke="black" points="843.1,-489.636 839.6,-479.636 836.1,-489.636 843.1,-489.636"/>
</g>
<!-- p37 -->
<g id="node35" class="node"><title>p37</title>
<ellipse fill="none" stroke="black" cx="617.6" cy="-194" rx="3.25" ry="3.5"/>
<text text-anchor="middle" x="603.1" y="-201.3" font-family="Times,serif" font-size="14.00">mix</text>
</g>
<!-- p32&#45;&gt;p37 -->
<g id="edge38" class="edge"><title>p32&#45;&gt;p37</title>
<path fill="none" stroke="black" d="M560.294,-338.323C559.117,-327.026 555.614,-282.35 569.6,-250 578.002,-230.566 595.88,-213.074 607.288,-203.265"/>
<polygon fill="black" stroke="black" points="609.713,-205.804 615.246,-196.768 605.286,-200.381 609.713,-205.804"/>
<text text-anchor="middle" x="599.1" y="-264.3" font-family="Times,serif" font-size="14.00">version_ch</text>
</g>
<!-- p31 -->
<g id="node32" class="node"><title>p31</title>
<ellipse fill="none" stroke="black" cx="817.6" cy="-402" rx="195.449" ry="18"/>
<text text-anchor="middle" x="817.6" y="-398.3" font-family="Times,serif" font-size="14.00">SAMTOOLS_STATS_01:COLLECT_TO_FILE_01</text>
</g>
<!-- p29&#45;&gt;p31 -->
<g id="edge34" class="edge"><title>p29&#45;&gt;p31</title>
<path fill="none" stroke="black" d="M838.764,-472.265C836.633,-465.288 830.806,-446.219 825.805,-429.852"/>
<polygon fill="black" stroke="black" points="829.108,-428.684 822.838,-420.143 822.413,-430.729 829.108,-428.684"/>
</g>
<!-- p33 -->
<g id="node34" class="node"><title>p33</title>
<ellipse fill="none" stroke="black" cx="817.6" cy="-342" rx="3.25" ry="3.5"/>
<text text-anchor="middle" x="801.6" y="-349.3" font-family="Times,serif" font-size="14.00">map</text>
</g>
<!-- p31&#45;&gt;p33 -->
<g id="edge36" class="edge"><title>p31&#45;&gt;p33</title>
<path fill="none" stroke="black" d="M817.6,-383.912C817.6,-374.965 817.6,-364.187 817.6,-355.94"/>
<polygon fill="black" stroke="black" points="821.1,-355.691 817.6,-345.691 814.1,-355.691 821.1,-355.691"/>
</g>
<!-- p31&#45;&gt;p32 -->
<g id="edge37" class="edge"><title>p31&#45;&gt;p32</title>
<path fill="none" stroke="black" d="M747.374,-385.151C687.026,-371.532 604.924,-353.003 573.53,-345.918"/>
<polygon fill="black" stroke="black" points="574.157,-342.471 563.631,-343.684 572.615,-349.3 574.157,-342.471"/>
</g>
<!-- p30 -->
<g id="node33" class="node"><title>p30</title>
<ellipse fill="black" stroke="black" cx="796.6" cy="-476" rx="3.6" ry="3.6"/>
</g>
<!-- p30&#45;&gt;p31 -->
<g id="edge35" class="edge"><title>p30&#45;&gt;p31</title>
<path fill="none" stroke="black" d="M796.225,-472.24C795.473,-465.997 794.134,-450.376 797.6,-438 798.441,-434.997 799.595,-431.979 800.928,-429.042"/>
<polygon fill="black" stroke="black" points="804.096,-430.538 805.63,-420.055 797.893,-427.293 804.096,-430.538"/>
<text text-anchor="middle" x="811.6" y="-442.3" font-family="Times,serif" font-size="14.00">meta</text>
</g>
<!-- p35 -->
<g id="node36" class="node"><title>p35</title>
<ellipse fill="none" stroke="black" cx="794.6" cy="-268" rx="156.93" ry="18"/>
<text text-anchor="middle" x="794.6" y="-264.3" font-family="Times,serif" font-size="14.00">SAMTOOLS_STATS_01:MULTIQC_01</text>
</g>
<!-- p33&#45;&gt;p35 -->
<g id="edge39" class="edge"><title>p33&#45;&gt;p35</title>
<path fill="none" stroke="black" d="M816.726,-338.265C814.498,-331.288 808.406,-312.219 803.178,-295.852"/>
<polygon fill="black" stroke="black" points="806.453,-294.604 800.076,-286.143 799.785,-296.734 806.453,-294.604"/>
</g>
<!-- p38 -->
<g id="node39" class="node"><title>p38</title>
<ellipse fill="none" stroke="black" cx="617.6" cy="-134" rx="3.25" ry="3.5"/>
<text text-anchor="middle" x="595.6" y="-141.3" font-family="Times,serif" font-size="14.00">collect</text>
</g>
<!-- p37&#45;&gt;p38 -->
<g id="edge43" class="edge"><title>p37&#45;&gt;p38</title>
<path fill="none" stroke="black" d="M617.6,-190.203C617.6,-182.649 617.6,-161.48 617.6,-147.66"/>
<polygon fill="black" stroke="black" points="621.1,-147.636 617.6,-137.636 614.1,-147.636 621.1,-147.636"/>
<text text-anchor="middle" x="647.1" y="-160.3" font-family="Times,serif" font-size="14.00">version_ch</text>
</g>
<!-- p36 -->
<g id="node38" class="node"><title>p36</title>
<ellipse fill="black" stroke="black" cx="794.6" cy="-194" rx="1.8" ry="1.8"/>
</g>
<!-- p35&#45;&gt;p36 -->
<g id="edge41" class="edge"><title>p35&#45;&gt;p36</title>
<path fill="none" stroke="black" d="M794.6,-249.937C794.6,-236.37 794.6,-217.787 794.6,-206.089"/>
<polygon fill="black" stroke="black" points="798.1,-205.849 794.6,-195.849 791.1,-205.849 798.1,-205.849"/>
<text text-anchor="middle" x="827.6" y="-220.3" font-family="Times,serif" font-size="14.00">multiqc_zip</text>
</g>
<!-- p35&#45;&gt;p37 -->
<g id="edge42" class="edge"><title>p35&#45;&gt;p37</title>
<path fill="none" stroke="black" d="M753.993,-250.482C713.997,-234.212 655.325,-210.346 629.996,-200.042"/>
<polygon fill="black" stroke="black" points="631.05,-196.693 620.468,-196.167 628.412,-203.177 631.05,-196.693"/>
</g>
<!-- p34 -->
<g id="node37" class="node"><title>p34</title>
<ellipse fill="black" stroke="black" cx="774.6" cy="-342" rx="3.6" ry="3.6"/>
</g>
<!-- p34&#45;&gt;p35 -->
<g id="edge40" class="edge"><title>p34&#45;&gt;p35</title>
<path fill="none" stroke="black" d="M774.244,-338.245C773.532,-332.014 772.269,-316.413 775.6,-304 776.399,-301.024 777.495,-298.024 778.761,-295.098"/>
<polygon fill="black" stroke="black" points="781.905,-296.636 783.228,-286.124 775.638,-293.517 781.905,-296.636"/>
<text text-anchor="middle" x="789.6" y="-308.3" font-family="Times,serif" font-size="14.00">meta</text>
</g>
<!-- p42 -->
<g id="node40" class="node"><title>p42</title>
<ellipse fill="none" stroke="black" cx="675.6" cy="-60" rx="176.177" ry="18"/>
<text text-anchor="middle" x="675.6" y="-56.3" font-family="Times,serif" font-size="14.00">SAMTOOLS_STATS_01:MERGE_VERSION</text>
</g>
<!-- p38&#45;&gt;p42 -->
<g id="edge44" class="edge"><title>p38&#45;&gt;p42</title>
<path fill="none" stroke="black" d="M619.32,-130.624C623.631,-124.694 635.29,-108.797 645.6,-96 648.255,-92.7049 651.093,-89.2778 653.925,-85.9139"/>
<polygon fill="black" stroke="black" points="656.615,-88.1536 660.434,-78.2711 651.286,-83.6149 656.615,-88.1536"/>
</g>
<!-- p43 -->
<g id="node44" class="node"><title>p43</title>
<ellipse fill="black" stroke="black" cx="675.6" cy="-2" rx="1.8" ry="1.8"/>
</g>
<!-- p42&#45;&gt;p43 -->
<g id="edge48" class="edge"><title>p42&#45;&gt;p43</title>
<path fill="none" stroke="black" d="M675.6,-41.8939C675.6,-32.8876 675.6,-22.0999 675.6,-14.1727"/>
<polygon fill="black" stroke="black" points="679.1,-13.9957 675.6,-3.99575 672.1,-13.9958 679.1,-13.9957"/>
</g>
<!-- p39 -->
<g id="node41" class="node"><title>p39</title>
<ellipse fill="black" stroke="black" cx="650.6" cy="-134" rx="3.6" ry="3.6"/>
</g>
<!-- p39&#45;&gt;p42 -->
<g id="edge45" class="edge"><title>p39&#45;&gt;p42</title>
<path fill="none" stroke="black" d="M650.153,-130.218C649.253,-123.931 647.63,-108.223 651.6,-96 652.624,-92.8467 654.03,-89.7205 655.651,-86.7093"/>
<polygon fill="black" stroke="black" points="658.691,-88.4495 660.997,-78.1087 652.745,-84.7542 658.691,-88.4495"/>
<text text-anchor="middle" x="665.6" y="-100.3" font-family="Times,serif" font-size="14.00">meta</text>
</g>
<!-- p40 -->
<g id="node42" class="node"><title>p40</title>
<ellipse fill="black" stroke="black" cx="701.6" cy="-134" rx="3.6" ry="3.6"/>
</g>
<!-- p40&#45;&gt;p42 -->
<g id="edge46" class="edge"><title>p40&#45;&gt;p42</title>
<path fill="none" stroke="black" d="M700.613,-130.265C698.093,-123.288 691.207,-104.219 685.297,-87.8523"/>
<polygon fill="black" stroke="black" points="688.479,-86.3597 681.79,-78.1429 681.895,-88.7372 688.479,-86.3597"/>
<text text-anchor="middle" x="710.1" y="-100.3" font-family="Times,serif" font-size="14.00">name</text>
</g>
<!-- p41 -->
<g id="node43" class="node"><title>p41</title>
<ellipse fill="black" stroke="black" cx="755.6" cy="-134" rx="3.6" ry="3.6"/>
</g>
<!-- p41&#45;&gt;p42 -->
<g id="edge47" class="edge"><title>p41&#45;&gt;p42</title>
<path fill="none" stroke="black" d="M754.245,-130.416C750.796,-124.009 741.135,-107.111 729.6,-96 725.006,-91.575 719.775,-87.3829 714.42,-83.5399"/>
<polygon fill="black" stroke="black" points="716.215,-80.5282 705.977,-77.8049 712.282,-86.3189 716.215,-80.5282"/>
<text text-anchor="middle" x="773.1" y="-100.3" font-family="Times,serif" font-size="14.00">description</text>
</g>
</g>
</svg>
