<?xml version="1.0" encoding="UTF-8" standalone="no"?>
<!DOCTYPE svg PUBLIC "-//W3C//DTD SVG 1.1//EN"
 "http://www.w3.org/Graphics/SVG/1.1/DTD/svg11.dtd">
<!-- Generated by graphviz version 2.30.1 (20201013.1554)
 -->
<!-- Title: 20220911rotavirusboxplotdepthworkflow Pages: 1 -->
<svg width="1183pt" height="1310pt"
 viewBox="0.00 0.00 1183.36 1310.00" xmlns="http://www.w3.org/2000/svg" xmlns:xlink="http://www.w3.org/1999/xlink">
<g id="graph0" class="graph" transform="scale(1 1) rotate(0) translate(4 1306)">
<title>20220911rotavirusboxplotdepthworkflow</title>
<polygon fill="white" stroke="white" points="-4,5 -4,-1306 1180.36,-1306 1180.36,5 -4,5"/>
<!-- p0 -->
<g id="node1" class="node"><title>p0</title>
<ellipse fill="black" stroke="black" cx="1094.96" cy="-694" rx="3.6" ry="3.6"/>
<text text-anchor="middle" x="1133.36" y="-701.4" font-family="Times,serif" font-size="14.00">Channel.empty</text>
</g>
<!-- p22 -->
<g id="node2" class="node"><title>p22</title>
<ellipse fill="none" stroke="black" cx="811.962" cy="-606" rx="3.25" ry="3.5"/>
<text text-anchor="middle" x="797.462" y="-613.3" font-family="Times,serif" font-size="14.00">mix</text>
</g>
<!-- p0&#45;&gt;p22 -->
<g id="edge1" class="edge"><title>p0&#45;&gt;p22</title>
<path fill="none" stroke="black" d="M1093.68,-690.37C1091.7,-686.594 1087.54,-679.688 1081.96,-676 996.191,-619.305 866.765,-609.189 825.265,-607.389"/>
<polygon fill="black" stroke="black" points="825.312,-603.888 815.2,-607.051 825.077,-610.885 825.312,-603.888"/>
<text text-anchor="middle" x="1078.46" y="-646.3" font-family="Times,serif" font-size="14.00">version_ch</text>
</g>
<!-- p26 -->
<g id="node25" class="node"><title>p26</title>
<ellipse fill="none" stroke="black" cx="521.962" cy="-518" rx="3.25" ry="3.5"/>
<text text-anchor="middle" x="507.462" y="-525.3" font-family="Times,serif" font-size="14.00">mix</text>
</g>
<!-- p22&#45;&gt;p26 -->
<g id="edge26" class="edge"><title>p22&#45;&gt;p26</title>
<path fill="none" stroke="black" d="M809.092,-604.149C783.007,-596.413 586.727,-538.206 534.626,-522.756"/>
<polygon fill="black" stroke="black" points="535.438,-519.346 524.856,-519.858 533.448,-526.057 535.438,-519.346"/>
<text text-anchor="middle" x="722.462" y="-558.3" font-family="Times,serif" font-size="14.00">version_ch</text>
</g>
<!-- p1 -->
<g id="node3" class="node"><title>p1</title>
<ellipse fill="black" stroke="black" cx="895.962" cy="-1224" rx="3.6" ry="3.6"/>
<text text-anchor="middle" x="934.362" y="-1231.4" font-family="Times,serif" font-size="14.00">Channel.empty</text>
</g>
<!-- p5 -->
<g id="node4" class="node"><title>p5</title>
<ellipse fill="none" stroke="black" cx="791.962" cy="-1150" rx="3.25" ry="3.5"/>
<text text-anchor="middle" x="777.462" y="-1157.3" font-family="Times,serif" font-size="14.00">mix</text>
</g>
<!-- p1&#45;&gt;p5 -->
<g id="edge2" class="edge"><title>p1&#45;&gt;p5</title>
<path fill="none" stroke="black" d="M894.374,-1220.34C892.15,-1216.76 887.831,-1210.36 882.962,-1206 857.929,-1183.56 822.462,-1165.21 804.073,-1156.49"/>
<polygon fill="black" stroke="black" points="805.285,-1153.2 794.736,-1152.21 802.363,-1159.56 805.285,-1153.2"/>
<text text-anchor="middle" x="887.462" y="-1176.3" font-family="Times,serif" font-size="14.00">version_ch</text>
</g>
<!-- p12 -->
<g id="node9" class="node"><title>p12</title>
<ellipse fill="none" stroke="black" cx="764.962" cy="-970" rx="3.25" ry="3.5"/>
<text text-anchor="middle" x="750.462" y="-977.3" font-family="Times,serif" font-size="14.00">mix</text>
</g>
<!-- p5&#45;&gt;p12 -->
<g id="edge7" class="edge"><title>p5&#45;&gt;p12</title>
<path fill="none" stroke="black" d="M791.653,-1146.38C790.003,-1132.48 781.968,-1066 772.962,-1012 771.365,-1002.42 769.25,-991.65 767.596,-983.551"/>
<polygon fill="black" stroke="black" points="770.985,-982.656 765.517,-973.581 764.133,-984.085 770.985,-982.656"/>
<text text-anchor="middle" x="813.462" y="-1070.3" font-family="Times,serif" font-size="14.00">version_ch</text>
</g>
<!-- p2 -->
<g id="node5" class="node"><title>p2</title>
<ellipse fill="black" stroke="black" cx="615.962" cy="-1298" rx="3.6" ry="3.6"/>
</g>
<!-- p4 -->
<g id="node6" class="node"><title>p4</title>
<ellipse fill="none" stroke="black" cx="640.962" cy="-1224" rx="232.994" ry="18"/>
<text text-anchor="middle" x="640.962" y="-1220.3" font-family="Times,serif" font-size="14.00">BOXPLOTDEPTH:SAMTOOLS_SAMPLES_01:SQRT_FILE</text>
</g>
<!-- p2&#45;&gt;p4 -->
<g id="edge3" class="edge"><title>p2&#45;&gt;p4</title>
<path fill="none" stroke="black" d="M615.515,-1294.22C614.615,-1287.93 612.992,-1272.22 616.962,-1260 617.986,-1256.85 619.392,-1253.72 621.013,-1250.71"/>
<polygon fill="black" stroke="black" points="624.053,-1252.45 626.359,-1242.11 618.108,-1248.75 624.053,-1252.45"/>
<text text-anchor="middle" x="630.962" y="-1264.3" font-family="Times,serif" font-size="14.00">meta</text>
</g>
<!-- p6 -->
<g id="node8" class="node"><title>p6</title>
<ellipse fill="none" stroke="black" cx="640.962" cy="-1150" rx="3.25" ry="3.5"/>
<text text-anchor="middle" x="614.462" y="-1157.3" font-family="Times,serif" font-size="14.00">splitText</text>
</g>
<!-- p4&#45;&gt;p6 -->
<g id="edge5" class="edge"><title>p4&#45;&gt;p6</title>
<path fill="none" stroke="black" d="M640.962,-1205.94C640.962,-1193.13 640.962,-1175.84 640.962,-1164.11"/>
<polygon fill="black" stroke="black" points="644.462,-1163.75 640.962,-1153.75 637.462,-1163.75 644.462,-1163.75"/>
</g>
<!-- p4&#45;&gt;p5 -->
<g id="edge6" class="edge"><title>p4&#45;&gt;p5</title>
<path fill="none" stroke="black" d="M676.365,-1206.12C709.763,-1190.19 757.909,-1167.24 780.028,-1156.69"/>
<polygon fill="black" stroke="black" points="781.675,-1159.78 789.195,-1152.32 778.662,-1153.46 781.675,-1159.78"/>
</g>
<!-- p3 -->
<g id="node7" class="node"><title>p3</title>
<ellipse fill="black" stroke="black" cx="666.962" cy="-1298" rx="3.6" ry="3.6"/>
</g>
<!-- p3&#45;&gt;p4 -->
<g id="edge4" class="edge"><title>p3&#45;&gt;p4</title>
<path fill="none" stroke="black" d="M665.975,-1294.27C663.455,-1287.29 656.569,-1268.22 650.659,-1251.85"/>
<polygon fill="black" stroke="black" points="653.841,-1250.36 647.153,-1242.14 647.257,-1252.74 653.841,-1250.36"/>
<text text-anchor="middle" x="673.962" y="-1264.3" font-family="Times,serif" font-size="14.00">filein</text>
</g>
<!-- p7 -->
<g id="node10" class="node"><title>p7</title>
<ellipse fill="none" stroke="black" cx="640.962" cy="-1104" rx="3.25" ry="3.5"/>
<text text-anchor="middle" x="624.962" y="-1111.3" font-family="Times,serif" font-size="14.00">map</text>
</g>
<!-- p6&#45;&gt;p7 -->
<g id="edge8" class="edge"><title>p6&#45;&gt;p7</title>
<path fill="none" stroke="black" d="M640.962,-1146.38C640.962,-1140.86 640.962,-1127.74 640.962,-1117.74"/>
<polygon fill="black" stroke="black" points="644.462,-1117.55 640.962,-1107.55 637.462,-1117.55 644.462,-1117.55"/>
</g>
<!-- p16 -->
<g id="node16" class="node"><title>p16</title>
<ellipse fill="none" stroke="black" cx="764.962" cy="-836" rx="3.25" ry="3.5"/>
<text text-anchor="middle" x="750.462" y="-843.3" font-family="Times,serif" font-size="14.00">mix</text>
</g>
<!-- p12&#45;&gt;p16 -->
<g id="edge15" class="edge"><title>p12&#45;&gt;p16</title>
<path fill="none" stroke="black" d="M764.962,-966.243C764.962,-951.279 764.962,-879.397 764.962,-849.788"/>
<polygon fill="black" stroke="black" points="768.462,-849.742 764.962,-839.742 761.462,-849.742 768.462,-849.742"/>
<text text-anchor="middle" x="794.462" y="-892.3" font-family="Times,serif" font-size="14.00">version_ch</text>
</g>
<!-- p11 -->
<g id="node11" class="node"><title>p11</title>
<ellipse fill="none" stroke="black" cx="526.962" cy="-1030" rx="237.344" ry="18"/>
<text text-anchor="middle" x="526.962" y="-1026.3" font-family="Times,serif" font-size="14.00">BOXPLOTDEPTH:SAMTOOLS_SAMPLES_01:ST_SAMPLE</text>
</g>
<!-- p7&#45;&gt;p11 -->
<g id="edge9" class="edge"><title>p7&#45;&gt;p11</title>
<path fill="none" stroke="black" d="M639.713,-1100.67C636.181,-1094.27 625.494,-1076.25 611.962,-1066 604.938,-1060.68 596.989,-1056.02 588.841,-1052"/>
<polygon fill="black" stroke="black" points="590.142,-1048.74 579.597,-1047.71 587.199,-1055.09 590.142,-1048.74"/>
<text text-anchor="middle" x="654.462" y="-1070.3" font-family="Times,serif" font-size="14.00">chunk_ch</text>
</g>
<!-- p13 -->
<g id="node15" class="node"><title>p13</title>
<ellipse fill="none" stroke="black" cx="526.962" cy="-970" rx="3.25" ry="3.5"/>
<text text-anchor="middle" x="504.962" y="-977.3" font-family="Times,serif" font-size="14.00">collect</text>
</g>
<!-- p11&#45;&gt;p13 -->
<g id="edge13" class="edge"><title>p11&#45;&gt;p13</title>
<path fill="none" stroke="black" d="M526.962,-1011.91C526.962,-1002.96 526.962,-992.187 526.962,-983.94"/>
<polygon fill="black" stroke="black" points="530.462,-983.691 526.962,-973.691 523.462,-983.691 530.462,-983.691"/>
</g>
<!-- p11&#45;&gt;p12 -->
<g id="edge14" class="edge"><title>p11&#45;&gt;p12</title>
<path fill="none" stroke="black" d="M593.892,-1012.69C648.984,-999.264 722.624,-981.318 752.036,-974.15"/>
<polygon fill="black" stroke="black" points="753.097,-977.494 761.984,-971.726 751.44,-970.693 753.097,-977.494"/>
</g>
<!-- p8 -->
<g id="node12" class="node"><title>p8</title>
<ellipse fill="black" stroke="black" cx="438.962" cy="-1104" rx="3.6" ry="3.6"/>
</g>
<!-- p8&#45;&gt;p11 -->
<g id="edge10" class="edge"><title>p8&#45;&gt;p11</title>
<path fill="none" stroke="black" d="M439.537,-1100.32C441.081,-1093.69 445.905,-1076.34 455.962,-1066 460.792,-1061.04 466.471,-1056.67 472.478,-1052.86"/>
<polygon fill="black" stroke="black" points="474.549,-1055.71 481.453,-1047.67 471.044,-1049.65 474.549,-1055.71"/>
<text text-anchor="middle" x="469.962" y="-1070.3" font-family="Times,serif" font-size="14.00">meta</text>
</g>
<!-- p9 -->
<g id="node13" class="node"><title>p9</title>
<ellipse fill="black" stroke="black" cx="489.962" cy="-1104" rx="3.6" ry="3.6"/>
</g>
<!-- p9&#45;&gt;p11 -->
<g id="edge11" class="edge"><title>p9&#45;&gt;p11</title>
<path fill="none" stroke="black" d="M489.344,-1100.15C488.094,-1093.73 485.801,-1077.77 490.962,-1066 492.57,-1062.33 494.76,-1058.85 497.272,-1055.62"/>
<polygon fill="black" stroke="black" points="499.955,-1057.87 504.029,-1048.09 494.745,-1053.19 499.955,-1057.87"/>
<text text-anchor="middle" x="515.962" y="-1070.3" font-family="Times,serif" font-size="14.00">reference</text>
</g>
<!-- p10 -->
<g id="node14" class="node"><title>p10</title>
<ellipse fill="black" stroke="black" cx="562.962" cy="-1104" rx="3.6" ry="3.6"/>
</g>
<!-- p10&#45;&gt;p11 -->
<g id="edge12" class="edge"><title>p10&#45;&gt;p11</title>
<path fill="none" stroke="black" d="M561.764,-1100.6C558.399,-1093.87 548.557,-1074.19 540.195,-1057.47"/>
<polygon fill="black" stroke="black" points="543.105,-1055.46 535.502,-1048.08 536.844,-1058.59 543.105,-1055.46"/>
<text text-anchor="middle" x="580.462" y="-1070.3" font-family="Times,serif" font-size="14.00">references</text>
</g>
<!-- p15 -->
<g id="node17" class="node"><title>p15</title>
<ellipse fill="none" stroke="black" cx="504.962" cy="-896" rx="219.521" ry="18"/>
<text text-anchor="middle" x="504.962" y="-892.3" font-family="Times,serif" font-size="14.00">BOXPLOTDEPTH:SAMTOOLS_SAMPLES_01:DIGEST</text>
</g>
<!-- p13&#45;&gt;p15 -->
<g id="edge16" class="edge"><title>p13&#45;&gt;p15</title>
<path fill="none" stroke="black" d="M526.127,-966.265C523.995,-959.288 518.168,-940.219 513.167,-923.852"/>
<polygon fill="black" stroke="black" points="516.47,-922.684 510.2,-914.143 509.775,-924.729 516.47,-922.684"/>
</g>
<!-- p17 -->
<g id="node20" class="node"><title>p17</title>
<ellipse fill="none" stroke="black" cx="786.962" cy="-772" rx="3.25" ry="3.5"/>
<text text-anchor="middle" x="764.962" y="-779.3" font-family="Times,serif" font-size="14.00">collect</text>
</g>
<!-- p16&#45;&gt;p17 -->
<g id="edge20" class="edge"><title>p16&#45;&gt;p17</title>
<path fill="none" stroke="black" d="M765.907,-832.336C768.735,-824.368 777.256,-800.353 782.551,-785.43"/>
<polygon fill="black" stroke="black" points="785.999,-786.18 786.045,-775.585 779.402,-783.839 785.999,-786.18"/>
<text text-anchor="middle" x="807.462" y="-802.3" font-family="Times,serif" font-size="14.00">version_ch</text>
</g>
<!-- p25 -->
<g id="node19" class="node"><title>p25</title>
<ellipse fill="none" stroke="black" cx="512.962" cy="-606" rx="139.132" ry="18"/>
<text text-anchor="middle" x="512.962" y="-602.3" font-family="Times,serif" font-size="14.00">BOXPLOTDEPTH:JOIN_GROUPS</text>
</g>
<!-- p15&#45;&gt;p25 -->
<g id="edge18" class="edge"><title>p15&#45;&gt;p25</title>
<path fill="none" stroke="black" d="M501.337,-877.828C499.22,-866.329 496.962,-850.824 496.962,-837 496.962,-837 496.962,-837 496.962,-693 496.962,-673.003 501.195,-650.826 505.306,-634.001"/>
<polygon fill="black" stroke="black" points="508.704,-634.841 507.812,-624.284 501.926,-633.093 508.704,-634.841"/>
<text text-anchor="middle" x="514.462" y="-768.3" font-family="Times,serif" font-size="14.00">output</text>
</g>
<!-- p15&#45;&gt;p16 -->
<g id="edge19" class="edge"><title>p15&#45;&gt;p16</title>
<path fill="none" stroke="black" d="M577.041,-878.921C638.065,-865.308 720.492,-846.92 751.992,-839.893"/>
<polygon fill="black" stroke="black" points="752.924,-843.272 761.922,-837.678 751.4,-836.439 752.924,-843.272"/>
</g>
<!-- p14 -->
<g id="node18" class="node"><title>p14</title>
<ellipse fill="black" stroke="black" cx="483.962" cy="-970" rx="3.6" ry="3.6"/>
</g>
<!-- p14&#45;&gt;p15 -->
<g id="edge17" class="edge"><title>p14&#45;&gt;p15</title>
<path fill="none" stroke="black" d="M483.587,-966.24C482.835,-959.997 481.496,-944.376 484.962,-932 485.803,-928.997 486.958,-925.979 488.291,-923.042"/>
<polygon fill="black" stroke="black" points="491.458,-924.538 492.993,-914.055 485.256,-921.293 491.458,-924.538"/>
<text text-anchor="middle" x="498.962" y="-936.3" font-family="Times,serif" font-size="14.00">meta</text>
</g>
<!-- p32 -->
<g id="node28" class="node"><title>p32</title>
<ellipse fill="none" stroke="black" cx="496.962" cy="-518" rx="3.25" ry="3.5"/>
<text text-anchor="middle" x="515.962" y="-503.3" font-family="Times,serif" font-size="14.00">splitCsv</text>
</g>
<!-- p25&#45;&gt;p32 -->
<g id="edge29" class="edge"><title>p25&#45;&gt;p32</title>
<path fill="none" stroke="black" d="M509.724,-587.597C506.645,-571.046 502.086,-546.54 499.332,-531.737"/>
<polygon fill="black" stroke="black" points="502.729,-530.862 497.459,-521.671 495.847,-532.143 502.729,-530.862"/>
</g>
<!-- p25&#45;&gt;p26 -->
<g id="edge30" class="edge"><title>p25&#45;&gt;p26</title>
<path fill="none" stroke="black" d="M514.783,-587.597C516.515,-571.046 519.08,-546.54 520.629,-531.737"/>
<polygon fill="black" stroke="black" points="524.123,-531.981 521.683,-521.671 517.161,-531.252 524.123,-531.981"/>
</g>
<!-- p21 -->
<g id="node21" class="node"><title>p21</title>
<ellipse fill="none" stroke="black" cx="811.962" cy="-694" rx="260.916" ry="18"/>
<text text-anchor="middle" x="811.962" y="-690.3" font-family="Times,serif" font-size="14.00">BOXPLOTDEPTH:SAMTOOLS_SAMPLES_01:MERGE_VERSION</text>
</g>
<!-- p17&#45;&gt;p21 -->
<g id="edge21" class="edge"><title>p17&#45;&gt;p21</title>
<path fill="none" stroke="black" d="M788.11,-768.702C790.251,-764.352 794.916,-754.579 797.962,-746 800.697,-738.299 803.222,-729.789 805.353,-721.963"/>
<polygon fill="black" stroke="black" points="808.764,-722.754 807.912,-712.194 801.992,-720.98 808.764,-722.754"/>
</g>
<!-- p21&#45;&gt;p22 -->
<g id="edge25" class="edge"><title>p21&#45;&gt;p22</title>
<path fill="none" stroke="black" d="M811.962,-675.597C811.962,-659.046 811.962,-634.54 811.962,-619.737"/>
<polygon fill="black" stroke="black" points="815.462,-619.671 811.962,-609.671 808.462,-619.671 815.462,-619.671"/>
</g>
<!-- p18 -->
<g id="node22" class="node"><title>p18</title>
<ellipse fill="black" stroke="black" cx="844.962" cy="-772" rx="3.6" ry="3.6"/>
</g>
<!-- p18&#45;&gt;p21 -->
<g id="edge22" class="edge"><title>p18&#45;&gt;p21</title>
<path fill="none" stroke="black" d="M843.864,-768.471C840.694,-761.169 831.253,-739.428 823.458,-721.476"/>
<polygon fill="black" stroke="black" points="826.541,-719.787 819.347,-712.009 820.12,-722.575 826.541,-719.787"/>
<text text-anchor="middle" x="847.962" y="-734.3" font-family="Times,serif" font-size="14.00">meta</text>
</g>
<!-- p19 -->
<g id="node23" class="node"><title>p19</title>
<ellipse fill="black" stroke="black" cx="681.962" cy="-772" rx="3.6" ry="3.6"/>
</g>
<!-- p19&#45;&gt;p21 -->
<g id="edge23" class="edge"><title>p19&#45;&gt;p21</title>
<path fill="none" stroke="black" d="M681.994,-768.365C682.228,-761.151 683.89,-740.892 694.962,-730 700.701,-724.355 707.311,-719.614 714.408,-715.634"/>
<polygon fill="black" stroke="black" points="716.273,-718.613 723.628,-710.988 713.123,-712.362 716.273,-718.613"/>
<text text-anchor="middle" x="710.462" y="-734.3" font-family="Times,serif" font-size="14.00">name</text>
</g>
<!-- p20 -->
<g id="node24" class="node"><title>p20</title>
<ellipse fill="black" stroke="black" cx="735.962" cy="-772" rx="3.6" ry="3.6"/>
</g>
<!-- p20&#45;&gt;p21 -->
<g id="edge24" class="edge"><title>p20&#45;&gt;p21</title>
<path fill="none" stroke="black" d="M734.831,-768.529C731.906,-761.732 724.865,-742.443 732.962,-730 736.081,-725.206 740.024,-721.064 744.475,-717.486"/>
<polygon fill="black" stroke="black" points="746.719,-720.19 752.968,-711.635 742.747,-714.426 746.719,-720.19"/>
<text text-anchor="middle" x="763.462" y="-734.3" font-family="Times,serif" font-size="14.00">description</text>
</g>
<!-- p31 -->
<g id="node29" class="node"><title>p31</title>
<ellipse fill="none" stroke="black" cx="514.962" cy="-430" rx="3.25" ry="3.5"/>
<text text-anchor="middle" x="500.462" y="-437.3" font-family="Times,serif" font-size="14.00">mix</text>
</g>
<!-- p26&#45;&gt;p31 -->
<g id="edge31" class="edge"><title>p26&#45;&gt;p31</title>
<path fill="none" stroke="black" d="M521.729,-514.139C520.845,-503.281 517.665,-464.206 515.998,-443.727"/>
<polygon fill="black" stroke="black" points="519.475,-443.298 515.175,-433.615 512.498,-443.866 519.475,-443.298"/>
<text text-anchor="middle" x="549.462" y="-470.3" font-family="Times,serif" font-size="14.00">version_ch</text>
</g>
<!-- p23 -->
<g id="node26" class="node"><title>p23</title>
<ellipse fill="black" stroke="black" cx="528.962" cy="-694" rx="3.6" ry="3.6"/>
</g>
<!-- p23&#45;&gt;p25 -->
<g id="edge27" class="edge"><title>p23&#45;&gt;p25</title>
<path fill="none" stroke="black" d="M528.43,-690.139C526.816,-681.462 521.849,-654.767 517.974,-633.942"/>
<polygon fill="black" stroke="black" points="521.396,-633.195 516.126,-624.004 514.514,-634.475 521.396,-633.195"/>
<text text-anchor="middle" x="536.962" y="-646.3" font-family="Times,serif" font-size="14.00">meta</text>
</g>
<!-- p24 -->
<g id="node27" class="node"><title>p24</title>
<ellipse fill="black" stroke="black" cx="403.962" cy="-694" rx="3.6" ry="3.6"/>
</g>
<!-- p24&#45;&gt;p25 -->
<g id="edge28" class="edge"><title>p24&#45;&gt;p25</title>
<path fill="none" stroke="black" d="M403.049,-690.334C400.43,-682.158 393.773,-657.076 404.962,-642 409.835,-635.434 415.965,-630.077 422.816,-625.71"/>
<polygon fill="black" stroke="black" points="424.803,-628.61 431.84,-620.691 421.4,-622.493 424.803,-628.61"/>
<text text-anchor="middle" x="443.962" y="-646.3" font-family="Times,serif" font-size="14.00">sample2group</text>
</g>
<!-- p35 -->
<g id="node34" class="node"><title>p35</title>
<ellipse fill="none" stroke="black" cx="341.962" cy="-430" rx="143.931" ry="18"/>
<text text-anchor="middle" x="341.962" y="-426.3" font-family="Times,serif" font-size="14.00">BOXPLOTDEPTH:SAMPLEDEPTH</text>
</g>
<!-- p32&#45;&gt;p35 -->
<g id="edge39" class="edge"><title>p32&#45;&gt;p35</title>
<path fill="none" stroke="black" d="M495.712,-514.749C493.656,-511.216 489.256,-504.326 483.962,-500 458.427,-479.133 425.529,-462.639 397.829,-451.017"/>
<polygon fill="black" stroke="black" points="398.849,-447.653 388.268,-447.111 396.201,-454.133 398.849,-447.653"/>
</g>
<!-- p36 -->
<g id="node36" class="node"><title>p36</title>
<ellipse fill="none" stroke="black" cx="514.962" cy="-356" rx="3.25" ry="3.5"/>
<text text-anchor="middle" x="500.462" y="-363.3" font-family="Times,serif" font-size="14.00">mix</text>
</g>
<!-- p31&#45;&gt;p36 -->
<g id="edge38" class="edge"><title>p31&#45;&gt;p36</title>
<path fill="none" stroke="black" d="M514.962,-426.265C514.962,-417.133 514.962,-387.282 514.962,-369.892"/>
<polygon fill="black" stroke="black" points="518.462,-369.737 514.962,-359.737 511.462,-369.737 518.462,-369.737"/>
<text text-anchor="middle" x="544.462" y="-382.3" font-family="Times,serif" font-size="14.00">version_ch</text>
</g>
<!-- p27 -->
<g id="node30" class="node"><title>p27</title>
<ellipse fill="black" stroke="black" cx="351.962" cy="-606" rx="3.6" ry="3.6"/>
</g>
<!-- p30 -->
<g id="node31" class="node"><title>p30</title>
<ellipse fill="none" stroke="black" cx="341.962" cy="-518" rx="133.333" ry="18"/>
<text text-anchor="middle" x="341.962" y="-514.3" font-family="Times,serif" font-size="14.00">BOXPLOTDEPTH:MERGE_BED</text>
</g>
<!-- p27&#45;&gt;p30 -->
<g id="edge32" class="edge"><title>p27&#45;&gt;p30</title>
<path fill="none" stroke="black" d="M351.629,-602.139C350.62,-593.462 347.516,-566.767 345.095,-545.942"/>
<polygon fill="black" stroke="black" points="348.571,-545.532 343.939,-536.004 341.618,-546.341 348.571,-545.532"/>
<text text-anchor="middle" x="361.962" y="-558.3" font-family="Times,serif" font-size="14.00">meta</text>
</g>
<!-- p30&#45;&gt;p35 -->
<g id="edge35" class="edge"><title>p30&#45;&gt;p35</title>
<path fill="none" stroke="black" d="M341.962,-499.597C341.962,-487.746 341.962,-471.817 341.962,-458.292"/>
<polygon fill="black" stroke="black" points="345.462,-458.084 341.962,-448.084 338.462,-458.084 345.462,-458.084"/>
</g>
<!-- p44 -->
<g id="node35" class="node"><title>p44</title>
<ellipse fill="none" stroke="black" cx="111.962" cy="-430" rx="3.25" ry="3.5"/>
<text text-anchor="middle" x="85.4621" y="-437.3" font-family="Times,serif" font-size="14.00">splitText</text>
</g>
<!-- p30&#45;&gt;p44 -->
<g id="edge36" class="edge"><title>p30&#45;&gt;p44</title>
<path fill="none" stroke="black" d="M249.208,-505.027C224.975,-499.849 199.379,-492.476 176.962,-482 154.404,-471.458 132.551,-451.762 120.819,-440.175"/>
<polygon fill="black" stroke="black" points="123.252,-437.657 113.761,-432.949 118.245,-442.548 123.252,-437.657"/>
</g>
<!-- p30&#45;&gt;p31 -->
<g id="edge37" class="edge"><title>p30&#45;&gt;p31</title>
<path fill="none" stroke="black" d="M386.164,-500.904C417.658,-488.534 460.365,-469.888 494.962,-448 498.505,-445.759 502.085,-442.933 505.217,-440.232"/>
<polygon fill="black" stroke="black" points="507.833,-442.579 512.787,-433.214 503.074,-437.445 507.833,-442.579"/>
</g>
<!-- p28 -->
<g id="node32" class="node"><title>p28</title>
<ellipse fill="black" stroke="black" cx="278.962" cy="-606" rx="3.6" ry="3.6"/>
</g>
<!-- p28&#45;&gt;p30 -->
<g id="edge33" class="edge"><title>p28&#45;&gt;p30</title>
<path fill="none" stroke="black" d="M279.101,-601.945C279.622,-593.541 282.034,-569.662 292.962,-554 295.988,-549.664 299.731,-545.675 303.789,-542.065"/>
<polygon fill="black" stroke="black" points="306.252,-544.577 311.877,-535.599 301.881,-539.11 306.252,-544.577"/>
<text text-anchor="middle" x="317.962" y="-558.3" font-family="Times,serif" font-size="14.00">reference</text>
</g>
<!-- p29 -->
<g id="node33" class="node"><title>p29</title>
<ellipse fill="black" stroke="black" cx="235.962" cy="-606" rx="3.6" ry="3.6"/>
</g>
<!-- p29&#45;&gt;p30 -->
<g id="edge34" class="edge"><title>p29&#45;&gt;p30</title>
<path fill="none" stroke="black" d="M236.644,-602.279C238.861,-593.943 246.631,-568.452 261.962,-554 267.857,-548.443 274.777,-543.681 282.037,-539.624"/>
<polygon fill="black" stroke="black" points="284.052,-542.525 291.363,-534.856 280.866,-536.292 284.052,-542.525"/>
<text text-anchor="middle" x="271.962" y="-558.3" font-family="Times,serif" font-size="14.00">bed</text>
</g>
<!-- p37 -->
<g id="node39" class="node"><title>p37</title>
<ellipse fill="none" stroke="black" cx="341.962" cy="-356" rx="3.25" ry="3.5"/>
<text text-anchor="middle" x="319.962" y="-363.3" font-family="Times,serif" font-size="14.00">collect</text>
</g>
<!-- p35&#45;&gt;p37 -->
<g id="edge42" class="edge"><title>p35&#45;&gt;p37</title>
<path fill="none" stroke="black" d="M341.962,-411.937C341.962,-399.126 341.962,-381.843 341.962,-370.107"/>
<polygon fill="black" stroke="black" points="345.462,-369.748 341.962,-359.748 338.462,-369.748 345.462,-369.748"/>
</g>
<!-- p35&#45;&gt;p36 -->
<g id="edge43" class="edge"><title>p35&#45;&gt;p36</title>
<path fill="none" stroke="black" d="M381.218,-412.662C420.285,-396.403 477.898,-372.425 502.782,-362.069"/>
<polygon fill="black" stroke="black" points="504.256,-365.247 512.144,-358.173 501.567,-358.784 504.256,-365.247"/>
</g>
<!-- p45 -->
<g id="node48" class="node"><title>p45</title>
<ellipse fill="none" stroke="black" cx="51.9621" cy="-326" rx="3.25" ry="3.5"/>
<text text-anchor="middle" x="35.9621" y="-333.3" font-family="Times,serif" font-size="14.00">map</text>
</g>
<!-- p44&#45;&gt;p45 -->
<g id="edge54" class="edge"><title>p44&#45;&gt;p45</title>
<path fill="none" stroke="black" d="M110.479,-426.479C103.345,-414.351 72.3437,-361.649 58.5834,-338.256"/>
<polygon fill="black" stroke="black" points="61.4805,-336.278 53.3934,-329.433 55.4469,-339.827 61.4805,-336.278"/>
</g>
<!-- p40 -->
<g id="node40" class="node"><title>p40</title>
<ellipse fill="none" stroke="black" cx="474.962" cy="-194" rx="3.25" ry="3.5"/>
<text text-anchor="middle" x="460.462" y="-201.3" font-family="Times,serif" font-size="14.00">mix</text>
</g>
<!-- p36&#45;&gt;p40 -->
<g id="edge44" class="edge"><title>p36&#45;&gt;p40</title>
<path fill="none" stroke="black" d="M515.963,-352.388C520.039,-341.352 534.672,-297.577 523.962,-264 516.135,-239.46 496.049,-216.172 484.164,-203.929"/>
<polygon fill="black" stroke="black" points="486.593,-201.409 477.014,-196.883 481.68,-206.395 486.593,-201.409"/>
<text text-anchor="middle" x="557.462" y="-278.3" font-family="Times,serif" font-size="14.00">version_ch</text>
</g>
<!-- p33 -->
<g id="node37" class="node"><title>p33</title>
<ellipse fill="black" stroke="black" cx="159.962" cy="-518" rx="3.6" ry="3.6"/>
</g>
<!-- p33&#45;&gt;p35 -->
<g id="edge40" class="edge"><title>p33&#45;&gt;p35</title>
<path fill="none" stroke="black" d="M161.101,-514.141C164.736,-505.407 176.944,-478.892 195.962,-466 208.146,-457.741 222.058,-451.423 236.344,-446.591"/>
<polygon fill="black" stroke="black" points="237.781,-449.808 246.277,-443.478 235.688,-443.129 237.781,-449.808"/>
<text text-anchor="middle" x="209.962" y="-470.3" font-family="Times,serif" font-size="14.00">meta</text>
</g>
<!-- p34 -->
<g id="node38" class="node"><title>p34</title>
<ellipse fill="black" stroke="black" cx="186.962" cy="-518" rx="3.6" ry="3.6"/>
</g>
<!-- p34&#45;&gt;p35 -->
<g id="edge41" class="edge"><title>p34&#45;&gt;p35</title>
<path fill="none" stroke="black" d="M188.324,-514.261C190.258,-510.604 194.111,-504.11 198.962,-500 223.985,-478.801 256.635,-462.404 284.418,-450.923"/>
<polygon fill="black" stroke="black" points="286.046,-454.041 294.022,-447.067 283.438,-447.545 286.046,-454.041"/>
<text text-anchor="middle" x="274.962" y="-470.3" font-family="Times,serif" font-size="14.00">reference</text>
</g>
<!-- p39 -->
<g id="node41" class="node"><title>p39</title>
<ellipse fill="none" stroke="black" cx="357.962" cy="-282" rx="156.93" ry="18"/>
<text text-anchor="middle" x="357.962" y="-278.3" font-family="Times,serif" font-size="14.00">BOXPLOTDEPTH:CONCAT_FILES_01</text>
</g>
<!-- p37&#45;&gt;p39 -->
<g id="edge45" class="edge"><title>p37&#45;&gt;p39</title>
<path fill="none" stroke="black" d="M342.57,-352.265C344.106,-345.354 348.278,-326.578 351.892,-310.316"/>
<polygon fill="black" stroke="black" points="355.4,-310.664 354.153,-300.143 348.567,-309.145 355.4,-310.664"/>
</g>
<!-- p43 -->
<g id="node44" class="node"><title>p43</title>
<ellipse fill="none" stroke="black" cx="474.962" cy="-120" rx="3.25" ry="3.5"/>
<text text-anchor="middle" x="460.462" y="-127.3" font-family="Times,serif" font-size="14.00">mix</text>
</g>
<!-- p40&#45;&gt;p43 -->
<g id="edge49" class="edge"><title>p40&#45;&gt;p43</title>
<path fill="none" stroke="black" d="M474.962,-190.265C474.962,-181.133 474.962,-151.282 474.962,-133.892"/>
<polygon fill="black" stroke="black" points="478.462,-133.737 474.962,-123.737 471.462,-133.737 478.462,-133.737"/>
<text text-anchor="middle" x="504.462" y="-146.3" font-family="Times,serif" font-size="14.00">version_ch</text>
</g>
<!-- p49 -->
<g id="node43" class="node"><title>p49</title>
<ellipse fill="none" stroke="black" cx="196.962" cy="-194" rx="103.012" ry="18"/>
<text text-anchor="middle" x="196.962" y="-190.3" font-family="Times,serif" font-size="14.00">BOXPLOTDEPTH:PLOT</text>
</g>
<!-- p39&#45;&gt;p49 -->
<g id="edge47" class="edge"><title>p39&#45;&gt;p49</title>
<path fill="none" stroke="black" d="M326.537,-264.214C300.803,-250.468 264.249,-230.942 236.524,-216.132"/>
<polygon fill="black" stroke="black" points="237.958,-212.93 227.488,-211.306 234.66,-219.105 237.958,-212.93"/>
</g>
<!-- p39&#45;&gt;p40 -->
<g id="edge48" class="edge"><title>p39&#45;&gt;p40</title>
<path fill="none" stroke="black" d="M381.078,-264.009C406.358,-245.427 445.761,-216.464 464.448,-202.729"/>
<polygon fill="black" stroke="black" points="466.652,-205.452 472.637,-196.709 462.506,-199.812 466.652,-205.452"/>
</g>
<!-- p38 -->
<g id="node42" class="node"><title>p38</title>
<ellipse fill="black" stroke="black" cx="374.962" cy="-356" rx="3.6" ry="3.6"/>
</g>
<!-- p38&#45;&gt;p39 -->
<g id="edge46" class="edge"><title>p38&#45;&gt;p39</title>
<path fill="none" stroke="black" d="M374.316,-352.265C372.685,-345.354 368.251,-326.578 364.412,-310.316"/>
<polygon fill="black" stroke="black" points="367.714,-309.071 362.01,-300.143 360.901,-310.68 367.714,-309.071"/>
<text text-anchor="middle" x="383.962" y="-322.3" font-family="Times,serif" font-size="14.00">meta</text>
</g>
<!-- p50 -->
<g id="node52" class="node"><title>p50</title>
<ellipse fill="black" stroke="black" cx="226.962" cy="-120" rx="1.8" ry="1.8"/>
</g>
<!-- p49&#45;&gt;p50 -->
<g id="edge59" class="edge"><title>p49&#45;&gt;p50</title>
<path fill="none" stroke="black" d="M204.072,-175.937C209.85,-162.069 217.813,-142.958 222.662,-131.319"/>
<polygon fill="black" stroke="black" points="225.993,-132.426 226.608,-121.849 219.531,-129.734 225.993,-132.426"/>
</g>
<!-- p51 -->
<g id="node47" class="node"><title>p51</title>
<ellipse fill="none" stroke="black" cx="273.962" cy="-60" rx="3.25" ry="3.5"/>
<text text-anchor="middle" x="259.462" y="-67.3" font-family="Times,serif" font-size="14.00">mix</text>
</g>
<!-- p49&#45;&gt;p51 -->
<g id="edge60" class="edge"><title>p49&#45;&gt;p51</title>
<path fill="none" stroke="black" d="M198.412,-175.743C200.408,-159.412 205.091,-134.685 215.962,-116 227.856,-95.5567 249.621,-77.9557 262.842,-68.4739"/>
<polygon fill="black" stroke="black" points="264.986,-71.2479 271.261,-62.7111 261.032,-65.4715 264.986,-71.2479"/>
</g>
<!-- p43&#45;&gt;p51 -->
<g id="edge53" class="edge"><title>p43&#45;&gt;p51</title>
<path fill="none" stroke="black" d="M472.121,-118.18C451.71,-112.291 327.094,-76.3315 286.635,-64.6568"/>
<polygon fill="black" stroke="black" points="287.568,-61.2832 276.989,-61.8735 285.627,-68.0088 287.568,-61.2832"/>
<text text-anchor="middle" x="428.462" y="-86.3" font-family="Times,serif" font-size="14.00">version_ch</text>
</g>
<!-- p41 -->
<g id="node45" class="node"><title>p41</title>
<ellipse fill="black" stroke="black" cx="790.962" cy="-356" rx="3.6" ry="3.6"/>
</g>
<!-- p42 -->
<g id="node46" class="node"><title>p42</title>
<ellipse fill="none" stroke="black" cx="790.962" cy="-282" rx="163.203" ry="18"/>
<text text-anchor="middle" x="790.962" y="-278.3" font-family="Times,serif" font-size="14.00">BOXPLOTDEPTH:COMPILE_PLOTTER</text>
</g>
<!-- p41&#45;&gt;p42 -->
<g id="edge50" class="edge"><title>p41&#45;&gt;p42</title>
<path fill="none" stroke="black" d="M790.962,-352.265C790.962,-345.354 790.962,-326.578 790.962,-310.316"/>
<polygon fill="black" stroke="black" points="794.462,-310.143 790.962,-300.143 787.462,-310.143 794.462,-310.143"/>
<text text-anchor="middle" x="804.962" y="-322.3" font-family="Times,serif" font-size="14.00">meta</text>
</g>
<!-- p42&#45;&gt;p49 -->
<g id="edge51" class="edge"><title>p42&#45;&gt;p49</title>
<path fill="none" stroke="black" d="M696.513,-267.326C582.873,-250.873 393.67,-223.48 283.622,-207.547"/>
<polygon fill="black" stroke="black" points="283.95,-204.058 273.552,-206.089 282.947,-210.986 283.95,-204.058"/>
</g>
<!-- p42&#45;&gt;p43 -->
<g id="edge52" class="edge"><title>p42&#45;&gt;p43</title>
<path fill="none" stroke="black" d="M764.082,-264.105C718.74,-236.098 623.605,-179.434 537.962,-142 520.99,-134.582 500.509,-128.204 487.606,-124.482"/>
<polygon fill="black" stroke="black" points="488.494,-121.096 477.921,-121.78 486.613,-127.838 488.494,-121.096"/>
</g>
<!-- p52 -->
<g id="node53" class="node"><title>p52</title>
<ellipse fill="black" stroke="black" cx="273.962" cy="-2" rx="1.8" ry="1.8"/>
</g>
<!-- p51&#45;&gt;p52 -->
<g id="edge61" class="edge"><title>p51&#45;&gt;p52</title>
<path fill="none" stroke="black" d="M273.962,-56.299C273.962,-48.8543 273.962,-27.7113 273.962,-14.4007"/>
<polygon fill="black" stroke="black" points="277.462,-14.0502 273.962,-4.05021 270.462,-14.0502 277.462,-14.0502"/>
<text text-anchor="middle" x="293.962" y="-26.3" font-family="Times,serif" font-size="14.00">version</text>
</g>
<!-- p45&#45;&gt;p49 -->
<g id="edge55" class="edge"><title>p45&#45;&gt;p49</title>
<path fill="none" stroke="black" d="M51.3996,-322.383C49.6109,-313.339 44.9071,-282.918 57.9621,-264 75.0039,-239.305 103.525,-223.037 130.312,-212.539"/>
<polygon fill="black" stroke="black" points="131.533,-215.819 139.693,-209.062 129.1,-209.256 131.533,-215.819"/>
<text text-anchor="middle" x="99.4621" y="-278.3" font-family="Times,serif" font-size="14.00">each_transcript</text>
</g>
<!-- p46 -->
<g id="node49" class="node"><title>p46</title>
<ellipse fill="black" stroke="black" cx="5.96212" cy="-282" rx="3.6" ry="3.6"/>
</g>
<!-- p46&#45;&gt;p49 -->
<g id="edge56" class="edge"><title>p46&#45;&gt;p49</title>
<path fill="none" stroke="black" d="M4.96348,-278.266C2.09844,-269.894 -5.19172,-244.31 6.96212,-230 18.7719,-216.096 54.8509,-207.688 92.442,-202.617"/>
<polygon fill="black" stroke="black" points="93.0597,-206.067 102.54,-201.336 92.1785,-199.122 93.0597,-206.067"/>
<text text-anchor="middle" x="20.9621" y="-234.3" font-family="Times,serif" font-size="14.00">meta</text>
</g>
<!-- p47 -->
<g id="node50" class="node"><title>p47</title>
<ellipse fill="black" stroke="black" cx="178.962" cy="-282" rx="3.6" ry="3.6"/>
</g>
<!-- p47&#45;&gt;p49 -->
<g id="edge57" class="edge"><title>p47&#45;&gt;p49</title>
<path fill="none" stroke="black" d="M179.561,-278.139C181.377,-269.462 186.964,-242.767 191.323,-221.942"/>
<polygon fill="black" stroke="black" points="194.78,-222.509 193.403,-212.004 187.929,-221.075 194.78,-222.509"/>
<text text-anchor="middle" x="214.962" y="-234.3" font-family="Times,serif" font-size="14.00">reference</text>
</g>
<!-- p48 -->
<g id="node51" class="node"><title>p48</title>
<ellipse fill="black" stroke="black" cx="153.962" cy="-282" rx="3.6" ry="3.6"/>
</g>
<!-- p48&#45;&gt;p49 -->
<g id="edge58" class="edge"><title>p48&#45;&gt;p49</title>
<path fill="none" stroke="black" d="M153.895,-278.049C153.827,-269.912 154.446,-246.65 162.962,-230 164.819,-226.37 167.179,-222.868 169.787,-219.575"/>
<polygon fill="black" stroke="black" points="172.615,-221.662 176.639,-211.861 167.381,-217.013 172.615,-221.662"/>
<text text-anchor="middle" x="172.962" y="-234.3" font-family="Times,serif" font-size="14.00">bed</text>
</g>
</g>
</svg>
