<?xml version="1.0" encoding="UTF-8" standalone="no"?>
<!DOCTYPE svg PUBLIC "-//W3C//DTD SVG 1.1//EN"
 "http://www.w3.org/Graphics/SVG/1.1/DTD/svg11.dtd">
<!-- Generated by graphviz version 2.30.1 (20201013.1554)
 -->
<!-- Title: 20221017xhunterworkflow Pages: 1 -->
<svg width="1695pt" height="1472pt"
 viewBox="0.00 0.00 1694.60 1472.00" xmlns="http://www.w3.org/2000/svg" xmlns:xlink="http://www.w3.org/1999/xlink">
<g id="graph0" class="graph" transform="scale(1 1) rotate(0) translate(4 1468)">
<title>20221017xhunterworkflow</title>
<polygon fill="white" stroke="white" points="-4,5 -4,-1468 1691.6,-1468 1691.6,5 -4,5"/>
<!-- p0 -->
<g id="node1" class="node"><title>p0</title>
<ellipse fill="black" stroke="black" cx="112.6" cy="-578" rx="3.6" ry="3.6"/>
<text text-anchor="middle" x="54.5" y="-585.4" font-family="Times,serif" font-size="14.00">Channel.empty</text>
</g>
<!-- p5 -->
<g id="node2" class="node"><title>p5</title>
<ellipse fill="none" stroke="black" cx="112.6" cy="-490" rx="3.25" ry="3.5"/>
<text text-anchor="middle" x="95.6" y="-497.3" font-family="Times,serif" font-size="14.00">mix</text>
</g>
<!-- p0&#45;&gt;p5 -->
<g id="edge1" class="edge"><title>p0&#45;&gt;p5</title>
<path fill="none" stroke="black" d="M112.6,-574.139C112.6,-563.281 112.6,-524.206 112.6,-503.727"/>
<polygon fill="black" stroke="black" points="116.1,-503.615 112.6,-493.615 109.1,-503.615 116.1,-503.615"/>
<text text-anchor="middle" x="151.6" y="-530.3" font-family="Times,serif" font-size="14.00">version_ch</text>
</g>
<!-- p45 -->
<g id="node8" class="node"><title>p45</title>
<ellipse fill="none" stroke="black" cx="495.6" cy="-342" rx="3.25" ry="3.5"/>
<text text-anchor="middle" x="478.6" y="-349.3" font-family="Times,serif" font-size="14.00">mix</text>
</g>
<!-- p5&#45;&gt;p45 -->
<g id="edge8" class="edge"><title>p5&#45;&gt;p45</title>
<path fill="none" stroke="black" d="M111.23,-486.621C104.205,-474.078 73.621,-415.042 101.6,-384 127.661,-355.086 415.787,-345.247 482.063,-343.358"/>
<polygon fill="black" stroke="black" points="482.542,-346.846 492.444,-343.077 482.353,-339.849 482.542,-346.846"/>
<text text-anchor="middle" x="140.6" y="-398.3" font-family="Times,serif" font-size="14.00">version_ch</text>
</g>
<!-- p1 -->
<g id="node3" class="node"><title>p1</title>
<ellipse fill="black" stroke="black" cx="369.6" cy="-656" rx="3.6" ry="3.6"/>
</g>
<!-- p4 -->
<g id="node4" class="node"><title>p4</title>
<ellipse fill="none" stroke="black" cx="429.6" cy="-578" rx="257.066" ry="18"/>
<text text-anchor="middle" x="429.6" y="-574.3" font-family="Times,serif" font-size="14.00">EXPANSION_HUNTER_01:DOWNLOAD_XHUNTER</text>
</g>
<!-- p1&#45;&gt;p4 -->
<g id="edge2" class="edge"><title>p1&#45;&gt;p4</title>
<path fill="none" stroke="black" d="M370.436,-652.19C372.605,-645.215 378.926,-626.75 388.6,-614 391.556,-610.104 395.013,-606.341 398.644,-602.818"/>
<polygon fill="black" stroke="black" points="401.161,-605.26 406.235,-595.959 396.469,-600.066 401.161,-605.26"/>
<text text-anchor="middle" x="407.1" y="-618.3" font-family="Times,serif" font-size="14.00">meta</text>
</g>
<!-- p49 -->
<g id="node7" class="node"><title>p49</title>
<ellipse fill="none" stroke="black" cx="844.6" cy="-490" rx="219.046" ry="18"/>
<text text-anchor="middle" x="844.6" y="-486.3" font-family="Times,serif" font-size="14.00">EXPANSION_HUNTER_01:RUN_XHUNTER</text>
</g>
<!-- p4&#45;&gt;p49 -->
<g id="edge5" class="edge"><title>p4&#45;&gt;p49</title>
<path fill="none" stroke="black" d="M442.757,-560.005C456.631,-548.347 478.673,-533.653 500.6,-526 518.237,-519.844 601.736,-511.113 682.069,-503.911"/>
<polygon fill="black" stroke="black" points="682.704,-507.369 692.354,-502.996 682.083,-500.397 682.704,-507.369"/>
</g>
<!-- p4&#45;&gt;p49 -->
<g id="edge6" class="edge"><title>p4&#45;&gt;p49</title>
<path fill="none" stroke="black" d="M457.749,-560.005C474.631,-548.347 496.673,-533.653 518.6,-526 535.706,-520.029 614.765,-511.637 690.761,-504.566"/>
<polygon fill="black" stroke="black" points="691.337,-508.028 700.972,-503.622 690.693,-501.058 691.337,-508.028"/>
</g>
<!-- p4&#45;&gt;p5 -->
<g id="edge7" class="edge"><title>p4&#45;&gt;p5</title>
<path fill="none" stroke="black" d="M368.479,-560.418C291.852,-539.63 165.648,-505.392 125.372,-494.465"/>
<polygon fill="black" stroke="black" points="126.054,-491.024 115.486,-491.783 124.221,-497.779 126.054,-491.024"/>
</g>
<!-- p2 -->
<g id="node5" class="node"><title>p2</title>
<ellipse fill="black" stroke="black" cx="429.6" cy="-656" rx="3.6" ry="3.6"/>
</g>
<!-- p2&#45;&gt;p4 -->
<g id="edge3" class="edge"><title>p2&#45;&gt;p4</title>
<path fill="none" stroke="black" d="M429.6,-652.114C429.6,-644.614 429.6,-623.88 429.6,-606.399"/>
<polygon fill="black" stroke="black" points="433.1,-606.082 429.6,-596.083 426.1,-606.083 433.1,-606.082"/>
<text text-anchor="middle" x="464.6" y="-618.3" font-family="Times,serif" font-size="14.00">reference</text>
</g>
<!-- p3 -->
<g id="node6" class="node"><title>p3</title>
<ellipse fill="black" stroke="black" cx="522.6" cy="-656" rx="3.6" ry="3.6"/>
</g>
<!-- p3&#45;&gt;p4 -->
<g id="edge4" class="edge"><title>p3&#45;&gt;p4</title>
<path fill="none" stroke="black" d="M521.844,-652.448C519.655,-645.444 512.684,-625.674 500.6,-614 495.436,-609.011 489.422,-604.6 483.12,-600.74"/>
<polygon fill="black" stroke="black" points="484.83,-597.686 474.402,-595.814 481.387,-603.781 484.83,-597.686"/>
<text text-anchor="middle" x="539.1" y="-618.3" font-family="Times,serif" font-size="14.00">catalog</text>
</g>
<!-- p52 -->
<g id="node52" class="node"><title>p52</title>
<ellipse fill="none" stroke="black" cx="884.6" cy="-402" rx="3.25" ry="3.5"/>
<text text-anchor="middle" x="865.6" y="-409.3" font-family="Times,serif" font-size="14.00">map</text>
</g>
<!-- p49&#45;&gt;p52 -->
<g id="edge57" class="edge"><title>p49&#45;&gt;p52</title>
<path fill="none" stroke="black" d="M856.353,-471.989C859.918,-466.407 863.664,-460.074 866.6,-454 872.709,-441.362 877.821,-426.092 881.018,-415.574"/>
<polygon fill="black" stroke="black" points="884.413,-416.431 883.835,-405.852 877.69,-414.483 884.413,-416.431"/>
</g>
<!-- p50 -->
<g id="node53" class="node"><title>p50</title>
<ellipse fill="black" stroke="black" cx="860.6" cy="-402" rx="1.8" ry="1.8"/>
</g>
<!-- p49&#45;&gt;p50 -->
<g id="edge58" class="edge"><title>p49&#45;&gt;p50</title>
<path fill="none" stroke="black" d="M847.838,-471.597C851.016,-454.516 855.769,-428.965 858.489,-414.348"/>
<polygon fill="black" stroke="black" points="862.008,-414.567 860.396,-404.095 855.126,-413.286 862.008,-414.567"/>
</g>
<!-- p51 -->
<g id="node49" class="node"><title>p51</title>
<ellipse fill="none" stroke="black" cx="670.6" cy="-268" rx="3.25" ry="3.5"/>
<text text-anchor="middle" x="653.6" y="-275.3" font-family="Times,serif" font-size="14.00">mix</text>
</g>
<!-- p49&#45;&gt;p51 -->
<g id="edge59" class="edge"><title>p49&#45;&gt;p51</title>
<path fill="none" stroke="black" d="M842.498,-471.954C839.096,-449.931 830.724,-411.198 811.6,-384 770.187,-325.101 732.614,-337.796 682.6,-286 680.944,-284.285 679.344,-282.324 677.882,-280.358"/>
<polygon fill="black" stroke="black" points="680.526,-278.012 672.089,-271.603 674.688,-281.874 680.526,-278.012"/>
</g>
<!-- p45&#45;&gt;p51 -->
<g id="edge53" class="edge"><title>p45&#45;&gt;p51</title>
<path fill="none" stroke="black" d="M498.349,-339.869C516.711,-332.315 621.949,-289.016 658.274,-274.071"/>
<polygon fill="black" stroke="black" points="659.809,-277.224 667.725,-270.183 657.146,-270.751 659.809,-277.224"/>
<text text-anchor="middle" x="622.6" y="-308.3" font-family="Times,serif" font-size="14.00">version_ch</text>
</g>
<!-- p6 -->
<g id="node9" class="node"><title>p6</title>
<ellipse fill="black" stroke="black" cx="790.6" cy="-822" rx="3.6" ry="3.6"/>
<text text-anchor="middle" x="732.5" y="-829.4" font-family="Times,serif" font-size="14.00">Channel.empty</text>
</g>
<!-- p28 -->
<g id="node10" class="node"><title>p28</title>
<ellipse fill="none" stroke="black" cx="1078.6" cy="-734" rx="3.25" ry="3.5"/>
<text text-anchor="middle" x="1088.6" y="-741.3" font-family="Times,serif" font-size="14.00">mix</text>
</g>
<!-- p6&#45;&gt;p28 -->
<g id="edge9" class="edge"><title>p6&#45;&gt;p28</title>
<path fill="none" stroke="black" d="M791.729,-818.58C793.62,-814.815 797.797,-807.614 803.6,-804 904.375,-741.248 964.825,-814.752 1065.6,-752 1068.05,-750.475 1070.21,-748.312 1072.03,-746.038"/>
<polygon fill="black" stroke="black" points="1075.09,-747.744 1077.47,-737.42 1069.17,-744.006 1075.09,-747.744"/>
<text text-anchor="middle" x="1064.6" y="-774.3" font-family="Times,serif" font-size="14.00">version_ch</text>
</g>
<!-- p39 -->
<g id="node33" class="node"><title>p39</title>
<ellipse fill="none" stroke="black" cx="708.6" cy="-578" rx="3.25" ry="3.5"/>
<text text-anchor="middle" x="718.6" y="-585.3" font-family="Times,serif" font-size="14.00">mix</text>
</g>
<!-- p28&#45;&gt;p39 -->
<g id="edge34" class="edge"><title>p28&#45;&gt;p39</title>
<path fill="none" stroke="black" d="M1077.39,-730.694C1075.4,-727.085 1071.07,-720.095 1065.6,-716 1006.04,-671.456 777.275,-599.941 721.108,-582.787"/>
<polygon fill="black" stroke="black" points="722.059,-579.418 711.474,-579.862 720.026,-586.116 722.059,-579.418"/>
<text text-anchor="middle" x="997.6" y="-652.3" font-family="Times,serif" font-size="14.00">version_ch</text>
</g>
<!-- p7 -->
<g id="node11" class="node"><title>p7</title>
<ellipse fill="black" stroke="black" cx="1234.6" cy="-1386" rx="3.6" ry="3.6"/>
<text text-anchor="middle" x="1285.5" y="-1393.4" font-family="Times,serif" font-size="14.00">Channel.empty</text>
</g>
<!-- p11 -->
<g id="node12" class="node"><title>p11</title>
<ellipse fill="none" stroke="black" cx="1234.6" cy="-1312" rx="3.25" ry="3.5"/>
<text text-anchor="middle" x="1217.6" y="-1319.3" font-family="Times,serif" font-size="14.00">mix</text>
</g>
<!-- p7&#45;&gt;p11 -->
<g id="edge10" class="edge"><title>p7&#45;&gt;p11</title>
<path fill="none" stroke="black" d="M1234.6,-1382.27C1234.6,-1373.13 1234.6,-1343.28 1234.6,-1325.89"/>
<polygon fill="black" stroke="black" points="1238.1,-1325.74 1234.6,-1315.74 1231.1,-1325.74 1238.1,-1325.74"/>
<text text-anchor="middle" x="1273.6" y="-1338.3" font-family="Times,serif" font-size="14.00">version_ch</text>
</g>
<!-- p18 -->
<g id="node17" class="node"><title>p18</title>
<ellipse fill="none" stroke="black" cx="1197.6" cy="-1132" rx="3.25" ry="3.5"/>
<text text-anchor="middle" x="1180.6" y="-1139.3" font-family="Times,serif" font-size="14.00">mix</text>
</g>
<!-- p11&#45;&gt;p18 -->
<g id="edge15" class="edge"><title>p11&#45;&gt;p18</title>
<path fill="none" stroke="black" d="M1234.59,-1308.32C1234.49,-1294.13 1233.16,-1226.38 1217.6,-1174 1214.47,-1163.47 1208.87,-1152.32 1204.38,-1144.31"/>
<polygon fill="black" stroke="black" points="1207.27,-1142.31 1199.17,-1135.47 1201.24,-1145.86 1207.27,-1142.31"/>
<text text-anchor="middle" x="1269.6" y="-1232.3" font-family="Times,serif" font-size="14.00">version_ch</text>
</g>
<!-- p8 -->
<g id="node13" class="node"><title>p8</title>
<ellipse fill="black" stroke="black" cx="778.6" cy="-1460" rx="3.6" ry="3.6"/>
</g>
<!-- p10 -->
<g id="node14" class="node"><title>p10</title>
<ellipse fill="none" stroke="black" cx="808.6" cy="-1386" rx="403.896" ry="18"/>
<text text-anchor="middle" x="808.6" y="-1382.3" font-family="Times,serif" font-size="14.00">EXPANSION_HUNTER_01:SEX_GUESS_02:SAMTOOLS_SAMPLES_01:SQRT_FILE</text>
</g>
<!-- p8&#45;&gt;p10 -->
<g id="edge11" class="edge"><title>p8&#45;&gt;p10</title>
<path fill="none" stroke="black" d="M778.074,-1456.19C777.012,-1449.85 775.079,-1434.03 779.6,-1422 780.86,-1418.65 782.584,-1415.39 784.568,-1412.28"/>
<polygon fill="black" stroke="black" points="787.538,-1414.16 790.681,-1404.04 781.914,-1409.99 787.538,-1414.16"/>
<text text-anchor="middle" x="798.1" y="-1426.3" font-family="Times,serif" font-size="14.00">meta</text>
</g>
<!-- p12 -->
<g id="node16" class="node"><title>p12</title>
<ellipse fill="none" stroke="black" cx="806.6" cy="-1312" rx="3.25" ry="3.5"/>
<text text-anchor="middle" x="771.1" y="-1319.3" font-family="Times,serif" font-size="14.00">splitText</text>
</g>
<!-- p10&#45;&gt;p12 -->
<g id="edge13" class="edge"><title>p10&#45;&gt;p12</title>
<path fill="none" stroke="black" d="M808.126,-1367.94C807.77,-1355.13 807.29,-1337.84 806.964,-1326.11"/>
<polygon fill="black" stroke="black" points="810.453,-1325.65 806.676,-1315.75 803.455,-1325.84 810.453,-1325.65"/>
</g>
<!-- p10&#45;&gt;p11 -->
<g id="edge14" class="edge"><title>p10&#45;&gt;p11</title>
<path fill="none" stroke="black" d="M906.066,-1368.53C1012.48,-1350.54 1174.05,-1323.23 1221.23,-1315.26"/>
<polygon fill="black" stroke="black" points="1222.09,-1318.66 1231.36,-1313.55 1220.92,-1311.76 1222.09,-1318.66"/>
</g>
<!-- p9 -->
<g id="node15" class="node"><title>p9</title>
<ellipse fill="black" stroke="black" cx="838.6" cy="-1460" rx="3.6" ry="3.6"/>
</g>
<!-- p9&#45;&gt;p10 -->
<g id="edge12" class="edge"><title>p9&#45;&gt;p10</title>
<path fill="none" stroke="black" d="M837.461,-1456.27C834.526,-1449.22 826.458,-1429.86 819.596,-1413.39"/>
<polygon fill="black" stroke="black" points="822.82,-1412.03 815.743,-1404.14 816.358,-1414.72 822.82,-1412.03"/>
<text text-anchor="middle" x="849.1" y="-1426.3" font-family="Times,serif" font-size="14.00">filein</text>
</g>
<!-- p13 -->
<g id="node18" class="node"><title>p13</title>
<ellipse fill="none" stroke="black" cx="801.6" cy="-1266" rx="3.25" ry="3.5"/>
<text text-anchor="middle" x="782.6" y="-1273.3" font-family="Times,serif" font-size="14.00">map</text>
</g>
<!-- p12&#45;&gt;p13 -->
<g id="edge16" class="edge"><title>p12&#45;&gt;p13</title>
<path fill="none" stroke="black" d="M806.302,-1308.38C805.675,-1302.86 804.184,-1289.74 803.048,-1279.74"/>
<polygon fill="black" stroke="black" points="806.497,-1279.09 801.89,-1269.55 799.542,-1279.88 806.497,-1279.09"/>
</g>
<!-- p22 -->
<g id="node24" class="node"><title>p22</title>
<ellipse fill="none" stroke="black" cx="1197.6" cy="-984" rx="3.25" ry="3.5"/>
<text text-anchor="middle" x="1180.6" y="-991.3" font-family="Times,serif" font-size="14.00">mix</text>
</g>
<!-- p18&#45;&gt;p22 -->
<g id="edge23" class="edge"><title>p18&#45;&gt;p22</title>
<path fill="none" stroke="black" d="M1197.6,-1128.47C1197.6,-1112.89 1197.6,-1029.75 1197.6,-997.652"/>
<polygon fill="black" stroke="black" points="1201.1,-997.604 1197.6,-987.604 1194.1,-997.604 1201.1,-997.604"/>
<text text-anchor="middle" x="1236.6" y="-1054.3" font-family="Times,serif" font-size="14.00">version_ch</text>
</g>
<!-- p17 -->
<g id="node19" class="node"><title>p17</title>
<ellipse fill="none" stroke="black" cx="800.6" cy="-1192" rx="408.246" ry="18"/>
<text text-anchor="middle" x="800.6" y="-1188.3" font-family="Times,serif" font-size="14.00">EXPANSION_HUNTER_01:SEX_GUESS_02:SAMTOOLS_SAMPLES_01:ST_SAMPLE</text>
</g>
<!-- p13&#45;&gt;p17 -->
<g id="edge17" class="edge"><title>p13&#45;&gt;p17</title>
<path fill="none" stroke="black" d="M801.562,-1262.27C801.466,-1255.35 801.205,-1236.58 800.979,-1220.32"/>
<polygon fill="black" stroke="black" points="804.477,-1220.09 800.838,-1210.14 797.477,-1220.19 804.477,-1220.09"/>
<text text-anchor="middle" x="836.6" y="-1232.3" font-family="Times,serif" font-size="14.00">chunk_ch</text>
</g>
<!-- p19 -->
<g id="node23" class="node"><title>p19</title>
<ellipse fill="none" stroke="black" cx="800.6" cy="-1132" rx="3.25" ry="3.5"/>
<text text-anchor="middle" x="772.6" y="-1139.3" font-family="Times,serif" font-size="14.00">collect</text>
</g>
<!-- p17&#45;&gt;p19 -->
<g id="edge21" class="edge"><title>p17&#45;&gt;p19</title>
<path fill="none" stroke="black" d="M800.6,-1173.91C800.6,-1164.96 800.6,-1154.19 800.6,-1145.94"/>
<polygon fill="black" stroke="black" points="804.1,-1145.69 800.6,-1135.69 797.1,-1145.69 804.1,-1145.69"/>
</g>
<!-- p17&#45;&gt;p18 -->
<g id="edge22" class="edge"><title>p17&#45;&gt;p18</title>
<path fill="none" stroke="black" d="M912.508,-1174.65C1010.39,-1160.35 1143.2,-1140.95 1184.68,-1134.89"/>
<polygon fill="black" stroke="black" points="1185.24,-1138.34 1194.63,-1133.43 1184.23,-1131.42 1185.24,-1138.34"/>
</g>
<!-- p14 -->
<g id="node20" class="node"><title>p14</title>
<ellipse fill="black" stroke="black" cx="893.6" cy="-1266" rx="3.6" ry="3.6"/>
</g>
<!-- p14&#45;&gt;p17 -->
<g id="edge18" class="edge"><title>p14&#45;&gt;p17</title>
<path fill="none" stroke="black" d="M892.631,-1262.32C890.118,-1255.7 882.795,-1238.35 871.6,-1228 866.327,-1223.13 860.249,-1218.78 853.914,-1214.96"/>
<polygon fill="black" stroke="black" points="855.604,-1211.89 845.168,-1210.06 852.184,-1218 855.604,-1211.89"/>
<text text-anchor="middle" x="903.1" y="-1232.3" font-family="Times,serif" font-size="14.00">meta</text>
</g>
<!-- p15 -->
<g id="node21" class="node"><title>p15</title>
<ellipse fill="black" stroke="black" cx="953.6" cy="-1266" rx="3.6" ry="3.6"/>
</g>
<!-- p15&#45;&gt;p17 -->
<g id="edge19" class="edge"><title>p15&#45;&gt;p17</title>
<path fill="none" stroke="black" d="M952.285,-1262.19C948.898,-1255.25 939.182,-1237.25 925.6,-1228 917.061,-1222.18 907.571,-1217.33 897.745,-1213.27"/>
<polygon fill="black" stroke="black" points="898.831,-1209.94 888.241,-1209.63 896.325,-1216.48 898.831,-1209.94"/>
<text text-anchor="middle" x="976.6" y="-1232.3" font-family="Times,serif" font-size="14.00">reference</text>
</g>
<!-- p16 -->
<g id="node22" class="node"><title>p16</title>
<ellipse fill="black" stroke="black" cx="700.6" cy="-1266" rx="3.6" ry="3.6"/>
</g>
<!-- p16&#45;&gt;p17 -->
<g id="edge20" class="edge"><title>p16&#45;&gt;p17</title>
<path fill="none" stroke="black" d="M701.384,-1262.29C703.447,-1255.59 709.638,-1238.09 720.6,-1228 726.045,-1222.99 732.323,-1218.62 738.917,-1214.82"/>
<polygon fill="black" stroke="black" points="740.846,-1217.76 748.057,-1210 737.579,-1211.57 740.846,-1217.76"/>
<text text-anchor="middle" x="759.1" y="-1232.3" font-family="Times,serif" font-size="14.00">references</text>
</g>
<!-- p21 -->
<g id="node25" class="node"><title>p21</title>
<ellipse fill="none" stroke="black" cx="774.6" cy="-1058" rx="386.573" ry="18"/>
<text text-anchor="middle" x="774.6" y="-1054.3" font-family="Times,serif" font-size="14.00">EXPANSION_HUNTER_01:SEX_GUESS_02:SAMTOOLS_SAMPLES_01:DIGEST</text>
</g>
<!-- p19&#45;&gt;p21 -->
<g id="edge24" class="edge"><title>p19&#45;&gt;p21</title>
<path fill="none" stroke="black" d="M799.735,-1128.6C797.327,-1121.94 790.329,-1102.56 784.326,-1085.93"/>
<polygon fill="black" stroke="black" points="787.456,-1084.3 780.768,-1076.08 780.872,-1086.67 787.456,-1084.3"/>
</g>
<!-- p23 -->
<g id="node28" class="node"><title>p23</title>
<ellipse fill="none" stroke="black" cx="1201.6" cy="-910" rx="3.25" ry="3.5"/>
<text text-anchor="middle" x="1173.6" y="-917.3" font-family="Times,serif" font-size="14.00">collect</text>
</g>
<!-- p22&#45;&gt;p23 -->
<g id="edge28" class="edge"><title>p22&#45;&gt;p23</title>
<path fill="none" stroke="black" d="M1197.75,-980.265C1198.26,-971.133 1199.92,-941.282 1200.88,-923.892"/>
<polygon fill="black" stroke="black" points="1204.39,-923.916 1201.45,-913.737 1197.4,-923.528 1204.39,-923.916"/>
<text text-anchor="middle" x="1238.6" y="-950.3" font-family="Times,serif" font-size="14.00">version_ch</text>
</g>
<!-- p30 -->
<g id="node27" class="node"><title>p30</title>
<ellipse fill="none" stroke="black" cx="771.6" cy="-984" rx="3.25" ry="3.5"/>
<text text-anchor="middle" x="738.6" y="-991.3" font-family="Times,serif" font-size="14.00">splitCsv</text>
</g>
<!-- p21&#45;&gt;p30 -->
<g id="edge26" class="edge"><title>p21&#45;&gt;p30</title>
<path fill="none" stroke="black" d="M773.889,-1039.94C773.355,-1027.13 772.635,-1009.84 772.146,-998.107"/>
<polygon fill="black" stroke="black" points="775.628,-997.594 771.715,-987.748 768.634,-997.885 775.628,-997.594"/>
<text text-anchor="middle" x="818.6" y="-1010.3" font-family="Times,serif" font-size="14.00">sample_bam</text>
</g>
<!-- p21&#45;&gt;p22 -->
<g id="edge27" class="edge"><title>p21&#45;&gt;p22</title>
<path fill="none" stroke="black" d="M871.38,-1040.53C977.042,-1022.54 1137.48,-995.233 1184.33,-987.259"/>
<polygon fill="black" stroke="black" points="1185.12,-990.675 1194.39,-985.547 1183.94,-983.775 1185.12,-990.675"/>
</g>
<!-- p20 -->
<g id="node26" class="node"><title>p20</title>
<ellipse fill="black" stroke="black" cx="748.6" cy="-1132" rx="3.6" ry="3.6"/>
</g>
<!-- p20&#45;&gt;p21 -->
<g id="edge25" class="edge"><title>p20&#45;&gt;p21</title>
<path fill="none" stroke="black" d="M747.743,-1128.21C745.958,-1121.89 742.341,-1106.14 746.6,-1094 747.769,-1090.67 749.403,-1087.42 751.301,-1084.32"/>
<polygon fill="black" stroke="black" points="754.219,-1086.26 757.18,-1076.09 748.521,-1082.19 754.219,-1086.26"/>
<text text-anchor="middle" x="765.1" y="-1098.3" font-family="Times,serif" font-size="14.00">meta</text>
</g>
<!-- p32 -->
<g id="node36" class="node"><title>p32</title>
<ellipse fill="none" stroke="black" cx="703.6" cy="-910" rx="406.321" ry="18"/>
<text text-anchor="middle" x="703.6" y="-906.3" font-family="Times,serif" font-size="14.00">EXPANSION_HUNTER_01:SEX_GUESS_02:SEX_GUESS_01:SEX_CONTIG_COUNT</text>
</g>
<!-- p30&#45;&gt;p32 -->
<g id="edge36" class="edge"><title>p30&#45;&gt;p32</title>
<path fill="none" stroke="black" d="M770.075,-980.513C766.224,-974.33 755.626,-957.9 744.6,-946 741.111,-942.235 737.236,-938.477 733.299,-934.895"/>
<polygon fill="black" stroke="black" points="735.567,-932.229 725.739,-928.27 730.954,-937.493 735.567,-932.229"/>
<text text-anchor="middle" x="778.6" y="-950.3" font-family="Times,serif" font-size="14.00">sn_ch</text>
</g>
<!-- p27 -->
<g id="node29" class="node"><title>p27</title>
<ellipse fill="none" stroke="black" cx="1249.6" cy="-822" rx="437.117" ry="18"/>
<text text-anchor="middle" x="1249.6" y="-818.3" font-family="Times,serif" font-size="14.00">EXPANSION_HUNTER_01:SEX_GUESS_02:SAMTOOLS_SAMPLES_01:MERGE_VERSION</text>
</g>
<!-- p23&#45;&gt;p27 -->
<g id="edge29" class="edge"><title>p23&#45;&gt;p27</title>
<path fill="none" stroke="black" d="M1202.98,-906.519C1207.64,-898.17 1223.13,-870.43 1234.98,-849.188"/>
<polygon fill="black" stroke="black" points="1238.14,-850.705 1239.96,-840.268 1232.03,-847.294 1238.14,-850.705"/>
</g>
<!-- p27&#45;&gt;p28 -->
<g id="edge33" class="edge"><title>p27&#45;&gt;p28</title>
<path fill="none" stroke="black" d="M1215.82,-804.009C1177.16,-784.57 1115.93,-753.772 1090.39,-740.929"/>
<polygon fill="black" stroke="black" points="1091.68,-737.66 1081.17,-736.294 1088.53,-743.914 1091.68,-737.66"/>
</g>
<!-- p24 -->
<g id="node30" class="node"><title>p24</title>
<ellipse fill="black" stroke="black" cx="1354.6" cy="-910" rx="3.6" ry="3.6"/>
</g>
<!-- p24&#45;&gt;p27 -->
<g id="edge30" class="edge"><title>p24&#45;&gt;p27</title>
<path fill="none" stroke="black" d="M1354.16,-906.274C1352.68,-897.924 1347.11,-872.396 1332.6,-858 1327.49,-852.927 1321.52,-848.547 1315.19,-844.774"/>
<polygon fill="black" stroke="black" points="1316.82,-841.676 1306.36,-839.998 1313.49,-847.834 1316.82,-841.676"/>
<text text-anchor="middle" x="1362.1" y="-862.3" font-family="Times,serif" font-size="14.00">meta</text>
</g>
<!-- p25 -->
<g id="node31" class="node"><title>p25</title>
<ellipse fill="black" stroke="black" cx="1161.6" cy="-910" rx="3.6" ry="3.6"/>
</g>
<!-- p25&#45;&gt;p27 -->
<g id="edge31" class="edge"><title>p25&#45;&gt;p27</title>
<path fill="none" stroke="black" d="M1161.65,-906.319C1161.96,-898.098 1163.92,-872.903 1176.6,-858 1180.72,-853.152 1185.67,-848.925 1191.03,-845.249"/>
<polygon fill="black" stroke="black" points="1193.02,-848.133 1199.71,-839.918 1189.36,-842.167 1193.02,-848.133"/>
<text text-anchor="middle" x="1196.6" y="-862.3" font-family="Times,serif" font-size="14.00">name</text>
</g>
<!-- p26 -->
<g id="node32" class="node"><title>p26</title>
<ellipse fill="black" stroke="black" cx="1249.6" cy="-910" rx="3.6" ry="3.6"/>
</g>
<!-- p26&#45;&gt;p27 -->
<g id="edge32" class="edge"><title>p26&#45;&gt;p27</title>
<path fill="none" stroke="black" d="M1249.6,-906.139C1249.6,-897.502 1249.6,-871.011 1249.6,-850.227"/>
<polygon fill="black" stroke="black" points="1253.1,-850.004 1249.6,-840.004 1246.1,-850.004 1253.1,-850.004"/>
<text text-anchor="middle" x="1290.6" y="-862.3" font-family="Times,serif" font-size="14.00">description</text>
</g>
<!-- p40 -->
<g id="node44" class="node"><title>p40</title>
<ellipse fill="none" stroke="black" cx="451.6" cy="-490" rx="3.25" ry="3.5"/>
<text text-anchor="middle" x="423.6" y="-497.3" font-family="Times,serif" font-size="14.00">collect</text>
</g>
<!-- p39&#45;&gt;p40 -->
<g id="edge47" class="edge"><title>p39&#45;&gt;p40</title>
<path fill="none" stroke="black" d="M707.458,-574.599C705.551,-570.861 701.352,-563.695 695.6,-560 608.158,-503.818 557.799,-559.64 467.6,-508 464.667,-506.321 461.948,-503.933 459.614,-501.475"/>
<polygon fill="black" stroke="black" points="462.131,-499.018 453.149,-493.398 456.666,-503.393 462.131,-499.018"/>
<text text-anchor="middle" x="695.6" y="-530.3" font-family="Times,serif" font-size="14.00">version_ch</text>
</g>
<!-- p29 -->
<g id="node34" class="node"><title>p29</title>
<ellipse fill="black" stroke="black" cx="275.6" cy="-910" rx="3.6" ry="3.6"/>
<text text-anchor="middle" x="217.5" y="-917.4" font-family="Times,serif" font-size="14.00">Channel.empty</text>
</g>
<!-- p33 -->
<g id="node35" class="node"><title>p33</title>
<ellipse fill="none" stroke="black" cx="288.6" cy="-822" rx="3.25" ry="3.5"/>
<text text-anchor="middle" x="271.6" y="-829.3" font-family="Times,serif" font-size="14.00">mix</text>
</g>
<!-- p29&#45;&gt;p33 -->
<g id="edge35" class="edge"><title>p29&#45;&gt;p33</title>
<path fill="none" stroke="black" d="M276.033,-906.139C277.674,-895.281 283.58,-856.206 286.676,-835.727"/>
<polygon fill="black" stroke="black" points="290.171,-836.026 288.205,-825.615 283.249,-834.979 290.171,-836.026"/>
<text text-anchor="middle" x="322.6" y="-862.3" font-family="Times,serif" font-size="14.00">version_ch</text>
</g>
<!-- p38 -->
<g id="node39" class="node"><title>p38</title>
<ellipse fill="none" stroke="black" cx="687.6" cy="-656" rx="3.25" ry="3.5"/>
<text text-anchor="middle" x="670.6" y="-663.3" font-family="Times,serif" font-size="14.00">mix</text>
</g>
<!-- p33&#45;&gt;p38 -->
<g id="edge40" class="edge"><title>p33&#45;&gt;p38</title>
<path fill="none" stroke="black" d="M287.777,-818.255C283.958,-804.903 269.322,-746.168 297.6,-716 324.107,-687.722 608.762,-663.315 674.229,-658.05"/>
<polygon fill="black" stroke="black" points="674.79,-661.516 684.483,-657.239 674.238,-654.538 674.79,-661.516"/>
<text text-anchor="middle" x="336.6" y="-730.3" font-family="Times,serif" font-size="14.00">version_ch</text>
</g>
<!-- p34 -->
<g id="node38" class="node"><title>p34</title>
<ellipse fill="none" stroke="black" cx="701.6" cy="-822" rx="3.25" ry="3.5"/>
<text text-anchor="middle" x="673.6" y="-807.3" font-family="Times,serif" font-size="14.00">collect</text>
</g>
<!-- p32&#45;&gt;p34 -->
<g id="edge38" class="edge"><title>p32&#45;&gt;p34</title>
<path fill="none" stroke="black" d="M703.195,-891.597C702.81,-875.046 702.24,-850.54 701.896,-835.737"/>
<polygon fill="black" stroke="black" points="705.394,-835.587 701.662,-825.671 698.396,-835.75 705.394,-835.587"/>
</g>
<!-- p32&#45;&gt;p33 -->
<g id="edge39" class="edge"><title>p32&#45;&gt;p33</title>
<path fill="none" stroke="black" d="M623.092,-892.316C520.316,-871.018 350.004,-835.725 301.721,-825.719"/>
<polygon fill="black" stroke="black" points="302.167,-822.237 291.664,-823.635 300.746,-829.091 302.167,-822.237"/>
</g>
<!-- p31 -->
<g id="node37" class="node"><title>p31</title>
<ellipse fill="black" stroke="black" cx="703.6" cy="-984" rx="3.6" ry="3.6"/>
</g>
<!-- p31&#45;&gt;p32 -->
<g id="edge37" class="edge"><title>p31&#45;&gt;p32</title>
<path fill="none" stroke="black" d="M703.6,-980.265C703.6,-973.354 703.6,-954.578 703.6,-938.316"/>
<polygon fill="black" stroke="black" points="707.1,-938.143 703.6,-928.143 700.1,-938.143 707.1,-938.143"/>
<text text-anchor="middle" x="722.1" y="-950.3" font-family="Times,serif" font-size="14.00">meta</text>
</g>
<!-- p36 -->
<g id="node40" class="node"><title>p36</title>
<ellipse fill="none" stroke="black" cx="720.6" cy="-734" rx="336.03" ry="18"/>
<text text-anchor="middle" x="720.6" y="-730.3" font-family="Times,serif" font-size="14.00">EXPANSION_HUNTER_01:SEX_GUESS_02:SEX_GUESS_01:DIGEST</text>
</g>
<!-- p34&#45;&gt;p36 -->
<g id="edge41" class="edge"><title>p34&#45;&gt;p36</title>
<path fill="none" stroke="black" d="M702.148,-818.519C703.968,-810.283 709.957,-783.173 714.624,-762.048"/>
<polygon fill="black" stroke="black" points="718.045,-762.787 716.785,-752.268 711.21,-761.277 718.045,-762.787"/>
</g>
<!-- p38&#45;&gt;p39 -->
<g id="edge46" class="edge"><title>p38&#45;&gt;p39</title>
<path fill="none" stroke="black" d="M688.299,-652.471C690.889,-643.096 700.057,-609.916 705.141,-591.518"/>
<polygon fill="black" stroke="black" points="708.587,-592.187 707.877,-581.616 701.84,-590.323 708.587,-592.187"/>
<text text-anchor="middle" x="726.1" y="-618.3" font-family="Times,serif" font-size="14.00">version</text>
</g>
<!-- p46 -->
<g id="node42" class="node"><title>p46</title>
<ellipse fill="none" stroke="black" cx="767.6" cy="-622" rx="3.25" ry="3.5"/>
<text text-anchor="middle" x="793.6" y="-629.3" font-family="Times,serif" font-size="14.00">splitCsv</text>
</g>
<!-- p36&#45;&gt;p46 -->
<g id="edge43" class="edge"><title>p36&#45;&gt;p46</title>
<path fill="none" stroke="black" d="M734.534,-715.918C738.521,-710.435 742.595,-704.178 745.6,-698 755.71,-677.218 762.105,-650.893 765.254,-635.598"/>
<polygon fill="black" stroke="black" points="768.704,-636.188 767.145,-625.709 761.829,-634.873 768.704,-636.188"/>
<text text-anchor="middle" x="776.6" y="-686.3" font-family="Times,serif" font-size="14.00">output</text>
</g>
<!-- p37 -->
<g id="node43" class="node"><title>p37</title>
<ellipse fill="black" stroke="black" cx="720.6" cy="-656" rx="1.8" ry="1.8"/>
</g>
<!-- p36&#45;&gt;p37 -->
<g id="edge44" class="edge"><title>p36&#45;&gt;p37</title>
<path fill="none" stroke="black" d="M720.6,-715.754C720.6,-701.149 720.6,-680.642 720.6,-668.119"/>
<polygon fill="black" stroke="black" points="724.1,-667.917 720.6,-657.917 717.1,-667.917 724.1,-667.917"/>
<text text-anchor="middle" x="732.6" y="-686.3" font-family="Times,serif" font-size="14.00">pdf</text>
</g>
<!-- p36&#45;&gt;p38 -->
<g id="edge45" class="edge"><title>p36&#45;&gt;p38</title>
<path fill="none" stroke="black" d="M713.112,-715.754C706.886,-701.417 698.192,-681.393 692.731,-668.817"/>
<polygon fill="black" stroke="black" points="695.866,-667.248 688.672,-659.469 689.445,-670.036 695.866,-667.248"/>
</g>
<!-- p35 -->
<g id="node41" class="node"><title>p35</title>
<ellipse fill="black" stroke="black" cx="731.6" cy="-822" rx="3.6" ry="3.6"/>
</g>
<!-- p35&#45;&gt;p36 -->
<g id="edge42" class="edge"><title>p35&#45;&gt;p36</title>
<path fill="none" stroke="black" d="M731.234,-818.139C730.124,-809.462 726.71,-782.767 724.046,-761.942"/>
<polygon fill="black" stroke="black" points="727.515,-761.479 722.775,-752.004 720.572,-762.367 727.515,-761.479"/>
<text text-anchor="middle" x="746.1" y="-774.3" font-family="Times,serif" font-size="14.00">meta</text>
</g>
<!-- p46&#45;&gt;p49 -->
<g id="edge54" class="edge"><title>p46&#45;&gt;p49</title>
<path fill="none" stroke="black" d="M767.409,-618.014C766.949,-608.816 766.478,-580.312 776.6,-560 785.316,-542.509 800.129,-526.681 813.708,-514.609"/>
<polygon fill="black" stroke="black" points="816.173,-517.107 821.506,-507.952 811.628,-511.783 816.173,-517.107"/>
<text text-anchor="middle" x="804.1" y="-574.3" font-family="Times,serif" font-size="14.00">sn_bam</text>
</g>
<!-- p44 -->
<g id="node45" class="node"><title>p44</title>
<ellipse fill="none" stroke="black" cx="495.6" cy="-402" rx="307.134" ry="18"/>
<text text-anchor="middle" x="495.6" y="-398.3" font-family="Times,serif" font-size="14.00">EXPANSION_HUNTER_01:SEX_GUESS_02:MERGE_VERSION</text>
</g>
<!-- p40&#45;&gt;p44 -->
<g id="edge48" class="edge"><title>p40&#45;&gt;p44</title>
<path fill="none" stroke="black" d="M452.712,-486.644C456.159,-479.361 467.01,-456.576 476.6,-438 478.122,-435.051 479.742,-431.977 481.368,-428.93"/>
<polygon fill="black" stroke="black" points="484.511,-430.477 486.18,-420.014 478.35,-427.152 484.511,-430.477"/>
</g>
<!-- p44&#45;&gt;p45 -->
<g id="edge52" class="edge"><title>p44&#45;&gt;p45</title>
<path fill="none" stroke="black" d="M495.6,-383.912C495.6,-374.965 495.6,-364.187 495.6,-355.94"/>
<polygon fill="black" stroke="black" points="499.1,-355.691 495.6,-345.691 492.1,-355.691 499.1,-355.691"/>
</g>
<!-- p41 -->
<g id="node46" class="node"><title>p41</title>
<ellipse fill="black" stroke="black" cx="480.6" cy="-490" rx="3.6" ry="3.6"/>
</g>
<!-- p41&#45;&gt;p44 -->
<g id="edge49" class="edge"><title>p41&#45;&gt;p44</title>
<path fill="none" stroke="black" d="M480.306,-486.197C479.567,-478.438 477.939,-456.053 481.6,-438 482.154,-435.268 482.911,-432.476 483.789,-429.72"/>
<polygon fill="black" stroke="black" points="487.173,-430.659 487.345,-420.066 480.604,-428.239 487.173,-430.659"/>
<text text-anchor="middle" x="500.1" y="-442.3" font-family="Times,serif" font-size="14.00">meta</text>
</g>
<!-- p42 -->
<g id="node47" class="node"><title>p42</title>
<ellipse fill="black" stroke="black" cx="540.6" cy="-490" rx="3.6" ry="3.6"/>
</g>
<!-- p42&#45;&gt;p44 -->
<g id="edge50" class="edge"><title>p42&#45;&gt;p44</title>
<path fill="none" stroke="black" d="M539.573,-486.156C536.692,-478.289 528.116,-455.656 518.6,-438 516.928,-434.898 515.065,-431.716 513.142,-428.595"/>
<polygon fill="black" stroke="black" points="516.025,-426.607 507.679,-420.081 510.134,-430.387 516.025,-426.607"/>
<text text-anchor="middle" x="546.6" y="-442.3" font-family="Times,serif" font-size="14.00">name</text>
</g>
<!-- p43 -->
<g id="node48" class="node"><title>p43</title>
<ellipse fill="black" stroke="black" cx="603.6" cy="-490" rx="3.6" ry="3.6"/>
</g>
<!-- p43&#45;&gt;p44 -->
<g id="edge51" class="edge"><title>p43&#45;&gt;p44</title>
<path fill="none" stroke="black" d="M602.505,-486.299C599.026,-478.023 587.459,-452.684 570.6,-438 564.939,-433.069 558.464,-428.693 551.744,-424.85"/>
<polygon fill="black" stroke="black" points="552.956,-421.531 542.481,-419.94 549.677,-427.716 552.956,-421.531"/>
<text text-anchor="middle" x="625.6" y="-442.3" font-family="Times,serif" font-size="14.00">description</text>
</g>
<!-- p58 -->
<g id="node54" class="node"><title>p58</title>
<ellipse fill="none" stroke="black" cx="774.6" cy="-194" rx="3.25" ry="3.5"/>
<text text-anchor="middle" x="757.6" y="-201.3" font-family="Times,serif" font-size="14.00">mix</text>
</g>
<!-- p51&#45;&gt;p58 -->
<g id="edge60" class="edge"><title>p51&#45;&gt;p58</title>
<path fill="none" stroke="black" d="M672.017,-264.323C674.014,-260.737 677.937,-254.322 682.6,-250 707.572,-226.853 743.847,-208.697 762.509,-200.222"/>
<polygon fill="black" stroke="black" points="764.011,-203.386 771.766,-196.167 761.202,-196.974 764.011,-203.386"/>
<text text-anchor="middle" x="769.6" y="-220.3" font-family="Times,serif" font-size="14.00">version_ch</text>
</g>
<!-- p47 -->
<g id="node50" class="node"><title>p47</title>
<ellipse fill="black" stroke="black" cx="844.6" cy="-578" rx="3.6" ry="3.6"/>
</g>
<!-- p47&#45;&gt;p49 -->
<g id="edge55" class="edge"><title>p47&#45;&gt;p49</title>
<path fill="none" stroke="black" d="M844.6,-574.139C844.6,-565.502 844.6,-539.011 844.6,-518.227"/>
<polygon fill="black" stroke="black" points="848.1,-518.004 844.6,-508.004 841.1,-518.004 848.1,-518.004"/>
<text text-anchor="middle" x="863.1" y="-530.3" font-family="Times,serif" font-size="14.00">meta</text>
</g>
<!-- p48 -->
<g id="node51" class="node"><title>p48</title>
<ellipse fill="black" stroke="black" cx="904.6" cy="-578" rx="3.6" ry="3.6"/>
</g>
<!-- p48&#45;&gt;p49 -->
<g id="edge56" class="edge"><title>p48&#45;&gt;p49</title>
<path fill="none" stroke="black" d="M903.793,-574.019C901.474,-565.803 894.203,-542.361 882.6,-526 879.96,-522.278 876.869,-518.653 873.61,-515.233"/>
<polygon fill="black" stroke="black" points="875.919,-512.596 866.317,-508.118 871.031,-517.607 875.919,-512.596"/>
<text text-anchor="middle" x="927.6" y="-530.3" font-family="Times,serif" font-size="14.00">reference</text>
</g>
<!-- p53 -->
<g id="node55" class="node"><title>p53</title>
<ellipse fill="none" stroke="black" cx="884.6" cy="-342" rx="3.25" ry="3.5"/>
<text text-anchor="middle" x="856.6" y="-349.3" font-family="Times,serif" font-size="14.00">collect</text>
</g>
<!-- p52&#45;&gt;p53 -->
<g id="edge61" class="edge"><title>p52&#45;&gt;p53</title>
<path fill="none" stroke="black" d="M884.6,-398.203C884.6,-390.649 884.6,-369.48 884.6,-355.66"/>
<polygon fill="black" stroke="black" points="888.1,-355.636 884.6,-345.636 881.1,-355.636 888.1,-355.636"/>
</g>
<!-- p59 -->
<g id="node60" class="node"><title>p59</title>
<ellipse fill="none" stroke="black" cx="774.6" cy="-134" rx="3.25" ry="3.5"/>
<text text-anchor="middle" x="746.6" y="-141.3" font-family="Times,serif" font-size="14.00">collect</text>
</g>
<!-- p58&#45;&gt;p59 -->
<g id="edge67" class="edge"><title>p58&#45;&gt;p59</title>
<path fill="none" stroke="black" d="M774.6,-190.203C774.6,-182.649 774.6,-161.48 774.6,-147.66"/>
<polygon fill="black" stroke="black" points="778.1,-147.636 774.6,-137.636 771.1,-147.636 778.1,-147.636"/>
<text text-anchor="middle" x="813.6" y="-160.3" font-family="Times,serif" font-size="14.00">version_ch</text>
</g>
<!-- p55 -->
<g id="node56" class="node"><title>p55</title>
<ellipse fill="none" stroke="black" cx="900.6" cy="-268" rx="208.447" ry="18"/>
<text text-anchor="middle" x="900.6" y="-264.3" font-family="Times,serif" font-size="14.00">EXPANSION_HUNTER_01:MERGE_VCFS</text>
</g>
<!-- p53&#45;&gt;p55 -->
<g id="edge62" class="edge"><title>p53&#45;&gt;p55</title>
<path fill="none" stroke="black" d="M885.208,-338.265C886.744,-331.354 890.916,-312.578 894.53,-296.316"/>
<polygon fill="black" stroke="black" points="898.038,-296.664 896.79,-286.143 891.204,-295.145 898.038,-296.664"/>
</g>
<!-- p57 -->
<g id="node58" class="node"><title>p57</title>
<ellipse fill="black" stroke="black" cx="916.6" cy="-194" rx="1.8" ry="1.8"/>
</g>
<!-- p55&#45;&gt;p57 -->
<g id="edge64" class="edge"><title>p55&#45;&gt;p57</title>
<path fill="none" stroke="black" d="M904.392,-249.937C907.44,-236.219 911.628,-217.373 914.222,-205.701"/>
<polygon fill="black" stroke="black" points="917.659,-206.37 916.411,-195.849 910.825,-204.852 917.659,-206.37"/>
<text text-anchor="middle" x="923.6" y="-220.3" font-family="Times,serif" font-size="14.00">vcf</text>
</g>
<!-- p56 -->
<g id="node59" class="node"><title>p56</title>
<ellipse fill="black" stroke="black" cx="883.6" cy="-194" rx="1.8" ry="1.8"/>
</g>
<!-- p55&#45;&gt;p56 -->
<g id="edge65" class="edge"><title>p55&#45;&gt;p56</title>
<path fill="none" stroke="black" d="M896.571,-249.937C893.332,-236.219 888.883,-217.373 886.127,-205.701"/>
<polygon fill="black" stroke="black" points="889.505,-204.777 883.801,-195.849 882.692,-206.386 889.505,-204.777"/>
</g>
<!-- p55&#45;&gt;p58 -->
<g id="edge66" class="edge"><title>p55&#45;&gt;p58</title>
<path fill="none" stroke="black" d="M871.752,-250.083C854.614,-240.083 832.424,-227.22 812.6,-216 803.785,-211.011 793.755,-205.473 786.213,-201.338"/>
<polygon fill="black" stroke="black" points="787.83,-198.233 777.376,-196.509 784.473,-204.376 787.83,-198.233"/>
</g>
<!-- p54 -->
<g id="node57" class="node"><title>p54</title>
<ellipse fill="black" stroke="black" cx="917.6" cy="-342" rx="3.6" ry="3.6"/>
</g>
<!-- p54&#45;&gt;p55 -->
<g id="edge63" class="edge"><title>p54&#45;&gt;p55</title>
<path fill="none" stroke="black" d="M916.954,-338.265C915.322,-331.354 910.889,-312.578 907.05,-296.316"/>
<polygon fill="black" stroke="black" points="910.352,-295.071 904.648,-286.143 903.539,-296.68 910.352,-295.071"/>
<text text-anchor="middle" x="931.1" y="-308.3" font-family="Times,serif" font-size="14.00">meta</text>
</g>
<!-- p63 -->
<g id="node61" class="node"><title>p63</title>
<ellipse fill="none" stroke="black" cx="837.6" cy="-60" rx="228.17" ry="18"/>
<text text-anchor="middle" x="837.6" y="-56.3" font-family="Times,serif" font-size="14.00">EXPANSION_HUNTER_01:MERGE_VERSION</text>
</g>
<!-- p59&#45;&gt;p63 -->
<g id="edge68" class="edge"><title>p59&#45;&gt;p63</title>
<path fill="none" stroke="black" d="M776.26,-130.574C780.435,-124.529 791.806,-108.392 802.6,-96 805.667,-92.4787 809.01,-88.8752 812.372,-85.3831"/>
<polygon fill="black" stroke="black" points="815.133,-87.5678 819.665,-77.9913 810.15,-82.6513 815.133,-87.5678"/>
</g>
<!-- p64 -->
<g id="node65" class="node"><title>p64</title>
<ellipse fill="black" stroke="black" cx="837.6" cy="-2" rx="1.8" ry="1.8"/>
</g>
<!-- p63&#45;&gt;p64 -->
<g id="edge72" class="edge"><title>p63&#45;&gt;p64</title>
<path fill="none" stroke="black" d="M837.6,-41.8939C837.6,-32.8876 837.6,-22.0999 837.6,-14.1727"/>
<polygon fill="black" stroke="black" points="841.1,-13.9957 837.6,-3.99575 834.1,-13.9958 841.1,-13.9957"/>
</g>
<!-- p60 -->
<g id="node62" class="node"><title>p60</title>
<ellipse fill="black" stroke="black" cx="807.6" cy="-134" rx="3.6" ry="3.6"/>
</g>
<!-- p60&#45;&gt;p63 -->
<g id="edge69" class="edge"><title>p60&#45;&gt;p63</title>
<path fill="none" stroke="black" d="M807.074,-130.19C806.012,-123.846 804.079,-108.03 808.6,-96 809.86,-92.6482 811.584,-89.3851 813.568,-86.2844"/>
<polygon fill="black" stroke="black" points="816.538,-88.1557 819.681,-78.0376 810.914,-83.9874 816.538,-88.1557"/>
<text text-anchor="middle" x="827.1" y="-100.3" font-family="Times,serif" font-size="14.00">meta</text>
</g>
<!-- p61 -->
<g id="node63" class="node"><title>p61</title>
<ellipse fill="black" stroke="black" cx="867.6" cy="-134" rx="3.6" ry="3.6"/>
</g>
<!-- p61&#45;&gt;p63 -->
<g id="edge70" class="edge"><title>p61&#45;&gt;p63</title>
<path fill="none" stroke="black" d="M866.461,-130.265C863.526,-123.222 855.458,-103.859 848.596,-87.3898"/>
<polygon fill="black" stroke="black" points="851.82,-86.0275 844.743,-78.1429 845.358,-88.7198 851.82,-86.0275"/>
<text text-anchor="middle" x="879.6" y="-100.3" font-family="Times,serif" font-size="14.00">name</text>
</g>
<!-- p62 -->
<g id="node64" class="node"><title>p62</title>
<ellipse fill="black" stroke="black" cx="930.6" cy="-134" rx="3.6" ry="3.6"/>
</g>
<!-- p62&#45;&gt;p63 -->
<g id="edge71" class="edge"><title>p62&#45;&gt;p63</title>
<path fill="none" stroke="black" d="M929.228,-130.355C925.726,-123.811 915.86,-106.623 903.6,-96 898.074,-91.2119 891.781,-86.8352 885.328,-82.9211"/>
<polygon fill="black" stroke="black" points="886.904,-79.7909 876.484,-77.8751 883.435,-85.8709 886.904,-79.7909"/>
<text text-anchor="middle" x="959.6" y="-100.3" font-family="Times,serif" font-size="14.00">description</text>
</g>
</g>
</svg>
