<?xml version="1.0" encoding="UTF-8" standalone="no"?>
<!DOCTYPE svg PUBLIC "-//W3C//DTD SVG 1.1//EN"
 "http://www.w3.org/Graphics/SVG/1.1/DTD/svg11.dtd">
<!-- Generated by graphviz version 2.30.1 (20201013.1554)
 -->
<!-- Title: 20221017xhunterworkflow Pages: 1 -->
<svg width="1581pt" height="1176pt"
 viewBox="0.00 0.00 1580.60 1176.00" xmlns="http://www.w3.org/2000/svg" xmlns:xlink="http://www.w3.org/1999/xlink">
<g id="graph0" class="graph" transform="scale(1 1) rotate(0) translate(4 1172)">
<title>20221017xhunterworkflow</title>
<polygon fill="white" stroke="white" points="-4,5 -4,-1172 1577.6,-1172 1577.6,5 -4,5"/>
<!-- p0 -->
<g id="node1" class="node"><title>p0</title>
<ellipse fill="black" stroke="black" cx="112.6" cy="-222" rx="3.6" ry="3.6"/>
<text text-anchor="middle" x="54.5" y="-229.4" font-family="Times,serif" font-size="14.00">Channel.empty</text>
</g>
<!-- p7 -->
<g id="node2" class="node"><title>p7</title>
<ellipse fill="none" stroke="black" cx="353.6" cy="-134" rx="3.25" ry="3.5"/>
<text text-anchor="middle" x="336.6" y="-141.3" font-family="Times,serif" font-size="14.00">mix</text>
</g>
<!-- p0&#45;&gt;p7 -->
<g id="edge1" class="edge"><title>p0&#45;&gt;p7</title>
<path fill="none" stroke="black" d="M114.04,-218.148C116.096,-214.363 120.225,-207.724 125.6,-204 196.453,-154.91 303.067,-140.017 340.245,-136.177"/>
<polygon fill="black" stroke="black" points="340.694,-139.651 350.328,-135.242 340.047,-132.681 340.694,-139.651"/>
<text text-anchor="middle" x="228.6" y="-174.3" font-family="Times,serif" font-size="14.00">version_ch</text>
</g>
<!-- p48 -->
<g id="node9" class="node"><title>p48</title>
<ellipse fill="none" stroke="black" cx="577.6" cy="-60" rx="3.25" ry="3.5"/>
<text text-anchor="middle" x="560.6" y="-67.3" font-family="Times,serif" font-size="14.00">mix</text>
</g>
<!-- p7&#45;&gt;p48 -->
<g id="edge8" class="edge"><title>p7&#45;&gt;p48</title>
<path fill="none" stroke="black" d="M354.893,-130.622C357.034,-126.914 361.673,-119.79 367.6,-116 432.915,-74.2262 528.866,-64.0738 564.038,-61.6972"/>
<polygon fill="black" stroke="black" points="564.563,-65.1733 574.351,-61.1174 564.17,-58.1843 564.563,-65.1733"/>
<text text-anchor="middle" x="482.6" y="-86.3" font-family="Times,serif" font-size="14.00">version_ch</text>
</g>
<!-- p1 -->
<g id="node3" class="node"><title>p1</title>
<ellipse fill="black" stroke="black" cx="331.6" cy="-296" rx="3.6" ry="3.6"/>
</g>
<!-- p4 -->
<g id="node4" class="node"><title>p4</title>
<ellipse fill="none" stroke="black" cx="391.6" cy="-222" rx="257.066" ry="18"/>
<text text-anchor="middle" x="391.6" y="-218.3" font-family="Times,serif" font-size="14.00">EXPANSION_HUNTER_01:DOWNLOAD_XHUNTER</text>
</g>
<!-- p1&#45;&gt;p4 -->
<g id="edge2" class="edge"><title>p1&#45;&gt;p4</title>
<path fill="none" stroke="black" d="M332.502,-292.47C334.822,-286.189 341.46,-269.553 350.6,-258 353.634,-254.165 357.137,-250.437 360.792,-246.933"/>
<polygon fill="black" stroke="black" points="363.307,-249.379 368.405,-240.091 358.628,-244.172 363.307,-249.379"/>
<text text-anchor="middle" x="369.1" y="-262.3" font-family="Times,serif" font-size="14.00">meta</text>
</g>
<!-- p6 -->
<g id="node7" class="node"><title>p6</title>
<ellipse fill="black" stroke="black" cx="378.6" cy="-134" rx="1.8" ry="1.8"/>
</g>
<!-- p4&#45;&gt;p6 -->
<g id="edge5" class="edge"><title>p4&#45;&gt;p6</title>
<path fill="none" stroke="black" d="M388.969,-203.597C386.387,-186.516 382.525,-160.965 380.315,-146.348"/>
<polygon fill="black" stroke="black" points="383.721,-145.46 378.766,-136.095 376.8,-146.506 383.721,-145.46"/>
</g>
<!-- p5 -->
<g id="node8" class="node"><title>p5</title>
<ellipse fill="black" stroke="black" cx="403.6" cy="-134" rx="1.8" ry="1.8"/>
</g>
<!-- p4&#45;&gt;p5 -->
<g id="edge6" class="edge"><title>p4&#45;&gt;p5</title>
<path fill="none" stroke="black" d="M394.028,-203.597C396.412,-186.516 399.977,-160.965 402.017,-146.348"/>
<polygon fill="black" stroke="black" points="405.532,-146.483 403.447,-136.095 398.599,-145.516 405.532,-146.483"/>
</g>
<!-- p4&#45;&gt;p7 -->
<g id="edge7" class="edge"><title>p4&#45;&gt;p7</title>
<path fill="none" stroke="black" d="M383.91,-203.597C376.455,-186.725 365.348,-161.588 358.853,-146.888"/>
<polygon fill="black" stroke="black" points="361.907,-145.139 354.663,-137.407 355.504,-147.968 361.907,-145.139"/>
</g>
<!-- p2 -->
<g id="node5" class="node"><title>p2</title>
<ellipse fill="black" stroke="black" cx="391.6" cy="-296" rx="3.6" ry="3.6"/>
</g>
<!-- p2&#45;&gt;p4 -->
<g id="edge3" class="edge"><title>p2&#45;&gt;p4</title>
<path fill="none" stroke="black" d="M391.6,-292.265C391.6,-285.354 391.6,-266.578 391.6,-250.316"/>
<polygon fill="black" stroke="black" points="395.1,-250.143 391.6,-240.143 388.1,-250.143 395.1,-250.143"/>
<text text-anchor="middle" x="426.6" y="-262.3" font-family="Times,serif" font-size="14.00">reference</text>
</g>
<!-- p3 -->
<g id="node6" class="node"><title>p3</title>
<ellipse fill="black" stroke="black" cx="484.6" cy="-296" rx="3.6" ry="3.6"/>
</g>
<!-- p3&#45;&gt;p4 -->
<g id="edge4" class="edge"><title>p3&#45;&gt;p4</title>
<path fill="none" stroke="black" d="M483.631,-292.321C481.118,-285.7 473.795,-268.349 462.6,-258 457.258,-253.061 451.089,-248.669 444.664,-244.807"/>
<polygon fill="black" stroke="black" points="446.237,-241.677 435.797,-239.869 442.831,-247.793 446.237,-241.677"/>
<text text-anchor="middle" x="502.1" y="-262.3" font-family="Times,serif" font-size="14.00">catalog</text>
</g>
<!-- p49 -->
<g id="node50" class="node"><title>p49</title>
<ellipse fill="black" stroke="black" cx="577.6" cy="-2" rx="1.8" ry="1.8"/>
</g>
<!-- p48&#45;&gt;p49 -->
<g id="edge53" class="edge"><title>p48&#45;&gt;p49</title>
<path fill="none" stroke="black" d="M577.6,-56.299C577.6,-48.8543 577.6,-27.7113 577.6,-14.4007"/>
<polygon fill="black" stroke="black" points="581.1,-14.0502 577.6,-4.05021 574.1,-14.0502 581.1,-14.0502"/>
<text text-anchor="middle" x="604.1" y="-26.3" font-family="Times,serif" font-size="14.00">version</text>
</g>
<!-- p8 -->
<g id="node10" class="node"><title>p8</title>
<ellipse fill="black" stroke="black" cx="676.6" cy="-526" rx="3.6" ry="3.6"/>
<text text-anchor="middle" x="618.5" y="-533.4" font-family="Times,serif" font-size="14.00">Channel.empty</text>
</g>
<!-- p30 -->
<g id="node11" class="node"><title>p30</title>
<ellipse fill="none" stroke="black" cx="961.6" cy="-438" rx="3.25" ry="3.5"/>
<text text-anchor="middle" x="971.6" y="-445.3" font-family="Times,serif" font-size="14.00">mix</text>
</g>
<!-- p8&#45;&gt;p30 -->
<g id="edge9" class="edge"><title>p8&#45;&gt;p30</title>
<path fill="none" stroke="black" d="M677.73,-522.581C679.622,-518.819 683.801,-511.62 689.6,-508 789.197,-445.829 849.003,-518.171 948.6,-456 951.047,-454.473 953.205,-452.309 955.024,-450.034"/>
<polygon fill="black" stroke="black" points="958.086,-451.742 960.47,-441.419 952.168,-448.002 958.086,-451.742"/>
<text text-anchor="middle" x="947.6" y="-478.3" font-family="Times,serif" font-size="14.00">version_ch</text>
</g>
<!-- p42 -->
<g id="node34" class="node"><title>p42</title>
<ellipse fill="none" stroke="black" cx="677.6" cy="-296" rx="3.25" ry="3.5"/>
<text text-anchor="middle" x="660.6" y="-303.3" font-family="Times,serif" font-size="14.00">mix</text>
</g>
<!-- p30&#45;&gt;p42 -->
<g id="edge34" class="edge"><title>p30&#45;&gt;p42</title>
<path fill="none" stroke="black" d="M960.363,-434.732C958.325,-431.176 953.95,-424.256 948.6,-420 862.309,-351.352 731.554,-311.679 690.439,-300.38"/>
<polygon fill="black" stroke="black" points="691.121,-296.939 680.556,-297.745 689.317,-303.703 691.121,-296.939"/>
<text text-anchor="middle" x="903.6" y="-356.3" font-family="Times,serif" font-size="14.00">version_ch</text>
</g>
<!-- p9 -->
<g id="node12" class="node"><title>p9</title>
<ellipse fill="black" stroke="black" cx="1159.6" cy="-1090" rx="3.6" ry="3.6"/>
<text text-anchor="middle" x="1210.5" y="-1097.4" font-family="Times,serif" font-size="14.00">Channel.empty</text>
</g>
<!-- p13 -->
<g id="node13" class="node"><title>p13</title>
<ellipse fill="none" stroke="black" cx="1114.6" cy="-1016" rx="3.25" ry="3.5"/>
<text text-anchor="middle" x="1097.6" y="-1023.3" font-family="Times,serif" font-size="14.00">mix</text>
</g>
<!-- p9&#45;&gt;p13 -->
<g id="edge10" class="edge"><title>p9&#45;&gt;p13</title>
<path fill="none" stroke="black" d="M1158.1,-1086.6C1152.5,-1077.64 1132.53,-1045.68 1121.7,-1028.36"/>
<polygon fill="black" stroke="black" points="1124.42,-1026.1 1116.15,-1019.48 1118.48,-1029.81 1124.42,-1026.1"/>
<text text-anchor="middle" x="1175.6" y="-1042.3" font-family="Times,serif" font-size="14.00">version_ch</text>
</g>
<!-- p20 -->
<g id="node18" class="node"><title>p20</title>
<ellipse fill="none" stroke="black" cx="1075.6" cy="-836" rx="3.25" ry="3.5"/>
<text text-anchor="middle" x="1058.6" y="-843.3" font-family="Times,serif" font-size="14.00">mix</text>
</g>
<!-- p13&#45;&gt;p20 -->
<g id="edge15" class="edge"><title>p13&#45;&gt;p20</title>
<path fill="none" stroke="black" d="M1114.54,-1012.32C1114.16,-998.126 1111.56,-930.37 1095.6,-878 1092.4,-867.496 1086.8,-856.343 1082.34,-848.325"/>
<polygon fill="black" stroke="black" points="1085.23,-846.338 1077.16,-839.475 1079.19,-849.873 1085.23,-846.338"/>
<text text-anchor="middle" x="1147.6" y="-936.3" font-family="Times,serif" font-size="14.00">version_ch</text>
</g>
<!-- p10 -->
<g id="node14" class="node"><title>p10</title>
<ellipse fill="black" stroke="black" cx="703.6" cy="-1164" rx="3.6" ry="3.6"/>
</g>
<!-- p12 -->
<g id="node15" class="node"><title>p12</title>
<ellipse fill="none" stroke="black" cx="733.6" cy="-1090" rx="403.896" ry="18"/>
<text text-anchor="middle" x="733.6" y="-1086.3" font-family="Times,serif" font-size="14.00">EXPANSION_HUNTER_01:SEX_GUESS_02:SAMTOOLS_SAMPLES_01:SQRT_FILE</text>
</g>
<!-- p10&#45;&gt;p12 -->
<g id="edge11" class="edge"><title>p10&#45;&gt;p12</title>
<path fill="none" stroke="black" d="M703.074,-1160.19C702.012,-1153.85 700.079,-1138.03 704.6,-1126 705.86,-1122.65 707.584,-1119.39 709.568,-1116.28"/>
<polygon fill="black" stroke="black" points="712.538,-1118.16 715.681,-1108.04 706.914,-1113.99 712.538,-1118.16"/>
<text text-anchor="middle" x="723.1" y="-1130.3" font-family="Times,serif" font-size="14.00">meta</text>
</g>
<!-- p14 -->
<g id="node17" class="node"><title>p14</title>
<ellipse fill="none" stroke="black" cx="733.6" cy="-1016" rx="3.25" ry="3.5"/>
<text text-anchor="middle" x="698.1" y="-1023.3" font-family="Times,serif" font-size="14.00">splitText</text>
</g>
<!-- p12&#45;&gt;p14 -->
<g id="edge13" class="edge"><title>p12&#45;&gt;p14</title>
<path fill="none" stroke="black" d="M733.6,-1071.94C733.6,-1059.13 733.6,-1041.84 733.6,-1030.11"/>
<polygon fill="black" stroke="black" points="737.1,-1029.75 733.6,-1019.75 730.1,-1029.75 737.1,-1029.75"/>
</g>
<!-- p12&#45;&gt;p13 -->
<g id="edge14" class="edge"><title>p12&#45;&gt;p13</title>
<path fill="none" stroke="black" d="M821.487,-1072.39C915.694,-1054.59 1057.62,-1027.77 1101.32,-1019.51"/>
<polygon fill="black" stroke="black" points="1102.24,-1022.9 1111.41,-1017.6 1100.94,-1016.02 1102.24,-1022.9"/>
</g>
<!-- p11 -->
<g id="node16" class="node"><title>p11</title>
<ellipse fill="black" stroke="black" cx="763.6" cy="-1164" rx="3.6" ry="3.6"/>
</g>
<!-- p11&#45;&gt;p12 -->
<g id="edge12" class="edge"><title>p11&#45;&gt;p12</title>
<path fill="none" stroke="black" d="M762.461,-1160.27C759.526,-1153.22 751.458,-1133.86 744.596,-1117.39"/>
<polygon fill="black" stroke="black" points="747.82,-1116.03 740.743,-1108.14 741.358,-1118.72 747.82,-1116.03"/>
<text text-anchor="middle" x="773.1" y="-1130.3" font-family="Times,serif" font-size="14.00">filein</text>
</g>
<!-- p15 -->
<g id="node19" class="node"><title>p15</title>
<ellipse fill="none" stroke="black" cx="733.6" cy="-970" rx="3.25" ry="3.5"/>
<text text-anchor="middle" x="714.6" y="-977.3" font-family="Times,serif" font-size="14.00">map</text>
</g>
<!-- p14&#45;&gt;p15 -->
<g id="edge16" class="edge"><title>p14&#45;&gt;p15</title>
<path fill="none" stroke="black" d="M733.6,-1012.38C733.6,-1006.86 733.6,-993.742 733.6,-983.742"/>
<polygon fill="black" stroke="black" points="737.1,-983.552 733.6,-973.552 730.1,-983.552 737.1,-983.552"/>
</g>
<!-- p24 -->
<g id="node25" class="node"><title>p24</title>
<ellipse fill="none" stroke="black" cx="1075.6" cy="-688" rx="3.25" ry="3.5"/>
<text text-anchor="middle" x="1058.6" y="-695.3" font-family="Times,serif" font-size="14.00">mix</text>
</g>
<!-- p20&#45;&gt;p24 -->
<g id="edge23" class="edge"><title>p20&#45;&gt;p24</title>
<path fill="none" stroke="black" d="M1075.6,-832.466C1075.6,-816.891 1075.6,-733.746 1075.6,-701.652"/>
<polygon fill="black" stroke="black" points="1079.1,-701.604 1075.6,-691.604 1072.1,-701.604 1079.1,-701.604"/>
<text text-anchor="middle" x="1114.6" y="-758.3" font-family="Times,serif" font-size="14.00">version_ch</text>
</g>
<!-- p19 -->
<g id="node20" class="node"><title>p19</title>
<ellipse fill="none" stroke="black" cx="678.6" cy="-896" rx="408.246" ry="18"/>
<text text-anchor="middle" x="678.6" y="-892.3" font-family="Times,serif" font-size="14.00">EXPANSION_HUNTER_01:SEX_GUESS_02:SAMTOOLS_SAMPLES_01:ST_SAMPLE</text>
</g>
<!-- p15&#45;&gt;p19 -->
<g id="edge17" class="edge"><title>p15&#45;&gt;p19</title>
<path fill="none" stroke="black" d="M732.382,-966.547C729.3,-960.44 720.78,-944.172 711.6,-932 708.998,-928.55 706.099,-925.064 703.13,-921.698"/>
<polygon fill="black" stroke="black" points="705.524,-919.131 696.181,-914.136 700.37,-923.868 705.524,-919.131"/>
<text text-anchor="middle" x="756.6" y="-936.3" font-family="Times,serif" font-size="14.00">chunk_ch</text>
</g>
<!-- p21 -->
<g id="node24" class="node"><title>p21</title>
<ellipse fill="none" stroke="black" cx="678.6" cy="-836" rx="3.25" ry="3.5"/>
<text text-anchor="middle" x="650.6" y="-843.3" font-family="Times,serif" font-size="14.00">collect</text>
</g>
<!-- p19&#45;&gt;p21 -->
<g id="edge21" class="edge"><title>p19&#45;&gt;p21</title>
<path fill="none" stroke="black" d="M678.6,-877.912C678.6,-868.965 678.6,-858.187 678.6,-849.94"/>
<polygon fill="black" stroke="black" points="682.1,-849.691 678.6,-839.691 675.1,-849.691 682.1,-849.691"/>
</g>
<!-- p19&#45;&gt;p20 -->
<g id="edge22" class="edge"><title>p19&#45;&gt;p20</title>
<path fill="none" stroke="black" d="M790.508,-878.651C888.387,-864.351 1021.2,-844.947 1062.68,-838.887"/>
<polygon fill="black" stroke="black" points="1063.24,-842.342 1072.63,-837.433 1062.23,-835.416 1063.24,-842.342"/>
</g>
<!-- p16 -->
<g id="node21" class="node"><title>p16</title>
<ellipse fill="black" stroke="black" cx="826.6" cy="-970" rx="3.6" ry="3.6"/>
</g>
<!-- p16&#45;&gt;p19 -->
<g id="edge18" class="edge"><title>p16&#45;&gt;p19</title>
<path fill="none" stroke="black" d="M825.275,-966.596C821.525,-960.019 810.161,-941.582 795.6,-932 786.876,-926.259 777.178,-921.431 767.203,-917.378"/>
<polygon fill="black" stroke="black" points="768.168,-914.001 757.577,-913.725 765.685,-920.546 768.168,-914.001"/>
<text text-anchor="middle" x="830.1" y="-936.3" font-family="Times,serif" font-size="14.00">meta</text>
</g>
<!-- p17 -->
<g id="node22" class="node"><title>p17</title>
<ellipse fill="black" stroke="black" cx="540.6" cy="-970" rx="3.6" ry="3.6"/>
</g>
<!-- p17&#45;&gt;p19 -->
<g id="edge19" class="edge"><title>p17&#45;&gt;p19</title>
<path fill="none" stroke="black" d="M541.067,-966.205C542.365,-959.318 546.671,-941.409 557.6,-932 564.032,-926.462 571.295,-921.799 578.989,-917.873"/>
<polygon fill="black" stroke="black" points="580.602,-920.982 588.195,-913.593 577.652,-914.635 580.602,-920.982"/>
<text text-anchor="middle" x="592.6" y="-936.3" font-family="Times,serif" font-size="14.00">reference</text>
</g>
<!-- p18 -->
<g id="node23" class="node"><title>p18</title>
<ellipse fill="black" stroke="black" cx="633.6" cy="-970" rx="3.6" ry="3.6"/>
</g>
<!-- p18&#45;&gt;p19 -->
<g id="edge20" class="edge"><title>p18&#45;&gt;p19</title>
<path fill="none" stroke="black" d="M632.899,-966.114C631.479,-959.614 628.861,-943.499 634.6,-932 636.616,-927.961 639.34,-924.239 642.45,-920.851"/>
<polygon fill="black" stroke="black" points="644.87,-923.379 649.75,-913.975 640.07,-918.284 644.87,-923.379"/>
<text text-anchor="middle" x="673.1" y="-936.3" font-family="Times,serif" font-size="14.00">references</text>
</g>
<!-- p23 -->
<g id="node26" class="node"><title>p23</title>
<ellipse fill="none" stroke="black" cx="652.6" cy="-762" rx="386.573" ry="18"/>
<text text-anchor="middle" x="652.6" y="-758.3" font-family="Times,serif" font-size="14.00">EXPANSION_HUNTER_01:SEX_GUESS_02:SAMTOOLS_SAMPLES_01:DIGEST</text>
</g>
<!-- p21&#45;&gt;p23 -->
<g id="edge24" class="edge"><title>p21&#45;&gt;p23</title>
<path fill="none" stroke="black" d="M677.735,-832.604C675.327,-825.936 668.329,-806.557 662.326,-789.935"/>
<polygon fill="black" stroke="black" points="665.456,-788.297 658.768,-780.08 658.872,-790.674 665.456,-788.297"/>
</g>
<!-- p25 -->
<g id="node29" class="node"><title>p25</title>
<ellipse fill="none" stroke="black" cx="1078.6" cy="-614" rx="3.25" ry="3.5"/>
<text text-anchor="middle" x="1050.6" y="-621.3" font-family="Times,serif" font-size="14.00">collect</text>
</g>
<!-- p24&#45;&gt;p25 -->
<g id="edge28" class="edge"><title>p24&#45;&gt;p25</title>
<path fill="none" stroke="black" d="M1075.71,-684.265C1076.09,-675.133 1077.34,-645.282 1078.06,-627.892"/>
<polygon fill="black" stroke="black" points="1081.57,-627.874 1078.49,-617.737 1074.57,-627.583 1081.57,-627.874"/>
<text text-anchor="middle" x="1115.6" y="-654.3" font-family="Times,serif" font-size="14.00">version_ch</text>
</g>
<!-- p32 -->
<g id="node28" class="node"><title>p32</title>
<ellipse fill="none" stroke="black" cx="652.6" cy="-688" rx="3.25" ry="3.5"/>
<text text-anchor="middle" x="619.6" y="-695.3" font-family="Times,serif" font-size="14.00">splitCsv</text>
</g>
<!-- p23&#45;&gt;p32 -->
<g id="edge26" class="edge"><title>p23&#45;&gt;p32</title>
<path fill="none" stroke="black" d="M652.6,-743.937C652.6,-731.126 652.6,-713.843 652.6,-702.107"/>
<polygon fill="black" stroke="black" points="656.1,-701.748 652.6,-691.748 649.1,-701.748 656.1,-701.748"/>
<text text-anchor="middle" x="697.6" y="-714.3" font-family="Times,serif" font-size="14.00">sample_bam</text>
</g>
<!-- p23&#45;&gt;p24 -->
<g id="edge27" class="edge"><title>p23&#45;&gt;p24</title>
<path fill="none" stroke="black" d="M749.38,-744.527C855.042,-726.542 1015.48,-699.233 1062.33,-691.259"/>
<polygon fill="black" stroke="black" points="1063.12,-694.675 1072.39,-689.547 1061.94,-687.775 1063.12,-694.675"/>
</g>
<!-- p22 -->
<g id="node27" class="node"><title>p22</title>
<ellipse fill="black" stroke="black" cx="626.6" cy="-836" rx="3.6" ry="3.6"/>
</g>
<!-- p22&#45;&gt;p23 -->
<g id="edge25" class="edge"><title>p22&#45;&gt;p23</title>
<path fill="none" stroke="black" d="M625.743,-832.206C623.958,-825.895 620.341,-810.141 624.6,-798 625.769,-794.668 627.403,-791.418 629.301,-788.325"/>
<polygon fill="black" stroke="black" points="632.219,-790.26 635.18,-780.088 626.521,-786.194 632.219,-790.26"/>
<text text-anchor="middle" x="643.1" y="-802.3" font-family="Times,serif" font-size="14.00">meta</text>
</g>
<!-- p34 -->
<g id="node37" class="node"><title>p34</title>
<ellipse fill="none" stroke="black" cx="588.6" cy="-614" rx="406.321" ry="18"/>
<text text-anchor="middle" x="588.6" y="-610.3" font-family="Times,serif" font-size="14.00">EXPANSION_HUNTER_01:SEX_GUESS_02:SEX_GUESS_01:SEX_CONTIG_COUNT</text>
</g>
<!-- p32&#45;&gt;p34 -->
<g id="edge36" class="edge"><title>p32&#45;&gt;p34</title>
<path fill="none" stroke="black" d="M651.384,-684.489C648.292,-678.248 639.66,-661.699 629.6,-650 626.254,-646.108 622.459,-642.277 618.563,-638.66"/>
<polygon fill="black" stroke="black" points="620.845,-636.006 611.034,-632.008 616.21,-641.252 620.845,-636.006"/>
<text text-anchor="middle" x="661.6" y="-654.3" font-family="Times,serif" font-size="14.00">sn_ch</text>
</g>
<!-- p29 -->
<g id="node30" class="node"><title>p29</title>
<ellipse fill="none" stroke="black" cx="1135.6" cy="-526" rx="437.117" ry="18"/>
<text text-anchor="middle" x="1135.6" y="-522.3" font-family="Times,serif" font-size="14.00">EXPANSION_HUNTER_01:SEX_GUESS_02:SAMTOOLS_SAMPLES_01:MERGE_VERSION</text>
</g>
<!-- p25&#45;&gt;p29 -->
<g id="edge29" class="edge"><title>p25&#45;&gt;p29</title>
<path fill="none" stroke="black" d="M1080.24,-610.519C1085.83,-602.095 1104.49,-573.931 1118.62,-552.618"/>
<polygon fill="black" stroke="black" points="1121.55,-554.537 1124.16,-544.268 1115.71,-550.669 1121.55,-554.537"/>
</g>
<!-- p29&#45;&gt;p30 -->
<g id="edge33" class="edge"><title>p29&#45;&gt;p30</title>
<path fill="none" stroke="black" d="M1101.22,-508.009C1061.72,-488.482 999.016,-457.493 973.245,-444.755"/>
<polygon fill="black" stroke="black" points="974.734,-441.587 964.218,-440.294 971.632,-447.863 974.734,-441.587"/>
</g>
<!-- p26 -->
<g id="node31" class="node"><title>p26</title>
<ellipse fill="black" stroke="black" cx="1240.6" cy="-614" rx="3.6" ry="3.6"/>
</g>
<!-- p26&#45;&gt;p29 -->
<g id="edge30" class="edge"><title>p26&#45;&gt;p29</title>
<path fill="none" stroke="black" d="M1240.16,-610.274C1238.68,-601.924 1233.11,-576.396 1218.6,-562 1213.49,-556.927 1207.52,-552.547 1201.19,-548.774"/>
<polygon fill="black" stroke="black" points="1202.82,-545.676 1192.36,-543.998 1199.49,-551.834 1202.82,-545.676"/>
<text text-anchor="middle" x="1248.1" y="-566.3" font-family="Times,serif" font-size="14.00">meta</text>
</g>
<!-- p27 -->
<g id="node32" class="node"><title>p27</title>
<ellipse fill="black" stroke="black" cx="1047.6" cy="-614" rx="3.6" ry="3.6"/>
</g>
<!-- p27&#45;&gt;p29 -->
<g id="edge31" class="edge"><title>p27&#45;&gt;p29</title>
<path fill="none" stroke="black" d="M1047.33,-610.325C1046.65,-602.124 1045.7,-576.978 1057.6,-562 1061.39,-557.235 1065.96,-553.099 1070.97,-549.512"/>
<polygon fill="black" stroke="black" points="1073.16,-552.269 1079.76,-543.98 1069.43,-546.345 1073.16,-552.269"/>
<text text-anchor="middle" x="1077.6" y="-566.3" font-family="Times,serif" font-size="14.00">name</text>
</g>
<!-- p28 -->
<g id="node33" class="node"><title>p28</title>
<ellipse fill="black" stroke="black" cx="1135.6" cy="-614" rx="3.6" ry="3.6"/>
</g>
<!-- p28&#45;&gt;p29 -->
<g id="edge32" class="edge"><title>p28&#45;&gt;p29</title>
<path fill="none" stroke="black" d="M1135.6,-610.139C1135.6,-601.502 1135.6,-575.011 1135.6,-554.227"/>
<polygon fill="black" stroke="black" points="1139.1,-554.004 1135.6,-544.004 1132.1,-554.004 1139.1,-554.004"/>
<text text-anchor="middle" x="1176.6" y="-566.3" font-family="Times,serif" font-size="14.00">description</text>
</g>
<!-- p43 -->
<g id="node45" class="node"><title>p43</title>
<ellipse fill="none" stroke="black" cx="677.6" cy="-222" rx="3.25" ry="3.5"/>
<text text-anchor="middle" x="698.6" y="-229.3" font-family="Times,serif" font-size="14.00">collect</text>
</g>
<!-- p42&#45;&gt;p43 -->
<g id="edge47" class="edge"><title>p42&#45;&gt;p43</title>
<path fill="none" stroke="black" d="M677.6,-292.265C677.6,-283.133 677.6,-253.282 677.6,-235.892"/>
<polygon fill="black" stroke="black" points="681.1,-235.737 677.6,-225.737 674.1,-235.737 681.1,-235.737"/>
<text text-anchor="middle" x="716.6" y="-262.3" font-family="Times,serif" font-size="14.00">version_ch</text>
</g>
<!-- p31 -->
<g id="node35" class="node"><title>p31</title>
<ellipse fill="black" stroke="black" cx="160.6" cy="-614" rx="3.6" ry="3.6"/>
<text text-anchor="middle" x="102.5" y="-621.4" font-family="Times,serif" font-size="14.00">Channel.empty</text>
</g>
<!-- p35 -->
<g id="node36" class="node"><title>p35</title>
<ellipse fill="none" stroke="black" cx="171.6" cy="-526" rx="3.25" ry="3.5"/>
<text text-anchor="middle" x="154.6" y="-533.3" font-family="Times,serif" font-size="14.00">mix</text>
</g>
<!-- p31&#45;&gt;p35 -->
<g id="edge35" class="edge"><title>p31&#45;&gt;p35</title>
<path fill="none" stroke="black" d="M160.966,-610.139C162.355,-599.281 167.353,-560.206 169.972,-539.727"/>
<polygon fill="black" stroke="black" points="173.468,-539.978 171.266,-529.615 166.525,-539.09 173.468,-539.978"/>
<text text-anchor="middle" x="206.6" y="-566.3" font-family="Times,serif" font-size="14.00">version_ch</text>
</g>
<!-- p41 -->
<g id="node40" class="node"><title>p41</title>
<ellipse fill="none" stroke="black" cx="570.6" cy="-360" rx="3.25" ry="3.5"/>
<text text-anchor="middle" x="553.6" y="-367.3" font-family="Times,serif" font-size="14.00">mix</text>
</g>
<!-- p35&#45;&gt;p41 -->
<g id="edge40" class="edge"><title>p35&#45;&gt;p41</title>
<path fill="none" stroke="black" d="M170.777,-522.255C166.958,-508.903 152.322,-450.168 180.6,-420 233.285,-363.795 494.616,-360.812 557.143,-360.913"/>
<polygon fill="black" stroke="black" points="557.304,-364.414 567.321,-360.964 557.339,-357.414 557.304,-364.414"/>
<text text-anchor="middle" x="219.6" y="-434.3" font-family="Times,serif" font-size="14.00">version_ch</text>
</g>
<!-- p36 -->
<g id="node39" class="node"><title>p36</title>
<ellipse fill="none" stroke="black" cx="584.6" cy="-526" rx="3.25" ry="3.5"/>
<text text-anchor="middle" x="556.6" y="-511.3" font-family="Times,serif" font-size="14.00">collect</text>
</g>
<!-- p34&#45;&gt;p36 -->
<g id="edge38" class="edge"><title>p34&#45;&gt;p36</title>
<path fill="none" stroke="black" d="M587.791,-595.597C587.021,-579.046 585.881,-554.54 585.192,-539.737"/>
<polygon fill="black" stroke="black" points="588.685,-539.498 584.724,-529.671 581.693,-539.823 588.685,-539.498"/>
</g>
<!-- p34&#45;&gt;p35 -->
<g id="edge39" class="edge"><title>p34&#45;&gt;p35</title>
<path fill="none" stroke="black" d="M507.704,-596.316C404.213,-574.973 232.57,-539.574 184.476,-529.655"/>
<polygon fill="black" stroke="black" points="185.18,-526.227 174.679,-527.635 183.766,-533.083 185.18,-526.227"/>
</g>
<!-- p33 -->
<g id="node38" class="node"><title>p33</title>
<ellipse fill="black" stroke="black" cx="588.6" cy="-688" rx="3.6" ry="3.6"/>
</g>
<!-- p33&#45;&gt;p34 -->
<g id="edge37" class="edge"><title>p33&#45;&gt;p34</title>
<path fill="none" stroke="black" d="M588.6,-684.265C588.6,-677.354 588.6,-658.578 588.6,-642.316"/>
<polygon fill="black" stroke="black" points="592.1,-642.143 588.6,-632.143 585.1,-642.143 592.1,-642.143"/>
<text text-anchor="middle" x="607.1" y="-654.3" font-family="Times,serif" font-size="14.00">meta</text>
</g>
<!-- p38 -->
<g id="node41" class="node"><title>p38</title>
<ellipse fill="none" stroke="black" cx="603.6" cy="-438" rx="336.03" ry="18"/>
<text text-anchor="middle" x="603.6" y="-434.3" font-family="Times,serif" font-size="14.00">EXPANSION_HUNTER_01:SEX_GUESS_02:SEX_GUESS_01:DIGEST</text>
</g>
<!-- p36&#45;&gt;p38 -->
<g id="edge41" class="edge"><title>p36&#45;&gt;p38</title>
<path fill="none" stroke="black" d="M585.148,-522.519C586.968,-514.283 592.957,-487.173 597.624,-466.048"/>
<polygon fill="black" stroke="black" points="601.045,-466.787 599.785,-456.268 594.21,-465.277 601.045,-466.787"/>
</g>
<!-- p41&#45;&gt;p42 -->
<g id="edge46" class="edge"><title>p41&#45;&gt;p42</title>
<path fill="none" stroke="black" d="M573.245,-357.467C586.025,-350.062 641.756,-317.769 666.125,-303.649"/>
<polygon fill="black" stroke="black" points="668.15,-306.521 675.047,-298.479 664.64,-300.464 668.15,-306.521"/>
<text text-anchor="middle" x="666.1" y="-322.3" font-family="Times,serif" font-size="14.00">version</text>
</g>
<!-- p40 -->
<g id="node43" class="node"><title>p40</title>
<ellipse fill="black" stroke="black" cx="650.6" cy="-360" rx="1.8" ry="1.8"/>
</g>
<!-- p38&#45;&gt;p40 -->
<g id="edge43" class="edge"><title>p38&#45;&gt;p40</title>
<path fill="none" stroke="black" d="M616.51,-419.852C620.538,-414.263 624.893,-407.961 628.6,-402 634.946,-391.796 641.345,-379.608 645.593,-371.186"/>
<polygon fill="black" stroke="black" points="648.818,-372.558 650.103,-362.041 642.54,-369.462 648.818,-372.558"/>
<text text-anchor="middle" x="660.6" y="-390.3" font-family="Times,serif" font-size="14.00">output</text>
</g>
<!-- p39 -->
<g id="node44" class="node"><title>p39</title>
<ellipse fill="black" stroke="black" cx="603.6" cy="-360" rx="1.8" ry="1.8"/>
</g>
<!-- p38&#45;&gt;p39 -->
<g id="edge44" class="edge"><title>p38&#45;&gt;p39</title>
<path fill="none" stroke="black" d="M603.6,-419.754C603.6,-405.149 603.6,-384.642 603.6,-372.119"/>
<polygon fill="black" stroke="black" points="607.1,-371.917 603.6,-361.917 600.1,-371.917 607.1,-371.917"/>
<text text-anchor="middle" x="615.6" y="-390.3" font-family="Times,serif" font-size="14.00">pdf</text>
</g>
<!-- p38&#45;&gt;p41 -->
<g id="edge45" class="edge"><title>p38&#45;&gt;p41</title>
<path fill="none" stroke="black" d="M596.112,-419.754C589.886,-405.417 581.192,-385.393 575.731,-372.817"/>
<polygon fill="black" stroke="black" points="578.866,-371.248 571.672,-363.469 572.445,-374.036 578.866,-371.248"/>
</g>
<!-- p37 -->
<g id="node42" class="node"><title>p37</title>
<ellipse fill="black" stroke="black" cx="616.6" cy="-526" rx="3.6" ry="3.6"/>
</g>
<!-- p37&#45;&gt;p38 -->
<g id="edge42" class="edge"><title>p37&#45;&gt;p38</title>
<path fill="none" stroke="black" d="M616.167,-522.139C614.856,-513.462 610.821,-486.767 607.673,-465.942"/>
<polygon fill="black" stroke="black" points="611.126,-465.368 606.17,-456.004 604.204,-466.415 611.126,-465.368"/>
<text text-anchor="middle" x="630.1" y="-478.3" font-family="Times,serif" font-size="14.00">meta</text>
</g>
<!-- p47 -->
<g id="node46" class="node"><title>p47</title>
<ellipse fill="none" stroke="black" cx="730.6" cy="-134" rx="307.134" ry="18"/>
<text text-anchor="middle" x="730.6" y="-130.3" font-family="Times,serif" font-size="14.00">EXPANSION_HUNTER_01:SEX_GUESS_02:MERGE_VERSION</text>
</g>
<!-- p43&#45;&gt;p47 -->
<g id="edge48" class="edge"><title>p43&#45;&gt;p47</title>
<path fill="none" stroke="black" d="M678.714,-218.59C682.188,-211.15 693.266,-187.962 704.6,-170 706.617,-166.803 708.837,-163.522 711.103,-160.31"/>
<polygon fill="black" stroke="black" points="714.041,-162.222 717.104,-152.08 708.384,-158.098 714.041,-162.222"/>
</g>
<!-- p47&#45;&gt;p48 -->
<g id="edge52" class="edge"><title>p47&#45;&gt;p48</title>
<path fill="none" stroke="black" d="M694.728,-116.119C660.888,-100.194 612.104,-77.2373 589.692,-66.6905"/>
<polygon fill="black" stroke="black" points="590.942,-63.4106 580.404,-62.3194 587.962,-69.7443 590.942,-63.4106"/>
</g>
<!-- p44 -->
<g id="node47" class="node"><title>p44</title>
<ellipse fill="black" stroke="black" cx="710.6" cy="-222" rx="3.6" ry="3.6"/>
</g>
<!-- p44&#45;&gt;p47 -->
<g id="edge49" class="edge"><title>p44&#45;&gt;p47</title>
<path fill="none" stroke="black" d="M710.196,-218.172C709.174,-210.346 706.892,-187.808 711.6,-170 712.388,-167.021 713.477,-164.019 714.738,-161.092"/>
<polygon fill="black" stroke="black" points="717.883,-162.629 719.2,-152.117 711.614,-159.514 717.883,-162.629"/>
<text text-anchor="middle" x="730.1" y="-174.3" font-family="Times,serif" font-size="14.00">meta</text>
</g>
<!-- p45 -->
<g id="node48" class="node"><title>p45</title>
<ellipse fill="black" stroke="black" cx="770.6" cy="-222" rx="3.6" ry="3.6"/>
</g>
<!-- p45&#45;&gt;p47 -->
<g id="edge50" class="edge"><title>p45&#45;&gt;p47</title>
<path fill="none" stroke="black" d="M769.473,-218.206C766.335,-210.469 757.164,-188.137 748.6,-170 747.272,-167.187 745.846,-164.267 744.401,-161.368"/>
<polygon fill="black" stroke="black" points="747.459,-159.659 739.807,-152.331 741.219,-162.832 747.459,-159.659"/>
<text text-anchor="middle" x="774.6" y="-174.3" font-family="Times,serif" font-size="14.00">name</text>
</g>
<!-- p46 -->
<g id="node49" class="node"><title>p46</title>
<ellipse fill="black" stroke="black" cx="833.6" cy="-222" rx="3.6" ry="3.6"/>
</g>
<!-- p46&#45;&gt;p47 -->
<g id="edge51" class="edge"><title>p46&#45;&gt;p47</title>
<path fill="none" stroke="black" d="M832.367,-218.332C828.474,-210.149 815.68,-185.052 798.6,-170 793.121,-165.172 786.858,-160.803 780.4,-156.918"/>
<polygon fill="black" stroke="black" points="781.959,-153.78 771.528,-151.924 778.525,-159.88 781.959,-153.78"/>
<text text-anchor="middle" x="852.6" y="-174.3" font-family="Times,serif" font-size="14.00">description</text>
</g>
</g>
</svg>
