<?xml version="1.0" encoding="UTF-8" standalone="no"?>
<!DOCTYPE svg PUBLIC "-//W3C//DTD SVG 1.1//EN"
 "http://www.w3.org/Graphics/SVG/1.1/DTD/svg11.dtd">
<!-- Generated by graphviz version 2.30.1 (20201013.1554)
 -->
<!-- Title: 20221114hs38mecontaminationworkflow Pages: 1 -->
<svg width="1189pt" height="1580pt"
 viewBox="0.00 0.00 1188.60 1580.00" xmlns="http://www.w3.org/2000/svg" xmlns:xlink="http://www.w3.org/1999/xlink">
<g id="graph0" class="graph" transform="scale(1 1) rotate(0) translate(4 1576)">
<title>20221114hs38mecontaminationworkflow</title>
<polygon fill="white" stroke="white" points="-4,5 -4,-1576 1185.6,-1576 1185.6,5 -4,5"/>
<!-- p0 -->
<g id="node1" class="node"><title>p0</title>
<ellipse fill="black" stroke="black" cx="749.6" cy="-1078" rx="3.6" ry="3.6"/>
<text text-anchor="middle" x="788" y="-1085.4" font-family="Times,serif" font-size="14.00">Channel.empty</text>
</g>
<!-- p3 -->
<g id="node2" class="node"><title>p3</title>
<ellipse fill="none" stroke="black" cx="710.6" cy="-990" rx="3.25" ry="3.5"/>
<text text-anchor="middle" x="696.1" y="-997.3" font-family="Times,serif" font-size="14.00">mix</text>
</g>
<!-- p0&#45;&gt;p3 -->
<g id="edge1" class="edge"><title>p0&#45;&gt;p3</title>
<path fill="none" stroke="black" d="M748.475,-1074.52C743.714,-1064.02 725.049,-1022.86 715.821,-1002.51"/>
<polygon fill="black" stroke="black" points="718.973,-1000.99 711.656,-993.328 712.598,-1003.88 718.973,-1000.99"/>
<text text-anchor="middle" x="762.1" y="-1030.3" font-family="Times,serif" font-size="14.00">version_ch</text>
</g>
<!-- p12 -->
<g id="node6" class="node"><title>p12</title>
<ellipse fill="none" stroke="black" cx="841.6" cy="-902" rx="3.25" ry="3.5"/>
<text text-anchor="middle" x="849.1" y="-909.3" font-family="Times,serif" font-size="14.00">mix</text>
</g>
<!-- p3&#45;&gt;p12 -->
<g id="edge5" class="edge"><title>p3&#45;&gt;p12</title>
<path fill="none" stroke="black" d="M711.876,-986.779C713.967,-983.288 718.415,-976.455 723.6,-972 747.438,-951.52 757.288,-951.642 785.6,-938 804.264,-929.007 812.197,-932.657 828.6,-920 830.883,-918.238 832.977,-915.982 834.787,-913.693"/>
<polygon fill="black" stroke="black" points="837.754,-915.551 840.378,-905.287 831.925,-911.675 837.754,-915.551"/>
<text text-anchor="middle" x="815.1" y="-942.3" font-family="Times,serif" font-size="14.00">version_ch</text>
</g>
<!-- p1 -->
<g id="node3" class="node"><title>p1</title>
<ellipse fill="black" stroke="black" cx="601.6" cy="-1166" rx="3.6" ry="3.6"/>
</g>
<!-- p2 -->
<g id="node4" class="node"><title>p2</title>
<ellipse fill="none" stroke="black" cx="601.6" cy="-1078" rx="126.133" ry="18"/>
<text text-anchor="middle" x="601.6" y="-1074.3" font-family="Times,serif" font-size="14.00">CONTAMINATION:COMPILE</text>
</g>
<!-- p1&#45;&gt;p2 -->
<g id="edge2" class="edge"><title>p1&#45;&gt;p2</title>
<path fill="none" stroke="black" d="M601.6,-1162.14C601.6,-1153.5 601.6,-1127.01 601.6,-1106.23"/>
<polygon fill="black" stroke="black" points="605.1,-1106 601.6,-1096 598.1,-1106 605.1,-1106"/>
<text text-anchor="middle" x="615.6" y="-1118.3" font-family="Times,serif" font-size="14.00">meta</text>
</g>
<!-- p38 -->
<g id="node5" class="node"><title>p38</title>
<ellipse fill="none" stroke="black" cx="250.6" cy="-990" rx="204.123" ry="18"/>
<text text-anchor="middle" x="250.6" y="-986.3" font-family="Times,serif" font-size="14.00">CONTAMINATION:EXTRACT_BAM_UNMAPPED</text>
</g>
<!-- p2&#45;&gt;p38 -->
<g id="edge3" class="edge"><title>p2&#45;&gt;p38</title>
<path fill="none" stroke="black" d="M540.861,-1062.12C481.355,-1047.54 390.503,-1025.28 326.318,-1009.55"/>
<polygon fill="black" stroke="black" points="326.8,-1006.07 316.254,-1007.09 325.134,-1012.87 326.8,-1006.07"/>
</g>
<!-- p2&#45;&gt;p3 -->
<g id="edge4" class="edge"><title>p2&#45;&gt;p3</title>
<path fill="none" stroke="black" d="M622.875,-1060.21C646.077,-1041.91 682.271,-1013.35 700.038,-999.334"/>
<polygon fill="black" stroke="black" points="702.449,-1001.89 708.132,-992.948 698.113,-996.394 702.449,-1001.89"/>
</g>
<!-- p40 -->
<g id="node43" class="node"><title>p40</title>
<ellipse fill="none" stroke="black" cx="167.6" cy="-858" rx="3.25" ry="3.5"/>
<text text-anchor="middle" x="151.6" y="-865.3" font-family="Times,serif" font-size="14.00">map</text>
</g>
<!-- p38&#45;&gt;p40 -->
<g id="edge45" class="edge"><title>p38&#45;&gt;p40</title>
<path fill="none" stroke="black" d="M239.749,-972.005C222.457,-944.921 189.126,-892.715 174.625,-870.003"/>
<polygon fill="black" stroke="black" points="177.387,-867.826 169.056,-861.28 171.487,-871.593 177.387,-867.826"/>
</g>
<!-- p39 -->
<g id="node41" class="node"><title>p39</title>
<ellipse fill="none" stroke="black" cx="525.6" cy="-754" rx="3.25" ry="3.5"/>
<text text-anchor="middle" x="533.1" y="-761.3" font-family="Times,serif" font-size="14.00">mix</text>
</g>
<!-- p38&#45;&gt;p39 -->
<g id="edge46" class="edge"><title>p38&#45;&gt;p39</title>
<path fill="none" stroke="black" d="M250.905,-971.748C252.176,-949.147 257.521,-909.411 278.6,-884 352.214,-795.26 423.105,-844.694 512.6,-772 514.839,-770.182 516.915,-767.903 518.722,-765.61"/>
<polygon fill="black" stroke="black" points="521.666,-767.504 524.353,-757.255 515.861,-763.591 521.666,-767.504"/>
</g>
<!-- p35 -->
<g id="node16" class="node"><title>p35</title>
<ellipse fill="none" stroke="black" cx="553.6" cy="-828" rx="3.25" ry="3.5"/>
<text text-anchor="middle" x="539.1" y="-835.3" font-family="Times,serif" font-size="14.00">mix</text>
</g>
<!-- p12&#45;&gt;p35 -->
<g id="edge16" class="edge"><title>p12&#45;&gt;p35</title>
<path fill="none" stroke="black" d="M840.47,-898.581C838.579,-894.817 834.401,-887.618 828.6,-884 740.809,-829.243 609.271,-827.495 567.112,-828.482"/>
<polygon fill="black" stroke="black" points="566.764,-824.991 556.888,-828.827 567.001,-831.987 566.764,-824.991"/>
<text text-anchor="middle" x="817.1" y="-854.3" font-family="Times,serif" font-size="14.00">version_ch</text>
</g>
<!-- p4 -->
<g id="node7" class="node"><title>p4</title>
<ellipse fill="black" stroke="black" cx="956.6" cy="-1078" rx="3.6" ry="3.6"/>
</g>
<!-- p5 -->
<g id="node8" class="node"><title>p5</title>
<ellipse fill="none" stroke="black" cx="956.6" cy="-990" rx="224.345" ry="18"/>
<text text-anchor="middle" x="956.6" y="-986.3" font-family="Times,serif" font-size="14.00">CONTAMINATION:NCBI_DOWNLOAD_TAXDUMP_01</text>
</g>
<!-- p4&#45;&gt;p5 -->
<g id="edge6" class="edge"><title>p4&#45;&gt;p5</title>
<path fill="none" stroke="black" d="M956.6,-1074.14C956.6,-1065.5 956.6,-1039.01 956.6,-1018.23"/>
<polygon fill="black" stroke="black" points="960.1,-1018 956.6,-1008 953.1,-1018 960.1,-1018"/>
<text text-anchor="middle" x="970.6" y="-1030.3" font-family="Times,serif" font-size="14.00">meta</text>
</g>
<!-- p11 -->
<g id="node9" class="node"><title>p11</title>
<ellipse fill="black" stroke="black" cx="994.6" cy="-902" rx="1.8" ry="1.8"/>
</g>
<!-- p5&#45;&gt;p11 -->
<g id="edge7" class="edge"><title>p5&#45;&gt;p11</title>
<path fill="none" stroke="black" d="M967.202,-971.878C970.439,-966.29 973.862,-959.982 976.6,-954 982.686,-940.702 988.029,-924.708 991.281,-914.22"/>
<polygon fill="black" stroke="black" points="994.737,-914.878 994.237,-904.295 988.028,-912.88 994.737,-914.878"/>
</g>
<!-- p10 -->
<g id="node10" class="node"><title>p10</title>
<ellipse fill="black" stroke="black" cx="1019.6" cy="-902" rx="1.8" ry="1.8"/>
</g>
<!-- p5&#45;&gt;p10 -->
<g id="edge8" class="edge"><title>p5&#45;&gt;p10</title>
<path fill="none" stroke="black" d="M977.083,-971.974C982.844,-966.59 988.833,-960.372 993.6,-954 1003.08,-941.327 1010.83,-924.686 1015.33,-913.917"/>
<polygon fill="black" stroke="black" points="1018.69,-914.942 1019.11,-904.356 1012.18,-912.369 1018.69,-914.942"/>
</g>
<!-- p9 -->
<g id="node11" class="node"><title>p9</title>
<ellipse fill="black" stroke="black" cx="1044.6" cy="-902" rx="1.8" ry="1.8"/>
</g>
<!-- p5&#45;&gt;p9 -->
<g id="edge9" class="edge"><title>p5&#45;&gt;p9</title>
<path fill="none" stroke="black" d="M989.239,-972.046C997.412,-966.911 1005.78,-960.804 1012.6,-954 1024.8,-941.82 1034.56,-924.164 1039.97,-913.145"/>
<polygon fill="black" stroke="black" points="1043.26,-914.356 1044.26,-903.809 1036.9,-911.43 1043.26,-914.356"/>
</g>
<!-- p8 -->
<g id="node12" class="node"><title>p8</title>
<ellipse fill="black" stroke="black" cx="921.6" cy="-902" rx="1.8" ry="1.8"/>
</g>
<!-- p5&#45;&gt;p8 -->
<g id="edge10" class="edge"><title>p5&#45;&gt;p8</title>
<path fill="none" stroke="black" d="M949.517,-971.597C942.421,-954.161 931.732,-927.896 925.852,-913.449"/>
<polygon fill="black" stroke="black" points="929.057,-912.038 922.046,-904.095 922.574,-914.677 929.057,-912.038"/>
</g>
<!-- p7 -->
<g id="node13" class="node"><title>p7</title>
<ellipse fill="black" stroke="black" cx="944.6" cy="-902" rx="1.8" ry="1.8"/>
</g>
<!-- p5&#45;&gt;p7 -->
<g id="edge11" class="edge"><title>p5&#45;&gt;p7</title>
<path fill="none" stroke="black" d="M954.172,-971.597C951.788,-954.516 948.223,-928.965 946.183,-914.348"/>
<polygon fill="black" stroke="black" points="949.601,-913.516 944.753,-904.095 942.668,-914.483 949.601,-913.516"/>
</g>
<!-- p47 -->
<g id="node14" class="node"><title>p47</title>
<ellipse fill="none" stroke="black" cx="578.6" cy="-666" rx="147.305" ry="18"/>
<text text-anchor="middle" x="578.6" y="-662.3" font-family="Times,serif" font-size="14.00">CONTAMINATION:COMPILE_TAX</text>
</g>
<!-- p5&#45;&gt;p47 -->
<g id="edge12" class="edge"><title>p5&#45;&gt;p47</title>
<path fill="none" stroke="black" d="M921.856,-972.173C899.006,-956.993 873.6,-932.546 873.6,-903 873.6,-903 873.6,-903 873.6,-753 873.6,-713.865 779.142,-691.638 697.091,-679.629"/>
<polygon fill="black" stroke="black" points="697.547,-676.158 687.153,-678.214 696.56,-683.089 697.547,-676.158"/>
</g>
<!-- p5&#45;&gt;p47 -->
<g id="edge13" class="edge"><title>p5&#45;&gt;p47</title>
<path fill="none" stroke="black" d="M935.849,-971.868C916.668,-956.667 891.6,-932.349 891.6,-903 891.6,-903 891.6,-903 891.6,-753 891.6,-712.664 791.252,-690.289 704.156,-678.551"/>
<polygon fill="black" stroke="black" points="704.521,-675.069 694.152,-677.241 703.612,-682.01 704.521,-675.069"/>
</g>
<!-- p6 -->
<g id="node15" class="node"><title>p6</title>
<ellipse fill="black" stroke="black" cx="969.6" cy="-902" rx="1.8" ry="1.8"/>
</g>
<!-- p5&#45;&gt;p6 -->
<g id="edge14" class="edge"><title>p5&#45;&gt;p6</title>
<path fill="none" stroke="black" d="M959.231,-971.597C961.813,-954.516 965.675,-928.965 967.885,-914.348"/>
<polygon fill="black" stroke="black" points="971.4,-914.506 969.434,-904.095 964.479,-913.46 971.4,-914.506"/>
</g>
<!-- p5&#45;&gt;p12 -->
<g id="edge15" class="edge"><title>p5&#45;&gt;p12</title>
<path fill="none" stroke="black" d="M887.388,-972.734C877.144,-967.99 867.421,-961.876 859.6,-954 849.409,-943.738 844.965,-927.361 843.042,-915.944"/>
<polygon fill="black" stroke="black" points="846.481,-915.24 841.769,-905.75 839.535,-916.107 846.481,-915.24"/>
</g>
<!-- p51 -->
<g id="node45" class="node"><title>p51</title>
<ellipse fill="none" stroke="black" cx="319.6" cy="-578" rx="135.258" ry="18"/>
<text text-anchor="middle" x="319.6" y="-574.3" font-family="Times,serif" font-size="14.00">CONTAMINATION:BWA_VIRUS</text>
</g>
<!-- p47&#45;&gt;p51 -->
<g id="edge57" class="edge"><title>p47&#45;&gt;p51</title>
<path fill="none" stroke="black" d="M496.716,-650.921C471.9,-645.576 444.812,-638.641 420.6,-630 398.66,-622.17 375.372,-610.649 356.694,-600.538"/>
<polygon fill="black" stroke="black" points="358.37,-597.465 347.921,-595.71 354.994,-603.598 358.37,-597.465"/>
</g>
<!-- p48 -->
<g id="node49" class="node"><title>p48</title>
<ellipse fill="none" stroke="black" cx="485.6" cy="-578" rx="3.25" ry="3.5"/>
<text text-anchor="middle" x="471.1" y="-585.3" font-family="Times,serif" font-size="14.00">mix</text>
</g>
<!-- p47&#45;&gt;p48 -->
<g id="edge58" class="edge"><title>p47&#45;&gt;p48</title>
<path fill="none" stroke="black" d="M560.226,-648.009C540.772,-630.02 510.798,-602.301 495.429,-588.089"/>
<polygon fill="black" stroke="black" points="497.413,-585.157 487.695,-580.937 492.661,-590.296 497.413,-585.157"/>
</g>
<!-- p35&#45;&gt;p39 -->
<g id="edge42" class="edge"><title>p35&#45;&gt;p39</title>
<path fill="none" stroke="black" d="M552.668,-824.604C549.214,-815.723 536.99,-784.289 530.212,-766.859"/>
<polygon fill="black" stroke="black" points="533.45,-765.53 526.564,-757.478 526.926,-768.067 533.45,-765.53"/>
<text text-anchor="middle" x="575.1" y="-794.3" font-family="Times,serif" font-size="14.00">version_ch</text>
</g>
<!-- p13 -->
<g id="node17" class="node"><title>p13</title>
<ellipse fill="black" stroke="black" cx="87.6" cy="-754" rx="3.6" ry="3.6"/>
<text text-anchor="middle" x="42" y="-761.4" font-family="Times,serif" font-size="14.00">Channel.empty</text>
</g>
<!-- p41 -->
<g id="node18" class="node"><title>p41</title>
<ellipse fill="none" stroke="black" cx="167.6" cy="-666" rx="3.25" ry="3.5"/>
<text text-anchor="middle" x="153.1" y="-673.3" font-family="Times,serif" font-size="14.00">mix</text>
</g>
<!-- p13&#45;&gt;p41 -->
<g id="edge17" class="edge"><title>p13&#45;&gt;p41</title>
<path fill="none" stroke="black" d="M86.6556,-750.31C83.9468,-742.066 77.0583,-716.808 88.6,-702 107.291,-678.019 129.371,-700.969 154.6,-684 156.993,-682.39 159.13,-680.194 160.947,-677.914"/>
<polygon fill="black" stroke="black" points="163.975,-679.676 166.44,-669.372 158.087,-675.89 163.975,-679.676"/>
<text text-anchor="middle" x="111.6" y="-706.3" font-family="Times,serif" font-size="14.00">fastq_ch</text>
</g>
<!-- p41&#45;&gt;p51 -->
<g id="edge49" class="edge"><title>p41&#45;&gt;p51</title>
<path fill="none" stroke="black" d="M170.238,-663.507C183.222,-656.161 241.304,-623.299 281.093,-600.787"/>
<polygon fill="black" stroke="black" points="283.048,-603.702 290.028,-595.732 279.601,-597.61 283.048,-603.702"/>
<text text-anchor="middle" x="280.6" y="-618.3" font-family="Times,serif" font-size="14.00">fastq_ch</text>
</g>
<!-- p14 -->
<g id="node19" class="node"><title>p14</title>
<ellipse fill="black" stroke="black" cx="652.6" cy="-1494" rx="3.6" ry="3.6"/>
<text text-anchor="middle" x="691" y="-1501.4" font-family="Times,serif" font-size="14.00">Channel.empty</text>
</g>
<!-- p18 -->
<g id="node20" class="node"><title>p18</title>
<ellipse fill="none" stroke="black" cx="548.6" cy="-1420" rx="3.25" ry="3.5"/>
<text text-anchor="middle" x="534.1" y="-1427.3" font-family="Times,serif" font-size="14.00">mix</text>
</g>
<!-- p14&#45;&gt;p18 -->
<g id="edge18" class="edge"><title>p14&#45;&gt;p18</title>
<path fill="none" stroke="black" d="M651.011,-1490.34C648.788,-1486.76 644.469,-1480.36 639.6,-1476 614.567,-1453.56 579.1,-1435.21 560.711,-1426.49"/>
<polygon fill="black" stroke="black" points="561.922,-1423.2 551.374,-1422.21 559.001,-1429.56 561.922,-1423.2"/>
<text text-anchor="middle" x="643.1" y="-1446.3" font-family="Times,serif" font-size="14.00">version_ch</text>
</g>
<!-- p25 -->
<g id="node25" class="node"><title>p25</title>
<ellipse fill="none" stroke="black" cx="516.6" cy="-1240" rx="3.25" ry="3.5"/>
<text text-anchor="middle" x="502.1" y="-1247.3" font-family="Times,serif" font-size="14.00">mix</text>
</g>
<!-- p18&#45;&gt;p25 -->
<g id="edge23" class="edge"><title>p18&#45;&gt;p25</title>
<path fill="none" stroke="black" d="M548.401,-1416.36C547.313,-1402.35 541.677,-1335.4 529.6,-1282 527.368,-1272.13 523.858,-1261.23 521.048,-1253.15"/>
<polygon fill="black" stroke="black" points="524.269,-1251.76 517.575,-1243.55 517.686,-1254.14 524.269,-1251.76"/>
<text text-anchor="middle" x="571.1" y="-1340.3" font-family="Times,serif" font-size="14.00">version_ch</text>
</g>
<!-- p15 -->
<g id="node21" class="node"><title>p15</title>
<ellipse fill="black" stroke="black" cx="367.6" cy="-1568" rx="3.6" ry="3.6"/>
</g>
<!-- p17 -->
<g id="node22" class="node"><title>p17</title>
<ellipse fill="none" stroke="black" cx="392.6" cy="-1494" rx="238.293" ry="18"/>
<text text-anchor="middle" x="392.6" y="-1490.3" font-family="Times,serif" font-size="14.00">CONTAMINATION:SAMTOOLS_SAMPLES_01:SQRT_FILE</text>
</g>
<!-- p15&#45;&gt;p17 -->
<g id="edge19" class="edge"><title>p15&#45;&gt;p17</title>
<path fill="none" stroke="black" d="M367.153,-1564.22C366.253,-1557.93 364.63,-1542.22 368.6,-1530 369.624,-1526.85 371.03,-1523.72 372.651,-1520.71"/>
<polygon fill="black" stroke="black" points="375.691,-1522.45 377.997,-1512.11 369.745,-1518.75 375.691,-1522.45"/>
<text text-anchor="middle" x="382.6" y="-1534.3" font-family="Times,serif" font-size="14.00">meta</text>
</g>
<!-- p19 -->
<g id="node24" class="node"><title>p19</title>
<ellipse fill="none" stroke="black" cx="392.6" cy="-1420" rx="3.25" ry="3.5"/>
<text text-anchor="middle" x="366.1" y="-1427.3" font-family="Times,serif" font-size="14.00">splitText</text>
</g>
<!-- p17&#45;&gt;p19 -->
<g id="edge21" class="edge"><title>p17&#45;&gt;p19</title>
<path fill="none" stroke="black" d="M392.6,-1475.94C392.6,-1463.13 392.6,-1445.84 392.6,-1434.11"/>
<polygon fill="black" stroke="black" points="396.1,-1433.75 392.6,-1423.75 389.1,-1433.75 396.1,-1433.75"/>
</g>
<!-- p17&#45;&gt;p18 -->
<g id="edge22" class="edge"><title>p17&#45;&gt;p18</title>
<path fill="none" stroke="black" d="M429.175,-1476.12C463.838,-1460.12 513.878,-1437.03 536.585,-1426.55"/>
<polygon fill="black" stroke="black" points="538.128,-1429.69 545.741,-1422.32 535.195,-1423.33 538.128,-1429.69"/>
</g>
<!-- p16 -->
<g id="node23" class="node"><title>p16</title>
<ellipse fill="black" stroke="black" cx="418.6" cy="-1568" rx="3.6" ry="3.6"/>
</g>
<!-- p16&#45;&gt;p17 -->
<g id="edge20" class="edge"><title>p16&#45;&gt;p17</title>
<path fill="none" stroke="black" d="M417.613,-1564.27C415.093,-1557.29 408.207,-1538.22 402.297,-1521.85"/>
<polygon fill="black" stroke="black" points="405.479,-1520.36 398.79,-1512.14 398.895,-1522.74 405.479,-1520.36"/>
<text text-anchor="middle" x="425.6" y="-1534.3" font-family="Times,serif" font-size="14.00">filein</text>
</g>
<!-- p20 -->
<g id="node26" class="node"><title>p20</title>
<ellipse fill="none" stroke="black" cx="392.6" cy="-1374" rx="3.25" ry="3.5"/>
<text text-anchor="middle" x="376.6" y="-1381.3" font-family="Times,serif" font-size="14.00">map</text>
</g>
<!-- p19&#45;&gt;p20 -->
<g id="edge24" class="edge"><title>p19&#45;&gt;p20</title>
<path fill="none" stroke="black" d="M392.6,-1416.38C392.6,-1410.86 392.6,-1397.74 392.6,-1387.74"/>
<polygon fill="black" stroke="black" points="396.1,-1387.55 392.6,-1377.55 389.1,-1387.55 396.1,-1387.55"/>
</g>
<!-- p29 -->
<g id="node32" class="node"><title>p29</title>
<ellipse fill="none" stroke="black" cx="453.6" cy="-1078" rx="3.25" ry="3.5"/>
<text text-anchor="middle" x="439.1" y="-1085.3" font-family="Times,serif" font-size="14.00">mix</text>
</g>
<!-- p25&#45;&gt;p29 -->
<g id="edge31" class="edge"><title>p25&#45;&gt;p29</title>
<path fill="none" stroke="black" d="M515.977,-1236.41C513.308,-1225.47 502.346,-1182.02 488.6,-1148 480.109,-1126.98 467.604,-1103.69 460.067,-1090.26"/>
<polygon fill="black" stroke="black" points="463.097,-1088.51 455.1,-1081.56 457.018,-1091.98 463.097,-1088.51"/>
<text text-anchor="middle" x="531.1" y="-1162.3" font-family="Times,serif" font-size="14.00">version_ch</text>
</g>
<!-- p24 -->
<g id="node27" class="node"><title>p24</title>
<ellipse fill="none" stroke="black" cx="277.6" cy="-1300" rx="243.118" ry="18"/>
<text text-anchor="middle" x="277.6" y="-1296.3" font-family="Times,serif" font-size="14.00">CONTAMINATION:SAMTOOLS_SAMPLES_01:ST_SAMPLE</text>
</g>
<!-- p20&#45;&gt;p24 -->
<g id="edge25" class="edge"><title>p20&#45;&gt;p24</title>
<path fill="none" stroke="black" d="M391.353,-1370.66C387.827,-1364.26 377.153,-1346.22 363.6,-1336 356.494,-1330.64 348.452,-1325.96 340.209,-1321.93"/>
<polygon fill="black" stroke="black" points="341.404,-1318.62 330.856,-1317.64 338.486,-1324.99 341.404,-1318.62"/>
<text text-anchor="middle" x="406.1" y="-1340.3" font-family="Times,serif" font-size="14.00">chunk_ch</text>
</g>
<!-- p26 -->
<g id="node31" class="node"><title>p26</title>
<ellipse fill="none" stroke="black" cx="277.6" cy="-1240" rx="3.25" ry="3.5"/>
<text text-anchor="middle" x="255.6" y="-1247.3" font-family="Times,serif" font-size="14.00">collect</text>
</g>
<!-- p24&#45;&gt;p26 -->
<g id="edge29" class="edge"><title>p24&#45;&gt;p26</title>
<path fill="none" stroke="black" d="M277.6,-1281.91C277.6,-1272.96 277.6,-1262.19 277.6,-1253.94"/>
<polygon fill="black" stroke="black" points="281.1,-1253.69 277.6,-1243.69 274.1,-1253.69 281.1,-1253.69"/>
</g>
<!-- p24&#45;&gt;p25 -->
<g id="edge30" class="edge"><title>p24&#45;&gt;p25</title>
<path fill="none" stroke="black" d="M344.811,-1282.69C400.135,-1269.26 474.084,-1251.32 503.619,-1244.15"/>
<polygon fill="black" stroke="black" points="504.717,-1247.49 513.609,-1241.73 503.066,-1240.68 504.717,-1247.49"/>
</g>
<!-- p21 -->
<g id="node28" class="node"><title>p21</title>
<ellipse fill="black" stroke="black" cx="190.6" cy="-1374" rx="3.6" ry="3.6"/>
</g>
<!-- p21&#45;&gt;p24 -->
<g id="edge26" class="edge"><title>p21&#45;&gt;p24</title>
<path fill="none" stroke="black" d="M191.178,-1370.32C192.731,-1363.71 197.572,-1346.36 207.6,-1336 212.361,-1331.08 217.96,-1326.74 223.882,-1322.94"/>
<polygon fill="black" stroke="black" points="225.868,-1325.84 232.731,-1317.77 222.332,-1319.8 225.868,-1325.84"/>
<text text-anchor="middle" x="221.6" y="-1340.3" font-family="Times,serif" font-size="14.00">meta</text>
</g>
<!-- p22 -->
<g id="node29" class="node"><title>p22</title>
<ellipse fill="black" stroke="black" cx="241.6" cy="-1374" rx="3.6" ry="3.6"/>
</g>
<!-- p22&#45;&gt;p24 -->
<g id="edge27" class="edge"><title>p22&#45;&gt;p24</title>
<path fill="none" stroke="black" d="M240.994,-1370.16C239.768,-1363.75 237.522,-1347.81 242.6,-1336 244.115,-1332.48 246.166,-1329.12 248.519,-1325.98"/>
<polygon fill="black" stroke="black" points="251.371,-1328.03 255.295,-1318.19 246.09,-1323.43 251.371,-1328.03"/>
<text text-anchor="middle" x="267.6" y="-1340.3" font-family="Times,serif" font-size="14.00">reference</text>
</g>
<!-- p23 -->
<g id="node30" class="node"><title>p23</title>
<ellipse fill="black" stroke="black" cx="314.6" cy="-1374" rx="3.6" ry="3.6"/>
</g>
<!-- p23&#45;&gt;p24 -->
<g id="edge28" class="edge"><title>p23&#45;&gt;p24</title>
<path fill="none" stroke="black" d="M313.369,-1370.6C309.878,-1363.81 299.605,-1343.82 290.96,-1327"/>
<polygon fill="black" stroke="black" points="294.061,-1325.37 286.377,-1318.08 287.835,-1328.57 294.061,-1325.37"/>
<text text-anchor="middle" x="332.1" y="-1340.3" font-family="Times,serif" font-size="14.00">references</text>
</g>
<!-- p28 -->
<g id="node33" class="node"><title>p28</title>
<ellipse fill="none" stroke="black" cx="255.6" cy="-1166" rx="224.32" ry="18"/>
<text text-anchor="middle" x="255.6" y="-1162.3" font-family="Times,serif" font-size="14.00">CONTAMINATION:SAMTOOLS_SAMPLES_01:DIGEST</text>
</g>
<!-- p26&#45;&gt;p28 -->
<g id="edge32" class="edge"><title>p26&#45;&gt;p28</title>
<path fill="none" stroke="black" d="M276.764,-1236.27C274.633,-1229.29 268.806,-1210.22 263.805,-1193.85"/>
<polygon fill="black" stroke="black" points="267.108,-1192.68 260.838,-1184.14 260.413,-1194.73 267.108,-1192.68"/>
</g>
<!-- p30 -->
<g id="node36" class="node"><title>p30</title>
<ellipse fill="none" stroke="black" cx="476.6" cy="-990" rx="3.25" ry="3.5"/>
<text text-anchor="middle" x="491.6" y="-997.3" font-family="Times,serif" font-size="14.00">collect</text>
</g>
<!-- p29&#45;&gt;p30 -->
<g id="edge36" class="edge"><title>p29&#45;&gt;p30</title>
<path fill="none" stroke="black" d="M454.264,-1074.52C457.034,-1064.16 467.785,-1023.96 473.299,-1003.34"/>
<polygon fill="black" stroke="black" points="476.686,-1004.22 475.889,-993.659 469.924,-1002.42 476.686,-1004.22"/>
<text text-anchor="middle" x="497.1" y="-1030.3" font-family="Times,serif" font-size="14.00">version_ch</text>
</g>
<!-- p36 -->
<g id="node35" class="node"><title>p36</title>
<ellipse fill="none" stroke="black" cx="255.6" cy="-1078" rx="3.25" ry="3.5"/>
<text text-anchor="middle" x="229.6" y="-1085.3" font-family="Times,serif" font-size="14.00">splitCsv</text>
</g>
<!-- p28&#45;&gt;p36 -->
<g id="edge34" class="edge"><title>p28&#45;&gt;p36</title>
<path fill="none" stroke="black" d="M255.6,-1147.6C255.6,-1131.05 255.6,-1106.54 255.6,-1091.74"/>
<polygon fill="black" stroke="black" points="259.1,-1091.67 255.6,-1081.67 252.1,-1091.67 259.1,-1091.67"/>
<text text-anchor="middle" x="273.1" y="-1118.3" font-family="Times,serif" font-size="14.00">output</text>
</g>
<!-- p28&#45;&gt;p29 -->
<g id="edge35" class="edge"><title>p28&#45;&gt;p29</title>
<path fill="none" stroke="black" d="M294.246,-1148.21C339.545,-1128.54 412.103,-1097.02 441.067,-1084.44"/>
<polygon fill="black" stroke="black" points="442.827,-1087.5 450.605,-1080.3 440.038,-1081.07 442.827,-1087.5"/>
</g>
<!-- p27 -->
<g id="node34" class="node"><title>p27</title>
<ellipse fill="black" stroke="black" cx="234.6" cy="-1240" rx="3.6" ry="3.6"/>
</g>
<!-- p27&#45;&gt;p28 -->
<g id="edge33" class="edge"><title>p27&#45;&gt;p28</title>
<path fill="none" stroke="black" d="M234.225,-1236.24C233.473,-1230 232.134,-1214.38 235.6,-1202 236.441,-1199 237.595,-1195.98 238.928,-1193.04"/>
<polygon fill="black" stroke="black" points="242.096,-1194.54 243.63,-1184.05 235.893,-1191.29 242.096,-1194.54"/>
<text text-anchor="middle" x="249.6" y="-1206.3" font-family="Times,serif" font-size="14.00">meta</text>
</g>
<!-- p36&#45;&gt;p38 -->
<g id="edge43" class="edge"><title>p36&#45;&gt;p38</title>
<path fill="none" stroke="black" d="M255.434,-1074.14C254.931,-1065.5 253.391,-1039.01 252.183,-1018.23"/>
<polygon fill="black" stroke="black" points="255.663,-1017.78 251.589,-1008 248.675,-1018.19 255.663,-1017.78"/>
<text text-anchor="middle" x="285.1" y="-1030.3" font-family="Times,serif" font-size="14.00">sn_bam_ch</text>
</g>
<!-- p34 -->
<g id="node37" class="node"><title>p34</title>
<ellipse fill="none" stroke="black" cx="553.6" cy="-902" rx="266.215" ry="18"/>
<text text-anchor="middle" x="553.6" y="-898.3" font-family="Times,serif" font-size="14.00">CONTAMINATION:SAMTOOLS_SAMPLES_01:MERGE_VERSION</text>
</g>
<!-- p30&#45;&gt;p34 -->
<g id="edge37" class="edge"><title>p30&#45;&gt;p34</title>
<path fill="none" stroke="black" d="M478.118,-986.516C482.852,-978.863 497.966,-955.129 513.6,-938 517.087,-934.179 520.966,-930.353 524.897,-926.708"/>
<polygon fill="black" stroke="black" points="527.311,-929.244 532.431,-919.968 522.644,-924.026 527.311,-929.244"/>
</g>
<!-- p34&#45;&gt;p35 -->
<g id="edge41" class="edge"><title>p34&#45;&gt;p35</title>
<path fill="none" stroke="black" d="M553.6,-883.937C553.6,-871.126 553.6,-853.843 553.6,-842.107"/>
<polygon fill="black" stroke="black" points="557.1,-841.748 553.6,-831.748 550.1,-841.748 557.1,-841.748"/>
</g>
<!-- p31 -->
<g id="node38" class="node"><title>p31</title>
<ellipse fill="black" stroke="black" cx="647.6" cy="-990" rx="3.6" ry="3.6"/>
</g>
<!-- p31&#45;&gt;p34 -->
<g id="edge38" class="edge"><title>p31&#45;&gt;p34</title>
<path fill="none" stroke="black" d="M647.063,-986.31C645.292,-978.066 638.908,-952.808 624.6,-938 619.852,-933.086 614.27,-928.761 608.358,-924.981"/>
<polygon fill="black" stroke="black" points="609.919,-921.84 599.517,-919.828 606.394,-927.888 609.919,-921.84"/>
<text text-anchor="middle" x="648.6" y="-942.3" font-family="Times,serif" font-size="14.00">meta</text>
</g>
<!-- p32 -->
<g id="node39" class="node"><title>p32</title>
<ellipse fill="black" stroke="black" cx="509.6" cy="-990" rx="3.6" ry="3.6"/>
</g>
<!-- p32&#45;&gt;p34 -->
<g id="edge39" class="edge"><title>p32&#45;&gt;p34</title>
<path fill="none" stroke="black" d="M509.947,-986.072C510.998,-977.993 514.641,-954.866 523.6,-938 525.395,-934.621 527.566,-931.283 529.91,-928.089"/>
<polygon fill="black" stroke="black" points="532.842,-930.027 536.379,-920.04 527.386,-925.642 532.842,-930.027"/>
<text text-anchor="middle" x="539.1" y="-942.3" font-family="Times,serif" font-size="14.00">name</text>
</g>
<!-- p33 -->
<g id="node40" class="node"><title>p33</title>
<ellipse fill="black" stroke="black" cx="563.6" cy="-990" rx="3.6" ry="3.6"/>
</g>
<!-- p33&#45;&gt;p34 -->
<g id="edge40" class="edge"><title>p33&#45;&gt;p34</title>
<path fill="none" stroke="black" d="M563.267,-986.139C562.258,-977.462 559.154,-950.767 556.733,-929.942"/>
<polygon fill="black" stroke="black" points="560.209,-929.532 555.577,-920.004 553.256,-930.341 560.209,-929.532"/>
<text text-anchor="middle" x="590.1" y="-942.3" font-family="Times,serif" font-size="14.00">description</text>
</g>
<!-- p45 -->
<g id="node44" class="node"><title>p45</title>
<ellipse fill="none" stroke="black" cx="409.6" cy="-666" rx="3.25" ry="3.5"/>
<text text-anchor="middle" x="395.1" y="-673.3" font-family="Times,serif" font-size="14.00">mix</text>
</g>
<!-- p39&#45;&gt;p45 -->
<g id="edge47" class="edge"><title>p39&#45;&gt;p45</title>
<path fill="none" stroke="black" d="M524.027,-750.318C521.821,-746.726 517.522,-740.305 512.6,-736 477.535,-705.335 456.073,-715.328 421.6,-684 419.835,-682.396 418.183,-680.49 416.702,-678.543"/>
<polygon fill="black" stroke="black" points="419.36,-676.205 411.005,-669.69 413.474,-679.993 419.36,-676.205"/>
<text text-anchor="middle" x="514.1" y="-706.3" font-family="Times,serif" font-size="14.00">version_ch</text>
</g>
<!-- p37 -->
<g id="node42" class="node"><title>p37</title>
<ellipse fill="black" stroke="black" cx="204.6" cy="-1078" rx="3.6" ry="3.6"/>
</g>
<!-- p37&#45;&gt;p38 -->
<g id="edge44" class="edge"><title>p37&#45;&gt;p38</title>
<path fill="none" stroke="black" d="M205.175,-1074.08C206.844,-1066.03 212.177,-1042.97 221.6,-1026 223.431,-1022.7 225.59,-1019.41 227.891,-1016.25"/>
<polygon fill="black" stroke="black" points="230.762,-1018.26 234.181,-1008.23 225.255,-1013.94 230.762,-1018.26"/>
<text text-anchor="middle" x="235.6" y="-1030.3" font-family="Times,serif" font-size="14.00">meta</text>
</g>
<!-- p40&#45;&gt;p41 -->
<g id="edge48" class="edge"><title>p40&#45;&gt;p41</title>
<path fill="none" stroke="black" d="M167.6,-854.314C167.6,-835.148 167.6,-718.771 167.6,-679.745"/>
<polygon fill="black" stroke="black" points="171.1,-679.589 167.6,-669.589 164.1,-679.589 171.1,-679.589"/>
</g>
<!-- p45&#45;&gt;p48 -->
<g id="edge55" class="edge"><title>p45&#45;&gt;p48</title>
<path fill="none" stroke="black" d="M410.319,-662.372C412.634,-654.304 420.573,-629.5 434.6,-614 444.779,-602.752 451.137,-604.649 463.6,-596 467.561,-593.251 471.779,-590.06 475.452,-587.19"/>
<polygon fill="black" stroke="black" points="477.729,-589.85 483.346,-580.866 473.353,-584.386 477.729,-589.85"/>
<text text-anchor="middle" x="464.1" y="-618.3" font-family="Times,serif" font-size="14.00">version_ch</text>
</g>
<!-- p52 -->
<g id="node53" class="node"><title>p52</title>
<ellipse fill="none" stroke="black" cx="244.6" cy="-504" rx="3.25" ry="3.5"/>
<text text-anchor="middle" x="230.1" y="-511.3" font-family="Times,serif" font-size="14.00">mix</text>
</g>
<!-- p51&#45;&gt;p52 -->
<g id="edge62" class="edge"><title>p51&#45;&gt;p52</title>
<path fill="none" stroke="black" d="M301.826,-559.937C286.787,-545.499 265.83,-525.381 253.897,-513.925"/>
<polygon fill="black" stroke="black" points="256.184,-511.269 246.546,-506.868 251.336,-516.318 256.184,-511.269"/>
</g>
<!-- p53 -->
<g id="node55" class="node"><title>p53</title>
<ellipse fill="none" stroke="black" cx="244.6" cy="-444" rx="3.25" ry="3.5"/>
<text text-anchor="middle" x="230.1" y="-451.3" font-family="Times,serif" font-size="14.00">mix</text>
</g>
<!-- p51&#45;&gt;p53 -->
<g id="edge63" class="edge"><title>p51&#45;&gt;p53</title>
<path fill="none" stroke="black" d="M317.773,-559.709C314.478,-536.123 305.593,-493.642 282.6,-466 275.916,-457.965 265.325,-452.473 257.02,-449.127"/>
<polygon fill="black" stroke="black" points="258.044,-445.778 247.45,-445.784 255.736,-452.386 258.044,-445.778"/>
</g>
<!-- p54 -->
<g id="node51" class="node"><title>p54</title>
<ellipse fill="none" stroke="black" cx="485.6" cy="-504" rx="3.25" ry="3.5"/>
<text text-anchor="middle" x="471.1" y="-511.3" font-family="Times,serif" font-size="14.00">mix</text>
</g>
<!-- p51&#45;&gt;p54 -->
<g id="edge64" class="edge"><title>p51&#45;&gt;p54</title>
<path fill="none" stroke="black" d="M357.268,-560.662C394.584,-544.477 449.534,-520.643 473.585,-510.211"/>
<polygon fill="black" stroke="black" points="475.114,-513.363 482.896,-506.173 472.329,-506.941 475.114,-513.363"/>
</g>
<!-- p42 -->
<g id="node46" class="node"><title>p42</title>
<ellipse fill="black" stroke="black" cx="229.6" cy="-828" rx="3.6" ry="3.6"/>
</g>
<!-- p44 -->
<g id="node47" class="node"><title>p44</title>
<ellipse fill="none" stroke="black" cx="340.6" cy="-754" rx="163.179" ry="18"/>
<text text-anchor="middle" x="340.6" y="-750.3" font-family="Times,serif" font-size="14.00">CONTAMINATION:BUILD_VIRUS_REF</text>
</g>
<!-- p42&#45;&gt;p44 -->
<g id="edge50" class="edge"><title>p42&#45;&gt;p44</title>
<path fill="none" stroke="black" d="M228.732,-824.337C226.764,-817.751 222.72,-800.476 230.6,-790 235.196,-783.889 240.866,-778.822 247.188,-774.624"/>
<polygon fill="black" stroke="black" points="249.272,-777.461 256.172,-769.421 245.764,-771.404 249.272,-777.461"/>
<text text-anchor="middle" x="244.6" y="-794.3" font-family="Times,serif" font-size="14.00">meta</text>
</g>
<!-- p44&#45;&gt;p51 -->
<g id="edge52" class="edge"><title>p44&#45;&gt;p51</title>
<path fill="none" stroke="black" d="M338.548,-735.999C334.91,-705.853 327.299,-642.79 322.911,-606.43"/>
<polygon fill="black" stroke="black" points="326.333,-605.578 321.66,-596.07 319.384,-606.417 326.333,-605.578"/>
</g>
<!-- p44&#45;&gt;p47 -->
<g id="edge53" class="edge"><title>p44&#45;&gt;p47</title>
<path fill="none" stroke="black" d="M452.114,-740.834C475.495,-735.695 499.456,-728.388 520.6,-718 533.834,-711.498 546.401,-701.171 556.432,-691.506"/>
<polygon fill="black" stroke="black" points="559.01,-693.877 563.577,-684.317 554.045,-688.942 559.01,-693.877"/>
</g>
<!-- p44&#45;&gt;p45 -->
<g id="edge54" class="edge"><title>p44&#45;&gt;p45</title>
<path fill="none" stroke="black" d="M354.232,-736.009C368.264,-718.52 389.674,-691.835 401.332,-677.305"/>
<polygon fill="black" stroke="black" points="404.324,-679.168 407.852,-669.178 398.864,-674.788 404.324,-679.168"/>
</g>
<!-- p43 -->
<g id="node48" class="node"><title>p43</title>
<ellipse fill="black" stroke="black" cx="181.6" cy="-828" rx="3.6" ry="3.6"/>
</g>
<!-- p43&#45;&gt;p44 -->
<g id="edge51" class="edge"><title>p43&#45;&gt;p44</title>
<path fill="none" stroke="black" d="M181.962,-824.181C183.009,-817.238 186.693,-799.212 197.6,-790 206.601,-782.398 216.996,-776.399 227.992,-771.672"/>
<polygon fill="black" stroke="black" points="229.326,-774.909 237.353,-767.994 226.765,-768.394 229.326,-774.909"/>
<text text-anchor="middle" x="210.1" y="-794.3" font-family="Times,serif" font-size="14.00">acns</text>
</g>
<!-- p48&#45;&gt;p54 -->
<g id="edge59" class="edge"><title>p48&#45;&gt;p54</title>
<path fill="none" stroke="black" d="M485.6,-574.265C485.6,-565.133 485.6,-535.282 485.6,-517.892"/>
<polygon fill="black" stroke="black" points="489.1,-517.737 485.6,-507.737 482.1,-517.737 489.1,-517.737"/>
<text text-anchor="middle" x="515.1" y="-530.3" font-family="Times,serif" font-size="14.00">version_ch</text>
</g>
<!-- p46 -->
<g id="node50" class="node"><title>p46</title>
<ellipse fill="black" stroke="black" cx="578.6" cy="-754" rx="3.6" ry="3.6"/>
</g>
<!-- p46&#45;&gt;p47 -->
<g id="edge56" class="edge"><title>p46&#45;&gt;p47</title>
<path fill="none" stroke="black" d="M578.6,-750.139C578.6,-741.502 578.6,-715.011 578.6,-694.227"/>
<polygon fill="black" stroke="black" points="582.1,-694.004 578.6,-684.004 575.1,-694.004 582.1,-694.004"/>
<text text-anchor="middle" x="592.6" y="-706.3" font-family="Times,serif" font-size="14.00">meta</text>
</g>
<!-- p55 -->
<g id="node57" class="node"><title>p55</title>
<ellipse fill="none" stroke="black" cx="491.6" cy="-444" rx="3.25" ry="3.5"/>
<text text-anchor="middle" x="469.6" y="-451.3" font-family="Times,serif" font-size="14.00">collect</text>
</g>
<!-- p54&#45;&gt;p55 -->
<g id="edge67" class="edge"><title>p54&#45;&gt;p55</title>
<path fill="none" stroke="black" d="M485.858,-500.508C486.607,-493.27 488.82,-471.875 490.27,-457.86"/>
<polygon fill="black" stroke="black" points="493.775,-457.988 491.323,-447.681 486.812,-457.268 493.775,-457.988"/>
<text text-anchor="middle" x="519.1" y="-470.3" font-family="Times,serif" font-size="14.00">version_ch</text>
</g>
<!-- p49 -->
<g id="node52" class="node"><title>p49</title>
<ellipse fill="black" stroke="black" cx="162.6" cy="-578" rx="3.6" ry="3.6"/>
<text text-anchor="middle" x="117" y="-585.4" font-family="Times,serif" font-size="14.00">Channel.empty</text>
</g>
<!-- p49&#45;&gt;p52 -->
<g id="edge60" class="edge"><title>p49&#45;&gt;p52</title>
<path fill="none" stroke="black" d="M164.1,-574.408C166.191,-570.916 170.221,-564.61 174.6,-560 193.261,-540.356 219.192,-521.823 233.683,-512.093"/>
<polygon fill="black" stroke="black" points="235.78,-514.903 242.226,-506.495 231.943,-509.048 235.78,-514.903"/>
<text text-anchor="middle" x="230.6" y="-530.3" font-family="Times,serif" font-size="14.00">to_zip</text>
</g>
<!-- p52&#45;&gt;p53 -->
<g id="edge65" class="edge"><title>p52&#45;&gt;p53</title>
<path fill="none" stroke="black" d="M244.6,-500.203C244.6,-492.649 244.6,-471.48 244.6,-457.66"/>
<polygon fill="black" stroke="black" points="248.1,-457.636 244.6,-447.636 241.1,-457.636 248.1,-457.636"/>
<text text-anchor="middle" x="261.6" y="-470.3" font-family="Times,serif" font-size="14.00">to_zip</text>
</g>
<!-- p50 -->
<g id="node54" class="node"><title>p50</title>
<ellipse fill="black" stroke="black" cx="142.6" cy="-666" rx="3.6" ry="3.6"/>
</g>
<!-- p50&#45;&gt;p51 -->
<g id="edge61" class="edge"><title>p50&#45;&gt;p51</title>
<path fill="none" stroke="black" d="M144.095,-662.402C146.18,-658.905 150.202,-652.592 154.6,-648 171.693,-630.151 176.563,-625.187 198.6,-614 212.276,-607.058 227.541,-601.292 242.497,-596.58"/>
<polygon fill="black" stroke="black" points="243.699,-599.873 252.262,-593.633 241.677,-593.171 243.699,-599.873"/>
<text text-anchor="middle" x="212.6" y="-618.3" font-family="Times,serif" font-size="14.00">meta</text>
</g>
<!-- p60 -->
<g id="node56" class="node"><title>p60</title>
<ellipse fill="none" stroke="black" cx="344.6" cy="-282" rx="3.25" ry="3.5"/>
<text text-anchor="middle" x="330.1" y="-289.3" font-family="Times,serif" font-size="14.00">mix</text>
</g>
<!-- p53&#45;&gt;p60 -->
<g id="edge66" class="edge"><title>p53&#45;&gt;p60</title>
<path fill="none" stroke="black" d="M243.503,-440.551C238.713,-429.463 220.614,-383.165 237.6,-352 257.958,-314.648 308.179,-294.46 331.857,-286.739"/>
<polygon fill="black" stroke="black" points="332.964,-290.061 341.521,-283.814 330.936,-283.362 332.964,-290.061"/>
<text text-anchor="middle" x="254.6" y="-366.3" font-family="Times,serif" font-size="14.00">to_zip</text>
</g>
<!-- p63 -->
<g id="node62" class="node"><title>p63</title>
<ellipse fill="none" stroke="black" cx="457.6" cy="-208" rx="3.25" ry="3.5"/>
<text text-anchor="middle" x="443.1" y="-215.3" font-family="Times,serif" font-size="14.00">mix</text>
</g>
<!-- p60&#45;&gt;p63 -->
<g id="edge73" class="edge"><title>p60&#45;&gt;p63</title>
<path fill="none" stroke="black" d="M345.992,-278.296C347.96,-274.677 351.851,-268.228 356.6,-264 384.394,-239.257 425.251,-221.39 445.419,-213.501"/>
<polygon fill="black" stroke="black" points="446.694,-216.761 454.826,-209.969 444.234,-210.208 446.694,-216.761"/>
<text text-anchor="middle" x="423.6" y="-234.3" font-family="Times,serif" font-size="14.00">to_zip</text>
</g>
<!-- p59 -->
<g id="node58" class="node"><title>p59</title>
<ellipse fill="none" stroke="black" cx="440.6" cy="-370" rx="159.329" ry="18"/>
<text text-anchor="middle" x="440.6" y="-366.3" font-family="Times,serif" font-size="14.00">CONTAMINATION:MERGE_VERSION</text>
</g>
<!-- p55&#45;&gt;p59 -->
<g id="edge68" class="edge"><title>p55&#45;&gt;p59</title>
<path fill="none" stroke="black" d="M493.356,-440.855C497.974,-434.94 509.628,-418.038 502.6,-406 499.796,-401.196 496.061,-397 491.811,-393.346"/>
<polygon fill="black" stroke="black" points="493.813,-390.473 483.692,-387.34 489.65,-396.101 493.813,-390.473"/>
</g>
<!-- p59&#45;&gt;p60 -->
<g id="edge72" class="edge"><title>p59&#45;&gt;p60</title>
<path fill="none" stroke="black" d="M416.689,-352.091C399.031,-338.98 374.974,-319.767 356.6,-300 354.977,-298.254 353.393,-296.278 351.936,-294.307"/>
<polygon fill="black" stroke="black" points="354.575,-291.956 346.115,-285.579 348.751,-295.84 354.575,-291.956"/>
</g>
<!-- p62 -->
<g id="node64" class="node"><title>p62</title>
<ellipse fill="none" stroke="black" cx="536.6" cy="-282" rx="170.402" ry="18"/>
<text text-anchor="middle" x="536.6" y="-278.3" font-family="Times,serif" font-size="14.00">CONTAMINATION:VERSION_TO_HTML</text>
</g>
<!-- p59&#45;&gt;p62 -->
<g id="edge75" class="edge"><title>p59&#45;&gt;p62</title>
<path fill="none" stroke="black" d="M459.567,-352.009C474.03,-339.052 494.127,-321.049 510.167,-306.68"/>
<polygon fill="black" stroke="black" points="512.56,-309.235 517.673,-299.956 507.889,-304.021 512.56,-309.235"/>
<text text-anchor="middle" x="508.6" y="-322.3" font-family="Times,serif" font-size="14.00">xml</text>
</g>
<!-- p56 -->
<g id="node59" class="node"><title>p56</title>
<ellipse fill="black" stroke="black" cx="335.6" cy="-444" rx="3.6" ry="3.6"/>
</g>
<!-- p56&#45;&gt;p59 -->
<g id="edge69" class="edge"><title>p56&#45;&gt;p59</title>
<path fill="none" stroke="black" d="M337.087,-440.318C340.878,-433.689 351.537,-416.323 364.6,-406 371.317,-400.692 378.97,-395.972 386.771,-391.852"/>
<polygon fill="black" stroke="black" points="388.552,-394.876 395.95,-387.291 385.437,-388.607 388.552,-394.876"/>
<text text-anchor="middle" x="378.6" y="-410.3" font-family="Times,serif" font-size="14.00">meta</text>
</g>
<!-- p57 -->
<g id="node60" class="node"><title>p57</title>
<ellipse fill="black" stroke="black" cx="386.6" cy="-444" rx="3.6" ry="3.6"/>
</g>
<!-- p57&#45;&gt;p59 -->
<g id="edge70" class="edge"><title>p57&#45;&gt;p59</title>
<path fill="none" stroke="black" d="M387.559,-440.514C390.01,-434.331 396.923,-417.904 405.6,-406 408.163,-402.485 411.08,-398.991 414.113,-395.647"/>
<polygon fill="black" stroke="black" points="416.881,-397.818 421.283,-388.181 411.832,-392.969 416.881,-397.818"/>
<text text-anchor="middle" x="421.1" y="-410.3" font-family="Times,serif" font-size="14.00">name</text>
</g>
<!-- p58 -->
<g id="node61" class="node"><title>p58</title>
<ellipse fill="black" stroke="black" cx="440.6" cy="-444" rx="3.6" ry="3.6"/>
</g>
<!-- p58&#45;&gt;p59 -->
<g id="edge71" class="edge"><title>p58&#45;&gt;p59</title>
<path fill="none" stroke="black" d="M440.6,-440.265C440.6,-433.354 440.6,-414.578 440.6,-398.316"/>
<polygon fill="black" stroke="black" points="444.1,-398.143 440.6,-388.143 437.1,-398.143 444.1,-398.143"/>
<text text-anchor="middle" x="471.1" y="-410.3" font-family="Times,serif" font-size="14.00">description</text>
</g>
<!-- p64 -->
<g id="node65" class="node"><title>p64</title>
<ellipse fill="none" stroke="black" cx="457.6" cy="-148" rx="3.25" ry="3.5"/>
<text text-anchor="middle" x="435.6" y="-155.3" font-family="Times,serif" font-size="14.00">collect</text>
</g>
<!-- p63&#45;&gt;p64 -->
<g id="edge77" class="edge"><title>p63&#45;&gt;p64</title>
<path fill="none" stroke="black" d="M457.6,-204.203C457.6,-196.649 457.6,-175.48 457.6,-161.66"/>
<polygon fill="black" stroke="black" points="461.1,-161.636 457.6,-151.636 454.1,-161.636 461.1,-161.636"/>
<text text-anchor="middle" x="474.6" y="-174.3" font-family="Times,serif" font-size="14.00">to_zip</text>
</g>
<!-- p61 -->
<g id="node63" class="node"><title>p61</title>
<ellipse fill="black" stroke="black" cx="621.6" cy="-370" rx="3.6" ry="3.6"/>
</g>
<!-- p61&#45;&gt;p62 -->
<g id="edge74" class="edge"><title>p61&#45;&gt;p62</title>
<path fill="none" stroke="black" d="M619.862,-366.485C617.469,-363.081 612.96,-356.874 608.6,-352 594.478,-336.213 577.41,-319.756 563.437,-306.875"/>
<polygon fill="black" stroke="black" points="565.776,-304.271 556.031,-300.114 561.056,-309.441 565.776,-304.271"/>
<text text-anchor="middle" x="603.6" y="-322.3" font-family="Times,serif" font-size="14.00">meta</text>
</g>
<!-- p62&#45;&gt;p63 -->
<g id="edge76" class="edge"><title>p62&#45;&gt;p63</title>
<path fill="none" stroke="black" d="M517.878,-263.937C502.037,-249.499 479.962,-229.381 467.392,-217.925"/>
<polygon fill="black" stroke="black" points="469.398,-215.017 459.65,-210.868 464.683,-220.191 469.398,-215.017"/>
</g>
<!-- p66 -->
<g id="node66" class="node"><title>p66</title>
<ellipse fill="none" stroke="black" cx="473.6" cy="-74" rx="149.23" ry="18"/>
<text text-anchor="middle" x="473.6" y="-70.3" font-family="Times,serif" font-size="14.00">CONTAMINATION:SIMPLE_ZIP_01</text>
</g>
<!-- p64&#45;&gt;p66 -->
<g id="edge78" class="edge"><title>p64&#45;&gt;p66</title>
<path fill="none" stroke="black" d="M458.208,-144.265C459.744,-137.354 463.916,-118.578 467.53,-102.316"/>
<polygon fill="black" stroke="black" points="471.038,-102.664 469.79,-92.1429 464.204,-101.145 471.038,-102.664"/>
</g>
<!-- p68 -->
<g id="node68" class="node"><title>p68</title>
<ellipse fill="black" stroke="black" cx="457.6" cy="-2" rx="1.8" ry="1.8"/>
</g>
<!-- p66&#45;&gt;p68 -->
<g id="edge80" class="edge"><title>p66&#45;&gt;p68</title>
<path fill="none" stroke="black" d="M464.787,-55.9822C462.314,-50.3999 459.936,-44.0689 458.6,-38 456.861,-30.1042 456.659,-20.9657 456.867,-14.0069"/>
<polygon fill="black" stroke="black" points="460.369,-14.0812 457.506,-3.88056 453.383,-13.6402 460.369,-14.0812"/>
<text text-anchor="middle" x="467.1" y="-26.3" font-family="Times,serif" font-size="14.00">zip</text>
</g>
<!-- p67 -->
<g id="node69" class="node"><title>p67</title>
<ellipse fill="black" stroke="black" cx="489.6" cy="-2" rx="1.8" ry="1.8"/>
</g>
<!-- p66&#45;&gt;p67 -->
<g id="edge81" class="edge"><title>p66&#45;&gt;p67</title>
<path fill="none" stroke="black" d="M477.555,-55.6966C480.574,-42.488 484.636,-24.716 487.186,-13.5595"/>
<polygon fill="black" stroke="black" points="490.599,-14.3358 489.415,-3.8073 483.775,-12.776 490.599,-14.3358"/>
</g>
<!-- p65 -->
<g id="node67" class="node"><title>p65</title>
<ellipse fill="black" stroke="black" cx="490.6" cy="-148" rx="3.6" ry="3.6"/>
</g>
<!-- p65&#45;&gt;p66 -->
<g id="edge79" class="edge"><title>p65&#45;&gt;p66</title>
<path fill="none" stroke="black" d="M489.954,-144.265C488.322,-137.354 483.889,-118.578 480.05,-102.316"/>
<polygon fill="black" stroke="black" points="483.352,-101.071 477.648,-92.1429 476.539,-102.68 483.352,-101.071"/>
<text text-anchor="middle" x="499.6" y="-114.3" font-family="Times,serif" font-size="14.00">meta</text>
</g>
</g>
</svg>
