<?xml version="1.0" encoding="UTF-8" standalone="no"?>
<!DOCTYPE svg PUBLIC "-//W3C//DTD SVG 1.1//EN"
 "http://www.w3.org/Graphics/SVG/1.1/DTD/svg11.dtd">
<!-- Generated by graphviz version 2.30.1 (20201013.1554)
 -->
<!-- Title: 20230302hs37d5cnrghcnvtviewworkflow Pages: 1 -->
<svg width="1052pt" height="1540pt"
 viewBox="0.00 0.00 1052.00 1540.00" xmlns="http://www.w3.org/2000/svg" xmlns:xlink="http://www.w3.org/1999/xlink">
<g id="graph0" class="graph" transform="scale(1 1) rotate(0) translate(4 1536)">
<title>20230302hs37d5cnrghcnvtviewworkflow</title>
<polygon fill="white" stroke="white" points="-4,5 -4,-1536 1049,-1536 1049,5 -4,5"/>
<!-- p0 -->
<g id="node1" class="node"><title>p0</title>
<ellipse fill="black" stroke="black" cx="514" cy="-924" rx="3.6" ry="3.6"/>
<text text-anchor="middle" x="493.65" y="-909.2" font-family="Times,serif" font-size="14.00">Channel.empty</text>
</g>
<!-- p22 -->
<g id="node2" class="node"><title>p22</title>
<ellipse fill="none" stroke="black" cx="514" cy="-836" rx="3.25" ry="3.5"/>
<text text-anchor="middle" x="499.5" y="-843.3" font-family="Times,serif" font-size="14.00">mix</text>
</g>
<!-- p0&#45;&gt;p22 -->
<g id="edge1" class="edge"><title>p0&#45;&gt;p22</title>
<path fill="none" stroke="black" d="M514,-920.139C514,-909.281 514,-870.206 514,-849.727"/>
<polygon fill="black" stroke="black" points="517.5,-849.615 514,-839.615 510.5,-849.615 517.5,-849.615"/>
<text text-anchor="middle" x="544.5" y="-876.3" font-family="Times,serif" font-size="14.00">version_ch</text>
</g>
<!-- p25 -->
<g id="node25" class="node"><title>p25</title>
<ellipse fill="none" stroke="black" cx="423" cy="-762" rx="3.25" ry="3.5"/>
<text text-anchor="middle" x="408.5" y="-769.3" font-family="Times,serif" font-size="14.00">mix</text>
</g>
<!-- p22&#45;&gt;p25 -->
<g id="edge26" class="edge"><title>p22&#45;&gt;p25</title>
<path fill="none" stroke="black" d="M511.751,-833.22C500.931,-824.66 453.912,-787.458 433.042,-770.945"/>
<polygon fill="black" stroke="black" points="435.185,-768.178 425.171,-764.718 430.841,-773.667 435.185,-768.178"/>
<text text-anchor="middle" x="499.5" y="-788.3" font-family="Times,serif" font-size="14.00">version_ch</text>
</g>
<!-- p1 -->
<g id="node3" class="node"><title>p1</title>
<ellipse fill="black" stroke="black" cx="595" cy="-1454" rx="3.6" ry="3.6"/>
<text text-anchor="middle" x="633.9" y="-1461.4" font-family="Times,serif" font-size="14.00">Channel.empty</text>
</g>
<!-- p5 -->
<g id="node4" class="node"><title>p5</title>
<ellipse fill="none" stroke="black" cx="486" cy="-1380" rx="3.25" ry="3.5"/>
<text text-anchor="middle" x="471.5" y="-1387.3" font-family="Times,serif" font-size="14.00">mix</text>
</g>
<!-- p1&#45;&gt;p5 -->
<g id="edge2" class="edge"><title>p1&#45;&gt;p5</title>
<path fill="none" stroke="black" d="M593.426,-1450.32C591.22,-1446.73 586.92,-1440.31 582,-1436 555.431,-1412.74 517.513,-1394.52 498.248,-1386.1"/>
<polygon fill="black" stroke="black" points="499.506,-1382.83 488.932,-1382.17 496.783,-1389.28 499.506,-1382.83"/>
<text text-anchor="middle" x="588.5" y="-1406.3" font-family="Times,serif" font-size="14.00">version_ch</text>
</g>
<!-- p12 -->
<g id="node9" class="node"><title>p12</title>
<ellipse fill="none" stroke="black" cx="483" cy="-1200" rx="3.25" ry="3.5"/>
<text text-anchor="middle" x="468.5" y="-1207.3" font-family="Times,serif" font-size="14.00">mix</text>
</g>
<!-- p5&#45;&gt;p12 -->
<g id="edge7" class="edge"><title>p5&#45;&gt;p12</title>
<path fill="none" stroke="black" d="M485.958,-1376.48C485.658,-1358.72 483.857,-1251.83 483.221,-1214.14"/>
<polygon fill="black" stroke="black" points="486.713,-1213.62 483.045,-1203.68 479.714,-1213.74 486.713,-1213.62"/>
<text text-anchor="middle" x="515.5" y="-1300.3" font-family="Times,serif" font-size="14.00">version_ch</text>
</g>
<!-- p2 -->
<g id="node5" class="node"><title>p2</title>
<ellipse fill="black" stroke="black" cx="323" cy="-1528" rx="3.6" ry="3.6"/>
</g>
<!-- p4 -->
<g id="node6" class="node"><title>p4</title>
<ellipse fill="none" stroke="black" cx="348" cy="-1454" rx="225.295" ry="18"/>
<text text-anchor="middle" x="348" y="-1450.3" font-family="Times,serif" font-size="14.00">CNVTVIEW:SAMTOOLS_SAMPLES_01:SQRT_FILE</text>
</g>
<!-- p2&#45;&gt;p4 -->
<g id="edge3" class="edge"><title>p2&#45;&gt;p4</title>
<path fill="none" stroke="black" d="M322.553,-1524.22C321.653,-1517.93 320.03,-1502.22 324,-1490 325.024,-1486.85 326.43,-1483.72 328.051,-1480.71"/>
<polygon fill="black" stroke="black" points="331.091,-1482.45 333.397,-1472.11 325.145,-1478.75 331.091,-1482.45"/>
<text text-anchor="middle" x="338" y="-1494.3" font-family="Times,serif" font-size="14.00">meta</text>
</g>
<!-- p6 -->
<g id="node8" class="node"><title>p6</title>
<ellipse fill="none" stroke="black" cx="348" cy="-1380" rx="3.25" ry="3.5"/>
<text text-anchor="middle" x="320" y="-1387.3" font-family="Times,serif" font-size="14.00">splitText</text>
</g>
<!-- p4&#45;&gt;p6 -->
<g id="edge5" class="edge"><title>p4&#45;&gt;p6</title>
<path fill="none" stroke="black" d="M348,-1435.94C348,-1423.13 348,-1405.84 348,-1394.11"/>
<polygon fill="black" stroke="black" points="351.5,-1393.75 348,-1383.75 344.5,-1393.75 351.5,-1393.75"/>
</g>
<!-- p4&#45;&gt;p5 -->
<g id="edge6" class="edge"><title>p4&#45;&gt;p5</title>
<path fill="none" stroke="black" d="M380.355,-1436.12C410.597,-1420.34 454.069,-1397.66 474.528,-1386.99"/>
<polygon fill="black" stroke="black" points="476.224,-1390.05 483.471,-1382.32 472.986,-1383.84 476.224,-1390.05"/>
</g>
<!-- p3 -->
<g id="node7" class="node"><title>p3</title>
<ellipse fill="black" stroke="black" cx="374" cy="-1528" rx="3.6" ry="3.6"/>
</g>
<!-- p3&#45;&gt;p4 -->
<g id="edge4" class="edge"><title>p3&#45;&gt;p4</title>
<path fill="none" stroke="black" d="M373.013,-1524.27C370.493,-1517.29 363.607,-1498.22 357.697,-1481.85"/>
<polygon fill="black" stroke="black" points="360.879,-1480.36 354.19,-1472.14 354.295,-1482.74 360.879,-1480.36"/>
<text text-anchor="middle" x="381" y="-1494.3" font-family="Times,serif" font-size="14.00">filein</text>
</g>
<!-- p7 -->
<g id="node10" class="node"><title>p7</title>
<ellipse fill="none" stroke="black" cx="348" cy="-1334" rx="3.25" ry="3.5"/>
<text text-anchor="middle" x="332" y="-1341.3" font-family="Times,serif" font-size="14.00">map</text>
</g>
<!-- p6&#45;&gt;p7 -->
<g id="edge8" class="edge"><title>p6&#45;&gt;p7</title>
<path fill="none" stroke="black" d="M348,-1376.38C348,-1370.86 348,-1357.74 348,-1347.74"/>
<polygon fill="black" stroke="black" points="351.5,-1347.55 348,-1337.55 344.5,-1347.55 351.5,-1347.55"/>
</g>
<!-- p16 -->
<g id="node16" class="node"><title>p16</title>
<ellipse fill="none" stroke="black" cx="483" cy="-1066" rx="3.25" ry="3.5"/>
<text text-anchor="middle" x="468.5" y="-1073.3" font-family="Times,serif" font-size="14.00">mix</text>
</g>
<!-- p12&#45;&gt;p16 -->
<g id="edge15" class="edge"><title>p12&#45;&gt;p16</title>
<path fill="none" stroke="black" d="M483,-1196.24C483,-1181.28 483,-1109.4 483,-1079.79"/>
<polygon fill="black" stroke="black" points="486.5,-1079.74 483,-1069.74 479.5,-1079.74 486.5,-1079.74"/>
<text text-anchor="middle" x="513.5" y="-1122.3" font-family="Times,serif" font-size="14.00">version_ch</text>
</g>
<!-- p11 -->
<g id="node11" class="node"><title>p11</title>
<ellipse fill="none" stroke="black" cx="229" cy="-1260" rx="229.145" ry="18"/>
<text text-anchor="middle" x="229" y="-1256.3" font-family="Times,serif" font-size="14.00">CNVTVIEW:SAMTOOLS_SAMPLES_01:ST_SAMPLE</text>
</g>
<!-- p7&#45;&gt;p11 -->
<g id="edge9" class="edge"><title>p7&#45;&gt;p11</title>
<path fill="none" stroke="black" d="M346.695,-1330.66C343.009,-1324.24 331.878,-1306.16 318,-1296 310.524,-1290.52 302.077,-1285.77 293.438,-1281.69"/>
<polygon fill="black" stroke="black" points="294.587,-1278.37 284.026,-1277.52 291.751,-1284.77 294.587,-1278.37"/>
<text text-anchor="middle" x="361.5" y="-1300.3" font-family="Times,serif" font-size="14.00">chunk_ch</text>
</g>
<!-- p13 -->
<g id="node15" class="node"><title>p13</title>
<ellipse fill="none" stroke="black" cx="229" cy="-1200" rx="3.25" ry="3.5"/>
<text text-anchor="middle" x="207" y="-1207.3" font-family="Times,serif" font-size="14.00">collect</text>
</g>
<!-- p11&#45;&gt;p13 -->
<g id="edge13" class="edge"><title>p11&#45;&gt;p13</title>
<path fill="none" stroke="black" d="M229,-1241.91C229,-1232.96 229,-1222.19 229,-1213.94"/>
<polygon fill="black" stroke="black" points="232.5,-1213.69 229,-1203.69 225.5,-1213.69 232.5,-1213.69"/>
</g>
<!-- p11&#45;&gt;p12 -->
<g id="edge14" class="edge"><title>p11&#45;&gt;p12</title>
<path fill="none" stroke="black" d="M299.753,-1242.84C359.1,-1229.29 438.982,-1211.05 469.964,-1203.98"/>
<polygon fill="black" stroke="black" points="470.833,-1207.37 479.803,-1201.73 469.275,-1200.54 470.833,-1207.37"/>
</g>
<!-- p8 -->
<g id="node12" class="node"><title>p8</title>
<ellipse fill="black" stroke="black" cx="141" cy="-1334" rx="3.6" ry="3.6"/>
</g>
<!-- p8&#45;&gt;p11 -->
<g id="edge10" class="edge"><title>p8&#45;&gt;p11</title>
<path fill="none" stroke="black" d="M141.574,-1330.32C143.119,-1323.69 147.943,-1306.34 158,-1296 162.829,-1291.04 168.509,-1286.67 174.516,-1282.86"/>
<polygon fill="black" stroke="black" points="176.587,-1285.71 183.491,-1277.67 173.082,-1279.65 176.587,-1285.71"/>
<text text-anchor="middle" x="172" y="-1300.3" font-family="Times,serif" font-size="14.00">meta</text>
</g>
<!-- p9 -->
<g id="node13" class="node"><title>p9</title>
<ellipse fill="black" stroke="black" cx="192" cy="-1334" rx="3.6" ry="3.6"/>
</g>
<!-- p9&#45;&gt;p11 -->
<g id="edge11" class="edge"><title>p9&#45;&gt;p11</title>
<path fill="none" stroke="black" d="M191.382,-1330.15C190.132,-1323.73 187.839,-1307.77 193,-1296 194.608,-1292.33 196.798,-1288.85 199.31,-1285.62"/>
<polygon fill="black" stroke="black" points="201.992,-1287.87 206.067,-1278.09 196.783,-1283.19 201.992,-1287.87"/>
<text text-anchor="middle" x="219" y="-1300.3" font-family="Times,serif" font-size="14.00">reference</text>
</g>
<!-- p10 -->
<g id="node14" class="node"><title>p10</title>
<ellipse fill="black" stroke="black" cx="267" cy="-1334" rx="3.6" ry="3.6"/>
</g>
<!-- p10&#45;&gt;p11 -->
<g id="edge12" class="edge"><title>p10&#45;&gt;p11</title>
<path fill="none" stroke="black" d="M265.736,-1330.6C262.15,-1323.81 251.6,-1303.82 242.721,-1287"/>
<polygon fill="black" stroke="black" points="245.777,-1285.29 238.015,-1278.08 239.587,-1288.56 245.777,-1285.29"/>
<text text-anchor="middle" x="285" y="-1300.3" font-family="Times,serif" font-size="14.00">references</text>
</g>
<!-- p15 -->
<g id="node17" class="node"><title>p15</title>
<ellipse fill="none" stroke="black" cx="232" cy="-1126" rx="209.397" ry="18"/>
<text text-anchor="middle" x="232" y="-1122.3" font-family="Times,serif" font-size="14.00">CNVTVIEW:SAMTOOLS_SAMPLES_01:DIGEST</text>
</g>
<!-- p13&#45;&gt;p15 -->
<g id="edge16" class="edge"><title>p13&#45;&gt;p15</title>
<path fill="none" stroke="black" d="M229.114,-1196.27C229.402,-1189.35 230.184,-1170.58 230.862,-1154.32"/>
<polygon fill="black" stroke="black" points="234.366,-1154.28 231.286,-1144.14 227.372,-1153.99 234.366,-1154.28"/>
</g>
<!-- p17 -->
<g id="node20" class="node"><title>p17</title>
<ellipse fill="none" stroke="black" cx="731" cy="-1002" rx="3.25" ry="3.5"/>
<text text-anchor="middle" x="709" y="-1009.3" font-family="Times,serif" font-size="14.00">collect</text>
</g>
<!-- p16&#45;&gt;p17 -->
<g id="edge20" class="edge"><title>p16&#45;&gt;p17</title>
<path fill="none" stroke="black" d="M486.136,-1064.22C510.584,-1058.1 670.976,-1018.01 718.039,-1006.24"/>
<polygon fill="black" stroke="black" points="719.082,-1009.59 727.934,-1003.77 717.384,-1002.8 719.082,-1009.59"/>
<text text-anchor="middle" x="660.5" y="-1032.3" font-family="Times,serif" font-size="14.00">version_ch</text>
</g>
<!-- p29 -->
<g id="node19" class="node"><title>p29</title>
<ellipse fill="none" stroke="black" cx="232" cy="-836" rx="157.404" ry="18"/>
<text text-anchor="middle" x="232" y="-832.3" font-family="Times,serif" font-size="14.00">CNVTVIEW:PREPARE_CNVTVIEW</text>
</g>
<!-- p15&#45;&gt;p29 -->
<g id="edge18" class="edge"><title>p15&#45;&gt;p29</title>
<path fill="none" stroke="black" d="M180.236,-1108.45C162.95,-1099.45 148,-1086.14 148,-1067 148,-1067 148,-1067 148,-923 148,-895.915 169.586,-874.19 190.873,-859.352"/>
<polygon fill="black" stroke="black" points="192.858,-862.235 199.283,-853.81 189.007,-856.39 192.858,-862.235"/>
<text text-anchor="middle" x="166" y="-998.3" font-family="Times,serif" font-size="14.00">output</text>
</g>
<!-- p15&#45;&gt;p16 -->
<g id="edge19" class="edge"><title>p15&#45;&gt;p16</title>
<path fill="none" stroke="black" d="M301.251,-1109C359.917,-1095.44 439.26,-1077.11 470.044,-1069.99"/>
<polygon fill="black" stroke="black" points="470.867,-1073.4 479.822,-1067.73 469.291,-1066.58 470.867,-1073.4"/>
</g>
<!-- p14 -->
<g id="node18" class="node"><title>p14</title>
<ellipse fill="black" stroke="black" cx="262" cy="-1200" rx="3.6" ry="3.6"/>
</g>
<!-- p14&#45;&gt;p15 -->
<g id="edge17" class="edge"><title>p14&#45;&gt;p15</title>
<path fill="none" stroke="black" d="M260.861,-1196.27C257.926,-1189.22 249.858,-1169.86 242.996,-1153.39"/>
<polygon fill="black" stroke="black" points="246.22,-1152.03 239.143,-1144.14 239.758,-1154.72 246.22,-1152.03"/>
<text text-anchor="middle" x="268" y="-1166.3" font-family="Times,serif" font-size="14.00">meta</text>
</g>
<!-- p31 -->
<g id="node32" class="node"><title>p31</title>
<ellipse fill="none" stroke="black" cx="222" cy="-762" rx="3.25" ry="3.5"/>
<text text-anchor="middle" x="195.5" y="-769.3" font-family="Times,serif" font-size="14.00">splitCsv</text>
</g>
<!-- p29&#45;&gt;p31 -->
<g id="edge34" class="edge"><title>p29&#45;&gt;p31</title>
<path fill="none" stroke="black" d="M229.63,-817.937C227.832,-804.989 225.399,-787.471 223.768,-775.731"/>
<polygon fill="black" stroke="black" points="227.224,-775.172 222.382,-765.748 220.291,-776.135 227.224,-775.172"/>
</g>
<!-- p30 -->
<g id="node28" class="node"><title>p30</title>
<ellipse fill="none" stroke="black" cx="423" cy="-688" rx="3.25" ry="3.5"/>
<text text-anchor="middle" x="430.5" y="-695.3" font-family="Times,serif" font-size="14.00">mix</text>
</g>
<!-- p29&#45;&gt;p30 -->
<g id="edge35" class="edge"><title>p29&#45;&gt;p30</title>
<path fill="none" stroke="black" d="M260.134,-818.235C296.928,-795.534 362.307,-752.482 410,-706 411.902,-704.146 413.756,-702.001 415.44,-699.873"/>
<polygon fill="black" stroke="black" points="418.383,-701.775 421.357,-691.606 412.691,-697.701 418.383,-701.775"/>
</g>
<!-- p21 -->
<g id="node21" class="node"><title>p21</title>
<ellipse fill="none" stroke="black" cx="790" cy="-924" rx="254.167" ry="18"/>
<text text-anchor="middle" x="790" y="-920.3" font-family="Times,serif" font-size="14.00">CNVTVIEW:SAMTOOLS_SAMPLES_01:MERGE_VERSION</text>
</g>
<!-- p17&#45;&gt;p21 -->
<g id="edge21" class="edge"><title>p17&#45;&gt;p21</title>
<path fill="none" stroke="black" d="M732.702,-998.807C738.207,-991.716 756.003,-968.792 770.318,-950.353"/>
<polygon fill="black" stroke="black" points="773.226,-952.315 776.594,-942.269 767.697,-948.022 773.226,-952.315"/>
</g>
<!-- p21&#45;&gt;p22 -->
<g id="edge25" class="edge"><title>p21&#45;&gt;p22</title>
<path fill="none" stroke="black" d="M736.457,-906.316C670.55,-885.78 562.882,-852.231 526.477,-840.888"/>
<polygon fill="black" stroke="black" points="527.346,-837.493 516.758,-837.859 525.264,-844.176 527.346,-837.493"/>
</g>
<!-- p18 -->
<g id="node22" class="node"><title>p18</title>
<ellipse fill="black" stroke="black" cx="790" cy="-1002" rx="3.6" ry="3.6"/>
</g>
<!-- p18&#45;&gt;p21 -->
<g id="edge22" class="edge"><title>p18&#45;&gt;p21</title>
<path fill="none" stroke="black" d="M790,-998.114C790,-990.614 790,-969.88 790,-952.399"/>
<polygon fill="black" stroke="black" points="793.5,-952.082 790,-942.083 786.5,-952.083 793.5,-952.082"/>
<text text-anchor="middle" x="804" y="-964.3" font-family="Times,serif" font-size="14.00">meta</text>
</g>
<!-- p19 -->
<g id="node23" class="node"><title>p19</title>
<ellipse fill="black" stroke="black" cx="841" cy="-1002" rx="3.6" ry="3.6"/>
</g>
<!-- p19&#45;&gt;p21 -->
<g id="edge23" class="edge"><title>p19&#45;&gt;p21</title>
<path fill="none" stroke="black" d="M839.784,-998.305C836.707,-991.59 828.199,-973.673 819,-960 816.784,-956.706 814.319,-953.355 811.788,-950.096"/>
<polygon fill="black" stroke="black" points="814.474,-947.851 805.467,-942.272 809.029,-952.25 814.474,-947.851"/>
<text text-anchor="middle" x="843.5" y="-964.3" font-family="Times,serif" font-size="14.00">name</text>
</g>
<!-- p20 -->
<g id="node24" class="node"><title>p20</title>
<ellipse fill="black" stroke="black" cx="680" cy="-1002" rx="3.6" ry="3.6"/>
</g>
<!-- p20&#45;&gt;p21 -->
<g id="edge24" class="edge"><title>p20&#45;&gt;p21</title>
<path fill="none" stroke="black" d="M679.466,-998.434C678.16,-991.397 675.561,-971.549 685,-960 689.371,-954.652 694.584,-950.116 700.318,-946.269"/>
<polygon fill="black" stroke="black" points="702.221,-949.21 709.052,-941.112 698.662,-943.182 702.221,-949.21"/>
<text text-anchor="middle" x="716" y="-964.3" font-family="Times,serif" font-size="14.00">description</text>
</g>
<!-- p25&#45;&gt;p30 -->
<g id="edge30" class="edge"><title>p25&#45;&gt;p30</title>
<path fill="none" stroke="black" d="M423,-758.265C423,-749.133 423,-719.282 423,-701.892"/>
<polygon fill="black" stroke="black" points="426.5,-701.737 423,-691.737 419.5,-701.737 426.5,-701.737"/>
<text text-anchor="middle" x="453.5" y="-728.3" font-family="Times,serif" font-size="14.00">version_ch</text>
</g>
<!-- p23 -->
<g id="node26" class="node"><title>p23</title>
<ellipse fill="black" stroke="black" cx="388" cy="-1002" rx="3.6" ry="3.6"/>
</g>
<!-- p24 -->
<g id="node27" class="node"><title>p24</title>
<ellipse fill="none" stroke="black" cx="388" cy="-924" rx="103.486" ry="18"/>
<text text-anchor="middle" x="388" y="-920.3" font-family="Times,serif" font-size="14.00">CNVTVIEW:COMPILE</text>
</g>
<!-- p23&#45;&gt;p24 -->
<g id="edge27" class="edge"><title>p23&#45;&gt;p24</title>
<path fill="none" stroke="black" d="M388,-998.114C388,-990.614 388,-969.88 388,-952.399"/>
<polygon fill="black" stroke="black" points="391.5,-952.082 388,-942.083 384.5,-952.083 391.5,-952.082"/>
<text text-anchor="middle" x="402" y="-964.3" font-family="Times,serif" font-size="14.00">meta</text>
</g>
<!-- p24&#45;&gt;p29 -->
<g id="edge28" class="edge"><title>p24&#45;&gt;p29</title>
<path fill="none" stroke="black" d="M365.045,-906.323C350.059,-895.81 329.845,-882.32 311,-872 301.827,-866.977 291.791,-862.093 282.042,-857.647"/>
<polygon fill="black" stroke="black" points="283.379,-854.41 272.821,-853.527 280.524,-860.802 283.379,-854.41"/>
</g>
<!-- p24&#45;&gt;p25 -->
<g id="edge29" class="edge"><title>p24&#45;&gt;p25</title>
<path fill="none" stroke="black" d="M391.746,-905.877C398.841,-873.439 414.088,-803.743 420.291,-775.384"/>
<polygon fill="black" stroke="black" points="423.725,-776.062 422.443,-765.546 416.887,-774.567 423.725,-776.062"/>
</g>
<!-- p35 -->
<g id="node33" class="node"><title>p35</title>
<ellipse fill="none" stroke="black" cx="423" cy="-614" rx="3.25" ry="3.5"/>
<text text-anchor="middle" x="408.5" y="-621.3" font-family="Times,serif" font-size="14.00">mix</text>
</g>
<!-- p30&#45;&gt;p35 -->
<g id="edge36" class="edge"><title>p30&#45;&gt;p35</title>
<path fill="none" stroke="black" d="M423,-684.265C423,-675.133 423,-645.282 423,-627.892"/>
<polygon fill="black" stroke="black" points="426.5,-627.737 423,-617.737 419.5,-627.737 426.5,-627.737"/>
<text text-anchor="middle" x="453.5" y="-640.3" font-family="Times,serif" font-size="14.00">version_ch</text>
</g>
<!-- p26 -->
<g id="node29" class="node"><title>p26</title>
<ellipse fill="black" stroke="black" cx="181" cy="-924" rx="3.6" ry="3.6"/>
</g>
<!-- p26&#45;&gt;p29 -->
<g id="edge31" class="edge"><title>p26&#45;&gt;p29</title>
<path fill="none" stroke="black" d="M181.672,-920.062C183.613,-911.956 189.75,-888.769 200,-872 202.113,-868.542 204.597,-865.121 207.23,-861.849"/>
<polygon fill="black" stroke="black" points="210.052,-863.937 213.959,-854.089 204.763,-859.351 210.052,-863.937"/>
<text text-anchor="middle" x="214" y="-876.3" font-family="Times,serif" font-size="14.00">meta</text>
</g>
<!-- p27 -->
<g id="node30" class="node"><title>p27</title>
<ellipse fill="black" stroke="black" cx="232" cy="-924" rx="3.6" ry="3.6"/>
</g>
<!-- p27&#45;&gt;p29 -->
<g id="edge32" class="edge"><title>p27&#45;&gt;p29</title>
<path fill="none" stroke="black" d="M232,-920.139C232,-911.502 232,-885.011 232,-864.227"/>
<polygon fill="black" stroke="black" points="235.5,-864.004 232,-854.004 228.5,-864.004 235.5,-864.004"/>
<text text-anchor="middle" x="258" y="-876.3" font-family="Times,serif" font-size="14.00">reference</text>
</g>
<!-- p28 -->
<g id="node31" class="node"><title>p28</title>
<ellipse fill="black" stroke="black" cx="262" cy="-924" rx="3.6" ry="3.6"/>
</g>
<!-- p28&#45;&gt;p29 -->
<g id="edge33" class="edge"><title>p28&#45;&gt;p29</title>
<path fill="none" stroke="black" d="M263.894,-920.534C269.004,-913.822 282.833,-895.245 285,-888 287.038,-881.187 288.369,-878.262 285,-872 282.643,-867.618 279.469,-863.694 275.841,-860.201"/>
<polygon fill="black" stroke="black" points="277.814,-857.291 267.871,-853.632 273.362,-862.693 277.814,-857.291"/>
<text text-anchor="middle" x="297.5" y="-876.3" font-family="Times,serif" font-size="14.00">vcf</text>
</g>
<!-- p34 -->
<g id="node34" class="node"><title>p34</title>
<ellipse fill="none" stroke="black" cx="250" cy="-688" rx="151.155" ry="18"/>
<text text-anchor="middle" x="250" y="-684.3" font-family="Times,serif" font-size="14.00">CNVTVIEW:INVOKE_CNVTVIEW</text>
</g>
<!-- p31&#45;&gt;p34 -->
<g id="edge37" class="edge"><title>p31&#45;&gt;p34</title>
<path fill="none" stroke="black" d="M222.932,-758.604C225.549,-751.873 233.204,-732.19 239.708,-715.465"/>
<polygon fill="black" stroke="black" points="242.995,-716.669 243.358,-706.08 236.471,-714.132 242.995,-716.669"/>
</g>
<!-- p36 -->
<g id="node38" class="node"><title>p36</title>
<ellipse fill="none" stroke="black" cx="434" cy="-554" rx="3.25" ry="3.5"/>
<text text-anchor="middle" x="412" y="-561.3" font-family="Times,serif" font-size="14.00">collect</text>
</g>
<!-- p35&#45;&gt;p36 -->
<g id="edge42" class="edge"><title>p35&#45;&gt;p36</title>
<path fill="none" stroke="black" d="M423.473,-610.508C424.845,-603.27 428.903,-581.875 431.561,-567.86"/>
<polygon fill="black" stroke="black" points="435.067,-568.158 433.492,-557.681 428.189,-566.854 435.067,-568.158"/>
<text text-anchor="middle" x="460.5" y="-580.3" font-family="Times,serif" font-size="14.00">version_ch</text>
</g>
<!-- p41 -->
<g id="node37" class="node"><title>p41</title>
<ellipse fill="none" stroke="black" cx="244" cy="-614" rx="3.25" ry="3.5"/>
<text text-anchor="middle" x="222" y="-621.3" font-family="Times,serif" font-size="14.00">collect</text>
</g>
<!-- p34&#45;&gt;p41 -->
<g id="edge40" class="edge"><title>p34&#45;&gt;p41</title>
<path fill="none" stroke="black" d="M248.578,-669.937C247.499,-656.989 246.039,-639.471 245.061,-627.731"/>
<polygon fill="black" stroke="black" points="248.547,-627.423 244.229,-617.748 241.572,-628.004 248.547,-627.423"/>
</g>
<!-- p34&#45;&gt;p35 -->
<g id="edge41" class="edge"><title>p34&#45;&gt;p35</title>
<path fill="none" stroke="black" d="M289.69,-670.482C328.782,-654.212 386.127,-630.346 410.884,-620.042"/>
<polygon fill="black" stroke="black" points="412.31,-623.24 420.197,-616.167 409.62,-616.778 412.31,-623.24"/>
</g>
<!-- p32 -->
<g id="node35" class="node"><title>p32</title>
<ellipse fill="black" stroke="black" cx="251" cy="-762" rx="3.6" ry="3.6"/>
</g>
<!-- p32&#45;&gt;p34 -->
<g id="edge38" class="edge"><title>p32&#45;&gt;p34</title>
<path fill="none" stroke="black" d="M250.962,-758.265C250.866,-751.354 250.605,-732.578 250.379,-716.316"/>
<polygon fill="black" stroke="black" points="253.877,-716.093 250.238,-706.143 246.877,-716.191 253.877,-716.093"/>
<text text-anchor="middle" x="265" y="-728.3" font-family="Times,serif" font-size="14.00">meta</text>
</g>
<!-- p33 -->
<g id="node36" class="node"><title>p33</title>
<ellipse fill="black" stroke="black" cx="302" cy="-762" rx="3.6" ry="3.6"/>
</g>
<!-- p33&#45;&gt;p34 -->
<g id="edge39" class="edge"><title>p33&#45;&gt;p34</title>
<path fill="none" stroke="black" d="M300.746,-758.573C297.582,-752.527 288.89,-736.386 280,-724 277.533,-720.562 274.805,-717.051 272.029,-713.644"/>
<polygon fill="black" stroke="black" points="274.684,-711.363 265.566,-705.966 269.328,-715.871 274.684,-711.363"/>
<text text-anchor="middle" x="317" y="-728.3" font-family="Times,serif" font-size="14.00">reference</text>
</g>
<!-- p45 -->
<g id="node44" class="node"><title>p45</title>
<ellipse fill="none" stroke="black" cx="234" cy="-554" rx="3.25" ry="3.5"/>
<text text-anchor="middle" x="219.5" y="-561.3" font-family="Times,serif" font-size="14.00">mix</text>
</g>
<!-- p41&#45;&gt;p45 -->
<g id="edge48" class="edge"><title>p41&#45;&gt;p45</title>
<path fill="none" stroke="black" d="M242.636,-610.643C240.529,-606.859 236.564,-599.129 235,-592 233.279,-584.154 233,-575.149 233.165,-567.987"/>
<polygon fill="black" stroke="black" points="236.675,-567.911 233.727,-557.735 229.685,-567.528 236.675,-567.911"/>
<text text-anchor="middle" x="250.5" y="-580.3" font-family="Times,serif" font-size="14.00">htmls</text>
</g>
<!-- p40 -->
<g id="node39" class="node"><title>p40</title>
<ellipse fill="none" stroke="black" cx="383" cy="-480" rx="140.082" ry="18"/>
<text text-anchor="middle" x="383" y="-476.3" font-family="Times,serif" font-size="14.00">CNVTVIEW:MERGE_VERSION</text>
</g>
<!-- p36&#45;&gt;p40 -->
<g id="edge43" class="edge"><title>p36&#45;&gt;p40</title>
<path fill="none" stroke="black" d="M435.859,-550.862C440.749,-544.966 453.123,-528.106 446,-516 443.145,-511.147 439.347,-506.919 435.025,-503.246"/>
<polygon fill="black" stroke="black" points="436.912,-500.29 426.773,-497.218 432.784,-505.943 436.912,-500.29"/>
</g>
<!-- p43 -->
<g id="node43" class="node"><title>p43</title>
<ellipse fill="none" stroke="black" cx="443" cy="-392" rx="100.137" ry="18"/>
<text text-anchor="middle" x="443" y="-388.3" font-family="Times,serif" font-size="14.00">VERSION_TO_HTML</text>
</g>
<!-- p40&#45;&gt;p43 -->
<g id="edge47" class="edge"><title>p40&#45;&gt;p43</title>
<path fill="none" stroke="black" d="M394.854,-462.009C403.565,-449.524 415.545,-432.352 425.376,-418.261"/>
<polygon fill="black" stroke="black" points="428.319,-420.159 431.171,-409.956 422.578,-416.154 428.319,-420.159"/>
</g>
<!-- p46 -->
<g id="node48" class="node"><title>p46</title>
<ellipse fill="none" stroke="black" cx="321" cy="-392" rx="3.25" ry="3.5"/>
<text text-anchor="middle" x="306.5" y="-399.3" font-family="Times,serif" font-size="14.00">mix</text>
</g>
<!-- p40&#45;&gt;p46 -->
<g id="edge53" class="edge"><title>p40&#45;&gt;p46</title>
<path fill="none" stroke="black" d="M370.751,-462.009C358.142,-444.52 338.905,-417.835 328.429,-403.305"/>
<polygon fill="black" stroke="black" points="331.258,-401.243 322.57,-395.178 325.579,-405.337 331.258,-401.243"/>
</g>
<!-- p37 -->
<g id="node40" class="node"><title>p37</title>
<ellipse fill="black" stroke="black" cx="278" cy="-554" rx="3.6" ry="3.6"/>
</g>
<!-- p37&#45;&gt;p40 -->
<g id="edge44" class="edge"><title>p37&#45;&gt;p40</title>
<path fill="none" stroke="black" d="M279.487,-550.318C283.278,-543.689 293.937,-526.323 307,-516 313.873,-510.568 321.725,-505.754 329.714,-501.566"/>
<polygon fill="black" stroke="black" points="331.33,-504.672 338.746,-497.106 328.23,-498.396 331.33,-504.672"/>
<text text-anchor="middle" x="321" y="-520.3" font-family="Times,serif" font-size="14.00">meta</text>
</g>
<!-- p38 -->
<g id="node41" class="node"><title>p38</title>
<ellipse fill="black" stroke="black" cx="329" cy="-554" rx="3.6" ry="3.6"/>
</g>
<!-- p38&#45;&gt;p40 -->
<g id="edge45" class="edge"><title>p38&#45;&gt;p40</title>
<path fill="none" stroke="black" d="M329.959,-550.514C332.41,-544.331 339.323,-527.904 348,-516 350.563,-512.485 353.48,-508.991 356.513,-505.647"/>
<polygon fill="black" stroke="black" points="359.281,-507.818 363.683,-498.181 354.232,-502.969 359.281,-507.818"/>
<text text-anchor="middle" x="363.5" y="-520.3" font-family="Times,serif" font-size="14.00">name</text>
</g>
<!-- p39 -->
<g id="node42" class="node"><title>p39</title>
<ellipse fill="black" stroke="black" cx="383" cy="-554" rx="3.6" ry="3.6"/>
</g>
<!-- p39&#45;&gt;p40 -->
<g id="edge46" class="edge"><title>p39&#45;&gt;p40</title>
<path fill="none" stroke="black" d="M383,-550.265C383,-543.354 383,-524.578 383,-508.316"/>
<polygon fill="black" stroke="black" points="386.5,-508.143 383,-498.143 379.5,-508.143 386.5,-508.143"/>
<text text-anchor="middle" x="414" y="-520.3" font-family="Times,serif" font-size="14.00">description</text>
</g>
<!-- p47 -->
<g id="node46" class="node"><title>p47</title>
<ellipse fill="none" stroke="black" cx="393" cy="-332" rx="3.25" ry="3.5"/>
<text text-anchor="middle" x="378.5" y="-339.3" font-family="Times,serif" font-size="14.00">mix</text>
</g>
<!-- p43&#45;&gt;p47 -->
<g id="edge50" class="edge"><title>p43&#45;&gt;p47</title>
<path fill="none" stroke="black" d="M428.269,-373.912C419.562,-363.812 408.844,-351.379 401.524,-342.888"/>
<polygon fill="black" stroke="black" points="404.171,-340.598 394.991,-335.309 398.869,-345.169 404.171,-340.598"/>
</g>
<!-- p45&#45;&gt;p46 -->
<g id="edge52" class="edge"><title>p45&#45;&gt;p46</title>
<path fill="none" stroke="black" d="M233.278,-550.583C230.151,-539.638 218.603,-493.864 234,-462 249.706,-429.498 288.982,-407.627 308.945,-398.224"/>
<polygon fill="black" stroke="black" points="310.422,-401.398 318.142,-394.142 307.582,-394.999 310.422,-401.398"/>
</g>
<!-- p42 -->
<g id="node45" class="node"><title>p42</title>
<ellipse fill="black" stroke="black" cx="545" cy="-480" rx="3.6" ry="3.6"/>
</g>
<!-- p42&#45;&gt;p43 -->
<g id="edge49" class="edge"><title>p42&#45;&gt;p43</title>
<path fill="none" stroke="black" d="M543.335,-476.416C541.025,-472.935 536.609,-466.639 532,-462 514.949,-444.835 493.586,-428.142 476.064,-415.475"/>
<polygon fill="black" stroke="black" points="477.983,-412.545 467.806,-409.596 473.923,-418.247 477.983,-412.545"/>
<text text-anchor="middle" x="526" y="-432.3" font-family="Times,serif" font-size="14.00">meta</text>
</g>
<!-- p48 -->
<g id="node49" class="node"><title>p48</title>
<ellipse fill="none" stroke="black" cx="393" cy="-272" rx="3.25" ry="3.5"/>
<text text-anchor="middle" x="371" y="-279.3" font-family="Times,serif" font-size="14.00">collect</text>
</g>
<!-- p47&#45;&gt;p48 -->
<g id="edge55" class="edge"><title>p47&#45;&gt;p48</title>
<path fill="none" stroke="black" d="M393,-328.203C393,-320.649 393,-299.48 393,-285.66"/>
<polygon fill="black" stroke="black" points="396.5,-285.636 393,-275.636 389.5,-285.636 396.5,-285.636"/>
<text text-anchor="middle" x="407" y="-298.3" font-family="Times,serif" font-size="14.00">tozip</text>
</g>
<!-- p44 -->
<g id="node47" class="node"><title>p44</title>
<ellipse fill="black" stroke="black" cx="280" cy="-614" rx="3.6" ry="3.6"/>
<text text-anchor="middle" x="233.9" y="-599.2" font-family="Times,serif" font-size="14.00">Channel.empty</text>
</g>
<!-- p44&#45;&gt;p45 -->
<g id="edge51" class="edge"><title>p44&#45;&gt;p45</title>
<path fill="none" stroke="black" d="M279.587,-610.393C278.451,-603.936 274.765,-586.931 266,-576 260.674,-569.358 252.663,-564.104 245.99,-560.513"/>
<polygon fill="black" stroke="black" points="247.262,-557.242 236.73,-556.087 244.243,-563.557 247.262,-557.242"/>
</g>
<!-- p46&#45;&gt;p47 -->
<g id="edge54" class="edge"><title>p46&#45;&gt;p47</title>
<path fill="none" stroke="black" d="M322.63,-388.381C324.9,-384.859 329.272,-378.517 334,-374 348.915,-359.75 369.181,-346.801 381.661,-339.419"/>
<polygon fill="black" stroke="black" points="383.616,-342.333 390.556,-334.327 380.138,-336.258 383.616,-342.333"/>
</g>
<!-- p50 -->
<g id="node50" class="node"><title>p50</title>
<ellipse fill="none" stroke="black" cx="409" cy="-198" rx="77.0154" ry="18"/>
<text text-anchor="middle" x="409" y="-194.3" font-family="Times,serif" font-size="14.00">SIMPLE_ZIP_01</text>
</g>
<!-- p48&#45;&gt;p50 -->
<g id="edge56" class="edge"><title>p48&#45;&gt;p50</title>
<path fill="none" stroke="black" d="M393.608,-268.265C395.144,-261.354 399.316,-242.578 402.93,-226.316"/>
<polygon fill="black" stroke="black" points="406.438,-226.664 405.19,-216.143 399.604,-225.145 406.438,-226.664"/>
</g>
<!-- p53 -->
<g id="node52" class="node"><title>p53</title>
<ellipse fill="none" stroke="black" cx="483" cy="-138" rx="3.25" ry="3.5"/>
<text text-anchor="middle" x="468.5" y="-145.3" font-family="Times,serif" font-size="14.00">mix</text>
</g>
<!-- p50&#45;&gt;p53 -->
<g id="edge58" class="edge"><title>p50&#45;&gt;p53</title>
<path fill="none" stroke="black" d="M430.007,-180.535C443.996,-169.571 461.761,-155.647 472.754,-147.03"/>
<polygon fill="black" stroke="black" points="475.164,-149.589 480.875,-140.666 470.845,-144.08 475.164,-149.589"/>
</g>
<!-- p51 -->
<g id="node53" class="node"><title>p51</title>
<ellipse fill="black" stroke="black" cx="409" cy="-138" rx="1.8" ry="1.8"/>
</g>
<!-- p50&#45;&gt;p51 -->
<g id="edge59" class="edge"><title>p50&#45;&gt;p51</title>
<path fill="none" stroke="black" d="M409,-179.912C409,-170.322 409,-158.628 409,-150.202"/>
<polygon fill="black" stroke="black" points="412.5,-150.056 409,-140.056 405.5,-150.056 412.5,-150.056"/>
</g>
<!-- p49 -->
<g id="node51" class="node"><title>p49</title>
<ellipse fill="black" stroke="black" cx="426" cy="-272" rx="3.6" ry="3.6"/>
</g>
<!-- p49&#45;&gt;p50 -->
<g id="edge57" class="edge"><title>p49&#45;&gt;p50</title>
<path fill="none" stroke="black" d="M425.354,-268.265C423.722,-261.354 419.289,-242.578 415.45,-226.316"/>
<polygon fill="black" stroke="black" points="418.752,-225.071 413.048,-216.143 411.939,-226.68 418.752,-225.071"/>
<text text-anchor="middle" x="435" y="-238.3" font-family="Times,serif" font-size="14.00">meta</text>
</g>
<!-- p54 -->
<g id="node55" class="node"><title>p54</title>
<ellipse fill="none" stroke="black" cx="483" cy="-92" rx="3.25" ry="3.5"/>
<text text-anchor="middle" x="461" y="-99.3" font-family="Times,serif" font-size="14.00">collect</text>
</g>
<!-- p53&#45;&gt;p54 -->
<g id="edge61" class="edge"><title>p53&#45;&gt;p54</title>
<path fill="none" stroke="black" d="M483,-134.379C483,-128.864 483,-115.742 483,-105.742"/>
<polygon fill="black" stroke="black" points="486.5,-105.552 483,-95.5518 479.5,-105.552 486.5,-105.552"/>
</g>
<!-- p52 -->
<g id="node54" class="node"><title>p52</title>
<ellipse fill="black" stroke="black" cx="508" cy="-198" rx="3.6" ry="3.6"/>
<text text-anchor="middle" x="546.9" y="-205.4" font-family="Times,serif" font-size="14.00">Channel.empty</text>
</g>
<!-- p52&#45;&gt;p53 -->
<g id="edge60" class="edge"><title>p52&#45;&gt;p53</title>
<path fill="none" stroke="black" d="M506.926,-194.508C503.713,-187.054 494.03,-164.589 488.012,-150.628"/>
<polygon fill="black" stroke="black" points="491.215,-149.216 484.042,-141.418 484.787,-151.987 491.215,-149.216"/>
</g>
<!-- p56 -->
<g id="node56" class="node"><title>p56</title>
<ellipse fill="none" stroke="black" cx="499" cy="-18" rx="102.061" ry="18"/>
<text text-anchor="middle" x="499" y="-14.3" font-family="Times,serif" font-size="14.00">SIMPLE_PUBLISH_01</text>
</g>
<!-- p54&#45;&gt;p56 -->
<g id="edge62" class="edge"><title>p54&#45;&gt;p56</title>
<path fill="none" stroke="black" d="M483.608,-88.2654C485.144,-81.3541 489.316,-62.5781 492.93,-46.3163"/>
<polygon fill="black" stroke="black" points="496.438,-46.6641 495.19,-36.1429 489.604,-45.1455 496.438,-46.6641"/>
</g>
<!-- p55 -->
<g id="node57" class="node"><title>p55</title>
<ellipse fill="black" stroke="black" cx="516" cy="-92" rx="3.6" ry="3.6"/>
</g>
<!-- p55&#45;&gt;p56 -->
<g id="edge63" class="edge"><title>p55&#45;&gt;p56</title>
<path fill="none" stroke="black" d="M515.354,-88.2654C513.722,-81.3541 509.289,-62.5781 505.45,-46.3163"/>
<polygon fill="black" stroke="black" points="508.752,-45.071 503.048,-36.1429 501.939,-46.6796 508.752,-45.071"/>
<text text-anchor="middle" x="525" y="-58.3" font-family="Times,serif" font-size="14.00">meta</text>
</g>
</g>
</svg>
