<?xml version="1.0" encoding="UTF-8" standalone="no"?>
<!DOCTYPE svg PUBLIC "-//W3C//DTD SVG 1.1//EN"
 "http://www.w3.org/Graphics/SVG/1.1/DTD/svg11.dtd">
<!-- Generated by graphviz version 2.30.1 (20201013.1554)
 -->
<!-- Title: 20221125hs37d5mvpannotworkflow Pages: 1 -->
<svg width="1504pt" height="1854pt"
 viewBox="0.00 0.00 1504.00 1854.00" xmlns="http://www.w3.org/2000/svg" xmlns:xlink="http://www.w3.org/1999/xlink">
<g id="graph0" class="graph" transform="scale(1 1) rotate(0) translate(4 1850)">
<title>20221125hs37d5mvpannotworkflow</title>
<polygon fill="white" stroke="white" points="-4,5 -4,-1850 1501,-1850 1501,5 -4,5"/>
<!-- p0 -->
<g id="node1" class="node"><title>p0</title>
<ellipse fill="black" stroke="black" cx="112.6" cy="-1202" rx="3.6" ry="3.6"/>
<text text-anchor="middle" x="54.5" y="-1209.4" font-family="Times,serif" font-size="14.00">Channel.empty</text>
</g>
<!-- p27 -->
<g id="node2" class="node"><title>p27</title>
<ellipse fill="none" stroke="black" cx="451.6" cy="-1114" rx="3.25" ry="3.5"/>
<text text-anchor="middle" x="434.6" y="-1121.3" font-family="Times,serif" font-size="14.00">mix</text>
</g>
<!-- p0&#45;&gt;p27 -->
<g id="edge1" class="edge"><title>p0&#45;&gt;p27</title>
<path fill="none" stroke="black" d="M113.862,-1198.34C115.816,-1194.52 119.945,-1187.57 125.6,-1184 231.564,-1117.08 391.636,-1114.01 438.361,-1114.65"/>
<polygon fill="black" stroke="black" points="438.318,-1118.15 448.395,-1114.87 438.477,-1111.15 438.318,-1118.15"/>
<text text-anchor="middle" x="229.6" y="-1154.3" font-family="Times,serif" font-size="14.00">version_ch</text>
</g>
<!-- p33 -->
<g id="node30" class="node"><title>p33</title>
<ellipse fill="none" stroke="black" cx="487.6" cy="-1040" rx="3.25" ry="3.5"/>
<text text-anchor="middle" x="470.6" y="-1047.3" font-family="Times,serif" font-size="14.00">mix</text>
</g>
<!-- p27&#45;&gt;p33 -->
<g id="edge32" class="edge"><title>p27&#45;&gt;p33</title>
<path fill="none" stroke="black" d="M452.798,-1110.6C457.239,-1101.72 472.955,-1070.29 481.67,-1052.86"/>
<polygon fill="black" stroke="black" points="485.019,-1053.99 486.361,-1043.48 478.758,-1050.86 485.019,-1053.99"/>
<text text-anchor="middle" x="516.6" y="-1066.3" font-family="Times,serif" font-size="14.00">version_ch</text>
</g>
<!-- p1 -->
<g id="node3" class="node"><title>p1</title>
<ellipse fill="black" stroke="black" cx="1361.6" cy="-1768" rx="3.6" ry="3.6"/>
<text text-anchor="middle" x="1412.5" y="-1775.4" font-family="Times,serif" font-size="14.00">Channel.empty</text>
</g>
<!-- p6 -->
<g id="node4" class="node"><title>p6</title>
<ellipse fill="none" stroke="black" cx="1079.6" cy="-1680" rx="3.25" ry="3.5"/>
<text text-anchor="middle" x="1062.6" y="-1687.3" font-family="Times,serif" font-size="14.00">mix</text>
</g>
<!-- p1&#45;&gt;p6 -->
<g id="edge2" class="edge"><title>p1&#45;&gt;p6</title>
<path fill="none" stroke="black" d="M1360.32,-1764.37C1358.34,-1760.6 1354.18,-1753.69 1348.6,-1750 1263.15,-1693.46 1134.2,-1683.24 1092.85,-1681.4"/>
<polygon fill="black" stroke="black" points="1092.94,-1677.9 1082.83,-1681.05 1092.7,-1684.9 1092.94,-1677.9"/>
<text text-anchor="middle" x="1354.6" y="-1720.3" font-family="Times,serif" font-size="14.00">version_ch</text>
</g>
<!-- p10 -->
<g id="node10" class="node"><title>p10</title>
<ellipse fill="none" stroke="black" cx="942.6" cy="-1606" rx="3.25" ry="3.5"/>
<text text-anchor="middle" x="925.6" y="-1613.3" font-family="Times,serif" font-size="14.00">mix</text>
</g>
<!-- p6&#45;&gt;p10 -->
<g id="edge8" class="edge"><title>p6&#45;&gt;p10</title>
<path fill="none" stroke="black" d="M1078.23,-1676.73C1075.98,-1673.18 1071.2,-1666.26 1065.6,-1662 1029.96,-1634.84 978.781,-1617.53 955.279,-1610.54"/>
<polygon fill="black" stroke="black" points="956.115,-1607.14 945.539,-1607.77 954.202,-1613.87 956.115,-1607.14"/>
<text text-anchor="middle" x="1073.6" y="-1632.3" font-family="Times,serif" font-size="14.00">version_ch</text>
</g>
<!-- p2 -->
<g id="node5" class="node"><title>p2</title>
<ellipse fill="black" stroke="black" cx="1016.6" cy="-1842" rx="3.6" ry="3.6"/>
</g>
<!-- p4 -->
<g id="node6" class="node"><title>p4</title>
<ellipse fill="none" stroke="black" cx="1046.6" cy="-1768" rx="293.161" ry="18"/>
<text text-anchor="middle" x="1046.6" y="-1764.3" font-family="Times,serif" font-size="14.00">FAST_ANNOT_01:JVARKIT_VCF_TO_BED_01:VCF_TO_BED</text>
</g>
<!-- p2&#45;&gt;p4 -->
<g id="edge3" class="edge"><title>p2&#45;&gt;p4</title>
<path fill="none" stroke="black" d="M1016.07,-1838.19C1015.01,-1831.85 1013.08,-1816.03 1017.6,-1804 1018.86,-1800.65 1020.58,-1797.39 1022.57,-1794.28"/>
<polygon fill="black" stroke="black" points="1025.54,-1796.16 1028.68,-1786.04 1019.91,-1791.99 1025.54,-1796.16"/>
<text text-anchor="middle" x="1036.1" y="-1808.3" font-family="Times,serif" font-size="14.00">meta</text>
</g>
<!-- p9 -->
<g id="node8" class="node"><title>p9</title>
<ellipse fill="none" stroke="black" cx="722.6" cy="-1680" rx="312.909" ry="18"/>
<text text-anchor="middle" x="722.6" y="-1676.3" font-family="Times,serif" font-size="14.00">FAST_ANNOT_01:JVARKIT_VCF_TO_BED_01:INTERSECT_BED</text>
</g>
<!-- p4&#45;&gt;p9 -->
<g id="edge5" class="edge"><title>p4&#45;&gt;p9</title>
<path fill="none" stroke="black" d="M983.745,-1750.32C929.755,-1735.99 851.893,-1715.32 795.244,-1700.28"/>
<polygon fill="black" stroke="black" points="795.843,-1696.82 785.28,-1697.64 794.047,-1703.59 795.843,-1696.82"/>
</g>
<!-- p5 -->
<g id="node9" class="node"><title>p5</title>
<ellipse fill="black" stroke="black" cx="1055.6" cy="-1680" rx="1.8" ry="1.8"/>
</g>
<!-- p4&#45;&gt;p5 -->
<g id="edge6" class="edge"><title>p4&#45;&gt;p5</title>
<path fill="none" stroke="black" d="M1048.42,-1749.6C1050.21,-1732.52 1052.88,-1706.96 1054.41,-1692.35"/>
<polygon fill="black" stroke="black" points="1057.93,-1692.41 1055.49,-1682.1 1050.96,-1691.68 1057.93,-1692.41"/>
</g>
<!-- p4&#45;&gt;p6 -->
<g id="edge7" class="edge"><title>p4&#45;&gt;p6</title>
<path fill="none" stroke="black" d="M1056.88,-1749.93C1059.97,-1744.35 1063.17,-1738.03 1065.6,-1732 1070.67,-1719.4 1074.55,-1704.34 1076.93,-1693.87"/>
<polygon fill="black" stroke="black" points="1080.41,-1694.35 1079.06,-1683.84 1073.56,-1692.89 1080.41,-1694.35"/>
</g>
<!-- p3 -->
<g id="node7" class="node"><title>p3</title>
<ellipse fill="black" stroke="black" cx="1076.6" cy="-1842" rx="3.6" ry="3.6"/>
</g>
<!-- p3&#45;&gt;p4 -->
<g id="edge4" class="edge"><title>p3&#45;&gt;p4</title>
<path fill="none" stroke="black" d="M1075.46,-1838.27C1072.53,-1831.22 1064.46,-1811.86 1057.6,-1795.39"/>
<polygon fill="black" stroke="black" points="1060.82,-1794.03 1053.74,-1786.14 1054.36,-1796.72 1060.82,-1794.03"/>
<text text-anchor="middle" x="1079.6" y="-1808.3" font-family="Times,serif" font-size="14.00">vcf</text>
</g>
<!-- p11 -->
<g id="node13" class="node"><title>p11</title>
<ellipse fill="none" stroke="black" cx="777.6" cy="-1606" rx="3.25" ry="3.5"/>
<text text-anchor="middle" x="744.6" y="-1613.3" font-family="Times,serif" font-size="14.00">splitCsv</text>
</g>
<!-- p9&#45;&gt;p11 -->
<g id="edge11" class="edge"><title>p9&#45;&gt;p11</title>
<path fill="none" stroke="black" d="M735.634,-1661.94C746.248,-1648.04 760.881,-1628.89 769.767,-1617.25"/>
<polygon fill="black" stroke="black" points="772.563,-1619.36 775.852,-1609.29 767,-1615.11 772.563,-1619.36"/>
<text text-anchor="middle" x="816.6" y="-1632.3" font-family="Times,serif" font-size="14.00">interval_vcf_ch</text>
</g>
<!-- p9&#45;&gt;p10 -->
<g id="edge12" class="edge"><title>p9&#45;&gt;p10</title>
<path fill="none" stroke="black" d="M812.846,-1662.76C833.784,-1657.79 855.744,-1651.58 875.6,-1644 896.339,-1636.08 918.543,-1622.74 931.468,-1614.43"/>
<polygon fill="black" stroke="black" points="933.755,-1617.11 940.168,-1608.68 929.895,-1611.27 933.755,-1617.11"/>
</g>
<!-- p16 -->
<g id="node17" class="node"><title>p16</title>
<ellipse fill="none" stroke="black" cx="612.6" cy="-1424" rx="301.36" ry="18"/>
<text text-anchor="middle" x="612.6" y="-1420.3" font-family="Times,serif" font-size="14.00">FAST_ANNOT_01:JVARKIT_VCF_TO_BED_01:CLUSTER_BED</text>
</g>
<!-- p9&#45;&gt;p16 -->
<g id="edge19" class="edge"><title>p9&#45;&gt;p16</title>
<path fill="none" stroke="black" d="M709.357,-1662.01C699.811,-1648.04 688.6,-1627.32 688.6,-1607 688.6,-1607 688.6,-1607 688.6,-1501 688.6,-1481.74 686.901,-1474.81 674.6,-1460 670.756,-1455.37 666.131,-1451.24 661.162,-1447.57"/>
<polygon fill="black" stroke="black" points="662.818,-1444.47 652.551,-1441.86 658.946,-1450.3 662.818,-1444.47"/>
<text text-anchor="middle" x="743.6" y="-1552.3" font-family="Times,serif" font-size="14.00">interval_vcf_ch</text>
</g>
<!-- p17 -->
<g id="node14" class="node"><title>p17</title>
<ellipse fill="none" stroke="black" cx="612.6" cy="-1364" rx="3.25" ry="3.5"/>
<text text-anchor="middle" x="595.6" y="-1371.3" font-family="Times,serif" font-size="14.00">mix</text>
</g>
<!-- p10&#45;&gt;p17 -->
<g id="edge13" class="edge"><title>p10&#45;&gt;p17</title>
<path fill="none" stroke="black" d="M942.6,-1602.4C942.6,-1595.19 942.6,-1574.33 942.6,-1557 942.6,-1557 942.6,-1557 942.6,-1423 942.6,-1411.33 933.262,-1410.74 922.6,-1406 867.943,-1381.72 677.742,-1368.86 625.796,-1365.75"/>
<polygon fill="black" stroke="black" points="625.921,-1362.25 615.735,-1365.17 625.516,-1369.24 625.921,-1362.25"/>
<text text-anchor="middle" x="981.6" y="-1498.3" font-family="Times,serif" font-size="14.00">version_ch</text>
</g>
<!-- p7 -->
<g id="node11" class="node"><title>p7</title>
<ellipse fill="black" stroke="black" cx="667.6" cy="-1768" rx="3.6" ry="3.6"/>
</g>
<!-- p7&#45;&gt;p9 -->
<g id="edge9" class="edge"><title>p7&#45;&gt;p9</title>
<path fill="none" stroke="black" d="M668.057,-1764.01C669.424,-1755.78 674.057,-1732.3 684.6,-1716 686.956,-1712.36 689.779,-1708.84 692.808,-1705.53"/>
<polygon fill="black" stroke="black" points="695.517,-1707.78 700.126,-1698.24 690.574,-1702.82 695.517,-1707.78"/>
<text text-anchor="middle" x="703.1" y="-1720.3" font-family="Times,serif" font-size="14.00">meta</text>
</g>
<!-- p8 -->
<g id="node12" class="node"><title>p8</title>
<ellipse fill="black" stroke="black" cx="727.6" cy="-1768" rx="3.6" ry="3.6"/>
</g>
<!-- p8&#45;&gt;p9 -->
<g id="edge10" class="edge"><title>p8&#45;&gt;p9</title>
<path fill="none" stroke="black" d="M727.434,-1764.14C726.931,-1755.5 725.391,-1729.01 724.183,-1708.23"/>
<polygon fill="black" stroke="black" points="727.663,-1707.78 723.589,-1698 720.675,-1708.19 727.663,-1707.78"/>
<text text-anchor="middle" x="754.6" y="-1720.3" font-family="Times,serif" font-size="14.00">userbed</text>
</g>
<!-- p12 -->
<g id="node15" class="node"><title>p12</title>
<ellipse fill="none" stroke="black" cx="820.6" cy="-1556" rx="3.25" ry="3.5"/>
<text text-anchor="middle" x="832.6" y="-1563.3" font-family="Times,serif" font-size="14.00">map</text>
</g>
<!-- p11&#45;&gt;p12 -->
<g id="edge14" class="edge"><title>p11&#45;&gt;p12</title>
<path fill="none" stroke="black" d="M779.448,-1602.94C784.973,-1596.77 801.629,-1578.18 811.979,-1566.62"/>
<polygon fill="black" stroke="black" points="814.742,-1568.79 818.807,-1559 809.528,-1564.11 814.742,-1568.79"/>
</g>
<!-- p22 -->
<g id="node21" class="node"><title>p22</title>
<ellipse fill="none" stroke="black" cx="505.6" cy="-1290" rx="3.25" ry="3.5"/>
<text text-anchor="middle" x="477.6" y="-1297.3" font-family="Times,serif" font-size="14.00">collect</text>
</g>
<!-- p17&#45;&gt;p22 -->
<g id="edge22" class="edge"><title>p17&#45;&gt;p22</title>
<path fill="none" stroke="black" d="M609.731,-1361.82C597.645,-1356.74 550.055,-1335.79 518.6,-1308 516.609,-1306.24 514.716,-1304.14 513.022,-1302.02"/>
<polygon fill="black" stroke="black" points="515.781,-1299.86 507.179,-1293.67 510.047,-1303.87 515.781,-1299.86"/>
<text text-anchor="middle" x="606.6" y="-1330.3" font-family="Times,serif" font-size="14.00">version_ch</text>
</g>
<!-- p13 -->
<g id="node16" class="node"><title>p13</title>
<ellipse fill="none" stroke="black" cx="767.6" cy="-1502" rx="3.25" ry="3.5"/>
<text text-anchor="middle" x="739.6" y="-1509.3" font-family="Times,serif" font-size="14.00">unique</text>
</g>
<!-- p12&#45;&gt;p13 -->
<g id="edge15" class="edge"><title>p12&#45;&gt;p13</title>
<path fill="none" stroke="black" d="M818.323,-1552.77C811.307,-1545.88 789.739,-1524.72 777.099,-1512.32"/>
<polygon fill="black" stroke="black" points="779.399,-1509.67 769.81,-1505.17 774.497,-1514.67 779.399,-1509.67"/>
</g>
<!-- p13&#45;&gt;p16 -->
<g id="edge16" class="edge"><title>p13&#45;&gt;p16</title>
<path fill="none" stroke="black" d="M765.22,-1499.26C756.917,-1493.24 728.336,-1472.97 702.6,-1460 692.41,-1454.86 681.277,-1449.99 670.422,-1445.59"/>
<polygon fill="black" stroke="black" points="671.572,-1442.28 660.986,-1441.86 668.997,-1448.79 671.572,-1442.28"/>
<text text-anchor="middle" x="801.1" y="-1464.3" font-family="Times,serif" font-size="14.00">each_contig_vcf_ch</text>
</g>
<!-- p18 -->
<g id="node20" class="node"><title>p18</title>
<ellipse fill="none" stroke="black" cx="836.6" cy="-1364" rx="3.25" ry="3.5"/>
<text text-anchor="middle" x="808.6" y="-1371.3" font-family="Times,serif" font-size="14.00">collect</text>
</g>
<!-- p16&#45;&gt;p18 -->
<g id="edge20" class="edge"><title>p16&#45;&gt;p18</title>
<path fill="none" stroke="black" d="M676.789,-1406.38C727.912,-1393.14 795.395,-1375.67 823.472,-1368.4"/>
<polygon fill="black" stroke="black" points="824.595,-1371.72 833.399,-1365.83 822.84,-1364.95 824.595,-1371.72"/>
</g>
<!-- p16&#45;&gt;p17 -->
<g id="edge21" class="edge"><title>p16&#45;&gt;p17</title>
<path fill="none" stroke="black" d="M612.6,-1405.91C612.6,-1396.96 612.6,-1386.19 612.6,-1377.94"/>
<polygon fill="black" stroke="black" points="616.1,-1377.69 612.6,-1367.69 609.1,-1377.69 616.1,-1377.69"/>
</g>
<!-- p14 -->
<g id="node18" class="node"><title>p14</title>
<ellipse fill="black" stroke="black" cx="543.6" cy="-1502" rx="3.6" ry="3.6"/>
</g>
<!-- p14&#45;&gt;p16 -->
<g id="edge17" class="edge"><title>p14&#45;&gt;p16</title>
<path fill="none" stroke="black" d="M544.362,-1498.13C546.361,-1491.02 552.326,-1472.27 562.6,-1460 566.171,-1455.73 570.38,-1451.75 574.816,-1448.1"/>
<polygon fill="black" stroke="black" points="577.104,-1450.76 582.955,-1441.93 572.873,-1445.18 577.104,-1450.76"/>
<text text-anchor="middle" x="581.1" y="-1464.3" font-family="Times,serif" font-size="14.00">meta</text>
</g>
<!-- p15 -->
<g id="node19" class="node"><title>p15</title>
<ellipse fill="black" stroke="black" cx="603.6" cy="-1502" rx="3.6" ry="3.6"/>
</g>
<!-- p15&#45;&gt;p16 -->
<g id="edge18" class="edge"><title>p15&#45;&gt;p16</title>
<path fill="none" stroke="black" d="M603.484,-1498.4C603.232,-1491.89 602.796,-1474.41 604.6,-1460 604.918,-1457.46 605.341,-1454.83 605.826,-1452.2"/>
<polygon fill="black" stroke="black" points="609.271,-1452.83 607.918,-1442.32 602.422,-1451.38 609.271,-1452.83"/>
<text text-anchor="middle" x="639.6" y="-1464.3" font-family="Times,serif" font-size="14.00">reference</text>
</g>
<!-- p20 -->
<g id="node22" class="node"><title>p20</title>
<ellipse fill="none" stroke="black" cx="850.6" cy="-1290" rx="323.032" ry="18"/>
<text text-anchor="middle" x="850.6" y="-1286.3" font-family="Times,serif" font-size="14.00">FAST_ANNOT_01:JVARKIT_VCF_TO_BED_01:CONCAT_FILES_01</text>
</g>
<!-- p18&#45;&gt;p20 -->
<g id="edge23" class="edge"><title>p18&#45;&gt;p20</title>
<path fill="none" stroke="black" d="M837.132,-1360.27C838.476,-1353.35 842.126,-1334.58 845.289,-1318.32"/>
<polygon fill="black" stroke="black" points="848.794,-1318.63 847.267,-1308.14 841.922,-1317.29 848.794,-1318.63"/>
</g>
<!-- p26 -->
<g id="node26" class="node"><title>p26</title>
<ellipse fill="none" stroke="black" cx="451.6" cy="-1202" rx="317.258" ry="18"/>
<text text-anchor="middle" x="451.6" y="-1198.3" font-family="Times,serif" font-size="14.00">FAST_ANNOT_01:JVARKIT_VCF_TO_BED_01:MERGE_VERSION</text>
</g>
<!-- p22&#45;&gt;p26 -->
<g id="edge27" class="edge"><title>p22&#45;&gt;p26</title>
<path fill="none" stroke="black" d="M505.418,-1286.46C504.755,-1278.64 501.939,-1254.49 491.6,-1238 489.22,-1234.2 486.303,-1230.59 483.14,-1227.22"/>
<polygon fill="black" stroke="black" points="485.56,-1224.69 475.931,-1220.27 480.703,-1229.73 485.56,-1224.69"/>
</g>
<!-- p28 -->
<g id="node24" class="node"><title>p28</title>
<ellipse fill="none" stroke="black" cx="790.6" cy="-1202" rx="3.25" ry="3.5"/>
<text text-anchor="middle" x="816.6" y="-1209.3" font-family="Times,serif" font-size="14.00">splitCsv</text>
</g>
<!-- p20&#45;&gt;p28 -->
<g id="edge25" class="edge"><title>p20&#45;&gt;p28</title>
<path fill="none" stroke="black" d="M818.493,-1272C811.674,-1267.04 805.165,-1261.02 800.6,-1254 793.102,-1242.48 790.987,-1226.6 790.503,-1215.64"/>
<polygon fill="black" stroke="black" points="794.003,-1215.57 790.46,-1205.58 787.003,-1215.6 794.003,-1215.57"/>
<text text-anchor="middle" x="824.6" y="-1242.3" font-family="Times,serif" font-size="14.00">output</text>
</g>
<!-- p21 -->
<g id="node25" class="node"><title>p21</title>
<ellipse fill="black" stroke="black" cx="853.6" cy="-1202" rx="1.8" ry="1.8"/>
</g>
<!-- p20&#45;&gt;p21 -->
<g id="edge26" class="edge"><title>p20&#45;&gt;p21</title>
<path fill="none" stroke="black" d="M851.207,-1271.6C851.803,-1254.52 852.694,-1228.96 853.204,-1214.35"/>
<polygon fill="black" stroke="black" points="856.711,-1214.21 853.562,-1204.1 849.715,-1213.97 856.711,-1214.21"/>
</g>
<!-- p19 -->
<g id="node23" class="node"><title>p19</title>
<ellipse fill="black" stroke="black" cx="798.6" cy="-1364" rx="3.6" ry="3.6"/>
</g>
<!-- p19&#45;&gt;p20 -->
<g id="edge24" class="edge"><title>p19&#45;&gt;p20</title>
<path fill="none" stroke="black" d="M797.948,-1360.08C796.646,-1353.5 794.352,-1337.25 800.6,-1326 802.952,-1321.77 806.059,-1317.93 809.576,-1314.48"/>
<polygon fill="black" stroke="black" points="811.909,-1317.09 817.26,-1307.94 807.375,-1311.76 811.909,-1317.09"/>
<text text-anchor="middle" x="819.1" y="-1330.3" font-family="Times,serif" font-size="14.00">meta</text>
</g>
<!-- p32 -->
<g id="node31" class="node"><title>p32</title>
<ellipse fill="none" stroke="black" cx="819.6" cy="-1114" rx="135.282" ry="18"/>
<text text-anchor="middle" x="819.6" y="-1110.3" font-family="Times,serif" font-size="14.00">FAST_ANNOT_01:ANNOT</text>
</g>
<!-- p28&#45;&gt;p32 -->
<g id="edge33" class="edge"><title>p28&#45;&gt;p32</title>
<path fill="none" stroke="black" d="M791.437,-1198.52C794.227,-1190.25 803.439,-1162.93 810.576,-1141.76"/>
<polygon fill="black" stroke="black" points="813.898,-1142.86 813.777,-1132.27 807.265,-1140.63 813.898,-1142.86"/>
</g>
<!-- p26&#45;&gt;p27 -->
<g id="edge31" class="edge"><title>p26&#45;&gt;p27</title>
<path fill="none" stroke="black" d="M451.6,-1183.6C451.6,-1167.05 451.6,-1142.54 451.6,-1127.74"/>
<polygon fill="black" stroke="black" points="455.1,-1127.67 451.6,-1117.67 448.1,-1127.67 455.1,-1127.67"/>
</g>
<!-- p23 -->
<g id="node27" class="node"><title>p23</title>
<ellipse fill="black" stroke="black" cx="453.6" cy="-1290" rx="3.6" ry="3.6"/>
</g>
<!-- p23&#45;&gt;p26 -->
<g id="edge28" class="edge"><title>p23&#45;&gt;p26</title>
<path fill="none" stroke="black" d="M453.533,-1286.14C453.333,-1277.5 452.717,-1251.01 452.233,-1230.23"/>
<polygon fill="black" stroke="black" points="455.727,-1229.92 451.995,-1220 448.729,-1230.08 455.727,-1229.92"/>
<text text-anchor="middle" x="472.1" y="-1242.3" font-family="Times,serif" font-size="14.00">meta</text>
</g>
<!-- p24 -->
<g id="node28" class="node"><title>p24</title>
<ellipse fill="black" stroke="black" cx="285.6" cy="-1290" rx="3.6" ry="3.6"/>
</g>
<!-- p24&#45;&gt;p26 -->
<g id="edge29" class="edge"><title>p24&#45;&gt;p26</title>
<path fill="none" stroke="black" d="M286.238,-1286.16C288.34,-1277.48 295.89,-1251.11 312.6,-1238 320.156,-1232.07 328.593,-1227.14 337.473,-1223.03"/>
<polygon fill="black" stroke="black" points="339.033,-1226.17 346.87,-1219.04 336.297,-1219.72 339.033,-1226.17"/>
<text text-anchor="middle" x="332.6" y="-1242.3" font-family="Times,serif" font-size="14.00">name</text>
</g>
<!-- p25 -->
<g id="node29" class="node"><title>p25</title>
<ellipse fill="black" stroke="black" cx="348.6" cy="-1290" rx="3.6" ry="3.6"/>
</g>
<!-- p25&#45;&gt;p26 -->
<g id="edge30" class="edge"><title>p25&#45;&gt;p26</title>
<path fill="none" stroke="black" d="M348.797,-1286.28C349.543,-1277.94 352.89,-1252.43 366.6,-1238 371.4,-1232.95 377.036,-1228.6 383.083,-1224.86"/>
<polygon fill="black" stroke="black" points="385.138,-1227.73 392.188,-1219.82 381.745,-1221.6 385.138,-1227.73"/>
<text text-anchor="middle" x="407.6" y="-1242.3" font-family="Times,serif" font-size="14.00">description</text>
</g>
<!-- p37 -->
<g id="node36" class="node"><title>p37</title>
<ellipse fill="none" stroke="black" cx="517.6" cy="-878" rx="3.25" ry="3.5"/>
<text text-anchor="middle" x="500.6" y="-885.3" font-family="Times,serif" font-size="14.00">mix</text>
</g>
<!-- p33&#45;&gt;p37 -->
<g id="edge39" class="edge"><title>p33&#45;&gt;p37</title>
<path fill="none" stroke="black" d="M487.669,-1036.44C487.999,-1025.61 489.701,-982.562 496.6,-948 500.653,-927.693 508.233,-904.828 513.092,-891.184"/>
<polygon fill="black" stroke="black" points="516.455,-892.178 516.61,-881.585 509.883,-889.77 516.455,-892.178"/>
<text text-anchor="middle" x="535.6" y="-962.3" font-family="Times,serif" font-size="14.00">version_ch</text>
</g>
<!-- p34 -->
<g id="node35" class="node"><title>p34</title>
<ellipse fill="none" stroke="black" cx="819.6" cy="-1040" rx="3.25" ry="3.5"/>
<text text-anchor="middle" x="791.6" y="-1047.3" font-family="Times,serif" font-size="14.00">collect</text>
</g>
<!-- p32&#45;&gt;p34 -->
<g id="edge37" class="edge"><title>p32&#45;&gt;p34</title>
<path fill="none" stroke="black" d="M819.6,-1095.94C819.6,-1083.13 819.6,-1065.84 819.6,-1054.11"/>
<polygon fill="black" stroke="black" points="823.1,-1053.75 819.6,-1043.75 816.1,-1053.75 823.1,-1053.75"/>
</g>
<!-- p32&#45;&gt;p33 -->
<g id="edge38" class="edge"><title>p32&#45;&gt;p33</title>
<path fill="none" stroke="black" d="M752.015,-1098.34C671.091,-1080.79 541.331,-1052.65 500.399,-1043.78"/>
<polygon fill="black" stroke="black" points="501.065,-1040.34 490.551,-1041.64 499.582,-1047.18 501.065,-1040.34"/>
</g>
<!-- p29 -->
<g id="node32" class="node"><title>p29</title>
<ellipse fill="black" stroke="black" cx="994.6" cy="-1202" rx="3.6" ry="3.6"/>
</g>
<!-- p29&#45;&gt;p32 -->
<g id="edge34" class="edge"><title>p29&#45;&gt;p32</title>
<path fill="none" stroke="black" d="M993.796,-1198.15C991.187,-1189.43 982.094,-1162.97 964.6,-1150 952.937,-1141.35 939.429,-1134.82 925.442,-1129.88"/>
<polygon fill="black" stroke="black" points="926.292,-1126.47 915.7,-1126.71 924.126,-1133.13 926.292,-1126.47"/>
<text text-anchor="middle" x="998.1" y="-1154.3" font-family="Times,serif" font-size="14.00">meta</text>
</g>
<!-- p30 -->
<g id="node33" class="node"><title>p30</title>
<ellipse fill="black" stroke="black" cx="819.6" cy="-1202" rx="3.6" ry="3.6"/>
</g>
<!-- p30&#45;&gt;p32 -->
<g id="edge35" class="edge"><title>p30&#45;&gt;p32</title>
<path fill="none" stroke="black" d="M819.6,-1198.14C819.6,-1189.5 819.6,-1163.01 819.6,-1142.23"/>
<polygon fill="black" stroke="black" points="823.1,-1142 819.6,-1132 816.1,-1142 823.1,-1142"/>
<text text-anchor="middle" x="854.6" y="-1154.3" font-family="Times,serif" font-size="14.00">reference</text>
</g>
<!-- p31 -->
<g id="node34" class="node"><title>p31</title>
<ellipse fill="black" stroke="black" cx="912.6" cy="-1202" rx="3.6" ry="3.6"/>
</g>
<!-- p31&#45;&gt;p32 -->
<g id="edge36" class="edge"><title>p31&#45;&gt;p32</title>
<path fill="none" stroke="black" d="M912.122,-1198.31C910.529,-1190.07 904.684,-1164.82 890.6,-1150 885.588,-1144.73 879.613,-1140.14 873.287,-1136.18"/>
<polygon fill="black" stroke="black" points="874.92,-1133.08 864.501,-1131.16 871.447,-1139.16 874.92,-1133.08"/>
<text text-anchor="middle" x="931.1" y="-1154.3" font-family="Times,serif" font-size="14.00">samples</text>
</g>
<!-- p36 -->
<g id="node37" class="node"><title>p36</title>
<ellipse fill="none" stroke="black" cx="793.6" cy="-966" rx="209.397" ry="18"/>
<text text-anchor="middle" x="793.6" y="-962.3" font-family="Times,serif" font-size="14.00">FAST_ANNOT_01:COLLECT_TO_FILE_01</text>
</g>
<!-- p34&#45;&gt;p36 -->
<g id="edge40" class="edge"><title>p34&#45;&gt;p36</title>
<path fill="none" stroke="black" d="M818.735,-1036.6C816.327,-1029.94 809.329,-1010.56 803.326,-993.935"/>
<polygon fill="black" stroke="black" points="806.456,-992.297 799.768,-984.08 799.872,-994.674 806.456,-992.297"/>
</g>
<!-- p59 -->
<g id="node40" class="node"><title>p59</title>
<ellipse fill="none" stroke="black" cx="614.6" cy="-282" rx="3.25" ry="3.5"/>
<text text-anchor="middle" x="597.6" y="-289.3" font-family="Times,serif" font-size="14.00">mix</text>
</g>
<!-- p37&#45;&gt;p59 -->
<g id="edge44" class="edge"><title>p37&#45;&gt;p59</title>
<path fill="none" stroke="black" d="M517.6,-874.341C517.6,-866.114 517.6,-840.347 517.6,-819 517.6,-819 517.6,-819 517.6,-341 517.6,-302.38 574.941,-288.86 601.449,-284.674"/>
<polygon fill="black" stroke="black" points="601.935,-288.14 611.373,-283.324 600.992,-281.204 601.935,-288.14"/>
<text text-anchor="middle" x="556.6" y="-590.3" font-family="Times,serif" font-size="14.00">version_ch</text>
</g>
<!-- p40 -->
<g id="node39" class="node"><title>p40</title>
<ellipse fill="none" stroke="black" cx="995.6" cy="-878" rx="276.338" ry="18"/>
<text text-anchor="middle" x="995.6" y="-874.3" font-family="Times,serif" font-size="14.00">FAST_ANNOT_01:BCFTOOLS_CONCAT_01:SQRT_FILE</text>
</g>
<!-- p36&#45;&gt;p40 -->
<g id="edge42" class="edge"><title>p36&#45;&gt;p40</title>
<path fill="none" stroke="black" d="M833.027,-948.214C865.456,-934.408 911.58,-914.771 946.421,-899.938"/>
<polygon fill="black" stroke="black" points="948.098,-903.028 955.928,-895.89 945.356,-896.587 948.098,-903.028"/>
<text text-anchor="middle" x="928.6" y="-918.3" font-family="Times,serif" font-size="14.00">vcfs</text>
</g>
<!-- p36&#45;&gt;p37 -->
<g id="edge43" class="edge"><title>p36&#45;&gt;p37</title>
<path fill="none" stroke="black" d="M740.711,-948.52C674.903,-928.015 566.73,-894.309 530.142,-882.908"/>
<polygon fill="black" stroke="black" points="530.961,-879.497 520.373,-879.864 528.879,-886.18 530.961,-879.497"/>
</g>
<!-- p35 -->
<g id="node38" class="node"><title>p35</title>
<ellipse fill="black" stroke="black" cx="767.6" cy="-1040" rx="3.6" ry="3.6"/>
</g>
<!-- p35&#45;&gt;p36 -->
<g id="edge41" class="edge"><title>p35&#45;&gt;p36</title>
<path fill="none" stroke="black" d="M766.743,-1036.21C764.958,-1029.89 761.341,-1014.14 765.6,-1002 766.769,-998.668 768.403,-995.418 770.301,-992.325"/>
<polygon fill="black" stroke="black" points="773.219,-994.26 776.18,-984.088 767.521,-990.194 773.219,-994.26"/>
<text text-anchor="middle" x="784.1" y="-1006.3" font-family="Times,serif" font-size="14.00">meta</text>
</g>
<!-- p42 -->
<g id="node44" class="node"><title>p42</title>
<ellipse fill="none" stroke="black" cx="1008.6" cy="-818" rx="3.25" ry="3.5"/>
<text text-anchor="middle" x="973.1" y="-825.3" font-family="Times,serif" font-size="14.00">splitText</text>
</g>
<!-- p40&#45;&gt;p42 -->
<g id="edge47" class="edge"><title>p40&#45;&gt;p42</title>
<path fill="none" stroke="black" d="M999.43,-859.912C1001.46,-850.858 1003.91,-839.93 1005.77,-831.647"/>
<polygon fill="black" stroke="black" points="1009.22,-832.214 1008,-821.691 1002.39,-830.683 1009.22,-832.214"/>
</g>
<!-- p41 -->
<g id="node45" class="node"><title>p41</title>
<ellipse fill="black" stroke="black" cx="983.6" cy="-818" rx="1.8" ry="1.8"/>
</g>
<!-- p40&#45;&gt;p41 -->
<g id="edge48" class="edge"><title>p40&#45;&gt;p41</title>
<path fill="none" stroke="black" d="M992.065,-859.912C990.056,-850.205 987.602,-838.342 985.854,-829.896"/>
<polygon fill="black" stroke="black" points="989.272,-829.14 983.819,-820.056 982.417,-830.558 989.272,-829.14"/>
</g>
<!-- p60 -->
<g id="node61" class="node"><title>p60</title>
<ellipse fill="none" stroke="black" cx="614.6" cy="-222" rx="3.25" ry="3.5"/>
<text text-anchor="middle" x="586.6" y="-229.3" font-family="Times,serif" font-size="14.00">collect</text>
</g>
<!-- p59&#45;&gt;p60 -->
<g id="edge67" class="edge"><title>p59&#45;&gt;p60</title>
<path fill="none" stroke="black" d="M614.6,-278.203C614.6,-270.649 614.6,-249.48 614.6,-235.66"/>
<polygon fill="black" stroke="black" points="618.1,-235.636 614.6,-225.636 611.1,-235.636 618.1,-235.636"/>
<text text-anchor="middle" x="653.6" y="-248.3" font-family="Times,serif" font-size="14.00">version_ch</text>
</g>
<!-- p38 -->
<g id="node41" class="node"><title>p38</title>
<ellipse fill="black" stroke="black" cx="1390.6" cy="-698" rx="3.6" ry="3.6"/>
<text text-anchor="middle" x="1441.5" y="-705.4" font-family="Times,serif" font-size="14.00">Channel.empty</text>
</g>
<!-- p47 -->
<g id="node42" class="node"><title>p47</title>
<ellipse fill="none" stroke="black" cx="1355.6" cy="-624" rx="3.25" ry="3.5"/>
<text text-anchor="middle" x="1338.6" y="-631.3" font-family="Times,serif" font-size="14.00">mix</text>
</g>
<!-- p38&#45;&gt;p47 -->
<g id="edge45" class="edge"><title>p38&#45;&gt;p47</title>
<path fill="none" stroke="black" d="M1389.27,-694.265C1384.73,-684.915 1369.62,-653.851 1361.27,-636.673"/>
<polygon fill="black" stroke="black" points="1364.3,-634.9 1356.78,-627.437 1358.01,-637.961 1364.3,-634.9"/>
<text text-anchor="middle" x="1411.6" y="-650.3" font-family="Times,serif" font-size="14.00">version_ch</text>
</g>
<!-- p53 -->
<g id="node51" class="node"><title>p53</title>
<ellipse fill="none" stroke="black" cx="969.6" cy="-476" rx="3.25" ry="3.5"/>
<text text-anchor="middle" x="952.6" y="-483.3" font-family="Times,serif" font-size="14.00">mix</text>
</g>
<!-- p47&#45;&gt;p53 -->
<g id="edge55" class="edge"><title>p47&#45;&gt;p53</title>
<path fill="none" stroke="black" d="M1355.74,-620.227C1356.23,-607.737 1356.42,-556.262 1328.6,-532 1275.58,-485.765 1042.27,-478.344 983.218,-477.201"/>
<polygon fill="black" stroke="black" points="983.019,-473.697 972.963,-477.035 982.906,-480.696 983.019,-473.697"/>
<text text-anchor="middle" x="1388.6" y="-546.3" font-family="Times,serif" font-size="14.00">version_ch</text>
</g>
<!-- p39 -->
<g id="node43" class="node"><title>p39</title>
<ellipse fill="black" stroke="black" cx="1025.6" cy="-966" rx="3.6" ry="3.6"/>
</g>
<!-- p39&#45;&gt;p40 -->
<g id="edge46" class="edge"><title>p39&#45;&gt;p40</title>
<path fill="none" stroke="black" d="M1024.6,-962.139C1021.56,-953.422 1012.18,-926.523 1004.9,-905.657"/>
<polygon fill="black" stroke="black" points="1008.13,-904.293 1001.53,-896.004 1001.52,-906.599 1008.13,-904.293"/>
<text text-anchor="middle" x="1032.1" y="-918.3" font-family="Times,serif" font-size="14.00">meta</text>
</g>
<!-- p43 -->
<g id="node46" class="node"><title>p43</title>
<ellipse fill="none" stroke="black" cx="1008.6" cy="-772" rx="3.25" ry="3.5"/>
<text text-anchor="middle" x="989.6" y="-779.3" font-family="Times,serif" font-size="14.00">map</text>
</g>
<!-- p42&#45;&gt;p43 -->
<g id="edge49" class="edge"><title>p42&#45;&gt;p43</title>
<path fill="none" stroke="black" d="M1008.6,-814.379C1008.6,-808.864 1008.6,-795.742 1008.6,-785.742"/>
<polygon fill="black" stroke="black" points="1012.1,-785.552 1008.6,-775.552 1005.1,-785.552 1012.1,-785.552"/>
</g>
<!-- p45 -->
<g id="node47" class="node"><title>p45</title>
<ellipse fill="none" stroke="black" cx="978.6" cy="-698" rx="389.448" ry="18"/>
<text text-anchor="middle" x="978.6" y="-694.3" font-family="Times,serif" font-size="14.00">FAST_ANNOT_01:BCFTOOLS_CONCAT_01:BCFTOOL_CONCAT_FILE_LIST_01</text>
</g>
<!-- p43&#45;&gt;p45 -->
<g id="edge50" class="edge"><title>p43&#45;&gt;p45</title>
<path fill="none" stroke="black" d="M1007.6,-768.604C1004.8,-761.873 996.596,-742.19 989.627,-725.465"/>
<polygon fill="black" stroke="black" points="992.794,-723.965 985.717,-716.08 986.332,-726.657 992.794,-723.965"/>
<text text-anchor="middle" x="1022.1" y="-738.3" font-family="Times,serif" font-size="14.00">d2_ch</text>
</g>
<!-- p48 -->
<g id="node49" class="node"><title>p48</title>
<ellipse fill="none" stroke="black" cx="980.6" cy="-624" rx="3.25" ry="3.5"/>
<text text-anchor="middle" x="952.6" y="-631.3" font-family="Times,serif" font-size="14.00">collect</text>
</g>
<!-- p45&#45;&gt;p48 -->
<g id="edge52" class="edge"><title>p45&#45;&gt;p48</title>
<path fill="none" stroke="black" d="M979.074,-679.937C979.43,-667.126 979.91,-649.843 980.236,-638.107"/>
<polygon fill="black" stroke="black" points="983.745,-637.842 980.524,-627.748 976.747,-637.647 983.745,-637.842"/>
</g>
<!-- p46 -->
<g id="node50" class="node"><title>p46</title>
<ellipse fill="black" stroke="black" cx="955.6" cy="-624" rx="1.8" ry="1.8"/>
</g>
<!-- p45&#45;&gt;p46 -->
<g id="edge53" class="edge"><title>p45&#45;&gt;p46</title>
<path fill="none" stroke="black" d="M973.149,-679.937C968.767,-666.219 962.747,-647.373 959.018,-635.701"/>
<polygon fill="black" stroke="black" points="962.248,-634.31 955.871,-625.849 955.58,-636.44 962.248,-634.31"/>
</g>
<!-- p45&#45;&gt;p47 -->
<g id="edge54" class="edge"><title>p45&#45;&gt;p47</title>
<path fill="none" stroke="black" d="M1065.56,-680.391C1158.78,-662.589 1299.22,-635.768 1342.46,-627.509"/>
<polygon fill="black" stroke="black" points="1343.28,-630.916 1352.45,-625.602 1341.97,-624.041 1343.28,-630.916"/>
</g>
<!-- p44 -->
<g id="node48" class="node"><title>p44</title>
<ellipse fill="black" stroke="black" cx="948.6" cy="-772" rx="3.6" ry="3.6"/>
</g>
<!-- p44&#45;&gt;p45 -->
<g id="edge51" class="edge"><title>p44&#45;&gt;p45</title>
<path fill="none" stroke="black" d="M948.414,-768.19C948.097,-761.847 947.887,-746.032 952.6,-734 953.881,-730.729 955.552,-727.494 957.429,-724.389"/>
<polygon fill="black" stroke="black" points="960.367,-726.295 963.115,-716.062 954.586,-722.347 960.367,-726.295"/>
<text text-anchor="middle" x="971.1" y="-738.3" font-family="Times,serif" font-size="14.00">meta</text>
</g>
<!-- p50 -->
<g id="node52" class="node"><title>p50</title>
<ellipse fill="none" stroke="black" cx="932.6" cy="-550" rx="387.049" ry="18"/>
<text text-anchor="middle" x="932.6" y="-546.3" font-family="Times,serif" font-size="14.00">FAST_ANNOT_01:BCFTOOLS_CONCAT_01:BCFTOOL_CONCAT_COLLECT_01</text>
</g>
<!-- p48&#45;&gt;p50 -->
<g id="edge56" class="edge"><title>p48&#45;&gt;p50</title>
<path fill="none" stroke="black" d="M980.032,-620.504C978.544,-614.299 974.117,-597.824 966.6,-586 964.413,-582.56 961.846,-579.176 959.12,-575.949"/>
<polygon fill="black" stroke="black" points="961.47,-573.332 952.142,-568.308 956.301,-578.052 961.47,-573.332"/>
</g>
<!-- p54 -->
<g id="node56" class="node"><title>p54</title>
<ellipse fill="none" stroke="black" cx="886.6" cy="-416" rx="3.25" ry="3.5"/>
<text text-anchor="middle" x="858.6" y="-423.3" font-family="Times,serif" font-size="14.00">collect</text>
</g>
<!-- p53&#45;&gt;p54 -->
<g id="edge61" class="edge"><title>p53&#45;&gt;p54</title>
<path fill="none" stroke="black" d="M967.205,-473.327C956.979,-466.181 916.604,-437.967 897.167,-424.384"/>
<polygon fill="black" stroke="black" points="899.049,-421.429 888.847,-418.57 895.039,-427.167 899.049,-421.429"/>
<text text-anchor="middle" x="977.6" y="-442.3" font-family="Times,serif" font-size="14.00">version_ch</text>
</g>
<!-- p52 -->
<g id="node54" class="node"><title>p52</title>
<ellipse fill="black" stroke="black" cx="932.6" cy="-476" rx="1.8" ry="1.8"/>
</g>
<!-- p50&#45;&gt;p52 -->
<g id="edge58" class="edge"><title>p50&#45;&gt;p52</title>
<path fill="none" stroke="black" d="M932.6,-531.937C932.6,-518.37 932.6,-499.787 932.6,-488.089"/>
<polygon fill="black" stroke="black" points="936.1,-487.849 932.6,-477.849 929.1,-487.849 936.1,-487.849"/>
<text text-anchor="middle" x="943.6" y="-502.3" font-family="Times,serif" font-size="14.00">vcf</text>
</g>
<!-- p51 -->
<g id="node55" class="node"><title>p51</title>
<ellipse fill="black" stroke="black" cx="869.6" cy="-476" rx="1.8" ry="1.8"/>
</g>
<!-- p50&#45;&gt;p51 -->
<g id="edge59" class="edge"><title>p50&#45;&gt;p51</title>
<path fill="none" stroke="black" d="M907.2,-531.785C900.633,-526.572 893.921,-520.492 888.6,-514 882.031,-505.986 876.857,-495.33 873.577,-487.513"/>
<polygon fill="black" stroke="black" points="876.78,-486.091 869.936,-478.003 870.243,-488.594 876.78,-486.091"/>
<text text-anchor="middle" x="908.6" y="-502.3" font-family="Times,serif" font-size="14.00">index</text>
</g>
<!-- p50&#45;&gt;p53 -->
<g id="edge60" class="edge"><title>p50&#45;&gt;p53</title>
<path fill="none" stroke="black" d="M944.844,-532.006C948.569,-526.425 952.495,-520.089 955.6,-514 959.646,-506.065 963.186,-496.674 965.694,-489.339"/>
<polygon fill="black" stroke="black" points="969.038,-490.372 968.779,-479.78 962.376,-488.222 969.038,-490.372"/>
</g>
<!-- p49 -->
<g id="node53" class="node"><title>p49</title>
<ellipse fill="black" stroke="black" cx="928.6" cy="-624" rx="3.6" ry="3.6"/>
</g>
<!-- p49&#45;&gt;p50 -->
<g id="edge57" class="edge"><title>p49&#45;&gt;p50</title>
<path fill="none" stroke="black" d="M928.619,-620.305C928.673,-614.197 928.877,-598.832 929.6,-586 929.744,-583.443 929.922,-580.782 930.118,-578.122"/>
<polygon fill="black" stroke="black" points="933.613,-578.327 930.935,-568.076 926.636,-577.759 933.613,-578.327"/>
<text text-anchor="middle" x="948.1" y="-590.3" font-family="Times,serif" font-size="14.00">meta</text>
</g>
<!-- p58 -->
<g id="node57" class="node"><title>p58</title>
<ellipse fill="none" stroke="black" cx="882.6" cy="-342" rx="309.059" ry="18"/>
<text text-anchor="middle" x="882.6" y="-338.3" font-family="Times,serif" font-size="14.00">FAST_ANNOT_01:BCFTOOLS_CONCAT_01:MERGE_VERSION</text>
</g>
<!-- p54&#45;&gt;p58 -->
<g id="edge62" class="edge"><title>p54&#45;&gt;p58</title>
<path fill="none" stroke="black" d="M886.448,-412.265C886.064,-405.354 885.021,-386.578 884.118,-370.316"/>
<polygon fill="black" stroke="black" points="887.602,-369.933 883.552,-360.143 880.613,-370.322 887.602,-369.933"/>
</g>
<!-- p58&#45;&gt;p59 -->
<g id="edge66" class="edge"><title>p58&#45;&gt;p59</title>
<path fill="none" stroke="black" d="M806.519,-324.535C743.681,-310.936 659.803,-292.783 627.78,-285.852"/>
<polygon fill="black" stroke="black" points="628.202,-282.363 617.688,-283.668 626.721,-289.204 628.202,-282.363"/>
</g>
<!-- p55 -->
<g id="node58" class="node"><title>p55</title>
<ellipse fill="black" stroke="black" cx="915.6" cy="-416" rx="3.6" ry="3.6"/>
</g>
<!-- p55&#45;&gt;p58 -->
<g id="edge63" class="edge"><title>p55&#45;&gt;p58</title>
<path fill="none" stroke="black" d="M914.347,-412.265C911.119,-405.222 902.244,-385.859 894.695,-369.39"/>
<polygon fill="black" stroke="black" points="897.805,-367.775 890.457,-360.143 891.442,-370.692 897.805,-367.775"/>
<text text-anchor="middle" x="925.1" y="-382.3" font-family="Times,serif" font-size="14.00">meta</text>
</g>
<!-- p56 -->
<g id="node59" class="node"><title>p56</title>
<ellipse fill="black" stroke="black" cx="975.6" cy="-416" rx="3.6" ry="3.6"/>
</g>
<!-- p56&#45;&gt;p58 -->
<g id="edge64" class="edge"><title>p56&#45;&gt;p58</title>
<path fill="none" stroke="black" d="M974.148,-412.364C970.45,-405.839 960.079,-388.693 947.6,-378 942.046,-373.241 935.739,-368.865 929.29,-364.937"/>
<polygon fill="black" stroke="black" points="930.88,-361.814 920.465,-359.865 927.391,-367.883 930.88,-361.814"/>
<text text-anchor="middle" x="982.6" y="-382.3" font-family="Times,serif" font-size="14.00">name</text>
</g>
<!-- p57 -->
<g id="node60" class="node"><title>p57</title>
<ellipse fill="black" stroke="black" cx="785.6" cy="-416" rx="3.6" ry="3.6"/>
</g>
<!-- p57&#45;&gt;p58 -->
<g id="edge65" class="edge"><title>p57&#45;&gt;p58</title>
<path fill="none" stroke="black" d="M785.811,-412.29C786.47,-405.597 789.062,-388.097 798.6,-378 803.411,-372.907 809.075,-368.529 815.154,-364.77"/>
<polygon fill="black" stroke="black" points="817.256,-367.606 824.303,-359.695 813.861,-361.484 817.256,-367.606"/>
<text text-anchor="middle" x="839.6" y="-382.3" font-family="Times,serif" font-size="14.00">description</text>
</g>
<!-- p64 -->
<g id="node62" class="node"><title>p64</title>
<ellipse fill="none" stroke="black" cx="677.6" cy="-148" rx="186.3" ry="18"/>
<text text-anchor="middle" x="677.6" y="-144.3" font-family="Times,serif" font-size="14.00">FAST_ANNOT_01:MERGE_VERSION</text>
</g>
<!-- p60&#45;&gt;p64 -->
<g id="edge68" class="edge"><title>p60&#45;&gt;p64</title>
<path fill="none" stroke="black" d="M616.26,-218.574C620.435,-212.529 631.806,-196.392 642.6,-184 645.667,-180.479 649.01,-176.875 652.372,-173.383"/>
<polygon fill="black" stroke="black" points="655.133,-175.568 659.665,-165.991 650.15,-170.651 655.133,-175.568"/>
</g>
<!-- p66 -->
<g id="node66" class="node"><title>p66</title>
<ellipse fill="none" stroke="black" cx="825.6" cy="-60" rx="111.186" ry="18"/>
<text text-anchor="middle" x="825.6" y="-56.3" font-family="Times,serif" font-size="14.00">VERSION_TO_HTML</text>
</g>
<!-- p64&#45;&gt;p66 -->
<g id="edge72" class="edge"><title>p64&#45;&gt;p66</title>
<path fill="none" stroke="black" d="M706.487,-130.214C729.863,-116.631 762.95,-97.4047 788.322,-82.6615"/>
<polygon fill="black" stroke="black" points="790.401,-85.5017 797.288,-77.4513 786.884,-79.4494 790.401,-85.5017"/>
</g>
<!-- p61 -->
<g id="node63" class="node"><title>p61</title>
<ellipse fill="black" stroke="black" cx="647.6" cy="-222" rx="3.6" ry="3.6"/>
</g>
<!-- p61&#45;&gt;p64 -->
<g id="edge69" class="edge"><title>p61&#45;&gt;p64</title>
<path fill="none" stroke="black" d="M647.074,-218.19C646.012,-211.846 644.079,-196.03 648.6,-184 649.86,-180.648 651.584,-177.385 653.568,-174.284"/>
<polygon fill="black" stroke="black" points="656.538,-176.156 659.681,-166.038 650.914,-171.987 656.538,-176.156"/>
<text text-anchor="middle" x="667.1" y="-188.3" font-family="Times,serif" font-size="14.00">meta</text>
</g>
<!-- p62 -->
<g id="node64" class="node"><title>p62</title>
<ellipse fill="black" stroke="black" cx="707.6" cy="-222" rx="3.6" ry="3.6"/>
</g>
<!-- p62&#45;&gt;p64 -->
<g id="edge70" class="edge"><title>p62&#45;&gt;p64</title>
<path fill="none" stroke="black" d="M706.461,-218.265C703.526,-211.222 695.458,-191.859 688.596,-175.39"/>
<polygon fill="black" stroke="black" points="691.82,-174.027 684.743,-166.143 685.358,-176.72 691.82,-174.027"/>
<text text-anchor="middle" x="719.6" y="-188.3" font-family="Times,serif" font-size="14.00">name</text>
</g>
<!-- p63 -->
<g id="node65" class="node"><title>p63</title>
<ellipse fill="black" stroke="black" cx="770.6" cy="-222" rx="3.6" ry="3.6"/>
</g>
<!-- p63&#45;&gt;p64 -->
<g id="edge71" class="edge"><title>p63&#45;&gt;p64</title>
<path fill="none" stroke="black" d="M769.228,-218.355C765.726,-211.811 755.86,-194.623 743.6,-184 738.007,-179.153 731.628,-174.729 725.091,-170.778"/>
<polygon fill="black" stroke="black" points="726.563,-167.589 716.139,-165.69 723.104,-173.674 726.563,-167.589"/>
<text text-anchor="middle" x="799.6" y="-188.3" font-family="Times,serif" font-size="14.00">description</text>
</g>
<!-- p67 -->
<g id="node68" class="node"><title>p67</title>
<ellipse fill="black" stroke="black" cx="825.6" cy="-2" rx="1.8" ry="1.8"/>
</g>
<!-- p66&#45;&gt;p67 -->
<g id="edge74" class="edge"><title>p66&#45;&gt;p67</title>
<path fill="none" stroke="black" d="M825.6,-41.8939C825.6,-32.8876 825.6,-22.0999 825.6,-14.1727"/>
<polygon fill="black" stroke="black" points="829.1,-13.9957 825.6,-3.99575 822.1,-13.9958 829.1,-13.9957"/>
</g>
<!-- p65 -->
<g id="node67" class="node"><title>p65</title>
<ellipse fill="black" stroke="black" cx="885.6" cy="-148" rx="3.6" ry="3.6"/>
</g>
<!-- p65&#45;&gt;p66 -->
<g id="edge73" class="edge"><title>p65&#45;&gt;p66</title>
<path fill="none" stroke="black" d="M883.869,-144.519C877.992,-136.095 858.343,-107.931 843.473,-86.6176"/>
<polygon fill="black" stroke="black" points="846.24,-84.4663 837.647,-78.2676 840.499,-88.4716 846.24,-84.4663"/>
<text text-anchor="middle" x="880.1" y="-100.3" font-family="Times,serif" font-size="14.00">meta</text>
</g>
</g>
</svg>
