<?xml version="1.0" encoding="UTF-8" standalone="no"?>
<!DOCTYPE svg PUBLIC "-//W3C//DTD SVG 1.1//EN"
 "http://www.w3.org/Graphics/SVG/1.1/DTD/svg11.dtd">
<!-- Generated by graphviz version 2.30.1 (20201013.1554)
 -->
<!-- Title: 20220712rotaviruscnvworkflow Pages: 1 -->
<svg width="1014pt" height="1060pt"
 viewBox="0.00 0.00 1014.40 1060.00" xmlns="http://www.w3.org/2000/svg" xmlns:xlink="http://www.w3.org/1999/xlink">
<g id="graph0" class="graph" transform="scale(1 1) rotate(0) translate(4 1056)">
<title>20220712rotaviruscnvworkflow</title>
<polygon fill="white" stroke="white" points="-4,5 -4,-1056 1011.4,-1056 1011.4,5 -4,5"/>
<!-- p0 -->
<g id="node1" class="node"><title>p0</title>
<ellipse fill="black" stroke="black" cx="901" cy="-974" rx="3.6" ry="3.6"/>
<text text-anchor="middle" x="951.9" y="-981.4" font-family="Times,serif" font-size="14.00">Channel.empty</text>
</g>
<!-- p5 -->
<g id="node2" class="node"><title>p5</title>
<ellipse fill="none" stroke="black" cx="777" cy="-886" rx="3.25" ry="3.5"/>
<text text-anchor="middle" x="787" y="-893.3" font-family="Times,serif" font-size="14.00">mix</text>
</g>
<!-- p0&#45;&gt;p5 -->
<g id="edge1" class="edge"><title>p0&#45;&gt;p5</title>
<path fill="none" stroke="black" d="M899.403,-970.345C897.171,-966.782 892.842,-960.395 888,-956 855.962,-926.919 810.066,-902.878 788.732,-892.503"/>
<polygon fill="black" stroke="black" points="790.187,-889.32 779.651,-888.201 787.19,-895.645 790.187,-889.32"/>
<text text-anchor="middle" x="901" y="-926.3" font-family="Times,serif" font-size="14.00">version_ch</text>
</g>
<!-- p8 -->
<g id="node8" class="node"><title>p8</title>
<ellipse fill="none" stroke="black" cx="602" cy="-798" rx="3.25" ry="3.5"/>
<text text-anchor="middle" x="612" y="-805.3" font-family="Times,serif" font-size="14.00">mix</text>
</g>
<!-- p5&#45;&gt;p8 -->
<g id="edge7" class="edge"><title>p5&#45;&gt;p8</title>
<path fill="none" stroke="black" d="M775.775,-882.717C773.753,-879.141 769.399,-872.193 764,-868 715.627,-830.434 643.745,-809.405 614.779,-802.038"/>
<polygon fill="black" stroke="black" points="615.498,-798.611 604.955,-799.656 613.849,-805.414 615.498,-798.611"/>
<text text-anchor="middle" x="775" y="-838.3" font-family="Times,serif" font-size="14.00">version_ch</text>
</g>
<!-- p1 -->
<g id="node3" class="node"><title>p1</title>
<ellipse fill="black" stroke="black" cx="593" cy="-1048" rx="3.6" ry="3.6"/>
</g>
<!-- p4 -->
<g id="node4" class="node"><title>p4</title>
<ellipse fill="none" stroke="black" cx="653" cy="-974" rx="226.27" ry="18"/>
<text text-anchor="middle" x="653" y="-970.3" font-family="Times,serif" font-size="14.00">CNV_PLOTTER_01:SAMTOOLS_SAMPLES01</text>
</g>
<!-- p1&#45;&gt;p4 -->
<g id="edge2" class="edge"><title>p1&#45;&gt;p4</title>
<path fill="none" stroke="black" d="M593.902,-1044.47C596.222,-1038.19 602.86,-1021.55 612,-1010 615.034,-1006.16 618.537,-1002.44 622.192,-998.933"/>
<polygon fill="black" stroke="black" points="624.707,-1001.38 629.805,-992.091 620.028,-996.172 624.707,-1001.38"/>
<text text-anchor="middle" x="630.5" y="-1014.3" font-family="Times,serif" font-size="14.00">meta</text>
</g>
<!-- p14 -->
<g id="node7" class="node"><title>p14</title>
<ellipse fill="none" stroke="black" cx="316" cy="-678" rx="3.25" ry="3.5"/>
<text text-anchor="middle" x="282" y="-685.3" font-family="Times,serif" font-size="14.00">combine</text>
</g>
<!-- p4&#45;&gt;p14 -->
<g id="edge5" class="edge"><title>p4&#45;&gt;p14</title>
<path fill="none" stroke="black" d="M504.103,-960.432C362.838,-946.435 172,-921.198 172,-887 172,-887 172,-887 172,-723 172,-695.877 266.62,-683.814 302.461,-680.218"/>
<polygon fill="black" stroke="black" points="303.089,-683.675 312.722,-679.264 302.441,-676.705 303.089,-683.675"/>
</g>
<!-- p4&#45;&gt;p5 -->
<g id="edge6" class="edge"><title>p4&#45;&gt;p5</title>
<path fill="none" stroke="black" d="M686.98,-956.085C710.15,-943.586 740.73,-925.122 764,-904 765.967,-902.215 767.849,-900.1 769.541,-897.98"/>
<polygon fill="black" stroke="black" points="772.507,-899.847 775.403,-889.655 766.784,-895.816 772.507,-899.847"/>
</g>
<!-- p2 -->
<g id="node5" class="node"><title>p2</title>
<ellipse fill="black" stroke="black" cx="653" cy="-1048" rx="3.6" ry="3.6"/>
</g>
<!-- p2&#45;&gt;p4 -->
<g id="edge3" class="edge"><title>p2&#45;&gt;p4</title>
<path fill="none" stroke="black" d="M653,-1044.27C653,-1037.35 653,-1018.58 653,-1002.32"/>
<polygon fill="black" stroke="black" points="656.5,-1002.14 653,-992.143 649.5,-1002.14 656.5,-1002.14"/>
<text text-anchor="middle" x="688" y="-1014.3" font-family="Times,serif" font-size="14.00">reference</text>
</g>
<!-- p3 -->
<g id="node6" class="node"><title>p3</title>
<ellipse fill="black" stroke="black" cx="746" cy="-1048" rx="3.6" ry="3.6"/>
</g>
<!-- p3&#45;&gt;p4 -->
<g id="edge4" class="edge"><title>p3&#45;&gt;p4</title>
<path fill="none" stroke="black" d="M745.031,-1044.32C742.518,-1037.7 735.195,-1020.35 724,-1010 718.589,-1005 712.329,-1000.55 705.814,-996.657"/>
<polygon fill="black" stroke="black" points="707.27,-993.463 696.827,-991.678 703.878,-999.586 707.27,-993.463"/>
<text text-anchor="middle" x="755.5" y="-1014.3" font-family="Times,serif" font-size="14.00">bams</text>
</g>
<!-- p15 -->
<g id="node17" class="node"><title>p15</title>
<ellipse fill="none" stroke="black" cx="316" cy="-628" rx="3.25" ry="3.5"/>
<text text-anchor="middle" x="297" y="-635.3" font-family="Times,serif" font-size="14.00">map</text>
</g>
<!-- p14&#45;&gt;p15 -->
<g id="edge18" class="edge"><title>p14&#45;&gt;p15</title>
<path fill="none" stroke="black" d="M316,-674.419C316,-668.42 316,-653.198 316,-642.022"/>
<polygon fill="black" stroke="black" points="319.5,-641.832 316,-631.832 312.5,-641.832 319.5,-641.832"/>
</g>
<!-- p12 -->
<g id="node12" class="node"><title>p12</title>
<ellipse fill="none" stroke="black" cx="410" cy="-724" rx="3.25" ry="3.5"/>
<text text-anchor="middle" x="393" y="-731.3" font-family="Times,serif" font-size="14.00">mix</text>
</g>
<!-- p8&#45;&gt;p12 -->
<g id="edge11" class="edge"><title>p8&#45;&gt;p12</title>
<path fill="none" stroke="black" d="M600.825,-794.649C598.872,-790.979 594.611,-783.905 589,-780 535.059,-742.458 454.694,-729.911 423.269,-726.294"/>
<polygon fill="black" stroke="black" points="423.571,-722.806 413.265,-725.265 422.854,-729.77 423.571,-722.806"/>
<text text-anchor="middle" x="593" y="-750.3" font-family="Times,serif" font-size="14.00">version_ch</text>
</g>
<!-- p6 -->
<g id="node9" class="node"><title>p6</title>
<ellipse fill="black" stroke="black" cx="405" cy="-974" rx="3.6" ry="3.6"/>
</g>
<!-- p7 -->
<g id="node10" class="node"><title>p7</title>
<ellipse fill="none" stroke="black" cx="534" cy="-886" rx="221.445" ry="18"/>
<text text-anchor="middle" x="534" y="-882.3" font-family="Times,serif" font-size="14.00">CNV_PLOTTER_01:COMPILE_VCF_PARSER</text>
</g>
<!-- p6&#45;&gt;p7 -->
<g id="edge8" class="edge"><title>p6&#45;&gt;p7</title>
<path fill="none" stroke="black" d="M406.584,-970.331C408.803,-966.752 413.115,-960.348 418,-956 439.153,-937.173 466.185,-920.745 488.832,-908.646"/>
<polygon fill="black" stroke="black" points="490.675,-911.632 497.916,-903.897 487.432,-905.428 490.675,-911.632"/>
<text text-anchor="middle" x="481.5" y="-926.3" font-family="Times,serif" font-size="14.00">meta</text>
</g>
<!-- p11 -->
<g id="node11" class="node"><title>p11</title>
<ellipse fill="none" stroke="black" cx="390" cy="-798" rx="190.15" ry="18"/>
<text text-anchor="middle" x="390" y="-794.3" font-family="Times,serif" font-size="14.00">CNV_PLOTTER_01:SPLIT_VARIANTS</text>
</g>
<!-- p7&#45;&gt;p11 -->
<g id="edge9" class="edge"><title>p7&#45;&gt;p11</title>
<path fill="none" stroke="black" d="M505.55,-868.009C483.066,-854.581 451.506,-835.733 427.05,-821.127"/>
<polygon fill="black" stroke="black" points="428.771,-818.078 418.391,-815.956 425.182,-824.088 428.771,-818.078"/>
</g>
<!-- p7&#45;&gt;p8 -->
<g id="edge10" class="edge"><title>p7&#45;&gt;p8</title>
<path fill="none" stroke="black" d="M547.885,-867.779C559.064,-853.866 575.141,-833.75 589,-816 590.635,-813.906 592.371,-811.656 594.023,-809.5"/>
<polygon fill="black" stroke="black" points="596.892,-811.51 600.164,-801.433 591.322,-807.27 596.892,-811.51"/>
</g>
<!-- p13 -->
<g id="node15" class="node"><title>p13</title>
<ellipse fill="none" stroke="black" cx="369" cy="-724" rx="3.25" ry="3.5"/>
<text text-anchor="middle" x="336" y="-731.3" font-family="Times,serif" font-size="14.00">splitCsv</text>
</g>
<!-- p11&#45;&gt;p13 -->
<g id="edge14" class="edge"><title>p11&#45;&gt;p13</title>
<path fill="none" stroke="black" d="M385.023,-779.937C381.206,-766.851 376.028,-749.098 372.604,-737.358"/>
<polygon fill="black" stroke="black" points="375.962,-736.368 369.802,-727.748 369.242,-738.328 375.962,-736.368"/>
</g>
<!-- p11&#45;&gt;p12 -->
<g id="edge15" class="edge"><title>p11&#45;&gt;p12</title>
<path fill="none" stroke="black" d="M394.74,-779.937C398.337,-766.989 403.203,-749.471 406.464,-737.731"/>
<polygon fill="black" stroke="black" points="409.932,-738.32 409.237,-727.748 403.188,-736.447 409.932,-738.32"/>
</g>
<!-- p19 -->
<g id="node16" class="node"><title>p19</title>
<ellipse fill="none" stroke="black" cx="402" cy="-490" rx="3.25" ry="3.5"/>
<text text-anchor="middle" x="385" y="-497.3" font-family="Times,serif" font-size="14.00">mix</text>
</g>
<!-- p12&#45;&gt;p19 -->
<g id="edge16" class="edge"><title>p12&#45;&gt;p19</title>
<path fill="none" stroke="black" d="M410,-720.22C410,-713.271 410,-694.583 410,-679 410,-679 410,-679 410,-549 410,-533.175 407.041,-515.146 404.722,-503.448"/>
<polygon fill="black" stroke="black" points="408.14,-502.69 402.628,-493.641 401.294,-504.152 408.14,-502.69"/>
<text text-anchor="middle" x="449" y="-624.3" font-family="Times,serif" font-size="14.00">version_ch</text>
</g>
<!-- p9 -->
<g id="node13" class="node"><title>p9</title>
<ellipse fill="black" stroke="black" cx="249" cy="-886" rx="3.6" ry="3.6"/>
</g>
<!-- p9&#45;&gt;p11 -->
<g id="edge12" class="edge"><title>p9&#45;&gt;p11</title>
<path fill="none" stroke="black" d="M250.018,-882.205C253.274,-873.657 264.269,-847.618 282,-834 289.972,-827.877 299.054,-822.805 308.488,-818.607"/>
<polygon fill="black" stroke="black" points="310.09,-821.733 318.01,-814.695 307.43,-815.258 310.09,-821.733"/>
<text text-anchor="middle" x="300.5" y="-838.3" font-family="Times,serif" font-size="14.00">meta</text>
</g>
<!-- p10 -->
<g id="node14" class="node"><title>p10</title>
<ellipse fill="black" stroke="black" cx="291" cy="-886" rx="3.6" ry="3.6"/>
</g>
<!-- p10&#45;&gt;p11 -->
<g id="edge13" class="edge"><title>p10&#45;&gt;p11</title>
<path fill="none" stroke="black" d="M292.503,-882.411C294.598,-878.922 298.631,-872.62 303,-868 319.017,-851.063 339.313,-834.731 356.273,-822.212"/>
<polygon fill="black" stroke="black" points="358.757,-824.734 364.798,-816.03 354.648,-819.067 358.757,-824.734"/>
<text text-anchor="middle" x="351" y="-838.3" font-family="Times,serif" font-size="14.00">vcf</text>
</g>
<!-- p13&#45;&gt;p14 -->
<g id="edge17" class="edge"><title>p13&#45;&gt;p14</title>
<path fill="none" stroke="black" d="M366.723,-721.109C359.844,-715.398 338.971,-698.07 326.245,-687.506"/>
<polygon fill="black" stroke="black" points="328.14,-684.529 318.21,-680.835 323.668,-689.915 328.14,-684.529"/>
</g>
<!-- p23 -->
<g id="node22" class="node"><title>p23</title>
<ellipse fill="none" stroke="black" cx="402" cy="-356" rx="3.25" ry="3.5"/>
<text text-anchor="middle" x="385" y="-363.3" font-family="Times,serif" font-size="14.00">mix</text>
</g>
<!-- p19&#45;&gt;p23 -->
<g id="edge24" class="edge"><title>p19&#45;&gt;p23</title>
<path fill="none" stroke="black" d="M402,-486.243C402,-471.279 402,-399.397 402,-369.788"/>
<polygon fill="black" stroke="black" points="405.5,-369.742 402,-359.742 398.5,-369.742 405.5,-369.742"/>
<text text-anchor="middle" x="441" y="-412.3" font-family="Times,serif" font-size="14.00">version_ch</text>
</g>
<!-- p18 -->
<g id="node18" class="node"><title>p18</title>
<ellipse fill="none" stroke="black" cx="223" cy="-550" rx="158.379" ry="18"/>
<text text-anchor="middle" x="223" y="-546.3" font-family="Times,serif" font-size="14.00">CNV_PLOTTER_01:PLOT_CNV</text>
</g>
<!-- p15&#45;&gt;p18 -->
<g id="edge19" class="edge"><title>p15&#45;&gt;p18</title>
<path fill="none" stroke="black" d="M315.244,-624.448C313.055,-617.444 306.084,-597.674 294,-586 288.7,-580.88 282.505,-576.369 276.022,-572.436"/>
<polygon fill="black" stroke="black" points="277.498,-569.252 267.061,-567.43 274.084,-575.363 277.498,-569.252"/>
<text text-anchor="middle" x="332" y="-590.3" font-family="Times,serif" font-size="14.00">ch2_ch</text>
</g>
<!-- p20 -->
<g id="node21" class="node"><title>p20</title>
<ellipse fill="none" stroke="black" cx="223" cy="-490" rx="3.25" ry="3.5"/>
<text text-anchor="middle" x="195" y="-497.3" font-family="Times,serif" font-size="14.00">collect</text>
</g>
<!-- p18&#45;&gt;p20 -->
<g id="edge22" class="edge"><title>p18&#45;&gt;p20</title>
<path fill="none" stroke="black" d="M223,-531.912C223,-522.965 223,-512.187 223,-503.94"/>
<polygon fill="black" stroke="black" points="226.5,-503.691 223,-493.691 219.5,-503.691 226.5,-503.691"/>
</g>
<!-- p18&#45;&gt;p19 -->
<g id="edge23" class="edge"><title>p18&#45;&gt;p19</title>
<path fill="none" stroke="black" d="M272.861,-532.844C312.679,-519.942 365.613,-502.79 389.439,-495.07"/>
<polygon fill="black" stroke="black" points="390.587,-498.377 399.022,-491.965 388.43,-491.718 390.587,-498.377"/>
</g>
<!-- p16 -->
<g id="node19" class="node"><title>p16</title>
<ellipse fill="black" stroke="black" cx="163" cy="-628" rx="3.6" ry="3.6"/>
</g>
<!-- p16&#45;&gt;p18 -->
<g id="edge20" class="edge"><title>p16&#45;&gt;p18</title>
<path fill="none" stroke="black" d="M163.836,-624.19C166.005,-617.215 172.326,-598.75 182,-586 184.956,-582.104 188.413,-578.341 192.044,-574.818"/>
<polygon fill="black" stroke="black" points="194.561,-577.26 199.635,-567.959 189.869,-572.066 194.561,-577.26"/>
<text text-anchor="middle" x="200.5" y="-590.3" font-family="Times,serif" font-size="14.00">meta</text>
</g>
<!-- p17 -->
<g id="node20" class="node"><title>p17</title>
<ellipse fill="black" stroke="black" cx="223" cy="-628" rx="3.6" ry="3.6"/>
</g>
<!-- p17&#45;&gt;p18 -->
<g id="edge21" class="edge"><title>p17&#45;&gt;p18</title>
<path fill="none" stroke="black" d="M223,-624.114C223,-616.614 223,-595.88 223,-578.399"/>
<polygon fill="black" stroke="black" points="226.5,-578.082 223,-568.083 219.5,-578.083 226.5,-578.082"/>
<text text-anchor="middle" x="258" y="-590.3" font-family="Times,serif" font-size="14.00">reference</text>
</g>
<!-- p22 -->
<g id="node23" class="node"><title>p22</title>
<ellipse fill="none" stroke="black" cx="179" cy="-416" rx="179.076" ry="18"/>
<text text-anchor="middle" x="179" y="-412.3" font-family="Times,serif" font-size="14.00">CNV_PLOTTER_01:MERGE_PLOTS</text>
</g>
<!-- p20&#45;&gt;p22 -->
<g id="edge25" class="edge"><title>p20&#45;&gt;p22</title>
<path fill="none" stroke="black" d="M222.386,-486.532C220.793,-480.391 216.145,-464.052 209,-452 207.049,-448.709 204.78,-445.426 202.38,-442.263"/>
<polygon fill="black" stroke="black" points="204.88,-439.79 195.85,-434.249 199.453,-444.212 204.88,-439.79"/>
</g>
<!-- p24 -->
<g id="node26" class="node"><title>p24</title>
<ellipse fill="none" stroke="black" cx="444" cy="-296" rx="3.25" ry="3.5"/>
<text text-anchor="middle" x="416" y="-303.3" font-family="Times,serif" font-size="14.00">collect</text>
</g>
<!-- p23&#45;&gt;p24 -->
<g id="edge29" class="edge"><title>p23&#45;&gt;p24</title>
<path fill="none" stroke="black" d="M403.805,-352.508C409.36,-344.836 426.432,-321.26 436.451,-307.425"/>
<polygon fill="black" stroke="black" points="439.4,-309.32 442.43,-299.168 433.73,-305.214 439.4,-309.32"/>
<text text-anchor="middle" x="467" y="-322.3" font-family="Times,serif" font-size="14.00">version_ch</text>
</g>
<!-- p31 -->
<g id="node25" class="node"><title>p31</title>
<ellipse fill="none" stroke="black" cx="285" cy="-60" rx="56.3173" ry="18"/>
<text text-anchor="middle" x="285" y="-56.3" font-family="Times,serif" font-size="14.00">PUBLISH</text>
</g>
<!-- p22&#45;&gt;p31 -->
<g id="edge27" class="edge"><title>p22&#45;&gt;p31</title>
<path fill="none" stroke="black" d="M171.197,-397.871C166.728,-386.52 162,-371.166 162,-357 162,-357 162,-357 162,-133 162,-100.149 195.082,-82.0067 226.933,-72.1526"/>
<polygon fill="black" stroke="black" points="228.085,-75.4637 236.74,-69.3534 226.164,-68.7325 228.085,-75.4637"/>
<text text-anchor="middle" x="173" y="-262.3" font-family="Times,serif" font-size="14.00">zip</text>
</g>
<!-- p22&#45;&gt;p23 -->
<g id="edge28" class="edge"><title>p22&#45;&gt;p23</title>
<path fill="none" stroke="black" d="M240.231,-399.075C291.665,-385.697 361.15,-367.625 389.337,-360.294"/>
<polygon fill="black" stroke="black" points="390.371,-363.641 399.168,-357.736 388.609,-356.866 390.371,-363.641"/>
</g>
<!-- p21 -->
<g id="node24" class="node"><title>p21</title>
<ellipse fill="black" stroke="black" cx="171" cy="-490" rx="3.6" ry="3.6"/>
</g>
<!-- p21&#45;&gt;p22 -->
<g id="edge26" class="edge"><title>p21&#45;&gt;p22</title>
<path fill="none" stroke="black" d="M170.916,-486.296C170.76,-480.17 170.561,-464.771 172,-452 172.291,-449.414 172.676,-446.734 173.114,-444.061"/>
<polygon fill="black" stroke="black" points="176.598,-444.471 174.995,-433.998 169.717,-443.185 176.598,-444.471"/>
<text text-anchor="middle" x="190.5" y="-456.3" font-family="Times,serif" font-size="14.00">meta</text>
</g>
<!-- p34 -->
<g id="node33" class="node"><title>p34</title>
<ellipse fill="black" stroke="black" cx="260" cy="-2" rx="1.8" ry="1.8"/>
</g>
<!-- p31&#45;&gt;p34 -->
<g id="edge38" class="edge"><title>p31&#45;&gt;p34</title>
<path fill="none" stroke="black" d="M277.363,-41.8939C273.192,-32.5499 268.164,-21.2883 264.595,-13.2932"/>
<polygon fill="black" stroke="black" points="267.717,-11.7003 260.445,-3.99575 261.325,-14.5539 267.717,-11.7003"/>
</g>
<!-- p33 -->
<g id="node34" class="node"><title>p33</title>
<ellipse fill="black" stroke="black" cx="285" cy="-2" rx="1.8" ry="1.8"/>
</g>
<!-- p31&#45;&gt;p33 -->
<g id="edge39" class="edge"><title>p31&#45;&gt;p33</title>
<path fill="none" stroke="black" d="M285,-41.8939C285,-32.8876 285,-22.0999 285,-14.1727"/>
<polygon fill="black" stroke="black" points="288.5,-13.9957 285,-3.99575 281.5,-13.9958 288.5,-13.9957"/>
</g>
<!-- p32 -->
<g id="node35" class="node"><title>p32</title>
<ellipse fill="black" stroke="black" cx="310" cy="-2" rx="1.8" ry="1.8"/>
</g>
<!-- p31&#45;&gt;p32 -->
<g id="edge40" class="edge"><title>p31&#45;&gt;p32</title>
<path fill="none" stroke="black" d="M292.637,-41.8939C296.808,-32.5499 301.836,-21.2883 305.405,-13.2932"/>
<polygon fill="black" stroke="black" points="308.675,-14.5539 309.555,-3.99575 302.283,-11.7003 308.675,-14.5539"/>
</g>
<!-- p28 -->
<g id="node27" class="node"><title>p28</title>
<ellipse fill="none" stroke="black" cx="383" cy="-222" rx="193.049" ry="18"/>
<text text-anchor="middle" x="383" y="-218.3" font-family="Times,serif" font-size="14.00">CNV_PLOTTER_01:MERGE_VERSION</text>
</g>
<!-- p24&#45;&gt;p28 -->
<g id="edge30" class="edge"><title>p24&#45;&gt;p28</title>
<path fill="none" stroke="black" d="M446.69,-293.466C451.631,-290.473 462.012,-283.32 466,-274 468.797,-267.462 469.932,-263.925 466,-258 462.621,-252.908 458.339,-248.555 453.51,-244.834"/>
<polygon fill="black" stroke="black" points="455.197,-241.753 444.927,-239.15 451.332,-247.589 455.197,-241.753"/>
</g>
<!-- p30 -->
<g id="node31" class="node"><title>p30</title>
<ellipse fill="none" stroke="black" cx="468" cy="-134" rx="111.186" ry="18"/>
<text text-anchor="middle" x="468" y="-130.3" font-family="Times,serif" font-size="14.00">VERSION_TO_HTML</text>
</g>
<!-- p28&#45;&gt;p30 -->
<g id="edge34" class="edge"><title>p28&#45;&gt;p30</title>
<path fill="none" stroke="black" d="M399.793,-204.009C412.483,-191.17 430.07,-173.376 444.207,-159.072"/>
<polygon fill="black" stroke="black" points="446.701,-161.528 451.242,-151.956 441.723,-156.607 446.701,-161.528"/>
</g>
<!-- p28&#45;&gt;p31 -->
<g id="edge37" class="edge"><title>p28&#45;&gt;p31</title>
<path fill="none" stroke="black" d="M349.373,-204.014C329.757,-192.226 306.485,-174.587 294,-152 283.293,-132.629 281.579,-107.368 282.238,-88.3775"/>
<polygon fill="black" stroke="black" points="285.738,-88.4686 282.828,-78.2814 278.75,-88.0601 285.738,-88.4686"/>
<text text-anchor="middle" x="320.5" y="-130.3" font-family="Times,serif" font-size="14.00">version</text>
</g>
<!-- p25 -->
<g id="node28" class="node"><title>p25</title>
<ellipse fill="black" stroke="black" cx="260" cy="-296" rx="3.6" ry="3.6"/>
</g>
<!-- p25&#45;&gt;p28 -->
<g id="edge31" class="edge"><title>p25&#45;&gt;p28</title>
<path fill="none" stroke="black" d="M261.44,-292.257C265.124,-285.487 275.559,-267.826 289,-258 296.908,-252.219 305.879,-247.289 315.064,-243.115"/>
<polygon fill="black" stroke="black" points="316.458,-246.326 324.289,-239.189 313.717,-239.885 316.458,-246.326"/>
<text text-anchor="middle" x="307.5" y="-262.3" font-family="Times,serif" font-size="14.00">meta</text>
</g>
<!-- p26 -->
<g id="node29" class="node"><title>p26</title>
<ellipse fill="black" stroke="black" cx="320" cy="-296" rx="3.6" ry="3.6"/>
</g>
<!-- p26&#45;&gt;p28 -->
<g id="edge32" class="edge"><title>p26&#45;&gt;p28</title>
<path fill="none" stroke="black" d="M320.877,-292.451C323.141,-286.124 329.662,-269.393 339,-258 342.318,-253.952 346.177,-250.064 350.204,-246.447"/>
<polygon fill="black" stroke="black" points="352.65,-248.963 358.058,-239.853 348.149,-243.602 352.65,-248.963"/>
<text text-anchor="middle" x="359" y="-262.3" font-family="Times,serif" font-size="14.00">name</text>
</g>
<!-- p27 -->
<g id="node30" class="node"><title>p27</title>
<ellipse fill="black" stroke="black" cx="383" cy="-296" rx="3.6" ry="3.6"/>
</g>
<!-- p27&#45;&gt;p28 -->
<g id="edge33" class="edge"><title>p27&#45;&gt;p28</title>
<path fill="none" stroke="black" d="M383,-292.265C383,-285.354 383,-266.578 383,-250.316"/>
<polygon fill="black" stroke="black" points="386.5,-250.143 383,-240.143 379.5,-250.143 386.5,-250.143"/>
<text text-anchor="middle" x="424" y="-262.3" font-family="Times,serif" font-size="14.00">description</text>
</g>
<!-- p30&#45;&gt;p31 -->
<g id="edge36" class="edge"><title>p30&#45;&gt;p31</title>
<path fill="none" stroke="black" d="M427.84,-117.199C398.504,-105.657 358.758,-90.0196 328.64,-78.1699"/>
<polygon fill="black" stroke="black" points="329.813,-74.8701 319.225,-74.4658 327.25,-81.3841 329.813,-74.8701"/>
</g>
<!-- p29 -->
<g id="node32" class="node"><title>p29</title>
<ellipse fill="black" stroke="black" cx="598" cy="-222" rx="3.6" ry="3.6"/>
</g>
<!-- p29&#45;&gt;p30 -->
<g id="edge35" class="edge"><title>p29&#45;&gt;p30</title>
<path fill="none" stroke="black" d="M596.418,-218.328C594.203,-214.747 589.893,-208.338 585,-204 563.192,-184.664 535.171,-167.915 512.018,-155.763"/>
<polygon fill="black" stroke="black" points="513.576,-152.628 503.082,-151.171 510.377,-158.855 513.576,-152.628"/>
<text text-anchor="middle" x="580.5" y="-174.3" font-family="Times,serif" font-size="14.00">meta</text>
</g>
</g>
</svg>
