<?xml version="1.0" encoding="UTF-8" standalone="no"?>
<!DOCTYPE svg PUBLIC "-//W3C//DTD SVG 1.1//EN"
 "http://www.w3.org/Graphics/SVG/1.1/DTD/svg11.dtd">
<!-- Generated by graphviz version 2.30.1 (20201013.1554)
 -->
<!-- Title: 20220817hs37d5genmedcnvplotworkflow Pages: 1 -->
<svg width="1428pt" height="1084pt"
 viewBox="0.00 0.00 1428.00 1084.00" xmlns="http://www.w3.org/2000/svg" xmlns:xlink="http://www.w3.org/1999/xlink">
<g id="graph0" class="graph" transform="scale(1 1) rotate(0) translate(4 1080)">
<title>20220817hs37d5genmedcnvplotworkflow</title>
<polygon fill="white" stroke="white" points="-4,5 -4,-1080 1425,-1080 1425,5 -4,5"/>
<!-- p0 -->
<g id="node1" class="node"><title>p0</title>
<ellipse fill="black" stroke="black" cx="142" cy="-910" rx="3.6" ry="3.6"/>
<text text-anchor="middle" x="83.9" y="-917.4" font-family="Times,serif" font-size="14.00">Channel.empty</text>
</g>
<!-- p5 -->
<g id="node2" class="node"><title>p5</title>
<ellipse fill="none" stroke="black" cx="526" cy="-822" rx="3.25" ry="3.5"/>
<text text-anchor="middle" x="536" y="-829.3" font-family="Times,serif" font-size="14.00">mix</text>
</g>
<!-- p0&#45;&gt;p5 -->
<g id="edge1" class="edge"><title>p0&#45;&gt;p5</title>
<path fill="none" stroke="black" d="M142.059,-906.048C142.417,-897.047 144.845,-869.844 161,-858 224.167,-811.689 443.691,-876.482 513,-840 515.552,-838.657 517.752,-836.565 519.578,-834.302"/>
<polygon fill="black" stroke="black" points="522.714,-835.883 524.929,-825.522 516.736,-832.24 522.714,-835.883"/>
<text text-anchor="middle" x="200" y="-862.3" font-family="Times,serif" font-size="14.00">version_ch</text>
</g>
<!-- p10 -->
<g id="node8" class="node"><title>p10</title>
<ellipse fill="none" stroke="black" cx="290" cy="-734" rx="3.25" ry="3.5"/>
<text text-anchor="middle" x="273" y="-741.3" font-family="Times,serif" font-size="14.00">mix</text>
</g>
<!-- p5&#45;&gt;p10 -->
<g id="edge7" class="edge"><title>p5&#45;&gt;p10</title>
<path fill="none" stroke="black" d="M524.851,-818.611C522.933,-814.889 518.719,-807.745 513,-804 472.6,-777.543 341.887,-779.223 302,-752 299.77,-750.478 297.819,-748.395 296.174,-746.209"/>
<polygon fill="black" stroke="black" points="299.083,-744.251 291.011,-737.389 293.042,-747.787 299.083,-744.251"/>
<text text-anchor="middle" x="492" y="-774.3" font-family="Times,serif" font-size="14.00">version_ch</text>
</g>
<!-- p1 -->
<g id="node3" class="node"><title>p1</title>
<ellipse fill="black" stroke="black" cx="422" cy="-998" rx="3.6" ry="3.6"/>
</g>
<!-- p4 -->
<g id="node4" class="node"><title>p4</title>
<ellipse fill="none" stroke="black" cx="551" cy="-910" rx="226.27" ry="18"/>
<text text-anchor="middle" x="551" y="-906.3" font-family="Times,serif" font-size="14.00">CNV_PLOTTER_01:SAMTOOLS_SAMPLES01</text>
</g>
<!-- p1&#45;&gt;p4 -->
<g id="edge2" class="edge"><title>p1&#45;&gt;p4</title>
<path fill="none" stroke="black" d="M422.206,-994.223C422.984,-985.725 426.496,-959.816 441,-946 447.101,-940.188 454.166,-935.341 461.713,-931.299"/>
<polygon fill="black" stroke="black" points="463.291,-934.423 470.764,-926.914 460.239,-928.124 463.291,-934.423"/>
<text text-anchor="middle" x="459.5" y="-950.3" font-family="Times,serif" font-size="14.00">meta</text>
</g>
<!-- p24 -->
<g id="node7" class="node"><title>p24</title>
<ellipse fill="none" stroke="black" cx="784" cy="-734" rx="3.25" ry="3.5"/>
<text text-anchor="middle" x="811" y="-741.3" font-family="Times,serif" font-size="14.00">combine</text>
</g>
<!-- p4&#45;&gt;p24 -->
<g id="edge5" class="edge"><title>p4&#45;&gt;p24</title>
<path fill="none" stroke="black" d="M580.135,-892.114C624.322,-865.683 709.624,-811.381 771,-752 772.909,-750.153 774.766,-748.011 776.451,-745.884"/>
<polygon fill="black" stroke="black" points="779.396,-747.782 782.362,-737.611 773.701,-743.713 779.396,-747.782"/>
</g>
<!-- p4&#45;&gt;p5 -->
<g id="edge6" class="edge"><title>p4&#45;&gt;p5</title>
<path fill="none" stroke="black" d="M545.941,-891.597C541.081,-874.878 533.862,-850.044 529.573,-835.292"/>
<polygon fill="black" stroke="black" points="532.929,-834.297 526.776,-825.671 526.207,-836.251 532.929,-834.297"/>
</g>
<!-- p2 -->
<g id="node5" class="node"><title>p2</title>
<ellipse fill="black" stroke="black" cx="482" cy="-998" rx="3.6" ry="3.6"/>
</g>
<!-- p2&#45;&gt;p4 -->
<g id="edge3" class="edge"><title>p2&#45;&gt;p4</title>
<path fill="none" stroke="black" d="M481.471,-994.393C479.996,-986.384 476.6,-961.734 487,-946 490.099,-941.312 494.046,-937.197 498.455,-933.598"/>
<polygon fill="black" stroke="black" points="500.681,-936.31 506.805,-927.665 496.626,-930.604 500.681,-936.31"/>
<text text-anchor="middle" x="522" y="-950.3" font-family="Times,serif" font-size="14.00">reference</text>
</g>
<!-- p3 -->
<g id="node6" class="node"><title>p3</title>
<ellipse fill="black" stroke="black" cx="575" cy="-998" rx="3.6" ry="3.6"/>
</g>
<!-- p3&#45;&gt;p4 -->
<g id="edge4" class="edge"><title>p3&#45;&gt;p4</title>
<path fill="none" stroke="black" d="M574.201,-994.139C571.769,-985.422 564.262,-958.523 558.439,-937.657"/>
<polygon fill="black" stroke="black" points="561.804,-936.695 555.745,-928.004 555.062,-938.576 561.804,-936.695"/>
<text text-anchor="middle" x="585.5" y="-950.3" font-family="Times,serif" font-size="14.00">bams</text>
</g>
<!-- p25 -->
<g id="node28" class="node"><title>p25</title>
<ellipse fill="none" stroke="black" cx="758" cy="-656" rx="3.25" ry="3.5"/>
<text text-anchor="middle" x="739" y="-663.3" font-family="Times,serif" font-size="14.00">map</text>
</g>
<!-- p24&#45;&gt;p25 -->
<g id="edge30" class="edge"><title>p24&#45;&gt;p25</title>
<path fill="none" stroke="black" d="M783.135,-730.471C779.912,-721.051 768.467,-687.597 762.192,-669.254"/>
<polygon fill="black" stroke="black" points="765.443,-667.945 758.895,-659.616 758.82,-670.211 765.443,-667.945"/>
</g>
<!-- p15 -->
<g id="node14" class="node"><title>p15</title>
<ellipse fill="none" stroke="black" cx="455" cy="-656" rx="3.25" ry="3.5"/>
<text text-anchor="middle" x="438" y="-663.3" font-family="Times,serif" font-size="14.00">mix</text>
</g>
<!-- p10&#45;&gt;p15 -->
<g id="edge13" class="edge"><title>p10&#45;&gt;p15</title>
<path fill="none" stroke="black" d="M291.07,-730.692C292.852,-727.081 296.757,-720.086 302,-716 346.395,-681.396 413.48,-665.05 441.724,-659.401"/>
<polygon fill="black" stroke="black" points="442.558,-662.806 451.747,-657.531 441.274,-655.924 442.558,-662.806"/>
<text text-anchor="middle" x="400" y="-686.3" font-family="Times,serif" font-size="14.00">version_ch</text>
</g>
<!-- p6 -->
<g id="node9" class="node"><title>p6</title>
<ellipse fill="black" stroke="black" cx="243" cy="-910" rx="3.6" ry="3.6"/>
</g>
<!-- p8 -->
<g id="node10" class="node"><title>p8</title>
<ellipse fill="none" stroke="black" cx="252" cy="-822" rx="252.266" ry="18"/>
<text text-anchor="middle" x="252" y="-818.3" font-family="Times,serif" font-size="14.00">CNV_PLOTTER_01:DOWNLOAD_GNOMAD_SV_01</text>
</g>
<!-- p6&#45;&gt;p8 -->
<g id="edge8" class="edge"><title>p6&#45;&gt;p8</title>
<path fill="none" stroke="black" d="M242.856,-906.222C242.498,-898.524 241.755,-876.283 244,-858 244.312,-855.456 244.731,-852.826 245.213,-850.203"/>
<polygon fill="black" stroke="black" points="248.658,-850.83 247.301,-840.322 241.809,-849.382 248.658,-850.83"/>
<text text-anchor="middle" x="262.5" y="-862.3" font-family="Times,serif" font-size="14.00">meta</text>
</g>
<!-- p28 -->
<g id="node12" class="node"><title>p28</title>
<ellipse fill="none" stroke="black" cx="638" cy="-578" rx="158.379" ry="18"/>
<text text-anchor="middle" x="638" y="-574.3" font-family="Times,serif" font-size="14.00">CNV_PLOTTER_01:PLOT_CNV</text>
</g>
<!-- p8&#45;&gt;p28 -->
<g id="edge10" class="edge"><title>p8&#45;&gt;p28</title>
<path fill="none" stroke="black" d="M252.317,-803.818C253.514,-781.649 258.368,-742.757 277,-716 292.567,-693.644 304.072,-695.021 328,-682 394.792,-645.653 412.743,-637.69 485,-614 505.994,-607.117 529.038,-601.083 550.727,-596.051"/>
<polygon fill="black" stroke="black" points="551.609,-599.439 560.584,-593.81 550.057,-592.614 551.609,-599.439"/>
</g>
<!-- p9 -->
<g id="node13" class="node"><title>p9</title>
<ellipse fill="black" stroke="black" cx="313" cy="-734" rx="1.8" ry="1.8"/>
</g>
<!-- p8&#45;&gt;p9 -->
<g id="edge11" class="edge"><title>p8&#45;&gt;p9</title>
<path fill="none" stroke="black" d="M269.712,-803.961C274.946,-798.48 280.479,-792.213 285,-786 294.568,-772.85 303.176,-756.069 308.247,-745.425"/>
<polygon fill="black" stroke="black" points="311.429,-746.882 312.421,-736.334 305.068,-743.961 311.429,-746.882"/>
</g>
<!-- p8&#45;&gt;p10 -->
<g id="edge12" class="edge"><title>p8&#45;&gt;p10</title>
<path fill="none" stroke="black" d="M259.69,-803.597C267.145,-786.725 278.252,-761.588 284.747,-746.888"/>
<polygon fill="black" stroke="black" points="288.096,-747.968 288.937,-737.407 281.693,-745.139 288.096,-747.968"/>
</g>
<!-- p7 -->
<g id="node11" class="node"><title>p7</title>
<ellipse fill="black" stroke="black" cx="303" cy="-910" rx="3.6" ry="3.6"/>
</g>
<!-- p7&#45;&gt;p8 -->
<g id="edge9" class="edge"><title>p7&#45;&gt;p8</title>
<path fill="none" stroke="black" d="M302.075,-906.097C299.452,-898.082 291.477,-875.103 281,-858 278.926,-854.614 276.547,-851.208 274.064,-847.919"/>
<polygon fill="black" stroke="black" points="276.765,-845.692 267.787,-840.066 271.297,-850.063 276.765,-845.692"/>
<text text-anchor="middle" x="324" y="-862.3" font-family="Times,serif" font-size="14.00">reference</text>
</g>
<!-- p30 -->
<g id="node31" class="node"><title>p30</title>
<ellipse fill="none" stroke="black" cx="701" cy="-504" rx="3.25" ry="3.5"/>
<text text-anchor="middle" x="673" y="-511.3" font-family="Times,serif" font-size="14.00">collect</text>
</g>
<!-- p28&#45;&gt;p30 -->
<g id="edge34" class="edge"><title>p28&#45;&gt;p30</title>
<path fill="none" stroke="black" d="M652.93,-559.937C665.211,-545.902 682.188,-526.499 692.334,-514.904"/>
<polygon fill="black" stroke="black" points="695.046,-517.119 698.997,-507.289 689.778,-512.51 695.046,-517.119"/>
</g>
<!-- p29 -->
<g id="node27" class="node"><title>p29</title>
<ellipse fill="none" stroke="black" cx="779" cy="-430" rx="3.25" ry="3.5"/>
<text text-anchor="middle" x="762" y="-437.3" font-family="Times,serif" font-size="14.00">mix</text>
</g>
<!-- p28&#45;&gt;p29 -->
<g id="edge35" class="edge"><title>p28&#45;&gt;p29</title>
<path fill="none" stroke="black" d="M646.266,-559.962C651.458,-549.804 658.562,-536.821 666,-526 694.316,-484.803 745.08,-451.235 767.648,-437.586"/>
<polygon fill="black" stroke="black" points="769.576,-440.513 776.428,-432.433 766.032,-434.476 769.576,-440.513"/>
</g>
<!-- p18 -->
<g id="node19" class="node"><title>p18</title>
<ellipse fill="none" stroke="black" cx="818" cy="-578" rx="3.25" ry="3.5"/>
<text text-anchor="middle" x="828" y="-585.3" font-family="Times,serif" font-size="14.00">mix</text>
</g>
<!-- p15&#45;&gt;p18 -->
<g id="edge19" class="edge"><title>p15&#45;&gt;p18</title>
<path fill="none" stroke="black" d="M457.298,-652.96C465.341,-645.962 493.248,-622.877 521,-614 581.231,-594.734 749.222,-625.796 805,-596 807.544,-594.641 809.74,-592.543 811.566,-590.279"/>
<polygon fill="black" stroke="black" points="814.695,-591.871 816.924,-581.513 808.723,-588.22 814.695,-591.871"/>
<text text-anchor="middle" x="560" y="-618.3" font-family="Times,serif" font-size="14.00">version_ch</text>
</g>
<!-- p11 -->
<g id="node15" class="node"><title>p11</title>
<ellipse fill="black" stroke="black" cx="551" cy="-822" rx="3.6" ry="3.6"/>
</g>
<!-- p13 -->
<g id="node16" class="node"><title>p13</title>
<ellipse fill="none" stroke="black" cx="549" cy="-734" rx="213.272" ry="18"/>
<text text-anchor="middle" x="549" y="-730.3" font-family="Times,serif" font-size="14.00">CNV_PLOTTER_01:DOWNLOAD_GFF3_01</text>
</g>
<!-- p11&#45;&gt;p13 -->
<g id="edge14" class="edge"><title>p11&#45;&gt;p13</title>
<path fill="none" stroke="black" d="M550.933,-818.139C550.733,-809.502 550.117,-783.011 549.633,-762.227"/>
<polygon fill="black" stroke="black" points="553.127,-761.92 549.395,-752.004 546.129,-762.082 553.127,-761.92"/>
<text text-anchor="middle" x="569.5" y="-774.3" font-family="Times,serif" font-size="14.00">meta</text>
</g>
<!-- p13&#45;&gt;p28 -->
<g id="edge16" class="edge"><title>p13&#45;&gt;p28</title>
<path fill="none" stroke="black" d="M549.918,-715.794C551.475,-697.94 555.675,-669.654 567,-648 576.256,-630.302 591.737,-614.455 605.885,-602.425"/>
<polygon fill="black" stroke="black" points="608.47,-604.832 614.004,-595.797 604.044,-599.41 608.47,-604.832"/>
</g>
<!-- p14 -->
<g id="node18" class="node"><title>p14</title>
<ellipse fill="black" stroke="black" cx="578" cy="-656" rx="1.8" ry="1.8"/>
</g>
<!-- p13&#45;&gt;p14 -->
<g id="edge17" class="edge"><title>p13&#45;&gt;p14</title>
<path fill="none" stroke="black" d="M555.581,-715.754C561.275,-700.831 569.32,-679.748 574.065,-667.313"/>
<polygon fill="black" stroke="black" points="577.355,-668.507 577.65,-657.917 570.815,-666.012 577.355,-668.507"/>
</g>
<!-- p13&#45;&gt;p15 -->
<g id="edge18" class="edge"><title>p13&#45;&gt;p15</title>
<path fill="none" stroke="black" d="M527.67,-715.754C508.129,-699.955 480.048,-677.252 465.162,-665.216"/>
<polygon fill="black" stroke="black" points="467.209,-662.37 457.232,-658.805 462.808,-667.814 467.209,-662.37"/>
</g>
<!-- p12 -->
<g id="node17" class="node"><title>p12</title>
<ellipse fill="black" stroke="black" cx="610" cy="-822" rx="3.6" ry="3.6"/>
</g>
<!-- p12&#45;&gt;p13 -->
<g id="edge15" class="edge"><title>p12&#45;&gt;p13</title>
<path fill="none" stroke="black" d="M609.205,-818.011C606.914,-809.775 599.708,-786.285 588,-770 585.298,-766.242 582.13,-762.595 578.788,-759.164"/>
<polygon fill="black" stroke="black" points="580.96,-756.4 571.305,-752.038 576.132,-761.469 580.96,-756.4"/>
<text text-anchor="middle" x="633" y="-774.3" font-family="Times,serif" font-size="14.00">reference</text>
</g>
<!-- p22 -->
<g id="node23" class="node"><title>p22</title>
<ellipse fill="none" stroke="black" cx="818" cy="-504" rx="3.25" ry="3.5"/>
<text text-anchor="middle" x="801" y="-511.3" font-family="Times,serif" font-size="14.00">mix</text>
</g>
<!-- p18&#45;&gt;p22 -->
<g id="edge23" class="edge"><title>p18&#45;&gt;p22</title>
<path fill="none" stroke="black" d="M818,-574.265C818,-565.133 818,-535.282 818,-517.892"/>
<polygon fill="black" stroke="black" points="821.5,-517.737 818,-507.737 814.5,-517.737 821.5,-517.737"/>
<text text-anchor="middle" x="857" y="-530.3" font-family="Times,serif" font-size="14.00">version_ch</text>
</g>
<!-- p16 -->
<g id="node20" class="node"><title>p16</title>
<ellipse fill="black" stroke="black" cx="818" cy="-1072" rx="3.6" ry="3.6"/>
</g>
<!-- p17 -->
<g id="node21" class="node"><title>p17</title>
<ellipse fill="none" stroke="black" cx="818" cy="-998" rx="221.445" ry="18"/>
<text text-anchor="middle" x="818" y="-994.3" font-family="Times,serif" font-size="14.00">CNV_PLOTTER_01:COMPILE_VCF_PARSER</text>
</g>
<!-- p16&#45;&gt;p17 -->
<g id="edge20" class="edge"><title>p16&#45;&gt;p17</title>
<path fill="none" stroke="black" d="M818,-1068.27C818,-1061.35 818,-1042.58 818,-1026.32"/>
<polygon fill="black" stroke="black" points="821.5,-1026.14 818,-1016.14 814.5,-1026.14 821.5,-1026.14"/>
<text text-anchor="middle" x="836.5" y="-1038.3" font-family="Times,serif" font-size="14.00">meta</text>
</g>
<!-- p21 -->
<g id="node22" class="node"><title>p21</title>
<ellipse fill="none" stroke="black" cx="1036" cy="-910" rx="190.15" ry="18"/>
<text text-anchor="middle" x="1036" y="-906.3" font-family="Times,serif" font-size="14.00">CNV_PLOTTER_01:SPLIT_VARIANTS</text>
</g>
<!-- p17&#45;&gt;p21 -->
<g id="edge21" class="edge"><title>p17&#45;&gt;p21</title>
<path fill="none" stroke="black" d="M860.291,-980.316C895.791,-966.312 946.629,-946.257 984.496,-931.318"/>
<polygon fill="black" stroke="black" points="985.809,-934.563 993.827,-927.637 983.24,-928.051 985.809,-934.563"/>
</g>
<!-- p17&#45;&gt;p18 -->
<g id="edge22" class="edge"><title>p17&#45;&gt;p18</title>
<path fill="none" stroke="black" d="M818,-979.867C818,-962.51 818,-934.889 818,-911 818,-911 818,-911 818,-655 818,-632.753 818,-606.843 818,-591.745"/>
<polygon fill="black" stroke="black" points="821.5,-591.625 818,-581.625 814.5,-591.625 821.5,-591.625"/>
</g>
<!-- p23 -->
<g id="node26" class="node"><title>p23</title>
<ellipse fill="none" stroke="black" cx="881" cy="-822" rx="3.25" ry="3.5"/>
<text text-anchor="middle" x="848" y="-829.3" font-family="Times,serif" font-size="14.00">splitCsv</text>
</g>
<!-- p21&#45;&gt;p23 -->
<g id="edge26" class="edge"><title>p21&#45;&gt;p23</title>
<path fill="none" stroke="black" d="M949.964,-893.855C936.427,-888.977 923.22,-882.527 912,-874 899.02,-864.135 890.285,-847.131 885.48,-835.49"/>
<polygon fill="black" stroke="black" points="888.651,-833.975 881.883,-825.824 882.091,-836.417 888.651,-833.975"/>
</g>
<!-- p21&#45;&gt;p22 -->
<g id="edge27" class="edge"><title>p21&#45;&gt;p22</title>
<path fill="none" stroke="black" d="M987.752,-892.498C958.197,-878.992 926,-856.574 926,-823 926,-823 926,-823 926,-577 926,-551.558 919.863,-541.899 900,-526 879.874,-509.89 848.827,-505.998 831.276,-505.144"/>
<polygon fill="black" stroke="black" points="831.304,-501.644 821.231,-504.927 831.153,-508.642 831.304,-501.644"/>
</g>
<!-- p32 -->
<g id="node33" class="node"><title>p32</title>
<ellipse fill="none" stroke="black" cx="980" cy="-430" rx="179.076" ry="18"/>
<text text-anchor="middle" x="980" y="-426.3" font-family="Times,serif" font-size="14.00">CNV_PLOTTER_01:MERGE_PLOTS</text>
</g>
<!-- p21&#45;&gt;p32 -->
<g id="edge39" class="edge"><title>p21&#45;&gt;p32</title>
<path fill="none" stroke="black" d="M1016.41,-891.989C1000.27,-875.986 980,-850.438 980,-823 980,-823 980,-823 980,-503 980,-488.205 980,-471.7 980,-458.229"/>
<polygon fill="black" stroke="black" points="983.5,-458.166 980,-448.166 976.5,-458.166 983.5,-458.166"/>
<text text-anchor="middle" x="998.5" y="-652.3" font-family="Times,serif" font-size="14.00">table</text>
</g>
<!-- p22&#45;&gt;p29 -->
<g id="edge28" class="edge"><title>p22&#45;&gt;p29</title>
<path fill="none" stroke="black" d="M816.702,-500.604C811.845,-491.637 794.536,-459.683 785.153,-442.36"/>
<polygon fill="black" stroke="black" points="788.183,-440.604 780.342,-433.478 782.028,-443.938 788.183,-440.604"/>
<text text-anchor="middle" x="846" y="-470.3" font-family="Times,serif" font-size="14.00">version_ch</text>
</g>
<!-- p19 -->
<g id="node24" class="node"><title>p19</title>
<ellipse fill="black" stroke="black" cx="1061" cy="-998" rx="3.6" ry="3.6"/>
</g>
<!-- p19&#45;&gt;p21 -->
<g id="edge24" class="edge"><title>p19&#45;&gt;p21</title>
<path fill="none" stroke="black" d="M1060.06,-994.476C1057.93,-988.748 1052.67,-974.311 1049,-962 1046.68,-954.207 1044.4,-945.669 1042.41,-937.845"/>
<polygon fill="black" stroke="black" points="1045.8,-936.958 1039.99,-928.094 1039,-938.643 1045.8,-936.958"/>
<text text-anchor="middle" x="1067.5" y="-950.3" font-family="Times,serif" font-size="14.00">meta</text>
</g>
<!-- p20 -->
<g id="node25" class="node"><title>p20</title>
<ellipse fill="black" stroke="black" cx="1108" cy="-998" rx="3.6" ry="3.6"/>
</g>
<!-- p20&#45;&gt;p21 -->
<g id="edge25" class="edge"><title>p20&#45;&gt;p21</title>
<path fill="none" stroke="black" d="M1107.42,-994.403C1105.53,-986.423 1098.91,-961.849 1086,-946 1082.49,-941.687 1078.31,-937.671 1073.89,-934.012"/>
<polygon fill="black" stroke="black" points="1075.84,-931.099 1065.77,-927.823 1071.6,-936.668 1075.84,-931.099"/>
<text text-anchor="middle" x="1107" y="-950.3" font-family="Times,serif" font-size="14.00">vcf</text>
</g>
<!-- p23&#45;&gt;p24 -->
<g id="edge29" class="edge"><title>p23&#45;&gt;p24</title>
<path fill="none" stroke="black" d="M878.974,-819.204C868.027,-809.498 815.628,-763.042 793.692,-743.593"/>
<polygon fill="black" stroke="black" points="795.819,-740.802 786.015,-736.786 791.176,-746.039 795.819,-740.802"/>
</g>
<!-- p33 -->
<g id="node32" class="node"><title>p33</title>
<ellipse fill="none" stroke="black" cx="887" cy="-356" rx="3.25" ry="3.5"/>
<text text-anchor="middle" x="870" y="-363.3" font-family="Times,serif" font-size="14.00">mix</text>
</g>
<!-- p29&#45;&gt;p33 -->
<g id="edge36" class="edge"><title>p29&#45;&gt;p33</title>
<path fill="none" stroke="black" d="M780.687,-426.438C783.023,-422.982 787.468,-416.714 792,-412 808.405,-394.934 812.594,-390 833,-378 846.245,-370.211 862.909,-364.241 874.197,-360.692"/>
<polygon fill="black" stroke="black" points="875.32,-364.009 883.919,-357.819 873.337,-357.296 875.32,-364.009"/>
<text text-anchor="middle" x="872" y="-382.3" font-family="Times,serif" font-size="14.00">version_ch</text>
</g>
<!-- p25&#45;&gt;p28 -->
<g id="edge31" class="edge"><title>p25&#45;&gt;p28</title>
<path fill="none" stroke="black" d="M756.565,-652.41C752.511,-645.31 740.269,-625.316 725,-614 717.331,-608.316 708.611,-603.4 699.724,-599.198"/>
<polygon fill="black" stroke="black" points="700.999,-595.935 690.439,-595.075 698.158,-602.332 700.999,-595.935"/>
<text text-anchor="middle" x="767" y="-618.3" font-family="Times,serif" font-size="14.00">ch2_ch</text>
</g>
<!-- p26 -->
<g id="node29" class="node"><title>p26</title>
<ellipse fill="black" stroke="black" cx="601" cy="-656" rx="3.6" ry="3.6"/>
</g>
<!-- p26&#45;&gt;p28 -->
<g id="edge32" class="edge"><title>p26&#45;&gt;p28</title>
<path fill="none" stroke="black" d="M600.876,-652.26C600.677,-645.442 600.814,-627.308 607,-614 608.599,-610.559 610.649,-607.207 612.93,-604.027"/>
<polygon fill="black" stroke="black" points="615.799,-606.045 619.361,-596.067 610.354,-601.646 615.799,-606.045"/>
<text text-anchor="middle" x="625.5" y="-618.3" font-family="Times,serif" font-size="14.00">meta</text>
</g>
<!-- p27 -->
<g id="node30" class="node"><title>p27</title>
<ellipse fill="black" stroke="black" cx="658" cy="-656" rx="3.6" ry="3.6"/>
</g>
<!-- p27&#45;&gt;p28 -->
<g id="edge33" class="edge"><title>p27&#45;&gt;p28</title>
<path fill="none" stroke="black" d="M657.24,-652.114C655.248,-644.543 649.707,-623.487 645.08,-605.905"/>
<polygon fill="black" stroke="black" points="648.425,-604.863 642.495,-596.083 641.656,-606.644 648.425,-604.863"/>
<text text-anchor="middle" x="686" y="-618.3" font-family="Times,serif" font-size="14.00">reference</text>
</g>
<!-- p30&#45;&gt;p32 -->
<g id="edge37" class="edge"><title>p30&#45;&gt;p32</title>
<path fill="none" stroke="black" d="M703.554,-501.787C714.374,-496.692 757.592,-476.797 795,-466 820.76,-458.565 849.004,-452.302 875.496,-447.222"/>
<polygon fill="black" stroke="black" points="876.372,-450.619 885.554,-445.333 875.08,-443.739 876.372,-450.619"/>
</g>
<!-- p34 -->
<g id="node36" class="node"><title>p34</title>
<ellipse fill="none" stroke="black" cx="902" cy="-296" rx="3.25" ry="3.5"/>
<text text-anchor="middle" x="874" y="-303.3" font-family="Times,serif" font-size="14.00">collect</text>
</g>
<!-- p33&#45;&gt;p34 -->
<g id="edge42" class="edge"><title>p33&#45;&gt;p34</title>
<path fill="none" stroke="black" d="M886.564,-352.221C885.688,-345.942 884.11,-330.249 888,-318 889.22,-314.158 891.371,-310.365 893.627,-307.082"/>
<polygon fill="black" stroke="black" points="896.391,-309.23 899.88,-299.226 890.914,-304.871 896.391,-309.23"/>
<text text-anchor="middle" x="927" y="-322.3" font-family="Times,serif" font-size="14.00">version_ch</text>
</g>
<!-- p41 -->
<g id="node35" class="node"><title>p41</title>
<ellipse fill="none" stroke="black" cx="1103" cy="-60" rx="56.3173" ry="18"/>
<text text-anchor="middle" x="1103" y="-56.3" font-family="Times,serif" font-size="14.00">PUBLISH</text>
</g>
<!-- p32&#45;&gt;p41 -->
<g id="edge40" class="edge"><title>p32&#45;&gt;p41</title>
<path fill="none" stroke="black" d="M980,-411.834C980,-397.247 980,-375.75 980,-357 980,-357 980,-357 980,-133 980,-100.149 1013.08,-82.0067 1044.93,-72.1526"/>
<polygon fill="black" stroke="black" points="1046.08,-75.4637 1054.74,-69.3534 1044.16,-68.7325 1046.08,-75.4637"/>
<text text-anchor="middle" x="991" y="-262.3" font-family="Times,serif" font-size="14.00">zip</text>
</g>
<!-- p32&#45;&gt;p33 -->
<g id="edge41" class="edge"><title>p32&#45;&gt;p33</title>
<path fill="none" stroke="black" d="M957.96,-411.937C938.769,-397.08 911.808,-376.206 897.266,-364.948"/>
<polygon fill="black" stroke="black" points="899.21,-362.027 889.161,-358.673 894.925,-367.562 899.21,-362.027"/>
</g>
<!-- p31 -->
<g id="node34" class="node"><title>p31</title>
<ellipse fill="black" stroke="black" cx="1013" cy="-504" rx="3.6" ry="3.6"/>
</g>
<!-- p31&#45;&gt;p32 -->
<g id="edge38" class="edge"><title>p31&#45;&gt;p32</title>
<path fill="none" stroke="black" d="M1011.75,-500.265C1008.52,-493.222 999.644,-473.859 992.095,-457.39"/>
<polygon fill="black" stroke="black" points="995.205,-455.775 987.857,-448.143 988.842,-458.692 995.205,-455.775"/>
<text text-anchor="middle" x="1022.5" y="-470.3" font-family="Times,serif" font-size="14.00">meta</text>
</g>
<!-- p44 -->
<g id="node43" class="node"><title>p44</title>
<ellipse fill="black" stroke="black" cx="1078" cy="-2" rx="1.8" ry="1.8"/>
</g>
<!-- p41&#45;&gt;p44 -->
<g id="edge51" class="edge"><title>p41&#45;&gt;p44</title>
<path fill="none" stroke="black" d="M1095.36,-41.8939C1091.19,-32.5499 1086.16,-21.2883 1082.6,-13.2932"/>
<polygon fill="black" stroke="black" points="1085.72,-11.7003 1078.44,-3.99575 1079.33,-14.5539 1085.72,-11.7003"/>
</g>
<!-- p43 -->
<g id="node44" class="node"><title>p43</title>
<ellipse fill="black" stroke="black" cx="1103" cy="-2" rx="1.8" ry="1.8"/>
</g>
<!-- p41&#45;&gt;p43 -->
<g id="edge52" class="edge"><title>p41&#45;&gt;p43</title>
<path fill="none" stroke="black" d="M1103,-41.8939C1103,-32.8876 1103,-22.0999 1103,-14.1727"/>
<polygon fill="black" stroke="black" points="1106.5,-13.9957 1103,-3.99575 1099.5,-13.9958 1106.5,-13.9957"/>
</g>
<!-- p42 -->
<g id="node45" class="node"><title>p42</title>
<ellipse fill="black" stroke="black" cx="1128" cy="-2" rx="1.8" ry="1.8"/>
</g>
<!-- p41&#45;&gt;p42 -->
<g id="edge53" class="edge"><title>p41&#45;&gt;p42</title>
<path fill="none" stroke="black" d="M1110.64,-41.8939C1114.81,-32.5499 1119.84,-21.2883 1123.4,-13.2932"/>
<polygon fill="black" stroke="black" points="1126.67,-14.5539 1127.56,-3.99575 1120.28,-11.7003 1126.67,-14.5539"/>
</g>
<!-- p38 -->
<g id="node37" class="node"><title>p38</title>
<ellipse fill="none" stroke="black" cx="1201" cy="-222" rx="193.049" ry="18"/>
<text text-anchor="middle" x="1201" y="-218.3" font-family="Times,serif" font-size="14.00">CNV_PLOTTER_01:MERGE_VERSION</text>
</g>
<!-- p34&#45;&gt;p38 -->
<g id="edge43" class="edge"><title>p34&#45;&gt;p38</title>
<path fill="none" stroke="black" d="M904.348,-292.875C911.659,-286.393 934.91,-266.782 958,-258 984.817,-247.8 1014.33,-240.544 1043.27,-235.39"/>
<polygon fill="black" stroke="black" points="1044.21,-238.781 1053.48,-233.653 1043.03,-231.88 1044.21,-238.781"/>
</g>
<!-- p40 -->
<g id="node41" class="node"><title>p40</title>
<ellipse fill="none" stroke="black" cx="1286" cy="-134" rx="111.186" ry="18"/>
<text text-anchor="middle" x="1286" y="-130.3" font-family="Times,serif" font-size="14.00">VERSION_TO_HTML</text>
</g>
<!-- p38&#45;&gt;p40 -->
<g id="edge47" class="edge"><title>p38&#45;&gt;p40</title>
<path fill="none" stroke="black" d="M1217.79,-204.009C1230.48,-191.17 1248.07,-173.376 1262.21,-159.072"/>
<polygon fill="black" stroke="black" points="1264.7,-161.528 1269.24,-151.956 1259.72,-156.607 1264.7,-161.528"/>
</g>
<!-- p38&#45;&gt;p41 -->
<g id="edge50" class="edge"><title>p38&#45;&gt;p41</title>
<path fill="none" stroke="black" d="M1167.37,-204.014C1147.76,-192.226 1124.48,-174.587 1112,-152 1101.29,-132.629 1099.58,-107.368 1100.24,-88.3775"/>
<polygon fill="black" stroke="black" points="1103.74,-88.4686 1100.83,-78.2814 1096.75,-88.0601 1103.74,-88.4686"/>
<text text-anchor="middle" x="1138.5" y="-130.3" font-family="Times,serif" font-size="14.00">version</text>
</g>
<!-- p35 -->
<g id="node38" class="node"><title>p35</title>
<ellipse fill="black" stroke="black" cx="1141" cy="-296" rx="3.6" ry="3.6"/>
</g>
<!-- p35&#45;&gt;p38 -->
<g id="edge44" class="edge"><title>p35&#45;&gt;p38</title>
<path fill="none" stroke="black" d="M1141.9,-292.47C1144.22,-286.189 1150.86,-269.553 1160,-258 1163.03,-254.165 1166.54,-250.437 1170.19,-246.933"/>
<polygon fill="black" stroke="black" points="1172.71,-249.379 1177.81,-240.091 1168.03,-244.172 1172.71,-249.379"/>
<text text-anchor="middle" x="1178.5" y="-262.3" font-family="Times,serif" font-size="14.00">meta</text>
</g>
<!-- p36 -->
<g id="node39" class="node"><title>p36</title>
<ellipse fill="black" stroke="black" cx="1201" cy="-296" rx="3.6" ry="3.6"/>
</g>
<!-- p36&#45;&gt;p38 -->
<g id="edge45" class="edge"><title>p36&#45;&gt;p38</title>
<path fill="none" stroke="black" d="M1201,-292.265C1201,-285.354 1201,-266.578 1201,-250.316"/>
<polygon fill="black" stroke="black" points="1204.5,-250.143 1201,-240.143 1197.5,-250.143 1204.5,-250.143"/>
<text text-anchor="middle" x="1221" y="-262.3" font-family="Times,serif" font-size="14.00">name</text>
</g>
<!-- p37 -->
<g id="node40" class="node"><title>p37</title>
<ellipse fill="black" stroke="black" cx="1264" cy="-296" rx="3.6" ry="3.6"/>
</g>
<!-- p37&#45;&gt;p38 -->
<g id="edge46" class="edge"><title>p37&#45;&gt;p38</title>
<path fill="none" stroke="black" d="M1262.86,-292.483C1259.96,-286.231 1251.83,-269.657 1242,-258 1238.69,-254.075 1234.92,-250.226 1231.03,-246.599"/>
<polygon fill="black" stroke="black" points="1233.32,-243.949 1223.51,-239.94 1228.68,-249.19 1233.32,-243.949"/>
<text text-anchor="middle" x="1294" y="-262.3" font-family="Times,serif" font-size="14.00">description</text>
</g>
<!-- p40&#45;&gt;p41 -->
<g id="edge49" class="edge"><title>p40&#45;&gt;p41</title>
<path fill="none" stroke="black" d="M1245.84,-117.199C1216.5,-105.657 1176.76,-90.0196 1146.64,-78.1699"/>
<polygon fill="black" stroke="black" points="1147.81,-74.8701 1137.23,-74.4658 1145.25,-81.3841 1147.81,-74.8701"/>
</g>
<!-- p39 -->
<g id="node42" class="node"><title>p39</title>
<ellipse fill="black" stroke="black" cx="1416" cy="-222" rx="3.6" ry="3.6"/>
</g>
<!-- p39&#45;&gt;p40 -->
<g id="edge48" class="edge"><title>p39&#45;&gt;p40</title>
<path fill="none" stroke="black" d="M1414.42,-218.328C1412.2,-214.747 1407.89,-208.338 1403,-204 1381.19,-184.664 1353.17,-167.915 1330.02,-155.763"/>
<polygon fill="black" stroke="black" points="1331.58,-152.628 1321.08,-151.171 1328.38,-158.855 1331.58,-152.628"/>
<text text-anchor="middle" x="1398.5" y="-174.3" font-family="Times,serif" font-size="14.00">meta</text>
</g>
</g>
</svg>
