<?xml version="1.0" encoding="UTF-8" standalone="no"?>
<!DOCTYPE svg PUBLIC "-//W3C//DTD SVG 1.1//EN"
 "http://www.w3.org/Graphics/SVG/1.1/DTD/svg11.dtd">
<!-- Generated by graphviz version 2.30.1 (20201013.1554)
 -->
<!-- Title: 20220712rotaviruscnvworkflow Pages: 1 -->
<svg width="1449pt" height="1076pt"
 viewBox="0.00 0.00 1449.00 1076.00" xmlns="http://www.w3.org/2000/svg" xmlns:xlink="http://www.w3.org/1999/xlink">
<g id="graph0" class="graph" transform="scale(1 1) rotate(0) translate(4 1072)">
<title>20220712rotaviruscnvworkflow</title>
<polygon fill="white" stroke="white" points="-4,5 -4,-1072 1446,-1072 1446,5 -4,5"/>
<!-- p0 -->
<g id="node1" class="node"><title>p0</title>
<ellipse fill="black" stroke="black" cx="772" cy="-902" rx="3.6" ry="3.6"/>
<text text-anchor="middle" x="745.65" y="-887.2" font-family="Times,serif" font-size="14.00">Channel.empty</text>
</g>
<!-- p5 -->
<g id="node2" class="node"><title>p5</title>
<ellipse fill="none" stroke="black" cx="565" cy="-814" rx="3.25" ry="3.5"/>
<text text-anchor="middle" x="548" y="-821.3" font-family="Times,serif" font-size="14.00">mix</text>
</g>
<!-- p0&#45;&gt;p5 -->
<g id="edge1" class="edge"><title>p0&#45;&gt;p5</title>
<path fill="none" stroke="black" d="M770.533,-898.186C768.447,-894.442 764.284,-887.852 759,-884 699.833,-840.875 611.164,-822.589 578.07,-817"/>
<polygon fill="black" stroke="black" points="578.451,-813.517 568.028,-815.418 577.361,-820.432 578.451,-813.517"/>
<text text-anchor="middle" x="765" y="-854.3" font-family="Times,serif" font-size="14.00">version_ch</text>
</g>
<!-- p10 -->
<g id="node8" class="node"><title>p10</title>
<ellipse fill="none" stroke="black" cx="506" cy="-726" rx="3.25" ry="3.5"/>
<text text-anchor="middle" x="489" y="-711.3" font-family="Times,serif" font-size="14.00">mix</text>
</g>
<!-- p5&#45;&gt;p10 -->
<g id="edge7" class="edge"><title>p5&#45;&gt;p10</title>
<path fill="none" stroke="black" d="M563.298,-810.519C555.995,-799.874 527.062,-757.701 513.321,-737.671"/>
<polygon fill="black" stroke="black" points="516.14,-735.594 507.597,-729.328 510.368,-739.554 516.14,-735.594"/>
<text text-anchor="middle" x="580" y="-766.3" font-family="Times,serif" font-size="14.00">version_ch</text>
</g>
<!-- p1 -->
<g id="node3" class="node"><title>p1</title>
<ellipse fill="black" stroke="black" cx="586" cy="-990" rx="3.6" ry="3.6"/>
</g>
<!-- p4 -->
<g id="node4" class="node"><title>p4</title>
<ellipse fill="none" stroke="black" cx="524" cy="-902" rx="226.27" ry="18"/>
<text text-anchor="middle" x="524" y="-898.3" font-family="Times,serif" font-size="14.00">CNV_PLOTTER_01:SAMTOOLS_SAMPLES01</text>
</g>
<!-- p1&#45;&gt;p4 -->
<g id="edge2" class="edge"><title>p1&#45;&gt;p4</title>
<path fill="none" stroke="black" d="M585.215,-986.003C582.952,-977.747 575.81,-954.211 564,-938 561.161,-934.103 557.815,-930.339 554.286,-926.816"/>
<polygon fill="black" stroke="black" points="556.604,-924.191 546.892,-919.956 551.843,-929.323 556.604,-924.191"/>
<text text-anchor="middle" x="592.5" y="-942.3" font-family="Times,serif" font-size="14.00">meta</text>
</g>
<!-- p24 -->
<g id="node7" class="node"><title>p24</title>
<ellipse fill="none" stroke="black" cx="532" cy="-726" rx="3.25" ry="3.5"/>
<text text-anchor="middle" x="498" y="-733.3" font-family="Times,serif" font-size="14.00">combine</text>
</g>
<!-- p4&#45;&gt;p24 -->
<g id="edge5" class="edge"><title>p4&#45;&gt;p24</title>
<path fill="none" stroke="black" d="M524.782,-883.999C526.378,-849.281 529.981,-770.903 531.405,-739.937"/>
<polygon fill="black" stroke="black" points="534.907,-739.985 531.87,-729.835 527.914,-739.663 534.907,-739.985"/>
</g>
<!-- p4&#45;&gt;p5 -->
<g id="edge6" class="edge"><title>p4&#45;&gt;p5</title>
<path fill="none" stroke="black" d="M535.69,-883.958C539.252,-878.374 543.012,-872.049 546,-866 552.257,-853.336 557.686,-838.07 561.12,-827.56"/>
<polygon fill="black" stroke="black" points="564.513,-828.437 564.165,-817.848 557.833,-826.343 564.513,-828.437"/>
</g>
<!-- p2 -->
<g id="node5" class="node"><title>p2</title>
<ellipse fill="black" stroke="black" cx="431" cy="-990" rx="3.6" ry="3.6"/>
</g>
<!-- p2&#45;&gt;p4 -->
<g id="edge3" class="edge"><title>p2&#45;&gt;p4</title>
<path fill="none" stroke="black" d="M431.29,-986.306C432.313,-978.047 436.452,-952.754 450,-938 454.585,-933.006 460.031,-928.659 465.858,-924.889"/>
<polygon fill="black" stroke="black" points="467.744,-927.841 474.611,-919.773 464.212,-921.798 467.744,-927.841"/>
<text text-anchor="middle" x="485" y="-942.3" font-family="Times,serif" font-size="14.00">reference</text>
</g>
<!-- p3 -->
<g id="node6" class="node"><title>p3</title>
<ellipse fill="black" stroke="black" cx="524" cy="-990" rx="3.6" ry="3.6"/>
</g>
<!-- p3&#45;&gt;p4 -->
<g id="edge4" class="edge"><title>p3&#45;&gt;p4</title>
<path fill="none" stroke="black" d="M524,-986.139C524,-977.502 524,-951.011 524,-930.227"/>
<polygon fill="black" stroke="black" points="527.5,-930.004 524,-920.004 520.5,-930.004 527.5,-930.004"/>
<text text-anchor="middle" x="543.5" y="-942.3" font-family="Times,serif" font-size="14.00">bams</text>
</g>
<!-- p25 -->
<g id="node28" class="node"><title>p25</title>
<ellipse fill="none" stroke="black" cx="599" cy="-652" rx="3.25" ry="3.5"/>
<text text-anchor="middle" x="580" y="-659.3" font-family="Times,serif" font-size="14.00">map</text>
</g>
<!-- p24&#45;&gt;p25 -->
<g id="edge30" class="edge"><title>p24&#45;&gt;p25</title>
<path fill="none" stroke="black" d="M533.235,-722.73C535.271,-719.171 539.643,-712.247 545,-708 560.276,-695.888 571.643,-704.2 585,-690 591.3,-683.303 594.839,-673.492 596.783,-665.655"/>
<polygon fill="black" stroke="black" points="600.246,-666.176 598.69,-655.696 593.371,-664.86 600.246,-666.176"/>
</g>
<!-- p15 -->
<g id="node14" class="node"><title>p15</title>
<ellipse fill="none" stroke="black" cx="674" cy="-652" rx="3.25" ry="3.5"/>
<text text-anchor="middle" x="657" y="-659.3" font-family="Times,serif" font-size="14.00">mix</text>
</g>
<!-- p10&#45;&gt;p15 -->
<g id="edge13" class="edge"><title>p10&#45;&gt;p15</title>
<path fill="none" stroke="black" d="M507.195,-722.677C509.176,-719.046 513.474,-712.025 519,-708 564.636,-674.764 632.238,-660.059 660.653,-655.086"/>
<polygon fill="black" stroke="black" points="661.419,-658.508 670.732,-653.454 660.301,-651.598 661.419,-658.508"/>
<text text-anchor="middle" x="626" y="-678.3" font-family="Times,serif" font-size="14.00">version_ch</text>
</g>
<!-- p6 -->
<g id="node9" class="node"><title>p6</title>
<ellipse fill="black" stroke="black" cx="208" cy="-902" rx="3.6" ry="3.6"/>
</g>
<!-- p8 -->
<g id="node10" class="node"><title>p8</title>
<ellipse fill="none" stroke="black" cx="252" cy="-814" rx="252.266" ry="18"/>
<text text-anchor="middle" x="252" y="-810.3" font-family="Times,serif" font-size="14.00">CNV_PLOTTER_01:DOWNLOAD_GNOMAD_SV_01</text>
</g>
<!-- p6&#45;&gt;p8 -->
<g id="edge8" class="edge"><title>p6&#45;&gt;p8</title>
<path fill="none" stroke="black" d="M208.005,-898.047C208.134,-889.903 209.296,-866.627 218,-850 219.848,-846.47 222.164,-843.056 224.715,-839.834"/>
<polygon fill="black" stroke="black" points="227.404,-842.076 231.403,-832.265 222.159,-837.441 227.404,-842.076"/>
<text text-anchor="middle" x="236.5" y="-854.3" font-family="Times,serif" font-size="14.00">meta</text>
</g>
<!-- p28 -->
<g id="node12" class="node"><title>p28</title>
<ellipse fill="none" stroke="black" cx="617" cy="-578" rx="158.379" ry="18"/>
<text text-anchor="middle" x="617" y="-574.3" font-family="Times,serif" font-size="14.00">CNV_PLOTTER_01:PLOT_CNV</text>
</g>
<!-- p8&#45;&gt;p28 -->
<g id="edge10" class="edge"><title>p8&#45;&gt;p28</title>
<path fill="none" stroke="black" d="M278.544,-795.983C343.202,-754.531 508.883,-648.313 581.733,-601.61"/>
<polygon fill="black" stroke="black" points="584.026,-604.297 590.556,-595.953 580.248,-598.404 584.026,-604.297"/>
</g>
<!-- p9 -->
<g id="node13" class="node"><title>p9</title>
<ellipse fill="black" stroke="black" cx="252" cy="-726" rx="1.8" ry="1.8"/>
</g>
<!-- p8&#45;&gt;p9 -->
<g id="edge11" class="edge"><title>p8&#45;&gt;p9</title>
<path fill="none" stroke="black" d="M252,-795.597C252,-778.516 252,-752.965 252,-738.348"/>
<polygon fill="black" stroke="black" points="255.5,-738.095 252,-728.095 248.5,-738.095 255.5,-738.095"/>
</g>
<!-- p8&#45;&gt;p10 -->
<g id="edge12" class="edge"><title>p8&#45;&gt;p10</title>
<path fill="none" stroke="black" d="M417.316,-800.358C448.145,-795.241 474.582,-788.063 487,-778 498.429,-768.739 502.984,-751.88 504.799,-740.089"/>
<polygon fill="black" stroke="black" points="508.307,-740.199 505.888,-729.884 501.346,-739.456 508.307,-740.199"/>
</g>
<!-- p7 -->
<g id="node11" class="node"><title>p7</title>
<ellipse fill="black" stroke="black" cx="268" cy="-902" rx="3.6" ry="3.6"/>
</g>
<!-- p7&#45;&gt;p8 -->
<g id="edge9" class="edge"><title>p7&#45;&gt;p8</title>
<path fill="none" stroke="black" d="M267.468,-898.139C265.853,-889.462 260.887,-862.767 257.012,-841.942"/>
<polygon fill="black" stroke="black" points="260.434,-841.195 255.163,-832.004 253.552,-842.475 260.434,-841.195"/>
<text text-anchor="middle" x="297" y="-854.3" font-family="Times,serif" font-size="14.00">reference</text>
</g>
<!-- p30 -->
<g id="node31" class="node"><title>p30</title>
<ellipse fill="none" stroke="black" cx="617" cy="-504" rx="3.25" ry="3.5"/>
<text text-anchor="middle" x="589" y="-511.3" font-family="Times,serif" font-size="14.00">collect</text>
</g>
<!-- p28&#45;&gt;p30 -->
<g id="edge34" class="edge"><title>p28&#45;&gt;p30</title>
<path fill="none" stroke="black" d="M617,-559.937C617,-547.126 617,-529.843 617,-518.107"/>
<polygon fill="black" stroke="black" points="620.5,-517.748 617,-507.748 613.5,-517.748 620.5,-517.748"/>
</g>
<!-- p29 -->
<g id="node27" class="node"><title>p29</title>
<ellipse fill="none" stroke="black" cx="845" cy="-430" rx="3.25" ry="3.5"/>
<text text-anchor="middle" x="828" y="-437.3" font-family="Times,serif" font-size="14.00">mix</text>
</g>
<!-- p28&#45;&gt;p29 -->
<g id="edge35" class="edge"><title>p28&#45;&gt;p29</title>
<path fill="none" stroke="black" d="M645.28,-560.125C685.222,-536.086 760.185,-490.207 822,-448 826.096,-445.204 830.496,-442.002 834.341,-439.136"/>
<polygon fill="black" stroke="black" points="836.777,-441.681 842.626,-432.847 832.544,-436.106 836.777,-441.681"/>
</g>
<!-- p18 -->
<g id="node19" class="node"><title>p18</title>
<ellipse fill="none" stroke="black" cx="897" cy="-578" rx="3.25" ry="3.5"/>
<text text-anchor="middle" x="880" y="-585.3" font-family="Times,serif" font-size="14.00">mix</text>
</g>
<!-- p15&#45;&gt;p18 -->
<g id="edge19" class="edge"><title>p15&#45;&gt;p18</title>
<path fill="none" stroke="black" d="M674.68,-648.516C676.677,-641.733 683.2,-622.82 696,-614 703.847,-608.592 840.594,-587.535 883.935,-580.968"/>
<polygon fill="black" stroke="black" points="884.62,-584.404 893.986,-579.451 883.575,-577.482 884.62,-584.404"/>
<text text-anchor="middle" x="735" y="-618.3" font-family="Times,serif" font-size="14.00">version_ch</text>
</g>
<!-- p11 -->
<g id="node15" class="node"><title>p11</title>
<ellipse fill="black" stroke="black" cx="748" cy="-814" rx="3.6" ry="3.6"/>
</g>
<!-- p13 -->
<g id="node16" class="node"><title>p13</title>
<ellipse fill="none" stroke="black" cx="767" cy="-726" rx="213.272" ry="18"/>
<text text-anchor="middle" x="767" y="-722.3" font-family="Times,serif" font-size="14.00">CNV_PLOTTER_01:DOWNLOAD_GFF3_01</text>
</g>
<!-- p11&#45;&gt;p13 -->
<g id="edge14" class="edge"><title>p11&#45;&gt;p13</title>
<path fill="none" stroke="black" d="M747.617,-810.177C746.649,-802.365 744.491,-779.86 749,-762 749.721,-759.143 750.71,-756.255 751.857,-753.428"/>
<polygon fill="black" stroke="black" points="755.115,-754.723 756.198,-744.184 748.779,-751.748 755.115,-754.723"/>
<text text-anchor="middle" x="767.5" y="-766.3" font-family="Times,serif" font-size="14.00">meta</text>
</g>
<!-- p13&#45;&gt;p28 -->
<g id="edge16" class="edge"><title>p13&#45;&gt;p28</title>
<path fill="none" stroke="black" d="M770.2,-707.995C773.67,-683.963 775.983,-640.089 753,-614 746.618,-606.756 731.17,-600.644 712.875,-595.658"/>
<polygon fill="black" stroke="black" points="713.637,-592.24 703.081,-593.153 711.902,-599.022 713.637,-592.24"/>
</g>
<!-- p14 -->
<g id="node18" class="node"><title>p14</title>
<ellipse fill="black" stroke="black" cx="823" cy="-652" rx="1.8" ry="1.8"/>
</g>
<!-- p13&#45;&gt;p14 -->
<g id="edge17" class="edge"><title>p13&#45;&gt;p14</title>
<path fill="none" stroke="black" d="M780.271,-707.937C791.527,-693.466 807.221,-673.287 816.121,-661.844"/>
<polygon fill="black" stroke="black" points="818.963,-663.892 822.339,-653.849 813.437,-659.594 818.963,-663.892"/>
</g>
<!-- p13&#45;&gt;p15 -->
<g id="edge18" class="edge"><title>p13&#45;&gt;p15</title>
<path fill="none" stroke="black" d="M744.96,-707.937C725.769,-693.08 698.808,-672.206 684.266,-660.948"/>
<polygon fill="black" stroke="black" points="686.21,-658.027 676.161,-654.673 681.925,-663.562 686.21,-658.027"/>
</g>
<!-- p12 -->
<g id="node17" class="node"><title>p12</title>
<ellipse fill="black" stroke="black" cx="808" cy="-814" rx="3.6" ry="3.6"/>
</g>
<!-- p12&#45;&gt;p13 -->
<g id="edge15" class="edge"><title>p12&#45;&gt;p13</title>
<path fill="none" stroke="black" d="M806.894,-810.196C803.811,-802.433 794.766,-780.04 786,-762 784.624,-759.169 783.137,-756.237 781.621,-753.331"/>
<polygon fill="black" stroke="black" points="784.586,-751.454 776.784,-744.286 778.413,-754.755 784.586,-751.454"/>
<text text-anchor="middle" x="829" y="-766.3" font-family="Times,serif" font-size="14.00">reference</text>
</g>
<!-- p22 -->
<g id="node23" class="node"><title>p22</title>
<ellipse fill="none" stroke="black" cx="897" cy="-504" rx="3.25" ry="3.5"/>
<text text-anchor="middle" x="880" y="-511.3" font-family="Times,serif" font-size="14.00">mix</text>
</g>
<!-- p18&#45;&gt;p22 -->
<g id="edge23" class="edge"><title>p18&#45;&gt;p22</title>
<path fill="none" stroke="black" d="M897,-574.265C897,-565.133 897,-535.282 897,-517.892"/>
<polygon fill="black" stroke="black" points="900.5,-517.737 897,-507.737 893.5,-517.737 900.5,-517.737"/>
<text text-anchor="middle" x="936" y="-530.3" font-family="Times,serif" font-size="14.00">version_ch</text>
</g>
<!-- p16 -->
<g id="node20" class="node"><title>p16</title>
<ellipse fill="black" stroke="black" cx="1220" cy="-1064" rx="3.6" ry="3.6"/>
</g>
<!-- p17 -->
<g id="node21" class="node"><title>p17</title>
<ellipse fill="none" stroke="black" cx="1220" cy="-990" rx="221.445" ry="18"/>
<text text-anchor="middle" x="1220" y="-986.3" font-family="Times,serif" font-size="14.00">CNV_PLOTTER_01:COMPILE_VCF_PARSER</text>
</g>
<!-- p16&#45;&gt;p17 -->
<g id="edge20" class="edge"><title>p16&#45;&gt;p17</title>
<path fill="none" stroke="black" d="M1220,-1060.27C1220,-1053.35 1220,-1034.58 1220,-1018.32"/>
<polygon fill="black" stroke="black" points="1223.5,-1018.14 1220,-1008.14 1216.5,-1018.14 1223.5,-1018.14"/>
<text text-anchor="middle" x="1238.5" y="-1030.3" font-family="Times,serif" font-size="14.00">meta</text>
</g>
<!-- p21 -->
<g id="node22" class="node"><title>p21</title>
<ellipse fill="none" stroke="black" cx="984" cy="-902" rx="190.15" ry="18"/>
<text text-anchor="middle" x="984" y="-898.3" font-family="Times,serif" font-size="14.00">CNV_PLOTTER_01:SPLIT_VARIANTS</text>
</g>
<!-- p17&#45;&gt;p21 -->
<g id="edge21" class="edge"><title>p17&#45;&gt;p21</title>
<path fill="none" stroke="black" d="M1174.22,-972.316C1135.5,-958.207 1079.93,-937.957 1038.84,-922.984"/>
<polygon fill="black" stroke="black" points="1039.85,-919.626 1029.25,-919.491 1037.45,-926.203 1039.85,-919.626"/>
</g>
<!-- p17&#45;&gt;p18 -->
<g id="edge22" class="edge"><title>p17&#45;&gt;p18</title>
<path fill="none" stroke="black" d="M1218.1,-971.892C1216.34,-954.554 1214,-926.947 1214,-903 1214,-903 1214,-903 1214,-651 1214,-587.643 970.157,-580.037 910.197,-579.124"/>
<polygon fill="black" stroke="black" points="910.176,-575.624 900.137,-579.012 910.098,-582.624 910.176,-575.624"/>
</g>
<!-- p23 -->
<g id="node26" class="node"><title>p23</title>
<ellipse fill="none" stroke="black" cx="700" cy="-814" rx="3.25" ry="3.5"/>
<text text-anchor="middle" x="667" y="-821.3" font-family="Times,serif" font-size="14.00">splitCsv</text>
</g>
<!-- p21&#45;&gt;p23 -->
<g id="edge26" class="edge"><title>p21&#45;&gt;p23</title>
<path fill="none" stroke="black" d="M929.847,-884.696C895.121,-874.393 849.022,-860.996 808,-850 775.723,-841.348 766.425,-843.363 735,-832 726.861,-829.057 718.101,-824.802 711.382,-821.285"/>
<polygon fill="black" stroke="black" points="712.923,-818.139 702.468,-816.425 709.573,-824.285 712.923,-818.139"/>
</g>
<!-- p21&#45;&gt;p22 -->
<g id="edge27" class="edge"><title>p21&#45;&gt;p22</title>
<path fill="none" stroke="black" d="M991.726,-883.931C998.742,-866.853 1008,-839.647 1008,-815 1008,-815 1008,-815 1008,-577 1008,-550.925 999.722,-541.827 979,-526 958.612,-510.429 927.899,-506.329 910.423,-505.296"/>
<polygon fill="black" stroke="black" points="910.309,-501.791 900.201,-504.965 910.083,-508.787 910.309,-501.791"/>
</g>
<!-- p22&#45;&gt;p29 -->
<g id="edge28" class="edge"><title>p22&#45;&gt;p29</title>
<path fill="none" stroke="black" d="M895.27,-500.604C888.732,-491.552 865.274,-459.072 852.85,-441.869"/>
<polygon fill="black" stroke="black" points="855.482,-439.536 846.79,-433.478 849.808,-443.634 855.482,-439.536"/>
<text text-anchor="middle" x="921" y="-470.3" font-family="Times,serif" font-size="14.00">version_ch</text>
</g>
<!-- p19 -->
<g id="node24" class="node"><title>p19</title>
<ellipse fill="black" stroke="black" cx="920" cy="-990" rx="3.6" ry="3.6"/>
</g>
<!-- p19&#45;&gt;p21 -->
<g id="edge24" class="edge"><title>p19&#45;&gt;p21</title>
<path fill="none" stroke="black" d="M920.527,-985.964C922.096,-977.609 927.371,-953.843 939,-938 941.921,-934.021 945.412,-930.263 949.14,-926.793"/>
<polygon fill="black" stroke="black" points="951.668,-929.237 957.017,-920.092 947.133,-923.905 951.668,-929.237"/>
<text text-anchor="middle" x="957.5" y="-942.3" font-family="Times,serif" font-size="14.00">meta</text>
</g>
<!-- p20 -->
<g id="node25" class="node"><title>p20</title>
<ellipse fill="black" stroke="black" cx="977" cy="-990" rx="3.6" ry="3.6"/>
</g>
<!-- p20&#45;&gt;p21 -->
<g id="edge25" class="edge"><title>p20&#45;&gt;p21</title>
<path fill="none" stroke="black" d="M977.233,-986.139C977.936,-977.502 980.092,-951.011 981.784,-930.227"/>
<polygon fill="black" stroke="black" points="985.293,-930.255 982.616,-920.004 978.316,-929.687 985.293,-930.255"/>
<text text-anchor="middle" x="993" y="-942.3" font-family="Times,serif" font-size="14.00">vcf</text>
</g>
<!-- p23&#45;&gt;p24 -->
<g id="edge29" class="edge"><title>p23&#45;&gt;p24</title>
<path fill="none" stroke="black" d="M697.783,-811.084C688.982,-803.582 655.409,-775.928 623,-762 590.313,-747.952 574.907,-763.27 545,-744 542.576,-742.438 540.426,-740.26 538.608,-737.984"/>
<polygon fill="black" stroke="black" points="541.466,-735.955 533.143,-729.399 535.561,-739.714 541.466,-735.955"/>
</g>
<!-- p33 -->
<g id="node32" class="node"><title>p33</title>
<ellipse fill="none" stroke="black" cx="845" cy="-356" rx="3.25" ry="3.5"/>
<text text-anchor="middle" x="828" y="-363.3" font-family="Times,serif" font-size="14.00">mix</text>
</g>
<!-- p29&#45;&gt;p33 -->
<g id="edge36" class="edge"><title>p29&#45;&gt;p33</title>
<path fill="none" stroke="black" d="M845,-426.265C845,-417.133 845,-387.282 845,-369.892"/>
<polygon fill="black" stroke="black" points="848.5,-369.737 845,-359.737 841.5,-369.737 848.5,-369.737"/>
<text text-anchor="middle" x="884" y="-382.3" font-family="Times,serif" font-size="14.00">version_ch</text>
</g>
<!-- p25&#45;&gt;p28 -->
<g id="edge31" class="edge"><title>p25&#45;&gt;p28</title>
<path fill="none" stroke="black" d="M598.685,-648.255C598.055,-642.045 596.95,-626.485 600,-614 600.691,-611.17 601.632,-608.3 602.719,-605.484"/>
<polygon fill="black" stroke="black" points="605.958,-606.814 606.824,-596.255 599.562,-603.969 605.958,-606.814"/>
<text text-anchor="middle" x="626" y="-618.3" font-family="Times,serif" font-size="14.00">ch2_ch</text>
</g>
<!-- p26 -->
<g id="node29" class="node"><title>p26</title>
<ellipse fill="black" stroke="black" cx="800" cy="-652" rx="3.6" ry="3.6"/>
</g>
<!-- p26&#45;&gt;p28 -->
<g id="edge32" class="edge"><title>p26&#45;&gt;p28</title>
<path fill="none" stroke="black" d="M799.177,-648.143C796.996,-641.115 790.371,-622.91 778,-614 766.214,-605.51 752.768,-599.012 738.785,-594.048"/>
<polygon fill="black" stroke="black" points="739.626,-590.64 729.033,-590.851 737.445,-597.292 739.626,-590.64"/>
<text text-anchor="middle" x="810.5" y="-618.3" font-family="Times,serif" font-size="14.00">meta</text>
</g>
<!-- p27 -->
<g id="node30" class="node"><title>p27</title>
<ellipse fill="black" stroke="black" cx="388" cy="-652" rx="3.6" ry="3.6"/>
</g>
<!-- p27&#45;&gt;p28 -->
<g id="edge33" class="edge"><title>p27&#45;&gt;p28</title>
<path fill="none" stroke="black" d="M387.034,-648.257C384.842,-641.489 380.329,-623.832 389,-614 400.562,-600.891 430.749,-592.652 465.515,-587.487"/>
<polygon fill="black" stroke="black" points="466.007,-590.952 475.43,-586.11 465.044,-584.019 466.007,-590.952"/>
<text text-anchor="middle" x="424" y="-618.3" font-family="Times,serif" font-size="14.00">reference</text>
</g>
<!-- p32 -->
<g id="node33" class="node"><title>p32</title>
<ellipse fill="none" stroke="black" cx="634" cy="-430" rx="179.076" ry="18"/>
<text text-anchor="middle" x="634" y="-426.3" font-family="Times,serif" font-size="14.00">CNV_PLOTTER_01:MERGE_PLOTS</text>
</g>
<!-- p30&#45;&gt;p32 -->
<g id="edge37" class="edge"><title>p30&#45;&gt;p32</title>
<path fill="none" stroke="black" d="M617.646,-500.265C619.278,-493.354 623.711,-474.578 627.55,-458.316"/>
<polygon fill="black" stroke="black" points="631.061,-458.68 629.952,-448.143 624.248,-457.071 631.061,-458.68"/>
</g>
<!-- p34 -->
<g id="node36" class="node"><title>p34</title>
<ellipse fill="none" stroke="black" cx="896" cy="-296" rx="3.25" ry="3.5"/>
<text text-anchor="middle" x="868" y="-303.3" font-family="Times,serif" font-size="14.00">collect</text>
</g>
<!-- p33&#45;&gt;p34 -->
<g id="edge41" class="edge"><title>p33&#45;&gt;p34</title>
<path fill="none" stroke="black" d="M847.191,-352.508C854.003,-344.761 875.075,-320.797 887.189,-307.021"/>
<polygon fill="black" stroke="black" points="890.119,-308.989 894.094,-299.168 884.862,-304.366 890.119,-308.989"/>
<text text-anchor="middle" x="916" y="-322.3" font-family="Times,serif" font-size="14.00">version_ch</text>
</g>
<!-- p41 -->
<g id="node35" class="node"><title>p41</title>
<ellipse fill="none" stroke="black" cx="737" cy="-60" rx="56.3173" ry="18"/>
<text text-anchor="middle" x="737" y="-56.3" font-family="Times,serif" font-size="14.00">PUBLISH</text>
</g>
<!-- p32&#45;&gt;p41 -->
<g id="edge39" class="edge"><title>p32&#45;&gt;p41</title>
<path fill="none" stroke="black" d="M626.439,-411.911C620.775,-397.55 614,-376.33 614,-357 614,-357 614,-357 614,-133 614,-100.149 647.082,-82.0067 678.933,-72.1526"/>
<polygon fill="black" stroke="black" points="680.085,-75.4637 688.74,-69.3534 678.164,-68.7325 680.085,-75.4637"/>
<text text-anchor="middle" x="625" y="-262.3" font-family="Times,serif" font-size="14.00">zip</text>
</g>
<!-- p32&#45;&gt;p33 -->
<g id="edge40" class="edge"><title>p32&#45;&gt;p33</title>
<path fill="none" stroke="black" d="M682.143,-412.572C731.099,-395.867 803.73,-371.083 832.557,-361.246"/>
<polygon fill="black" stroke="black" points="833.699,-364.554 842.033,-358.012 831.438,-357.93 833.699,-364.554"/>
</g>
<!-- p31 -->
<g id="node34" class="node"><title>p31</title>
<ellipse fill="black" stroke="black" cx="650" cy="-504" rx="3.6" ry="3.6"/>
</g>
<!-- p31&#45;&gt;p32 -->
<g id="edge38" class="edge"><title>p31&#45;&gt;p32</title>
<path fill="none" stroke="black" d="M649.392,-500.265C647.856,-493.354 643.684,-474.578 640.07,-458.316"/>
<polygon fill="black" stroke="black" points="643.396,-457.145 637.81,-448.143 636.562,-458.664 643.396,-457.145"/>
<text text-anchor="middle" x="664.5" y="-470.3" font-family="Times,serif" font-size="14.00">meta</text>
</g>
<!-- p44 -->
<g id="node43" class="node"><title>p44</title>
<ellipse fill="black" stroke="black" cx="712" cy="-2" rx="1.8" ry="1.8"/>
</g>
<!-- p41&#45;&gt;p44 -->
<g id="edge50" class="edge"><title>p41&#45;&gt;p44</title>
<path fill="none" stroke="black" d="M729.363,-41.8939C725.192,-32.5499 720.164,-21.2883 716.595,-13.2932"/>
<polygon fill="black" stroke="black" points="719.717,-11.7003 712.445,-3.99575 713.325,-14.5539 719.717,-11.7003"/>
</g>
<!-- p43 -->
<g id="node44" class="node"><title>p43</title>
<ellipse fill="black" stroke="black" cx="737" cy="-2" rx="1.8" ry="1.8"/>
</g>
<!-- p41&#45;&gt;p43 -->
<g id="edge51" class="edge"><title>p41&#45;&gt;p43</title>
<path fill="none" stroke="black" d="M737,-41.8939C737,-32.8876 737,-22.0999 737,-14.1727"/>
<polygon fill="black" stroke="black" points="740.5,-13.9957 737,-3.99575 733.5,-13.9958 740.5,-13.9957"/>
</g>
<!-- p42 -->
<g id="node45" class="node"><title>p42</title>
<ellipse fill="black" stroke="black" cx="762" cy="-2" rx="1.8" ry="1.8"/>
</g>
<!-- p41&#45;&gt;p42 -->
<g id="edge52" class="edge"><title>p41&#45;&gt;p42</title>
<path fill="none" stroke="black" d="M744.637,-41.8939C748.808,-32.5499 753.836,-21.2883 757.405,-13.2932"/>
<polygon fill="black" stroke="black" points="760.675,-14.5539 761.555,-3.99575 754.283,-11.7003 760.675,-14.5539"/>
</g>
<!-- p38 -->
<g id="node37" class="node"><title>p38</title>
<ellipse fill="none" stroke="black" cx="835" cy="-222" rx="193.049" ry="18"/>
<text text-anchor="middle" x="835" y="-218.3" font-family="Times,serif" font-size="14.00">CNV_PLOTTER_01:MERGE_VERSION</text>
</g>
<!-- p34&#45;&gt;p38 -->
<g id="edge42" class="edge"><title>p34&#45;&gt;p38</title>
<path fill="none" stroke="black" d="M898.69,-293.466C903.631,-290.473 914.012,-283.32 918,-274 920.797,-267.462 921.932,-263.925 918,-258 914.621,-252.908 910.339,-248.555 905.51,-244.834"/>
<polygon fill="black" stroke="black" points="907.197,-241.753 896.927,-239.15 903.332,-247.589 907.197,-241.753"/>
</g>
<!-- p40 -->
<g id="node41" class="node"><title>p40</title>
<ellipse fill="none" stroke="black" cx="920" cy="-134" rx="111.186" ry="18"/>
<text text-anchor="middle" x="920" y="-130.3" font-family="Times,serif" font-size="14.00">VERSION_TO_HTML</text>
</g>
<!-- p38&#45;&gt;p40 -->
<g id="edge46" class="edge"><title>p38&#45;&gt;p40</title>
<path fill="none" stroke="black" d="M851.793,-204.009C864.483,-191.17 882.07,-173.376 896.207,-159.072"/>
<polygon fill="black" stroke="black" points="898.701,-161.528 903.242,-151.956 893.723,-156.607 898.701,-161.528"/>
</g>
<!-- p38&#45;&gt;p41 -->
<g id="edge49" class="edge"><title>p38&#45;&gt;p41</title>
<path fill="none" stroke="black" d="M801.373,-204.014C781.757,-192.226 758.485,-174.587 746,-152 735.293,-132.629 733.579,-107.368 734.238,-88.3775"/>
<polygon fill="black" stroke="black" points="737.738,-88.4686 734.828,-78.2814 730.75,-88.0601 737.738,-88.4686"/>
<text text-anchor="middle" x="772.5" y="-130.3" font-family="Times,serif" font-size="14.00">version</text>
</g>
<!-- p35 -->
<g id="node38" class="node"><title>p35</title>
<ellipse fill="black" stroke="black" cx="712" cy="-296" rx="3.6" ry="3.6"/>
</g>
<!-- p35&#45;&gt;p38 -->
<g id="edge43" class="edge"><title>p35&#45;&gt;p38</title>
<path fill="none" stroke="black" d="M713.44,-292.257C717.124,-285.487 727.559,-267.826 741,-258 748.908,-252.219 757.879,-247.289 767.064,-243.115"/>
<polygon fill="black" stroke="black" points="768.458,-246.326 776.289,-239.189 765.717,-239.885 768.458,-246.326"/>
<text text-anchor="middle" x="759.5" y="-262.3" font-family="Times,serif" font-size="14.00">meta</text>
</g>
<!-- p36 -->
<g id="node39" class="node"><title>p36</title>
<ellipse fill="black" stroke="black" cx="772" cy="-296" rx="3.6" ry="3.6"/>
</g>
<!-- p36&#45;&gt;p38 -->
<g id="edge44" class="edge"><title>p36&#45;&gt;p38</title>
<path fill="none" stroke="black" d="M772.877,-292.451C775.141,-286.124 781.662,-269.393 791,-258 794.318,-253.952 798.177,-250.064 802.204,-246.447"/>
<polygon fill="black" stroke="black" points="804.65,-248.963 810.058,-239.853 800.149,-243.602 804.65,-248.963"/>
<text text-anchor="middle" x="811" y="-262.3" font-family="Times,serif" font-size="14.00">name</text>
</g>
<!-- p37 -->
<g id="node40" class="node"><title>p37</title>
<ellipse fill="black" stroke="black" cx="835" cy="-296" rx="3.6" ry="3.6"/>
</g>
<!-- p37&#45;&gt;p38 -->
<g id="edge45" class="edge"><title>p37&#45;&gt;p38</title>
<path fill="none" stroke="black" d="M835,-292.265C835,-285.354 835,-266.578 835,-250.316"/>
<polygon fill="black" stroke="black" points="838.5,-250.143 835,-240.143 831.5,-250.143 838.5,-250.143"/>
<text text-anchor="middle" x="876" y="-262.3" font-family="Times,serif" font-size="14.00">description</text>
</g>
<!-- p40&#45;&gt;p41 -->
<g id="edge48" class="edge"><title>p40&#45;&gt;p41</title>
<path fill="none" stroke="black" d="M879.84,-117.199C850.504,-105.657 810.758,-90.0196 780.64,-78.1699"/>
<polygon fill="black" stroke="black" points="781.813,-74.8701 771.225,-74.4658 779.25,-81.3841 781.813,-74.8701"/>
</g>
<!-- p39 -->
<g id="node42" class="node"><title>p39</title>
<ellipse fill="black" stroke="black" cx="1050" cy="-222" rx="3.6" ry="3.6"/>
</g>
<!-- p39&#45;&gt;p40 -->
<g id="edge47" class="edge"><title>p39&#45;&gt;p40</title>
<path fill="none" stroke="black" d="M1048.42,-218.328C1046.2,-214.747 1041.89,-208.338 1037,-204 1015.19,-184.664 987.171,-167.915 964.018,-155.763"/>
<polygon fill="black" stroke="black" points="965.576,-152.628 955.082,-151.171 962.377,-158.855 965.576,-152.628"/>
<text text-anchor="middle" x="1032.5" y="-174.3" font-family="Times,serif" font-size="14.00">meta</text>
</g>
</g>
</svg>
