<?xml version="1.0" encoding="UTF-8" standalone="no"?>
<!DOCTYPE svg PUBLIC "-//W3C//DTD SVG 1.1//EN"
 "http://www.w3.org/Graphics/SVG/1.1/DTD/svg11.dtd">
<!-- Generated by graphviz version 2.30.1 (20201013.1554)
 -->
<!-- Title: 20220826hs37d5genmedcnvworkflow Pages: 1 -->
<svg width="1455pt" height="1416pt"
 viewBox="0.00 0.00 1455.00 1416.00" xmlns="http://www.w3.org/2000/svg" xmlns:xlink="http://www.w3.org/1999/xlink">
<g id="graph0" class="graph" transform="scale(1 1) rotate(0) translate(4 1412)">
<title>20220826hs37d5genmedcnvworkflow</title>
<polygon fill="white" stroke="white" points="-4,5 -4,-1412 1452,-1412 1452,5 -4,5"/>
<!-- p0 -->
<g id="node1" class="node"><title>p0</title>
<ellipse fill="black" stroke="black" cx="1073" cy="-1330" rx="3.6" ry="3.6"/>
<text text-anchor="middle" x="1014.9" y="-1337.4" font-family="Times,serif" font-size="14.00">Channel.empty</text>
</g>
<!-- p5 -->
<g id="node2" class="node"><title>p5</title>
<ellipse fill="none" stroke="black" cx="1073" cy="-1242" rx="3.25" ry="3.5"/>
<text text-anchor="middle" x="1056" y="-1249.3" font-family="Times,serif" font-size="14.00">mix</text>
</g>
<!-- p0&#45;&gt;p5 -->
<g id="edge1" class="edge"><title>p0&#45;&gt;p5</title>
<path fill="none" stroke="black" d="M1073,-1326.14C1073,-1315.28 1073,-1276.21 1073,-1255.73"/>
<polygon fill="black" stroke="black" points="1076.5,-1255.61 1073,-1245.61 1069.5,-1255.61 1076.5,-1255.61"/>
<text text-anchor="middle" x="1112" y="-1282.3" font-family="Times,serif" font-size="14.00">version_ch</text>
</g>
<!-- p11 -->
<g id="node8" class="node"><title>p11</title>
<ellipse fill="none" stroke="black" cx="1009" cy="-1154" rx="3.25" ry="3.5"/>
<text text-anchor="middle" x="992" y="-1161.3" font-family="Times,serif" font-size="14.00">mix</text>
</g>
<!-- p5&#45;&gt;p11 -->
<g id="edge7" class="edge"><title>p5&#45;&gt;p11</title>
<path fill="none" stroke="black" d="M1071.23,-1238.67C1063.29,-1228.22 1030.9,-1185.57 1021,-1172 1019.59,-1170.07 1018.12,-1168.01 1016.7,-1166.01"/>
<polygon fill="black" stroke="black" points="1019.29,-1163.62 1010.69,-1157.44 1013.56,-1167.64 1019.29,-1163.62"/>
<text text-anchor="middle" x="1084" y="-1194.3" font-family="Times,serif" font-size="14.00">version_ch</text>
</g>
<!-- p1 -->
<g id="node3" class="node"><title>p1</title>
<ellipse fill="black" stroke="black" cx="548" cy="-1404" rx="3.6" ry="3.6"/>
</g>
<!-- p4 -->
<g id="node4" class="node"><title>p4</title>
<ellipse fill="none" stroke="black" cx="608" cy="-1330" rx="226.27" ry="18"/>
<text text-anchor="middle" x="608" y="-1326.3" font-family="Times,serif" font-size="14.00">CNV_PLOTTER_01:SAMTOOLS_SAMPLES01</text>
</g>
<!-- p1&#45;&gt;p4 -->
<g id="edge2" class="edge"><title>p1&#45;&gt;p4</title>
<path fill="none" stroke="black" d="M548.902,-1400.47C551.222,-1394.19 557.86,-1377.55 567,-1366 570.034,-1362.16 573.537,-1358.44 577.192,-1354.93"/>
<polygon fill="black" stroke="black" points="579.707,-1357.38 584.805,-1348.09 575.028,-1352.17 579.707,-1357.38"/>
<text text-anchor="middle" x="585.5" y="-1370.3" font-family="Times,serif" font-size="14.00">meta</text>
</g>
<!-- p38 -->
<g id="node7" class="node"><title>p38</title>
<ellipse fill="none" stroke="black" cx="494" cy="-802" rx="3.25" ry="3.5"/>
<text text-anchor="middle" x="460" y="-809.3" font-family="Times,serif" font-size="14.00">combine</text>
</g>
<!-- p4&#45;&gt;p38 -->
<g id="edge5" class="edge"><title>p4&#45;&gt;p38</title>
<path fill="none" stroke="black" d="M556.669,-1312.4C526.411,-1299.04 494,-1276.84 494,-1243 494,-1243 494,-1243 494,-889 494,-863.081 494,-832.769 494,-815.94"/>
<polygon fill="black" stroke="black" points="497.5,-815.675 494,-805.675 490.5,-815.675 497.5,-815.675"/>
</g>
<!-- p4&#45;&gt;p5 -->
<g id="edge6" class="edge"><title>p4&#45;&gt;p5</title>
<path fill="none" stroke="black" d="M741.63,-1315.44C791.195,-1309.75 847.793,-1302.47 899,-1294 971.153,-1282.07 998.155,-1299.04 1060,-1260 1062.44,-1258.46 1064.59,-1256.29 1066.41,-1254.02"/>
<polygon fill="black" stroke="black" points="1069.47,-1255.73 1071.87,-1245.41 1063.56,-1251.99 1069.47,-1255.73"/>
</g>
<!-- p2 -->
<g id="node5" class="node"><title>p2</title>
<ellipse fill="black" stroke="black" cx="608" cy="-1404" rx="3.6" ry="3.6"/>
</g>
<!-- p2&#45;&gt;p4 -->
<g id="edge3" class="edge"><title>p2&#45;&gt;p4</title>
<path fill="none" stroke="black" d="M608,-1400.27C608,-1393.35 608,-1374.58 608,-1358.32"/>
<polygon fill="black" stroke="black" points="611.5,-1358.14 608,-1348.14 604.5,-1358.14 611.5,-1358.14"/>
<text text-anchor="middle" x="643" y="-1370.3" font-family="Times,serif" font-size="14.00">reference</text>
</g>
<!-- p3 -->
<g id="node6" class="node"><title>p3</title>
<ellipse fill="black" stroke="black" cx="701" cy="-1404" rx="3.6" ry="3.6"/>
</g>
<!-- p3&#45;&gt;p4 -->
<g id="edge4" class="edge"><title>p3&#45;&gt;p4</title>
<path fill="none" stroke="black" d="M700.031,-1400.32C697.518,-1393.7 690.195,-1376.35 679,-1366 673.589,-1361 667.329,-1356.55 660.814,-1352.66"/>
<polygon fill="black" stroke="black" points="662.27,-1349.46 651.827,-1347.68 658.878,-1355.59 662.27,-1349.46"/>
<text text-anchor="middle" x="711.5" y="-1370.3" font-family="Times,serif" font-size="14.00">bams</text>
</g>
<!-- p39 -->
<g id="node42" class="node"><title>p39</title>
<ellipse fill="none" stroke="black" cx="640" cy="-724" rx="3.25" ry="3.5"/>
<text text-anchor="middle" x="621" y="-731.3" font-family="Times,serif" font-size="14.00">map</text>
</g>
<!-- p38&#45;&gt;p39 -->
<g id="edge46" class="edge"><title>p38&#45;&gt;p39</title>
<path fill="none" stroke="black" d="M496.534,-799.681C512.248,-791.501 596.737,-747.52 628.192,-731.147"/>
<polygon fill="black" stroke="black" points="630.142,-734.077 637.396,-726.355 626.91,-727.868 630.142,-734.077"/>
</g>
<!-- p17 -->
<g id="node15" class="node"><title>p17</title>
<ellipse fill="none" stroke="black" cx="1038" cy="-1066" rx="3.25" ry="3.5"/>
<text text-anchor="middle" x="1021" y="-1073.3" font-family="Times,serif" font-size="14.00">mix</text>
</g>
<!-- p11&#45;&gt;p17 -->
<g id="edge14" class="edge"><title>p11&#45;&gt;p17</title>
<path fill="none" stroke="black" d="M1009.84,-1150.52C1013.33,-1140.16 1026.89,-1099.96 1033.84,-1079.34"/>
<polygon fill="black" stroke="black" points="1037.22,-1080.25 1037.1,-1069.66 1030.59,-1078.02 1037.22,-1080.25"/>
<text text-anchor="middle" x="1065" y="-1106.3" font-family="Times,serif" font-size="14.00">version_ch</text>
</g>
<!-- p6 -->
<g id="node9" class="node"><title>p6</title>
<ellipse fill="black" stroke="black" cx="1048" cy="-1242" rx="3.6" ry="3.6"/>
<text text-anchor="middle" x="1098.9" y="-1227.2" font-family="Times,serif" font-size="14.00">Channel.empty</text>
</g>
<!-- p12 -->
<g id="node10" class="node"><title>p12</title>
<ellipse fill="none" stroke="black" cx="919" cy="-1154" rx="3.25" ry="3.5"/>
<text text-anchor="middle" x="902" y="-1161.3" font-family="Times,serif" font-size="14.00">mix</text>
</g>
<!-- p6&#45;&gt;p12 -->
<g id="edge8" class="edge"><title>p6&#45;&gt;p12</title>
<path fill="none" stroke="black" d="M1046.73,-1238.36C1044.76,-1234.56 1040.61,-1227.64 1035,-1224 1005.87,-1205.11 988.241,-1224.71 959,-1206 943.484,-1196.07 931.457,-1177.99 924.8,-1166.24"/>
<polygon fill="black" stroke="black" points="927.89,-1164.6 920.125,-1157.39 921.7,-1167.86 927.89,-1164.6"/>
<text text-anchor="middle" x="994.5" y="-1194.3" font-family="Times,serif" font-size="14.00">merge_ch</text>
</g>
<!-- p18 -->
<g id="node16" class="node"><title>p18</title>
<ellipse fill="none" stroke="black" cx="991" cy="-1066" rx="3.25" ry="3.5"/>
<text text-anchor="middle" x="1001" y="-1051.3" font-family="Times,serif" font-size="14.00">mix</text>
</g>
<!-- p12&#45;&gt;p18 -->
<g id="edge15" class="edge"><title>p12&#45;&gt;p18</title>
<path fill="none" stroke="black" d="M918.079,-1150.33C915.436,-1142.13 908.717,-1117.01 920,-1102 936.221,-1080.43 955.868,-1099.45 978,-1084 980.365,-1082.35 982.491,-1080.14 984.305,-1077.85"/>
<polygon fill="black" stroke="black" points="987.317,-1079.64 989.824,-1069.35 981.445,-1075.83 987.317,-1079.64"/>
<text text-anchor="middle" x="955.5" y="-1106.3" font-family="Times,serif" font-size="14.00">merge_ch</text>
</g>
<!-- p7 -->
<g id="node11" class="node"><title>p7</title>
<ellipse fill="black" stroke="black" cx="360" cy="-1330" rx="3.6" ry="3.6"/>
</g>
<!-- p9 -->
<g id="node12" class="node"><title>p9</title>
<ellipse fill="none" stroke="black" cx="774" cy="-1242" rx="252.266" ry="18"/>
<text text-anchor="middle" x="774" y="-1238.3" font-family="Times,serif" font-size="14.00">CNV_PLOTTER_01:DOWNLOAD_GNOMAD_SV_01</text>
</g>
<!-- p7&#45;&gt;p9 -->
<g id="edge9" class="edge"><title>p7&#45;&gt;p9</title>
<path fill="none" stroke="black" d="M361.119,-1326.56C362.994,-1322.77 367.151,-1315.54 373,-1312 414.043,-1287.16 524.407,-1269.26 618.984,-1257.92"/>
<polygon fill="black" stroke="black" points="619.442,-1261.39 628.962,-1256.74 618.62,-1254.44 619.442,-1261.39"/>
<text text-anchor="middle" x="502.5" y="-1282.3" font-family="Times,serif" font-size="14.00">meta</text>
</g>
<!-- p9&#45;&gt;p12 -->
<g id="edge11" class="edge"><title>p9&#45;&gt;p12</title>
<path fill="none" stroke="black" d="M802.647,-1224.01C834.843,-1204.91 885.521,-1174.86 907.828,-1161.63"/>
<polygon fill="black" stroke="black" points="909.664,-1164.61 916.479,-1156.49 906.093,-1158.59 909.664,-1164.61"/>
</g>
<!-- p10 -->
<g id="node14" class="node"><title>p10</title>
<ellipse fill="black" stroke="black" cx="725" cy="-1154" rx="1.8" ry="1.8"/>
</g>
<!-- p9&#45;&gt;p10 -->
<g id="edge12" class="edge"><title>p9&#45;&gt;p10</title>
<path fill="none" stroke="black" d="M764.319,-1224.01C754.24,-1206.32 738.801,-1179.22 730.59,-1164.81"/>
<polygon fill="black" stroke="black" points="733.433,-1162.73 725.441,-1155.77 727.351,-1166.2 733.433,-1162.73"/>
</g>
<!-- p9&#45;&gt;p11 -->
<g id="edge13" class="edge"><title>p9&#45;&gt;p11</title>
<path fill="none" stroke="black" d="M932.095,-1227.97C960.211,-1222.88 984.036,-1215.81 995,-1206 1005.65,-1196.47 1008.53,-1179.67 1009.14,-1167.96"/>
<polygon fill="black" stroke="black" points="1012.64,-1167.87 1009.19,-1157.85 1005.64,-1167.84 1012.64,-1167.87"/>
</g>
<!-- p8 -->
<g id="node13" class="node"><title>p8</title>
<ellipse fill="black" stroke="black" cx="856" cy="-1330" rx="3.6" ry="3.6"/>
</g>
<!-- p8&#45;&gt;p9 -->
<g id="edge10" class="edge"><title>p8&#45;&gt;p9</title>
<path fill="none" stroke="black" d="M854.247,-1326.5C851.837,-1323.11 847.308,-1316.92 843,-1312 829.38,-1296.44 813.064,-1280.04 799.718,-1267.13"/>
<polygon fill="black" stroke="black" points="801.886,-1264.36 792.246,-1259.96 797.042,-1269.41 801.886,-1264.36"/>
<text text-anchor="middle" x="860" y="-1282.3" font-family="Times,serif" font-size="14.00">reference</text>
</g>
<!-- p23 -->
<g id="node21" class="node"><title>p23</title>
<ellipse fill="none" stroke="black" cx="956" cy="-802" rx="3.25" ry="3.5"/>
<text text-anchor="middle" x="939" y="-809.3" font-family="Times,serif" font-size="14.00">mix</text>
</g>
<!-- p17&#45;&gt;p23 -->
<g id="edge21" class="edge"><title>p17&#45;&gt;p23</title>
<path fill="none" stroke="black" d="M1037.19,-1062.41C1029.86,-1038.99 975.015,-863.755 959.866,-815.353"/>
<polygon fill="black" stroke="black" points="963.145,-814.112 956.818,-805.614 956.465,-816.203 963.145,-814.112"/>
<text text-anchor="middle" x="1037" y="-930.3" font-family="Times,serif" font-size="14.00">version_ch</text>
</g>
<!-- p19 -->
<g id="node22" class="node"><title>p19</title>
<ellipse fill="none" stroke="black" cx="713" cy="-978" rx="3.25" ry="3.5"/>
<text text-anchor="middle" x="685" y="-985.3" font-family="Times,serif" font-size="14.00">collect</text>
</g>
<!-- p18&#45;&gt;p19 -->
<g id="edge22" class="edge"><title>p18&#45;&gt;p19</title>
<path fill="none" stroke="black" d="M989.866,-1062.59C987.97,-1058.83 983.785,-1051.64 978,-1048 930.165,-1017.88 778.312,-1023.63 729,-996 725.884,-994.254 723.018,-991.695 720.598,-989.091"/>
<polygon fill="black" stroke="black" points="723.309,-986.876 714.38,-981.173 717.803,-991.199 723.309,-986.876"/>
<text text-anchor="middle" x="953.5" y="-1018.3" font-family="Times,serif" font-size="14.00">merge_ch</text>
</g>
<!-- p13 -->
<g id="node17" class="node"><title>p13</title>
<ellipse fill="black" stroke="black" cx="1285" cy="-1242" rx="3.6" ry="3.6"/>
</g>
<!-- p15 -->
<g id="node18" class="node"><title>p15</title>
<ellipse fill="none" stroke="black" cx="1239" cy="-1154" rx="208.447" ry="18"/>
<text text-anchor="middle" x="1239" y="-1150.3" font-family="Times,serif" font-size="14.00">CNV_PLOTTER_01:DOWNLOAD_DGV_01</text>
</g>
<!-- p13&#45;&gt;p15 -->
<g id="edge16" class="edge"><title>p13&#45;&gt;p15</title>
<path fill="none" stroke="black" d="M1283.99,-1238.15C1281.16,-1230.25 1272.69,-1207.56 1263,-1190 1261.27,-1186.87 1259.34,-1183.68 1257.34,-1180.55"/>
<polygon fill="black" stroke="black" points="1260.12,-1178.39 1251.65,-1172.02 1254.29,-1182.28 1260.12,-1178.39"/>
<text text-anchor="middle" x="1288.5" y="-1194.3" font-family="Times,serif" font-size="14.00">meta</text>
</g>
<!-- p15&#45;&gt;p18 -->
<g id="edge18" class="edge"><title>p15&#45;&gt;p18</title>
<path fill="none" stroke="black" d="M1099.7,-1140.61C1064.82,-1135.36 1033.27,-1128.04 1019,-1118 1006,-1108.85 998.405,-1091.68 994.479,-1079.81"/>
<polygon fill="black" stroke="black" points="997.762,-1078.56 991.645,-1069.91 991.033,-1080.49 997.762,-1078.56"/>
</g>
<!-- p16 -->
<g id="node20" class="node"><title>p16</title>
<ellipse fill="black" stroke="black" cx="1239" cy="-1066" rx="1.8" ry="1.8"/>
</g>
<!-- p15&#45;&gt;p16 -->
<g id="edge19" class="edge"><title>p15&#45;&gt;p16</title>
<path fill="none" stroke="black" d="M1239,-1135.6C1239,-1118.52 1239,-1092.96 1239,-1078.35"/>
<polygon fill="black" stroke="black" points="1242.5,-1078.1 1239,-1068.1 1235.5,-1078.1 1242.5,-1078.1"/>
</g>
<!-- p15&#45;&gt;p17 -->
<g id="edge20" class="edge"><title>p15&#45;&gt;p17</title>
<path fill="none" stroke="black" d="M1199.77,-1136.21C1153.38,-1116.37 1078.84,-1084.47 1049.97,-1072.12"/>
<polygon fill="black" stroke="black" points="1051.17,-1068.83 1040.6,-1068.11 1048.42,-1075.26 1051.17,-1068.83"/>
</g>
<!-- p14 -->
<g id="node19" class="node"><title>p14</title>
<ellipse fill="black" stroke="black" cx="1192" cy="-1242" rx="3.6" ry="3.6"/>
</g>
<!-- p14&#45;&gt;p15 -->
<g id="edge17" class="edge"><title>p14&#45;&gt;p15</title>
<path fill="none" stroke="black" d="M1191,-1238.48C1188.07,-1230.71 1180.32,-1206.68 1189,-1190 1191.24,-1185.7 1194.27,-1181.82 1197.74,-1178.35"/>
<polygon fill="black" stroke="black" points="1200.07,-1180.96 1205.38,-1171.79 1195.51,-1175.66 1200.07,-1180.96"/>
<text text-anchor="middle" x="1224" y="-1194.3" font-family="Times,serif" font-size="14.00">reference</text>
</g>
<!-- p28 -->
<g id="node27" class="node"><title>p28</title>
<ellipse fill="none" stroke="black" cx="995" cy="-724" rx="3.25" ry="3.5"/>
<text text-anchor="middle" x="978" y="-731.3" font-family="Times,serif" font-size="14.00">mix</text>
</g>
<!-- p23&#45;&gt;p28 -->
<g id="edge28" class="edge"><title>p23&#45;&gt;p28</title>
<path fill="none" stroke="black" d="M957.298,-798.471C962.222,-788.876 979.941,-754.345 989.229,-736.247"/>
<polygon fill="black" stroke="black" points="992.363,-737.806 993.814,-727.311 986.135,-734.61 992.363,-737.806"/>
<text text-anchor="middle" x="1020" y="-754.3" font-family="Times,serif" font-size="14.00">version_ch</text>
</g>
<!-- p21 -->
<g id="node23" class="node"><title>p21</title>
<ellipse fill="none" stroke="black" cx="709" cy="-890" rx="187.275" ry="18"/>
<text text-anchor="middle" x="709" y="-886.3" font-family="Times,serif" font-size="14.00">CNV_PLOTTER_01:MERGE_KNOWN</text>
</g>
<!-- p19&#45;&gt;p21 -->
<g id="edge23" class="edge"><title>p19&#45;&gt;p21</title>
<path fill="none" stroke="black" d="M712.867,-974.139C712.465,-965.502 711.233,-939.011 710.266,-918.227"/>
<polygon fill="black" stroke="black" points="713.752,-917.83 709.791,-908.004 706.759,-918.156 713.752,-917.83"/>
</g>
<!-- p42 -->
<g id="node25" class="node"><title>p42</title>
<ellipse fill="none" stroke="black" cx="657" cy="-646" rx="158.379" ry="18"/>
<text text-anchor="middle" x="657" y="-642.3" font-family="Times,serif" font-size="14.00">CNV_PLOTTER_01:PLOT_CNV</text>
</g>
<!-- p21&#45;&gt;p42 -->
<g id="edge25" class="edge"><title>p21&#45;&gt;p42</title>
<path fill="none" stroke="black" d="M713.677,-871.899C722.833,-834.761 739.456,-745.013 706,-682 703.73,-677.724 700.677,-673.849 697.199,-670.371"/>
<polygon fill="black" stroke="black" points="699.434,-667.676 689.579,-663.787 694.857,-672.973 699.434,-667.676"/>
</g>
<!-- p22 -->
<g id="node26" class="node"><title>p22</title>
<ellipse fill="black" stroke="black" cx="694" cy="-802" rx="1.8" ry="1.8"/>
</g>
<!-- p21&#45;&gt;p22 -->
<g id="edge26" class="edge"><title>p21&#45;&gt;p22</title>
<path fill="none" stroke="black" d="M705.965,-871.597C702.985,-854.516 698.529,-828.965 695.979,-814.348"/>
<polygon fill="black" stroke="black" points="699.357,-813.345 694.191,-804.095 692.461,-814.548 699.357,-813.345"/>
</g>
<!-- p21&#45;&gt;p23 -->
<g id="edge27" class="edge"><title>p21&#45;&gt;p23</title>
<path fill="none" stroke="black" d="M756.332,-872.52C814.463,-852.28 909.531,-819.18 943.471,-807.362"/>
<polygon fill="black" stroke="black" points="944.989,-810.54 953.282,-803.946 942.687,-803.929 944.989,-810.54"/>
</g>
<!-- p20 -->
<g id="node24" class="node"><title>p20</title>
<ellipse fill="black" stroke="black" cx="742" cy="-978" rx="3.6" ry="3.6"/>
</g>
<!-- p20&#45;&gt;p21 -->
<g id="edge24" class="edge"><title>p20&#45;&gt;p21</title>
<path fill="none" stroke="black" d="M741.048,-974.519C737.873,-966.245 727.39,-938.926 719.269,-917.761"/>
<polygon fill="black" stroke="black" points="722.476,-916.35 715.626,-908.268 715.941,-918.858 722.476,-916.35"/>
<text text-anchor="middle" x="747.5" y="-930.3" font-family="Times,serif" font-size="14.00">meta</text>
</g>
<!-- p44 -->
<g id="node45" class="node"><title>p44</title>
<ellipse fill="none" stroke="black" cx="405" cy="-572" rx="3.25" ry="3.5"/>
<text text-anchor="middle" x="377" y="-579.3" font-family="Times,serif" font-size="14.00">collect</text>
</g>
<!-- p42&#45;&gt;p44 -->
<g id="edge50" class="edge"><title>p42&#45;&gt;p44</title>
<path fill="none" stroke="black" d="M601.386,-629.11C541.75,-612.071 451.142,-586.184 417.85,-576.672"/>
<polygon fill="black" stroke="black" points="418.658,-573.262 408.081,-573.88 416.735,-579.993 418.658,-573.262"/>
</g>
<!-- p43 -->
<g id="node41" class="node"><title>p43</title>
<ellipse fill="none" stroke="black" cx="701" cy="-498" rx="3.25" ry="3.5"/>
<text text-anchor="middle" x="711" y="-505.3" font-family="Times,serif" font-size="14.00">mix</text>
</g>
<!-- p42&#45;&gt;p43 -->
<g id="edge51" class="edge"><title>p42&#45;&gt;p43</title>
<path fill="none" stroke="black" d="M675.117,-627.883C679.711,-622.587 684.147,-616.439 687,-610 701.725,-576.763 702.402,-532.797 701.702,-511.554"/>
<polygon fill="black" stroke="black" points="705.197,-511.374 701.201,-501.562 698.206,-511.725 705.197,-511.374"/>
</g>
<!-- p32 -->
<g id="node32" class="node"><title>p32</title>
<ellipse fill="none" stroke="black" cx="924" cy="-646" rx="3.25" ry="3.5"/>
<text text-anchor="middle" x="907" y="-653.3" font-family="Times,serif" font-size="14.00">mix</text>
</g>
<!-- p28&#45;&gt;p32 -->
<g id="edge34" class="edge"><title>p28&#45;&gt;p32</title>
<path fill="none" stroke="black" d="M992.952,-720.807C984.204,-711.443 949.666,-674.474 933.039,-656.676"/>
<polygon fill="black" stroke="black" points="935.306,-653.975 925.922,-649.057 930.191,-658.754 935.306,-653.975"/>
<text text-anchor="middle" x="1009" y="-686.3" font-family="Times,serif" font-size="14.00">version_ch</text>
</g>
<!-- p24 -->
<g id="node28" class="node"><title>p24</title>
<ellipse fill="black" stroke="black" cx="1161" cy="-890" rx="3.6" ry="3.6"/>
</g>
<!-- p26 -->
<g id="node29" class="node"><title>p26</title>
<ellipse fill="none" stroke="black" cx="1191" cy="-802" rx="213.272" ry="18"/>
<text text-anchor="middle" x="1191" y="-798.3" font-family="Times,serif" font-size="14.00">CNV_PLOTTER_01:DOWNLOAD_GFF3_01</text>
</g>
<!-- p24&#45;&gt;p26 -->
<g id="edge29" class="edge"><title>p24&#45;&gt;p26</title>
<path fill="none" stroke="black" d="M1160.42,-886.115C1158.93,-878.143 1155.58,-855.267 1162,-838 1163.25,-834.644 1164.96,-831.377 1166.94,-828.275"/>
<polygon fill="black" stroke="black" points="1169.91,-830.146 1173.05,-820.026 1164.29,-825.981 1169.91,-830.146"/>
<text text-anchor="middle" x="1180.5" y="-842.3" font-family="Times,serif" font-size="14.00">meta</text>
</g>
<!-- p26&#45;&gt;p42 -->
<g id="edge31" class="edge"><title>p26&#45;&gt;p42</title>
<path fill="none" stroke="black" d="M1077.42,-786.763C1044.43,-781.486 1008.53,-774.627 976,-766 923.742,-752.142 783.289,-697.329 707.363,-667.165"/>
<polygon fill="black" stroke="black" points="708.573,-663.88 697.987,-663.435 705.985,-670.384 708.573,-663.88"/>
</g>
<!-- p27 -->
<g id="node31" class="node"><title>p27</title>
<ellipse fill="black" stroke="black" cx="1191" cy="-724" rx="1.8" ry="1.8"/>
</g>
<!-- p26&#45;&gt;p27 -->
<g id="edge32" class="edge"><title>p26&#45;&gt;p27</title>
<path fill="none" stroke="black" d="M1191,-783.754C1191,-769.149 1191,-748.642 1191,-736.119"/>
<polygon fill="black" stroke="black" points="1194.5,-735.917 1191,-725.917 1187.5,-735.917 1194.5,-735.917"/>
</g>
<!-- p26&#45;&gt;p28 -->
<g id="edge33" class="edge"><title>p26&#45;&gt;p28</title>
<path fill="none" stroke="black" d="M1149.89,-784.296C1124.85,-774.199 1092.15,-761.164 1063,-750 1043.75,-742.63 1021.29,-734.453 1007.61,-729.521"/>
<polygon fill="black" stroke="black" points="1008.46,-726.106 997.861,-726.021 1006.09,-732.694 1008.46,-726.106"/>
</g>
<!-- p25 -->
<g id="node30" class="node"><title>p25</title>
<ellipse fill="black" stroke="black" cx="1221" cy="-890" rx="3.6" ry="3.6"/>
</g>
<!-- p25&#45;&gt;p26 -->
<g id="edge30" class="edge"><title>p25&#45;&gt;p26</title>
<path fill="none" stroke="black" d="M1220,-886.139C1216.96,-877.422 1207.58,-850.523 1200.3,-829.657"/>
<polygon fill="black" stroke="black" points="1203.53,-828.293 1196.93,-820.004 1196.92,-830.599 1203.53,-828.293"/>
<text text-anchor="middle" x="1243" y="-842.3" font-family="Times,serif" font-size="14.00">reference</text>
</g>
<!-- p36 -->
<g id="node37" class="node"><title>p36</title>
<ellipse fill="none" stroke="black" cx="608" cy="-572" rx="3.25" ry="3.5"/>
<text text-anchor="middle" x="591" y="-579.3" font-family="Times,serif" font-size="14.00">mix</text>
</g>
<!-- p32&#45;&gt;p36 -->
<g id="edge39" class="edge"><title>p32&#45;&gt;p36</title>
<path fill="none" stroke="black" d="M920.872,-644.287C892.328,-637.784 676.759,-588.667 621.088,-575.982"/>
<polygon fill="black" stroke="black" points="621.681,-572.528 611.153,-573.718 620.126,-579.353 621.681,-572.528"/>
<text text-anchor="middle" x="805" y="-598.3" font-family="Times,serif" font-size="14.00">version_ch</text>
</g>
<!-- p29 -->
<g id="node33" class="node"><title>p29</title>
<ellipse fill="black" stroke="black" cx="748" cy="-1154" rx="3.6" ry="3.6"/>
</g>
<!-- p31 -->
<g id="node34" class="node"><title>p31</title>
<ellipse fill="none" stroke="black" cx="748" cy="-1066" rx="221.445" ry="18"/>
<text text-anchor="middle" x="748" y="-1062.3" font-family="Times,serif" font-size="14.00">CNV_PLOTTER_01:COMPILE_VCF_PARSER</text>
</g>
<!-- p29&#45;&gt;p31 -->
<g id="edge35" class="edge"><title>p29&#45;&gt;p31</title>
<path fill="none" stroke="black" d="M748,-1150.14C748,-1141.5 748,-1115.01 748,-1094.23"/>
<polygon fill="black" stroke="black" points="751.5,-1094 748,-1084 744.5,-1094 751.5,-1094"/>
<text text-anchor="middle" x="766.5" y="-1106.3" font-family="Times,serif" font-size="14.00">meta</text>
</g>
<!-- p35 -->
<g id="node36" class="node"><title>p35</title>
<ellipse fill="none" stroke="black" cx="276" cy="-978" rx="190.15" ry="18"/>
<text text-anchor="middle" x="276" y="-974.3" font-family="Times,serif" font-size="14.00">CNV_PLOTTER_01:SPLIT_VARIANTS</text>
</g>
<!-- p31&#45;&gt;p35 -->
<g id="edge37" class="edge"><title>p31&#45;&gt;p35</title>
<path fill="none" stroke="black" d="M662.251,-1049.38C579.545,-1034.31 454.696,-1011.56 369.481,-996.033"/>
<polygon fill="black" stroke="black" points="370.016,-992.572 359.551,-994.223 368.761,-999.459 370.016,-992.572"/>
</g>
<!-- p31&#45;&gt;p32 -->
<g id="edge38" class="edge"><title>p31&#45;&gt;p32</title>
<path fill="none" stroke="black" d="M856.392,-1050.26C880.274,-1045.09 901.118,-1038.41 910,-1030 927.072,-1013.84 924,-1002.51 924,-979 924,-979 924,-979 924,-723 924,-700.753 924,-674.843 924,-659.745"/>
<polygon fill="black" stroke="black" points="927.5,-659.625 924,-649.625 920.5,-659.625 927.5,-659.625"/>
</g>
<!-- p30 -->
<g id="node35" class="node"><title>p30</title>
<ellipse fill="black" stroke="black" cx="808" cy="-1154" rx="3.6" ry="3.6"/>
</g>
<!-- p30&#45;&gt;p31 -->
<g id="edge36" class="edge"><title>p30&#45;&gt;p31</title>
<path fill="none" stroke="black" d="M807.193,-1150.02C804.874,-1141.8 797.603,-1118.36 786,-1102 783.36,-1098.28 780.269,-1094.65 777.01,-1091.23"/>
<polygon fill="black" stroke="black" points="779.319,-1088.6 769.717,-1084.12 774.431,-1093.61 779.319,-1088.6"/>
<text text-anchor="middle" x="831" y="-1106.3" font-family="Times,serif" font-size="14.00">reference</text>
</g>
<!-- p37 -->
<g id="node40" class="node"><title>p37</title>
<ellipse fill="none" stroke="black" cx="462" cy="-890" rx="3.25" ry="3.5"/>
<text text-anchor="middle" x="429" y="-897.3" font-family="Times,serif" font-size="14.00">splitCsv</text>
</g>
<!-- p35&#45;&gt;p37 -->
<g id="edge42" class="edge"><title>p35&#45;&gt;p37</title>
<path fill="none" stroke="black" d="M383.576,-963.067C410.146,-957.77 433.907,-950.825 444,-942 455.005,-932.378 459.282,-915.597 460.944,-903.923"/>
<polygon fill="black" stroke="black" points="464.44,-904.13 461.916,-893.841 457.472,-903.459 464.44,-904.13"/>
</g>
<!-- p35&#45;&gt;p36 -->
<g id="edge43" class="edge"><title>p35&#45;&gt;p36</title>
<path fill="none" stroke="black" d="M358.41,-961.687C395.025,-949.642 430,-928.36 430,-891 430,-891 430,-891 430,-645 430,-609.429 553.705,-583.128 594.862,-575.361"/>
<polygon fill="black" stroke="black" points="595.7,-578.766 604.91,-573.529 594.445,-571.88 595.7,-578.766"/>
</g>
<!-- p46 -->
<g id="node47" class="node"><title>p46</title>
<ellipse fill="none" stroke="black" cx="179" cy="-498" rx="179.076" ry="18"/>
<text text-anchor="middle" x="179" y="-494.3" font-family="Times,serif" font-size="14.00">CNV_PLOTTER_01:MERGE_PLOTS</text>
</g>
<!-- p35&#45;&gt;p46 -->
<g id="edge55" class="edge"><title>p35&#45;&gt;p46</title>
<path fill="none" stroke="black" d="M261.781,-959.75C249.596,-943.186 234,-916.921 234,-891 234,-891 234,-891 234,-571 234,-553.418 230.115,-548.381 220,-534 217.251,-530.091 213.967,-526.349 210.471,-522.863"/>
<polygon fill="black" stroke="black" points="212.835,-520.281 203.102,-516.095 208.1,-525.437 212.835,-520.281"/>
<text text-anchor="middle" x="252.5" y="-720.3" font-family="Times,serif" font-size="14.00">table</text>
</g>
<!-- p36&#45;&gt;p43 -->
<g id="edge44" class="edge"><title>p36&#45;&gt;p43</title>
<path fill="none" stroke="black" d="M607.078,-568.295C604.988,-561.613 600.687,-544.136 609,-534 631.836,-506.156 657.702,-535.463 688,-516 690.427,-514.441 692.577,-512.265 694.395,-509.988"/>
<polygon fill="black" stroke="black" points="697.444,-511.717 699.858,-501.401 691.538,-507.96 697.444,-511.717"/>
<text text-anchor="middle" x="648" y="-538.3" font-family="Times,serif" font-size="14.00">version_ch</text>
</g>
<!-- p33 -->
<g id="node38" class="node"><title>p33</title>
<ellipse fill="black" stroke="black" cx="246" cy="-1066" rx="3.6" ry="3.6"/>
</g>
<!-- p33&#45;&gt;p35 -->
<g id="edge40" class="edge"><title>p33&#45;&gt;p35</title>
<path fill="none" stroke="black" d="M245.416,-1062.11C243.934,-1054.14 240.584,-1031.27 247,-1014 248.247,-1010.64 249.963,-1007.38 251.943,-1004.27"/>
<polygon fill="black" stroke="black" points="254.913,-1006.15 258.049,-996.026 249.286,-1001.98 254.913,-1006.15"/>
<text text-anchor="middle" x="265.5" y="-1018.3" font-family="Times,serif" font-size="14.00">meta</text>
</g>
<!-- p34 -->
<g id="node39" class="node"><title>p34</title>
<ellipse fill="black" stroke="black" cx="306" cy="-1066" rx="3.6" ry="3.6"/>
</g>
<!-- p34&#45;&gt;p35 -->
<g id="edge41" class="edge"><title>p34&#45;&gt;p35</title>
<path fill="none" stroke="black" d="M305.002,-1062.14C301.961,-1053.42 292.578,-1026.52 285.299,-1005.66"/>
<polygon fill="black" stroke="black" points="288.53,-1004.29 281.932,-996.004 281.921,-1006.6 288.53,-1004.29"/>
<text text-anchor="middle" x="305" y="-1018.3" font-family="Times,serif" font-size="14.00">vcf</text>
</g>
<!-- p37&#45;&gt;p38 -->
<g id="edge45" class="edge"><title>p37&#45;&gt;p38</title>
<path fill="none" stroke="black" d="M462.936,-886.221C465.538,-878.523 473.122,-856.279 480,-838 482.881,-830.344 486.286,-821.819 489.017,-815.1"/>
<polygon fill="black" stroke="black" points="492.385,-816.113 492.945,-805.533 485.909,-813.455 492.385,-816.113"/>
</g>
<!-- p47 -->
<g id="node46" class="node"><title>p47</title>
<ellipse fill="none" stroke="black" cx="553" cy="-424" rx="3.25" ry="3.5"/>
<text text-anchor="middle" x="536" y="-431.3" font-family="Times,serif" font-size="14.00">mix</text>
</g>
<!-- p43&#45;&gt;p47 -->
<g id="edge52" class="edge"><title>p43&#45;&gt;p47</title>
<path fill="none" stroke="black" d="M699.783,-494.707C697.772,-491.117 693.432,-484.15 688,-480 649.12,-450.295 591.968,-434.088 566.318,-427.933"/>
<polygon fill="black" stroke="black" points="566.781,-424.45 556.255,-425.658 565.237,-431.277 566.781,-424.45"/>
<text text-anchor="middle" x="697" y="-450.3" font-family="Times,serif" font-size="14.00">version_ch</text>
</g>
<!-- p39&#45;&gt;p42 -->
<g id="edge47" class="edge"><title>p39&#45;&gt;p42</title>
<path fill="none" stroke="black" d="M640.566,-720.471C642.184,-713.237 646.972,-691.829 650.966,-673.976"/>
<polygon fill="black" stroke="black" points="654.428,-674.531 653.195,-664.009 647.597,-673.003 654.428,-674.531"/>
<text text-anchor="middle" x="676" y="-686.3" font-family="Times,serif" font-size="14.00">ch2_ch</text>
</g>
<!-- p40 -->
<g id="node43" class="node"><title>p40</title>
<ellipse fill="black" stroke="black" cx="597" cy="-724" rx="3.6" ry="3.6"/>
</g>
<!-- p40&#45;&gt;p42 -->
<g id="edge48" class="edge"><title>p40&#45;&gt;p42</title>
<path fill="none" stroke="black" d="M596.844,-720.138C596.598,-713.045 596.824,-694.33 605,-682 607.895,-677.634 611.54,-673.672 615.551,-670.117"/>
<polygon fill="black" stroke="black" points="617.912,-672.713 623.613,-663.783 613.588,-667.209 617.912,-672.713"/>
<text text-anchor="middle" x="623.5" y="-686.3" font-family="Times,serif" font-size="14.00">meta</text>
</g>
<!-- p41 -->
<g id="node44" class="node"><title>p41</title>
<ellipse fill="black" stroke="black" cx="504" cy="-724" rx="3.6" ry="3.6"/>
</g>
<!-- p41&#45;&gt;p42 -->
<g id="edge49" class="edge"><title>p41&#45;&gt;p42</title>
<path fill="none" stroke="black" d="M504.572,-720.317C506.28,-712.981 512.048,-692.438 525,-682 533.995,-674.751 544.348,-668.994 555.216,-664.423"/>
<polygon fill="black" stroke="black" points="556.803,-667.562 564.878,-660.703 554.289,-661.029 556.803,-667.562"/>
<text text-anchor="middle" x="560" y="-686.3" font-family="Times,serif" font-size="14.00">reference</text>
</g>
<!-- p44&#45;&gt;p46 -->
<g id="edge53" class="edge"><title>p44&#45;&gt;p46</title>
<path fill="none" stroke="black" d="M402.143,-570.09C385.541,-564.801 300.148,-537.596 239.959,-518.421"/>
<polygon fill="black" stroke="black" points="240.748,-514.999 230.157,-515.298 238.623,-521.668 240.748,-514.999"/>
<text text-anchor="middle" x="368" y="-538.3" font-family="Times,serif" font-size="14.00">all_html</text>
</g>
<!-- p49 -->
<g id="node52" class="node"><title>p49</title>
<ellipse fill="none" stroke="black" cx="528" cy="-498" rx="151.155" ry="18"/>
<text text-anchor="middle" x="528" y="-494.3" font-family="Times,serif" font-size="14.00">CNV_PLOTTER_01:MAKEGIF</text>
</g>
<!-- p44&#45;&gt;p49 -->
<g id="edge60" class="edge"><title>p44&#45;&gt;p49</title>
<path fill="none" stroke="black" d="M407.778,-569.272C416.377,-563.934 443.338,-547.265 466,-534 473.437,-529.647 481.422,-525.069 489.104,-520.711"/>
<polygon fill="black" stroke="black" points="490.948,-523.69 497.933,-515.724 487.505,-517.595 490.948,-523.69"/>
<text text-anchor="middle" x="495" y="-538.3" font-family="Times,serif" font-size="14.00">all_html</text>
</g>
<!-- p51 -->
<g id="node50" class="node"><title>p51</title>
<ellipse fill="none" stroke="black" cx="498" cy="-364" rx="3.25" ry="3.5"/>
<text text-anchor="middle" x="481" y="-371.3" font-family="Times,serif" font-size="14.00">mix</text>
</g>
<!-- p47&#45;&gt;p51 -->
<g id="edge58" class="edge"><title>p47&#45;&gt;p51</title>
<path fill="none" stroke="black" d="M551.17,-421.07C544.385,-413.915 520.374,-388.594 507.059,-374.553"/>
<polygon fill="black" stroke="black" points="509.314,-371.844 499.893,-366.996 504.234,-376.661 509.314,-371.844"/>
<text text-anchor="middle" x="572" y="-390.3" font-family="Times,serif" font-size="14.00">version_ch</text>
</g>
<!-- p59 -->
<g id="node49" class="node"><title>p59</title>
<ellipse fill="none" stroke="black" cx="372" cy="-60" rx="56.3173" ry="18"/>
<text text-anchor="middle" x="372" y="-56.3" font-family="Times,serif" font-size="14.00">PUBLISH</text>
</g>
<!-- p46&#45;&gt;p59 -->
<g id="edge56" class="edge"><title>p46&#45;&gt;p59</title>
<path fill="none" stroke="black" d="M183.468,-479.967C186.88,-465.461 191,-444.009 191,-425 191,-425 191,-425 191,-133 191,-81.9551 253.921,-66.0732 305.566,-61.6346"/>
<polygon fill="black" stroke="black" points="306.004,-65.112 315.723,-60.8924 305.494,-58.1306 306.004,-65.112"/>
<text text-anchor="middle" x="202" y="-296.3" font-family="Times,serif" font-size="14.00">zip</text>
</g>
<!-- p46&#45;&gt;p47 -->
<g id="edge57" class="edge"><title>p46&#45;&gt;p47</title>
<path fill="none" stroke="black" d="M258.882,-481.825C331.656,-467.957 442.087,-446.808 538,-428 538.652,-427.872 539.319,-427.741 539.993,-427.608"/>
<polygon fill="black" stroke="black" points="540.893,-430.997 550.013,-425.604 539.521,-424.133 540.893,-430.997"/>
</g>
<!-- p45 -->
<g id="node48" class="node"><title>p45</title>
<ellipse fill="black" stroke="black" cx="179" cy="-572" rx="3.6" ry="3.6"/>
</g>
<!-- p45&#45;&gt;p46 -->
<g id="edge54" class="edge"><title>p45&#45;&gt;p46</title>
<path fill="none" stroke="black" d="M179,-568.265C179,-561.354 179,-542.578 179,-526.316"/>
<polygon fill="black" stroke="black" points="182.5,-526.143 179,-516.143 175.5,-526.143 182.5,-526.143"/>
<text text-anchor="middle" x="197.5" y="-538.3" font-family="Times,serif" font-size="14.00">meta</text>
</g>
<!-- p62 -->
<g id="node61" class="node"><title>p62</title>
<ellipse fill="black" stroke="black" cx="347" cy="-2" rx="1.8" ry="1.8"/>
</g>
<!-- p59&#45;&gt;p62 -->
<g id="edge72" class="edge"><title>p59&#45;&gt;p62</title>
<path fill="none" stroke="black" d="M364.363,-41.8939C360.192,-32.5499 355.164,-21.2883 351.595,-13.2932"/>
<polygon fill="black" stroke="black" points="354.717,-11.7003 347.445,-3.99575 348.325,-14.5539 354.717,-11.7003"/>
</g>
<!-- p61 -->
<g id="node62" class="node"><title>p61</title>
<ellipse fill="black" stroke="black" cx="372" cy="-2" rx="1.8" ry="1.8"/>
</g>
<!-- p59&#45;&gt;p61 -->
<g id="edge73" class="edge"><title>p59&#45;&gt;p61</title>
<path fill="none" stroke="black" d="M372,-41.8939C372,-32.8876 372,-22.0999 372,-14.1727"/>
<polygon fill="black" stroke="black" points="375.5,-13.9957 372,-3.99575 368.5,-13.9958 375.5,-13.9957"/>
</g>
<!-- p60 -->
<g id="node63" class="node"><title>p60</title>
<ellipse fill="black" stroke="black" cx="397" cy="-2" rx="1.8" ry="1.8"/>
</g>
<!-- p59&#45;&gt;p60 -->
<g id="edge74" class="edge"><title>p59&#45;&gt;p60</title>
<path fill="none" stroke="black" d="M379.637,-41.8939C383.808,-32.5499 388.836,-21.2883 392.405,-13.2932"/>
<polygon fill="black" stroke="black" points="395.675,-14.5539 396.555,-3.99575 389.283,-11.7003 395.675,-14.5539"/>
</g>
<!-- p52 -->
<g id="node54" class="node"><title>p52</title>
<ellipse fill="none" stroke="black" cx="428" cy="-300" rx="3.25" ry="3.5"/>
<text text-anchor="middle" x="400" y="-307.3" font-family="Times,serif" font-size="14.00">collect</text>
</g>
<!-- p51&#45;&gt;p52 -->
<g id="edge63" class="edge"><title>p51&#45;&gt;p52</title>
<path fill="none" stroke="black" d="M495.981,-361.211C487.586,-353.776 455.101,-325.004 438.259,-310.086"/>
<polygon fill="black" stroke="black" points="440.257,-307.181 430.45,-303.17 435.616,-312.421 440.257,-307.181"/>
<text text-anchor="middle" x="513" y="-330.3" font-family="Times,serif" font-size="14.00">version_ch</text>
</g>
<!-- p48 -->
<g id="node51" class="node"><title>p48</title>
<ellipse fill="black" stroke="black" cx="528" cy="-572" rx="3.6" ry="3.6"/>
</g>
<!-- p48&#45;&gt;p49 -->
<g id="edge59" class="edge"><title>p48&#45;&gt;p49</title>
<path fill="none" stroke="black" d="M528,-568.265C528,-561.354 528,-542.578 528,-526.316"/>
<polygon fill="black" stroke="black" points="531.5,-526.143 528,-516.143 524.5,-526.143 531.5,-526.143"/>
<text text-anchor="middle" x="546.5" y="-538.3" font-family="Times,serif" font-size="14.00">meta</text>
</g>
<!-- p50 -->
<g id="node53" class="node"><title>p50</title>
<ellipse fill="black" stroke="black" cx="528" cy="-424" rx="1.8" ry="1.8"/>
</g>
<!-- p49&#45;&gt;p50 -->
<g id="edge61" class="edge"><title>p49&#45;&gt;p50</title>
<path fill="none" stroke="black" d="M528,-479.937C528,-466.37 528,-447.787 528,-436.089"/>
<polygon fill="black" stroke="black" points="531.5,-435.849 528,-425.849 524.5,-435.849 531.5,-435.849"/>
</g>
<!-- p49&#45;&gt;p51 -->
<g id="edge62" class="edge"><title>p49&#45;&gt;p51</title>
<path fill="none" stroke="black" d="M524.078,-479.743C517.939,-452.731 506.206,-401.108 500.825,-377.428"/>
<polygon fill="black" stroke="black" points="504.237,-376.65 498.608,-367.674 497.411,-378.201 504.237,-376.65"/>
</g>
<!-- p56 -->
<g id="node55" class="node"><title>p56</title>
<ellipse fill="none" stroke="black" cx="424" cy="-222" rx="193.049" ry="18"/>
<text text-anchor="middle" x="424" y="-218.3" font-family="Times,serif" font-size="14.00">CNV_PLOTTER_01:MERGE_VERSION</text>
</g>
<!-- p52&#45;&gt;p56 -->
<g id="edge64" class="edge"><title>p52&#45;&gt;p56</title>
<path fill="none" stroke="black" d="M427.867,-296.471C427.488,-289.271 426.37,-268.029 425.433,-250.226"/>
<polygon fill="black" stroke="black" points="428.916,-249.811 424.895,-240.009 421.926,-250.179 428.916,-249.811"/>
</g>
<!-- p58 -->
<g id="node59" class="node"><title>p58</title>
<ellipse fill="none" stroke="black" cx="555" cy="-134" rx="111.186" ry="18"/>
<text text-anchor="middle" x="555" y="-130.3" font-family="Times,serif" font-size="14.00">VERSION_TO_HTML</text>
</g>
<!-- p56&#45;&gt;p58 -->
<g id="edge68" class="edge"><title>p56&#45;&gt;p58</title>
<path fill="none" stroke="black" d="M449.881,-204.009C470.288,-190.613 498.912,-171.821 521.139,-157.229"/>
<polygon fill="black" stroke="black" points="523.179,-160.077 529.618,-151.663 519.338,-154.225 523.179,-160.077"/>
</g>
<!-- p56&#45;&gt;p59 -->
<g id="edge71" class="edge"><title>p56&#45;&gt;p59</title>
<path fill="none" stroke="black" d="M410.269,-203.984C400.334,-190.669 387.547,-171.242 381,-152 373.99,-131.395 371.907,-106.762 371.484,-88.3236"/>
<polygon fill="black" stroke="black" points="374.984,-88.2319 371.402,-78.2607 367.984,-88.2888 374.984,-88.2319"/>
<text text-anchor="middle" x="407.5" y="-130.3" font-family="Times,serif" font-size="14.00">version</text>
</g>
<!-- p53 -->
<g id="node56" class="node"><title>p53</title>
<ellipse fill="black" stroke="black" cx="457" cy="-300" rx="3.6" ry="3.6"/>
</g>
<!-- p53&#45;&gt;p56 -->
<g id="edge65" class="edge"><title>p53&#45;&gt;p56</title>
<path fill="none" stroke="black" d="M455.902,-296.471C452.731,-289.169 443.291,-267.428 435.496,-249.476"/>
<polygon fill="black" stroke="black" points="438.579,-247.787 431.385,-240.009 432.158,-250.575 438.579,-247.787"/>
<text text-anchor="middle" x="464.5" y="-262.3" font-family="Times,serif" font-size="14.00">meta</text>
</g>
<!-- p54 -->
<g id="node57" class="node"><title>p54</title>
<ellipse fill="black" stroke="black" cx="517" cy="-300" rx="3.6" ry="3.6"/>
</g>
<!-- p54&#45;&gt;p56 -->
<g id="edge66" class="edge"><title>p54&#45;&gt;p56</title>
<path fill="none" stroke="black" d="M515.682,-296.497C511.963,-289.619 500.755,-270.14 487,-258 481.582,-253.219 475.403,-248.813 469.081,-244.858"/>
<polygon fill="black" stroke="black" points="470.821,-241.821 460.431,-239.75 467.262,-247.848 470.821,-241.821"/>
<text text-anchor="middle" x="521" y="-262.3" font-family="Times,serif" font-size="14.00">name</text>
</g>
<!-- p55 -->
<g id="node58" class="node"><title>p55</title>
<ellipse fill="black" stroke="black" cx="327" cy="-300" rx="3.6" ry="3.6"/>
</g>
<!-- p55&#45;&gt;p56 -->
<g id="edge67" class="edge"><title>p55&#45;&gt;p56</title>
<path fill="none" stroke="black" d="M327.118,-296.003C327.565,-288.599 329.711,-269.234 340,-258 344.915,-252.633 350.781,-248.065 357.096,-244.181"/>
<polygon fill="black" stroke="black" points="358.877,-247.196 365.94,-239.299 355.494,-241.068 358.877,-247.196"/>
<text text-anchor="middle" x="381" y="-262.3" font-family="Times,serif" font-size="14.00">description</text>
</g>
<!-- p58&#45;&gt;p59 -->
<g id="edge70" class="edge"><title>p58&#45;&gt;p59</title>
<path fill="none" stroke="black" d="M514.84,-117.199C485.504,-105.657 445.758,-90.0196 415.64,-78.1699"/>
<polygon fill="black" stroke="black" points="416.813,-74.8701 406.225,-74.4658 414.25,-81.3841 416.813,-74.8701"/>
</g>
<!-- p57 -->
<g id="node60" class="node"><title>p57</title>
<ellipse fill="black" stroke="black" cx="639" cy="-222" rx="3.6" ry="3.6"/>
</g>
<!-- p57&#45;&gt;p58 -->
<g id="edge69" class="edge"><title>p57&#45;&gt;p58</title>
<path fill="none" stroke="black" d="M637.257,-218.489C634.859,-215.091 630.343,-208.889 626,-204 612.069,-188.316 595.284,-171.903 581.532,-159.022"/>
<polygon fill="black" stroke="black" points="583.542,-156.113 573.83,-151.878 578.782,-161.245 583.542,-156.113"/>
<text text-anchor="middle" x="626.5" y="-174.3" font-family="Times,serif" font-size="14.00">meta</text>
</g>
</g>
</svg>
