<?xml version="1.0" encoding="UTF-8" standalone="no"?>
<!DOCTYPE svg PUBLIC "-//W3C//DTD SVG 1.1//EN"
 "http://www.w3.org/Graphics/SVG/1.1/DTD/svg11.dtd">
<!-- Generated by graphviz version 2.30.1 (20201013.1554)
 -->
<!-- Title: 20221107pvmhs37d5dupholdworkflow Pages: 1 -->
<svg width="1254pt" height="1570pt"
 viewBox="0.00 0.00 1253.60 1570.00" xmlns="http://www.w3.org/2000/svg" xmlns:xlink="http://www.w3.org/1999/xlink">
<g id="graph0" class="graph" transform="scale(1 1) rotate(0) translate(4 1566)">
<title>20221107pvmhs37d5dupholdworkflow</title>
<polygon fill="white" stroke="white" points="-4,5 -4,-1566 1250.6,-1566 1250.6,5 -4,5"/>
<!-- p0 -->
<g id="node1" class="node"><title>p0</title>
<ellipse fill="black" stroke="black" cx="633.6" cy="-962" rx="3.6" ry="3.6"/>
<text text-anchor="middle" x="635.4" y="-947.2" font-family="Times,serif" font-size="14.00">Channel.empty</text>
</g>
<!-- p22 -->
<g id="node2" class="node"><title>p22</title>
<ellipse fill="none" stroke="black" cx="679.6" cy="-888" rx="3.25" ry="3.5"/>
<text text-anchor="middle" x="662.6" y="-895.3" font-family="Times,serif" font-size="14.00">mix</text>
</g>
<!-- p0&#45;&gt;p22 -->
<g id="edge1" class="edge"><title>p0&#45;&gt;p22</title>
<path fill="none" stroke="black" d="M635.131,-958.604C640.86,-949.637 661.275,-917.683 672.342,-900.36"/>
<polygon fill="black" stroke="black" points="675.582,-901.79 678.017,-891.478 669.683,-898.021 675.582,-901.79"/>
<text text-anchor="middle" x="704.6" y="-914.3" font-family="Times,serif" font-size="14.00">version_ch</text>
</g>
<!-- p26 -->
<g id="node25" class="node"><title>p26</title>
<ellipse fill="none" stroke="black" cx="679.6" cy="-814" rx="3.25" ry="3.5"/>
<text text-anchor="middle" x="689.6" y="-821.3" font-family="Times,serif" font-size="14.00">mix</text>
</g>
<!-- p22&#45;&gt;p26 -->
<g id="edge26" class="edge"><title>p22&#45;&gt;p26</title>
<path fill="none" stroke="black" d="M679.6,-884.265C679.6,-875.133 679.6,-845.282 679.6,-827.892"/>
<polygon fill="black" stroke="black" points="683.1,-827.737 679.6,-817.737 676.1,-827.737 683.1,-827.737"/>
<text text-anchor="middle" x="718.6" y="-854.3" font-family="Times,serif" font-size="14.00">version_ch</text>
</g>
<!-- p1 -->
<g id="node3" class="node"><title>p1</title>
<ellipse fill="black" stroke="black" cx="992.6" cy="-1484" rx="3.6" ry="3.6"/>
<text text-anchor="middle" x="1043.5" y="-1491.4" font-family="Times,serif" font-size="14.00">Channel.empty</text>
</g>
<!-- p5 -->
<g id="node4" class="node"><title>p5</title>
<ellipse fill="none" stroke="black" cx="855.6" cy="-1410" rx="3.25" ry="3.5"/>
<text text-anchor="middle" x="838.6" y="-1417.3" font-family="Times,serif" font-size="14.00">mix</text>
</g>
<!-- p1&#45;&gt;p5 -->
<g id="edge2" class="edge"><title>p1&#45;&gt;p5</title>
<path fill="none" stroke="black" d="M990.921,-1480.25C988.562,-1476.58 983.952,-1470.08 978.6,-1466 942.958,-1438.84 891.781,-1421.53 868.279,-1414.54"/>
<polygon fill="black" stroke="black" points="869.115,-1411.14 858.539,-1411.77 867.202,-1417.87 869.115,-1411.14"/>
<text text-anchor="middle" x="985.6" y="-1436.3" font-family="Times,serif" font-size="14.00">version_ch</text>
</g>
<!-- p12 -->
<g id="node9" class="node"><title>p12</title>
<ellipse fill="none" stroke="black" cx="820.6" cy="-1230" rx="3.25" ry="3.5"/>
<text text-anchor="middle" x="803.6" y="-1237.3" font-family="Times,serif" font-size="14.00">mix</text>
</g>
<!-- p5&#45;&gt;p12 -->
<g id="edge7" class="edge"><title>p5&#45;&gt;p12</title>
<path fill="none" stroke="black" d="M855.417,-1406.35C854.405,-1392.29 849.044,-1325.13 835.6,-1272 833.052,-1261.93 828.932,-1250.89 825.655,-1242.8"/>
<polygon fill="black" stroke="black" points="828.853,-1241.38 821.736,-1233.53 822.405,-1244.11 828.853,-1241.38"/>
<text text-anchor="middle" x="887.6" y="-1330.3" font-family="Times,serif" font-size="14.00">version_ch</text>
</g>
<!-- p2 -->
<g id="node5" class="node"><title>p2</title>
<ellipse fill="black" stroke="black" cx="678.6" cy="-1558" rx="3.6" ry="3.6"/>
</g>
<!-- p4 -->
<g id="node6" class="node"><title>p4</title>
<ellipse fill="none" stroke="black" cx="708.6" cy="-1484" rx="261.39" ry="18"/>
<text text-anchor="middle" x="708.6" y="-1480.3" font-family="Times,serif" font-size="14.00">DUPHOLD01:SAMTOOLS_SAMPLES_01:SQRT_FILE</text>
</g>
<!-- p2&#45;&gt;p4 -->
<g id="edge3" class="edge"><title>p2&#45;&gt;p4</title>
<path fill="none" stroke="black" d="M678.074,-1554.19C677.012,-1547.85 675.079,-1532.03 679.6,-1520 680.86,-1516.65 682.584,-1513.39 684.568,-1510.28"/>
<polygon fill="black" stroke="black" points="687.538,-1512.16 690.681,-1502.04 681.914,-1507.99 687.538,-1512.16"/>
<text text-anchor="middle" x="698.1" y="-1524.3" font-family="Times,serif" font-size="14.00">meta</text>
</g>
<!-- p6 -->
<g id="node8" class="node"><title>p6</title>
<ellipse fill="none" stroke="black" cx="708.6" cy="-1410" rx="3.25" ry="3.5"/>
<text text-anchor="middle" x="673.1" y="-1417.3" font-family="Times,serif" font-size="14.00">splitText</text>
</g>
<!-- p4&#45;&gt;p6 -->
<g id="edge5" class="edge"><title>p4&#45;&gt;p6</title>
<path fill="none" stroke="black" d="M708.6,-1465.94C708.6,-1453.13 708.6,-1435.84 708.6,-1424.11"/>
<polygon fill="black" stroke="black" points="712.1,-1423.75 708.6,-1413.75 705.1,-1423.75 712.1,-1423.75"/>
</g>
<!-- p4&#45;&gt;p5 -->
<g id="edge6" class="edge"><title>p4&#45;&gt;p5</title>
<path fill="none" stroke="black" d="M743.065,-1466.12C775.429,-1450.27 822.017,-1427.45 843.683,-1416.84"/>
<polygon fill="black" stroke="black" points="845.465,-1419.86 852.906,-1412.32 842.386,-1413.57 845.465,-1419.86"/>
</g>
<!-- p3 -->
<g id="node7" class="node"><title>p3</title>
<ellipse fill="black" stroke="black" cx="738.6" cy="-1558" rx="3.6" ry="3.6"/>
</g>
<!-- p3&#45;&gt;p4 -->
<g id="edge4" class="edge"><title>p3&#45;&gt;p4</title>
<path fill="none" stroke="black" d="M737.461,-1554.27C734.526,-1547.22 726.458,-1527.86 719.596,-1511.39"/>
<polygon fill="black" stroke="black" points="722.82,-1510.03 715.743,-1502.14 716.358,-1512.72 722.82,-1510.03"/>
<text text-anchor="middle" x="748.1" y="-1524.3" font-family="Times,serif" font-size="14.00">filein</text>
</g>
<!-- p7 -->
<g id="node10" class="node"><title>p7</title>
<ellipse fill="none" stroke="black" cx="708.6" cy="-1364" rx="3.25" ry="3.5"/>
<text text-anchor="middle" x="689.6" y="-1371.3" font-family="Times,serif" font-size="14.00">map</text>
</g>
<!-- p6&#45;&gt;p7 -->
<g id="edge8" class="edge"><title>p6&#45;&gt;p7</title>
<path fill="none" stroke="black" d="M708.6,-1406.38C708.6,-1400.86 708.6,-1387.74 708.6,-1377.74"/>
<polygon fill="black" stroke="black" points="712.1,-1377.55 708.6,-1367.55 705.1,-1377.55 712.1,-1377.55"/>
</g>
<!-- p16 -->
<g id="node16" class="node"><title>p16</title>
<ellipse fill="none" stroke="black" cx="820.6" cy="-1096" rx="3.25" ry="3.5"/>
<text text-anchor="middle" x="803.6" y="-1103.3" font-family="Times,serif" font-size="14.00">mix</text>
</g>
<!-- p12&#45;&gt;p16 -->
<g id="edge15" class="edge"><title>p12&#45;&gt;p16</title>
<path fill="none" stroke="black" d="M820.6,-1226.24C820.6,-1211.28 820.6,-1139.4 820.6,-1109.79"/>
<polygon fill="black" stroke="black" points="824.1,-1109.74 820.6,-1099.74 817.1,-1109.74 824.1,-1109.74"/>
<text text-anchor="middle" x="859.6" y="-1152.3" font-family="Times,serif" font-size="14.00">version_ch</text>
</g>
<!-- p11 -->
<g id="node11" class="node"><title>p11</title>
<ellipse fill="none" stroke="black" cx="561.6" cy="-1290" rx="265.24" ry="18"/>
<text text-anchor="middle" x="561.6" y="-1286.3" font-family="Times,serif" font-size="14.00">DUPHOLD01:SAMTOOLS_SAMPLES_01:ST_SAMPLE</text>
</g>
<!-- p7&#45;&gt;p11 -->
<g id="edge9" class="edge"><title>p7&#45;&gt;p11</title>
<path fill="none" stroke="black" d="M707.209,-1360.6C703.278,-1354.04 691.409,-1335.63 676.6,-1326 667.424,-1320.03 657.182,-1315.04 646.695,-1310.88"/>
<polygon fill="black" stroke="black" points="647.611,-1307.48 637.018,-1307.28 645.172,-1314.05 647.611,-1307.48"/>
<text text-anchor="middle" x="727.6" y="-1330.3" font-family="Times,serif" font-size="14.00">chunk_ch</text>
</g>
<!-- p13 -->
<g id="node15" class="node"><title>p13</title>
<ellipse fill="none" stroke="black" cx="561.6" cy="-1230" rx="3.25" ry="3.5"/>
<text text-anchor="middle" x="533.6" y="-1237.3" font-family="Times,serif" font-size="14.00">collect</text>
</g>
<!-- p11&#45;&gt;p13 -->
<g id="edge13" class="edge"><title>p11&#45;&gt;p13</title>
<path fill="none" stroke="black" d="M561.6,-1271.91C561.6,-1262.96 561.6,-1252.19 561.6,-1243.94"/>
<polygon fill="black" stroke="black" points="565.1,-1243.69 561.6,-1233.69 558.1,-1243.69 565.1,-1243.69"/>
</g>
<!-- p11&#45;&gt;p12 -->
<g id="edge14" class="edge"><title>p11&#45;&gt;p12</title>
<path fill="none" stroke="black" d="M634.435,-1272.69C695.189,-1259.08 776.67,-1240.84 807.789,-1233.87"/>
<polygon fill="black" stroke="black" points="808.605,-1237.27 817.598,-1231.67 807.075,-1230.44 808.605,-1237.27"/>
</g>
<!-- p8 -->
<g id="node12" class="node"><title>p8</title>
<ellipse fill="black" stroke="black" cx="455.6" cy="-1364" rx="3.6" ry="3.6"/>
</g>
<!-- p8&#45;&gt;p11 -->
<g id="edge10" class="edge"><title>p8&#45;&gt;p11</title>
<path fill="none" stroke="black" d="M456.04,-1360.27C457.263,-1353.52 461.318,-1335.91 471.6,-1326 477.203,-1320.6 483.732,-1316.01 490.667,-1312.11"/>
<polygon fill="black" stroke="black" points="492.316,-1315.2 499.63,-1307.53 489.132,-1308.97 492.316,-1315.2"/>
<text text-anchor="middle" x="490.1" y="-1330.3" font-family="Times,serif" font-size="14.00">meta</text>
</g>
<!-- p9 -->
<g id="node13" class="node"><title>p9</title>
<ellipse fill="black" stroke="black" cx="515.6" cy="-1364" rx="3.6" ry="3.6"/>
</g>
<!-- p9&#45;&gt;p11 -->
<g id="edge11" class="edge"><title>p9&#45;&gt;p11</title>
<path fill="none" stroke="black" d="M514.89,-1360.11C513.451,-1353.6 510.798,-1337.47 516.6,-1326 518.56,-1322.13 521.171,-1318.55 524.15,-1315.29"/>
<polygon fill="black" stroke="black" points="526.755,-1317.64 531.642,-1308.24 521.959,-1312.54 526.755,-1317.64"/>
<text text-anchor="middle" x="551.6" y="-1330.3" font-family="Times,serif" font-size="14.00">reference</text>
</g>
<!-- p10 -->
<g id="node14" class="node"><title>p10</title>
<ellipse fill="black" stroke="black" cx="608.6" cy="-1364" rx="3.6" ry="3.6"/>
</g>
<!-- p10&#45;&gt;p11 -->
<g id="edge12" class="edge"><title>p10&#45;&gt;p11</title>
<path fill="none" stroke="black" d="M607.277,-1360.62C603.956,-1354.68 594.934,-1338.77 586.6,-1326 584.562,-1322.88 582.367,-1319.64 580.155,-1316.45"/>
<polygon fill="black" stroke="black" points="582.984,-1314.39 574.354,-1308.25 577.268,-1318.43 582.984,-1314.39"/>
<text text-anchor="middle" x="634.1" y="-1330.3" font-family="Times,serif" font-size="14.00">references</text>
</g>
<!-- p15 -->
<g id="node17" class="node"><title>p15</title>
<ellipse fill="none" stroke="black" cx="535.6" cy="-1156" rx="244.068" ry="18"/>
<text text-anchor="middle" x="535.6" y="-1152.3" font-family="Times,serif" font-size="14.00">DUPHOLD01:SAMTOOLS_SAMPLES_01:DIGEST</text>
</g>
<!-- p13&#45;&gt;p15 -->
<g id="edge16" class="edge"><title>p13&#45;&gt;p15</title>
<path fill="none" stroke="black" d="M560.735,-1226.6C558.327,-1219.94 551.329,-1200.56 545.326,-1183.93"/>
<polygon fill="black" stroke="black" points="548.456,-1182.3 541.768,-1174.08 541.872,-1184.67 548.456,-1182.3"/>
</g>
<!-- p17 -->
<g id="node20" class="node"><title>p17</title>
<ellipse fill="none" stroke="black" cx="881.6" cy="-1036" rx="3.25" ry="3.5"/>
<text text-anchor="middle" x="853.6" y="-1043.3" font-family="Times,serif" font-size="14.00">collect</text>
</g>
<!-- p16&#45;&gt;p17 -->
<g id="edge20" class="edge"><title>p16&#45;&gt;p17</title>
<path fill="none" stroke="black" d="M822.63,-1093.07C830.227,-1085.85 857.299,-1060.11 871.975,-1046.15"/>
<polygon fill="black" stroke="black" points="874.665,-1048.42 879.5,-1039 869.841,-1043.35 874.665,-1048.42"/>
<text text-anchor="middle" x="896.6" y="-1062.3" font-family="Times,serif" font-size="14.00">version_ch</text>
</g>
<!-- p25 -->
<g id="node19" class="node"><title>p25</title>
<ellipse fill="none" stroke="black" cx="452.6" cy="-962" rx="159.329" ry="18"/>
<text text-anchor="middle" x="452.6" y="-958.3" font-family="Times,serif" font-size="14.00">DUPHOLD01:JOIN_BAM_VCFS</text>
</g>
<!-- p15&#45;&gt;p25 -->
<g id="edge18" class="edge"><title>p15&#45;&gt;p25</title>
<path fill="none" stroke="black" d="M535.444,-1137.95C534.4,-1107.43 528.631,-1042.5 499.6,-998 496.894,-993.851 493.517,-990.015 489.822,-986.522"/>
<polygon fill="black" stroke="black" points="491.806,-983.616 481.905,-979.844 487.292,-988.967 491.806,-983.616"/>
<text text-anchor="middle" x="551.6" y="-1062.3" font-family="Times,serif" font-size="14.00">output</text>
</g>
<!-- p15&#45;&gt;p16 -->
<g id="edge19" class="edge"><title>p15&#45;&gt;p16</title>
<path fill="none" stroke="black" d="M614.61,-1138.92C682.089,-1125.19 773.445,-1106.6 807.28,-1099.71"/>
<polygon fill="black" stroke="black" points="808.422,-1103.05 817.524,-1097.63 807.026,-1096.19 808.422,-1103.05"/>
</g>
<!-- p14 -->
<g id="node18" class="node"><title>p14</title>
<ellipse fill="black" stroke="black" cx="509.6" cy="-1230" rx="3.6" ry="3.6"/>
</g>
<!-- p14&#45;&gt;p15 -->
<g id="edge17" class="edge"><title>p14&#45;&gt;p15</title>
<path fill="none" stroke="black" d="M508.743,-1226.21C506.958,-1219.89 503.341,-1204.14 507.6,-1192 508.769,-1188.67 510.403,-1185.42 512.301,-1182.32"/>
<polygon fill="black" stroke="black" points="515.219,-1184.26 518.18,-1174.09 509.521,-1180.19 515.219,-1184.26"/>
<text text-anchor="middle" x="526.1" y="-1196.3" font-family="Times,serif" font-size="14.00">meta</text>
</g>
<!-- p30 -->
<g id="node28" class="node"><title>p30</title>
<ellipse fill="none" stroke="black" cx="367.6" cy="-888" rx="3.25" ry="3.5"/>
<text text-anchor="middle" x="334.6" y="-895.3" font-family="Times,serif" font-size="14.00">splitCsv</text>
</g>
<!-- p25&#45;&gt;p30 -->
<g id="edge29" class="edge"><title>p25&#45;&gt;p30</title>
<path fill="none" stroke="black" d="M432.456,-943.937C415.243,-929.356 391.19,-908.982 377.737,-897.587"/>
<polygon fill="black" stroke="black" points="379.698,-894.661 369.805,-890.868 375.174,-900.002 379.698,-894.661"/>
</g>
<!-- p25&#45;&gt;p26 -->
<g id="edge30" class="edge"><title>p25&#45;&gt;p26</title>
<path fill="none" stroke="black" d="M489.038,-944.335C533.966,-922.655 611.171,-881.626 666.6,-832 668.579,-830.228 670.467,-828.12 672.16,-826.001"/>
<polygon fill="black" stroke="black" points="675.131,-827.861 678.012,-817.665 669.402,-823.838 675.131,-827.861"/>
</g>
<!-- p21 -->
<g id="node21" class="node"><title>p21</title>
<ellipse fill="none" stroke="black" cx="950.6" cy="-962" rx="295.111" ry="18"/>
<text text-anchor="middle" x="950.6" y="-958.3" font-family="Times,serif" font-size="14.00">DUPHOLD01:SAMTOOLS_SAMPLES_01:MERGE_VERSION</text>
</g>
<!-- p17&#45;&gt;p21 -->
<g id="edge21" class="edge"><title>p17&#45;&gt;p21</title>
<path fill="none" stroke="black" d="M883.705,-1033.07C887.672,-1029.43 896.495,-1021.23 903.6,-1014 911.87,-1005.58 920.696,-996.137 928.44,-987.683"/>
<polygon fill="black" stroke="black" points="931.058,-990.006 935.201,-980.255 925.882,-985.294 931.058,-990.006"/>
</g>
<!-- p21&#45;&gt;p22 -->
<g id="edge25" class="edge"><title>p21&#45;&gt;p22</title>
<path fill="none" stroke="black" d="M888.087,-944.391C823.49,-927.229 727.349,-901.686 692.666,-892.471"/>
<polygon fill="black" stroke="black" points="693.405,-889.046 682.841,-889.861 691.607,-895.812 693.405,-889.046"/>
</g>
<!-- p18 -->
<g id="node22" class="node"><title>p18</title>
<ellipse fill="black" stroke="black" cx="950.6" cy="-1036" rx="3.6" ry="3.6"/>
</g>
<!-- p18&#45;&gt;p21 -->
<g id="edge22" class="edge"><title>p18&#45;&gt;p21</title>
<path fill="none" stroke="black" d="M950.6,-1032.27C950.6,-1025.35 950.6,-1006.58 950.6,-990.316"/>
<polygon fill="black" stroke="black" points="954.1,-990.143 950.6,-980.143 947.1,-990.143 954.1,-990.143"/>
<text text-anchor="middle" x="969.1" y="-1002.3" font-family="Times,serif" font-size="14.00">meta</text>
</g>
<!-- p19 -->
<g id="node23" class="node"><title>p19</title>
<ellipse fill="black" stroke="black" cx="1010.6" cy="-1036" rx="3.6" ry="3.6"/>
</g>
<!-- p19&#45;&gt;p21 -->
<g id="edge23" class="edge"><title>p19&#45;&gt;p21</title>
<path fill="none" stroke="black" d="M1009.43,-1032.51C1006.47,-1026.31 998.204,-1009.84 988.6,-998 985.581,-994.278 982.166,-990.584 978.653,-987.07"/>
<polygon fill="black" stroke="black" points="981.052,-984.521 971.398,-980.156 976.223,-989.588 981.052,-984.521"/>
<text text-anchor="middle" x="1018.6" y="-1002.3" font-family="Times,serif" font-size="14.00">name</text>
</g>
<!-- p20 -->
<g id="node24" class="node"><title>p20</title>
<ellipse fill="black" stroke="black" cx="820.6" cy="-1036" rx="3.6" ry="3.6"/>
</g>
<!-- p20&#45;&gt;p21 -->
<g id="edge24" class="edge"><title>p20&#45;&gt;p21</title>
<path fill="none" stroke="black" d="M819.285,-1032.33C816.244,-1025.73 809.573,-1008.41 817.6,-998 822.338,-991.854 833.244,-986.573 846.88,-982.114"/>
<polygon fill="black" stroke="black" points="848.146,-985.388 856.715,-979.157 846.131,-978.684 848.146,-985.388"/>
<text text-anchor="middle" x="858.6" y="-1002.3" font-family="Times,serif" font-size="14.00">description</text>
</g>
<!-- p29 -->
<g id="node29" class="node"><title>p29</title>
<ellipse fill="none" stroke="black" cx="466.6" cy="-726" rx="3.25" ry="3.5"/>
<text text-anchor="middle" x="476.6" y="-733.3" font-family="Times,serif" font-size="14.00">mix</text>
</g>
<!-- p26&#45;&gt;p29 -->
<g id="edge31" class="edge"><title>p26&#45;&gt;p29</title>
<path fill="none" stroke="black" d="M678.409,-810.672C676.434,-807.032 672.144,-800 666.6,-796 605.326,-751.784 513.379,-734.074 479.624,-728.823"/>
<polygon fill="black" stroke="black" points="480.12,-725.358 469.722,-727.391 479.118,-732.286 480.12,-725.358"/>
<text text-anchor="middle" x="675.6" y="-766.3" font-family="Times,serif" font-size="14.00">version_ch</text>
</g>
<!-- p23 -->
<g id="node26" class="node"><title>p23</title>
<ellipse fill="black" stroke="black" cx="422.6" cy="-1036" rx="3.6" ry="3.6"/>
</g>
<!-- p23&#45;&gt;p25 -->
<g id="edge27" class="edge"><title>p23&#45;&gt;p25</title>
<path fill="none" stroke="black" d="M422.074,-1032.19C421.012,-1025.85 419.079,-1010.03 423.6,-998 424.86,-994.648 426.584,-991.385 428.568,-988.284"/>
<polygon fill="black" stroke="black" points="431.538,-990.156 434.681,-980.038 425.914,-985.987 431.538,-990.156"/>
<text text-anchor="middle" x="442.1" y="-1002.3" font-family="Times,serif" font-size="14.00">meta</text>
</g>
<!-- p24 -->
<g id="node27" class="node"><title>p24</title>
<ellipse fill="black" stroke="black" cx="482.6" cy="-1036" rx="3.6" ry="3.6"/>
</g>
<!-- p24&#45;&gt;p25 -->
<g id="edge28" class="edge"><title>p24&#45;&gt;p25</title>
<path fill="none" stroke="black" d="M481.461,-1032.27C478.526,-1025.22 470.458,-1005.86 463.596,-989.39"/>
<polygon fill="black" stroke="black" points="466.82,-988.027 459.743,-980.143 460.358,-990.72 466.82,-988.027"/>
<text text-anchor="middle" x="484.6" y="-1002.3" font-family="Times,serif" font-size="14.00">vcf</text>
</g>
<!-- p31 -->
<g id="node34" class="node"><title>p31</title>
<ellipse fill="none" stroke="black" cx="159.6" cy="-814" rx="3.25" ry="3.5"/>
<text text-anchor="middle" x="128.1" y="-821.3" font-family="Times,serif" font-size="14.00">flatMap</text>
</g>
<!-- p30&#45;&gt;p31 -->
<g id="edge36" class="edge"><title>p30&#45;&gt;p31</title>
<path fill="none" stroke="black" d="M364.568,-885.952C348.486,-880.395 271.528,-853.8 208.6,-832 196.26,-827.725 182.175,-822.838 172.283,-819.404"/>
<polygon fill="black" stroke="black" points="173.29,-816.049 162.695,-816.075 170.994,-822.661 173.29,-816.049"/>
</g>
<!-- p36 -->
<g id="node33" class="node"><title>p36</title>
<ellipse fill="none" stroke="black" cx="410.6" cy="-652" rx="3.25" ry="3.5"/>
<text text-anchor="middle" x="393.6" y="-659.3" font-family="Times,serif" font-size="14.00">mix</text>
</g>
<!-- p29&#45;&gt;p36 -->
<g id="edge35" class="edge"><title>p29&#45;&gt;p36</title>
<path fill="none" stroke="black" d="M464.757,-722.573C462.245,-719.268 457.6,-713.173 453.6,-708 441.464,-692.305 427.268,-674.195 418.607,-663.175"/>
<polygon fill="black" stroke="black" points="421.182,-660.787 412.248,-655.092 415.681,-665.115 421.182,-660.787"/>
<text text-anchor="middle" x="477.6" y="-678.3" font-family="Times,serif" font-size="14.00">version_ch</text>
</g>
<!-- p27 -->
<g id="node30" class="node"><title>p27</title>
<ellipse fill="black" stroke="black" cx="463.6" cy="-888" rx="3.6" ry="3.6"/>
</g>
<!-- p28 -->
<g id="node31" class="node"><title>p28</title>
<ellipse fill="none" stroke="black" cx="463.6" cy="-814" rx="193.999" ry="18"/>
<text text-anchor="middle" x="463.6" y="-810.3" font-family="Times,serif" font-size="14.00">DUPHOLD01:DOWNLOAD_DUPHOLD</text>
</g>
<!-- p27&#45;&gt;p28 -->
<g id="edge32" class="edge"><title>p27&#45;&gt;p28</title>
<path fill="none" stroke="black" d="M463.6,-884.265C463.6,-877.354 463.6,-858.578 463.6,-842.316"/>
<polygon fill="black" stroke="black" points="467.1,-842.143 463.6,-832.143 460.1,-842.143 467.1,-842.143"/>
<text text-anchor="middle" x="482.1" y="-854.3" font-family="Times,serif" font-size="14.00">meta</text>
</g>
<!-- p35 -->
<g id="node32" class="node"><title>p35</title>
<ellipse fill="none" stroke="black" cx="280.6" cy="-726" rx="164.153" ry="18"/>
<text text-anchor="middle" x="280.6" y="-722.3" font-family="Times,serif" font-size="14.00">DUPHOLD01:APPLY_DUPHOLD</text>
</g>
<!-- p28&#45;&gt;p35 -->
<g id="edge33" class="edge"><title>p28&#45;&gt;p35</title>
<path fill="none" stroke="black" d="M427.881,-796.214C398.565,-782.437 356.895,-762.854 325.355,-748.033"/>
<polygon fill="black" stroke="black" points="326.456,-744.683 315.917,-743.597 323.479,-751.018 326.456,-744.683"/>
</g>
<!-- p28&#45;&gt;p29 -->
<g id="edge34" class="edge"><title>p28&#45;&gt;p29</title>
<path fill="none" stroke="black" d="M464.207,-795.597C464.784,-779.046 465.639,-754.54 466.156,-739.737"/>
<polygon fill="black" stroke="black" points="469.656,-739.787 466.507,-729.671 462.66,-739.543 469.656,-739.787"/>
</g>
<!-- p37 -->
<g id="node39" class="node"><title>p37</title>
<ellipse fill="none" stroke="black" cx="280.6" cy="-652" rx="3.25" ry="3.5"/>
<text text-anchor="middle" x="235.6" y="-659.3" font-family="Times,serif" font-size="14.00">groupTuple</text>
</g>
<!-- p35&#45;&gt;p37 -->
<g id="edge41" class="edge"><title>p35&#45;&gt;p37</title>
<path fill="none" stroke="black" d="M280.6,-707.937C280.6,-695.126 280.6,-677.843 280.6,-666.107"/>
<polygon fill="black" stroke="black" points="284.1,-665.748 280.6,-655.748 277.1,-665.748 284.1,-665.748"/>
</g>
<!-- p35&#45;&gt;p36 -->
<g id="edge42" class="edge"><title>p35&#45;&gt;p36</title>
<path fill="none" stroke="black" d="M310.751,-708.301C338.841,-692.743 379.259,-670.358 398.942,-659.457"/>
<polygon fill="black" stroke="black" points="400.833,-662.411 407.885,-654.504 397.441,-656.287 400.833,-662.411"/>
</g>
<!-- p40 -->
<g id="node40" class="node"><title>p40</title>
<ellipse fill="none" stroke="black" cx="408.6" cy="-504" rx="3.25" ry="3.5"/>
<text text-anchor="middle" x="391.6" y="-511.3" font-family="Times,serif" font-size="14.00">mix</text>
</g>
<!-- p36&#45;&gt;p40 -->
<g id="edge43" class="edge"><title>p36&#45;&gt;p40</title>
<path fill="none" stroke="black" d="M410.565,-648.466C410.352,-632.891 409.213,-549.746 408.773,-517.652"/>
<polygon fill="black" stroke="black" points="412.272,-517.555 408.636,-507.604 405.273,-517.651 412.272,-517.555"/>
<text text-anchor="middle" x="449.6" y="-574.3" font-family="Times,serif" font-size="14.00">version_ch</text>
</g>
<!-- p31&#45;&gt;p35 -->
<g id="edge37" class="edge"><title>p31&#45;&gt;p35</title>
<path fill="none" stroke="black" d="M157.52,-811.262C149.579,-804.422 122.282,-778.915 135.6,-762 141.671,-754.29 156.856,-748.077 175.226,-743.151"/>
<polygon fill="black" stroke="black" points="176.236,-746.507 185.092,-740.691 174.542,-739.715 176.236,-746.507"/>
<text text-anchor="middle" x="174.1" y="-766.3" font-family="Times,serif" font-size="14.00">per_contig</text>
</g>
<!-- p32 -->
<g id="node35" class="node"><title>p32</title>
<ellipse fill="black" stroke="black" cx="112.6" cy="-578" rx="3.6" ry="3.6"/>
<text text-anchor="middle" x="54.5" y="-585.4" font-family="Times,serif" font-size="14.00">Channel.empty</text>
</g>
<!-- p41 -->
<g id="node36" class="node"><title>p41</title>
<ellipse fill="none" stroke="black" cx="114.6" cy="-504" rx="3.25" ry="3.5"/>
<text text-anchor="middle" x="97.6" y="-511.3" font-family="Times,serif" font-size="14.00">mix</text>
</g>
<!-- p32&#45;&gt;p41 -->
<g id="edge38" class="edge"><title>p32&#45;&gt;p41</title>
<path fill="none" stroke="black" d="M112.676,-574.265C112.93,-565.133 113.759,-535.282 114.242,-517.892"/>
<polygon fill="black" stroke="black" points="117.745,-517.831 114.524,-507.737 110.748,-517.636 117.745,-517.831"/>
<text text-anchor="middle" x="136.1" y="-530.3" font-family="Times,serif" font-size="14.00">to_zip</text>
</g>
<!-- p47 -->
<g id="node44" class="node"><title>p47</title>
<ellipse fill="none" stroke="black" cx="162.6" cy="-282" rx="3.25" ry="3.5"/>
<text text-anchor="middle" x="145.6" y="-289.3" font-family="Times,serif" font-size="14.00">mix</text>
</g>
<!-- p41&#45;&gt;p47 -->
<g id="edge49" class="edge"><title>p41&#45;&gt;p47</title>
<path fill="none" stroke="black" d="M114.662,-500.46C115.072,-485.81 117.888,-410.704 133.6,-352 139.213,-331.03 149.85,-308.044 156.564,-294.604"/>
<polygon fill="black" stroke="black" points="159.764,-296.035 161.229,-285.541 153.54,-292.831 159.764,-296.035"/>
<text text-anchor="middle" x="145.1" y="-410.3" font-family="Times,serif" font-size="14.00">to_zip</text>
</g>
<!-- p33 -->
<g id="node37" class="node"><title>p33</title>
<ellipse fill="black" stroke="black" cx="221.6" cy="-814" rx="3.6" ry="3.6"/>
</g>
<!-- p33&#45;&gt;p35 -->
<g id="edge39" class="edge"><title>p33&#45;&gt;p35</title>
<path fill="none" stroke="black" d="M220.693,-810.441C218.071,-802.572 211.249,-778.28 220.6,-762 223.235,-757.412 226.73,-753.368 230.711,-749.818"/>
<polygon fill="black" stroke="black" points="233.05,-752.435 238.871,-743.583 228.8,-746.873 233.05,-752.435"/>
<text text-anchor="middle" x="239.1" y="-766.3" font-family="Times,serif" font-size="14.00">meta</text>
</g>
<!-- p34 -->
<g id="node38" class="node"><title>p34</title>
<ellipse fill="black" stroke="black" cx="247.6" cy="-814" rx="3.6" ry="3.6"/>
</g>
<!-- p34&#45;&gt;p35 -->
<g id="edge40" class="edge"><title>p34&#45;&gt;p35</title>
<path fill="none" stroke="black" d="M248.552,-810.519C251.727,-802.245 262.21,-774.926 270.331,-753.761"/>
<polygon fill="black" stroke="black" points="273.659,-754.858 273.974,-744.268 267.124,-752.35 273.659,-754.858"/>
<text text-anchor="middle" x="284.6" y="-766.3" font-family="Times,serif" font-size="14.00">snps</text>
</g>
<!-- p39 -->
<g id="node41" class="node"><title>p39</title>
<ellipse fill="none" stroke="black" cx="254.6" cy="-578" rx="120.359" ry="18"/>
<text text-anchor="middle" x="254.6" y="-574.3" font-family="Times,serif" font-size="14.00">DUPHOLD01:CONCAT</text>
</g>
<!-- p37&#45;&gt;p39 -->
<g id="edge44" class="edge"><title>p37&#45;&gt;p39</title>
<path fill="none" stroke="black" d="M279.735,-648.604C277.327,-641.936 270.329,-622.557 264.326,-605.935"/>
<polygon fill="black" stroke="black" points="267.456,-604.297 260.768,-596.08 260.872,-606.674 267.456,-604.297"/>
</g>
<!-- p42 -->
<g id="node43" class="node"><title>p42</title>
<ellipse fill="none" stroke="black" cx="408.6" cy="-444" rx="3.25" ry="3.5"/>
<text text-anchor="middle" x="380.6" y="-451.3" font-family="Times,serif" font-size="14.00">collect</text>
</g>
<!-- p40&#45;&gt;p42 -->
<g id="edge48" class="edge"><title>p40&#45;&gt;p42</title>
<path fill="none" stroke="black" d="M408.6,-500.203C408.6,-492.649 408.6,-471.48 408.6,-457.66"/>
<polygon fill="black" stroke="black" points="412.1,-457.636 408.6,-447.636 405.1,-457.636 412.1,-457.636"/>
<text text-anchor="middle" x="447.6" y="-470.3" font-family="Times,serif" font-size="14.00">version_ch</text>
</g>
<!-- p39&#45;&gt;p41 -->
<g id="edge46" class="edge"><title>p39&#45;&gt;p41</title>
<path fill="none" stroke="black" d="M225.602,-560.304C207.416,-550.032 183.37,-536.811 161.6,-526 149.991,-520.235 136.451,-514.262 126.893,-510.167"/>
<polygon fill="black" stroke="black" points="128.182,-506.912 117.609,-506.244 125.458,-513.36 128.182,-506.912"/>
</g>
<!-- p39&#45;&gt;p40 -->
<g id="edge47" class="edge"><title>p39&#45;&gt;p40</title>
<path fill="none" stroke="black" d="M289.545,-560.662C323.703,-544.692 373.788,-521.276 396.548,-510.635"/>
<polygon fill="black" stroke="black" points="398.154,-513.747 405.731,-506.341 395.19,-507.406 398.154,-513.747"/>
</g>
<!-- p38 -->
<g id="node42" class="node"><title>p38</title>
<ellipse fill="black" stroke="black" cx="228.6" cy="-652" rx="3.6" ry="3.6"/>
</g>
<!-- p38&#45;&gt;p39 -->
<g id="edge45" class="edge"><title>p38&#45;&gt;p39</title>
<path fill="none" stroke="black" d="M227.743,-648.206C225.958,-641.895 222.341,-626.141 226.6,-614 227.769,-610.668 229.403,-607.418 231.301,-604.325"/>
<polygon fill="black" stroke="black" points="234.219,-606.26 237.18,-596.088 228.521,-602.194 234.219,-606.26"/>
<text text-anchor="middle" x="245.1" y="-618.3" font-family="Times,serif" font-size="14.00">meta</text>
</g>
<!-- p46 -->
<g id="node45" class="node"><title>p46</title>
<ellipse fill="none" stroke="black" cx="307.6" cy="-370" rx="165.128" ry="18"/>
<text text-anchor="middle" x="307.6" y="-366.3" font-family="Times,serif" font-size="14.00">DUPHOLD01:MERGE_VERSION</text>
</g>
<!-- p42&#45;&gt;p46 -->
<g id="edge50" class="edge"><title>p42&#45;&gt;p46</title>
<path fill="none" stroke="black" d="M408.315,-440.279C407.473,-433.562 404.404,-416.009 394.6,-406 389.073,-400.357 382.516,-395.596 375.519,-391.585"/>
<polygon fill="black" stroke="black" points="376.953,-388.386 366.463,-386.896 373.734,-394.602 376.953,-388.386"/>
</g>
<!-- p50 -->
<g id="node49" class="node"><title>p50</title>
<ellipse fill="none" stroke="black" cx="278.6" cy="-208" rx="3.25" ry="3.5"/>
<text text-anchor="middle" x="261.6" y="-215.3" font-family="Times,serif" font-size="14.00">mix</text>
</g>
<!-- p47&#45;&gt;p50 -->
<g id="edge55" class="edge"><title>p47&#45;&gt;p50</title>
<path fill="none" stroke="black" d="M163.87,-278.773C165.953,-275.272 170.39,-268.426 175.6,-264 204.394,-239.539 245.855,-221.543 266.277,-213.564"/>
<polygon fill="black" stroke="black" points="267.668,-216.78 275.796,-209.985 265.204,-210.228 267.668,-216.78"/>
<text text-anchor="middle" x="251.1" y="-234.3" font-family="Times,serif" font-size="14.00">to_zip</text>
</g>
<!-- p46&#45;&gt;p47 -->
<g id="edge54" class="edge"><title>p46&#45;&gt;p47</title>
<path fill="none" stroke="black" d="M265.21,-352.529C237.813,-340.576 202.403,-322.567 175.6,-300 173.394,-298.142 171.33,-295.848 169.526,-293.553"/>
<polygon fill="black" stroke="black" points="172.384,-291.532 163.866,-285.233 166.596,-295.47 172.384,-291.532"/>
</g>
<!-- p49 -->
<g id="node51" class="node"><title>p49</title>
<ellipse fill="none" stroke="black" cx="361.6" cy="-282" rx="177.151" ry="18"/>
<text text-anchor="middle" x="361.6" y="-278.3" font-family="Times,serif" font-size="14.00">DUPHOLD01:VERSION_TO_HTML</text>
</g>
<!-- p46&#45;&gt;p49 -->
<g id="edge57" class="edge"><title>p46&#45;&gt;p49</title>
<path fill="none" stroke="black" d="M318.269,-352.009C325.984,-339.722 336.549,-322.895 345.316,-308.934"/>
<polygon fill="black" stroke="black" points="348.415,-310.58 350.769,-300.25 342.487,-306.858 348.415,-310.58"/>
<text text-anchor="middle" x="353.1" y="-322.3" font-family="Times,serif" font-size="14.00">xml</text>
</g>
<!-- p43 -->
<g id="node46" class="node"><title>p43</title>
<ellipse fill="black" stroke="black" cx="188.6" cy="-444" rx="3.6" ry="3.6"/>
</g>
<!-- p43&#45;&gt;p46 -->
<g id="edge51" class="edge"><title>p43&#45;&gt;p46</title>
<path fill="none" stroke="black" d="M189.971,-440.263C193.485,-433.509 203.469,-415.881 216.6,-406 224.229,-400.259 232.914,-395.349 241.82,-391.182"/>
<polygon fill="black" stroke="black" points="243.384,-394.318 251.145,-387.105 240.58,-387.904 243.384,-394.318"/>
<text text-anchor="middle" x="235.1" y="-410.3" font-family="Times,serif" font-size="14.00">meta</text>
</g>
<!-- p44 -->
<g id="node47" class="node"><title>p44</title>
<ellipse fill="black" stroke="black" cx="248.6" cy="-444" rx="3.6" ry="3.6"/>
</g>
<!-- p44&#45;&gt;p46 -->
<g id="edge52" class="edge"><title>p44&#45;&gt;p46</title>
<path fill="none" stroke="black" d="M249.334,-440.458C251.244,-434.147 256.834,-417.451 265.6,-406 268.615,-402.062 272.148,-398.274 275.864,-394.738"/>
<polygon fill="black" stroke="black" points="278.462,-397.112 283.637,-387.867 273.826,-391.867 278.462,-397.112"/>
<text text-anchor="middle" x="285.6" y="-410.3" font-family="Times,serif" font-size="14.00">name</text>
</g>
<!-- p45 -->
<g id="node48" class="node"><title>p45</title>
<ellipse fill="black" stroke="black" cx="311.6" cy="-444" rx="3.6" ry="3.6"/>
</g>
<!-- p45&#45;&gt;p46 -->
<g id="edge53" class="edge"><title>p45&#45;&gt;p46</title>
<path fill="none" stroke="black" d="M311.448,-440.265C311.064,-433.354 310.021,-414.578 309.118,-398.316"/>
<polygon fill="black" stroke="black" points="312.602,-397.933 308.552,-388.143 305.613,-398.322 312.602,-397.933"/>
<text text-anchor="middle" x="351.6" y="-410.3" font-family="Times,serif" font-size="14.00">description</text>
</g>
<!-- p51 -->
<g id="node52" class="node"><title>p51</title>
<ellipse fill="none" stroke="black" cx="278.6" cy="-148" rx="3.25" ry="3.5"/>
<text text-anchor="middle" x="250.6" y="-155.3" font-family="Times,serif" font-size="14.00">collect</text>
</g>
<!-- p50&#45;&gt;p51 -->
<g id="edge59" class="edge"><title>p50&#45;&gt;p51</title>
<path fill="none" stroke="black" d="M278.6,-204.203C278.6,-196.649 278.6,-175.48 278.6,-161.66"/>
<polygon fill="black" stroke="black" points="282.1,-161.636 278.6,-151.636 275.1,-161.636 282.1,-161.636"/>
<text text-anchor="middle" x="300.1" y="-174.3" font-family="Times,serif" font-size="14.00">to_zip</text>
</g>
<!-- p48 -->
<g id="node50" class="node"><title>p48</title>
<ellipse fill="black" stroke="black" cx="494.6" cy="-370" rx="3.6" ry="3.6"/>
</g>
<!-- p48&#45;&gt;p49 -->
<g id="edge56" class="edge"><title>p48&#45;&gt;p49</title>
<path fill="none" stroke="black" d="M493.025,-366.32C490.817,-362.73 486.517,-356.311 481.6,-352 459.667,-332.767 431.553,-316.26 408.052,-304.218"/>
<polygon fill="black" stroke="black" points="409.471,-301.014 398.962,-299.662 406.334,-307.272 409.471,-301.014"/>
<text text-anchor="middle" x="476.1" y="-322.3" font-family="Times,serif" font-size="14.00">meta</text>
</g>
<!-- p49&#45;&gt;p50 -->
<g id="edge58" class="edge"><title>p49&#45;&gt;p50</title>
<path fill="none" stroke="black" d="M341.93,-263.937C325.122,-249.356 301.635,-228.982 288.499,-217.587"/>
<polygon fill="black" stroke="black" points="290.601,-214.777 280.754,-210.868 286.014,-220.065 290.601,-214.777"/>
</g>
<!-- p53 -->
<g id="node53" class="node"><title>p53</title>
<ellipse fill="none" stroke="black" cx="294.6" cy="-74" rx="153.08" ry="18"/>
<text text-anchor="middle" x="294.6" y="-70.3" font-family="Times,serif" font-size="14.00">DUPHOLD01:SIMPLE_ZIP_01</text>
</g>
<!-- p51&#45;&gt;p53 -->
<g id="edge60" class="edge"><title>p51&#45;&gt;p53</title>
<path fill="none" stroke="black" d="M279.208,-144.265C280.744,-137.354 284.916,-118.578 288.53,-102.316"/>
<polygon fill="black" stroke="black" points="292.038,-102.664 290.79,-92.1429 285.204,-101.145 292.038,-102.664"/>
</g>
<!-- p55 -->
<g id="node55" class="node"><title>p55</title>
<ellipse fill="black" stroke="black" cx="276.6" cy="-2" rx="1.8" ry="1.8"/>
</g>
<!-- p53&#45;&gt;p55 -->
<g id="edge62" class="edge"><title>p53&#45;&gt;p55</title>
<path fill="none" stroke="black" d="M284.43,-55.7436C281.691,-50.2541 279.079,-44.0362 277.6,-38 275.675,-30.1475 275.481,-21.0073 275.738,-14.0369"/>
<polygon fill="black" stroke="black" points="279.242,-14.1155 276.491,-3.88397 272.261,-13.5976 279.242,-14.1155"/>
<text text-anchor="middle" x="288.6" y="-26.3" font-family="Times,serif" font-size="14.00">zip</text>
</g>
<!-- p54 -->
<g id="node56" class="node"><title>p54</title>
<ellipse fill="black" stroke="black" cx="313.6" cy="-2" rx="1.8" ry="1.8"/>
</g>
<!-- p53&#45;&gt;p54 -->
<g id="edge63" class="edge"><title>p53&#45;&gt;p54</title>
<path fill="none" stroke="black" d="M299.297,-55.6966C302.882,-42.488 307.706,-24.716 310.734,-13.5595"/>
<polygon fill="black" stroke="black" points="314.139,-14.375 313.381,-3.8073 307.384,-12.5413 314.139,-14.375"/>
</g>
<!-- p52 -->
<g id="node54" class="node"><title>p52</title>
<ellipse fill="black" stroke="black" cx="311.6" cy="-148" rx="3.6" ry="3.6"/>
</g>
<!-- p52&#45;&gt;p53 -->
<g id="edge61" class="edge"><title>p52&#45;&gt;p53</title>
<path fill="none" stroke="black" d="M310.954,-144.265C309.322,-137.354 304.889,-118.578 301.05,-102.316"/>
<polygon fill="black" stroke="black" points="304.352,-101.071 298.648,-92.1429 297.539,-102.68 304.352,-101.071"/>
<text text-anchor="middle" x="325.1" y="-114.3" font-family="Times,serif" font-size="14.00">meta</text>
</g>
</g>
</svg>
