<?xml version="1.0" encoding="UTF-8" standalone="no"?>
<!DOCTYPE svg PUBLIC "-//W3C//DTD SVG 1.1//EN"
 "http://www.w3.org/Graphics/SVG/1.1/DTD/svg11.dtd">
<!-- Generated by graphviz version 2.30.1 (20201013.1554)
 -->
<!-- Title: 20220716rotavirusstdepthvcfworkflow Pages: 1 -->
<svg width="854pt" height="1232pt"
 viewBox="0.00 0.00 853.60 1232.00" xmlns="http://www.w3.org/2000/svg" xmlns:xlink="http://www.w3.org/1999/xlink">
<g id="graph0" class="graph" transform="scale(1 1) rotate(0) translate(4 1228)">
<title>20220716rotavirusstdepthvcfworkflow</title>
<polygon fill="white" stroke="white" points="-4,5 -4,-1228 850.6,-1228 850.6,5 -4,5"/>
<!-- p0 -->
<g id="node1" class="node"><title>p0</title>
<ellipse fill="black" stroke="black" cx="88.6" cy="-1146" rx="3.6" ry="3.6"/>
<text text-anchor="middle" x="42.5" y="-1153.4" font-family="Times,serif" font-size="14.00">Channel.empty</text>
</g>
<!-- p4 -->
<g id="node2" class="node"><title>p4</title>
<ellipse fill="none" stroke="black" cx="157.6" cy="-1072" rx="3.25" ry="3.5"/>
<text text-anchor="middle" x="143.1" y="-1079.3" font-family="Times,serif" font-size="14.00">mix</text>
</g>
<!-- p0&#45;&gt;p4 -->
<g id="edge1" class="edge"><title>p0&#45;&gt;p4</title>
<path fill="none" stroke="black" d="M90.3467,-1142.49C92.7494,-1139.1 97.2704,-1132.9 101.6,-1128 116.826,-1110.77 136.311,-1092.35 147.825,-1081.81"/>
<polygon fill="black" stroke="black" points="150.287,-1084.3 155.353,-1074.99 145.59,-1079.11 150.287,-1084.3"/>
<text text-anchor="middle" x="165.1" y="-1098.3" font-family="Times,serif" font-size="14.00">version_ch</text>
</g>
<!-- p9 -->
<g id="node7" class="node"><title>p9</title>
<ellipse fill="none" stroke="black" cx="157.6" cy="-892" rx="3.25" ry="3.5"/>
<text text-anchor="middle" x="143.1" y="-899.3" font-family="Times,serif" font-size="14.00">mix</text>
</g>
<!-- p4&#45;&gt;p9 -->
<g id="edge6" class="edge"><title>p4&#45;&gt;p9</title>
<path fill="none" stroke="black" d="M157.6,-1068.48C157.6,-1050.72 157.6,-943.83 157.6,-906.142"/>
<polygon fill="black" stroke="black" points="161.1,-905.681 157.6,-895.681 154.1,-905.681 161.1,-905.681"/>
<text text-anchor="middle" x="188.1" y="-992.3" font-family="Times,serif" font-size="14.00">version_ch</text>
</g>
<!-- p1 -->
<g id="node3" class="node"><title>p1</title>
<ellipse fill="black" stroke="black" cx="327.6" cy="-1220" rx="3.6" ry="3.6"/>
</g>
<!-- p3 -->
<g id="node4" class="node"><title>p3</title>
<ellipse fill="none" stroke="black" cx="353.6" cy="-1146" rx="243.118" ry="18"/>
<text text-anchor="middle" x="353.6" y="-1142.3" font-family="Times,serif" font-size="14.00">SAMTOOLS_DEPTH_VCF_01:SAMTOOLS_SAMPLES02</text>
</g>
<!-- p1&#45;&gt;p3 -->
<g id="edge2" class="edge"><title>p1&#45;&gt;p3</title>
<path fill="none" stroke="black" d="M327.829,-1216.23C328.408,-1209.97 330.213,-1194.32 334.6,-1182 335.634,-1179.1 336.883,-1176.15 338.242,-1173.25"/>
<polygon fill="black" stroke="black" points="341.377,-1174.81 342.826,-1164.31 335.148,-1171.61 341.377,-1174.81"/>
<text text-anchor="middle" x="348.6" y="-1186.3" font-family="Times,serif" font-size="14.00">meta</text>
</g>
<!-- p5 -->
<g id="node6" class="node"><title>p5</title>
<ellipse fill="none" stroke="black" cx="353.6" cy="-1072" rx="3.25" ry="3.5"/>
<text text-anchor="middle" x="327.1" y="-1079.3" font-family="Times,serif" font-size="14.00">splitCsv</text>
</g>
<!-- p3&#45;&gt;p5 -->
<g id="edge4" class="edge"><title>p3&#45;&gt;p5</title>
<path fill="none" stroke="black" d="M353.6,-1127.94C353.6,-1115.13 353.6,-1097.84 353.6,-1086.11"/>
<polygon fill="black" stroke="black" points="357.1,-1085.75 353.6,-1075.75 350.1,-1085.75 357.1,-1085.75"/>
</g>
<!-- p3&#45;&gt;p4 -->
<g id="edge5" class="edge"><title>p3&#45;&gt;p4</title>
<path fill="none" stroke="black" d="M308.141,-1128.3C263.03,-1111.73 196.831,-1087.41 169.787,-1077.48"/>
<polygon fill="black" stroke="black" points="170.927,-1074.17 160.333,-1074 168.513,-1080.74 170.927,-1074.17"/>
</g>
<!-- p2 -->
<g id="node5" class="node"><title>p2</title>
<ellipse fill="black" stroke="black" cx="378.6" cy="-1220" rx="3.6" ry="3.6"/>
</g>
<!-- p2&#45;&gt;p3 -->
<g id="edge3" class="edge"><title>p2&#45;&gt;p3</title>
<path fill="none" stroke="black" d="M377.65,-1216.27C375.228,-1209.29 368.607,-1190.22 362.924,-1173.85"/>
<polygon fill="black" stroke="black" points="366.139,-1172.44 359.552,-1164.14 359.526,-1174.74 366.139,-1172.44"/>
<text text-anchor="middle" x="382.6" y="-1186.3" font-family="Times,serif" font-size="14.00">row</text>
</g>
<!-- p6 -->
<g id="node8" class="node"><title>p6</title>
<ellipse fill="none" stroke="black" cx="353.6" cy="-1026" rx="3.25" ry="3.5"/>
<text text-anchor="middle" x="337.6" y="-1033.3" font-family="Times,serif" font-size="14.00">map</text>
</g>
<!-- p5&#45;&gt;p6 -->
<g id="edge7" class="edge"><title>p5&#45;&gt;p6</title>
<path fill="none" stroke="black" d="M353.6,-1068.38C353.6,-1062.86 353.6,-1049.74 353.6,-1039.74"/>
<polygon fill="black" stroke="black" points="357.1,-1039.55 353.6,-1029.55 350.1,-1039.55 357.1,-1039.55"/>
</g>
<!-- p14 -->
<g id="node12" class="node"><title>p14</title>
<ellipse fill="none" stroke="black" cx="318.6" cy="-684" rx="3.25" ry="3.5"/>
<text text-anchor="middle" x="304.1" y="-691.3" font-family="Times,serif" font-size="14.00">mix</text>
</g>
<!-- p9&#45;&gt;p14 -->
<g id="edge12" class="edge"><title>p9&#45;&gt;p14</title>
<path fill="none" stroke="black" d="M157.144,-888.43C154.671,-873.662 144.145,-798.686 176.6,-754 208.59,-709.954 276.412,-692.721 305.213,-687.208"/>
<polygon fill="black" stroke="black" points="305.936,-690.635 315.193,-685.481 304.743,-683.737 305.936,-690.635"/>
<text text-anchor="middle" x="187.1" y="-812.3" font-family="Times,serif" font-size="14.00">version_ch</text>
</g>
<!-- p8 -->
<g id="node9" class="node"><title>p8</title>
<ellipse fill="none" stroke="black" cx="369.6" cy="-952" rx="182.451" ry="18"/>
<text text-anchor="middle" x="369.6" y="-948.3" font-family="Times,serif" font-size="14.00">SAMTOOLS_DEPTH_VCF_01:ST_DEPTH</text>
</g>
<!-- p6&#45;&gt;p8 -->
<g id="edge8" class="edge"><title>p6&#45;&gt;p8</title>
<path fill="none" stroke="black" d="M354.208,-1022.27C355.744,-1015.35 359.916,-996.578 363.53,-980.316"/>
<polygon fill="black" stroke="black" points="367.038,-980.664 365.79,-970.143 360.204,-979.145 367.038,-980.664"/>
</g>
<!-- p10 -->
<g id="node11" class="node"><title>p10</title>
<ellipse fill="none" stroke="black" cx="370.6" cy="-892" rx="3.25" ry="3.5"/>
<text text-anchor="middle" x="354.6" y="-899.3" font-family="Times,serif" font-size="14.00">map</text>
</g>
<!-- p8&#45;&gt;p10 -->
<g id="edge10" class="edge"><title>p8&#45;&gt;p10</title>
<path fill="none" stroke="black" d="M369.895,-933.912C370.049,-924.965 370.235,-914.187 370.377,-905.94"/>
<polygon fill="black" stroke="black" points="373.881,-905.75 370.554,-895.691 366.882,-905.629 373.881,-905.75"/>
</g>
<!-- p8&#45;&gt;p9 -->
<g id="edge11" class="edge"><title>p8&#45;&gt;p9</title>
<path fill="none" stroke="black" d="M310.828,-934.921C262.589,-921.723 197.948,-904.039 170.643,-896.568"/>
<polygon fill="black" stroke="black" points="171.262,-893.109 160.693,-893.846 169.415,-899.861 171.262,-893.109"/>
</g>
<!-- p7 -->
<g id="node10" class="node"><title>p7</title>
<ellipse fill="black" stroke="black" cx="386.6" cy="-1026" rx="3.6" ry="3.6"/>
</g>
<!-- p7&#45;&gt;p8 -->
<g id="edge9" class="edge"><title>p7&#45;&gt;p8</title>
<path fill="none" stroke="black" d="M385.954,-1022.27C384.322,-1015.35 379.889,-996.578 376.05,-980.316"/>
<polygon fill="black" stroke="black" points="379.352,-979.071 373.648,-970.143 372.539,-980.68 379.352,-979.071"/>
<text text-anchor="middle" x="395.6" y="-992.3" font-family="Times,serif" font-size="14.00">meta</text>
</g>
<!-- p11 -->
<g id="node13" class="node"><title>p11</title>
<ellipse fill="none" stroke="black" cx="373.6" cy="-846" rx="3.25" ry="3.5"/>
<text text-anchor="middle" x="351.6" y="-853.3" font-family="Times,serif" font-size="14.00">collect</text>
</g>
<!-- p10&#45;&gt;p11 -->
<g id="edge13" class="edge"><title>p10&#45;&gt;p11</title>
<path fill="none" stroke="black" d="M370.779,-888.379C371.155,-882.864 372.049,-869.742 372.731,-859.742"/>
<polygon fill="black" stroke="black" points="376.238,-859.767 373.426,-849.552 369.254,-859.291 376.238,-859.767"/>
</g>
<!-- p17 -->
<g id="node17" class="node"><title>p17</title>
<ellipse fill="none" stroke="black" cx="366.6" cy="-610" rx="3.25" ry="3.5"/>
<text text-anchor="middle" x="352.1" y="-617.3" font-family="Times,serif" font-size="14.00">mix</text>
</g>
<!-- p14&#45;&gt;p17 -->
<g id="edge18" class="edge"><title>p14&#45;&gt;p17</title>
<path fill="none" stroke="black" d="M320.197,-680.604C326.232,-671.552 347.885,-639.072 359.354,-621.869"/>
<polygon fill="black" stroke="black" points="362.313,-623.74 364.948,-613.478 356.489,-619.857 362.313,-623.74"/>
<text text-anchor="middle" x="383.1" y="-636.3" font-family="Times,serif" font-size="14.00">version_ch</text>
</g>
<!-- p13 -->
<g id="node14" class="node"><title>p13</title>
<ellipse fill="none" stroke="black" cx="421.6" cy="-772" rx="235.394" ry="18"/>
<text text-anchor="middle" x="421.6" y="-768.3" font-family="Times,serif" font-size="14.00">SAMTOOLS_DEPTH_VCF_01:COLLECT_TO_FILE_01</text>
</g>
<!-- p11&#45;&gt;p13 -->
<g id="edge14" class="edge"><title>p11&#45;&gt;p13</title>
<path fill="none" stroke="black" d="M375.197,-842.604C379.768,-835.747 393.3,-815.449 404.58,-798.531"/>
<polygon fill="black" stroke="black" points="407.578,-800.342 410.213,-790.08 401.754,-796.459 407.578,-800.342"/>
</g>
<!-- p16 -->
<g id="node16" class="node"><title>p16</title>
<ellipse fill="none" stroke="black" cx="524.6" cy="-684" rx="184.375" ry="18"/>
<text text-anchor="middle" x="524.6" y="-680.3" font-family="Times,serif" font-size="14.00">SAMTOOLS_DEPTH_VCF_01:SQRT_FILE</text>
</g>
<!-- p13&#45;&gt;p16 -->
<g id="edge16" class="edge"><title>p13&#45;&gt;p16</title>
<path fill="none" stroke="black" d="M441.949,-754.009C457.467,-741.052 479.03,-723.049 496.24,-708.68"/>
<polygon fill="black" stroke="black" points="498.86,-711.051 504.293,-701.956 494.373,-705.678 498.86,-711.051"/>
</g>
<!-- p13&#45;&gt;p14 -->
<g id="edge17" class="edge"><title>p13&#45;&gt;p14</title>
<path fill="none" stroke="black" d="M394.769,-753.907C375.66,-740.992 350.028,-722.102 330.6,-702 328.943,-700.286 327.343,-698.325 325.88,-696.36"/>
<polygon fill="black" stroke="black" points="328.525,-694.013 320.089,-687.603 322.686,-697.875 328.525,-694.013"/>
</g>
<!-- p12 -->
<g id="node15" class="node"><title>p12</title>
<ellipse fill="black" stroke="black" cx="421.6" cy="-846" rx="3.6" ry="3.6"/>
</g>
<!-- p12&#45;&gt;p13 -->
<g id="edge15" class="edge"><title>p12&#45;&gt;p13</title>
<path fill="none" stroke="black" d="M421.6,-842.265C421.6,-835.354 421.6,-816.578 421.6,-800.316"/>
<polygon fill="black" stroke="black" points="425.1,-800.143 421.6,-790.143 418.1,-800.143 425.1,-800.143"/>
<text text-anchor="middle" x="435.6" y="-812.3" font-family="Times,serif" font-size="14.00">meta</text>
</g>
<!-- p18 -->
<g id="node19" class="node"><title>p18</title>
<ellipse fill="none" stroke="black" cx="524.6" cy="-610" rx="3.25" ry="3.5"/>
<text text-anchor="middle" x="496.6" y="-617.3" font-family="Times,serif" font-size="14.00">splitText</text>
</g>
<!-- p16&#45;&gt;p18 -->
<g id="edge20" class="edge"><title>p16&#45;&gt;p18</title>
<path fill="none" stroke="black" d="M524.6,-665.937C524.6,-653.126 524.6,-635.843 524.6,-624.107"/>
<polygon fill="black" stroke="black" points="528.1,-623.748 524.6,-613.748 521.1,-623.748 528.1,-623.748"/>
</g>
<!-- p16&#45;&gt;p17 -->
<g id="edge21" class="edge"><title>p16&#45;&gt;p17</title>
<path fill="none" stroke="black" d="M490.605,-666.218C469.681,-656.034 442.24,-642.936 417.6,-632 404.515,-626.193 389.32,-620.007 378.942,-615.864"/>
<polygon fill="black" stroke="black" points="379.973,-612.508 369.387,-612.086 377.399,-619.018 379.973,-612.508"/>
</g>
<!-- p22 -->
<g id="node20" class="node"><title>p22</title>
<ellipse fill="none" stroke="black" cx="366.6" cy="-430" rx="3.25" ry="3.5"/>
<text text-anchor="middle" x="352.1" y="-437.3" font-family="Times,serif" font-size="14.00">mix</text>
</g>
<!-- p17&#45;&gt;p22 -->
<g id="edge22" class="edge"><title>p17&#45;&gt;p22</title>
<path fill="none" stroke="black" d="M366.6,-606.484C366.6,-588.72 366.6,-481.83 366.6,-444.142"/>
<polygon fill="black" stroke="black" points="370.1,-443.681 366.6,-433.681 363.1,-443.681 370.1,-443.681"/>
<text text-anchor="middle" x="397.1" y="-530.3" font-family="Times,serif" font-size="14.00">version_ch</text>
</g>
<!-- p15 -->
<g id="node18" class="node"><title>p15</title>
<ellipse fill="black" stroke="black" cx="679.6" cy="-772" rx="3.6" ry="3.6"/>
</g>
<!-- p15&#45;&gt;p16 -->
<g id="edge19" class="edge"><title>p15&#45;&gt;p16</title>
<path fill="none" stroke="black" d="M677.9,-768.279C675.518,-764.642 670.881,-758.171 665.6,-754 639.868,-733.677 607.179,-717.216 579.756,-705.476"/>
<polygon fill="black" stroke="black" points="580.872,-702.149 570.296,-701.522 578.172,-708.608 580.872,-702.149"/>
<text text-anchor="middle" x="651.6" y="-724.3" font-family="Times,serif" font-size="14.00">meta</text>
</g>
<!-- p19 -->
<g id="node21" class="node"><title>p19</title>
<ellipse fill="none" stroke="black" cx="524.6" cy="-564" rx="3.25" ry="3.5"/>
<text text-anchor="middle" x="508.6" y="-571.3" font-family="Times,serif" font-size="14.00">map</text>
</g>
<!-- p18&#45;&gt;p19 -->
<g id="edge23" class="edge"><title>p18&#45;&gt;p19</title>
<path fill="none" stroke="black" d="M524.6,-606.379C524.6,-600.864 524.6,-587.742 524.6,-577.742"/>
<polygon fill="black" stroke="black" points="528.1,-577.552 524.6,-567.552 521.1,-577.552 528.1,-577.552"/>
</g>
<!-- p29 -->
<g id="node25" class="node"><title>p29</title>
<ellipse fill="none" stroke="black" cx="432.6" cy="-282" rx="3.25" ry="3.5"/>
<text text-anchor="middle" x="418.1" y="-289.3" font-family="Times,serif" font-size="14.00">mix</text>
</g>
<!-- p22&#45;&gt;p29 -->
<g id="edge28" class="edge"><title>p22&#45;&gt;p29</title>
<path fill="none" stroke="black" d="M366.13,-426.288C364.283,-414.852 358.343,-369.696 373.6,-338 384.048,-316.296 407.093,-298.927 421.09,-289.866"/>
<polygon fill="black" stroke="black" points="423.245,-292.652 429.961,-284.458 419.601,-286.675 423.245,-292.652"/>
<text text-anchor="middle" x="404.1" y="-352.3" font-family="Times,serif" font-size="14.00">version_ch</text>
</g>
<!-- p21 -->
<g id="node22" class="node"><title>p21</title>
<ellipse fill="none" stroke="black" cx="596.6" cy="-490" rx="201.223" ry="18"/>
<text text-anchor="middle" x="596.6" y="-486.3" font-family="Times,serif" font-size="14.00">SAMTOOLS_DEPTH_VCF_01:MERGE_BCFS0</text>
</g>
<!-- p19&#45;&gt;p21 -->
<g id="edge24" class="edge"><title>p19&#45;&gt;p21</title>
<path fill="none" stroke="black" d="M524.551,-560.368C524.564,-553.853 525.426,-536.727 533.6,-526 537.195,-521.282 541.619,-517.111 546.442,-513.447"/>
<polygon fill="black" stroke="black" points="548.538,-516.254 554.858,-507.751 544.615,-510.457 548.538,-516.254"/>
<text text-anchor="middle" x="568.6" y="-530.3" font-family="Times,serif" font-size="14.00">each_cluster</text>
</g>
<!-- p23 -->
<g id="node24" class="node"><title>p23</title>
<ellipse fill="none" stroke="black" cx="605.6" cy="-430" rx="3.25" ry="3.5"/>
<text text-anchor="middle" x="583.6" y="-437.3" font-family="Times,serif" font-size="14.00">collect</text>
</g>
<!-- p21&#45;&gt;p23 -->
<g id="edge26" class="edge"><title>p21&#45;&gt;p23</title>
<path fill="none" stroke="black" d="M599.252,-471.912C600.656,-462.858 602.352,-451.93 603.638,-443.647"/>
<polygon fill="black" stroke="black" points="607.108,-444.109 605.182,-433.691 600.19,-443.036 607.108,-444.109"/>
</g>
<!-- p21&#45;&gt;p22 -->
<g id="edge27" class="edge"><title>p21&#45;&gt;p22</title>
<path fill="none" stroke="black" d="M532.838,-472.921C479.805,-459.547 408.5,-441.566 379.587,-434.275"/>
<polygon fill="black" stroke="black" points="380.056,-430.784 369.503,-431.732 378.344,-437.571 380.056,-430.784"/>
</g>
<!-- p20 -->
<g id="node23" class="node"><title>p20</title>
<ellipse fill="black" stroke="black" cx="617.6" cy="-564" rx="3.6" ry="3.6"/>
</g>
<!-- p20&#45;&gt;p21 -->
<g id="edge25" class="edge"><title>p20&#45;&gt;p21</title>
<path fill="none" stroke="black" d="M616.802,-560.265C614.767,-553.288 609.206,-534.219 604.432,-517.852"/>
<polygon fill="black" stroke="black" points="607.76,-516.763 601.6,-508.143 601.04,-518.723 607.76,-516.763"/>
<text text-anchor="middle" x="625.6" y="-530.3" font-family="Times,serif" font-size="14.00">meta</text>
</g>
<!-- p26 -->
<g id="node26" class="node"><title>p26</title>
<ellipse fill="none" stroke="black" cx="644.6" cy="-356" rx="201.223" ry="18"/>
<text text-anchor="middle" x="644.6" y="-352.3" font-family="Times,serif" font-size="14.00">SAMTOOLS_DEPTH_VCF_01:MERGE_BCFS1</text>
</g>
<!-- p23&#45;&gt;p26 -->
<g id="edge29" class="edge"><title>p23&#45;&gt;p26</title>
<path fill="none" stroke="black" d="M606.898,-426.604C610.578,-419.81 621.405,-399.821 630.518,-382.997"/>
<polygon fill="black" stroke="black" points="633.663,-384.54 635.348,-374.08 627.508,-381.206 633.663,-384.54"/>
</g>
<!-- p30 -->
<g id="node31" class="node"><title>p30</title>
<ellipse fill="none" stroke="black" cx="432.6" cy="-222" rx="3.25" ry="3.5"/>
<text text-anchor="middle" x="410.6" y="-229.3" font-family="Times,serif" font-size="14.00">collect</text>
</g>
<!-- p29&#45;&gt;p30 -->
<g id="edge35" class="edge"><title>p29&#45;&gt;p30</title>
<path fill="none" stroke="black" d="M432.6,-278.203C432.6,-270.649 432.6,-249.48 432.6,-235.66"/>
<polygon fill="black" stroke="black" points="436.1,-235.636 432.6,-225.636 429.1,-235.636 436.1,-235.636"/>
<text text-anchor="middle" x="463.1" y="-248.3" font-family="Times,serif" font-size="14.00">version_ch</text>
</g>
<!-- p28 -->
<g id="node29" class="node"><title>p28</title>
<ellipse fill="black" stroke="black" cx="623.6" cy="-282" rx="1.8" ry="1.8"/>
</g>
<!-- p26&#45;&gt;p28 -->
<g id="edge32" class="edge"><title>p26&#45;&gt;p28</title>
<path fill="none" stroke="black" d="M632.63,-337.945C629.408,-332.464 626.337,-326.2 624.6,-320 622.234,-311.554 622.107,-301.595 622.504,-294.139"/>
<polygon fill="black" stroke="black" points="626.011,-294.223 623.461,-283.94 619.042,-293.569 626.011,-294.223"/>
<text text-anchor="middle" x="634.1" y="-308.3" font-family="Times,serif" font-size="14.00">vcf</text>
</g>
<!-- p27 -->
<g id="node30" class="node"><title>p27</title>
<ellipse fill="black" stroke="black" cx="665.6" cy="-282" rx="1.8" ry="1.8"/>
</g>
<!-- p26&#45;&gt;p27 -->
<g id="edge33" class="edge"><title>p26&#45;&gt;p27</title>
<path fill="none" stroke="black" d="M649.577,-337.937C653.578,-324.219 659.074,-305.373 662.479,-293.701"/>
<polygon fill="black" stroke="black" points="665.912,-294.429 665.352,-283.849 659.192,-292.469 665.912,-294.429"/>
<text text-anchor="middle" x="675.1" y="-308.3" font-family="Times,serif" font-size="14.00">index</text>
</g>
<!-- p26&#45;&gt;p29 -->
<g id="edge34" class="edge"><title>p26&#45;&gt;p29</title>
<path fill="none" stroke="black" d="M595.963,-338.482C546.759,-321.771 473.958,-297.046 445.069,-287.235"/>
<polygon fill="black" stroke="black" points="446.167,-283.911 435.573,-284.01 443.916,-290.54 446.167,-283.911"/>
</g>
<!-- p24 -->
<g id="node27" class="node"><title>p24</title>
<ellipse fill="black" stroke="black" cx="640.6" cy="-430" rx="3.6" ry="3.6"/>
</g>
<!-- p24&#45;&gt;p26 -->
<g id="edge30" class="edge"><title>p24&#45;&gt;p26</title>
<path fill="none" stroke="black" d="M640.619,-426.305C640.673,-420.197 640.877,-404.832 641.6,-392 641.744,-389.443 641.922,-386.782 642.118,-384.122"/>
<polygon fill="black" stroke="black" points="645.613,-384.327 642.935,-374.076 638.636,-383.759 645.613,-384.327"/>
<text text-anchor="middle" x="655.6" y="-396.3" font-family="Times,serif" font-size="14.00">meta</text>
</g>
<!-- p25 -->
<g id="node28" class="node"><title>p25</title>
<ellipse fill="black" stroke="black" cx="691.6" cy="-430" rx="3.6" ry="3.6"/>
</g>
<!-- p25&#45;&gt;p26 -->
<g id="edge31" class="edge"><title>p25&#45;&gt;p26</title>
<path fill="none" stroke="black" d="M690.277,-426.621C686.956,-420.682 677.934,-404.766 669.6,-392 667.562,-388.877 665.367,-385.641 663.155,-382.455"/>
<polygon fill="black" stroke="black" points="665.984,-380.393 657.354,-374.247 660.268,-384.434 665.984,-380.393"/>
<text text-anchor="middle" x="705.6" y="-396.3" font-family="Times,serif" font-size="14.00">reference</text>
</g>
<!-- p34 -->
<g id="node32" class="node"><title>p34</title>
<ellipse fill="none" stroke="black" cx="490.6" cy="-148" rx="213.247" ry="18"/>
<text text-anchor="middle" x="490.6" y="-144.3" font-family="Times,serif" font-size="14.00">SAMTOOLS_DEPTH_VCF_01:MERGE_VERSION</text>
</g>
<!-- p30&#45;&gt;p34 -->
<g id="edge36" class="edge"><title>p30&#45;&gt;p34</title>
<path fill="none" stroke="black" d="M434.32,-218.624C438.631,-212.694 450.29,-196.797 460.6,-184 463.255,-180.705 466.093,-177.278 468.925,-173.914"/>
<polygon fill="black" stroke="black" points="471.615,-176.154 475.434,-166.271 466.286,-171.615 471.615,-176.154"/>
</g>
<!-- p36 -->
<g id="node36" class="node"><title>p36</title>
<ellipse fill="none" stroke="black" cx="658.6" cy="-60" rx="100.137" ry="18"/>
<text text-anchor="middle" x="658.6" y="-56.3" font-family="Times,serif" font-size="14.00">VERSION_TO_HTML</text>
</g>
<!-- p34&#45;&gt;p36 -->
<g id="edge40" class="edge"><title>p34&#45;&gt;p36</title>
<path fill="none" stroke="black" d="M523.791,-130.009C550.799,-116.184 589.032,-96.6122 617.887,-81.841"/>
<polygon fill="black" stroke="black" points="619.594,-84.8995 626.9,-77.2273 616.404,-78.6685 619.594,-84.8995"/>
</g>
<!-- p31 -->
<g id="node33" class="node"><title>p31</title>
<ellipse fill="black" stroke="black" cx="465.6" cy="-222" rx="3.6" ry="3.6"/>
</g>
<!-- p31&#45;&gt;p34 -->
<g id="edge37" class="edge"><title>p31&#45;&gt;p34</title>
<path fill="none" stroke="black" d="M465.153,-218.218C464.253,-211.931 462.63,-196.223 466.6,-184 467.624,-180.847 469.03,-177.72 470.651,-174.709"/>
<polygon fill="black" stroke="black" points="473.691,-176.449 475.997,-166.109 467.745,-172.754 473.691,-176.449"/>
<text text-anchor="middle" x="480.6" y="-188.3" font-family="Times,serif" font-size="14.00">meta</text>
</g>
<!-- p32 -->
<g id="node34" class="node"><title>p32</title>
<ellipse fill="black" stroke="black" cx="516.6" cy="-222" rx="3.6" ry="3.6"/>
</g>
<!-- p32&#45;&gt;p34 -->
<g id="edge38" class="edge"><title>p32&#45;&gt;p34</title>
<path fill="none" stroke="black" d="M515.613,-218.265C513.093,-211.288 506.207,-192.219 500.297,-175.852"/>
<polygon fill="black" stroke="black" points="503.479,-174.36 496.79,-166.143 496.895,-176.737 503.479,-174.36"/>
<text text-anchor="middle" x="525.1" y="-188.3" font-family="Times,serif" font-size="14.00">name</text>
</g>
<!-- p33 -->
<g id="node35" class="node"><title>p33</title>
<ellipse fill="black" stroke="black" cx="570.6" cy="-222" rx="3.6" ry="3.6"/>
</g>
<!-- p33&#45;&gt;p34 -->
<g id="edge39" class="edge"><title>p33&#45;&gt;p34</title>
<path fill="none" stroke="black" d="M569.245,-218.416C565.796,-212.009 556.135,-195.111 544.6,-184 540.059,-179.626 534.895,-175.479 529.605,-171.673"/>
<polygon fill="black" stroke="black" points="531.493,-168.724 521.258,-165.986 527.552,-174.509 531.493,-168.724"/>
<text text-anchor="middle" x="588.6" y="-188.3" font-family="Times,serif" font-size="14.00">description</text>
</g>
<!-- p37 -->
<g id="node38" class="node"><title>p37</title>
<ellipse fill="black" stroke="black" cx="658.6" cy="-2" rx="1.8" ry="1.8"/>
</g>
<!-- p36&#45;&gt;p37 -->
<g id="edge42" class="edge"><title>p36&#45;&gt;p37</title>
<path fill="none" stroke="black" d="M658.6,-41.8939C658.6,-32.8876 658.6,-22.0999 658.6,-14.1727"/>
<polygon fill="black" stroke="black" points="662.1,-13.9957 658.6,-3.99575 655.1,-13.9958 662.1,-13.9957"/>
</g>
<!-- p35 -->
<g id="node37" class="node"><title>p35</title>
<ellipse fill="black" stroke="black" cx="725.6" cy="-148" rx="3.6" ry="3.6"/>
</g>
<!-- p35&#45;&gt;p36 -->
<g id="edge41" class="edge"><title>p35&#45;&gt;p36</title>
<path fill="none" stroke="black" d="M723.757,-144.572C721.245,-141.268 716.601,-135.172 712.6,-130 701.3,-115.393 688.573,-99.122 678.314,-86.0505"/>
<polygon fill="black" stroke="black" points="680.898,-83.6743 671.968,-77.9723 675.393,-87.9983 680.898,-83.6743"/>
<text text-anchor="middle" x="712.6" y="-100.3" font-family="Times,serif" font-size="14.00">meta</text>
</g>
</g>
</svg>
